<svg xmlns:i="&amp;ns_ai;" xmlns="http://www.w3.org/2000/svg" width="595.3" height="150"><switch transform="translate(0 -209)"><g i:extraneous="self"><circle cy="119.77" cx="454.19" stroke-miterlimit="10" transform="rotate(22.196)" r="33.002" fill="#999491" stroke="#858585" stroke-width="8.049"/><path d="M222.375 263.16s1.349-.377 3.681-.949c1.228-.316 2.577-.693 4.235-1.076 1.658-.384 3.438-.828 5.526-1.279 8.045-1.796 18.933-3.538 29.841-4.411 10.909-.874 22.025-.825 30.314-.252 4.084.317 7.607.473 9.961.77l1.486.14 1.919-14.87c10.605 6.895 20.3 14.39 28.774 22.49a189.074 189.074 0 00-32.943 11.372l1.797-14.81-1.486-.142c-2.353-.297-5.755-.513-9.774-.715-8.102-.52-18.91-.575-29.632.352-10.787.813-21.366 2.549-29.289 4.284-1.966.39-3.746.835-5.404 1.218-1.658.384-3.007.76-4.112 1.016-2.333.572-3.56.888-3.56.888z" fill="#9d539f" stroke-width=".3"/><path d="M214.522 280.719s1.442-.355 3.933-.892c1.311-.298 2.753-.652 4.524-1.012 1.77-.36 3.672-.778 5.903-1.202 8.594-1.689 20.224-3.327 31.877-4.148 11.653-.821 23.528-.775 32.383-.236 4.362.298 8.126.444 10.64.723l1.587.133 2.05-13.981c11.33 6.483 21.685 13.528 30.738 21.144-12.459 2.688-24.296 6.345-35.19 10.692l1.919-13.925-1.587-.133c-2.515-.279-6.149-.482-10.442-.672-8.655-.488-20.2-.54-31.654.331-11.522.765-22.823 2.396-31.287 4.028-2.1.367-4.002.784-5.773 1.145-1.77.36-3.212.714-4.393.955-2.491.537-3.802.835-3.802.835z" fill="#e90909" stroke-width=".3"/><path d="M210.41 309.727s1.548.389 4.227.977c1.409.325 2.958.714 4.862 1.108 1.903.394 3.947.851 6.345 1.314 9.236 1.846 21.734 3.628 34.253 4.507 12.519.879 25.274.798 34.782.18 4.684-.34 8.726-.512 11.426-.827l1.704-.15 2.252 15.456c12.145-7.198 23.243-15.016 32.939-23.46-13.391-2.943-26.119-6.957-37.836-11.737l2.112 15.395-1.704.15c-2.7.316-6.602.55-11.213.77-9.294.563-21.695.65-34-.286-12.379-.816-24.522-2.592-33.619-4.376-2.257-.4-4.301-.857-6.205-1.251-1.903-.394-3.452-.782-4.721-1.045-2.679-.589-4.088-.914-4.088-.914z" fill="#0e2db8" stroke-width=".3"/><path d="M224.392 302.217s1.346.246 3.663.59c1.221.197 2.567.444 4.212.665 1.644.22 3.414.491 5.482.736 7.973 1.006 18.687 1.657 29.323 1.412 10.637-.246 21.372-1.463 29.316-2.923 3.91-.755 7.296-1.285 9.537-1.838.946-.2 1.42-.302 1.42-.302l3.517 15.115c9.475-8.215 18.002-16.95 25.283-26.183a176.183 176.183 0 01-33.099-8.254l3.393 15.064-1.42.302c-2.24.553-5.502 1.132-9.363 1.763-7.77 1.385-18.205 2.577-28.667 2.747-10.512.295-20.927-.382-28.776-1.338-1.943-.195-3.713-.466-5.357-.687-1.645-.22-2.99-.467-4.087-.615-2.317-.344-3.538-.54-3.538-.54z" fill="#04bd3d" stroke-width=".3"/><circle cy="191.463" cx="286.217" stroke-miterlimit="10" transform="rotate(22.196)" r="33.002" fill="#b5b5b1" stroke="#878578" stroke-width="8.049"/></g></switch></svg>