<svg xmlns="http://www.w3.org/2000/svg" width="595.3" height="200"><g transform="matrix(.47127 0 0 .46783 157.85 -68.789)"><circle r="61.8" cy="233.923" cx="147.154" stroke-miterlimit="10" opacity=".14" stroke="#000" stroke-width="6"/><circle r="61.3" cy="237.423" cx="398.354" stroke-miterlimit="10" opacity=".14" stroke="#000" stroke-width="6"/><circle r="58.5" cy="470.123" cx="385.822" stroke-miterlimit="10" opacity=".14" stroke="#000" stroke-width="6"/><circle r="58.5" cy="466.323" cx="392.754" stroke-miterlimit="10" fill="#e1e1e1" stroke="#808285" stroke-width="10.649"/><g stroke="#818485" stroke-width="6.389" stroke-miterlimit="10" fill="none"><g stroke="#177fef"><path d="M315.1 101.79c10.682-4.135 21.77-7.738 33.127-11.074-8.518-8.139-17.577-16.01-27.178-23.616-2.04 12.119-3.103 21.663-5.949 34.69z" transform="matrix(.4768 -.02932 .03214 .42867 147.58 197.367)" stroke-width="35.526"/><path d="M197.036 89.49c39.237-9.724 89.303-9.828 120.462-3.317" stroke-width="10.649" paint-order="markers fill stroke" transform="matrix(.89574 0 0 .81736 18.384 154.236)"/></g><g stroke="#f6dd2a"><path d="M315.1 101.79c10.682-4.135 21.77-7.738 33.127-11.074-8.518-8.139-17.577-16.01-27.178-23.616-2.04 12.119-3.103 21.663-5.949 34.69z" transform="matrix(.0404 .47949 -.42465 .04253 420.365 215.987)" stroke-width="35.526"/><path d="M197.036 89.49c39.237-9.724 89.303-9.828 120.462-3.317" stroke-width="10.649" paint-order="markers fill stroke" transform="matrix(.02124 .90209 -.81116 .01938 460.105 84.854)"/></g><g stroke="#07ff45"><path d="M315.1 101.79c10.682-4.135 21.77-7.738 33.127-11.074-8.518-8.139-17.577-16.01-27.178-23.616-2.04 12.119-3.103 21.663-5.949 34.69z" transform="matrix(.34233 .33563 .30202 -.30371 174.44 344.507)" stroke-width="35.526"/><path d="M93.695 115.708c61.272-35.141 145.433-49.2 223.803-29.535" stroke-width="10.649" paint-order="markers fill stroke" transform="matrix(.67879 .58877 .52943 -.61939 48.6 292.27)"/></g></g><circle r="61.3" cy="233.523" cx="396.597" stroke-miterlimit="10" fill="#dbdbe5" stroke="#808285" stroke-width="10.649"/><circle r="61.8" cy="230.023" cx="141.054" stroke-miterlimit="10" fill="#ddd" stroke="#808285" stroke-width="10.649"/></g></svg>
