<svg xmlns:i="&amp;ns_ai;" xmlns="http://www.w3.org/2000/svg" width="595.3" height="200"><switch transform="translate(0 -159)"><g i:extraneous="self"><path d="M182.118 208.736s2.582-.721 7.045-1.815c2.348-.605 4.93-1.326 8.101-2.06 3.172-.734 6.577-1.583 10.573-2.446 15.392-3.436 36.222-6.77 57.093-8.44 20.87-1.672 42.14-1.579 57.998-.481 7.813.606 14.554.903 19.058 1.47l2.842.272 3.671-28.452c20.292 13.192 38.84 27.53 55.052 43.028-22.313 5.471-43.514 12.913-63.027 21.759l3.438-28.337-2.842-.27c-4.504-.568-11.012-.981-18.701-1.369-15.502-.994-36.18-1.1-56.694.674-20.637 1.556-40.877 4.876-56.036 8.197-3.762.746-7.167 1.596-10.34 2.33-3.171.733-5.753 1.454-7.867 1.943-4.463 1.095-6.81 1.7-6.81 1.7z" fill="#9d539f" stroke-width=".3"/><path d="M163.095 248.33s2.758-.678 7.525-1.707c2.508-.569 5.266-1.246 8.654-1.936 3.389-.69 7.026-1.489 11.295-2.3 16.442-3.23 38.693-6.364 60.988-7.935 22.295-1.571 45.015-1.484 61.955-.452 8.346.57 15.548.85 20.359 1.383l3.036.255 3.921-26.75c21.676 12.404 41.49 25.884 58.809 40.454-23.836 5.143-46.484 12.14-67.328 20.456l3.672-26.64-3.036-.255c-4.81-.533-11.763-.922-19.977-1.286-16.559-.935-38.648-1.035-60.562.633-22.045 1.463-43.665 4.584-59.859 7.706-4.019.702-7.656 1.5-11.045 2.19-3.388.69-6.146 1.368-8.405 1.828a795.395 795.395 0 00-7.275 1.597z" fill="#e90909" stroke-width=".3"/><path d="M155.226 317.83s2.964.743 8.088 1.869c2.696.622 5.66 1.365 9.302 2.12 3.642.754 7.552 1.628 12.14 2.514 17.672 3.532 41.582 6.94 65.534 8.622 23.952 1.682 48.354 1.528 66.546.344 8.962-.651 16.696-.979 21.861-1.58l3.26-.29 4.308 29.573c23.238-13.771 44.47-28.73 63.02-44.887-25.62-5.628-49.97-13.308-72.388-22.453l4.04 29.453-3.26.29c-5.166.601-12.632 1.048-21.452 1.472-17.783 1.075-41.508 1.241-65.05-.548-23.684-1.562-46.918-4.96-64.322-8.372-4.319-.766-8.229-1.64-11.87-2.394-3.643-.755-6.607-1.497-9.035-2-5.124-1.126-7.82-1.748-7.82-1.748z" fill="#0e2db8" stroke-width=".3"/><path d="M181.978 289.46s2.575.472 7.009 1.13c2.336.377 4.91.849 8.057 1.271 3.147.423 6.532.94 10.489 1.41 15.255 1.923 35.752 3.17 56.103 2.7 20.35-.47 40.888-2.798 56.087-5.592 7.48-1.445 13.96-2.459 18.247-3.516l2.716-.577 6.73 28.917c18.128-15.716 34.442-32.43 48.372-50.093-22.17-3.292-43.485-8.731-63.326-15.793l6.492 28.822-2.716.578c-4.287 1.057-10.529 2.165-17.914 3.371-14.865 2.651-34.831 4.931-54.848 5.257-20.112.564-40.038-.731-55.055-2.56-3.718-.374-7.103-.892-10.25-1.314-3.146-.423-5.72-.894-7.818-1.176-4.434-.659-6.77-1.035-6.77-1.035z" fill="#04bd3d" stroke-width=".3"/><circle cy="202.194" cx="197.632" stroke-miterlimit="10" transform="rotate(22.196)" r="89.627" fill="#dbdb8b" stroke="#878578" stroke-width="10.544"/><text style="line-height:1.25;-inkscape-font-specification:'sans-serif, Bold';font-variant-ligatures:normal;font-variant-caps:normal;font-variant-numeric:normal;font-feature-settings:normal;text-align:start" x="199.417" y="216.165" transform="rotate(-4.889)" font-weight="700" font-size="26.667" font-family="sans-serif" letter-spacing="0" word-spacing="0" fill="#9d539f"><tspan x="199.417" y="216.165">isEven</tspan></text><text style="line-height:1.25;-inkscape-font-specification:'sans-serif, Bold';font-variant-ligatures:normal;font-variant-caps:normal;font-variant-numeric:normal;font-feature-settings:normal;text-align:start" x="196.388" y="251.784" transform="rotate(-4.227)" font-weight="700" font-size="26.667" font-family="sans-serif" letter-spacing="0" word-spacing="0" fill="#e90909"><tspan x="196.388" y="251.784">isOdd</tspan></text><text style="line-height:1.25;-inkscape-font-specification:'sans-serif, Bold';font-variant-ligatures:normal;font-variant-caps:normal;font-variant-numeric:normal;font-feature-settings:normal;text-align:start" x="202.427" y="295.548" transform="rotate(-2.197)" font-weight="700" font-size="26.667" font-family="sans-serif" letter-spacing="0" word-spacing="0" fill="#04bd3d"><tspan x="202.427" y="295.548">isPrime</tspan></text><text style="line-height:1.25;-inkscape-font-specification:'sans-serif, Bold';font-variant-ligatures:normal;font-variant-caps:normal;font-variant-numeric:normal;font-feature-settings:normal;text-align:start" x="256.153" y="321.497" transform="rotate(.662)" font-weight="700" font-size="26.667" font-family="sans-serif" letter-spacing="0" word-spacing="0" fill="#0e2db8"><tspan x="256.153" y="321.497">&gt;0</tspan></text><circle cy="51.772" cx="545.73" stroke-miterlimit="10" transform="rotate(22.196)" r="89.627" fill="#d9d98d" stroke="#878578" stroke-width="10.544"/><text style="line-height:1.25;-inkscape-font-specification:'sans-serif, Bold';font-variant-ligatures:normal;font-variant-caps:normal;font-variant-numeric:normal;font-feature-settings:normal;text-align:start" x="39.766" y="268.38" transform="rotate(.221)" font-weight="700" font-size="30.308" font-family="sans-serif" letter-spacing="0" word-spacing="0" fill="#9d539f" stroke-width="1.137"><tspan x="39.766" y="268.38" fill="#797979">number</tspan></text><text style="line-height:1.25;-inkscape-font-specification:'sans-serif, Bold';font-variant-ligatures:normal;font-variant-caps:normal;font-variant-numeric:normal;font-feature-settings:normal;text-align:start" x="420.132" y="260.224" transform="rotate(.221)" font-weight="700" font-size="30.308" font-family="sans-serif" letter-spacing="0" word-spacing="0" fill="#9d539f" stroke-width="1.137"><tspan x="420.132" y="260.224" fill="#797979">boolean</tspan></text></g></switch></svg>
