<?xml version="1.0" encoding="UTF-8" standalone="no"?>
<svg
   xmlns:dc="http://purl.org/dc/elements/1.1/"
   xmlns:cc="http://creativecommons.org/ns#"
   xmlns:rdf="http://www.w3.org/1999/02/22-rdf-syntax-ns#"
   xmlns:svg="http://www.w3.org/2000/svg"
   xmlns="http://www.w3.org/2000/svg"
   xmlns:sodipodi="http://sodipodi.sourceforge.net/DTD/sodipodi-0.dtd"
   xmlns:inkscape="http://www.inkscape.org/namespaces/inkscape"
   viewBox="0 0 595.3 223"
   version="1.1"
   id="svg290"
   sodipodi:docname="balls_associativity.svg"
   inkscape:version="1.0.1 (0767f8302a, 2020-10-17)"
   width="595.29999"
   height="223">
  <metadata
     id="metadata296">
    <rdf:RDF>
      <cc:Work
         rdf:about="">
        <dc:format>image/svg+xml</dc:format>
        <dc:type
           rdf:resource="http://purl.org/dc/dcmitype/StillImage" />
        <dc:title />
      </cc:Work>
    </rdf:RDF>
  </metadata>
  <defs
     id="defs294">
    <inkscape:perspective
       sodipodi:type="inkscape:persp3d"
       inkscape:vp_x="0 : 46.5 : 1"
       inkscape:vp_y="0 : 5.6497175 : 0"
       inkscape:vp_z="1 : 46.5 : 1"
       inkscape:persp3d-origin="0.50000001 : 46.333333 : 1"
       id="perspective1968" />
  </defs>
  <sodipodi:namedview
     pagecolor="#ffffff"
     bordercolor="#666666"
     borderopacity="1"
     objecttolerance="10"
     gridtolerance="10"
     guidetolerance="10"
     inkscape:pageopacity="0"
     inkscape:pageshadow="2"
     inkscape:window-width="2560"
     inkscape:window-height="1376"
     id="namedview292"
     showgrid="false"
     inkscape:zoom="2.8284271"
     inkscape:cx="363.75339"
     inkscape:cy="81.929955"
     inkscape:window-x="0"
     inkscape:window-y="27"
     inkscape:window-maximized="1"
     inkscape:current-layer="svg290"
     showguides="true"
     inkscape:guide-bbox="true"
     inkscape:document-rotation="0" />
  <circle
     cx="253.52988"
     cy="39.383438"
     r="21.732838"
     id="circle258-8"
     style="opacity:0.13;stroke:#000000;stroke-width:5.30069;stroke-miterlimit:10" />
  <circle
     cx="349.14102"
     cy="41.558113"
     r="21.732838"
     id="circle260-7"
     style="opacity:0.13;stroke:#000000;stroke-width:5.30069;stroke-miterlimit:10" />
  <circle
     cx="463.03207"
     cy="41.920647"
     r="21.732838"
     id="circle268-3"
     style="opacity:0.13;stroke:#000000;stroke-width:5.30069;stroke-miterlimit:10" />
  <circle
     fill="#fce600"
     stroke="#ffdd00"
     cx="249.28931"
     cy="32.13916"
     r="21.732838"
     id="circle272-3"
     style="stroke-width:5.30069;stroke-miterlimit:10" />
  <circle
     fill="#39bced"
     stroke="#008dd2"
     cx="344.90048"
     cy="34.313828"
     r="21.732838"
     id="circle274-5"
     style="stroke-width:5.29889764;stroke-miterlimit:10;stroke-dasharray:none" />
  <circle
     fill="#54b948"
     stroke="#00873a"
     cx="458.79153"
     cy="34.588028"
     r="21.732838"
     id="circle282-0"
     style="fill:#aa4400;stroke:#552200;stroke-width:5.30069;stroke-miterlimit:10" />
  <ellipse
     style="fill:#333333;fill-rule:evenodd;stroke-width:1.62716"
     id="path357-1"
     cx="298.59399"
     cy="34.602081"
     rx="10.920961"
     ry="10.828999" />
  <path
     d="m 392.29161,28.9586 c 5.71752,-1.04639 5.9634,-1.32777 13.29789,-1.5824 2.16287,-0.006 7.43472,-0.0612 8.6853,0.004 l 0.78781,0.0136 0.38923,-5.74501 c 5.83157,3.6263 11.20321,7.65477 15.95396,12.1058 -6.04523,2.27325 -11.74737,5.13658 -16.95853,8.39766 l 0.54513,-6.18623 -0.78785,-0.0136 c -1.25105,-0.0651 -6.4609,-0.0517 -8.58569,0.0197 -6.83577,0.21149 -7.31727,0.54093 -12.93474,1.61028 z"
     fill="#e90909"
     stroke-width="0.562384"
     id="path1881-4"
     sodipodi:nodetypes="cccccccccccc"
     style="fill:#333333" />
  <circle
     cx="164.32198"
     cy="40.420929"
     r="21.60948"
     id="circle3369-5"
     style="opacity:0.13;stroke:#000000;stroke-width:5.2706;stroke-miterlimit:10" />
  <circle
     fill="#d71920"
     stroke="#be1e2d"
     cx="160.1055"
     cy="33.129913"
     r="21.60948"
     id="circle3383-7"
     style="stroke-width:5.2706;stroke-miterlimit:10" />
  <ellipse
     style="fill:#333333;fill-rule:evenodd;stroke-width:1.62716"
     id="path357-4-0"
     cx="206.66907"
     cy="33.909393"
     rx="10.920961"
     ry="10.828999" />
  <circle
     cx="463.47723"
     cy="111.17284"
     r="21.732838"
     id="circle268-3-9"
     style="opacity:0.13;stroke:#000000;stroke-width:5.30069;stroke-miterlimit:10" />
  <circle
     fill="#54b948"
     stroke="#00873a"
     cx="459.23669"
     cy="103.84021"
     r="21.732838"
     id="circle282-0-9"
     style="fill:#aa4400;stroke:#552200;stroke-width:5.30069;stroke-miterlimit:10" />
  <path
     d="m 391.64538,98.773113 c 5.71752,-1.04639 5.9634,-1.32777 13.29789,-1.5824 2.16287,-0.006 7.43472,-0.0612 8.6853,0.004 l 0.78781,0.0136 0.38923,-5.74501 c 5.83157,3.6263 11.20321,7.65477 15.95396,12.105807 -6.04523,2.27324 -11.74737,5.13657 -16.95853,8.39765 l 0.54513,-6.18622 -0.78785,-0.0136 c -1.25105,-0.0651 -6.4609,-0.0517 -8.58569,0.0197 -6.83577,0.21148 -7.31727,0.54092 -12.93474,1.61027 z"
     fill="#e90909"
     stroke-width="0.562384"
     id="path1881-4-6"
     sodipodi:nodetypes="cccccccccccc"
     style="fill:#333333" />
  <circle
     cx="164.76712"
     cy="109.6731"
     r="21.60948"
     id="circle3369-5-4"
     style="opacity:0.13;stroke:#000000;stroke-width:5.2706;stroke-miterlimit:10" />
  <circle
     fill="#d71920"
     stroke="#be1e2d"
     cx="160.55066"
     cy="102.38208"
     r="21.60948"
     id="circle3383-7-5"
     style="stroke-width:5.2706;stroke-miterlimit:10" />
  <ellipse
     style="fill:#333333;fill-rule:evenodd;stroke-width:1.62716"
     id="path357-4-0-5"
     cx="237.05321"
     cy="103.95302"
     rx="10.920961"
     ry="10.828999" />
  <circle
     cx="302.35699"
     cy="112.46152"
     r="21.159822"
     id="circle3375"
     style="opacity:0.13;stroke:#000000;stroke-width:5.16093;stroke-miterlimit:10" />
  <circle
     fill="#54b948"
     stroke="#00873a"
     cx="298.22827"
     cy="105.32224"
     r="21.159822"
     id="circle3389"
     style="stroke-width:5.16093;stroke-miterlimit:10" />
  <circle
     cx="345.29681"
     cy="185.79593"
     r="21.732838"
     id="circle260-7-6"
     style="opacity:0.13;stroke:#000000;stroke-width:5.30069;stroke-miterlimit:10" />
  <circle
     cx="461.76321"
     cy="186.53711"
     r="21.732838"
     id="circle268-3-0"
     style="opacity:0.13;stroke:#000000;stroke-width:5.30069;stroke-miterlimit:10" />
  <circle
     fill="#39bced"
     stroke="#008dd2"
     cx="341.05627"
     cy="178.55167"
     r="21.732838"
     id="circle274-5-2"
     style="stroke-width:5.30069;stroke-miterlimit:10" />
  <circle
     fill="#54b948"
     stroke="#00873a"
     cx="457.52267"
     cy="179.2045"
     r="21.732838"
     id="circle282-0-6"
     style="fill:#aa4400;stroke:#552200;stroke-width:5.30069;stroke-miterlimit:10" />
  <ellipse
     style="fill:#333333;fill-rule:evenodd;stroke-width:1.62716"
     id="path357-1-9"
     cx="275.00055"
     cy="180.9686"
     rx="10.920961"
     ry="10.828999" />
  <path
     d="m 391.02273,173.57506 c 5.71752,-1.04639 5.9634,-1.32777 13.29789,-1.5824 2.16287,-0.006 7.43472,-0.0612 8.6853,0.004 l 0.78781,0.0136 0.38923,-5.745 c 5.83157,3.6263 11.20321,7.65476 15.95396,12.1058 -6.04523,2.27324 -11.74737,5.13658 -16.95853,8.39765 l 0.54513,-6.18622 -0.78785,-0.0136 c -1.25105,-0.0651 -6.4609,-0.0517 -8.58569,0.0197 -6.83577,0.21149 -7.31727,0.54093 -12.93474,1.61028 z"
     fill="#e90909"
     stroke-width="0.562384"
     id="path1881-4-9"
     sodipodi:nodetypes="cccccccccccc"
     style="fill:#333333" />
  <circle
     cx="210.13536"
     cy="187.93436"
     r="21.484453"
     id="circle3371"
     style="opacity:0.13;stroke:#000000;stroke-width:5.24011;stroke-miterlimit:10" />
  <circle
     fill="#f58235"
     stroke="#e76524"
     cx="205.9433"
     cy="180.68555"
     r="21.484453"
     id="circle3385"
     style="stroke-width:5.24011;stroke-miterlimit:10" />
</svg>
