<?xml version="1.0" encoding="UTF-8" standalone="no"?>
<svg
   xmlns:dc="http://purl.org/dc/elements/1.1/"
   xmlns:cc="http://creativecommons.org/ns#"
   xmlns:rdf="http://www.w3.org/1999/02/22-rdf-syntax-ns#"
   xmlns:svg="http://www.w3.org/2000/svg"
   xmlns="http://www.w3.org/2000/svg"
   xmlns:sodipodi="http://sodipodi.sourceforge.net/DTD/sodipodi-0.dtd"
   xmlns:inkscape="http://www.inkscape.org/namespaces/inkscape"
   viewBox="0 0 595.3 250"
   version="1.1"
   id="svg9505"
   sodipodi:docname="color_mixing_operation.svg"
   inkscape:version="0.92.5 (2060ec1f9f, 2020-04-08)"
   width="595.29999"
   height="250">
  <metadata
     id="metadata9511">
    <rdf:RDF>
      <cc:Work
         rdf:about="">
        <dc:format>image/svg+xml</dc:format>
        <dc:type
           rdf:resource="http://purl.org/dc/dcmitype/StillImage" />
        <dc:title></dc:title>
      </cc:Work>
    </rdf:RDF>
  </metadata>
  <defs
     id="defs9509" />
  <sodipodi:namedview
     pagecolor="#ffffff"
     bordercolor="#666666"
     borderopacity="1"
     objecttolerance="10"
     gridtolerance="10"
     guidetolerance="10"
     inkscape:pageopacity="0"
     inkscape:pageshadow="2"
     inkscape:window-width="2560"
     inkscape:window-height="1376"
     id="namedview9507"
     showgrid="false"
     inkscape:zoom="2.1295113"
     inkscape:cx="229.50381"
     inkscape:cy="89.504339"
     inkscape:window-x="0"
     inkscape:window-y="27"
     inkscape:window-maximized="1"
     inkscape:current-layer="svg9505" />
  <path
     inkscape:connector-curvature="0"
     stroke-miterlimit="10"
     d="m 239.09637,223.88265 c -65.1085,-1.05519 -100.02813,-46.74024 -99.12622,-102.39211 0.90193,-55.651866 46.74024,-100.028131 102.39211,-99.126219 55.65186,0.901922 100.02677,46.823933 99.12486,102.475799 -0.90192,55.65186 -46.73889,99.94444 -102.39075,99.04253 z"
     id="path9389-3"
     style="opacity:0.13999999;stroke:#000000;stroke-width:3.3479197;stroke-miterlimit:10;stroke-dasharray:none" />
  <circle
     stroke-miterlimit="10"
     cx="116.97079"
     cy="-239.00868"
     r="100.7724"
     id="circle9391-6"
     style="fill:#e6e7e8;stroke:#808285;stroke-width:3.3479197;stroke-miterlimit:10;stroke-dasharray:none"
     transform="rotate(90.928478)" />
  <circle
     stroke-miterlimit="10"
     cx="51.677586"
     cy="-212.94069"
     r="23.1"
     id="circle9401-6"
     style="fill:#ffffff;fill-opacity:1;stroke:#808285;stroke-width:4;stroke-miterlimit:10;stroke-dasharray:none"
     transform="rotate(90.928478)" />
  <circle
     stroke-miterlimit="10"
     cx="117.65536"
     cy="-421.04865"
     r="61.299999"
     id="circle9417-3"
     style="opacity:0.13999999;stroke:#000000;stroke-width:4;stroke-miterlimit:10;stroke-dasharray:none"
     transform="rotate(90.928478)" />
  <circle
     stroke-miterlimit="10"
     cx="114.11712"
     cy="-417.98245"
     r="61.299999"
     id="circle9419-6"
     style="fill:#e6e7e8;stroke:#808285;stroke-width:4;stroke-miterlimit:10;stroke-dasharray:none"
     transform="rotate(90.928478)" />
  <circle
     stroke-miterlimit="10"
     cx="124.86028"
     cy="-167.96321"
     r="23.1"
     id="circle9461-3"
     style="fill:#ffffff;fill-opacity:1;stroke:#808285;stroke-width:4;stroke-miterlimit:10;stroke-dasharray:none"
     transform="rotate(90.928478)" />
  <circle
     stroke-miterlimit="10"
     cx="73.217102"
     cy="-292.28244"
     r="23.1"
     id="circle9479-1"
     style="fill:#ffffff;fill-opacity:1;stroke:#808285;stroke-width:4;stroke-miterlimit:10;stroke-dasharray:none"
     transform="rotate(90.928478)" />
  <path
     inkscape:connector-curvature="0"
     d="m 314.02861,79.916214 c 0,0 1.59655,0.2259 4.29133,0.56961 0.69829,0.11133 1.49656,0.22428 2.29484,0.33723 0.79827,0.11295 1.69491,0.32751 2.69154,0.54369 l 2.98989,0.64853 c 0.49831,0.10809 1.09661,0.2178 1.59492,0.32589 0.59831,0.10971 1.095,0.31778 1.69168,0.52748 4.57833,1.37437 9.85009,3.16003 15.30885,5.74882 1.3901,0.62261 2.78019,1.24522 4.16866,1.96781 1.38848,0.7226 2.77695,1.44519 4.1638,2.26777 2.77695,1.44519 5.44743,3.28871 8.22113,4.93387 10.78838,6.975726 20.55259,15.435066 27.54471,22.149256 3.44606,3.35628 6.1987,6.30127 8.16603,8.33342 0.49183,0.50803 0.78531,0.91284 0.78531,0.91284 l -8.52691,7.76285 c 8.06329,2.33096 16.11685,5.26185 24.16232,8.69267 -1.05887,-8.7183 -2.61605,-17.54469 -4.77153,-26.48079 l -8.52691,7.76284 -0.8853,-0.91446 c -1.96733,-2.03215 -4.71835,-5.07713 -8.2644,-8.43503 -6.9905,-6.81417 -16.95144,-15.47673 -28.03816,-22.557306 -2.77208,-1.74515 -5.54417,-3.4903 -8.41948,-5.03709 -1.38685,-0.82258 -2.87531,-1.5468 -4.26378,-2.26939 -1.38848,-0.7226 -2.87856,-1.34682 -4.26865,-1.96943 -5.55714,-2.6904 -11.02725,-4.57929 -15.80555,-5.9569 -0.59668,-0.2097 -1.19336,-0.41939 -1.69167,-0.52748 -0.5983,-0.10971 -1.09662,-0.2178 -1.6933,-0.4275 -1.09661,-0.21779 -2.19323,-0.43559 -3.08825,-0.75014 -0.99663,-0.21618 -1.89327,-0.43073 -2.79153,-0.5453 -0.89826,-0.11457 -1.69654,-0.22752 -2.39482,-0.33885 -2.89476,-0.34696 -4.49131,-0.57286 -4.49131,-0.57286 z m -7.1523,83.395056 c 0,0 0.7999,0.013 2.09811,0.13402 1.29821,0.12105 3.19634,0.25182 5.49441,0.38908 4.49617,0.27289 10.59213,0.57171 16.59134,0.66894 6.0992,0.0988 12.10165,-0.004 16.70429,-0.12934 2.30132,-0.0627 4.20431,-0.2319 5.50414,-0.21083 0.70153,-0.0886 1.10148,-0.0822 1.10148,-0.0822 l 0.71353,11.51308 c 3.84001,-2.4381 7.68164,-4.97618 11.32492,-7.61749 3.64328,-2.64131 7.18819,-5.38423 10.53475,-8.23037 -8.25354,-2.93413 -15.9958,-6.56007 -23.43324,-10.4811 l 0.71354,11.51308 c 0,0 -0.39995,-0.006 -1.00149,0.0838 -1.30145,0.0789 -3.20282,0.14812 -5.40415,0.21246 -4.50265,0.12705 -10.50511,0.2298 -16.50432,0.13257 -5.99921,-0.0972 -11.99518,-0.39442 -16.49135,-0.66732 -2.29808,-0.13725 -4.09622,-0.26641 -5.39443,-0.38746 -1.29821,-0.12105 -2.09811,-0.13402 -2.09811,-0.13402 z"
     id="path9491-7"
     style="fill:#808285;stroke-width:4;stroke-miterlimit:10;stroke-dasharray:none" />
  <path
     inkscape:connector-curvature="0"
     d="m 251.49751,149.21204 c 0,0 1.90299,-0.16918 5.20904,-0.51565 0.80151,-0.087 1.70302,-0.17243 2.70451,-0.25621 1.00149,-0.0838 2.10458,-0.26593 3.20768,-0.44808 2.30456,-0.26269 4.9107,-0.62051 7.71843,-1.07507 11.32931,-1.71665 26.18246,-4.87638 40.75185,-9.04084 14.66939,-4.16284 28.9534,-9.23204 39.52494,-13.5613 1.30956,-0.57886 2.61749,-1.05773 3.82543,-1.53822 1.20795,-0.48049 2.3159,-0.9626 3.42386,-1.44471 2.11593,-0.96584 4.02864,-1.73494 5.53979,-2.41054 0.70639,-0.38861 1.10958,-0.5821 1.10958,-0.5821 l 4.83082,10.47966 c 5.41759,-7.21316 10.4401,-14.73276 14.86269,-22.26209 -8.79884,-0.1426 -17.29125,-0.68029 -25.77555,-1.71791 l 4.83082,10.47967 c 0,0 -0.40319,0.19349 -1.10796,0.48211 -1.51114,0.6756 -3.32387,1.44633 -5.4398,2.41217 -1.00797,0.48373 -2.21591,0.96422 -3.32387,1.44633 -1.20794,0.48048 -2.41589,0.96097 -3.72544,1.53983 -10.46993,4.2309 -24.65397,9.30172 -39.22336,13.46618 -14.46779,4.0661 -29.22257,7.32743 -40.45027,8.94571 -2.80774,0.45456 -5.31227,0.71401 -7.61845,1.07669 -1.10309,0.18215 -2.20457,0.26431 -3.20768,0.44808 -1.00149,0.0838 -1.90299,0.16918 -2.70451,0.25621 -3.30442,0.24648 -5.10743,0.41729 -5.10743,0.41729 z"
     id="path9495-4"
     style="fill:#808285;stroke-width:4;stroke-miterlimit:10;stroke-dasharray:none" />
  <circle
     stroke-miterlimit="10"
     cx="158.31709"
     cy="-288.08243"
     r="23.1"
     id="circle9485-0"
     style="fill:#ffffff;fill-opacity:1;stroke:#808285;stroke-width:4;stroke-miterlimit:10;stroke-dasharray:none"
     transform="rotate(90.928478)" />
  <path
     inkscape:connector-curvature="0"
     d="m 190.32643,128.41808 c 0,0 2.70127,-0.0562 7.60224,-0.0768 2.39969,0.0389 5.30093,-0.0141 8.70372,-0.15898 3.30281,-0.1465 7.10555,-0.2849 11.20987,-0.51842 16.4173,-0.9341 38.26143,-3.48046 59.92341,-7.12992 21.66036,-3.54948 43.13533,-8.00208 59.09644,-11.64392 8.03136,-1.8701 14.65966,-3.56293 19.2785,-4.68823 0.90312,-0.18539 1.4063,-0.37726 1.4063,-0.37726 l 2.9181,11.24877 c 6.40126,-6.19708 12.70253,-12.3958 18.70709,-18.799336 -8.56809,-2.03911 -16.93295,-4.27495 -25.19621,-6.60916 l 2.9181,11.248766 c 0,0 -0.50155,0.0919 -1.4063,0.37726 -4.61884,1.1253 -11.24714,2.81812 -19.2785,4.68822 -15.96273,3.74184 -37.33771,8.19606 -58.89647,11.64716 -21.56037,3.5511 -43.30451,6.09909 -59.62182,7.0348 -4.10594,0.33351 -7.80708,0.37354 -11.10988,0.52004 -3.30281,0.1465 -6.20405,0.19949 -8.60373,0.1606 -4.80099,0.0222 -7.50226,0.0785 -7.50226,0.0785 l -0.0486,2.9996 z"
     id="path9497-1"
     style="fill:#808285;stroke-width:4;stroke-miterlimit:10;stroke-dasharray:none" />
  <circle
     stroke-miterlimit="10"
     cx="143.61713"
     cy="-230.5824"
     r="23.1"
     id="circle9467-6"
     style="fill:#ffffff;fill-opacity:1;stroke:#808285;stroke-width:4;stroke-miterlimit:10;stroke-dasharray:none"
     transform="rotate(90.928478)" />
  <path
     inkscape:connector-curvature="0"
     d="m 237.38111,51.370443 c 14.41269,-0.66654 29.71717,-0.81856 45.11514,-0.56901 7.69899,0.12477 15.39798,0.24954 22.99536,0.47268 3.79788,0.16156 7.4974,0.22152 11.29528,0.38308 1.89975,0.0308 3.69789,0.15995 5.49766,0.18911 1.79976,0.0292 3.59628,0.25831 5.39605,0.28748 7.09096,0.61499 13.87062,1.925022 20.3487,3.330172 6.3781,1.40354 12.45461,2.9022 18.02957,4.492749 11.04993,3.17947 20.10012,6.32654 26.36203,8.72832 l 1.49008,0.62423 -4.27447,10.73215 c 4.11242,-0.73346 8.32321,-1.36531 12.53076,-1.79719 2.10459,-0.26593 4.20594,-0.33189 6.40889,-0.49621 2.20295,-0.16433 4.30267,-0.1303 6.50238,-0.0947 -1.07068,-1.81759 -2.13813,-3.83515 -3.40717,-5.75596 -1.27066,-1.82083 -2.53808,-3.84164 -3.81037,-5.56248 -2.64131,-3.64328 -5.48259,-7.2898 -8.4271,-10.737959 l -4.27447,10.732139 c 0,0 -0.59668,-0.2097 -1.49008,-0.62423 -6.36027,-2.50339 -15.41046,-5.65045 -26.56038,-8.831549 -5.57496,-1.59055 -11.64985,-3.18919 -18.12793,-4.594352 -6.47808,-1.40516 -13.45772,-2.71843 -20.74866,-3.33666 -1.79814,-0.12915 -3.69627,-0.25993 -5.49603,-0.28909 -1.79977,-0.0292 -3.6979,-0.15995 -5.49766,-0.18911 -3.69789,-0.15995 -7.4974,-0.22152 -11.29528,-0.38309 -7.59738,-0.22314 -15.29637,-0.34791 -22.99536,-0.47268 -15.39797,-0.24955 -30.90242,-0.10077 -45.31511,0.56577 -13.94196,1.139651 -15.68287,4.902723 -0.25183,3.19639 z"
     id="path9503-1"
     style="fill:#808285;stroke-width:4;stroke-miterlimit:10;stroke-dasharray:none"
     sodipodi:nodetypes="cscccccccccccccccccssccccscc" />
  <circle
     cx="295.3526"
     cy="162.49323"
     r="10.498181"
     id="circle272-3"
     style="fill:#fce600;stroke:#ffdd00;stroke-width:2.5605309;stroke-miterlimit:10" />
  <circle
     cx="274.28564"
     cy="162.17017"
     r="10.438592"
     id="circle3383-7"
     style="fill:#d71920;stroke:#be1e2d;stroke-width:2.54599571;stroke-miterlimit:10" />
  <circle
     cx="238.74249"
     cy="147.44415"
     r="10.438592"
     id="circle3383-7-5"
     style="fill:#d71920;stroke:#be1e2d;stroke-width:2.54599571;stroke-miterlimit:10" />
  <circle
     cx="216.92287"
     cy="147.19646"
     r="10.221382"
     id="circle3389"
     style="fill:#54b948;stroke:#00873a;stroke-width:2.4930191;stroke-miterlimit:10" />
  <circle
     cx="176.19133"
     cy="127.11856"
     r="10.498181"
     id="circle274-5-2"
     style="fill:#39bced;stroke:#008dd2;stroke-width:2.5605309;stroke-miterlimit:10" />
  <circle
     cx="391.82617"
     cy="97.058205"
     r="11.386058"
     id="circle282-0-6"
     style="fill:#aa4400;stroke:#552200;stroke-width:2.77708602;stroke-miterlimit:10" />
  <circle
     cx="154.59535"
     cy="127.36947"
     r="10.378198"
     id="circle3385"
     style="fill:#f58235;stroke:#e76524;stroke-width:2.53126717;stroke-miterlimit:10" />
  <circle
     cx="422.16257"
     cy="153.7338"
     r="12.732675"
     id="circle3389-5"
     style="fill:#54b948;stroke:#00873a;stroke-width:3.10552931;stroke-miterlimit:10" />
  <circle
     cx="390.57831"
     cy="158.89929"
     r="12.470942"
     id="circle3385-5"
     style="fill:#f58235;stroke:#e76524;stroke-width:3.0416925;stroke-miterlimit:10" />
  <circle
     cx="300.01138"
     cy="77.502846"
     r="10.498181"
     id="circle272-3-4"
     style="fill:#fce600;stroke:#ffdd00;stroke-width:2.5605309;stroke-miterlimit:10" />
  <circle
     cx="278.05551"
     cy="77.817123"
     r="10.498181"
     id="circle274-5-2-7"
     style="fill:#39bced;stroke:#008dd2;stroke-width:2.5605309;stroke-miterlimit:10" />
  <circle
     cx="427.09329"
     cy="114.52291"
     r="11.544554"
     id="circle272-3-4-6"
     style="fill:#fce600;stroke:#ffdd00;stroke-width:2.81574345;stroke-miterlimit:10" />
  <circle
     cx="223.95506"
     cy="56.475105"
     r="10.438592"
     id="circle3383-7-56"
     style="fill:#d71920;stroke:#be1e2d;stroke-width:2.54599571;stroke-miterlimit:10" />
  <circle
     cx="201.8974"
     cy="55.239738"
     r="10.498181"
     id="circle274-5-2-7-9"
     style="fill:#39bced;stroke:#008dd2;stroke-width:2.5605309;stroke-miterlimit:10" />
  <circle
     cx="426.85849"
     cy="84.703865"
     r="12.880634"
     id="circle3387-4"
     style="fill:#8967ac;stroke:#651c5f;stroke-width:3.14161825;stroke-miterlimit:10" />
  <circle
     cx="457.8515"
     cy="139.64606"
     r="12.590925"
     id="circle274-5-2-7-3"
     style="fill:#39bced;stroke:#008dd2;stroke-width:3.07095599;stroke-miterlimit:10" />
  <circle
     cx="456.44275"
     cy="104.42669"
     r="12.949884"
     id="circle3383-7-7"
     style="fill:#d71920;stroke:#be1e2d;stroke-width:3.15850568;stroke-miterlimit:10" />
</svg>
