<?xml version="1.0" encoding="UTF-8" standalone="no"?>
<svg
   xmlns:dc="http://purl.org/dc/elements/1.1/"
   xmlns:cc="http://creativecommons.org/ns#"
   xmlns:rdf="http://www.w3.org/1999/02/22-rdf-syntax-ns#"
   xmlns:svg="http://www.w3.org/2000/svg"
   xmlns="http://www.w3.org/2000/svg"
   xmlns:sodipodi="http://sodipodi.sourceforge.net/DTD/sodipodi-0.dtd"
   xmlns:inkscape="http://www.inkscape.org/namespaces/inkscape"
   viewBox="0 0 595.3 177"
   version="1.1"
   id="svg290"
   sodipodi:docname="smallest_group.svg"
   inkscape:version="0.92.5 (2060ec1f9f, 2020-04-08)">
  <metadata
     id="metadata296">
    <rdf:RDF>
      <cc:Work
         rdf:about="">
        <dc:format>image/svg+xml</dc:format>
        <dc:type
           rdf:resource="http://purl.org/dc/dcmitype/StillImage" />
        <dc:title />
      </cc:Work>
    </rdf:RDF>
  </metadata>
  <defs
     id="defs294">
    <inkscape:perspective
       sodipodi:type="inkscape:persp3d"
       inkscape:vp_x="0 : 88.5 : 1"
       inkscape:vp_y="0 : 1000 : 0"
       inkscape:vp_z="595.3 : 88.5 : 1"
       inkscape:persp3d-origin="297.65 : 59 : 1"
       id="perspective1968" />
  </defs>
  <sodipodi:namedview
     pagecolor="#ffffff"
     bordercolor="#666666"
     borderopacity="1"
     objecttolerance="10"
     gridtolerance="10"
     guidetolerance="10"
     inkscape:pageopacity="0"
     inkscape:pageshadow="2"
     inkscape:window-width="2560"
     inkscape:window-height="1376"
     id="namedview292"
     showgrid="false"
     inkscape:zoom="10.849335"
     inkscape:cx="263.25674"
     inkscape:cy="91.250465"
     inkscape:window-x="0"
     inkscape:window-y="27"
     inkscape:window-maximized="1"
     inkscape:current-layer="svg290"
     showguides="true"
     inkscape:guide-bbox="true"
     inkscape:document-rotation="0" />
  <g
     aria-label="1"
     style="font-style:normal;font-weight:normal;font-size:52.72060013px;line-height:1.25;font-family:sans-serif;fill:#b3b3b3;fill-opacity:1;stroke:none;stroke-width:1.31800997"
     id="text3032-8">
    <path
       d="m 350.42841,107.69244 h 8.75244 V 82.850946 l -8.98412,1.853459 v -6.74453 l 8.93264,-1.853459 h 9.42175 v 31.586024 h 8.75244 v 6.8475 h -26.87515 z"
       style="font-style:normal;font-variant:normal;font-weight:bold;font-stretch:normal;font-family:sans-serif;-inkscape-font-specification:'sans-serif Bold';fill:#b3b3b3;stroke-width:1.31800997"
       id="path98615" />
  </g>
  <g
     aria-label="1"
     style="font-style:normal;font-weight:normal;font-size:52.72060013px;line-height:1.25;font-family:sans-serif;fill:#000000;fill-opacity:1;stroke:none;stroke-width:1.31800997"
     id="text3032">
    <path
       d="m 348.31079,105.89051 h 8.75245 V 81.049013 l -8.98413,1.853459 v -6.74453 l 8.93264,-1.853459 h 9.42175 v 31.586027 h 8.75244 v 6.8475 h -26.87515 z"
       style="font-style:normal;font-variant:normal;font-weight:bold;font-stretch:normal;font-family:sans-serif;-inkscape-font-specification:'sans-serif Bold';stroke-width:1.31800997"
       id="path98618" />
  </g>
  <g
     id="g7972-3-3"
     transform="matrix(0.70111371,0.00752753,-0.00752753,0.70111371,289.74769,-60.287985)">
    <g
       style="fill:#dddddd;stroke:#838383;stroke-width:6.389;stroke-miterlimit:10"
       id="g1482-7-3-4-6"
       transform="matrix(0.40743561,-0.00145477,5.2735526e-4,0.41834786,-83.083079,101.04713)">
      <path
         style="stroke-width:35.526"
         inkscape:connector-curvature="0"
         id="path1478-7-6-6-7"
         transform="matrix(0.4768,-0.02932,0.03214,0.42867,147.58,197.367)"
         d="m 315.1,101.79 c 10.682,-4.135 21.77,-7.738 33.127,-11.074 -8.518,-8.139 -17.577,-16.01 -27.178,-23.616 -2.04,12.119 -3.103,21.663 -5.949,34.69 z" />
      <path
         style="stroke-width:10.649;paint-order:markers fill stroke"
         inkscape:connector-curvature="0"
         id="path1480-1-1-3-5"
         transform="matrix(0.89574,0,0,0.81736,18.384,154.236)"
         d="m 197.036,89.49 c 39.237,-9.724 89.303,-9.828 120.462,-3.317" />
    </g>
    <g
       aria-label="+1"
       transform="rotate(1.8199807)"
       style="font-style:normal;font-weight:normal;font-size:15.27490044px;line-height:1.25;font-family:sans-serif;fill:#666666;fill-opacity:1;stroke:none;stroke-width:0.381872"
       id="text5016-15-0-6-3">
      <path
         d="m 19.170716,179.56174 v 3.90822 h 3.89331 v 1.7602 h -3.89331 v 3.90822 h -1.77511 v -3.90822 h -3.89331 v -1.7602 h 3.89331 v -3.90822 z"
         style="font-style:normal;font-variant:normal;font-weight:bold;font-stretch:normal;font-family:sans-serif;-inkscape-font-specification:'sans-serif Bold';fill:#666666;stroke-width:0.381872"
         id="path98621" />
      <path
         d="m 26.472536,187.15443 h 2.535872 v -7.1974 l -2.602998,0.53701 v -1.95411 l 2.588081,-0.53701 h 2.729792 v 9.15151 h 2.535872 v 1.98395 h -7.786619 z"
         style="font-style:normal;font-variant:normal;font-weight:bold;font-stretch:normal;font-family:sans-serif;-inkscape-font-specification:'sans-serif Bold';fill:#666666;stroke-width:0.381872"
         id="path98623" />
    </g>
  </g>
  <g
     id="g7972-3-3-5"
     transform="matrix(0.70111371,0.00752753,-0.00752753,0.70111371,296.41005,-23.693482)">
    <g
       style="fill:#dddddd;stroke:#838383;stroke-width:6.389;stroke-miterlimit:10"
       id="g1482-7-3-4-6-3"
       transform="matrix(-0.40684489,-0.02198018,0.02353365,-0.41768574,114.47381,291.8494)">
      <path
         style="stroke-width:35.526"
         inkscape:connector-curvature="0"
         id="path1478-7-6-6-7-5"
         transform="matrix(0.4768,-0.02932,0.03214,0.42867,147.58,197.367)"
         d="m 315.1,101.79 c 10.682,-4.135 21.77,-7.738 33.127,-11.074 -8.518,-8.139 -17.577,-16.01 -27.178,-23.616 -2.04,12.119 -3.103,21.663 -5.949,34.69 z" />
      <path
         style="stroke-width:10.649;paint-order:markers fill stroke"
         inkscape:connector-curvature="0"
         id="path1480-1-1-3-5-6"
         transform="matrix(0.89574,0,0,0.81736,18.384,154.236)"
         d="m 197.036,89.49 c 39.237,-9.724 89.303,-9.828 120.462,-3.317" />
    </g>
    <g
       aria-label="+1"
       transform="rotate(1.8199807)"
       style="font-style:normal;font-weight:normal;font-size:15.27490044px;line-height:1.25;font-family:sans-serif;fill:#666666;fill-opacity:1;stroke:none;stroke-width:0.381872"
       id="text5016-15-0-6-3-2">
      <path
         d="m 19.170716,179.56174 v 3.90822 h 3.89331 v 1.7602 h -3.89331 v 3.90822 h -1.77511 v -3.90822 h -3.89331 v -1.7602 h 3.89331 v -3.90822 z"
         style="font-style:normal;font-variant:normal;font-weight:bold;font-stretch:normal;font-family:sans-serif;-inkscape-font-specification:'sans-serif Bold';fill:#666666;stroke-width:0.381872"
         id="path98626" />
      <path
         d="m 26.472536,187.15443 h 2.535872 v -7.1974 l -2.602998,0.53701 v -1.95411 l 2.588081,-0.53701 h 2.729792 v 9.15151 h 2.535872 v 1.98395 h -7.786619 z"
         style="font-style:normal;font-variant:normal;font-weight:bold;font-stretch:normal;font-family:sans-serif;-inkscape-font-specification:'sans-serif Bold';fill:#666666;stroke-width:0.381872"
         id="path98628" />
    </g>
  </g>
  <g
     aria-label="0"
     style="font-style:normal;font-weight:normal;font-size:56.1780014px;line-height:1.25;font-family:sans-serif;fill:#b3b3b3;fill-opacity:1;stroke:none;stroke-width:1.40445006"
     id="text3032-3-6-8-8-0">
    <path
       d="m 258.33122,93.772962 q 0,-7.680586 -1.45383,-10.807682 -1.42639,-3.154526 -4.82779,-3.154526 -3.40141,0 -4.85523,3.154526 -1.45383,3.127096 -1.45383,10.807682 0,7.762878 1.45383,10.944838 1.45382,3.18195 4.85523,3.18195 3.37397,0 4.82779,-3.18195 1.45383,-3.18196 1.45383,-10.944838 z m 10.5608,0.08229 q 0,10.176776 -4.3889,15.717776 -4.38891,5.51356 -12.45352,5.51356 -8.09205,0 -12.48096,-5.51356 -4.3889,-5.541 -4.3889,-15.717776 0,-10.204207 4.3889,-15.717771 4.38891,-5.540994 12.48096,-5.540994 8.06461,0 12.45352,5.540994 4.3889,5.513564 4.3889,15.717771 z"
       style="font-style:normal;font-variant:normal;font-weight:bold;font-stretch:normal;font-family:sans-serif;-inkscape-font-specification:'sans-serif Bold';fill:#b3b3b3;stroke-width:1.40445006"
       id="path98631" />
  </g>
  <g
     aria-label="0"
     style="font-style:normal;font-weight:normal;font-size:56.1780014px;line-height:1.25;font-family:sans-serif;fill:#e6e6e6;fill-opacity:1;stroke:none;stroke-width:1.40445006"
     id="text3032-3-2-1-0">
    <path
       d="m 255.26863,91.575002 q 0,-7.680586 -1.45383,-10.807681 -1.42639,-3.154527 -4.8278,-3.154527 -3.4014,0 -4.85522,3.154527 -1.45383,3.127095 -1.45383,10.807681 0,7.762879 1.45383,10.944838 1.45382,3.18195 4.85522,3.18195 3.37398,0 4.8278,-3.18195 1.45383,-3.181959 1.45383,-10.944838 z m 10.5608,0.08229 q 0,10.176776 -4.3889,15.717776 -4.38891,5.51356 -12.45353,5.51356 -8.09204,0 -12.48095,-5.51356 -4.38891,-5.541 -4.38891,-15.717776 0,-10.204207 4.38891,-15.71777 4.38891,-5.540995 12.48095,-5.540995 8.06462,0 12.45353,5.540995 4.3889,5.513563 4.3889,15.71777 z"
       style="font-style:normal;font-variant:normal;font-weight:bold;font-stretch:normal;font-family:sans-serif;-inkscape-font-specification:'sans-serif Bold';fill:#e6e6e6;stroke-width:1.40445006"
       id="path98634" />
  </g>
</svg>
