<?xml version="1.0" encoding="UTF-8" standalone="no"?>
<svg
   version="1.1"
   id="svg953"
   inkscape:version="1.2.2 (b0a8486541, 2022-12-01)"
   sodipodi:docname="logo.svg"
   x="0px"
   y="0px"
   viewBox="0 0 596.0743 172.40073"
   width="210.27315mm"
   height="60.805237mm"
   xml:space="preserve"
   xmlns:inkscape="http://www.inkscape.org/namespaces/inkscape"
   xmlns:sodipodi="http://sodipodi.sourceforge.net/DTD/sodipodi-0.dtd"
   xmlns="http://www.w3.org/2000/svg"
   xmlns:svg="http://www.w3.org/2000/svg"><defs
   id="defs584" />
<style
   type="text/css"
   id="style549">
	.st0{fill:#39BCED;}
	.st1{fill:#FFFFFF;}
	.st2{fill:#FF7F2A;stroke:#FF7F2A;stroke-width:22;stroke-linecap:round;stroke-linejoin:round;}
</style>
<sodipodi:namedview
   bordercolor="#666666"
   borderopacity="1.0"
   id="base"
   inkscape:current-layer="g23901"
   inkscape:cx="346.42857"
   inkscape:cy="165"
   inkscape:document-rotation="0"
   inkscape:document-units="mm"
   inkscape:pageopacity="0.0"
   inkscape:pageshadow="2"
   inkscape:window-height="1853"
   inkscape:window-maximized="1"
   inkscape:window-width="1080"
   inkscape:window-x="0"
   inkscape:window-y="0"
   inkscape:zoom="0.7"
   pagecolor="#ffffff"
   showgrid="false"
   inkscape:showpageshadow="2"
   inkscape:pagecheckerboard="0"
   inkscape:deskcolor="#d1d1d1"
   showguides="true">
	</sodipodi:namedview>
<g
   id="layer1"
   inkscape:groupmode="layer"
   inkscape:label="Layer 1"
   transform="translate(-0.38513309,-23.166571)">
	
	
   
	
<g
   id="g23901"
   style="display:inline"
   transform="matrix(4.033773,0,0,4.033773,-124.95634,-465.69865)"><path
     id="path14202"
     style="display:inline;fill:#0097dd;fill-opacity:1;stroke:#666666;stroke-width:0.290583px;stroke-linecap:butt;stroke-linejoin:miter;stroke-opacity:0.156863"
     d="m 40.506306,141.1848 c -5.077294,0 -9.390528,3.3013 -8.378185,10.71933 1.012343,7.41803 2.774048,10.7097 6.456501,10.7097 H 169.81346 c 3.73895,0 7.15499,-3.12939 7.15499,-7.65561 v -6.17191 c 0,-3.63979 -2.67401,-7.60151 -7.49404,-7.60151 z m 129.024424,0.98678 h 1.89575 v 18.90631 h -1.4659 l -0.27829,-3.91785 c -0.65716,2.60339 -2.09764,3.96825 -4.39772,3.96825 -3.08362,0 -4.6508,-2.85618 -4.6508,-6.47059 0,-3.84189 1.8702,-6.54617 5.10547,-6.54617 1.46598,0 2.70464,0.65714 3.79149,1.56706 z m -119.2248,0.15156 h 3.588798 c 0.732992,0 1.087201,0.55623 1.087201,1.26395 v 15.29157 l 2.527536,0.076 c 0.480236,0.0253 0.631714,0.20233 0.65699,0.68257 l 0.0252,0.75814 c 0.02528,0.45496 -0.151712,0.68256 -0.581397,0.68256 h -4.524072 l -0.05076,-16.55553 -2.628698,-0.076 c -0.480235,-0.0253 -0.631713,-0.20231 -0.656989,-0.68255 l -0.0252,-0.75815 c -0.02528,-0.45496 0.151712,-0.68255 0.581396,-0.68255 z m 12.637684,0 h 3.589168 c 0.732991,0 1.086829,0.55623 1.086829,1.26395 v 15.29157 l 2.527537,0.076 c 0.480236,0.0253 0.631714,0.20233 0.656989,0.68257 l 0.02557,0.75814 c 0.02528,0.45496 -0.151712,0.68256 -0.581397,0.68256 h -4.524442 l -0.0504,-16.55553 -2.628698,-0.076 c -0.480236,-0.0253 -0.632084,-0.20231 -0.657359,-0.68255 l -0.0252,-0.75815 c -0.02528,-0.45496 0.151711,-0.68255 0.581397,-0.68255 z m 39.095116,1.67452 c 0.19588,0.019 0.36001,0.19604 0.41056,0.54989 0.0506,0.45497 0.0758,3.05831 0.0252,3.61438 h 4.85313 l -0.17713,2.02209 h -4.676 v 5.51012 c 0,2.50228 1.3649,3.46281 2.75506,3.46281 1.33961,0 2.19893,-0.55639 3.13413,-1.21356 0.27803,0.53079 0.48022,1.26392 0.6066,1.99691 -1.23851,0.85936 -2.32526,1.28915 -3.99345,1.28915 -2.22425,0 -4.39771,-1.44086 -4.39771,-4.75197 v -6.29346 h -0.910077 c -0.556063,0 -0.732914,-0.42976 -0.505433,-0.93527 0.530786,-1.13739 1.466,-3.61424 2.27482,-4.85275 0.17693,-0.27803 0.40441,-0.4173 0.6003,-0.39834 z m 37.23086,0 c 0.19588,0.019 0.36002,0.19604 0.41057,0.54989 0.0506,0.45497 0.0758,3.05831 0.0252,3.61438 h 4.85313 l -0.17713,2.02209 h -4.676 v 5.51012 c 0,2.50228 1.3649,3.46281 2.75506,3.46281 1.33961,0 2.1993,-0.55639 3.13451,-1.21356 0.27802,0.53079 0.48021,1.26392 0.60659,1.99691 -1.2385,0.85936 -2.32563,1.28915 -3.99381,1.28915 -2.22426,0 -4.39772,-1.44086 -4.39772,-4.75197 v -6.29346 h -0.91008 c -0.55606,0 -0.7329,-0.42976 -0.50543,-0.93527 0.53079,-1.13739 1.46601,-3.61424 2.27483,-4.85275 0.17692,-0.27803 0.4044,-0.4173 0.60029,-0.39834 z m -100.919157,0.85301 h 6.445386 c 0.429685,0 0.606672,0.22759 0.581396,0.68256 l -0.02557,0.75814 c -0.02528,0.48025 -0.176753,0.65728 -0.656989,0.68256 l -2.148461,0.076 v 11.82876 l 2.198856,0.076 c 0.480236,0.0253 0.632084,0.20232 0.657359,0.68256 l 0.0252,0.75814 c 0.02528,0.45496 -0.151712,0.68256 -0.581397,0.68256 H 38.27447 c -0.429685,0 -0.606672,-0.2276 -0.581397,-0.68256 l 0.02557,-0.75814 c 0.02528,-0.48024 0.176752,-0.65729 0.656989,-0.68256 l 2.274819,-0.076 v -11.82876 l -2.198857,-0.076 c -0.480235,-0.0253 -0.632084,-0.20231 -0.657359,-0.68256 l -0.0252,-0.75814 c -0.02528,-0.45497 0.151711,-0.68256 0.581396,-0.68256 z m 81.058667,3.1597 c 0.88465,0 1.76957,0.20215 2.5531,0.37907 0,0.68244 -0.1012,1.59227 -0.20231,2.0725 -0.80882,-0.22748 -1.79441,-0.40435 -2.45158,-0.37908 -2.83087,0.0253 -4.70156,2.07245 -4.70156,4.85275 v 6.14228 h -1.89538 v -12.89077 h 1.44071 l 0.22714,3.21009 c 0.733,-2.02204 2.70453,-3.36157 5.02988,-3.38684 z m 34.65293,0 c 3.56386,-0.0505 5.51017,2.80554 5.13104,7.45625 l -8.87176,-0.0252 c 0.35385,2.70449 2.27468,3.71553 4.1198,3.71553 1.56709,0 2.80584,-0.48047 3.63993,-0.88488 0.15165,0.45495 0.2273,1.44084 0.17675,1.9969 -1.21322,0.50551 -2.19879,0.83404 -4.01863,0.85932 -3.23528,0 -5.66205,-2.24949 -5.66205,-6.01554 0,-4.72654 2.14854,-7.07711 5.48492,-7.10238 z m -24.92186,0.0504 c 2.80559,0 4.90352,2.30026 4.90352,6.42018 v 6.62214 h -1.44071 l -0.1012,-2.37598 c -0.58134,1.1374 -2.14832,2.50234 -4.47368,2.50234 -2.22424,0 -4.145,-1.36498 -4.145,-3.69034 0,-2.55282 1.79457,-3.74071 4.80237,-3.74071 h 3.76591 l -0.0252,-0.22753 c -0.0758,-1.94622 -1.51676,-3.46281 -3.28605,-3.46281 -1.56708,0 -3.00751,0.3032 -4.1702,0.75815 -0.10109,-0.63188 -0.15163,-1.41541 -0.12635,-2.0473 1.64291,-0.65716 2.70419,-0.75814 4.29655,-0.75814 z m -37.332022,0.076 c 1.870392,0 3.109011,0.32852 4.524443,0.8593 0,0.55606 -0.176949,1.56713 -0.353878,2.14847 -1.187952,-0.58134 -2.653758,-0.96047 -4.018639,-0.96047 -1.845116,0 -2.70466,0.53083 -2.70466,1.66822 0,0.96047 1.188028,1.56682 1.895745,1.76902 l 2.022103,0.5814 c 1.895669,0.55606 3.89228,1.26406 3.89228,3.38721 0,2.42646 -2.35047,3.51321 -4.852751,3.51321 -2.249526,0 -3.58911,-0.40448 -4.928715,-0.93528 -0.02528,-0.50551 0.176656,-1.54163 0.328309,-2.09769 1.061574,0.45496 3.033223,0.96047 4.271727,0.96047 1.920943,0 3.159328,-0.53096 3.159328,-1.74419 0,-1.44071 -1.718465,-1.61759 -3.68996,-2.17365 -2.704485,-0.78355 -4.145367,-1.79475 -4.145367,-3.66514 0,-1.99677 1.415313,-3.31088 4.600035,-3.31088 z m -17.465238,0.0504 h 1.895746 v 6.62214 c 0,2.67921 0.505335,4.44848 2.577932,4.44848 1.617636,0 2.628833,-1.08665 3.665132,-2.22405 v -8.82137 h 1.895374 v 12.89077 h -0.126358 c 0,0.0253 -0.0252,0.0252 -0.0252,0.0252 h -0.0252 v -0.0252 h -1.263954 l -0.201951,-3.28606 c -0.935196,1.66819 -2.603323,3.43762 -4.701196,3.43762 -2.527557,0 -3.69033,-1.84498 -3.69033,-5.68687 z m 79.84547,1.81978 c -2.14841,0.0253 -3.76619,1.44073 -3.91783,4.19577 h 7.58297 c -0.0506,-2.85615 -1.51671,-4.17049 -3.66514,-4.19577 z m 11.85435,0.076 c -1.51654,0.0253 -3.63957,1.1121 -3.63957,4.44847 0,2.30009 0.53079,4.62561 3.36165,4.62561 2.93197,0 4.01854,-2.60369 4.17019,-5.66204 l 0.1012,-2.30001 c -0.60661,-0.30331 -2.09776,-1.13731 -3.99343,-1.11203 z m -37.12971,4.90352 c -2.55283,0 -3.46281,1.01111 -3.46281,2.24962 0,1.2385 1.11197,2.32522 2.93181,2.32522 1.84512,0 4.09453,-1.36505 4.1198,-3.31126 l 0.0256,-1.26358 z" /><g
     aria-label="Category Theory
"
     id="text1376"
     style="font-weight:100;font-size:16.3857px;line-height:0;font-family:'Mell Mono';-inkscape-font-specification:'Mell Mono Thin';text-align:center;word-spacing:0px;text-anchor:middle;display:inline;fill:#0097dd;stroke-width:1.96896;fill-opacity:1"><path
       d="m 39.117748,131.16637 c 0,4.11463 2.057315,5.86244 4.933916,5.86244 1.183412,0 2.075522,-0.34592 2.93122,-0.80108 -0.01821,-0.36413 -0.109238,-0.8557 -0.236682,-1.20162 -0.964936,0.5826 -1.674983,0.83749 -2.785569,0.83749 -1.747808,0 -3.896156,-1.05596 -3.914362,-4.71544 0.01821,-3.65947 2.166554,-4.71544 3.914362,-4.71544 1.110586,0 1.820633,0.25489 2.785569,0.83749 0.127444,-0.34592 0.218476,-0.81928 0.236682,-1.18341 -0.855698,-0.45516 -1.747808,-0.81928 -2.93122,-0.81928 -2.876601,0 -4.952123,1.74781 -4.933916,5.89885 z"
       style="font-weight:300;line-height:1.25;font-family:'Mell Sans';-inkscape-font-specification:'Mell Sans Light';fill:#0097dd;fill-opacity:1"
       id="path24192" /><path
       d="m 51.789351,131.69435 c -2.221173,0 -3.513823,0.83749 -3.513823,2.67633 0,1.67499 1.347269,2.67634 2.985839,2.67634 1.820633,0 3.022251,-1.09238 3.404584,-1.94808 l 0.05462,1.83884 h 0.837492 v -4.80647 c 0,-2.91302 -1.474713,-4.588 -3.495616,-4.588 -1.201618,0 -1.875253,0.0728 -3.13149,0.5644 0,0.34592 0.03641,0.83749 0.09103,1.18341 0.873904,-0.36413 1.875252,-0.58261 3.040458,-0.58261 1.347268,0 2.512474,1.21983 2.548886,2.80378 v 0.18206 z m -2.639919,2.54889 c 0,-1.00135 0.691841,-1.80243 2.749157,-1.80243 h 2.767362 l -0.01821,1.00135 c 0,1.56575 -1.820633,2.63992 -3.222521,2.63992 -1.401888,0 -2.275792,-0.89211 -2.275792,-1.83884 z"
       style="font-weight:300;line-height:1.25;font-family:'Mell Sans';-inkscape-font-specification:'Mell Sans Light';fill:#0097dd;fill-opacity:1"
       id="path24194" /><path
       d="m 57.360486,128.76313 h 0.582603 v 4.82468 c 0,2.34862 1.456506,3.42279 3.058664,3.42279 1.201618,0 1.893458,-0.2913 2.803775,-0.92852 -0.09103,-0.41875 -0.20027,-0.81929 -0.382333,-1.147 -0.637222,0.47337 -1.347269,0.91032 -2.293998,0.91032 -1.074174,0 -2.111935,-0.74646 -2.111935,-2.76737 v -4.3149 h 3.495616 l 0.09103,-1.147 H 59.01726 c 0.03641,-0.34592 0.01821,-2.38503 -0.01821,-2.69453 -0.05462,-0.47337 -0.400539,-0.47337 -0.619015,-0.091 -0.455159,0.78287 -1.09238,2.67633 -1.365475,3.36817 -0.127445,0.3095 -0.03641,0.56439 0.34592,0.56439 z"
       style="font-weight:300;line-height:1.25;font-family:'Mell Sans';-inkscape-font-specification:'Mell Sans Light';fill:#0097dd;fill-opacity:1"
       id="path24196" /><path
       d="m 66.04493,132.84135 6.663518,0.0182 c 0.34592,-3.31355 -1.128793,-5.40728 -3.67768,-5.35266 -2.821981,0.0364 -3.950774,2.22117 -3.950774,4.97033 0,2.80377 1.820633,4.46055 3.932568,4.46055 1.274443,-0.0182 1.98449,-0.25489 2.894807,-0.61902 0.03641,-0.34592 -0.01821,-0.91031 -0.09103,-1.1652 -0.655428,0.2913 -1.547538,0.65542 -2.694537,0.65542 -1.401888,0 -2.858394,-0.80107 -3.07687,-2.96763 z m 5.862439,-0.78287 h -5.880646 c 0.09103,-2.25759 1.401888,-3.40458 3.004045,-3.40458 1.674983,0 2.894807,1.05596 2.876601,3.40458 z"
       style="font-weight:300;line-height:1.25;font-family:'Mell Sans';-inkscape-font-specification:'Mell Sans Light';fill:#0097dd;fill-opacity:1"
       id="path24198" /><path
       d="m 78.006485,141.48936 h 0.728254 c 2.075522,0 4.096425,-0.76467 4.096425,-2.78557 0,-1.80243 -1.63857,-2.82198 -4.478758,-2.82198 -2.821982,0 -2.639919,-1.38368 -2.330411,-1.89346 0.54619,0.36413 1.256237,0.5644 2.148347,0.5644 h 0.236683 c 2.421442,0 3.695885,-1.38368 3.695885,-3.00405 0,-2.00269 -1.310856,-2.69453 -2.439648,-2.94942 l 2.494267,-0.14565 c 0.03641,-0.30951 0.03641,-0.8375 -0.03641,-1.18342 l -3.950775,0.36413 c -2.567093,0.23668 -3.714092,1.49292 -3.714092,3.47741 0.01821,1.07417 0.345921,1.91167 0.964936,2.49427 -0.782872,0.92852 -0.05462,2.51247 1.165205,2.76736 -1.183411,0.10924 -2.621712,0.81929 -2.621712,2.51247 0.01821,1.60216 1.474713,2.60351 4.041806,2.60351 z m -3.258933,-2.69454 c 0.01821,-1.147 1.110586,-1.87525 3.568441,-1.87525 h 0.09103 c 2.385029,0 3.62306,0.61902 3.641266,1.83884 -0.01821,1.07417 -1.09238,1.78422 -3.641266,1.78422 h -0.09103 c -2.585299,0 -3.550235,-0.76466 -3.568441,-1.74781 z m 0.527983,-7.61024 c 0,-1.83884 1.347269,-2.51248 2.985839,-2.51248 h 0.20027 c 1.365475,0 2.840188,0.83749 2.840188,2.60351 0,1.65677 -1.547539,2.36682 -2.913014,2.36682 h -0.200269 c -1.365475,0 -2.913014,-0.5826 -2.913014,-2.45785 z"
       style="font-weight:300;line-height:1.25;font-family:'Mell Sans';-inkscape-font-specification:'Mell Sans Light';fill:#0097dd;fill-opacity:1"
       id="path24200" /><path
       d="m 87.692271,135.97284 c -1.674983,0 -3.022252,-1.1652 -3.022252,-3.65947 0,-2.51248 1.347269,-3.65947 3.022252,-3.65947 1.693189,0 3.022251,1.14699 3.022251,3.65947 0,2.49427 -1.329062,3.65947 -3.022251,3.65947 z m -3.987187,-3.65947 c 0.03641,2.8766 1.383681,4.80647 3.987187,4.80647 2.603505,0 3.950774,-1.92987 3.987187,-4.80647 -0.03641,-2.8766 -1.383682,-4.80647 -3.987187,-4.80647 -2.603506,0 -3.950775,1.92987 -3.987187,4.80647 z"
       style="font-weight:300;line-height:1.25;font-family:'Mell Sans';-inkscape-font-specification:'Mell Sans Light';fill:#0097dd;fill-opacity:1"
       id="path24202" /><path
       d="m 98.925576,128.98161 c 0.05462,-0.2731 0.109238,-0.80108 0.109238,-1.20162 -0.564397,-0.12744 -1.128793,-0.25489 -1.656777,-0.25489 -1.529332,0.0182 -2.658124,0.94673 -3.095076,2.42145 l -0.127445,-2.31221 h -0.819285 v 9.28523 h 1.074174 v -4.53338 c 0,-2.00269 0.782872,-3.60485 2.949426,-3.65947 0.34592,-0.0182 0.983142,0.091 1.565745,0.25489 z"
       style="font-weight:300;line-height:1.25;font-family:'Mell Sans';-inkscape-font-specification:'Mell Sans Light';fill:#0097dd;fill-opacity:1"
       id="path24204" /><path
       d="m 104.82443,138.03016 4.22387,-10.35941 c -0.38234,-0.091 -0.76467,-0.12744 -1.147,-0.12744 l -3.04046,7.91975 -3.60485,-7.91975 c -0.43696,0 -0.8557,0.0364 -1.292654,0.12744 l 4.387724,9.04855 -0.40054,0.96494 c -0.49157,1.12879 -1.42009,2.51247 -3.29534,2.29399 -0.091,0.38234 -0.10924,0.80108 -0.0728,1.18342 2.36682,0.25489 3.40459,-1.03776 4.24208,-3.13149 z"
       style="font-weight:300;line-height:1.25;font-family:'Mell Sans';-inkscape-font-specification:'Mell Sans Light';fill:#0097dd;fill-opacity:1"
       id="path24206" /><path
       d="m 120.44546,125.30393 v 0.0182 h -4.09643 v 1.12879 h 4.09643 v 10.46864 h 0.41875 c 0.0182,0.0182 0.0182,0.0182 0.0182,0.0182 h 0.12745 c 0,0 0,0 0.0182,-0.0182 h 0.49157 v -10.46864 h 4.15105 v -1.12879 h -4.15105 v -0.0182 z"
       style="font-weight:300;line-height:1.25;font-family:'Mell Sans';-inkscape-font-specification:'Mell Sans Light';fill:#0097dd;fill-opacity:1"
       id="path24208" /><path
       d="m 132.22497,127.5069 c -1.47471,0 -2.63992,0.8739 -3.441,2.13014 v -6.13554 h -1.07417 v 13.38166 h 1.07417 v -6.51787 c 0.78288,-0.81928 1.94808,-1.71139 3.11329,-1.71139 1.54754,0 2.05731,1.31085 2.05731,3.33175 v 4.93392 h 1.07418 v -5.27984 c -0.0364,-2.78556 -0.94673,-4.13283 -2.80378,-4.13283 z"
       style="font-weight:300;line-height:1.25;font-family:'Mell Sans';-inkscape-font-specification:'Mell Sans Light';fill:#0097dd;fill-opacity:1"
       id="path24210" /><path
       d="m 137.75968,132.84135 6.66352,0.0182 c 0.34592,-3.31355 -1.12879,-5.40728 -3.67768,-5.35266 -2.82198,0.0364 -3.95078,2.22117 -3.95078,4.97033 0,2.80377 1.82064,4.46055 3.93257,4.46055 1.27445,-0.0182 1.98449,-0.25489 2.89481,-0.61902 0.0364,-0.34592 -0.0182,-0.91031 -0.091,-1.1652 -0.65543,0.2913 -1.54754,0.65542 -2.69454,0.65542 -1.40189,0 -2.85839,-0.80107 -3.07687,-2.96763 z m 5.86244,-0.78287 h -5.88065 c 0.091,-2.25759 1.40189,-3.40458 3.00405,-3.40458 1.67498,0 2.89481,1.05596 2.8766,3.40458 z"
       style="font-weight:300;line-height:1.25;font-family:'Mell Sans';-inkscape-font-specification:'Mell Sans Light';fill:#0097dd;fill-opacity:1"
       id="path24212" /><path
       d="m 149.92151,135.97284 c -1.67498,0 -3.02225,-1.1652 -3.02225,-3.65947 0,-2.51248 1.34727,-3.65947 3.02225,-3.65947 1.69319,0 3.02225,1.14699 3.02225,3.65947 0,2.49427 -1.32906,3.65947 -3.02225,3.65947 z m -3.98719,-3.65947 c 0.0364,2.8766 1.38369,4.80647 3.98719,4.80647 2.60351,0 3.95078,-1.92987 3.98719,-4.80647 -0.0364,-2.8766 -1.38368,-4.80647 -3.98719,-4.80647 -2.6035,0 -3.95077,1.92987 -3.98719,4.80647 z"
       style="font-weight:300;line-height:1.25;font-family:'Mell Sans';-inkscape-font-specification:'Mell Sans Light';fill:#0097dd;fill-opacity:1"
       id="path24214" /><path
       d="m 161.15482,128.98161 c 0.0546,-0.2731 0.10923,-0.80108 0.10923,-1.20162 -0.56439,-0.12744 -1.12879,-0.25489 -1.65677,-0.25489 -1.52933,0.0182 -2.65813,0.94673 -3.09508,2.42145 l -0.12744,-2.31221 h -0.81929 v 9.28523 h 1.07418 v -4.53338 c 0,-2.00269 0.78287,-3.60485 2.94942,-3.65947 0.34592,-0.0182 0.98314,0.091 1.56575,0.25489 z"
       style="font-weight:300;line-height:1.25;font-family:'Mell Sans';-inkscape-font-specification:'Mell Sans Light';fill:#0097dd;fill-opacity:1"
       id="path24216" /><path
       d="m 167.05366,138.03016 4.22387,-10.35941 c -0.38233,-0.091 -0.76466,-0.12744 -1.147,-0.12744 l -3.04045,7.91975 -3.60486,-7.91975 c -0.43695,0 -0.8557,0.0364 -1.29265,0.12744 l 4.38773,9.04855 -0.40054,0.96494 c -0.49157,1.12879 -1.42009,2.51247 -3.29535,2.29399 -0.091,0.38234 -0.10923,0.80108 -0.0728,1.18342 2.36682,0.25489 3.40458,-1.03776 4.24207,-3.13149 z"
       style="font-weight:300;line-height:1.25;font-family:'Mell Sans';-inkscape-font-specification:'Mell Sans Light';fill:#0097dd;fill-opacity:1"
       id="path24218" /></g></g></g>
</svg>
