<?xml version="1.0" encoding="UTF-8" standalone="no"?>
<svg
   version="1.1"
   id="svg953"
   inkscape:version="1.0.1 (0767f8302a, 2020-10-17)"
   sodipodi:docname="logo.svg"
   x="0px"
   y="0px"
   viewBox="0 0 595.3 144.6"
   width="210mm"
   height="51mm"
   style="enable-background:new 0 0 595.3 144.6;"
   xml:space="preserve"
   xmlns:inkscape="http://www.inkscape.org/namespaces/inkscape"
   xmlns:sodipodi="http://sodipodi.sourceforge.net/DTD/sodipodi-0.dtd"
   xmlns="http://www.w3.org/2000/svg"
   xmlns:svg="http://www.w3.org/2000/svg"><defs
   id="defs824" />
<style
   type="text/css"
   id="style789">
	.st0{fill:#39BCED;}
	.st1{fill:#FFFFFF;}
	.st2{fill:#FF7F2A;stroke:#FF7F2A;stroke-width:22;stroke-linecap:round;stroke-linejoin:round;}
</style>
<sodipodi:namedview
   bordercolor="#666666"
   borderopacity="1.0"
   id="base"
   inkscape:current-layer="layer1"
   inkscape:cx="293.1671"
   inkscape:cy="216.92485"
   inkscape:document-rotation="0"
   inkscape:document-units="mm"
   inkscape:pageopacity="0.0"
   inkscape:pageshadow="2"
   inkscape:window-height="1224"
   inkscape:window-maximized="0"
   inkscape:window-width="2234"
   inkscape:window-x="50"
   inkscape:window-y="77"
   inkscape:zoom="0.98994949"
   pagecolor="#ffffff"
   showgrid="false"
   inkscape:showpageshadow="2"
   inkscape:pagecheckerboard="0"
   inkscape:deskcolor="#d1d1d1">
	</sodipodi:namedview>
<g
   id="layer1"
   inkscape:groupmode="layer"
   inkscape:label="Layer 1">
	<rect
   x="-5"
   y="-5"
   class="st0"
   width="605.3"
   height="154.6"
   id="rect792" />
	<g
   id="text835"
   transform="matrix(1.0539981,0,0,1.0539981,-6.2039617,-0.01758108)">
		<path
   id="path5226"
   class="st1"
   d="M25.7,39.3v7c0,1.2,0.4,2.1,1.2,2.7c0.8,0.6,1.9,1,3.1,1c1.3,0,2.3-0.2,2.8-0.6    c0.6-0.4,1.1-1,1.4-1.8c0.4-0.8,0.9-1.2,1.6-1.2h9.4c0.3,0,0.5,0.1,0.7,0.3c0.2,0.2,0.3,0.4,0.3,0.7c0,2.7-1.3,5.2-3.8,7.4    c-1.3,1.1-3,2-5.1,2.7c-2.1,0.7-4.6,1-7.5,1s-5.5-0.4-7.9-1.3c-2.4-0.9-4.3-2.4-5.8-4.4c-1.5-2-2.2-4.5-2.2-7.5v-5.2    c0-2.9,0.7-5.4,2.2-7.5c2.8-3.8,7.5-5.7,14-5.7c2.6,0,5,0.3,7.2,1c2.1,0.7,3.8,1.6,5.1,2.7c2.6,2.2,3.8,4.7,3.8,7.4    c0,0.3-0.1,0.5-0.3,0.7c-0.2,0.2-0.4,0.3-0.7,0.3h-9.4c-0.6,0-1.2-0.4-1.6-1.2c-0.4-0.8-0.9-1.4-1.4-1.8c-0.6-0.4-1.5-0.6-2.8-0.6    c-1.3,0-2.3,0.3-3.1,1C26.1,37.2,25.7,38.1,25.7,39.3z" />
		<path
   id="path5228"
   class="st1"
   d="M58.5,58h-8.2c-0.3,0-0.5-0.1-0.7-0.3c-0.2-0.2-0.3-0.4-0.3-0.6c0-0.2,0-0.3,0-0.4l9.5-27.9    c0.3-1,0.9-1.4,2-1.4H73c1,0,1.7,0.5,2,1.4l9.5,27.9c0,0.1,0,0.2,0,0.4c0,0.2-0.1,0.4-0.3,0.6C84,57.9,83.8,58,83.5,58h-8.2    c-0.9,0-1.6-0.5-2-1.5l-1.1-3.1H61.6l-1.1,3.1C60.1,57.5,59.4,58,58.5,58z M70,45l-3.1-9.1L63.8,45H70z" />
		<path
   id="path5230"
   class="st1"
   d="M88.8,27.5h30.1c0.3,0,0.6,0.1,0.8,0.3c0.2,0.2,0.3,0.5,0.3,0.8v7c0,0.3-0.1,0.6-0.3,0.8    c-0.2,0.2-0.5,0.3-0.8,0.3h-9.4v20c0,0.3-0.1,0.6-0.3,0.8c-0.2,0.2-0.5,0.3-0.8,0.3h-9c-0.3,0-0.6-0.1-0.8-0.3s-0.3-0.5-0.3-0.8    v-20h-9.4c-0.3,0-0.6-0.1-0.8-0.3c-0.2-0.2-0.3-0.5-0.3-0.8v-7c0-0.3,0.1-0.6,0.3-0.8C88.2,27.6,88.5,27.5,88.8,27.5z" />
		<path
   id="path5232"
   class="st1"
   d="M137.7,49.5h17.4c0.3,0,0.6,0.1,0.8,0.3s0.3,0.5,0.3,0.8v6.2c0,0.3-0.1,0.6-0.3,0.8    c-0.2,0.2-0.5,0.3-0.8,0.3h-27.6c-0.3,0-0.6-0.1-0.8-0.3s-0.3-0.5-0.3-0.8V28.7c0-0.3,0.1-0.6,0.3-0.8c0.2-0.2,0.5-0.3,0.8-0.3    h27.1c0.3,0,0.6,0.1,0.8,0.3s0.3,0.5,0.3,0.8v6.2c0,0.3-0.1,0.6-0.3,0.8c-0.2,0.2-0.5,0.3-0.8,0.3h-17v2.7h14.6    c0.3,0,0.6,0.1,0.8,0.3c0.2,0.2,0.3,0.5,0.3,0.8v5.7c0,0.3-0.1,0.6-0.3,0.8c-0.2,0.2-0.5,0.3-0.8,0.3h-14.6V49.5z" />
		<path
   id="path5234"
   class="st1"
   d="M181.1,39.6h12.7c0.3,0,0.6,0.1,0.8,0.3s0.3,0.5,0.3,0.8v4.6c0,4.4-1.5,7.7-4.5,9.9    c-3,2.1-7,3.2-11.9,3.2s-8.9-1.1-12-3.2c-3-2.2-4.5-5.5-4.5-10v-5.2c0-2.2,0.4-4.2,1.3-5.9c0.9-1.7,2.1-3.1,3.6-4.1    c3-2,6.9-3.1,11.6-3.1c2.3,0,4.5,0.3,6.4,0.8c1.9,0.5,3.5,1.2,4.6,2c1.2,0.8,2.2,1.6,3,2.6c1.4,1.6,2.1,3.1,2.1,4.3    c0,0.3-0.1,0.5-0.3,0.7c-0.2,0.2-0.4,0.3-0.7,0.3h-9.9c-0.6,0-1-0.2-1.3-0.5c-0.9-1.1-2.1-1.7-3.7-1.7c-1.5,0-2.8,0.3-3.7,0.9    c-0.9,0.6-1.3,1.4-1.3,2.4v7.4c0,1.2,0.4,2.1,1.3,2.7c0.9,0.6,2.1,1,3.7,1c1.6,0,2.8-0.3,3.7-0.9c0.9-0.6,1.3-1.4,1.4-2.2h-2.7    c-0.3,0-0.6-0.1-0.8-0.3s-0.3-0.5-0.3-0.8v-4.8c0-0.3,0.1-0.6,0.3-0.8S180.8,39.6,181.1,39.6z" />
		<path
   id="path5236"
   class="st1"
   d="M231.3,40.1v5.3c0,3-0.7,5.5-2.2,7.5c-1.5,2-3.4,3.4-5.7,4.3c-2.4,0.8-5.1,1.3-8.3,1.3    c-3.2,0-6-0.4-8.3-1.3c-2.4-0.8-4.3-2.3-5.7-4.3c-1.5-2-2.2-4.5-2.2-7.6v-5.2c0-4.4,1.5-7.7,4.5-9.9c3-2.2,6.9-3.3,11.7-3.3    c4.8,0,8.7,1.1,11.7,3.3C229.8,32.5,231.3,35.8,231.3,40.1z M210.6,39.3v7c0,1.2,0.4,2.1,1.2,2.7c0.8,0.6,1.9,1,3.3,1    c1.4,0,2.4-0.3,3.2-1c0.8-0.7,1.2-1.6,1.2-2.8v-6.9c0-1.2-0.4-2.1-1.2-2.7c-0.8-0.7-1.9-1-3.2-1c-1.4,0-2.5,0.3-3.3,1    C211,37.2,210.6,38.1,210.6,39.3z" />
		<path
   id="path5238"
   class="st1"
   d="M269.5,56.7c0.1,0.1,0.1,0.3,0.1,0.5c0,0.2-0.1,0.4-0.3,0.6c-0.2,0.2-0.4,0.3-0.7,0.3h-9.9    c-0.9,0-1.5-0.4-1.8-1.1l-3.8-8.6h-3.7v8.6c0,0.3-0.1,0.6-0.3,0.8c-0.2,0.2-0.5,0.3-0.8,0.3h-9.4c-0.3,0-0.6-0.1-0.8-0.3    c-0.2-0.2-0.3-0.5-0.3-0.8V28.7c0-0.3,0.1-0.6,0.3-0.8c0.2-0.2,0.5-0.3,0.8-0.3h17c4,0,7.1,0.9,9.5,2.8c2.3,1.9,3.5,4.5,3.5,7.7    c0,4-1.5,6.8-4.6,8.6L269.5,56.7z M249.4,35.6v4.6h5.5c0.6,0,1.1-0.2,1.5-0.6c0.3-0.4,0.5-1,0.5-1.6c0-0.6-0.2-1.2-0.5-1.7    c-0.3-0.5-0.8-0.7-1.5-0.7H249.4z" />
		<path
   id="path5240"
   class="st1"
   d="M296.1,27.5h9.1c0.3,0,0.5,0.1,0.7,0.3c0.2,0.2,0.3,0.4,0.3,0.6c0,0.2,0,0.4-0.1,0.6l-11,18.2    v9.7c0,0.3-0.1,0.6-0.3,0.8c-0.2,0.2-0.5,0.3-0.8,0.3h-9.3c-0.3,0-0.6-0.1-0.8-0.3s-0.3-0.5-0.3-0.8v-9.7l-11-18.2    c-0.1-0.2-0.1-0.4-0.1-0.6c0-0.2,0.1-0.4,0.3-0.6c0.2-0.2,0.4-0.3,0.7-0.3h9.2c0.8,0,1.4,0.3,1.8,1l4.9,8.6l5.1-8.6    C294.7,27.8,295.3,27.5,296.1,27.5L296.1,27.5z" />
		<path
   id="path5242"
   class="st1"
   d="M348.4,27.5h30.1c0.3,0,0.6,0.1,0.8,0.3s0.3,0.5,0.3,0.8v7c0,0.3-0.1,0.6-0.3,0.8    s-0.5,0.3-0.8,0.3h-9.4v20c0,0.3-0.1,0.6-0.3,0.8s-0.5,0.3-0.8,0.3h-9c-0.3,0-0.6-0.1-0.8-0.3c-0.2-0.2-0.3-0.5-0.3-0.8v-20h-9.4    c-0.3,0-0.6-0.1-0.8-0.3c-0.2-0.2-0.3-0.5-0.3-0.8v-7c0-0.3,0.1-0.6,0.3-0.8C347.8,27.6,348.1,27.5,348.4,27.5z" />
		<path
   id="path5244"
   class="st1"
   d="M406.1,27.5h9c0.3,0,0.6,0.1,0.8,0.3c0.2,0.2,0.3,0.5,0.3,0.8v28.2c0,0.3-0.1,0.6-0.3,0.8    c-0.2,0.2-0.5,0.3-0.8,0.3h-9c-0.3,0-0.6-0.1-0.8-0.3s-0.3-0.5-0.3-0.8v-9.3h-8.7v9.3c0,0.3-0.1,0.6-0.3,0.8    c-0.2,0.2-0.5,0.3-0.8,0.3h-9c-0.3,0-0.6-0.1-0.8-0.3c-0.2-0.2-0.3-0.5-0.3-0.9V28.7c0-0.3,0.1-0.6,0.3-0.8    c0.2-0.2,0.5-0.3,0.8-0.3h9c0.3,0,0.6,0.1,0.8,0.3s0.3,0.5,0.3,0.8v8.9h8.7v-8.9c0-0.3,0.1-0.6,0.3-0.8    C405.5,27.6,405.7,27.5,406.1,27.5z" />
		<path
   id="path5246"
   class="st1"
   d="M434.3,49.5h17.4c0.3,0,0.6,0.1,0.8,0.3s0.3,0.5,0.3,0.8v6.2c0,0.3-0.1,0.6-0.3,0.8    c-0.2,0.2-0.5,0.3-0.8,0.3h-27.6c-0.3,0-0.6-0.1-0.8-0.3c-0.2-0.2-0.3-0.5-0.3-0.8V28.7c0-0.3,0.1-0.6,0.3-0.8    c0.2-0.2,0.5-0.3,0.8-0.3h27.1c0.3,0,0.6,0.1,0.8,0.3c0.2,0.2,0.3,0.5,0.3,0.8v6.2c0,0.3-0.1,0.6-0.3,0.8    c-0.2,0.2-0.5,0.3-0.8,0.3h-17v2.7h14.6c0.3,0,0.6,0.1,0.8,0.3c0.2,0.2,0.3,0.5,0.3,0.8v5.7c0,0.3-0.1,0.6-0.3,0.8    c-0.2,0.2-0.5,0.3-0.8,0.3h-14.6V49.5z" />
		<path
   id="path5248"
   class="st1"
   d="M490.9,40.1v5.3c0,3-0.7,5.5-2.2,7.5c-1.5,2-3.4,3.4-5.7,4.3c-2.4,0.8-5.1,1.3-8.3,1.3    c-3.2,0-6-0.4-8.3-1.3c-2.4-0.8-4.3-2.3-5.7-4.3c-1.5-2-2.2-4.5-2.2-7.6v-5.2c0-4.4,1.5-7.7,4.5-9.9c3-2.2,6.9-3.3,11.7-3.3    c4.8,0,8.7,1.1,11.7,3.3C489.4,32.5,490.9,35.8,490.9,40.1z M470.2,39.3v7c0,1.2,0.4,2.1,1.2,2.7c0.8,0.6,1.9,1,3.3,1    c1.4,0,2.4-0.3,3.2-1c0.8-0.7,1.2-1.6,1.2-2.8v-6.9c0-1.2-0.4-2.1-1.2-2.7c-0.8-0.7-1.9-1-3.2-1c-1.4,0-2.5,0.3-3.3,1    C470.6,37.2,470.2,38.1,470.2,39.3z" />
		<path
   id="path5250"
   class="st1"
   d="M529.1,56.7c0.1,0.1,0.1,0.3,0.1,0.5c0,0.2-0.1,0.4-0.3,0.6c-0.2,0.2-0.4,0.3-0.7,0.3h-9.9    c-0.9,0-1.5-0.4-1.8-1.1l-3.8-8.6H509v8.6c0,0.3-0.1,0.6-0.3,0.8c-0.2,0.2-0.5,0.3-0.8,0.3h-9.4c-0.3,0-0.6-0.1-0.8-0.3    s-0.3-0.5-0.3-0.8V28.7c0-0.3,0.1-0.6,0.3-0.8c0.2-0.2,0.5-0.3,0.8-0.3h17c4,0,7.1,0.9,9.5,2.8c2.3,1.9,3.5,4.5,3.5,7.7    c0,4-1.5,6.8-4.6,8.6L529.1,56.7z M509,35.6v4.6h5.5c0.6,0,1.1-0.2,1.5-0.6c0.3-0.4,0.5-1,0.5-1.6c0-0.6-0.2-1.2-0.5-1.7    c-0.3-0.5-0.8-0.7-1.5-0.7H509z" />
		<path
   id="path5252"
   class="st1"
   d="M555.7,27.5h9.1c0.3,0,0.5,0.1,0.7,0.3c0.2,0.2,0.3,0.4,0.3,0.6c0,0.2,0,0.4-0.1,0.6l-11,18.2    v9.7c0,0.3-0.1,0.6-0.3,0.8c-0.2,0.2-0.5,0.3-0.8,0.3h-9.3c-0.3,0-0.6-0.1-0.8-0.3s-0.3-0.5-0.3-0.8v-9.7l-11-18.2    c-0.1-0.2-0.1-0.4-0.1-0.6c0-0.2,0.1-0.4,0.3-0.6c0.2-0.2,0.4-0.3,0.7-0.3h9.2c0.8,0,1.4,0.3,1.8,1l4.9,8.6l5.1-8.6    C554.3,27.8,554.9,27.5,555.7,27.5z" />
	</g>
   <path
   id="rect867"
   class="st2"
   d="M16.9,77.4h562.4c2.2,0,4,1.8,4,4v28.4c0,2.2-1.8,4-4,4H16.9c-2.2,0-4-1.8-4-4V81.3          C12.9,79.2,14.7,77.4,16.9,77.4z" />
	<g
   id="text847"
   transform="matrix(1.0539981,0,0,1.0539981,-6.2039617,-0.01758108)">
		<path
   id="path5203"
   class="st1"
   d="M54.5,82.1H43.8v17.2h10.8c0.4,0,0.8,0.2,1.1,0.5c0.3,0.3,0.5,0.7,0.5,1.1v9    c0,0.4-0.2,0.8-0.5,1.1c-0.3,0.3-0.7,0.5-1.1,0.5H16.8c-0.4,0-0.8-0.2-1.1-0.5c-0.3-0.3-0.5-0.7-0.5-1.1v-9c0-0.4,0.2-0.8,0.5-1.1    s0.7-0.5,1.1-0.5h10.9V82.1H16.8c-0.4,0-0.8-0.2-1.1-0.5c-0.3-0.3-0.5-0.7-0.5-1.1v-9c0-0.4,0.2-0.8,0.5-1.1    c0.3-0.3,0.7-0.5,1.1-0.5h37.7c0.4,0,0.8,0.2,1.1,0.5c0.3,0.3,0.5,0.7,0.5,1.1v9c0,0.4-0.2,0.8-0.5,1.1    C55.3,81.9,55,82.1,54.5,82.1z" />
		<path
   id="path5205"
   class="st1"
   d="M85.3,99.3h20.3c0.4,0,0.8,0.2,1.1,0.5c0.3,0.3,0.5,0.7,0.5,1.1v9c0,0.4-0.2,0.8-0.5,1.1    c-0.3,0.3-0.7,0.5-1.1,0.5H70.9c-0.4,0-0.8-0.2-1.1-0.5c-0.3-0.3-0.5-0.7-0.5-1.1V71.5c0-0.4,0.2-0.8,0.5-1.1    c0.3-0.3,0.7-0.5,1.1-0.5h12.8c0.4,0,0.8,0.2,1.1,0.5c0.3,0.3,0.5,0.7,0.5,1.1V99.3z" />
		<path
   id="path5207"
   class="st1"
   d="M135.9,99.3h20.3c0.4,0,0.8,0.2,1.1,0.5s0.5,0.7,0.5,1.1v9c0,0.4-0.2,0.8-0.5,1.1    c-0.3,0.3-0.7,0.5-1.1,0.5h-34.7c-0.4,0-0.8-0.2-1.1-0.5c-0.3-0.3-0.5-0.7-0.5-1.1V71.5c0-0.4,0.2-0.8,0.5-1.1    c0.3-0.3,0.7-0.5,1.1-0.5h12.8c0.4,0,0.8,0.2,1.1,0.5c0.3,0.3,0.5,0.7,0.5,1.1V99.3z" />
		<path
   id="path5209"
   class="st1"
   d="M203.1,107.7c-3.9,2.9-9.2,4.3-15.8,4.3c-6.7,0-12-1.4-15.9-4.3c-3.9-2.9-5.8-7.4-5.8-13.6    V71.5c0-0.4,0.2-0.8,0.5-1.1c0.3-0.3,0.7-0.5,1.1-0.5h12.4c0.4,0,0.8,0.2,1.1,0.5c0.3,0.3,0.5,0.7,0.5,1.1v23.7    c0,1.6,0.5,2.9,1.6,3.7c1.1,0.9,2.6,1.3,4.5,1.3s3.3-0.4,4.4-1.3c1.1-0.9,1.7-2.1,1.7-3.7V71.5c0-0.4,0.2-0.8,0.5-1.1    c0.3-0.3,0.7-0.5,1.1-0.5h12.4c0.4,0,0.8,0.2,1.1,0.5c0.3,0.3,0.5,0.7,0.5,1.1v22.7C209,100.3,207,104.9,203.1,107.7L203.1,107.7z    " />
		<path
   id="path5211"
   class="st1"
   d="M241.1,85c6.5,0.8,11.1,2.2,13.9,4.2c2.8,2,4.2,5.1,4.2,9.2s-2,7.4-6,9.9    c-4,2.5-9.3,3.8-15.9,3.8s-11.8-1.2-15.5-3.6c-3.6-2.5-5.5-5.5-5.5-9c0-0.9,0.5-1.3,1.4-1.3h12.2c0.8,0,1.5,0.3,2,0.8    c1.1,1.1,3,1.6,5.8,1.6c3.8,0,5.7-0.6,5.7-1.7c0-0.7-0.6-1.3-1.8-1.7c-1.2-0.4-3.5-0.9-7.1-1.2c-11.2-1.3-16.8-5.7-16.8-12.9    c0-4.1,1.8-7.4,5.4-9.9c3.6-2.5,8.4-3.8,14.5-3.8c6.1,0,11,1.3,14.7,4c3.7,2.6,5.6,5.4,5.6,8.3c0,0.4-0.1,0.7-0.4,1    c-0.2,0.2-0.6,0.4-1,0.4h-12.8c-0.7,0-1.3-0.2-1.8-0.7c-1-0.9-2.4-1.3-4.3-1.3c-2.7,0-4,0.6-4,1.7c0,0.6,0.5,1.1,1.5,1.4    C235.9,84.3,238,84.6,241.1,85L241.1,85z" />
		<path
   id="path5213"
   class="st1"
   d="M267.8,69.9h41c0.4,0,0.8,0.2,1.1,0.5c0.3,0.3,0.5,0.7,0.5,1.1V81c0,0.4-0.2,0.8-0.5,1.1    c-0.3,0.3-0.7,0.5-1.1,0.5h-12.8v27.2c0,0.4-0.2,0.8-0.5,1.1c-0.3,0.3-0.7,0.5-1.1,0.5h-12.3c-0.4,0-0.8-0.2-1.1-0.5    c-0.3-0.3-0.5-0.7-0.5-1.1V82.6h-12.8c-0.4,0-0.8-0.2-1.1-0.5c-0.3-0.3-0.5-0.7-0.5-1.1v-9.6c0-0.4,0.2-0.8,0.5-1.1    C267,70,267.4,69.9,267.8,69.9z" />
		<path
   id="path5215"
   class="st1"
   d="M362.5,109.6c0.1,0.2,0.1,0.4,0.1,0.7c0,0.3-0.1,0.6-0.4,0.8c-0.2,0.2-0.5,0.4-0.9,0.4h-13.5    c-1.2,0-2-0.5-2.5-1.5l-5.2-11.8h-5v11.7c0,0.4-0.2,0.8-0.5,1.1c-0.3,0.3-0.7,0.5-1.1,0.5h-12.8c-0.4,0-0.8-0.2-1.1-0.5    c-0.3-0.3-0.5-0.7-0.5-1.1V71.5c0-0.4,0.2-0.8,0.5-1.1c0.3-0.3,0.7-0.5,1.1-0.5h23.1c5.4,0,9.7,1.3,12.9,3.9    c3.2,2.6,4.8,6.1,4.8,10.5c0,5.4-2.1,9.3-6.2,11.7L362.5,109.6z M335.1,80.9v6.3h7.4c0.9,0,1.5-0.3,2-0.8c0.5-0.6,0.7-1.3,0.7-2.2    c0-0.9-0.2-1.6-0.7-2.3c-0.4-0.7-1.1-1-2-1H335.1z" />
		<path
   id="path5217"
   class="st1"
   d="M378.2,111.5h-11.2c-0.4,0-0.7-0.1-1-0.4c-0.2-0.3-0.4-0.5-0.4-0.8s0-0.4,0.1-0.5l13-38    c0.4-1.3,1.2-2,2.7-2h16.5c1.4,0,2.3,0.7,2.7,2l13,38c0,0.1,0.1,0.3,0.1,0.5c0,0.2-0.1,0.5-0.4,0.8c-0.2,0.2-0.5,0.4-0.9,0.4H401    c-1.3,0-2.2-0.7-2.7-2l-1.5-4.2h-14.5l-1.5,4.2C380.3,110.8,379.4,111.5,378.2,111.5L378.2,111.5z M393.8,93.7l-4.2-12.4    l-4.2,12.4H393.8z" />
		<path
   id="path5219"
   class="st1"
   d="M419.4,69.9h41c0.4,0,0.8,0.2,1.1,0.5c0.3,0.3,0.5,0.7,0.5,1.1V81c0,0.4-0.2,0.8-0.5,1.1    c-0.3,0.3-0.7,0.5-1.1,0.5h-12.8v27.2c0,0.4-0.2,0.8-0.5,1.1c-0.3,0.3-0.7,0.5-1.1,0.5h-12.3c-0.4,0-0.8-0.2-1.1-0.5    c-0.3-0.3-0.5-0.7-0.5-1.1V82.6h-12.8c-0.4,0-0.8-0.2-1.1-0.5c-0.3-0.3-0.5-0.7-0.5-1.1v-9.6c0-0.4,0.2-0.8,0.5-1.1    C418.6,70,419,69.9,419.4,69.9L419.4,69.9z" />
		<path
   id="path5221"
   class="st1"
   d="M486,99.9h23.7c0.4,0,0.8,0.2,1.1,0.5c0.3,0.3,0.5,0.7,0.5,1.1v8.4c0,0.4-0.2,0.8-0.5,1.1    c-0.3,0.3-0.7,0.5-1.1,0.5h-37.6c-0.4,0-0.8-0.2-1.1-0.5c-0.3-0.3-0.5-0.7-0.5-1.1V71.5c0-0.4,0.2-0.8,0.5-1.1    c0.3-0.3,0.7-0.5,1.1-0.5h37c0.4,0,0.8,0.2,1.1,0.5c0.3,0.3,0.5,0.7,0.5,1.1v8.4c0,0.4-0.2,0.8-0.5,1.1c-0.3,0.3-0.7,0.5-1.1,0.5    H486v3.7h19.9c0.4,0,0.8,0.2,1.1,0.5c0.3,0.3,0.5,0.7,0.5,1.1v7.7c0,0.4-0.2,0.8-0.5,1.1c-0.3,0.3-0.7,0.5-1.1,0.5H486V99.9z" />
		<path
   id="path5223"
   class="st1"
   d="M521.9,69.9h19c4.4,0,8.1,0.6,11.4,1.7c3.2,1.1,5.8,3.1,7.8,5.8c2,2.7,3,6.1,3,10.2v6.1    c0,6.3-2.1,11-6.4,13.9c-3.9,2.6-9.2,3.9-15.7,3.9h-19c-0.4,0-0.8-0.2-1.1-0.5c-0.3-0.3-0.5-0.7-0.5-1.1V71.5    c0-0.4,0.2-0.8,0.5-1.1C521.1,70,521.4,69.9,521.9,69.9z M535.7,81.5v18.4h5.4c1.9,0,3.3-0.4,4.4-1.3c1.1-0.9,1.7-2.2,1.7-3.8    v-8.2c0-1.6-0.6-2.9-1.7-3.7c-1.1-0.9-2.5-1.4-4.4-1.4L535.7,81.5z" />
	</g>
<text
   xml:space="preserve"
   style="font-size:36.9337px;line-height:1.25;font-family:'Mell Mono';-inkscape-font-specification:'Mell Mono';text-align:end;word-spacing:0px;text-anchor:end;stroke-width:2.77003"
   x="254.07886"
   y="-198.04068"
   id="text1376"><tspan
     sodipodi:role="line"
     id="tspan1374"
     style="font-style:normal;font-variant:normal;font-weight:600;font-stretch:normal;font-family:'Mell Mono';-inkscape-font-specification:'Mell Mono Semi-Bold';stroke-width:2.77003"
     x="254.07887"
     y="-198.04068">Category Theory</tspan></text><text
   xml:space="preserve"
   style="font-size:53.6347px;line-height:1.25;font-family:'Mell Mono';-inkscape-font-specification:'Mell Mono';text-align:end;word-spacing:0px;text-anchor:end;stroke-width:4.02261"
   x="253.86011"
   y="-142.48065"
   id="text1376-2"><tspan
     sodipodi:role="line"
     id="tspan1374-6"
     style="font-style:italic;font-variant:normal;font-weight:normal;font-stretch:normal;font-family:'Mell Mono';-inkscape-font-specification:'Mell Mono Italic';stroke-width:4.02261"
     x="253.86011"
     y="-142.48065">Illustrated</tspan></text></g>
</svg>
