<svg xmlns="http://www.w3.org/2000/svg" viewBox="0 0 595.3 307"><switch><g><g stroke-width="6" stroke-miterlimit="10"><circle opacity=".14" stroke="#000" cx="167.9" cy="171.9" r="114.5"/><circle fill="#FBC4AB" stroke="#808285" cx="156.6" cy="164.6" r="114.5"/></g><circle opacity=".14" stroke="#000" stroke-width="6" stroke-miterlimit="10" cx="438.7" cy="160.9" r="114.5"/><circle fill="#C8E3B7" stroke="#808285" stroke-width="6" stroke-miterlimit="10" cx="427.4" cy="153.6" r="114.5"/><circle fill="#D71920" stroke="#BE1E2D" stroke-width="6" stroke-miterlimit="10" cx="354.8" cy="124.3" r="18.3"/><circle fill="#A9CF38" stroke="#80B541" stroke-width="6" stroke-miterlimit="10" cx="490.4" cy="174.8" r="18.3"/><circle fill="#048A7A" stroke="#006A74" stroke-width="6" stroke-miterlimit="10" cx="419.1" cy="146.2" r="18.3"/><circle fill="#54B948" stroke="#00873A" stroke-width="6" stroke-miterlimit="10" cx="472.1" cy="96.9" r="18.3"/><path fill="#6D6E71" d="M231.5 196.7s.6.4 1.6 1.2c1 .8 2.5 2 4.6 3.3 4.1 2.6 10.4 5.9 18.4 8.1 8 2.2 17.7 3.7 28 3.6 1.3 0 2.6 0 3.9-.1 1.3 0 2.6-.1 3.9-.2 2.7-.1 5.3-.5 8-.7 5.4-.7 10.8-1.6 16.1-2.8 21.5-4.8 41.6-14 55.6-22.7 7-4.3 12.5-8.4 16.3-11.4.7-.6 1.1-.9 1.1-.9l7.3 9c3.7-8.6 6.5-17.3 8.2-25.9-8.3 2.8-16.6 4.5-24.7 5.5l7.3 9s-.4.3-1.1.9c-3.7 2.9-9.1 6.9-16 11.1-13.7 8.5-33.6 17.6-54.7 22.3-5.2 1.2-10.6 2.1-15.8 2.8-2.6.3-5.2.6-7.8.7-1.3.1-2.6.2-3.9.2-1.3 0-2.5 0-3.8.1h-3.7c-1.2 0-2.5-.1-3.7-.1l-3.6-.3c-.6-.1-1.2-.1-1.8-.2-.6-.1-1.1-.2-1.7-.2-1.1-.2-2.3-.3-3.4-.5s-2.2-.4-3.2-.6c-1.1-.2-2.1-.4-3.1-.7-1-.3-2-.5-3-.8-7.7-2.2-13.7-5.2-17.5-7.7-2-1.2-3.4-2.3-4.4-3.1l-1.5-1.2-1.9 2.3zM213.9 95.1s.4-.3 1.1-.9c.7-.6 1.7-1.5 3.1-2.5 2.7-2.1 6.8-4.9 12-7.5 5.3-2.6 11.7-5 18.9-6.7 7.2-1.6 15.1-2.5 22.9-2.2 3.9.1 7.9.5 11.7 1.1 3.8.7 7.6 1.4 11.1 2.4 7.1 2 13.5 4.7 18.7 7.5 1.3.6 2.5 1.4 3.7 2.1.6.3 1.2.7 1.7 1 .5.3 1.1.7 1.6 1 1 .7 1.9 1.3 2.8 1.8.8.6 1.6 1.2 2.3 1.7.7.5 1 .7 1 .7l-6.9 9.3c7.9.4 16.3 2.1 24.6 4.9-1.7-8.6-4.6-17.4-8.8-26l-6.9 9.3s-.4-.3-1.1-.8c-.7-.5-1.5-1.1-2.4-1.7-.9-.6-1.9-1.2-2.9-1.9-.5-.3-1.1-.7-1.6-1-.6-.3-1.2-.7-1.8-1-1.2-.7-2.4-1.5-3.8-2.1-5.4-2.9-12-5.7-19.3-7.7-3.7-1.1-7.5-1.8-11.5-2.5-4-.5-8-1-12.1-1.1-8.1-.3-16.3.6-23.7 2.3-7.4 1.7-14.2 4.2-19.6 6.9-5.5 2.7-9.7 5.6-12.6 7.8-1.4 1.1-2.5 2-3.2 2.6-.7.6-1.1 1-1.1 1l2.1 2.2z"/><path fill="#6D6E71" d="M155.2 175.7s.8 1.2 2.2 3.4c1.5 2.2 3.7 5.3 6.9 9.1 3.1 3.8 7.2 8.2 12.2 12.8 5 4.6 11 9.5 17.9 14.2 6.9 4.8 14.8 9.3 23.4 13.5 8.6 4.2 18 8 28 11.3 19.9 6.5 41.9 10.8 64.2 12.2 22.3 1.4 44.7 0 65.2-3.9 10.3-2 20.1-4.6 29.2-7.6 9.1-3.1 17.5-6.6 25-10.3 15-7.4 26.4-15.7 33.9-22.1l1.5-1.2 7.6 8.8c3.4-8.7 5.9-17.5 7.4-26.1-8.3 3-16.5 5-24.6 6.2l7.6 8.8-1.5 1.2c-7.3 6.2-18.5 14.3-33.3 21.6-7.4 3.7-15.6 7.1-24.6 10.1-9 3-18.6 5.5-28.8 7.5-20.3 3.9-42.4 5.3-64.4 3.9-22-1.4-43.8-5.6-63.4-12.1-9.8-3.3-19.1-7-27.6-11.1-8.5-4.2-16.2-8.6-23-13.3-6.8-4.7-12.7-9.4-17.6-13.9-4.9-4.5-8.8-8.8-11.9-12.5-3-3.7-5.2-6.8-6.7-8.9l-2.2-3.3-2.6 1.7zM100.1 122.8s1-1.1 3-3.1c1-1 2.2-2.3 3.6-3.7 1.4-1.4 3-3.2 4.9-5 3.8-3.6 8.3-8.1 13.9-12.8 1.4-1.2 2.8-2.5 4.3-3.7 1.5-1.3 3.1-2.5 4.6-3.8 3.2-2.6 6.5-5.3 10.2-7.9 1.8-1.3 3.7-2.7 5.5-4.1.9-.7 1.9-1.4 2.9-2 1-.7 2-1.3 3-2 2-1.3 4-2.7 6.1-4.1 2.1-1.3 4.3-2.6 6.5-4 1.1-.7 2.2-1.3 3.3-2 1.1-.7 2.3-1.3 3.4-1.9 2.3-1.3 4.7-2.6 7-3.8 2.4-1.3 4.9-2.4 7.3-3.6 1.2-.6 2.5-1.2 3.7-1.8 1.2-.6 2.6-1.1 3.8-1.7l7.8-3.3 8.1-3c2.7-1.1 5.5-1.9 8.3-2.8 2.8-.9 5.6-1.8 8.4-2.5 2.8-.7 5.7-1.5 8.6-2.3l8.7-1.8 2.2-.5c.7-.1 1.5-.2 2.2-.4l4.4-.7 4.4-.7c1.5-.2 3-.3 4.5-.5l4.5-.5c1.5-.2 3-.3 4.5-.4 3-.2 6-.3 8.9-.5 3-.1 6-.1 8.9-.1 3-.1 5.9.1 8.9.2 5.9.1 11.7.8 17.5 1.3 5.7.8 11.4 1.5 16.9 2.6 5.5.9 10.9 2.3 16.2 3.5 2.6.7 5.2 1.4 7.7 2.1 1.3.4 2.5.7 3.8 1.1 1.3.3 2.5.8 3.7 1.2 2.4.8 4.9 1.6 7.2 2.4 2.4.8 4.7 1.7 6.9 2.6 2.3.9 4.5 1.7 6.7 2.6 2.2.9 4.3 1.8 6.3 2.7 16.5 7.1 29.6 14.6 38.6 19.9 1.1.7 1.7 1.1 1.7 1.1l-6 9.9 6.4.1c2.1.1 4.3.1 6.5.2 4.3.2 8.6.5 13.1.8-1.9-3.9-3.8-7.9-5.9-11.9-1-2-2.1-3.9-3.1-5.9l-3.3-5.9-6 9.9s-.6-.4-1.7-1.1c-9.1-5.4-22.3-12.9-39-20.1-2.1-.9-4.2-1.8-6.4-2.7-2.2-.9-4.5-1.7-6.7-2.6-2.3-.8-4.6-1.8-7-2.6-2.4-.8-4.8-1.6-7.3-2.4-1.2-.4-2.5-.9-3.7-1.2-1.3-.4-2.5-.7-3.8-1.1-2.6-.7-5.2-1.5-7.8-2.2-5.3-1.2-10.7-2.6-16.4-3.6-5.6-1.2-11.3-1.8-17.1-2.7-5.8-.5-11.7-1.2-17.7-1.3-3-.1-6-.3-9-.2-3 0-6 0-9 .1-3 .2-6 .3-9.1.5-1.5.1-3 .2-4.5.4l-4.5.5c-1.5.2-3 .3-4.5.5l-4.5.7-4.5.7c-.7.1-1.5.2-2.2.4l-2.2.5c-3 .6-5.9 1.2-8.9 1.9-2.9.8-5.8 1.5-8.7 2.3-2.9.7-5.7 1.7-8.5 2.6-2.8.9-5.6 1.7-8.4 2.8-2.7 1-5.5 2-8.2 3-2.7 1.1-5.3 2.3-7.9 3.4-1.3.6-2.6 1.1-3.9 1.7-1.3.6-2.5 1.2-3.8 1.8-2.5 1.2-5 2.4-7.4 3.7-2.4 1.3-4.8 2.6-7.1 3.9-1.2.7-2.4 1.3-3.5 1.9-1.1.7-2.2 1.4-3.4 2-2.2 1.4-4.4 2.7-6.6 4-2.1 1.4-4.2 2.8-6.2 4.2-1 .7-2 1.4-3 2-1 .7-2 1.3-2.9 2-1.9 1.4-3.8 2.8-5.6 4.1-3.7 2.6-7 5.4-10.3 8-1.6 1.3-3.2 2.5-4.7 3.8-1.5 1.3-2.9 2.5-4.3 3.8-5.6 4.8-10.2 9.3-14 13-2 1.8-3.5 3.6-5 5-1.4 1.5-2.7 2.7-3.6 3.7-2 2-3 3.1-3 3.1l2.3 2.3z"/><circle fill="#D71920" stroke="#BE1E2D" stroke-width="6" stroke-miterlimit="10" cx="84" cy="135.4" r="18.3"/><circle fill="#F58235" stroke="#E76524" stroke-width="6" stroke-miterlimit="10" cx="219.5" cy="185.9" r="18.3"/><circle fill="#8967AC" stroke="#651C5F" stroke-width="6" stroke-miterlimit="10" cx="148.3" cy="157.2" r="18.3"/><circle fill="#54B948" stroke="#00873A" stroke-width="6" stroke-miterlimit="10" cx="201.2" cy="108" r="18.3"/></g></switch></svg>