<svg xmlns="http://www.w3.org/2000/svg" viewBox="0 0 595.3 271.3"><switch><g><g stroke-width="6" stroke-miterlimit="10"><circle opacity=".14" stroke="#000" cx="155.1" cy="133.7" r="90"/><circle fill="#E6E7E8" stroke="#808285" cx="146.3" cy="128" r="90"/><circle opacity=".14" stroke="#000" cx="392.7" cy="153.9" r="90"/><circle fill="#E6E7E8" stroke="#808285" cx="383.9" cy="148.1" r="90"/></g><circle fill="#39BCED" stroke="#008DD2" stroke-width="6" stroke-miterlimit="10" cx="414.3" cy="117.9" r="21.6"/><circle fill="#D71920" stroke="#BE1E2D" stroke-width="6" stroke-miterlimit="10" cx="359.9" cy="175.4" r="21.6"/><path fill="#6D6E71" d="M177 97.6s.7-.5 2-1.4c1.3-.9 3.2-2.2 5.8-3.7 5.1-3.1 12.7-7.1 22.3-10.6 9.6-3.5 21.2-6.4 33.9-8.1 12.7-1.6 26.4-2 40.1-.9 13.7.9 27.2 3.3 39.7 6.2 12.5 3 23.9 6.7 33.6 10.3 9.6 3.6 17.4 7.1 22.8 9.8.9.4 1.4.7 1.4.7l-5.1 10.4c8.4-.7 17-1.1 25.8-1-4.3-7.6-9.1-15.2-14.3-22.6L380.1 97s-.5-.2-1.4-.7c-5.5-2.6-13.4-6.2-23.1-9.9-9.7-3.7-21.3-7.4-33.9-10.4-12.7-3-26.4-5.3-40.2-6.3-13.8-1.1-27.8-.7-40.7 1-12.9 1.7-24.8 4.7-34.6 8.3-9.8 3.6-17.6 7.7-22.8 10.8-2.7 1.5-4.6 2.9-6 3.8-1.4.9-2.1 1.4-2.1 1.4l1.7 2.6z"/><circle fill="#39BCED" stroke="#008DD2" stroke-width="6" stroke-miterlimit="10" cx="169.3" cy="100.6" r="21.6"/><path fill="#6D6E71" d="M123 165.6s.6.7 1.6 2.1c.5.7 1.2 1.6 2 2.6.7 1 1.7 2.1 2.8 3.4 4.2 5.1 10.7 11.9 19.5 18.9 8.8 7 20 13.9 32.8 19.7 1.6.7 3.2 1.4 4.9 2 1.6.7 3.3 1.4 5 1.9l5.1 1.8c1.7.6 3.5 1.1 5.3 1.6.9.3 1.8.5 2.6.8l2.7.7c1.8.4 3.6.9 5.4 1.3 3.7.7 7.3 1.6 11 2.1 14.8 2.4 29.8 2.6 43.8 1.2 13.9-1.6 26.7-4.8 37.3-8.7 10.6-3.8 18.8-8.3 24.5-11.6.9-.5 1.4-.9 1.4-.9l6 9.9c1.2-2 2.3-4.1 3.4-6 1.1-2 2.1-4.1 3.1-6.2l1.4-3c.4-1 .9-2.1 1.3-3.1.8-2.1 1.6-4.1 2.4-6.1-2.2.4-4.4.7-6.5 1-1.1.1-2.1.3-3.2.4l-3.2.3c-2.1.2-4.2.3-6.3.4h-6.2l6 9.9s-.5.3-1.3.8c-5.6 3.2-13.6 7.6-24 11.3-10.3 3.8-22.8 7-36.5 8.5-13.7 1.4-28.5 1.2-43-1.1-3.6-.5-7.2-1.3-10.8-2-1.8-.4-3.5-.9-5.3-1.3l-2.6-.7-2.6-.8c-1.7-.5-3.5-1-5.2-1.6-1.7-.6-3.4-1.2-5-1.8-1.7-.6-3.3-1.2-4.9-1.9-1.6-.7-3.2-1.3-4.8-2-12.5-5.6-23.5-12.4-32.1-19.3-8.6-6.8-15-13.5-19-18.4-1.1-1.2-2-2.3-2.7-3.3-.8-1-1.4-1.8-1.9-2.5-1-1.4-1.6-2.1-1.6-2.1l-2.6 1.8z"/><circle fill="#D71920" stroke="#BE1E2D" stroke-width="6" stroke-miterlimit="10" cx="114.9" cy="158.1" r="21.6"/></g></switch></svg>