<?xml version="1.0" encoding="utf-8"?>
<!-- Generator: Adobe Illustrator 18.0.0, SVG Export Plug-In . SVG Version: 6.00 Build 0)  -->
<!DOCTYPE svg PUBLIC "-//W3C//DTD SVG 1.1//EN" "http://www.w3.org/Graphics/SVG/1.1/DTD/svg11.dtd">
<svg version="1.1" xmlns="http://www.w3.org/2000/svg" xmlns:xlink="http://www.w3.org/1999/xlink" x="0px" y="0px"
	 viewBox="0 0 595.3 201" enable-background="new 0 0 595.3 201" xml:space="preserve">
<g id="Layer_3">
	<circle opacity="0.14" stroke="#000000" stroke-width="6" stroke-miterlimit="10" cx="293.3" cy="116.1" r="79.1"/>
	<circle fill="#D6D5EB" stroke="#808285" stroke-width="6" stroke-miterlimit="10" cx="285.5" cy="111.1" r="79.1"/>
	<circle opacity="0.14" stroke="#000000" stroke-width="6" stroke-miterlimit="10" cx="107.1" cy="109.5" r="83.9"/>
	<circle fill="#F8F6C1" stroke="#808285" stroke-width="6" stroke-miterlimit="10" cx="98.9" cy="104.1" r="83.9"/>
	<circle fill="#FCE600" stroke="#FFDD00" stroke-width="6" stroke-miterlimit="10" cx="78.4" cy="153.9" r="13.4"/>
	<circle fill="#39BCED" stroke="#008DD2" stroke-width="6" stroke-miterlimit="10" cx="82.9" cy="54.4" r="13.4"/>
	<circle fill="#54B948" stroke="#00873A" stroke-width="6" stroke-miterlimit="10" cx="135.1" cy="70" r="13.4"/>
	<circle opacity="0.14" stroke="#000000" stroke-width="6" stroke-miterlimit="10" cx="480.2" cy="108.4" r="75.4"/>
	<circle fill="#D9ECD5" stroke="#808285" stroke-width="6" stroke-miterlimit="10" cx="472.8" cy="103.6" r="75.4"/>
	<circle fill="#D71920" stroke="#BE1E2D" stroke-width="6" stroke-miterlimit="10" cx="425" cy="84.3" r="12"/>
	<circle fill="#8967AC" stroke="#651C5F" stroke-width="6" stroke-miterlimit="10" cx="467.3" cy="98.7" r="12"/>
	<circle fill="#54B948" stroke="#00873A" stroke-width="6" stroke-miterlimit="10" cx="502.2" cy="66.3" r="12"/>
	<g>
		<g>
			<g>
				<path fill="#6D6E71" d="M320.5,141.4c0,0,0.4,0.3,1.2,0.9c0.4,0.3,0.9,0.7,1.5,1.1c0.6,0.4,1.4,0.8,2.2,1.3
					c3.3,1.8,8.3,3.7,14.5,4.7c6.2,1,13.5,1.3,21.2,0.6c7.7-0.6,15.9-2,23.9-4c16-3.9,31.3-10.1,42.3-15.9c5.5-2.8,9.9-5.5,12.9-7.5
					c0.7-0.5,1.1-0.7,1.1-0.7l6.4,9.6c4.5-8.2,8.3-17,10.1-25.6c-8.4,2.7-16.5,3.6-24.7,3.7l6.4,9.6c0,0-0.4,0.3-1.1,0.7
					c-2.9,1.9-7.3,4.5-12.6,7.3c-10.7,5.6-25.8,11.7-41.6,15.6c-7.9,1.9-15.8,3.3-23.4,3.9c-7.5,0.6-14.6,0.4-20.5-0.6
					c-5.9-0.9-10.5-2.7-13.5-4.4c-0.7-0.4-1.4-0.8-2-1.1c-0.5-0.4-1-0.7-1.3-1c-0.7-0.5-1.1-0.8-1.1-0.8L320.5,141.4z"/>
			</g>
		</g>
	</g>
	<g>
		<path fill="none" stroke="#95979A" stroke-miterlimit="10" d="M507.2,127.4"/>
	</g>
	<g>
		<path fill="none" stroke="#95979A" stroke-miterlimit="10" d="M266.2,132"/>
	</g>
	<g>
		<g>
			<g>
				<path fill="#6D6E71" d="M289.5,79.4c0,0,0.6-0.6,1.6-1.6c1.1-1,2.5-2.7,4.6-4.5c4-3.8,10.1-9,17.9-14.3
					c7.9-5.4,17.6-10.7,28.6-15.2c5.5-2.2,11.3-4.3,17.3-6c3-0.9,6.1-1.6,9.1-2.3c1.5-0.3,3.1-0.6,4.7-0.9l2.3-0.5l2.4-0.4
					c6.3-1.1,12.6-1.6,18.8-2c3.1-0.1,6.2-0.2,9.3-0.1c1.5,0,3.1,0,4.6,0.1c1.5,0.1,3,0.2,4.5,0.3c11.9,0.8,22.8,3.1,31.9,5.8
					c1.1,0.3,2.3,0.7,3.3,1c1.1,0.3,2.1,0.7,3.1,1.1c2,0.7,4,1.4,5.8,2.2c1.8,0.7,3.5,1.4,5,2.1c1.5,0.7,2.9,1.4,4.1,2
					c0.9,0.4,1.3,0.6,1.3,0.6l-5.2,10.3c8.1-0.8,16.6-0.8,25.4,0c-3.6-7.9-8.2-15.9-13.6-23.5L471.2,44c0,0-0.5-0.2-1.4-0.7
					c-1.3-0.6-2.7-1.3-4.2-2c-1.6-0.7-3.3-1.4-5.1-2.1c-1.8-0.8-3.8-1.5-5.9-2.2c-1-0.4-2.1-0.8-3.2-1.1c-1.1-0.3-2.3-0.7-3.4-1
					c-9.3-2.8-20.4-5.2-32.6-6c-1.5-0.1-3-0.2-4.6-0.3c-1.5-0.1-3.1-0.1-4.7-0.1c-3.1-0.1-6.3,0-9.5,0.1c-6.4,0.4-12.8,0.9-19.2,2
					l-2.4,0.4l-2.4,0.5c-1.6,0.3-3.2,0.6-4.7,1c-3.1,0.8-6.3,1.4-9.3,2.4c-6.1,1.7-12,3.8-17.7,6.1c-11.2,4.6-21.2,10.1-29.2,15.5
					c-8,5.4-14.2,10.7-18.3,14.6c-2.1,1.9-3.6,3.6-4.7,4.6c-1.1,1.1-1.6,1.7-1.6,1.7L289.5,79.4z"/>
			</g>
		</g>
	</g>
	<circle fill="#D71920" stroke="#BE1E2D" stroke-width="6" stroke-miterlimit="10" cx="51.7" cy="113.2" r="13.4"/>
	<circle fill="#8967AC" stroke="#651C5F" stroke-width="6" stroke-miterlimit="10" cx="283.8" cy="84.5" r="13.4"/>
	<circle fill="#F58235" stroke="#E76524" stroke-width="6" stroke-miterlimit="10" cx="314" cy="134.2" r="13.4"/>
	<g>
		<g>
			<g>
				<path fill="#6D6E71" d="M142.7,70.3c0,0,0.4-0.3,1.1-0.8c0.7-0.5,1.7-1.4,3.2-2.3c2.7-2,6.9-4.5,12.1-7.1
					c5.2-2.6,11.5-5.1,18.5-7c7-1.8,14.7-3.1,22.5-3.3c7.7-0.2,15.5,0.3,22.6,1.9c7.1,1.5,13.5,3.8,18.7,6.3c5.2,2.5,9.2,5.2,12,7.2
					l0.3,0.2l0.1,0.1l0.1,0.1c0.1,0,0.1,0.1,0.2,0.1c0.1,0.1,0.2,0.1,0.2,0.2c0.1,0.1,0.2,0.2,0.2,0.2l-7,9.2
					c7.6,0.3,15.8,2.2,23.8,5.8c-0.9-8.7-3.5-17.8-7.9-26.7l-7,9.2c0,0-0.1-0.1-0.2-0.2c-0.1-0.1-0.2-0.1-0.2-0.2
					c0,0-0.1-0.1-0.2-0.1l-0.1-0.1l-0.1-0.1l-0.3-0.2c-2.9-2-7-4.8-12.5-7.5c-5.4-2.6-12.1-5-19.4-6.6c-7.3-1.6-15.4-2.2-23.4-2
					c-8,0.3-15.9,1.6-23.2,3.4c-7.2,1.9-13.8,4.5-19.1,7.2c-5.4,2.7-9.6,5.3-12.5,7.4c-1.5,1-2.5,1.9-3.3,2.4
					c-0.7,0.6-1.1,0.9-1.1,0.9L142.7,70.3z"/>
			</g>
		</g>
	</g>
	<g>
		<g>
			<g>
				<path fill="#6D6E71" d="M94.8,45c0,0,0.6-0.5,1.7-1.4c0.5-0.4,1.2-1,2-1.6c0.8-0.6,1.8-1.3,2.9-2c4.3-3,10.9-6.7,19.5-9.8
					c8.5-3.1,18.9-5.8,30.2-7.2c11.3-1.4,23.5-1.8,35.7-0.8c12.1,1,24.2,3.1,35.1,6.6c10.9,3.4,20.6,7.8,28.3,12.6
					c7.8,4.7,13.4,9.8,17.1,13.5c0.6,0.7,1,1,1,1l-8.4,8c7.6,1.6,15.3,4.6,22.7,9.4c0.5-8.7-0.7-18.2-3.6-27.6l-8.4,8
					c0,0-0.4-0.4-1-1.1c-3.9-3.9-9.7-9.1-17.7-14c-8-4.9-17.9-9.5-29.1-12.9c-11.1-3.5-23.4-5.7-35.7-6.7c-12.4-1-24.8-0.6-36.3,0.8
					c-11.5,1.4-22.1,4.1-30.9,7.3c-8.8,3.2-15.7,7-20.2,10.1c-1.1,0.8-2.2,1.5-3,2.1c-0.8,0.7-1.5,1.3-2.1,1.7
					c-1.1,0.9-1.8,1.4-1.8,1.4L94.8,45z"/>
			</g>
		</g>
	</g>
	<g>
		<g>
			<g>
				<path fill="#6D6E71" d="M76.9,158.8c0,0,0.6,0.7,1.8,1.9c0.6,0.6,1.3,1.4,2.2,2.3c0.9,0.9,1.9,1.9,3.2,2.9
					c4.8,4.3,12.2,10,22.1,15c4.9,2.5,10.5,4.8,16.5,6.8c6,2,12.5,3.6,19.3,4.8c13.6,2.4,28.3,3,42.9,2c14.6-1,29.1-3.5,42.3-6.9
					c13.3-3.4,25.4-7.8,35.4-12.3c10-4.5,18-9.2,23.3-12.8c0.8-0.6,1.3-0.9,1.3-0.9l6.6,9.5c2.2-4.2,4.2-8.6,5.8-13
					c1.6-4.4,2.8-8.9,3.2-13.3c-4,1.8-8,2.8-12.1,3.6c-4,0.7-8,1-12,1.2l6.6,9.5c0,0-0.5,0.3-1.3,0.9c-5.2,3.5-12.9,8.1-22.8,12.5
					c-9.8,4.5-21.8,8.8-34.8,12.2c-13.1,3.4-27.4,5.9-41.8,6.8c-14.4,1-28.9,0.4-42.1-2c-6.6-1.2-13-2.7-18.8-4.7
					c-5.9-1.9-11.2-4.2-16-6.6c-9.6-4.8-16.7-10.3-21.4-14.5c-1.2-1-2.2-2-3-2.8c-0.9-0.8-1.6-1.6-2.2-2.2c-1.2-1.2-1.8-1.9-1.8-1.9
					L76.9,158.8z"/>
			</g>
		</g>
	</g>
	<g>
		<g>
			<g>
				<path fill="#6D6E71" d="M66.2,121.3c0,0,0.2,0.1,0.6,0.4c0.4,0.2,0.9,0.7,1.6,1.1c1.4,0.9,3.6,2.2,6.5,3.5
					c5.7,2.7,14.1,5.6,24.4,8.3c20.5,5.4,48.5,9.7,76.6,12.2c28.1,2.5,56.3,3.1,77.5,1.9c10.6-0.6,19.4-1.6,25.5-2.6
					c1-0.2,1.6-0.3,1.6-0.3l2,11.4c3.7-2.9,7.3-5.9,10.7-9.1c3.3-3.2,6.5-6.8,8.7-10.6c-4.4,0-8.4-1-12.4-2.1
					c-3.9-1.2-7.8-2.6-11.6-4.2l2,11.4c0,0-0.6,0.1-1.5,0.3c-6,1-14.7,2-25.2,2.6c-21,1.2-49.1,0.6-77-1.9
					c-27.9-2.5-55.8-6.8-76-12.1c-10.1-2.6-18.4-5.5-23.8-8.1c-2.7-1.3-4.8-2.4-6.1-3.3c-0.7-0.4-1.1-0.8-1.5-1
					c-0.3-0.2-0.5-0.4-0.5-0.4L66.2,121.3z"/>
			</g>
		</g>
	</g>
</g>
<g id="Layer_1">
</g>
<g id="Layer_2" display="none">
</g>
</svg>
