<?xml version="1.0" encoding="utf-8"?>
<!-- Generator: Adobe Illustrator 18.0.0, SVG Export Plug-In . SVG Version: 6.00 Build 0)  -->
<!DOCTYPE svg PUBLIC "-//W3C//DTD SVG 1.1//EN" "http://www.w3.org/Graphics/SVG/1.1/DTD/svg11.dtd">
<svg version="1.1" xmlns="http://www.w3.org/2000/svg" xmlns:xlink="http://www.w3.org/1999/xlink" x="0px" y="0px"
	 viewBox="0 -44.1 595.3 380.5" enable-background="new 0 -44.1 595.3 380.5" xml:space="preserve">
<g id="Layer_2">
	<g>
		<g>
			<g>
				<path fill="#D6E379" d="M405.1,164.3l0.7,1l0.5,0.7l-9.5,6.6c6,2.1,12.1,5.7,17.5,10.6l0.1,0.2c0.8,0.3,1.7,1.2,2,2.4
					c0.9-0.9,1.5-2.3,1.4-4l0.1,0.2c1.6-7.5,1.9-15.8,0.5-24.4l-9.5,6.5l-0.5-0.8l-0.8-1.1L405.1,164.3z"/>
			</g>
		</g>
	</g>
	<g>
		<g>
			<g>
				<path fill="#D6E379" d="M237.5,165.8c0,0,0.4,0.5,1,1.5c0.3,0.5,0.7,1.1,1.2,1.8c0.5,0.7,1.1,1.5,1.8,2.4c2.8,3.5,7.1,8.2,13,13
					c3,2.3,6.3,4.8,10,7c3.7,2.3,7.7,4.5,12.1,6.4c4.3,2,8.9,3.7,13.6,5.2c1.2,0.3,2.4,0.7,3.6,1c1.2,0.3,2.4,0.6,3.6,0.9
					c1.2,0.3,2.4,0.6,3.7,0.9l3.7,0.8c9.8,2,19.8,3.3,29.2,3.8c9.4,0.6,18.2,0.4,25.7-0.1c7.5-0.5,13.8-1.3,18.1-2
					c0.9-0.1,1.4-0.2,1.4-0.2l1.9,11.4c7.3-5.6,14-11.6,20.1-17.9c-8.5-2.2-16.6-4.9-24.4-8.1l1.9,11.4c0,0-0.5,0.1-1.3,0.2
					c-4.3,0.7-10.4,1.5-17.8,2c-7.4,0.5-16.1,0.7-25.3,0.1c-9.3-0.5-19.1-1.8-28.8-3.8l-3.6-0.8c-1.2-0.3-2.4-0.6-3.6-0.9
					c-1.2-0.3-2.4-0.6-3.6-0.9c-1.2-0.3-2.3-0.7-3.5-1c-4.6-1.4-9.1-3.2-13.3-5.1c-4.2-1.9-8.1-4-11.7-6.2c-3.6-2.2-6.8-4.5-9.7-6.8
					c-5.7-4.6-9.9-9.1-12.5-12.5c-0.6-0.8-1.2-1.6-1.7-2.3c-0.5-0.7-0.9-1.3-1.2-1.7c-0.6-0.9-1-1.4-1-1.4L237.5,165.8z"/>
			</g>
		</g>
	</g>
	<g>
		<g>
			<g>
				<path fill="#D6E379" d="M415.8,133.2c0,0,0.8-0.1,2.2-0.2c1.4-0.1,3.4-0.3,5.7-0.4c4.7-0.3,11.1-0.5,17.4-0.4
					c6.3,0.1,12.7,0.6,17.4,1.1c2.4,0.2,4.3,0.5,5.7,0.7c0.7,0.1,1,0.1,1,0.1l-1.6,11.5c7.6-3.4,15.7-6.3,24.1-8.8
					c-6.3-6.1-13.2-11.9-20.6-17.3l-1.6,11.5c0,0-0.4,0-1.1-0.1c-1.4-0.2-3.4-0.4-5.8-0.7c-4.8-0.5-11.2-1-17.6-1.1
					c-6.4-0.1-12.9,0.1-17.7,0.4c-2.4,0.2-4.4,0.3-5.8,0.4c-1.4,0.1-2.2,0.2-2.2,0.2L415.8,133.2z"/>
			</g>
		</g>
	</g>
	<g>
		<g>
			<g>
				<path fill="#D6E379" d="M244.9,103.1c0,0,3.6-0.9,9.9-2.6c3.2-0.8,7-1.7,11.4-2.8c4.4-1,9.4-2.3,14.8-3.4
					c10.9-2.4,23.6-4.9,37.4-6.5c13.8-1.6,28.6-2.5,43.4-1.8c14.8,0.5,29.5,2.3,43.3,4.5c6.9,1.1,13.5,2.4,19.7,3.7
					c6.2,1.4,12,3,17.3,4.6c10.6,3.3,19,7.1,24.6,10.1c0.5,0.3,0.9,0.5,1.2,0.6c0.1,0.1,0.2,0.1,0.2,0.1l-5.5,10.2
					c8-0.6,16.4-0.3,25,1.3c-2.9-8.3-7.2-16.5-12.5-24.4l-5.5,10.2c0,0-0.1,0-0.2-0.1c-0.3-0.1-0.7-0.4-1.2-0.6
					c-5.8-3.1-14.4-6.9-25.2-10.3c-5.4-1.7-11.3-3.3-17.5-4.7c-6.3-1.4-12.9-2.7-19.8-3.8c-13.8-2.2-28.7-4-43.6-4.5
					c-15-0.6-29.9,0.2-43.9,1.9c-13.9,1.7-26.8,4.2-37.7,6.6c-5.5,1.2-10.4,2.4-14.9,3.4c-4.4,1.1-8.2,2.1-11.4,2.9
					c-6.3,1.6-9.9,2.6-9.9,2.6L244.9,103.1z"/>
			</g>
		</g>
	</g>
	<g>
		<g>
			<g>
				<path fill="#D6E379" d="M380.9,93.6c0,0,0.1-0.5,0.3-1.5c0.2-1,0.5-2.3,0.7-4c0.5-3.3,1.1-7.8,1.3-12.2
					c0.2-4.5,0.1-8.9-0.1-12.3c-0.1-1.7-0.2-3.1-0.3-4c-0.1-0.7-0.1-1-0.1-1l11.5-1.2c-5.3-8-11.4-15-17.9-20.8
					c-1.8,8.6-4.6,16.5-8.3,23.6l11.5-1.2c0,0,0,0.4,0.1,1c0.1,0.9,0.2,2.3,0.3,3.9c0.2,3.3,0.3,7.6,0.1,11.9
					c-0.2,4.3-0.7,8.7-1.3,11.9c-0.2,1.6-0.5,2.9-0.7,3.9c-0.2,0.9-0.3,1.5-0.3,1.5L380.9,93.6z"/>
			</g>
		</g>
	</g>
	<g>
		<g>
			<g>
				<path fill="#D6E379" d="M237.5,98c0,0,0.8-1.1,2.3-3c1.4-1.9,3.6-4.6,6.3-7.7c5.3-6.3,13-14.2,21.3-21.3
					c8.3-7.2,17.3-13.5,24.3-17.9c3.5-2.1,6.5-3.9,8.6-5c0.6-0.4,1-0.6,1-0.6l5.6,10.1c4.1-7.2,8.8-14.4,14.2-21.3
					c-8.7-1.2-17.7-1.8-26.9-1.7l5.6,10.1c0,0-0.4,0.2-1,0.6c-2.2,1.1-5.1,2.9-8.7,5.1c-7.1,4.4-16.2,10.9-24.6,18.2
					c-8.5,7.2-16.2,15.3-21.7,21.6c-2.7,3.2-4.9,5.9-6.4,7.8c-1.5,1.9-2.3,3-2.3,3L237.5,98z"/>
			</g>
		</g>
	</g>
	<g>
		<g>
			<g>
				<path fill="#D6E379" d="M410.5,121.1c0,0,0.3-0.4,0.8-1.1c0.5-0.7,1.2-1.7,2-2.9c1.6-2.4,3.7-5.6,5.7-8.8c2-3.3,3.9-6.6,5.2-9.1
					c1.3-2.4,2.1-4,2.1-4l10.3,5.3c-0.2-9.2-1-18.1-2.4-26.8c-6.8,5.5-13.9,10.4-21,14.8l10.3,5.3c0,0-0.8,1.6-2.1,3.9
					c-1.3,2.5-3.2,5.8-5.2,9c-2,3.2-4,6.4-5.6,8.7c-0.8,1.2-1.5,2.1-1.9,2.8c-0.5,0.7-0.7,1.1-0.7,1.1L410.5,121.1z"/>
			</g>
		</g>
	</g>
	<g>
		<g>
			<g>
				<path fill="#D6E379" d="M413.4,136c0,0,1.4-0.5,3.9-1.5c2.5-0.9,6-2.5,10.1-4.3c8.3-3.8,18.9-9.8,28.7-16.9
					c2.5-1.7,4.8-3.7,7.2-5.5c2.3-1.9,4.5-3.8,6.7-5.6c2.1-1.9,4.2-3.7,6-5.6c1.8-1.9,3.6-3.5,5.2-5.2c1.5-1.7,3-3.2,4.2-4.6
					c1.2-1.4,2.2-2.6,3.1-3.6c0.5-0.6,0.8-0.9,0.8-0.9l8.9,7.4c1.8-9.1,2.8-18.1,3.1-26.8c-7.8,4.1-15.6,7.5-23.5,10.1l8.9,7.4
					c0,0-0.3,0.3-0.8,0.9c-0.8,1-1.9,2.2-3,3.6c-1.2,1.3-2.6,2.8-4.1,4.5c-1.5,1.7-3.3,3.3-5.1,5.1c-1.8,1.8-3.9,3.6-5.9,5.5
					c-2.1,1.8-4.3,3.7-6.6,5.5c-2.3,1.8-4.6,3.7-7.1,5.4c-9.6,7-20.1,12.9-28.2,16.6c-4.1,1.8-7.5,3.3-9.9,4.2
					c-2.4,0.9-3.8,1.5-3.8,1.5L413.4,136z"/>
			</g>
		</g>
	</g>
	<g>
		<g>
			<g>
				<path fill="#D6E379" d="M240,101.5c0,0,0.5-0.5,1.4-1.4c0.9-0.9,2.3-2.1,4.1-3.7c3.6-3.1,9.1-7.2,16.2-11.3
					c14.2-8.3,35-16,56.2-21.9c21.2-5.9,43.1-9.6,59.5-11.1c2.1-0.2,4-0.4,5.9-0.5c1.9-0.1,3.7-0.3,5.3-0.4c3.4-0.2,6.3-0.4,8.7-0.4
					c0.9,0,1.4,0,1.4,0l0.4,11.6c7.1-4.7,14.6-9,22.3-13.2c-7.5-4.5-15.2-9-23.2-13.1l0.4,11.6c0,0-0.5,0-1.4,0
					c-2.4,0.1-5.4,0.3-8.8,0.5c-1.7,0.1-3.5,0.3-5.4,0.4c-1.9,0.1-3.9,0.3-6,0.5c-16.6,1.5-38.6,5.2-60,11.2
					c-10.7,3-21.3,6.5-31,10.2c-9.7,3.7-18.6,7.8-25.9,12.1c-7.3,4.2-12.9,8.4-16.7,11.6c-1.9,1.6-3.3,2.9-4.2,3.8
					c-1,0.9-1.5,1.4-1.5,1.4L240,101.5z"/>
			</g>
		</g>
	</g>
	<g>
		<g>
			<g>
				<path fill="#D6E379" d="M232.5,97.6c0,0,0.1-0.2,0.2-0.7c0.1-0.2,0.1-0.5,0.2-0.8c0.1-0.3,0.2-0.7,0.4-1.1
					c0.6-1.7,1.6-4.2,3.4-7.1c1.8-2.9,4.4-6.2,7.8-9.8c1.7-1.8,3.5-3.6,5.5-5.6c1.9-2,4.1-3.9,6.3-6c2.2-2.1,4.6-4.1,7-6.3
					c1.3-1,2.5-2.1,3.8-3.2c0.6-0.5,1.3-1.1,2-1.6c0.7-0.5,1.4-1.1,2-1.6c5.4-4.4,11.4-8.6,17.7-12.8c12.6-8.4,26.8-16.2,41.7-22.5
					c1.9-0.8,3.7-1.6,5.6-2.3c1.9-0.7,3.8-1.5,5.6-2.2c3.8-1.4,7.5-2.7,11.3-3.9c7.6-2.4,15.1-4.5,22.5-6.1c1.8-0.4,3.7-0.8,5.5-1.2
					c1.8-0.4,3.6-0.7,5.4-1c3.6-0.6,7.1-1.2,10.5-1.6c6.9-1,13.4-1.5,19.5-1.9c12.1-0.7,22.2-0.5,29.3-0.1c0.6,0,1.1,0,1.4,0.1
					c0.2,0,0.3,0,0.3,0l-0.7,11.5c7.5-3.9,15.3-7.5,23.4-10.8c-6.9-5.4-14.2-10.6-21.9-15.4L447.5-5c0,0-0.1,0-0.3,0
					c-0.3,0-0.8,0-1.4-0.1c-7.1-0.4-17.4-0.6-29.6,0.1c-6.1,0.4-12.7,1-19.7,2c-3.5,0.4-7,1.1-10.7,1.7c-1.8,0.3-3.6,0.7-5.5,1.1
					c-1.9,0.3-3.7,0.8-5.6,1.2c-7.5,1.6-15.1,3.7-22.8,6.2c-3.8,1.2-7.7,2.6-11.5,4c-1.9,0.7-3.8,1.5-5.7,2.2
					c-1.9,0.7-3.8,1.6-5.7,2.4c-15,6.4-29.4,14.3-42.2,22.8c-6.4,4.3-12.4,8.6-17.9,13c-0.7,0.5-1.4,1.1-2.1,1.6
					c-0.7,0.6-1.3,1.1-2,1.6c-1.3,1.1-2.6,2.2-3.9,3.2c-2.5,2.2-4.9,4.3-7.1,6.4c-2.2,2.1-4.4,4.1-6.4,6.1c-2,2-3.9,3.8-5.6,5.7
					c-3.4,3.6-6.2,7.1-8.2,10.3c-2,3.1-3.1,5.9-3.7,7.8c-0.3,1-0.5,1.7-0.6,2.2c-0.1,0.5-0.2,0.8-0.2,0.8L232.5,97.6z"/>
			</g>
		</g>
	</g>
	<g>
		<g>
			<g>
				<path fill="#D6E379" d="M412.6,148.8c0,0,1.7,0.6,4.7,1.6c3,1,7.3,2.5,12.4,4.3c10.2,3.7,23.7,9,36.1,16.3
					c6.2,3.6,12,7.8,17.1,12.3c5.1,4.4,9.3,9.1,12.5,13.3c3.3,4.2,5.5,8.1,7,10.8c0.4,0.7,0.6,1.1,0.6,1.1l-10.3,5.2
					c6.8,3.5,13.1,8.7,18.5,15.7c3.4-8,5.2-17.6,5-27.6l-10.3,5.2c0,0-0.2-0.4-0.6-1.1c-1.5-2.9-3.9-6.9-7.2-11.3
					c-3.4-4.4-7.7-9.2-12.9-13.8c-5.2-4.6-11.2-8.9-17.5-12.6c-12.7-7.5-26.4-12.8-36.6-16.6c-5.1-1.9-9.4-3.3-12.5-4.4
					c-3-1-4.7-1.6-4.7-1.6L412.6,148.8z"/>
			</g>
		</g>
	</g>
	<g>
		<g>
			<g>
				<path fill="#D6E379" d="M222.1,173.6c0,0,0.5,1,1.4,3c0.4,1,1,2.2,1.7,3.6c0.3,0.7,0.7,1.5,1.1,2.3c0.4,0.8,0.9,1.6,1.4,2.5
					c1,1.7,2,3.7,3.2,5.8c1.3,2,2.7,4.2,4.2,6.6c0.7,1.2,1.6,2.3,2.4,3.5c0.9,1.2,1.8,2.4,2.7,3.7c0.5,0.6,0.9,1.3,1.4,1.9
					c0.5,0.6,1,1.2,1.5,1.9c1,1.3,2.1,2.6,3.2,3.9c8.8,10.5,20.7,21.3,34.7,30.9c1.7,1.3,3.6,2.4,5.4,3.5c1.8,1.1,3.6,2.4,5.6,3.4
					c1.9,1.1,3.8,2.2,5.8,3.3l1.4,0.8l1.5,0.8c1,0.5,2,1,3,1.5c3.9,2.1,8.1,3.9,12.2,5.8c2.1,0.9,4.2,1.7,6.3,2.5l3.2,1.3l3.2,1.1
					c17.1,6.1,35,9.9,51.8,12.1c16.9,2.1,32.7,2.7,46.3,2.6c13.6-0.1,24.9-1,32.8-1.6c1.1-0.1,1.7-0.1,1.7-0.1l1,11.5
					c7.4-5,14.5-10.3,21.5-15.5c-8.1-3.4-16-6.9-23.8-10.7l1,11.5c0,0-0.6,0.1-1.7,0.1c-7.8,0.6-19.1,1.5-32.5,1.6
					c-13.5,0.1-29.2-0.5-45.9-2.6c-16.7-2.2-34.3-5.9-51.2-12l-3.2-1.1l-3.1-1.2c-2.1-0.8-4.2-1.6-6.2-2.5c-4.1-1.9-8.1-3.6-12-5.7
					c-1-0.5-2-1-2.9-1.5l-1.5-0.7l-1.4-0.8c-1.9-1.1-3.8-2.2-5.7-3.2c-1.9-1.1-3.6-2.3-5.5-3.4c-1.8-1.1-3.6-2.2-5.3-3.5
					c-13.8-9.5-25.5-20.1-34.1-30.4c-1.1-1.3-2.1-2.6-3.1-3.8c-0.5-0.6-1-1.2-1.5-1.8c-0.5-0.6-0.9-1.3-1.4-1.9
					c-0.9-1.2-1.8-2.4-2.6-3.6c-0.8-1.2-1.7-2.3-2.4-3.5c-1.5-2.3-2.8-4.4-4.1-6.4c-1.1-2.1-2.2-4-3.1-5.7c-0.5-0.9-0.9-1.7-1.3-2.4
					c-0.4-0.8-0.7-1.5-1-2.2c-0.6-1.4-1.2-2.5-1.6-3.5c-0.9-1.9-1.3-2.9-1.3-2.9L222.1,173.6z"/>
			</g>
		</g>
	</g>
	<g>
		<g>
			<g>
				<path fill="#D2D2D4" d="M392.9,171.7c0,0,0.4,0.5,1,1.4c0.6,0.9,1.5,2.2,2.3,3.9c1.7,3.4,3.1,8.3,4,13.5
					c0.9,5.1,1.6,10.4,2.3,14.3c0.5,3.5,0.9,5.8,0.9,5.8l-11.4,1.8l16.5,20.5l9.5-24.5l-11.4,1.8c0,0-0.4-2.3-0.9-5.8
					c-0.6-3.9-1.3-9.1-2.3-14.4c-0.9-5.3-2.5-10.5-4.3-14.3c-0.9-1.9-1.9-3.3-2.5-4.3c-0.7-1-1.1-1.5-1.1-1.5L392.9,171.7z"/>
			</g>
		</g>
	</g>
	<g>
		<g>
			<g>
				<path fill="#B7B9DD" d="M354.8,98.9c0,0-0.9-1.2-2.5-3.3c-1.6-2.1-3.9-5.1-6.8-8.6c-5.7-7-13.7-16.1-22.4-24.6l-1.6-1.6
					l-1.7-1.5c-1.1-1-2.2-2.1-3.3-3.1c-2.2-2-4.4-3.9-6.6-5.8c-2.2-1.8-4.3-3.6-6.4-5.2c-2.1-1.6-4-3.1-5.9-4.4
					c-1.9-1.3-3.6-2.5-5.1-3.5c-1.6-1-2.9-1.8-4.1-2.6c-0.7-0.4-1-0.6-1-0.6l6-9.9c-9.4-0.5-18.6-0.2-27.2,1.2
					c5.5,6.8,9.9,14,13.6,21.3l6-9.9c0,0,0.4,0.2,1,0.6c1.1,0.7,2.4,1.5,4,2.5c1.5,1,3.2,2.2,5,3.5c1.8,1.3,3.7,2.8,5.8,4.3
					c2,1.6,4.1,3.3,6.3,5.1c2.1,1.8,4.3,3.7,6.5,5.7c1.1,1,2.2,2,3.2,3l1.6,1.5l1.6,1.6c8.5,8.4,16.5,17.4,22.1,24.4
					c2.8,3.5,5.2,6.4,6.7,8.5c1.6,2.1,2.5,3.3,2.5,3.3L354.8,98.9z"/>
			</g>
		</g>
	</g>
	<g>
		<g>
			<g>
				<path fill="#B7B9DD" d="M358,167.6c0,0-1,1.5-2.6,4.1c-0.8,1.3-1.8,2.9-3.1,4.6c-0.6,0.9-1.3,1.8-2,2.8c-0.7,1-1.4,2-2.3,3
					c-0.8,1-1.7,2.1-2.6,3.2c-0.9,1.1-1.8,2.3-2.8,3.4c-1,1.1-2.1,2.3-3.1,3.4c-0.5,0.6-1.1,1.2-1.6,1.8c-0.6,0.6-1.2,1.1-1.7,1.7
					c-1.2,1.2-2.4,2.3-3.6,3.5c-1.2,1.2-2.5,2.3-3.8,3.4c-2.5,2.4-5.3,4.5-8.1,6.7c-11.1,8.7-23.5,15.5-33.1,19.8
					c-1.2,0.5-2.4,1.1-3.5,1.5c-1.1,0.4-2.2,0.8-3.2,1.2c-2,0.8-3.7,1.5-5.2,2c-0.7,0.2-1.2,0.4-1.2,0.4l-3.7-10.9
					c-1.3,1.6-2.6,3.2-4,4.8c-1.4,1.6-2.8,3-4.3,4.6l-2.2,2.3c-0.8,0.7-1.5,1.5-2.3,2.2c-1.6,1.5-3.2,2.9-4.9,4.4
					c2.1,0.7,4.2,1.4,6.3,2c1.1,0.3,2.1,0.7,3.2,1l3.3,0.8c2.2,0.5,4.4,1.1,6.7,1.6c2.2,0.4,4.5,0.8,6.8,1.2l-3.7-10.9
					c0,0,0.4-0.1,1.2-0.4c1.5-0.5,3.3-1.2,5.3-2c1-0.4,2.1-0.8,3.2-1.3c1.1-0.5,2.3-1,3.5-1.6c9.8-4.3,22.5-11.3,33.8-20.2
					c2.8-2.3,5.6-4.4,8.2-6.9c1.3-1.2,2.6-2.3,3.9-3.5c1.2-1.2,2.4-2.4,3.6-3.6c0.6-0.6,1.2-1.2,1.8-1.8c0.6-0.6,1.1-1.2,1.7-1.8
					c1.1-1.2,2.2-2.4,3.2-3.5c1.1-1.1,2-2.3,2.9-3.4c0.9-1.1,1.8-2.2,2.7-3.3c0.9-1,1.6-2.1,2.3-3.1c0.7-1,1.4-1.9,2.1-2.8
					c1.3-1.7,2.3-3.4,3.2-4.7c1.7-2.6,2.7-4.1,2.7-4.1L358,167.6z"/>
			</g>
		</g>
	</g>
	<g>
		<g>
			<g>
				<path fill="#B7B9DD" d="M214.2,172.7c0,0-0.1,0.4-0.2,1.2c-0.1,0.7-0.3,1.8-0.4,3.1c-0.3,2.5-0.6,6-0.7,9.4
					c-0.1,3.4,0,6.8,0.1,9.4c0.1,1.3,0.1,2.3,0.2,3.1c0.1,0.6,0.1,1,0.1,1l-11.5,1c5.1,8.1,11.1,15.2,17.5,21.1
					c1.9-8.6,4.9-16.5,8.7-23.5l-11.5,1c0,0,0-0.4-0.1-1c-0.1-0.7-0.1-1.8-0.2-3c-0.1-2.5-0.2-5.8-0.1-9.1c0.1-3.3,0.4-6.6,0.7-9.1
					c0.1-1.2,0.3-2.3,0.4-3c0.1-0.7,0.2-1.1,0.2-1.1L214.2,172.7z"/>
			</g>
		</g>
	</g>
	<g>
		<g>
			<g>
				<path fill="#B7B9DD" d="M350.5,164.6c0,0-2.5,1.5-6.9,4.1c-1.1,0.6-2.3,1.4-3.7,2.1c-1.3,0.7-2.8,1.5-4.4,2.3
					c-3.2,1.6-6.7,3.6-10.7,5.4c-15.8,7.7-37.6,16.3-60.1,22.7c-11.2,3.3-22.6,6.1-33.3,8.7c-10.7,2.4-20.8,4.6-29.4,6.2
					c-8.6,1.7-15.9,3-20.9,4c-0.9,0.2-1.4,0.3-1.4,0.3l-2.1-11.4c-6.6,5.7-13.4,11.3-20.1,17c8.2,3,16.5,6,24.8,8.9l-2.1-11.4
					c0,0,0.5-0.1,1.4-0.3c5.1-0.9,12.3-2.2,20.9-4c8.7-1.7,18.7-3.8,29.5-6.3c10.7-2.5,22.2-5.3,33.5-8.7
					c22.7-6.4,44.7-15.1,60.6-22.9c4-1.8,7.6-3.8,10.8-5.5c1.6-0.8,3.1-1.6,4.5-2.4c1.3-0.8,2.6-1.5,3.7-2.2c4.5-2.6,7-4.1,7-4.1
					L350.5,164.6z"/>
			</g>
		</g>
	</g>
	<g>
		<g>
			<g>
				<path fill="#B7B9DD" d="M179.6,153.1c0,0-0.5,0.6-1.4,1.5c-0.4,0.5-1,1.1-1.6,1.7c-0.6,0.7-1.3,1.5-2,2.3
					c-3,3.4-6.7,8.2-10.1,13.2c-3.4,5-6.4,10.2-8.5,14.2c-0.5,1-1,1.9-1.4,2.8c-0.4,0.8-0.7,1.6-1,2.2c-0.3,0.6-0.5,1-0.5,1
					l-10.5-4.8c0.5,9.4,2,18.4,4.1,26.9c6.3-6.2,12.9-11.5,19.8-15.9l-10.5-4.8c0,0,0.2-0.3,0.4-0.9c0.3-0.6,0.6-1.3,1-2.1
					c0.4-0.8,0.9-1.7,1.4-2.7c2-3.9,5-9.1,8.3-13.9c3.3-4.9,7-9.5,9.8-12.9c0.7-0.8,1.4-1.6,2-2.3c0.6-0.7,1.1-1.2,1.6-1.7
					c0.9-0.9,1.4-1.5,1.4-1.5L179.6,153.1z"/>
			</g>
		</g>
	</g>
	<g>
		<g>
			<g>
				<path fill="#B7B9DD" d="M176.2,129.9c0,0-0.5-0.1-1.3-0.2c-0.4-0.1-0.9-0.1-1.5-0.2c-0.6-0.1-1.3-0.1-2-0.2
					c-1.5-0.1-3.1-0.2-5-0.2c-1.8,0-3.7,0-5.6,0.1c-3.8,0.2-7.6,0.6-10.5,0.9c-1.4,0.2-2.6,0.3-3.4,0.5c-0.6,0.1-1,0.2-1,0.2
					l-1.7-11.4c-3.7,2.8-7.3,5.7-10.7,8.7c-0.9,0.8-1.7,1.5-2.5,2.3c-0.8,0.8-1.6,1.6-2.4,2.4c-1.6,1.6-3.2,3.3-4.4,5.2
					c1.1,0.1,2.1,0.2,3.2,0.4c1,0.2,2.1,0.4,3.1,0.7c1,0.2,2,0.6,3,0.9c1,0.3,2,0.6,3,1c4,1.3,7.9,2.8,11.7,4.5l-1.7-11.4
					c0,0,0.4-0.1,1-0.2c0.8-0.1,2-0.3,3.4-0.4c2.8-0.3,6.5-0.7,10.3-0.9c1.9-0.1,3.7-0.1,5.5-0.1c1.7,0.1,3.4,0.1,4.7,0.2
					c0.7,0.1,1.3,0.1,1.9,0.2c0.5,0.1,1,0.1,1.4,0.2c0.8,0.1,1.2,0.2,1.2,0.2L176.2,129.9z"/>
			</g>
		</g>
	</g>
	<g>
		<g>
			<g>
				<path fill="#B7B9DD" d="M350.9,164c0,0-3.3,0.9-9.2,2.5c-5.8,1.6-14.2,3.8-24.3,6.2c-10.1,2.4-21.9,4.9-34.7,6.9
					c-12.8,2-26.6,3.6-40.3,3.8c-13.8,0-27.6-1.1-40.4-2.7c-12.9-1.6-24.8-3.7-34.9-5.9c-2.5-0.5-4.9-1.1-7.2-1.6
					c-2.3-0.5-4.5-1.1-6.5-1.6c-2-0.5-3.9-1-5.7-1.5c-1.7-0.5-3.3-1-4.8-1.4c-0.9-0.3-1.5-0.4-1.5-0.4l3.5-11
					c-8.1,2-16.4,3.7-25.1,4.2c4.9,7.3,10.9,14.2,17.2,20.9l3.5-11c0,0,0.5,0.2,1.5,0.4c1.5,0.4,3.1,0.9,4.8,1.4
					c1.8,0.5,3.7,1,5.7,1.5c2.1,0.5,4.2,1.1,6.6,1.6c2.3,0.5,4.7,1.1,7.3,1.7c10.2,2.2,22.2,4.3,35.2,5.9c13,1.6,26.8,2.7,40.8,2.7
					c14-0.2,27.9-1.8,40.8-3.8c12.9-2,24.8-4.6,35-7c10.1-2.4,18.5-4.6,24.4-6.2c5.9-1.6,9.2-2.5,9.2-2.5L350.9,164z"/>
			</g>
		</g>
	</g>
	<g>
		<g>
			<g>
				<path fill="#B7B9DD" d="M188.3,105.7c0,0-2-1.8-5-4.3c-3-2.5-7.1-5.8-11.1-9.1c-4-3.3-8-6.7-10.9-9.3c-1.5-1.3-2.6-2.4-3.5-3.2
					c-0.5-0.4-0.8-0.7-0.8-0.7l8-8.4c-4-0.8-8.1-1.8-12-2.9c-2-0.6-3.9-1.3-5.8-2c-1.9-0.8-3.8-1.7-5.5-3.1
					c-0.3,2.2-0.2,4.5,0.1,6.8c0.3,2.3,0.7,4.6,1.2,6.9c1.1,4.6,2.4,9,3.9,13.4l8-8.4c0,0,0.3,0.3,0.8,0.7c0.8,0.8,2.1,1.9,3.5,3.2
					c2.9,2.6,6.9,6.1,11,9.4c4.1,3.3,8.1,6.6,11.1,9.1c3,2.5,4.9,4.2,4.9,4.2L188.3,105.7z"/>
			</g>
		</g>
	</g>
	<g>
		<g>
			<g>
				<path fill="#B7B9DD" d="M352.2,101.2c0,0-2.6-1.6-7.1-4.3c-4.5-2.7-11-6.6-18.9-10.9c-8-4.3-17.4-9.1-28-13.2
					c-2.6-1.1-5.4-2-8.1-3c-2.8-0.8-5.6-1.8-8.5-2.5c-5.8-1.6-11.8-2.7-17.8-3.5l-4.5-0.5c-1.5-0.1-3-0.3-4.5-0.4
					c-3-0.3-5.9-0.6-8.9-0.9c-5.9-0.6-11.7-1.2-17.3-1.8c-11.2-1.2-21.7-2.4-30.6-3.4c-13.9-1.5-23.1-2.5-23.1-2.5l1.2-11.5
					c-8,3.5-16.1,7.1-24.1,10.8c7.2,5,14.2,10.2,21.3,15.3l1.2-11.5c0,0,9.2,1,23.1,2.5c9,1,19.4,2.2,30.6,3.4
					c5.6,0.6,11.4,1.2,17.3,1.8c2.9,0.3,5.9,0.6,8.9,0.9c1.5,0.1,3,0.3,4.5,0.4l4.4,0.5c5.9,0.8,11.7,1.9,17.4,3.4
					c2.8,0.7,5.6,1.7,8.3,2.5c2.7,1,5.4,1.8,8,2.9c10.4,4,19.8,8.7,27.7,13c7.9,4.3,14.3,8.1,18.8,10.8c4.5,2.7,7.1,4.3,7.1,4.3
					L352.2,101.2z"/>
			</g>
		</g>
	</g>
	<g>
		<g>
			<g>
				<path fill="#D6E379" d="M383.8,177.6c0,0,0.2,0.8,0.5,2.1c0.1,0.7,0.3,1.5,0.5,2.4c0.2,0.9,0.4,2,0.6,3.1
					c0.8,4.6,1.6,10.8,1.8,17.1c0.3,6.2,0,12.5-0.5,17.1c-0.2,2.3-0.5,4.3-0.7,5.6c-0.1,0.7-0.1,1-0.1,1l-11.4-1.8
					c3.3,7.4,5.9,15.5,7.5,24.1c6.6-5.7,12.8-12.5,18.5-20.1l-11.4-1.8c0,0,0.1-0.4,0.1-1.1c0.2-1.4,0.5-3.4,0.7-5.8
					c0.5-4.8,0.8-11.2,0.5-17.6c-0.2-6.4-1-12.8-1.9-17.5c-0.2-1.2-0.4-2.3-0.6-3.2c-0.2-1-0.4-1.8-0.5-2.5
					c-0.3-1.4-0.5-2.1-0.5-2.1L383.8,177.6z"/>
			</g>
		</g>
	</g>
	<g>
		<g>
			<g>
				<path fill="#D6E379" d="M231.6,168.6c0,0,1.3,1.5,3.7,4c1.2,1.2,2.6,2.7,4.2,4.4c1.5,1.8,3.3,3.8,5.2,6
					c7.6,8.8,17.8,20.5,28.8,31.4c5.5,5.5,11.2,10.8,16.8,15.5c2.8,2.4,5.6,4.6,8.2,6.6c2.7,2,5.2,3.9,7.6,5.6
					c4.8,3.3,8.9,6,11.7,7.8c0.7,0.4,1.1,0.7,1.1,0.7l-6.2,9.8c8.9,0.5,17.7,0.7,26.5,0.9c-4.2-7.7-8.5-15.4-12.3-23l-6.2,9.8
					c0,0-0.4-0.2-1.1-0.7c-2.8-1.8-6.9-4.5-11.6-7.8c-2.4-1.7-4.9-3.5-7.5-5.5c-2.6-2-5.3-4.2-8.1-6.5c-5.5-4.6-11.2-9.9-16.6-15.3
					c-10.9-10.9-21.1-22.5-28.7-31.3c-1.9-2.2-3.7-4.2-5.2-6c-1.6-1.8-3-3.3-4.2-4.5c-2.3-2.4-3.5-3.9-3.5-3.9L231.6,168.6z"/>
			</g>
		</g>
	</g>
	<g>
		<g>
			<g>
				<path fill="#B7B9DD" d="M221.5,93.1c-0.3-3.7-0.3-7.6-0.2-11.4c0.1-3.9,0.3-7.7,0.6-11.6l0.1-0.9l11.5,0.9c0,0-2.9-5.7-5.5-11.6
					c-1.3-2.9-2.6-5.9-3.5-8.2c-0.4-1.1-0.8-2.1-1-2.8c-0.2-0.7-0.4-1.1-0.4-1.1s-0.3,0.3-0.7,0.8c-0.5,0.5-1.2,1.3-1.9,2.3
					c-1.6,2-3.6,4.6-5.6,7.4c-3.9,5.4-7.6,11.1-7.6,11.1l11.5,0.9l-0.1,0.9c-0.3,3.9-0.5,7.8-0.6,11.7c-0.1,3.9-0.1,7.8,0.2,11.9
					L221.5,93.1z"/>
			</g>
		</g>
	</g>
</g>
<g id="Layer_1">
	
		<circle opacity="0.14" stroke="#000000" stroke-width="6" stroke-miterlimit="10" enable-background="new    " cx="236.6" cy="10.9" r="37"/>
	
		<circle opacity="0.14" stroke="#000000" stroke-width="6" stroke-miterlimit="10" enable-background="new    " cx="443.2" cy="259.4" r="37"/>
	
		<circle opacity="0.14" stroke="#000000" stroke-width="6" stroke-miterlimit="10" enable-background="new    " cx="471.9" cy="46.4" r="37"/>
	
		<circle opacity="0.14" stroke="#000000" stroke-width="6" stroke-miterlimit="10" enable-background="new    " cx="359.6" cy="3.4" r="37"/>
	
		<circle opacity="0.14" stroke="#000000" stroke-width="6" stroke-miterlimit="10" enable-background="new    " cx="511.6" cy="22.4" r="37"/>
	
		<circle opacity="0.14" stroke="#000000" stroke-width="6" stroke-miterlimit="10" enable-background="new    " cx="450.6" cy="213.7" r="37"/>
	
		<circle opacity="0.14" stroke="#000000" stroke-width="6" stroke-miterlimit="10" enable-background="new    " cx="132.1" cy="31.5" r="37"/>
	
		<circle opacity="0.14" stroke="#000000" stroke-width="6" stroke-miterlimit="10" enable-background="new    " cx="92.5" cy="146.5" r="37"/>
	
		<circle opacity="0.14" stroke="#000000" stroke-width="6" stroke-miterlimit="10" enable-background="new    " cx="139.1" cy="249.8" r="37"/>
	
		<circle opacity="0.14" stroke="#000000" stroke-width="6" stroke-miterlimit="10" enable-background="new    " cx="227.4" cy="259.6" r="37"/>
	
		<circle opacity="0.14" stroke="#000000" stroke-width="6" stroke-miterlimit="10" enable-background="new    " cx="220" cy="135.7" r="39.1"/>
	<circle fill="#3B4D81" stroke="#808285" stroke-width="6" stroke-miterlimit="10" cx="216.1" cy="133.2" r="39.1"/>
	
		<circle opacity="0.14" stroke="#000000" stroke-width="6" stroke-miterlimit="10" enable-background="new    " cx="378.8" cy="137.9" r="38.8"/>
	<circle fill="#FFD105" stroke="#808285" stroke-width="6" stroke-miterlimit="10" cx="375" cy="135.5" r="38.8"/>
	
		<circle opacity="0.14" stroke="#000000" stroke-width="6" stroke-miterlimit="10" enable-background="new    " cx="378.9" cy="285.1" r="37"/>
	<circle fill="#FFF0D6" stroke="#B8BABC" stroke-width="6" stroke-miterlimit="10" cx="369.3" cy="284.7" r="37"/>
	<g>
		<path fill="none" stroke="#95979A" stroke-miterlimit="10" d="M391.7,257.7"/>
	</g>
	<g>
		<path fill="none" stroke="#95979A" stroke-miterlimit="10" d="M379.9,126"/>
	</g>
	<g opacity="0.49">
		<path fill="none" stroke="#95979A" stroke-miterlimit="10" d="M385.8,259.3"/>
	</g>
	<g opacity="0.49">
		<path fill="none" stroke="#95979A" stroke-miterlimit="10" d="M382.5,262.5"/>
	</g>
	<g>
		<g>
			<g>
				<path fill="#808082" d="M247.9,110.9c0,0,0.3-0.1,0.7-0.4c0.5-0.3,1.2-0.7,2.1-1.2c1.9-1,4.6-2.2,8-3.3
					c6.8-2.4,16.5-4.1,26.2-4.4c9.7-0.3,19.5,0.8,26.6,2.3c3.6,0.7,6.5,1.6,8.5,2.2c0.7,0.2,1.1,0.3,1.1,0.3l-3.6,11
					c7.5-2.1,15.6-3.4,24.3-2.2c-1.6-4.1-3.9-8.1-6.7-11.9c-2.8-3.8-5.9-7.5-9.4-10.9l-3.6,11c0,0-0.4-0.1-1.1-0.4
					c-2.1-0.6-5.1-1.5-8.8-2.3C305,99.2,295,98,285,98.4c-10,0.3-20,2.1-27.1,4.6c-3.6,1.2-6.5,2.5-8.5,3.5c-1,0.5-1.7,1-2.3,1.2
					c-0.5,0.3-0.8,0.4-0.8,0.4L247.9,110.9z"/>
			</g>
		</g>
	</g>
	
		<circle opacity="0.14" stroke="#000000" stroke-width="6" stroke-miterlimit="10" enable-background="new    " cx="528.1" cy="146.3" r="37"/>
	<circle fill="#E9E9F5" stroke="#B8BABC" stroke-width="6" stroke-miterlimit="10" cx="518.5" cy="146" r="37"/>
	<g>
		<path fill="none" stroke="#95979A" stroke-miterlimit="10" d="M481.5,185.7"/>
	</g>
	<g opacity="0.49">
		<path fill="none" stroke="#95979A" stroke-miterlimit="10" d="M475.5,187.2"/>
	</g>
	<g opacity="0.49">
		<path fill="none" stroke="#95979A" stroke-miterlimit="10" d="M472.2,190.4"/>
	</g>
	<circle fill="#F6F7D4" stroke="#B8BABC" stroke-width="6" stroke-miterlimit="10" cx="433.6" cy="259.1" r="37"/>
	<circle fill="#EBF5E6" stroke="#B8BABC" stroke-width="6" stroke-miterlimit="10" cx="462.2" cy="46.1" r="37"/>
	<circle fill="#FDE9F2" stroke="#B8BABC" stroke-width="6" stroke-miterlimit="10" cx="502" cy="22.1" r="37"/>
	
		<circle opacity="0.14" stroke="#000000" stroke-width="6" stroke-miterlimit="10" enable-background="new    " cx="531.5" cy="269.2" r="37"/>
	<circle fill="#F6F7D4" stroke="#B8BABC" stroke-width="6" stroke-miterlimit="10" cx="521.8" cy="268.9" r="37"/>
	<circle fill="#FAF3F8" stroke="#B8BABC" stroke-width="6" stroke-miterlimit="10" cx="441" cy="213.4" r="37"/>
	<circle fill="#F6F7D4" stroke="#B8BABC" stroke-width="6" stroke-miterlimit="10" cx="122.5" cy="31.1" r="37"/>
	<circle fill="#F6F7D4" stroke="#B8BABC" stroke-width="6" stroke-miterlimit="10" cx="231" cy="7.1" r="37"/>
	<circle fill="#E9E9F5" stroke="#B8BABC" stroke-width="6" stroke-miterlimit="10" cx="82.8" cy="146.1" r="37"/>
	<circle fill="#F6F7D4" stroke="#B8BABC" stroke-width="6" stroke-miterlimit="10" cx="129.5" cy="249.5" r="37"/>
	<circle fill="#F6F7D4" stroke="#B8BABC" stroke-width="6" stroke-miterlimit="10" cx="217.7" cy="259.3" r="37"/>
	<circle fill="#F6F7D4" stroke="#B8BABC" stroke-width="6" stroke-miterlimit="10" cx="350" cy="3.1" r="37"/>
	<g>
		<g>
			<g>
				<path fill="#808082" d="M343.1,156.2c0,0-0.3,0.1-0.7,0.4c-0.5,0.3-1.2,0.7-2.1,1.2c-1.9,1-4.6,2.2-8,3.3
					c-6.8,2.4-16.5,4.1-26.2,4.4c-9.7,0.3-19.5-0.8-26.6-2.3c-3.6-0.7-6.5-1.6-8.5-2.2c-0.7-0.2-1.1-0.3-1.1-0.3l3.6-11
					c-7.5,2.1-15.6,3.4-24.3,2.2c1.6,4.1,3.9,8.1,6.7,11.9c2.8,3.8,5.9,7.5,9.4,10.9l3.6-11c0,0,0.4,0.1,1.1,0.4
					c2.1,0.6,5.1,1.5,8.8,2.3c7.3,1.6,17.3,2.7,27.4,2.4c10-0.3,20-2.1,27.1-4.6c3.6-1.2,6.5-2.5,8.5-3.5c1-0.5,1.7-1,2.3-1.2
					c0.5-0.3,0.8-0.4,0.8-0.4L343.1,156.2z"/>
			</g>
		</g>
	</g>
</g>
</svg>
