<svg xmlns="http://www.w3.org/2000/svg" viewBox="0 -44.1 595.3 380.5"><path fill="#D6E379" d="M405.1 164.3l.7 1 .5.7-9.5 6.6c6 2.1 12.1 5.7 17.5 10.6l.1.2c.8.3 1.7 1.2 2 2.4.9-.9 1.5-2.3 1.4-4l.1.2c1.6-7.5 1.9-15.8.5-24.4l-9.5 6.5-.5-.8-.8-1.1-2.5 2.1zM237.5 165.8s.4.5 1 1.5c.3.5.7 1.1 1.2 1.8s1.1 1.5 1.8 2.4c2.8 3.5 7.1 8.2 13 13 3 2.3 6.3 4.8 10 7 3.7 2.3 7.7 4.5 12.1 6.4 4.3 2 8.9 3.7 13.6 5.2 1.2.3 2.4.7 3.6 1l3.6.9c1.2.3 2.4.6 3.7.9l3.7.8c9.8 2 19.8 3.3 29.2 3.8 9.4.6 18.2.4 25.7-.1s13.8-1.3 18.1-2c.9-.1 1.4-.2 1.4-.2l1.9 11.4c7.3-5.6 14-11.6 20.1-17.9-8.5-2.2-16.6-4.9-24.4-8.1l1.9 11.4s-.5.1-1.3.2c-4.3.7-10.4 1.5-17.8 2s-16.1.7-25.3.1c-9.3-.5-19.1-1.8-28.8-3.8l-3.6-.8-3.6-.9-3.6-.9c-1.2-.3-2.3-.7-3.5-1-4.6-1.4-9.1-3.2-13.3-5.1-4.2-1.9-8.1-4-11.7-6.2-3.6-2.2-6.8-4.5-9.7-6.8-5.7-4.6-9.9-9.1-12.5-12.5-.6-.8-1.2-1.6-1.7-2.3-.5-.7-.9-1.3-1.2-1.7-.6-.9-1-1.4-1-1.4l-2.6 1.9zM415.8 133.2s.8-.1 2.2-.2c1.4-.1 3.4-.3 5.7-.4 4.7-.3 11.1-.5 17.4-.4 6.3.1 12.7.6 17.4 1.1 2.4.2 4.3.5 5.7.7.7.1 1 .1 1 .1l-1.6 11.5c7.6-3.4 15.7-6.3 24.1-8.8-6.3-6.1-13.2-11.9-20.6-17.3l-1.6 11.5s-.4 0-1.1-.1c-1.4-.2-3.4-.4-5.8-.7-4.8-.5-11.2-1-17.6-1.1-6.4-.1-12.9.1-17.7.4-2.4.2-4.4.3-5.8.4-1.4.1-2.2.2-2.2.2l.5 3.1z"/><path fill="#D6E379" d="M244.9 103.1s3.6-.9 9.9-2.6c3.2-.8 7-1.7 11.4-2.8 4.4-1 9.4-2.3 14.8-3.4 10.9-2.4 23.6-4.9 37.4-6.5 13.8-1.6 28.6-2.5 43.4-1.8 14.8.5 29.5 2.3 43.3 4.5 6.9 1.1 13.5 2.4 19.7 3.7 6.2 1.4 12 3 17.3 4.6 10.6 3.3 19 7.1 24.6 10.1.5.3.9.5 1.2.6.1.1.2.1.2.1l-5.5 10.2c8-.6 16.4-.3 25 1.3-2.9-8.3-7.2-16.5-12.5-24.4l-5.5 10.2s-.1 0-.2-.1c-.3-.1-.7-.4-1.2-.6-5.8-3.1-14.4-6.9-25.2-10.3-5.4-1.7-11.3-3.3-17.5-4.7-6.3-1.4-12.9-2.7-19.8-3.8-13.8-2.2-28.7-4-43.6-4.5-15-.6-29.9.2-43.9 1.9-13.9 1.7-26.8 4.2-37.7 6.6-5.5 1.2-10.4 2.4-14.9 3.4-4.4 1.1-8.2 2.1-11.4 2.9-6.3 1.6-9.9 2.6-9.9 2.6l.6 2.8z"/><path fill="#D6E379" d="M380.9 93.6l.3-1.5c.2-1 .5-2.3.7-4 .5-3.3 1.1-7.8 1.3-12.2.2-4.5.1-8.9-.1-12.3-.1-1.7-.2-3.1-.3-4-.1-.7-.1-1-.1-1l11.5-1.2c-5.3-8-11.4-15-17.9-20.8-1.8 8.6-4.6 16.5-8.3 23.6l11.5-1.2s0 .4.1 1c.1.9.2 2.3.3 3.9.2 3.3.3 7.6.1 11.9-.2 4.3-.7 8.7-1.3 11.9-.2 1.6-.5 2.9-.7 3.9-.2.9-.3 1.5-.3 1.5l3.2.5zM237.5 98s.8-1.1 2.3-3c1.4-1.9 3.6-4.6 6.3-7.7 5.3-6.3 13-14.2 21.3-21.3 8.3-7.2 17.3-13.5 24.3-17.9 3.5-2.1 6.5-3.9 8.6-5 .6-.4 1-.6 1-.6l5.6 10.1c4.1-7.2 8.8-14.4 14.2-21.3-8.7-1.2-17.7-1.8-26.9-1.7l5.6 10.1s-.4.2-1 .6c-2.2 1.1-5.1 2.9-8.7 5.1-7.1 4.4-16.2 10.9-24.6 18.2-8.5 7.2-16.2 15.3-21.7 21.6-2.7 3.2-4.9 5.9-6.4 7.8-1.5 1.9-2.3 3-2.3 3l2.4 2zM410.5 121.1s.3-.4.8-1.1c.5-.7 1.2-1.7 2-2.9 1.6-2.4 3.7-5.6 5.7-8.8 2-3.3 3.9-6.6 5.2-9.1 1.3-2.4 2.1-4 2.1-4l10.3 5.3c-.2-9.2-1-18.1-2.4-26.8-6.8 5.5-13.9 10.4-21 14.8l10.3 5.3s-.8 1.6-2.1 3.9c-1.3 2.5-3.2 5.8-5.2 9s-4 6.4-5.6 8.7c-.8 1.2-1.5 2.1-1.9 2.8-.5.7-.7 1.1-.7 1.1l2.5 1.8zM413.4 136s1.4-.5 3.9-1.5c2.5-.9 6-2.5 10.1-4.3 8.3-3.8 18.9-9.8 28.7-16.9 2.5-1.7 4.8-3.7 7.2-5.5 2.3-1.9 4.5-3.8 6.7-5.6 2.1-1.9 4.2-3.7 6-5.6 1.8-1.9 3.6-3.5 5.2-5.2 1.5-1.7 3-3.2 4.2-4.6 1.2-1.4 2.2-2.6 3.1-3.6.5-.6.8-.9.8-.9l8.9 7.4c1.8-9.1 2.8-18.1 3.1-26.8-7.8 4.1-15.6 7.5-23.5 10.1l8.9 7.4s-.3.3-.8.9c-.8 1-1.9 2.2-3 3.6-1.2 1.3-2.6 2.8-4.1 4.5-1.5 1.7-3.3 3.3-5.1 5.1-1.8 1.8-3.9 3.6-5.9 5.5-2.1 1.8-4.3 3.7-6.6 5.5-2.3 1.8-4.6 3.7-7.1 5.4-9.6 7-20.1 12.9-28.2 16.6-4.1 1.8-7.5 3.3-9.9 4.2-2.4.9-3.8 1.5-3.8 1.5l1.2 2.8z"/><path fill="#D6E379" d="M240 101.5l1.4-1.4c.9-.9 2.3-2.1 4.1-3.7 3.6-3.1 9.1-7.2 16.2-11.3 14.2-8.3 35-16 56.2-21.9 21.2-5.9 43.1-9.6 59.5-11.1 2.1-.2 4-.4 5.9-.5 1.9-.1 3.7-.3 5.3-.4 3.4-.2 6.3-.4 8.7-.4h1.4l.4 11.6c7.1-4.7 14.6-9 22.3-13.2-7.5-4.5-15.2-9-23.2-13.1l.4 11.6h-1.4c-2.4.1-5.4.3-8.8.5-1.7.1-3.5.3-5.4.4-1.9.1-3.9.3-6 .5-16.6 1.5-38.6 5.2-60 11.2-10.7 3-21.3 6.5-31 10.2-9.7 3.7-18.6 7.8-25.9 12.1-7.3 4.2-12.9 8.4-16.7 11.6-1.9 1.6-3.3 2.9-4.2 3.8-1 .9-1.5 1.4-1.5 1.4l2.3 2.1z"/><path fill="#D6E379" d="M232.5 97.6s.1-.2.2-.7c.1-.2.1-.5.2-.8.1-.3.2-.7.4-1.1.6-1.7 1.6-4.2 3.4-7.1 1.8-2.9 4.4-6.2 7.8-9.8 1.7-1.8 3.5-3.6 5.5-5.6 1.9-2 4.1-3.9 6.3-6s4.6-4.1 7-6.3c1.3-1 2.5-2.1 3.8-3.2.6-.5 1.3-1.1 2-1.6s1.4-1.1 2-1.6c5.4-4.4 11.4-8.6 17.7-12.8 12.6-8.4 26.8-16.2 41.7-22.5 1.9-.8 3.7-1.6 5.6-2.3 1.9-.7 3.8-1.5 5.6-2.2 3.8-1.4 7.5-2.7 11.3-3.9 7.6-2.4 15.1-4.5 22.5-6.1 1.8-.4 3.7-.8 5.5-1.2 1.8-.4 3.6-.7 5.4-1 3.6-.6 7.1-1.2 10.5-1.6 6.9-1 13.4-1.5 19.5-1.9 12.1-.7 22.2-.5 29.3-.1.6 0 1.1 0 1.4.1h.3l-.7 11.5C454.2 5.9 462 2.3 470.1-1c-6.9-5.4-14.2-10.6-21.9-15.4L447.5-5h-.3c-.3 0-.8 0-1.4-.1-7.1-.4-17.4-.6-29.6.1-6.1.4-12.7 1-19.7 2-3.5.4-7 1.1-10.7 1.7-1.8.3-3.6.7-5.5 1.1-1.9.3-3.7.8-5.6 1.2-7.5 1.6-15.1 3.7-22.8 6.2-3.8 1.2-7.7 2.6-11.5 4-1.9.7-3.8 1.5-5.7 2.2-1.9.7-3.8 1.6-5.7 2.4-15 6.4-29.4 14.3-42.2 22.8-6.4 4.3-12.4 8.6-17.9 13-.7.5-1.4 1.1-2.1 1.6-.7.6-1.3 1.1-2 1.6-1.3 1.1-2.6 2.2-3.9 3.2-2.5 2.2-4.9 4.3-7.1 6.4-2.2 2.1-4.4 4.1-6.4 6.1s-3.9 3.8-5.6 5.7c-3.4 3.6-6.2 7.1-8.2 10.3-2 3.1-3.1 5.9-3.7 7.8-.3 1-.5 1.7-.6 2.2-.1.5-.2.8-.2.8l3.4.3zM412.6 148.8s1.7.6 4.7 1.6 7.3 2.5 12.4 4.3c10.2 3.7 23.7 9 36.1 16.3 6.2 3.6 12 7.8 17.1 12.3 5.1 4.4 9.3 9.1 12.5 13.3 3.3 4.2 5.5 8.1 7 10.8.4.7.6 1.1.6 1.1l-10.3 5.2c6.8 3.5 13.1 8.7 18.5 15.7 3.4-8 5.2-17.6 5-27.6l-10.3 5.2s-.2-.4-.6-1.1c-1.5-2.9-3.9-6.9-7.2-11.3-3.4-4.4-7.7-9.2-12.9-13.8-5.2-4.6-11.2-8.9-17.5-12.6-12.7-7.5-26.4-12.8-36.6-16.6-5.1-1.9-9.4-3.3-12.5-4.4-3-1-4.7-1.6-4.7-1.6l-1.3 3.2zM222.1 173.6s.5 1 1.4 3c.4 1 1 2.2 1.7 3.6.3.7.7 1.5 1.1 2.3.4.8.9 1.6 1.4 2.5 1 1.7 2 3.7 3.2 5.8 1.3 2 2.7 4.2 4.2 6.6.7 1.2 1.6 2.3 2.4 3.5.9 1.2 1.8 2.4 2.7 3.7.5.6.9 1.3 1.4 1.9.5.6 1 1.2 1.5 1.9 1 1.3 2.1 2.6 3.2 3.9 8.8 10.5 20.7 21.3 34.7 30.9 1.7 1.3 3.6 2.4 5.4 3.5 1.8 1.1 3.6 2.4 5.6 3.4 1.9 1.1 3.8 2.2 5.8 3.3l1.4.8 1.5.8 3 1.5c3.9 2.1 8.1 3.9 12.2 5.8 2.1.9 4.2 1.7 6.3 2.5l3.2 1.3 3.2 1.1c17.1 6.1 35 9.9 51.8 12.1 16.9 2.1 32.7 2.7 46.3 2.6 13.6-.1 24.9-1 32.8-1.6 1.1-.1 1.7-.1 1.7-.1l1 11.5c7.4-5 14.5-10.3 21.5-15.5-8.1-3.4-16-6.9-23.8-10.7l1 11.5s-.6.1-1.7.1c-7.8.6-19.1 1.5-32.5 1.6-13.5.1-29.2-.5-45.9-2.6-16.7-2.2-34.3-5.9-51.2-12l-3.2-1.1-3.1-1.2c-2.1-.8-4.2-1.6-6.2-2.5-4.1-1.9-8.1-3.6-12-5.7-1-.5-2-1-2.9-1.5l-1.5-.7-1.4-.8c-1.9-1.1-3.8-2.2-5.7-3.2-1.9-1.1-3.6-2.3-5.5-3.4-1.8-1.1-3.6-2.2-5.3-3.5-13.8-9.5-25.5-20.1-34.1-30.4-1.1-1.3-2.1-2.6-3.1-3.8l-1.5-1.8c-.5-.6-.9-1.3-1.4-1.9-.9-1.2-1.8-2.4-2.6-3.6-.8-1.2-1.7-2.3-2.4-3.5-1.5-2.3-2.8-4.4-4.1-6.4-1.1-2.1-2.2-4-3.1-5.7-.5-.9-.9-1.7-1.3-2.4-.4-.8-.7-1.5-1-2.2-.6-1.4-1.2-2.5-1.6-3.5-.9-1.9-1.3-2.9-1.3-2.9l-3.2 1.2z"/><path fill="#D2D2D4" d="M392.9 171.7s.4.5 1 1.4c.6.9 1.5 2.2 2.3 3.9 1.7 3.4 3.1 8.3 4 13.5.9 5.1 1.6 10.4 2.3 14.3.5 3.5.9 5.8.9 5.8l-11.4 1.8 16.5 20.5 9.5-24.5-11.4 1.8s-.4-2.3-.9-5.8c-.6-3.9-1.3-9.1-2.3-14.4-.9-5.3-2.5-10.5-4.3-14.3-.9-1.9-1.9-3.3-2.5-4.3-.7-1-1.1-1.5-1.1-1.5l-2.6 1.8z"/><path fill="#B7B9DD" d="M354.8 98.9s-.9-1.2-2.5-3.3c-1.6-2.1-3.9-5.1-6.8-8.6-5.7-7-13.7-16.1-22.4-24.6l-1.6-1.6-1.7-1.5c-1.1-1-2.2-2.1-3.3-3.1-2.2-2-4.4-3.9-6.6-5.8-2.2-1.8-4.3-3.6-6.4-5.2-2.1-1.6-4-3.1-5.9-4.4-1.9-1.3-3.6-2.5-5.1-3.5-1.6-1-2.9-1.8-4.1-2.6-.7-.4-1-.6-1-.6l6-9.9c-9.4-.5-18.6-.2-27.2 1.2 5.5 6.8 9.9 14 13.6 21.3l6-9.9s.4.2 1 .6c1.1.7 2.4 1.5 4 2.5 1.5 1 3.2 2.2 5 3.5 1.8 1.3 3.7 2.8 5.8 4.3 2 1.6 4.1 3.3 6.3 5.1 2.1 1.8 4.3 3.7 6.5 5.7 1.1 1 2.2 2 3.2 3l1.6 1.5 1.6 1.6C329.3 73 337.3 82 342.9 89c2.8 3.5 5.2 6.4 6.7 8.5 1.6 2.1 2.5 3.3 2.5 3.3l2.7-1.9zM358 167.6s-1 1.5-2.6 4.1c-.8 1.3-1.8 2.9-3.1 4.6-.6.9-1.3 1.8-2 2.8-.7 1-1.4 2-2.3 3-.8 1-1.7 2.1-2.6 3.2-.9 1.1-1.8 2.3-2.8 3.4-1 1.1-2.1 2.3-3.1 3.4-.5.6-1.1 1.2-1.6 1.8-.6.6-1.2 1.1-1.7 1.7-1.2 1.2-2.4 2.3-3.6 3.5-1.2 1.2-2.5 2.3-3.8 3.4-2.5 2.4-5.3 4.5-8.1 6.7-11.1 8.7-23.5 15.5-33.1 19.8-1.2.5-2.4 1.1-3.5 1.5-1.1.4-2.2.8-3.2 1.2-2 .8-3.7 1.5-5.2 2-.7.2-1.2.4-1.2.4l-3.7-10.9c-1.3 1.6-2.6 3.2-4 4.8-1.4 1.6-2.8 3-4.3 4.6l-2.2 2.3c-.8.7-1.5 1.5-2.3 2.2-1.6 1.5-3.2 2.9-4.9 4.4 2.1.7 4.2 1.4 6.3 2 1.1.3 2.1.7 3.2 1l3.3.8c2.2.5 4.4 1.1 6.7 1.6 2.2.4 4.5.8 6.8 1.2l-3.7-10.9s.4-.1 1.2-.4c1.5-.5 3.3-1.2 5.3-2 1-.4 2.1-.8 3.2-1.3s2.3-1 3.5-1.6c9.8-4.3 22.5-11.3 33.8-20.2 2.8-2.3 5.6-4.4 8.2-6.9 1.3-1.2 2.6-2.3 3.9-3.5l3.6-3.6 1.8-1.8c.6-.6 1.1-1.2 1.7-1.8 1.1-1.2 2.2-2.4 3.2-3.5 1.1-1.1 2-2.3 2.9-3.4l2.7-3.3c.9-1 1.6-2.1 2.3-3.1.7-1 1.4-1.9 2.1-2.8 1.3-1.7 2.3-3.4 3.2-4.7 1.7-2.6 2.7-4.1 2.7-4.1l-3-1.6zM214.2 172.7s-.1.4-.2 1.2c-.1.7-.3 1.8-.4 3.1-.3 2.5-.6 6-.7 9.4-.1 3.4 0 6.8.1 9.4.1 1.3.1 2.3.2 3.1.1.6.1 1 .1 1l-11.5 1c5.1 8.1 11.1 15.2 17.5 21.1 1.9-8.6 4.9-16.5 8.7-23.5l-11.5 1s0-.4-.1-1c-.1-.7-.1-1.8-.2-3-.1-2.5-.2-5.8-.1-9.1s.4-6.6.7-9.1c.1-1.2.3-2.3.4-3 .1-.7.2-1.1.2-1.1l-3.2-.5z"/><path fill="#B7B9DD" d="M350.5 164.6s-2.5 1.5-6.9 4.1c-1.1.6-2.3 1.4-3.7 2.1-1.3.7-2.8 1.5-4.4 2.3-3.2 1.6-6.7 3.6-10.7 5.4-15.8 7.7-37.6 16.3-60.1 22.7-11.2 3.3-22.6 6.1-33.3 8.7-10.7 2.4-20.8 4.6-29.4 6.2-8.6 1.7-15.9 3-20.9 4-.9.2-1.4.3-1.4.3l-2.1-11.4c-6.6 5.7-13.4 11.3-20.1 17 8.2 3 16.5 6 24.8 8.9l-2.1-11.4s.5-.1 1.4-.3c5.1-.9 12.3-2.2 20.9-4 8.7-1.7 18.7-3.8 29.5-6.3 10.7-2.5 22.2-5.3 33.5-8.7 22.7-6.4 44.7-15.1 60.6-22.9 4-1.8 7.6-3.8 10.8-5.5 1.6-.8 3.1-1.6 4.5-2.4 1.3-.8 2.6-1.5 3.7-2.2 4.5-2.6 7-4.1 7-4.1l-1.6-2.5zM179.6 153.1s-.5.6-1.4 1.5c-.4.5-1 1.1-1.6 1.7-.6.7-1.3 1.5-2 2.3-3 3.4-6.7 8.2-10.1 13.2-3.4 5-6.4 10.2-8.5 14.2-.5 1-1 1.9-1.4 2.8-.4.8-.7 1.6-1 2.2l-.5 1-10.5-4.8c.5 9.4 2 18.4 4.1 26.9 6.3-6.2 12.9-11.5 19.8-15.9l-10.5-4.8s.2-.3.4-.9c.3-.6.6-1.3 1-2.1s.9-1.7 1.4-2.7c2-3.9 5-9.1 8.3-13.9 3.3-4.9 7-9.5 9.8-12.9.7-.8 1.4-1.6 2-2.3.6-.7 1.1-1.2 1.6-1.7.9-.9 1.4-1.5 1.4-1.5l-2.3-2.3zM176.2 129.9s-.5-.1-1.3-.2c-.4-.1-.9-.1-1.5-.2s-1.3-.1-2-.2c-1.5-.1-3.1-.2-5-.2-1.8 0-3.7 0-5.6.1-3.8.2-7.6.6-10.5.9-1.4.2-2.6.3-3.4.5-.6.1-1 .2-1 .2l-1.7-11.4c-3.7 2.8-7.3 5.7-10.7 8.7-.9.8-1.7 1.5-2.5 2.3l-2.4 2.4c-1.6 1.6-3.2 3.3-4.4 5.2 1.1.1 2.1.2 3.2.4 1 .2 2.1.4 3.1.7 1 .2 2 .6 3 .9 1 .3 2 .6 3 1 4 1.3 7.9 2.8 11.7 4.5l-1.7-11.4s.4-.1 1-.2c.8-.1 2-.3 3.4-.4 2.8-.3 6.5-.7 10.3-.9 1.9-.1 3.7-.1 5.5-.1 1.7.1 3.4.1 4.7.2.7.1 1.3.1 1.9.2.5.1 1 .1 1.4.2.8.1 1.2.2 1.2.2l.3-3.4z"/><path fill="#B7B9DD" d="M350.9 164s-3.3.9-9.2 2.5c-5.8 1.6-14.2 3.8-24.3 6.2-10.1 2.4-21.9 4.9-34.7 6.9-12.8 2-26.6 3.6-40.3 3.8-13.8 0-27.6-1.1-40.4-2.7-12.9-1.6-24.8-3.7-34.9-5.9-2.5-.5-4.9-1.1-7.2-1.6s-4.5-1.1-6.5-1.6-3.9-1-5.7-1.5c-1.7-.5-3.3-1-4.8-1.4-.9-.3-1.5-.4-1.5-.4l3.5-11c-8.1 2-16.4 3.7-25.1 4.2 4.9 7.3 10.9 14.2 17.2 20.9l3.5-11s.5.2 1.5.4c1.5.4 3.1.9 4.8 1.4 1.8.5 3.7 1 5.7 1.5 2.1.5 4.2 1.1 6.6 1.6 2.3.5 4.7 1.1 7.3 1.7 10.2 2.2 22.2 4.3 35.2 5.9 13 1.6 26.8 2.7 40.8 2.7 14-.2 27.9-1.8 40.8-3.8 12.9-2 24.8-4.6 35-7 10.1-2.4 18.5-4.6 24.4-6.2 5.9-1.6 9.2-2.5 9.2-2.5l-.9-3.1zM188.3 105.7s-2-1.8-5-4.3-7.1-5.8-11.1-9.1-8-6.7-10.9-9.3c-1.5-1.3-2.6-2.4-3.5-3.2-.5-.4-.8-.7-.8-.7l8-8.4c-4-.8-8.1-1.8-12-2.9-2-.6-3.9-1.3-5.8-2-1.9-.8-3.8-1.7-5.5-3.1-.3 2.2-.2 4.5.1 6.8.3 2.3.7 4.6 1.2 6.9 1.1 4.6 2.4 9 3.9 13.4l8-8.4s.3.3.8.7c.8.8 2.1 1.9 3.5 3.2 2.9 2.6 6.9 6.1 11 9.4 4.1 3.3 8.1 6.6 11.1 9.1s4.9 4.2 4.9 4.2l2.1-2.3zM352.2 101.2s-2.6-1.6-7.1-4.3c-4.5-2.7-11-6.6-18.9-10.9-8-4.3-17.4-9.1-28-13.2-2.6-1.1-5.4-2-8.1-3-2.8-.8-5.6-1.8-8.5-2.5-5.8-1.6-11.8-2.7-17.8-3.5l-4.5-.5c-1.5-.1-3-.3-4.5-.4-3-.3-5.9-.6-8.9-.9-5.9-.6-11.7-1.2-17.3-1.8-11.2-1.2-21.7-2.4-30.6-3.4-13.9-1.5-23.1-2.5-23.1-2.5l1.2-11.5c-8 3.5-16.1 7.1-24.1 10.8 7.2 5 14.2 10.2 21.3 15.3l1.2-11.5s9.2 1 23.1 2.5c9 1 19.4 2.2 30.6 3.4 5.6.6 11.4 1.2 17.3 1.8 2.9.3 5.9.6 8.9.9 1.5.1 3 .3 4.5.4l4.4.5c5.9.8 11.7 1.9 17.4 3.4 2.8.7 5.6 1.7 8.3 2.5 2.7 1 5.4 1.8 8 2.9 10.4 4 19.8 8.7 27.7 13 7.9 4.3 14.3 8.1 18.8 10.8 4.5 2.7 7.1 4.3 7.1 4.3l1.6-2.6z"/><path fill="#D6E379" d="M383.8 177.6s.2.8.5 2.1c.1.7.3 1.5.5 2.4.2.9.4 2 .6 3.1.8 4.6 1.6 10.8 1.8 17.1.3 6.2 0 12.5-.5 17.1-.2 2.3-.5 4.3-.7 5.6-.1.7-.1 1-.1 1l-11.4-1.8c3.3 7.4 5.9 15.5 7.5 24.1 6.6-5.7 12.8-12.5 18.5-20.1l-11.4-1.8s.1-.4.1-1.1c.2-1.4.5-3.4.7-5.8.5-4.8.8-11.2.5-17.6-.2-6.4-1-12.8-1.9-17.5-.2-1.2-.4-2.3-.6-3.2-.2-1-.4-1.8-.5-2.5-.3-1.4-.5-2.1-.5-2.1l-3.1 1zM231.6 168.6s1.3 1.5 3.7 4c1.2 1.2 2.6 2.7 4.2 4.4 1.5 1.8 3.3 3.8 5.2 6 7.6 8.8 17.8 20.5 28.8 31.4 5.5 5.5 11.2 10.8 16.8 15.5 2.8 2.4 5.6 4.6 8.2 6.6 2.7 2 5.2 3.9 7.6 5.6 4.8 3.3 8.9 6 11.7 7.8.7.4 1.1.7 1.1.7l-6.2 9.8c8.9.5 17.7.7 26.5.9-4.2-7.7-8.5-15.4-12.3-23l-6.2 9.8s-.4-.2-1.1-.7c-2.8-1.8-6.9-4.5-11.6-7.8-2.4-1.7-4.9-3.5-7.5-5.5-2.6-2-5.3-4.2-8.1-6.5-5.5-4.6-11.2-9.9-16.6-15.3-10.9-10.9-21.1-22.5-28.7-31.3-1.9-2.2-3.7-4.2-5.2-6-1.6-1.8-3-3.3-4.2-4.5-2.3-2.4-3.5-3.9-3.5-3.9l-2.6 2z"/><path fill="#B7B9DD" d="M221.5 93.1c-.3-3.7-.3-7.6-.2-11.4.1-3.9.3-7.7.6-11.6l.1-.9 11.5.9s-2.9-5.7-5.5-11.6c-1.3-2.9-2.6-5.9-3.5-8.2-.4-1.1-.8-2.1-1-2.8-.2-.7-.4-1.1-.4-1.1s-.3.3-.7.8c-.5.5-1.2 1.3-1.9 2.3-1.6 2-3.6 4.6-5.6 7.4-3.9 5.4-7.6 11.1-7.6 11.1l11.5.9-.1.9c-.3 3.9-.5 7.8-.6 11.7-.1 3.9-.1 7.8.2 11.9l3.2-.3z"/><g><circle opacity=".14" stroke="#000" stroke-width="6" stroke-miterlimit="10" cx="236.6" cy="10.9" r="37"/><circle opacity=".14" stroke="#000" stroke-width="6" stroke-miterlimit="10" cx="443.2" cy="259.4" r="37"/><circle opacity=".14" stroke="#000" stroke-width="6" stroke-miterlimit="10" cx="471.9" cy="46.4" r="37"/><circle opacity=".14" stroke="#000" stroke-width="6" stroke-miterlimit="10" cx="359.6" cy="3.4" r="37"/><circle opacity=".14" stroke="#000" stroke-width="6" stroke-miterlimit="10" cx="511.6" cy="22.4" r="37"/><circle opacity=".14" stroke="#000" stroke-width="6" stroke-miterlimit="10" cx="450.6" cy="213.7" r="37"/><circle opacity=".14" stroke="#000" stroke-width="6" stroke-miterlimit="10" cx="132.1" cy="31.5" r="37"/><circle opacity=".14" stroke="#000" stroke-width="6" stroke-miterlimit="10" cx="92.5" cy="146.5" r="37"/><circle opacity=".14" stroke="#000" stroke-width="6" stroke-miterlimit="10" cx="139.1" cy="249.8" r="37"/><circle opacity=".14" stroke="#000" stroke-width="6" stroke-miterlimit="10" cx="227.4" cy="259.6" r="37"/><circle opacity=".14" stroke="#000" stroke-width="6" stroke-miterlimit="10" cx="220" cy="135.7" r="39.1"/><circle fill="#3B4D81" stroke="#808285" stroke-width="6" stroke-miterlimit="10" cx="216.1" cy="133.2" r="39.1"/><circle opacity=".14" stroke="#000" stroke-width="6" stroke-miterlimit="10" cx="378.8" cy="137.9" r="38.8"/><circle fill="#FFD105" stroke="#808285" stroke-width="6" stroke-miterlimit="10" cx="375" cy="135.5" r="38.8"/><circle opacity=".14" stroke="#000" stroke-width="6" stroke-miterlimit="10" cx="378.9" cy="285.1" r="37"/><circle fill="#FFF0D6" stroke="#B8BABC" stroke-width="6" stroke-miterlimit="10" cx="369.3" cy="284.7" r="37"/><path fill="#808082" d="M247.9 110.9s.3-.1.7-.4c.5-.3 1.2-.7 2.1-1.2 1.9-1 4.6-2.2 8-3.3 6.8-2.4 16.5-4.1 26.2-4.4 9.7-.3 19.5.8 26.6 2.3 3.6.7 6.5 1.6 8.5 2.2.7.2 1.1.3 1.1.3l-3.6 11c7.5-2.1 15.6-3.4 24.3-2.2-1.6-4.1-3.9-8.1-6.7-11.9-2.8-3.8-5.9-7.5-9.4-10.9l-3.6 11s-.4-.1-1.1-.4c-2.1-.6-5.1-1.5-8.8-2.3C305 99.2 295 98 285 98.4c-10 .3-20 2.1-27.1 4.6-3.6 1.2-6.5 2.5-8.5 3.5-1 .5-1.7 1-2.3 1.2-.5.3-.8.4-.8.4l1.6 2.8z"/><circle opacity=".14" stroke="#000" stroke-width="6" stroke-miterlimit="10" cx="528.1" cy="146.3" r="37"/><circle fill="#E9E9F5" stroke="#B8BABC" stroke-width="6" stroke-miterlimit="10" cx="518.5" cy="146" r="37"/><circle fill="#F6F7D4" stroke="#B8BABC" stroke-width="6" stroke-miterlimit="10" cx="433.6" cy="259.1" r="37"/><circle fill="#EBF5E6" stroke="#B8BABC" stroke-width="6" stroke-miterlimit="10" cx="462.2" cy="46.1" r="37"/><circle fill="#FDE9F2" stroke="#B8BABC" stroke-width="6" stroke-miterlimit="10" cx="502" cy="22.1" r="37"/><circle opacity=".14" stroke="#000" stroke-width="6" stroke-miterlimit="10" cx="531.5" cy="269.2" r="37"/><circle fill="#F6F7D4" stroke="#B8BABC" stroke-width="6" stroke-miterlimit="10" cx="521.8" cy="268.9" r="37"/><circle fill="#FAF3F8" stroke="#B8BABC" stroke-width="6" stroke-miterlimit="10" cx="441" cy="213.4" r="37"/><circle fill="#F6F7D4" stroke="#B8BABC" stroke-width="6" stroke-miterlimit="10" cx="122.5" cy="31.1" r="37"/><circle fill="#F6F7D4" stroke="#B8BABC" stroke-width="6" stroke-miterlimit="10" cx="231" cy="7.1" r="37"/><circle fill="#E9E9F5" stroke="#B8BABC" stroke-width="6" stroke-miterlimit="10" cx="82.8" cy="146.1" r="37"/><circle fill="#F6F7D4" stroke="#B8BABC" stroke-width="6" stroke-miterlimit="10" cx="129.5" cy="249.5" r="37"/><circle fill="#F6F7D4" stroke="#B8BABC" stroke-width="6" stroke-miterlimit="10" cx="217.7" cy="259.3" r="37"/><circle fill="#F6F7D4" stroke="#B8BABC" stroke-width="6" stroke-miterlimit="10" cx="350" cy="3.1" r="37"/><path fill="#808082" d="M343.1 156.2s-.3.1-.7.4c-.5.3-1.2.7-2.1 1.2-1.9 1-4.6 2.2-8 3.3-6.8 2.4-16.5 4.1-26.2 4.4-9.7.3-19.5-.8-26.6-2.3-3.6-.7-6.5-1.6-8.5-2.2-.7-.2-1.1-.3-1.1-.3l3.6-11c-7.5 2.1-15.6 3.4-24.3 2.2 1.6 4.1 3.9 8.1 6.7 11.9 2.8 3.8 5.9 7.5 9.4 10.9l3.6-11s.4.1 1.1.4c2.1.6 5.1 1.5 8.8 2.3 7.3 1.6 17.3 2.7 27.4 2.4 10-.3 20-2.1 27.1-4.6 3.6-1.2 6.5-2.5 8.5-3.5 1-.5 1.7-1 2.3-1.2.5-.3.8-.4.8-.4l-1.8-2.9z"/></g></svg>