<?xml version="1.0" encoding="utf-8"?>
<!-- Generator: Adobe Illustrator 18.0.0, SVG Export Plug-In . SVG Version: 6.00 Build 0)  -->
<!DOCTYPE svg PUBLIC "-//W3C//DTD SVG 1.1//EN" "http://www.w3.org/Graphics/SVG/1.1/DTD/svg11.dtd">
<svg version="1.1" xmlns="http://www.w3.org/2000/svg" xmlns:xlink="http://www.w3.org/1999/xlink" x="0px" y="0px"
	 viewBox="0 0 595.3 307" enable-background="new 0 0 595.3 307" xml:space="preserve">
<g id="Layer_3">
</g>
<g id="Layer_2">
</g>
<g id="Layer_1">
	<circle opacity="0.14" stroke="#000000" stroke-width="6" stroke-miterlimit="10" cx="188.6" cy="171.8" r="114.5"/>
	<circle fill="#FBC4AB" stroke="#808285" stroke-width="6" stroke-miterlimit="10" cx="177.3" cy="164.5" r="114.5"/>
	<circle opacity="0.14" stroke="#000000" stroke-width="6" stroke-miterlimit="10" cx="459.4" cy="160.8" r="114.5"/>
	<circle fill="#C8E3B7" stroke="#808285" stroke-width="6" stroke-miterlimit="10" cx="448.1" cy="153.5" r="114.5"/>
	<circle fill="#54B948" stroke="#00873A" stroke-width="6" stroke-miterlimit="10" cx="492.8" cy="96.8" r="18.3"/>
	<path fill="none" stroke="#6D6E71" stroke-width="4" stroke-miterlimit="10" d="M253.2,195.4c41.2,34.4,131,8.7,172.1-38.3"/>
	<path fill="none" stroke="#6D6E71" stroke-width="4" stroke-miterlimit="10" d="M233.6,93.8c30.4-27.5,91-31,131.4,14.8"/>
	<path fill="none" stroke="#6D6E71" stroke-width="4" stroke-miterlimit="10" d="M177.3,174.7c56.3,89.2,244.3,107.9,323.2,14.9"/>
	<path fill="none" stroke="#6D6E71" stroke-width="4" stroke-miterlimit="10" d="M119.6,121.6C225.6,8.3,357.5,4.3,474.5,85.9"/>
	<circle fill="#D71920" stroke="#BE1E2D" stroke-width="6" stroke-miterlimit="10" cx="104.7" cy="135.3" r="18.3"/>
	<circle fill="#F58235" stroke="#E76524" stroke-width="6" stroke-miterlimit="10" cx="240.2" cy="185.8" r="18.3"/>
	<circle fill="#8967AC" stroke="#651C5F" stroke-width="6" stroke-miterlimit="10" cx="169" cy="157.1" r="18.3"/>
	<circle fill="#54B948" stroke="#00873A" stroke-width="6" stroke-miterlimit="10" cx="221.9" cy="107.9" r="18.3"/>
	<polygon fill="#6D6E71" stroke="#6D6E71" stroke-miterlimit="10" points="118.6,121.6 127.5,96.9 143.3,116.2 	"/>
	<polygon fill="#6D6E71" stroke="#6D6E71" stroke-miterlimit="10" points="234.3,94.6 243.3,69.9 259,89.2 	"/>
	<polygon fill="#6D6E71" stroke="#6D6E71" stroke-miterlimit="10" points="255.9,197.9 282,195.7 271.1,218.1 	"/>
	<polygon fill="#6D6E71" stroke="#6D6E71" stroke-miterlimit="10" points="176.2,174.8 200.7,184.3 181,199.6 	"/>
	<circle fill="#D71920" stroke="#BE1E2D" stroke-width="6" stroke-miterlimit="10" cx="375.5" cy="124.2" r="18.3"/>
	<circle fill="#A9CF38" stroke="#80B541" stroke-width="6" stroke-miterlimit="10" cx="511.1" cy="174.7" r="18.3"/>
	<circle fill="#048A7A" stroke="#006A74" stroke-width="6" stroke-miterlimit="10" cx="439.8" cy="146.1" r="18.3"/>
</g>
</svg>
