<svg xmlns="http://www.w3.org/2000/svg" viewBox="0 0 595.3 359"><switch><g><circle opacity=".14" stroke="#000" stroke-width="6" stroke-miterlimit="10" cx="137.8" cy="159.9" r="114.9"/><circle fill="#E6E7E8" stroke="#808285" stroke-width="6" stroke-miterlimit="10" cx="127.1" cy="147" r="114.9"/><circle opacity=".14" stroke="#000" stroke-width="6" stroke-miterlimit="10" cx="435.3" cy="164.7" r="114.9"/><circle fill="#E6E7E8" stroke="#808285" stroke-width="6" stroke-miterlimit="10" cx="424.5" cy="151.7" r="114.9"/><circle fill="#FFF" stroke="#939598" stroke-width="6" stroke-miterlimit="10" cx="415.7" cy="80.7" r="24.6"/><path fill="#808285" d="M424.9 80.1c0 4.1-.7 7.1-2.1 9.1-1.4 1.9-3.5 2.9-6.3 2.9s-4.9-1-6.3-3c-1.4-2-2.1-5-2.1-8.9 0-4.1.7-7.2 2.1-9.1 1.4-1.9 3.5-2.9 6.3-2.9s4.9 1 6.3 3c1.4 1.9 2.1 4.9 2.1 8.9zm-10.6 0c0 2.6.2 4.5.5 5.4.3 1 .9 1.5 1.7 1.5.8 0 1.3-.5 1.7-1.5.3-1 .5-2.8.5-5.4 0-2.6-.2-4.4-.5-5.4s-.9-1.6-1.7-1.6-1.3.5-1.7 1.5c-.3 1-.5 2.9-.5 5.5z"/><circle fill="#FFF" stroke="#939598" stroke-width="6" stroke-miterlimit="10" cx="371.4" cy="133.6" r="24.6"/><path fill="#808285" d="M376.6 143.7h-6.4v-12.3c0-1.5 0-2.9.1-4.1-.4.5-.9 1-1.5 1.5l-2.6 2.2-3.3-4 8-6.5h5.7v23.2z"/><circle fill="#FFF" stroke="#939598" stroke-width="6" stroke-miterlimit="10" cx="490.5" cy="134.6" r="24.6"/><path fill="#808285" d="M498.6 144.7h-16.9v-4.1l5.7-5.8c1.6-1.7 2.7-2.9 3.2-3.5s.8-1.2 1-1.6c.2-.4.3-.9.3-1.4 0-.6-.2-1.1-.6-1.4-.4-.4-.9-.5-1.7-.5-.7 0-1.5.2-2.2.6s-1.6 1-2.5 1.9l-3.5-4.1c1.2-1.1 2.2-1.8 3-2.3.8-.5 1.7-.8 2.7-1.1s2-.4 3.2-.4c1.5 0 2.9.3 4 .8s2.1 1.3 2.8 2.3c.7 1 1 2.1 1 3.3 0 .9-.1 1.8-.3 2.5-.2.8-.6 1.5-1.1 2.3-.5.8-1.1 1.5-1.9 2.4-.8.8-2.5 2.4-5.1 4.7v.2h8.8v5.2z"/><circle fill="#FFF" stroke="#939598" stroke-width="6" stroke-miterlimit="10" cx="475.7" cy="213.2" r="24.6"/><path fill="#808285" d="M483 205c0 1.4-.4 2.7-1.3 3.7s-2.2 1.8-3.8 2.3v.1c3.9.5 5.8 2.3 5.8 5.5 0 2.2-.9 3.9-2.6 5.1-1.7 1.2-4.1 1.9-7.2 1.9-1.3 0-2.4-.1-3.5-.3s-2.2-.5-3.5-1v-5.2c1 .5 2.1.9 3.1 1.2s2 .4 2.9.4c1.4 0 2.4-.2 3-.6s.9-1 .9-1.8c0-.6-.2-1.1-.5-1.5s-.9-.6-1.6-.8c-.7-.2-1.7-.3-2.9-.3h-1.4V209h1.5c3.2 0 4.8-.8 4.8-2.5 0-.6-.2-1.1-.7-1.4-.5-.3-1.1-.4-1.9-.4-1.5 0-3 .5-4.6 1.5l-2.6-4.2c1.2-.9 2.5-1.5 3.8-1.8 1.3-.4 2.8-.5 4.4-.5 2.4 0 4.3.5 5.7 1.4 1.5.9 2.2 2.2 2.2 3.9z"/><circle fill="#FFF" stroke="#939598" stroke-width="6" stroke-miterlimit="10" cx="379.4" cy="215.9" r="24.6"/><path fill="#808285" d="M388.2 221.5h-2.6v4.5h-6.2v-4.5h-9.3v-4.6l9.7-14.2h5.8v14.1h2.6v4.7zm-8.8-4.7v-2.7c0-.5 0-1.2.1-2.1 0-.9.1-1.3.1-1.4h-.2c-.4.8-.8 1.6-1.2 2.3l-2.6 3.8h3.8z"/><path fill="#6D6E71" d="M223.5 135.4s.3-.4.8-1.1c.3-.4.5-.8.9-1.4.4-.5.9-1.1 1.4-1.8 2.1-2.6 5.5-6.1 10.2-9.8 4.6-3.7 10.5-7.4 17.1-10.7 6.6-3.3 14-6.1 21.6-8.1 7.6-2 15.5-3 22.8-3.1 7.4-.1 14.2.8 19.9 2.2.4.1.7.2 1.1.2.3.1.7.2 1 .3.7.2 1.3.4 2 .6.6.2 1.3.4 1.9.6.6.2 1.2.4 1.7.7 1.1.4 2.2.8 3.1 1.2.9.4 1.8.8 2.6 1.2.7.3 1.1.5 1.1.5l-5.1 10.4c7.5-1.2 15.9-.8 24.4 1.3-2.5-8.4-6.6-17-12.7-24.9l-5.1 10.4-1.2-.6c-.8-.4-1.7-.8-2.7-1.2-1-.4-2.1-.8-3.3-1.3-.6-.2-1.2-.4-1.8-.7-.6-.2-1.3-.4-1.9-.6l-2.1-.6c-.4-.1-.7-.2-1.1-.3-.4-.1-.7-.2-1.1-.3-5.9-1.5-13.1-2.4-20.7-2.3-7.6.1-15.7 1.2-23.6 3.2-7.8 2.1-15.5 4.9-22.3 8.4-6.8 3.4-12.8 7.3-17.6 11.1-4.8 3.8-8.4 7.5-10.7 10.3-.6.7-1.1 1.4-1.5 1.9-.4.6-.7 1.1-1 1.5-.5.8-.8 1.3-.8 1.3l2.7 1.5zM153 183.6s.5.7 1.5 1.9c.5.6 1.1 1.4 1.8 2.3.3.5.7.9 1.1 1.5.4.5.9 1 1.4 1.6 1 1.1 2.1 2.3 3.2 3.6 1.2 1.3 2.7 2.6 4.1 4 3 2.8 6.7 5.7 10.9 8.5.5.4 1.1.7 1.6 1 .6.3 1.1.6 1.7 1 1.2.6 2.3 1.4 3.5 1.9 2.5 1.1 5 2.4 7.8 3.3.7.2 1.4.5 2.1.7.3.1.7.3 1 .4l1.1.3c1.4.4 2.9.8 4.4 1.2l4.5.9c.8.1 1.5.3 2.3.4.8.1 1.6.2 2.3.3l2.4.3 1.2.1h1.2c1.6.1 3.2.1 4.8.2 3.2-.1 6.5-.1 9.8-.5 3.3-.2 6.6-.8 9.9-1.3 3.3-.7 6.6-1.3 9.8-2.2 3.3-.8 6.4-1.8 9.6-2.8 1.6-.5 3.1-1.1 4.7-1.7l2.3-.8 2.3-.9 4.5-1.8c1.5-.7 3-1.3 4.4-2 3-1.3 5.8-2.7 8.6-4.1 11.2-5.6 21.1-11.7 29.4-17.2 8.3-5.5 15-10.5 19.6-14l1.2-.9 7 9.2c3.6-8.2 6.8-16.5 9.7-24.7-8.7 1.5-17.2 2.9-25.7 3.9l7 9.2-1.2.9c-4.6 3.5-11.2 8.4-19.4 13.8s-18.1 11.5-29.1 17c-2.8 1.3-5.6 2.8-8.5 4-1.4.6-2.9 1.3-4.4 1.9l-4.5 1.8c-.7.3-1.5.6-2.3.9l-2.3.8c-1.5.5-3.1 1.1-4.6 1.6-3.1 1-6.2 2-9.4 2.8-3.1.9-6.4 1.5-9.5 2.2-3.2.5-6.4 1.1-9.6 1.3-3.2.4-6.4.4-9.5.5-1.6-.1-3.1-.1-4.7-.2h-1.2l-1.1-.1c-.8-.1-1.5-.2-2.3-.3-.8-.1-1.5-.2-2.3-.2-.7-.1-1.5-.3-2.2-.4-1.5-.3-2.9-.5-4.3-.8-1.4-.4-2.8-.8-4.2-1.1l-1-.3c-.3-.1-.7-.2-1-.4-.7-.2-1.3-.5-2-.7-2.7-.9-5.1-2.1-7.4-3.2-1.2-.5-2.3-1.3-3.4-1.9-.5-.3-1.1-.6-1.6-.9-.5-.3-1.1-.6-1.6-1-4.1-2.7-7.6-5.4-10.5-8.1-1.4-1.4-2.8-2.6-4-3.9-1.1-1.3-2.2-2.5-3.1-3.5-.5-.5-.9-1-1.3-1.5s-.7-1-1.1-1.4c-.7-.9-1.2-1.6-1.7-2.2-.9-1.2-1.4-1.9-1.4-1.9l-2.3 1.7z"/><circle fill="#FFF" stroke="#939598" stroke-width="6" stroke-miterlimit="10" cx="205.9" cy="153.1" r="24.6"/><g fill="#808285"><path d="M192.1 156.9v-5h9v5h-9zM216.8 163.2h-6.4v-12.3c0-1.5 0-2.9.1-4.1-.4.5-.9 1-1.5 1.5l-2.6 2.2-3.3-4 8-6.5h5.7v23.2z"/></g><circle fill="#FFF" stroke="#939598" stroke-width="6" stroke-miterlimit="10" cx="145.3" cy="168.7" r="24.6"/><path fill="#808285" d="M150.5 178.7h-6.4v-12.3c0-1.5 0-2.9.1-4.1-.4.5-.9 1-1.5 1.5l-2.6 2.2-3.3-4 8-6.5h5.7v23.2z"/><path fill="#6D6E71" d="M166.7 69.4s.7-.6 2-1.6 3.2-2.7 5.9-4.4c.7-.4 1.3-.9 2.1-1.4.7-.5 1.5-1 2.3-1.5 1.6-1 3.4-2.1 5.3-3.2 1.9-1 4-2.1 6.2-3.3 2.2-1.1 4.6-2.2 7.1-3.3 9.9-4.4 22.1-8.5 35.4-11.6 3.3-.8 6.7-1.5 10.2-2.1 1.7-.4 3.5-.6 5.2-.9 1.8-.3 3.5-.6 5.3-.8 1.8-.2 3.6-.5 5.4-.7l2.7-.3 2.7-.3c1.8-.2 3.6-.4 5.4-.5l5.5-.4c29.1-2 58.4 1.3 79.4 7.4 10.5 3 18.8 6.5 24.5 9.4.9.5 1.4.7 1.4.7l-5.7 10c7.9-.8 16.2-.7 24.8 1.4-2.5-8.4-7-16.8-12.5-24.6l-5.4 10.2s-.5-.3-1.4-.8c-5.8-2.9-14.4-6.6-25.1-9.6-21.3-6.2-51-9.5-80.4-7.5l-5.5.4c-1.8.2-3.7.4-5.5.5l-2.7.3-2.7.3c-1.8.2-3.6.5-5.4.7-1.8.2-3.6.6-5.4.9-1.8.3-3.5.5-5.3.9-3.5.7-6.9 1.3-10.3 2.2-13.5 3.1-25.8 7.2-35.9 11.8-2.5 1.2-4.9 2.3-7.2 3.4-2.2 1.2-4.4 2.3-6.3 3.4-1.9 1.2-3.7 2.3-5.4 3.3l-2.4 1.5-2.1 1.5c-2.7 1.8-4.7 3.5-6 4.5-1.4 1.1-2.1 1.7-2.1 1.7l1.9 2.4z"/><circle fill="#FFF" stroke="#939598" stroke-width="6" stroke-miterlimit="10" cx="151.7" cy="84.4" r="24.6"/><path fill="#808285" d="M160.9 83.8c0 4.1-.7 7.1-2.1 9.1-1.4 1.9-3.5 2.9-6.3 2.9s-4.9-1-6.3-3c-1.4-2-2.1-5-2.1-8.9 0-4.1.7-7.2 2.1-9.1 1.4-1.9 3.5-2.9 6.3-2.9s4.9 1 6.3 3c1.4 1.9 2.1 4.9 2.1 8.9zm-10.6 0c0 2.6.2 4.5.5 5.4.3 1 .9 1.5 1.7 1.5.8 0 1.3-.5 1.7-1.5.3-1 .5-2.8.5-5.4 0-2.6-.2-4.4-.5-5.4s-.9-1.6-1.7-1.6-1.3.5-1.7 1.5c-.3 1-.5 2.9-.5 5.5z"/><path fill="#6D6E71" d="M122.1 246.4s.6.8 1.7 2.2c1.2 1.4 2.7 3.6 5.1 6.1.6.6 1.2 1.3 1.8 2 .3.3.7.7 1 1.1.4.3.7.7 1.1 1 1.5 1.4 3.1 2.9 5 4.5.9.7 1.9 1.5 2.9 2.3l1.5 1.2c.3.2.5.4.8.6.3.2.6.4.8.6 1.1.7 2.3 1.5 3.4 2.3l1.8 1.2c.6.4 1.3.7 1.9 1.1 1.3.7 2.6 1.4 3.9 2.2.7.4 1.4.7 2.1 1 .7.3 1.4.7 2.1 1 .7.3 1.4.7 2.2 1 .7.3 1.5.7 2.2 1 1.5.6 3.1 1.2 4.6 1.8 1.5.6 3.2 1.1 4.8 1.6.8.3 1.6.5 2.5.8.8.3 1.7.5 2.5.7 1.7.4 3.4.8 5.2 1.3.9.2 1.8.4 2.6.6.9.2 1.8.3 2.7.5 3.6.8 7.3 1.1 11 1.6 1.9.2 3.7.3 5.6.5.9.1 1.9.1 2.8.2 1 0 1.9.1 2.9.1 7.6.4 15.4 0 23.1-.6l5.8-.6c1.9-.2 3.8-.5 5.7-.8 3.8-.5 7.6-1.3 11.4-2 1.9-.3 3.7-.8 5.6-1.2 1.8-.4 3.7-.8 5.5-1.3 3.6-1 7.2-1.9 10.6-3 13.9-4.2 26.5-9.5 36.9-14.7 10.4-5.2 18.6-10.3 24.3-14 .9-.6 1.3-.9 1.3-.9l6.5 9.6 3.1-6.1 2.8-6.2 1.3-3.1 1.2-3.1 2.4-6.2-6.5 1-3.2.5-3.2.3-6.3.6-6.3.3 6.5 9.6s-.5.3-1.3.9c-5.6 3.6-13.7 8.7-24 13.8-10.3 5.1-22.7 10.3-36.4 14.5-3.4 1.1-6.9 2-10.5 3-1.8.5-3.6.9-5.4 1.3-1.8.4-3.6.9-5.5 1.2-3.7.7-7.4 1.4-11.2 1.9-1.9.3-3.8.6-5.7.8l-5.7.6c-7.6.6-15.2 1-22.7.6-.9 0-1.9-.1-2.8-.1-.9-.1-1.9-.1-2.8-.2-1.9-.2-3.7-.3-5.5-.5-3.6-.5-7.3-.9-10.7-1.6-.9-.2-1.7-.3-2.6-.5-.9-.2-1.7-.3-2.6-.5-1.7-.4-3.4-.8-5-1.2-.8-.2-1.7-.4-2.5-.7-.8-.3-1.6-.5-2.4-.8-1.6-.5-3.2-.9-4.7-1.6-1.5-.6-3-1.2-4.5-1.7-.7-.3-1.5-.6-2.2-.9-.7-.3-1.4-.7-2.1-1-.7-.3-1.4-.6-2.1-1-.7-.3-1.4-.6-2-1-1.3-.7-2.6-1.4-3.8-2.1-9.9-5.6-16.9-12.1-21.3-17-2.3-2.4-3.8-4.5-4.9-5.9-1.1-1.4-1.7-2.1-1.7-2.1l-2.4 1.6z"/><circle fill="#FFF" stroke="#939598" stroke-width="6" stroke-miterlimit="10" cx="105.9" cy="227.7" r="24.6"/><path fill="#808285" d="M114 237.8H97.1v-4.1l5.7-5.8c1.6-1.7 2.7-2.9 3.2-3.5s.8-1.2 1-1.6c.2-.4.3-.9.3-1.4 0-.6-.2-1.1-.6-1.4-.4-.4-.9-.5-1.7-.5-.7 0-1.5.2-2.2.6s-1.6 1-2.5 1.9l-3.5-4.1c1.2-1.1 2.2-1.8 3-2.3.8-.5 1.7-.8 2.7-1.1s2-.4 3.2-.4c1.5 0 2.9.3 4 .8s2.1 1.3 2.8 2.3c.7 1 1 2.1 1 3.3 0 .9-.1 1.8-.3 2.5-.2.8-.6 1.5-1.1 2.3-.5.8-1.1 1.5-1.9 2.4-.8.8-2.5 2.4-5.1 4.7v.2h8.8v5.2z"/></g></switch></svg>