<?xml version="1.0" encoding="UTF-8" standalone="no"?>
<!-- Generator: Adobe Illustrator 18.0.0, SVG Export Plug-In . SVG Version: 6.00 Build 0)  -->

<svg
   xmlns:i="&amp;ns_ai;"
   xmlns:dc="http://purl.org/dc/elements/1.1/"
   xmlns:cc="http://creativecommons.org/ns#"
   xmlns:rdf="http://www.w3.org/1999/02/22-rdf-syntax-ns#"
   xmlns:svg="http://www.w3.org/2000/svg"
   xmlns="http://www.w3.org/2000/svg"
   xmlns:sodipodi="http://sodipodi.sourceforge.net/DTD/sodipodi-0.dtd"
   xmlns:inkscape="http://www.inkscape.org/namespaces/inkscape"
   version="1.1"
   x="0px"
   y="0px"
   viewBox="0 0 595.3 312"
   enable-background="new 0 0 595.3 312"
   xml:space="preserve"
   id="svg1054"
   sodipodi:docname="coproduct_external.svg"
   inkscape:version="0.92.4 (5da689c313, 2019-01-14)"><metadata
   id="metadata1060"><rdf:RDF><cc:Work
       rdf:about=""><dc:format>image/svg+xml</dc:format><dc:type
         rdf:resource="http://purl.org/dc/dcmitype/StillImage" /><dc:title></dc:title></cc:Work></rdf:RDF></metadata><defs
   id="defs1058">
	
	
</defs><sodipodi:namedview
   pagecolor="#ffffff"
   bordercolor="#666666"
   borderopacity="1"
   objecttolerance="10"
   gridtolerance="10"
   guidetolerance="10"
   inkscape:pageopacity="0"
   inkscape:pageshadow="2"
   inkscape:window-width="1920"
   inkscape:window-height="1057"
   id="namedview1056"
   showgrid="false"
   inkscape:zoom="2.4189485"
   inkscape:cx="297.64999"
   inkscape:cy="156"
   inkscape:window-x="-8"
   inkscape:window-y="-8"
   inkscape:window-maximized="1"
   inkscape:current-layer="Layer_3" />
<g
   id="g1050"
   i:extraneous="self">
		<g
   id="Layer_3">
			<circle
   style="opacity:0.13999999;stroke:#000000;stroke-width:6;stroke-miterlimit:10"
   id="circle1011"
   r="57.799999"
   cy="86.099998"
   cx="299.79999"
   stroke-miterlimit="10" />
			<circle
   style="fill:#cee7cc;stroke:#808285;stroke-width:6;stroke-miterlimit:10"
   id="circle1013"
   r="57.799999"
   cy="84.5"
   cx="295.5"
   stroke-miterlimit="10" />
			<circle
   style="opacity:0.13999999;stroke:#000000;stroke-width:6;stroke-miterlimit:10"
   id="circle1015"
   r="58.700001"
   cy="221.2"
   cx="160.5"
   stroke-miterlimit="10" />
			<circle
   style="fill:#caebfc;stroke:#808285;stroke-width:6;stroke-miterlimit:10"
   id="circle1017"
   r="58.700001"
   cy="217.5"
   cx="154.7"
   stroke-miterlimit="10" />
			<circle
   style="opacity:0.13999999;stroke:#000000;stroke-width:6;stroke-miterlimit:10"
   id="circle1019"
   r="60.200001"
   cy="223.2"
   cx="439.10001"
   stroke-miterlimit="10" />
			<circle
   style="fill:#f8f7cb;stroke:#808285;stroke-width:6;stroke-miterlimit:10"
   id="circle1021"
   r="60.200001"
   cy="219.3"
   cx="433.20001"
   stroke-miterlimit="10" />
			<circle
   style="fill:#caebfc;stroke:#808285;stroke-width:6;stroke-miterlimit:10"
   id="circle1023"
   r="28.200001"
   cy="82.599998"
   cx="266.29999"
   stroke-miterlimit="10" />
			<circle
   style="fill:#f8f7cb;stroke:#808285;stroke-width:6;stroke-miterlimit:10"
   id="circle1025"
   r="28.9"
   cy="84.400002"
   cx="323.39999"
   stroke-miterlimit="10" />
			<g
   id="g1033"
   transform="rotate(84.072298,293.10332,232.34876)">
				<g
   id="g1031">
					<g
   id="g1029">
						<path
   style="fill:#808285"
   inkscape:connector-curvature="0"
   id="path1027"
   d="m 237.4,101.6 c 0,0 -0.9,0.4 -2.5,1.2 -1.6,0.8 -3.9,2 -6.6,3.5 -2.7,1.5 -5.7,3.4 -8.9,5.5 -3.2,2.2 -6.5,4.6 -9.7,7.2 -3.2,2.6 -6.2,5.3 -9,8 -2.7,2.7 -5.2,5.3 -7.2,7.6 -2,2.3 -3.6,4.3 -4.7,5.8 -0.1,0.2 -0.2,0.3 -0.3,0.4 -0.1,0.1 -0.1,0.2 -0.2,0.3 -0.1,0.1 -0.2,0.2 -0.2,0.2 l -9.4,-6.8 c -0.8,4.9 -1.3,9.9 -1.1,14.8 0.1,2.4 0.4,4.8 0.8,7.1 0.5,2.3 1.1,4.5 2,6.5 1.3,-1.7 2.8,-3.3 4.3,-4.6 1.6,-1.3 3.2,-2.5 4.8,-3.5 3.4,-2 6.9,-3.5 10.5,-4.8 l -9.4,-6.8 c 0,0 0.1,-0.1 0.1,-0.2 0,-0.1 0.1,-0.1 0.2,-0.2 0.1,-0.1 0.2,-0.3 0.3,-0.4 1,-1.4 2.6,-3.3 4.6,-5.6 2,-2.2 4.4,-4.8 7.1,-7.4 2.7,-2.6 5.7,-5.3 8.8,-7.8 3.1,-2.5 6.3,-4.9 9.4,-7 3.1,-2.1 6.1,-3.9 8.7,-5.4 2.6,-1.5 4.8,-2.6 6.4,-3.4 1.6,-0.8 2.5,-1.2 2.5,-1.2 z" />
					</g>
				</g>
			</g>
			<g
   id="g1041"
   transform="rotate(-95.355175,293.61423,211.99352)">
				<g
   id="g1039">
					<g
   id="g1037">
						<path
   style="fill:#808285"
   inkscape:connector-curvature="0"
   id="path1035"
   d="m 351.4,107.6 c 0,0 0.8,0.5 2.1,1.2 0.7,0.4 1.5,0.9 2.4,1.4 0.9,0.6 1.9,1.3 3,2 4.4,3 9.9,7.4 14.9,12.5 5,5.1 9.3,10.7 12.2,15.2 0.8,1.1 1.3,2.2 1.9,3.1 0.6,0.9 1.1,1.7 1.4,2.4 0.3,0.6 0.5,0.9 0.5,0.9 l -10.1,5.6 c 7,3.7 13.9,8.6 20.1,14.7 2.2,-8.5 3.2,-17.7 2.9,-27.4 l -10.1,5.6 c 0,0 -0.2,-0.4 -0.5,-1 -0.4,-0.7 -0.9,-1.5 -1.5,-2.5 -0.6,-0.9 -1.2,-2 -2,-3.2 -3,-4.6 -7.4,-10.5 -12.5,-15.7 -5.1,-5.3 -10.8,-9.9 -15.4,-13 -1.1,-0.8 -2.2,-1.5 -3.1,-2.1 -0.9,-0.6 -1.8,-1.1 -2.5,-1.5 -1.4,-0.8 -2.2,-1.3 -2.2,-1.3 z" />
					</g>
				</g>
			</g>
			<g
   id="g1045">
				<path
   style="fill:none;stroke:#afb1b4;stroke-miterlimit:10"
   inkscape:connector-curvature="0"
   id="path1043"
   d="M 141,82"
   stroke-miterlimit="10" />
			</g>
		</g>
		<g
   id="Layer_1">
		</g>
		<g
   id="Layer_2">
		</g>
	</g>

</svg>