<svg xmlns="http://www.w3.org/2000/svg" viewBox="0 0 595.3 317.5"><switch><g><circle opacity=".14" stroke="#000" stroke-width="6" stroke-miterlimit="10" cx="319.5" cy="282.1" r="30.9"/><circle opacity=".14" stroke="#000" stroke-width="6" stroke-miterlimit="10" cx="437.6" cy="77.1" r="30.9"/><circle opacity=".14" stroke="#000" stroke-width="6" stroke-miterlimit="10" cx="311.5" cy="158.7" r="30.9"/><circle opacity=".14" stroke="#000" stroke-width="6" stroke-miterlimit="10" cx="230.1" cy="226.8" r="31.4"/><circle opacity=".14" stroke="#000" stroke-width="6" stroke-miterlimit="10" cx="393.9" cy="223.8" r="32.1"/><path d="M389.193 187.495s.21-1.427.625-4.057c.325-2.587.898-6.288 1.261-10.663.776-8.885 1.215-20.82-.23-32.526-.146-1.479-.383-2.916-.62-4.352-.237-1.437-.474-2.873-.802-4.267-.237-1.437-.745-2.745-1.072-4.139l-1.254-4.053c-1.81-5.229-3.761-10.057-5.643-14.035-1.834-4.11-3.597-7.37-4.799-9.677-.342-.723-.603-1.042-.603-1.042l-10.273 5.412c.543-8.443.466-17.257.433-25.98 7.599 4.37 15.197 8.741 22.872 13.74l-10.273 5.412s.171.361.604 1.042c1.202 2.307 2.917 5.7 4.841 9.767 1.834 4.111 3.92 8.988 5.724 14.44.508 1.308.836 2.702 1.296 4.143.37 1.484.789 2.836 1.068 4.363.37 1.484.608 2.92.887 4.447.28 1.527.427 3.007.707 4.534 1.482 12.02 1.038 24.178.215 33.196-.412 4.509-.851 8.256-1.267 10.887-.415 2.63-.715 4.1-.715 4.1z" fill="#dfeaa8"/><circle opacity=".14" stroke="#000" stroke-width="6" stroke-miterlimit="10" cx="231.2" cy="70.2" r="30.9"/><path d="M216.8 192s-.1-1.2-.3-3.2c-.2-2-.5-4.9-.7-8.4-.5-7-1-16.3-.9-25.6 0-9.3.5-18.7 1-25.6.3-3.5.6-6.4.8-8.4.1-.7.1-1.1.1-1.1l-11.5-1.3c5.3-7.4 10.8-14.4 16.7-21 2.7 8.3 5.9 16.3 9.5 24l-11.5-1.3s0 .4-.1 1.1c-.2 2-.5 4.9-.8 8.3-.6 6.9-1 16.1-1 25.4 0 9.2.4 18.5.9 25.4.3 3.5.5 6.3.7 8.3.2 2 .3 3.2.3 3.2z" fill="#e0f3fd" stroke-width=".1"/><path d="M370.35 197.55s-1-2.2-2.7-5.9c-1.8-3.8-4.2-9.1-7.3-15.5-6.2-12.8-14.8-29.7-25.7-45.1-5.4-7.7-11.4-15-17.5-21.3-3-3.2-6.2-6-9.3-8.6-3.1-2.6-6.2-4.8-9.1-6.8-5.8-4-10.9-6.9-14.5-8.9l-1.2-.6-5.5 10.2c-4.1-7.2-9-14.3-14.4-21.2 8.7-1.3 17.6-2 26.9-2l-5.5 10.2 1.2.6c3.7 2 8.9 5 14.8 9.1 3 2 6.1 4.4 9.3 7 3.2 2.6 6.5 5.6 9.5 8.8 6.3 6.4 12.4 13.9 17.8 21.7 11 15.6 19.7 32.6 25.9 45.5 3.1 6.4 5.6 11.8 7.4 15.6 1.7 3.8 2.7 5.9 2.7 5.9z" fill="#dfeaa8"/><path d="M226.832 190.597s.663-1.803 1.83-4.935a90.235 90.235 0 012.145-5.567c.884-2.088 1.83-4.619 2.998-7.118 4.513-10.471 11.71-23.949 20.142-36.574 8.432-12.625 18.225-24.335 26.123-32.564 1.927-2.12 3.855-3.924 5.434-5.507 1.675-1.614 3.097-3.038 4.297-4.178.569-.506.98-.855.98-.855l-7.882-8.436c2.245-.54 4.395-1.047 6.64-1.587l6.607-1.366 3.257-.667 3.32-.477 6.545-.923-2.398 6.074-1.199 3.037-1.072 3.1-2.082 6.073c-.599 1.993-1.166 4.08-1.765 6.073l-7.882-8.436s-.316.317-.885.823c-1.232 1.045-2.654 2.469-4.233 4.052-1.58 1.582-3.507 3.386-5.34 5.475-7.835 8.103-17.47 19.654-25.838 32.152-8.369 12.499-15.409 25.818-19.858 36.163-1.136 2.594-2.114 5.03-2.998 7.118-.884 2.088-1.514 3.986-2.145 5.567-1.168 3.132-1.767 4.809-1.767 4.809z" fill="#e0f3fd"/><path d="M405.784 198.707s.363-1.081 1.143-2.966c.78-1.884 1.756-4.6 2.844-7.843 2.315-6.514 5.188-15.3 7.59-24.282 2.486-8.926 4.445-17.963 5.762-24.784.7-3.382 1.065-6.266 1.458-8.29l.14-1.109-11.45-1.77c5.42-6.479 10.703-13.291 15.598-20.604a239.3 239.3 0 0110.437 24.676l-11.452-1.769-.14 1.11c-.392 2.023-.759 4.907-1.458 8.29-1.234 6.875-3.331 15.94-5.79 25.005-2.402 8.982-5.331 17.851-7.701 24.448-1.227 3.27-2.203 5.986-2.9 7.926-.697 1.94-1.143 2.966-1.143 2.966z" fill="#dfeaa8"/><path d="M239.142 195.043s1.236-2.85 3.216-7.77c.439-1.224 1.134-2.568 1.863-4.006.73-1.438 1.432-3.099 2.228-4.725.736-1.755 1.755-3.408 2.747-5.283.526-.873.992-1.875 1.552-2.842.56-.968 1.026-1.97 1.68-2.903 4.581-8.024 10.637-16.9 18.052-25.712 7.415-8.813 16.248-17.435 26.035-24.865 9.787-7.43 20.372-13.828 30.888-18.552 5.244-2.473 10.414-4.442 15.421-6.257 5.069-1.686 9.847-3.158 14.268-4.226 8.97-2.198 16.587-3.288 21.943-3.702.982-.073 1.52-.092 1.52-.092l-.841-11.565c4.416 1.905 8.577 3.93 12.541 6.204 3.965 2.274 7.829 4.83 11.147 7.721-4.147 1.486-7.924 3.424-11.512 5.43-3.59 2.004-7.03 4.487-10.217 6.85l-.875-11.471s-.538.02-1.426.125c-5.26.448-12.75 1.478-21.498 3.65-4.421 1.068-9.072 2.48-14.012 4.105-4.88 1.754-10.016 3.629-15.132 6.042-10.294 4.697-20.717 10.942-30.248 18.25-9.625 7.276-18.297 15.743-25.55 24.402-7.253 8.658-13.275 17.44-17.695 25.309l-1.68 2.903c-.56.968-.992 1.875-1.518 2.748-.959 1.781-1.917 3.562-2.713 5.189-.797 1.626-1.56 3.159-2.195 4.63-.729 1.439-1.296 2.723-1.863 4.007-2.074 4.886-3.182 7.676-3.182 7.676zM249.302 246.096l.864.71c.517.427 1.34 1.046 2.244 1.848 1.858 1.472 4.498 3.472 7.149 5.248 2.69 1.868 5.34 3.644 7.433 4.903 1.045.63 1.868 1.249 2.437 1.543.568.294.873.487.873.487l6-9.89c1.888 3.757 3.869 7.472 6.083 10.975 2.163 3.635 4.377 7.137 7.362 10.406-4.294.925-8.914 1.118-13.443 1.271-4.569.062-9.087-.008-13.686-.262l5.999-9.89s-.305-.193-.873-.487c-.61-.386-1.524-.965-2.57-1.594-2.132-1.35-4.782-3.127-7.473-4.994-2.691-1.868-5.331-3.868-7.322-5.39-.995-.762-1.817-1.381-2.376-1.9-.558-.517-.863-.71-.863-.71z" fill="#e0f3fd"/><path d="M368.851 248.004l-1.312 2.458c-.26.471-.409.856-.669 1.327l-1.04 1.08-.694.72 8.033 8.352s-.533.237-1.364.436c-.843.298-1.984.56-3.335.896-2.704.673-6.09 1.16-9.463 1.548-3.373.388-6.734.677-9.165.778-2.53.09-4.143.092-4.143.092s.78-1.415 1.956-3.587c1.077-2.184 2.55-5.125 3.813-7.992 1.262-2.866 2.338-5.857 2.894-7.904.334-1.067.432-1.86.605-2.444l.11-.893 8.034 8.352.57-.534.806-.807c.248-.373.384-.658.532-1.043l1.189-2.27z" fill="#dfeaa8"/><path d="M246.018 198.082c3.2-6.9 7.5-13.2 12.7-18.7l.6-.7-8.3-8s1.8-.7 4.4-1.5c2.6-.8 6.2-1.7 9.9-2.3 3.7-.6 7.4-.6 10.1-.1 1.3.2 2.3.5 3 .8.7.3 1.1.4 1.1.4s-.3.3-.9.7c-.5.5-1.2 1.1-2 2-1.5 1.8-2.9 4.3-3.8 7-1 2.7-1.7 5.5-2.2 7.7-.5 2.1-.6 3.5-.6 3.5l-8.3-8-.6.7c-4.9 5.3-9.1 11.3-12.1 17.9z" fill="#808285"/><ellipse fill="#E8CAE1" stroke="#BCBEC0" stroke-width="6" stroke-miterlimit="10" cx="435.1" cy="75.9" rx="30.1" ry="30.9"/><ellipse fill="#FEDDBF" stroke="#BCBEC0" stroke-width="6" stroke-miterlimit="10" cx="316.5" cy="279.1" rx="30.1" ry="30.9"/><path d="M366.66 196.76c-2.9-5.2-6.8-9.9-11.3-13.8l-.7-.6-7.4 8.9s-.1-.3-.2-.9c-.1-.6-.4-1.4-.7-2.4-.6-2-1.7-4.7-3.2-7.3-1.4-2.6-3.2-5.2-4.8-7-.8-1-1.4-1.7-1.9-2.2l-.8-.8s.4-.1 1.1-.3c.7-.2 1.7-.4 3-.6 2.5-.5 6-.8 9.6-.7 3.6 0 7.3.5 10.1 1 1.4.3 2.6.5 3.4.7.8.2 1.3.3 1.3.3l-7.4 8.9.7.6c4.8 4.2 8.9 9.1 12 14.7z" fill="#808285"/><circle opacity=".14" stroke="#000" stroke-width="6" stroke-miterlimit="10" cx="339" cy="61" r="30.9"/><circle fill="#CAEBFC" stroke="#808285" stroke-width="6" stroke-miterlimit="10" cx="226" cy="224.8" r="31.4"/><circle fill="#E2F3F0" stroke="#BCBEC0" stroke-width="6" stroke-miterlimit="10" cx="335.7" cy="60" r="30.9"/><circle fill="#F8F7CB" stroke="#808285" stroke-width="6" stroke-miterlimit="10" cx="390.7" cy="221.8" r="32.1"/><circle opacity=".99" fill="#CAEBFC" stroke="#9D9FA2" stroke-width="6" stroke-miterlimit="10" cx="324.5" cy="52.9" r="11.9"/><circle opacity=".99" fill="#F8F7CB" stroke="#9D9FA2" stroke-width="6" stroke-miterlimit="10" cx="348.5" cy="53.6" r="12.2"/><circle opacity=".99" fill="#F7A8B3" stroke="#9D9FA2" stroke-width="6" stroke-miterlimit="10" cx="335.7" cy="74.2" r="12.2"/><circle fill="#CAEBFC" stroke="#BCBEC0" stroke-width="6" stroke-miterlimit="10" cx="228" cy="68.3" r="30.9"/><path d="M287.39 134.29l-.594-1.204c-.395-.802-.99-1.806-1.682-3.11-1.487-2.508-3.568-5.82-5.95-8.933-2.384-3.113-4.867-6.127-6.855-8.238-.994-1.106-1.89-1.91-2.486-2.514-.498-.403-.696-.704-.696-.704l-8.046 8.256c-1.657-7.81-4.513-15.626-8.77-23.35 8.699.149 17.99 1.6 27.175 4.552l-8.046 8.255.696.704 2.585 2.614c2.088 2.212 4.67 5.327 7.153 8.54 2.382 3.214 4.663 6.626 6.148 9.235a42.71 42.71 0 011.783 3.21c.395.802.693 1.204.693 1.204zM316.742 126.504c1.04-3.78 2.178-7.544 3.613-11.258l.346-.854 10.747 4.236s-.36-1.48-.703-3.666a69.457 69.457 0 01-1.01-8.485c-.47-6.264-.068-12.889-.068-12.889s-.33.148-1.004.542c-.658.295-1.562.853-2.664 1.378-2.238 1.247-5.05 2.904-7.913 4.858-5.709 3.808-11.074 8.586-11.074 8.586l10.747 4.236-.346.855c-1.45 3.812-2.704 7.658-3.662 11.553zM331.808 132.915s.715-.727 1.981-1.93c.66-.643 1.376-1.37 2.284-2.21.908-.84 1.872-1.763 3.028-2.799 4.432-4.03 10.687-9.019 17.28-13.428 6.592-4.409 13.66-8.267 19.131-10.781 2.708-1.215 5-2.344 6.604-2.967l.995-.424-4.332-10.726c9.3.95 18.244 2.623 26.641 5.133a131.33 131.33 0 00-16.649 19.22l-4.387-10.642-.995.424c-1.603.623-3.841 1.668-6.466 2.938-5.332 2.485-12.207 6.23-18.661 10.61-6.538 4.326-12.6 9.202-16.977 13.15-1.102.952-2.065 1.875-2.973 2.714-.908.84-1.623 1.567-2.229 2.127a240.348 240.348 0 00-1.926 1.846z" fill="#d1d3d4"/><circle fill="#CEE7CC" stroke="#808285" stroke-width="6" stroke-miterlimit="10" cx="309.2" cy="157.8" r="30.9"/><circle fill="#CAEBFC" stroke="#808285" stroke-width="6" stroke-miterlimit="10" cx="293.6" cy="156.8" r="15"/><circle fill="#F8F7CB" stroke="#808285" stroke-width="6" stroke-miterlimit="10" cx="324.1" cy="157.8" r="15.4"/><path d="M309.029 192.52s-.074 1.9-.287 4.793c-.113 2.898-.365 6.791-.417 10.692-.052 3.9-.004 7.806.182 10.715.042 1.503.195 2.71.264 3.513.076.604.06 1.003.06 1.003l-11.545.951c4.992 8 10.815 15.233 17.084 21.282 2.233-8.52 5.239-16.308 9.12-23.462l-11.545.95s.015-.4-.061-1.003c-.069-.803-.122-2.006-.167-3.409-.087-2.905-.239-6.714-.19-10.515.047-3.801.2-7.698.412-10.592.113-2.898.287-4.793.287-4.793z" fill="#d1d3d4"/></g></switch></svg>