<?xml version="1.0" encoding="UTF-8" standalone="no"?>
<svg
   viewBox="0 0 595.3 299.99999"
   version="1.1"
   id="svg14095"
   sodipodi:docname="category_nat_external_one.svg"
   inkscape:version="1.2.2 (b0a8486541, 2022-12-01)"
   width="595.29999"
   height="300"
   xmlns:inkscape="http://www.inkscape.org/namespaces/inkscape"
   xmlns:sodipodi="http://sodipodi.sourceforge.net/DTD/sodipodi-0.dtd"
   xmlns="http://www.w3.org/2000/svg"
   xmlns:svg="http://www.w3.org/2000/svg"
   xmlns:rdf="http://www.w3.org/1999/02/22-rdf-syntax-ns#"
   xmlns:cc="http://creativecommons.org/ns#"
   xmlns:dc="http://purl.org/dc/elements/1.1/">
  <metadata
     id="metadata21165">
    <rdf:RDF>
      <cc:Work
         rdf:about="">
        <dc:format>image/svg+xml</dc:format>
        <dc:type
           rdf:resource="http://purl.org/dc/dcmitype/StillImage" />
      </cc:Work>
    </rdf:RDF>
  </metadata>
  <defs
     id="defs14099" />
  <sodipodi:namedview
     id="namedview14097"
     pagecolor="#ffffff"
     bordercolor="#999999"
     borderopacity="1"
     objecttolerance="10.0"
     gridtolerance="10.0"
     guidetolerance="10.0"
     inkscape:pageshadow="0"
     inkscape:pageopacity="0"
     inkscape:pagecheckerboard="0"
     showgrid="false"
     inkscape:zoom="0.65389265"
     inkscape:cx="307.38991"
     inkscape:cy="8.4111666"
     inkscape:window-width="1080"
     inkscape:window-height="1851"
     inkscape:window-x="0"
     inkscape:window-y="0"
     inkscape:window-maximized="1"
     inkscape:current-layer="svg14095"
     inkscape:showpageshadow="2"
     inkscape:deskcolor="#d1d1d1" />
  <g
     id="g18148"
     transform="translate(-13.58652,-8.4276847)">
    <circle
       opacity="0.14"
       stroke="#000000"
       stroke-width="4.9877"
       stroke-miterlimit="10"
       cx="386.73434"
       cy="-166.15492"
       r="25.686672"
       id="circle6394"
       transform="scale(1,-1)" />
    <circle
       fill="#cee7cc"
       stroke="#808285"
       stroke-width="4.9877"
       stroke-miterlimit="10"
       cx="382.59274"
       cy="-163.45747"
       r="25.686672"
       id="circle6396"
       transform="scale(1,-1)"
       style="fill:#cccccc" />
    <g
       id="g1"
       transform="translate(267.23363,-199.38926)">
      <path
         d="m 124.27316,376.32518 -14.57031,-25.25391 h -4.64843 l 14.57031,25.25391 z m -21.75781,-27.20703 h 8.28125 l 14.0625,24.39453 v -24.39453 h 1.95313 v 29.16016 h -8.28125 l -14.0625,-24.39454 v 24.39454 h -1.95313 z"
         id="text2-6"
         style="font-size:40px;line-height:1.25;font-family:'Mell Display 0.6';-inkscape-font-specification:'Mell Display 0.6, ';word-spacing:0px;fill:#ffffff"
         aria-label="ℕ" />
      <path
         d="M 122.39116,375.25571 107.82085,350.0018 h -4.64843 l 14.57031,25.25391 z m -21.75781,-27.20703 h 8.28125 l 14.0625,24.39453 v -24.39453 h 1.95313 v 29.16016 h -8.28125 l -14.0625,-24.39454 v 24.39454 h -1.95313 z"
         id="text2"
         style="font-size:40px;line-height:1.25;font-family:'Mell Display 0.6';-inkscape-font-specification:'Mell Display 0.6, ';word-spacing:0px;fill:#4d4d4d"
         aria-label="ℕ" />
    </g>
  </g>
  <g
     style="display:inline;fill:#dddddd;stroke:#4d4d4d;stroke-width:6.389;stroke-miterlimit:10;stroke-dasharray:none;stroke-opacity:1"
     id="g1482-7-0-7-1-1-7-3-5-2-8-4-8-6"
     transform="matrix(0.15432808,-0.01246294,0.02354454,0.27410858,413.18717,-14.081855)"
     inkscape:transform-center-x="108.13267"
     inkscape:transform-center-y="24.386123">
    <g
       id="g25985-4-8-4"
       style="stroke:#4d4d4d;stroke-opacity:1"
       transform="matrix(0.95896711,0.15682708,-0.49516025,0.96181136,233.93427,113.22149)">
      <path
         inkscape:connector-curvature="0"
         style="fill:#838383;fill-opacity:1;stroke:#4d4d4d;stroke-width:30.0282;stroke-linecap:butt;stroke-linejoin:miter;stroke-dasharray:none;stroke-opacity:1"
         d="m -609.36914,524.31037 14.41784,-35.42618 36.64345,26.90294 z"
         id="path3233-5-4-8-4-4-1-3-3-3"
         inkscape:transform-center-x="0.9901113"
         inkscape:transform-center-y="2.1216647" />
      <path
         style="fill:none;stroke:#4d4d4d;stroke-width:9.11185;stroke-opacity:1;paint-order:markers fill stroke"
         inkscape:connector-curvature="0"
         id="path1480-1-3-3-3-9-1-6-0-7-2-0-1-3"
         d="m -1269.4475,602.67431 c 202.8187,-95.52774 485.40983,-140.37169 729.87494,-81.8668"
         sodipodi:nodetypes="cc" />
    </g>
  </g>
  <g
     style="display:inline;fill:#dddddd;stroke:#4d4d4d;stroke-width:6.389;stroke-miterlimit:10;stroke-dasharray:none;stroke-opacity:1"
     id="g1482-7-0-7-1-1-7-3-5-2-8-4-8-6-3"
     transform="matrix(0.15432808,0.01246294,0.02354454,-0.27410858,363.2488,311.61933)"
     inkscape:transform-center-x="108.13267"
     inkscape:transform-center-y="-24.386124">
    <g
       id="g25985-4-8-4-6"
       style="stroke:#4d4d4d;stroke-opacity:1"
       transform="matrix(0.99414622,-0.06372656,0.20120798,0.99299046,-170.49243,-17.651587)">
      <path
         inkscape:connector-curvature="0"
         style="fill:#838383;fill-opacity:1;stroke:#4d4d4d;stroke-width:30.0282;stroke-linecap:butt;stroke-linejoin:miter;stroke-dasharray:none;stroke-opacity:1"
         d="m -609.36914,524.31037 14.41784,-35.42618 36.64345,26.90294 z"
         id="path3233-5-4-8-4-4-1-3-3-3-7"
         inkscape:transform-center-x="0.9901113"
         inkscape:transform-center-y="2.1216647" />
      <path
         style="fill:none;stroke:#4d4d4d;stroke-width:9.11185;stroke-opacity:1;paint-order:markers fill stroke"
         inkscape:connector-curvature="0"
         id="path1480-1-3-3-3-9-1-6-0-7-2-0-1-3-5"
         d="m -935.53403,482.02216 c 106.34253,-1.01521 259.20809,7.60546 395.96147,38.78535"
         sodipodi:nodetypes="cc" />
    </g>
    <g
       id="g25985-4-8-4-6-2"
       style="display:inline;fill:#dddddd;stroke:#000080;stroke-width:6.389;stroke-miterlimit:10;stroke-dasharray:none;stroke-opacity:1"
       transform="matrix(0.99414622,-0.06372656,0.20120798,0.99299046,187.42674,-0.9638857)">
      <path
         inkscape:connector-curvature="0"
         style="fill:#838383;fill-opacity:1;stroke:#000080;stroke-width:30.0282;stroke-linecap:butt;stroke-linejoin:miter;stroke-dasharray:none;stroke-opacity:1"
         d="m -609.36914,524.31037 14.41784,-35.42618 36.64345,26.90294 z"
         id="path3233-5-4-8-4-4-1-3-3-3-7-9"
         inkscape:transform-center-x="0.9901113"
         inkscape:transform-center-y="2.1216647" />
      <path
         style="fill:none;stroke:#000080;stroke-width:9.11185;stroke-opacity:1;paint-order:markers fill stroke"
         inkscape:connector-curvature="0"
         id="path1480-1-3-3-3-9-1-6-0-7-2-0-1-3-5-1"
         d="m -870.34828,482.75995 c 106.34253,-1.01521 194.02234,6.86767 330.77572,38.04756"
         sodipodi:nodetypes="cc" />
    </g>
  </g>
  <g
     id="g25985-4-8-4-9-6-5"
     style="fill:#dddddd;stroke:#000080;stroke-width:6.389;stroke-miterlimit:10;stroke-dasharray:none;stroke-opacity:1"
     transform="matrix(0.09211902,0.12444505,-0.22028785,0.16481239,542.65266,107.5021)">
    <path
       inkscape:connector-curvature="0"
       style="fill:#838383;fill-opacity:1;stroke:#000080;stroke-width:30.0282;stroke-linecap:butt;stroke-linejoin:miter;stroke-dasharray:none;stroke-opacity:1"
       d="m -610.82873,511.07847 31.54543,-31.75689 21.64098,31.66131 z"
       id="path3233-5-4-8-4-4-1-3-3-3-0-7-6"
       inkscape:transform-center-x="0.85054437"
       inkscape:transform-center-y="2.6837819" />
    <path
       style="fill:none;stroke:#000080;stroke-width:12.1131;stroke-miterlimit:10;stroke-dasharray:none;stroke-opacity:1;paint-order:markers fill stroke"
       inkscape:connector-curvature="0"
       id="path1480-1-3-3-3-9-1-6-0-7-2-0-1-3-9-5-2"
       d="m -606.71912,611.24576 c -297.5466,-18.5633 -147.44663,-186.9147 67.14656,-90.43825"
       sodipodi:nodetypes="cc" />
  </g>
  <g
     id="g18141"
     transform="translate(-23.623083,-1.0333245)">
    <circle
       opacity="0.14"
       stroke="#000000"
       stroke-width="4.9877"
       stroke-miterlimit="10"
       cx="238.01408"
       cy="-160.28084"
       r="25.686672"
       id="circle6394-1"
       transform="scale(1,-1)" />
    <circle
       fill="#cee7cc"
       stroke="#808285"
       stroke-width="4.9877"
       stroke-miterlimit="10"
       cx="233.87248"
       cy="-157.58336"
       r="25.686672"
       id="circle6396-8"
       transform="scale(1,-1)"
       style="fill:#1a1a1a" />
    <g
       aria-label="1"
       id="text8350-5"
       style="font-size:28.9566px;line-height:1.25;word-spacing:0px;fill:#808285;stroke-width:0.723916"
       transform="matrix(1.2512051,0,0,1.2512051,-140.91053,96.909957)">
      <path
         d="m 292.07148,56.117915 h 4.80725 V 42.473814 l -4.9345,1.018005 V 39.78741 l 4.90622,-1.018005 h 5.17486 v 17.34851 h 4.80725 v 3.760965 h -14.76108 z"
         style="font-weight:bold;-inkscape-font-specification:'sans-serif Bold'"
         id="path16332-9" />
    </g>
  </g>
  <path
     d="m 292.90287,107.97517 c 0,3.24636 -0.55426,5.62176 -1.66279,7.20536 -1.10851,1.50442 -2.77129,2.29622 -4.98831,2.29622 -2.21705,0 -3.87982,-0.7918 -4.98834,-2.37538 -1.10851,-1.58361 -1.66277,-3.95901 -1.66277,-7.04701 0,-3.24636 0.55426,-5.70093 1.66277,-7.20535 1.10852,-1.504425 2.77129,-2.296225 4.98834,-2.296225 2.21702,0 3.8798,0.7918 4.98831,2.375405 1.10853,1.5044 1.66279,3.87981 1.66279,7.04698 z m -8.39305,0 c 0,2.05868 0.15829,3.5631 0.39589,4.27571 0.23754,0.79181 0.71261,1.1877 1.34606,1.1877 0.63343,0 1.02932,-0.39589 1.34605,-1.1877 0.23754,-0.7918 0.39589,-2.21703 0.39589,-4.27571 0,-2.05868 -0.1583,-3.4839 -0.39589,-4.2757 -0.23754,-0.7918 -0.71262,-1.26688 -1.34605,-1.26688 -0.63345,0 -1.02936,0.39591 -1.34606,1.18771 -0.23754,0.79181 -0.39589,2.29619 -0.39589,4.35487 z"
     id="path5"
     inkscape:connector-curvature="0"
     style="fill:#4d4d4d;fill-opacity:1;stroke-width:0.791799" />
  <path
     d="m 289.73739,154.09779 h -5.66869 v -10.89453 c 0,-1.32858 0,-2.56862 0.0885,-3.63149 -0.3543,0.44287 -0.79717,0.88573 -1.3286,1.3286 l -2.30291,1.94861 -2.92292,-3.54292 7.08587,-5.75729 h 5.04867 z"
     id="path6"
     inkscape:connector-curvature="0"
     style="fill:#4d4d4d;fill-opacity:1;stroke-width:0.885732" />
  <path
     d="m 362.2265,75.311925 v 3.41091 q -1.32766,-0.59367 -2.59055,-0.8959 -1.26292,-0.30224 -2.38549,-0.30224 -1.4896,0 -2.202,0.41018 -0.71241,0.41017 -0.71241,1.27369 0,0.64765 0.47494,1.01465 0.48574,0.3562 1.74863,0.61525 l 1.77024,0.35621 q 2.6877,0.53969 3.82107,1.64069 1.13338,1.101 1.13338,3.13027 0,2.66612 -1.58673,3.9722 -1.57592,1.2953 -4.82491,1.2953 -1.53276,0 -3.0763,-0.29145 -1.54355,-0.29144 -3.08709,-0.86352 v -3.50806 q 1.54354,0.82035 2.97914,1.24132 1.44639,0.41017 2.78485,0.41017 1.36006,0 2.08325,-0.45336 0.72321,-0.45335 0.72321,-1.29527 0,-0.75559 -0.49653,-1.16576 -0.48572,-0.41019 -1.95373,-0.734 l -1.60831,-0.35621 q -2.41785,-0.51811 -3.54044,-1.65147 -1.11179,-1.13338 -1.11179,-3.05472 0,-2.40707 1.55435,-3.70236 1.55434,-1.29528 4.46874,-1.29528 1.32766,0 2.73088,0.20509 1.40322,0.19429 2.9036,0.59367 z"
     style="font-style:normal;font-variant:normal;font-weight:bold;font-stretch:normal;font-size:59.3674px;line-height:1.25;font-family:good;-inkscape-font-specification:'good Bold';letter-spacing:0px;word-spacing:0px;fill:#000080;fill-opacity:1;stroke:#000080;stroke-width:0.552657;stroke-opacity:1"
     id="path11136-8-3-6-4-8"
     inkscape:connector-curvature="0" />
</svg>
