<?xml version="1.0" encoding="UTF-8" standalone="no"?>
<svg
   xmlns:dc="http://purl.org/dc/elements/1.1/"
   xmlns:cc="http://creativecommons.org/ns#"
   xmlns:rdf="http://www.w3.org/1999/02/22-rdf-syntax-ns#"
   xmlns:svg="http://www.w3.org/2000/svg"
   xmlns="http://www.w3.org/2000/svg"
   xmlns:sodipodi="http://sodipodi.sourceforge.net/DTD/sodipodi-0.dtd"
   xmlns:inkscape="http://www.inkscape.org/namespaces/inkscape"
   viewBox="0 0 598.33174 319.99999"
   version="1.1"
   id="svg14095"
   sodipodi:docname="list_unit_task.svg"
   inkscape:version="0.92.5 (2060ec1f9f, 2020-04-08)"
   width="598.33173"
   height="320">
  <metadata
     id="metadata21165">
    <rdf:RDF>
      <cc:Work
         rdf:about="">
        <dc:format>image/svg+xml</dc:format>
        <dc:type
           rdf:resource="http://purl.org/dc/dcmitype/StillImage" />
        <dc:title></dc:title>
      </cc:Work>
    </rdf:RDF>
  </metadata>
  <defs
     id="defs14099" />
  <sodipodi:namedview
     id="namedview14097"
     pagecolor="#ffffff"
     bordercolor="#999999"
     borderopacity="1"
     objecttolerance="10.0"
     gridtolerance="10.0"
     guidetolerance="10.0"
     inkscape:pageshadow="0"
     inkscape:pageopacity="0"
     inkscape:pagecheckerboard="0"
     showgrid="false"
     inkscape:zoom="1.3077853"
     inkscape:cx="384.81634"
     inkscape:cy="44.41178"
     inkscape:window-width="1920"
     inkscape:window-height="1016"
     inkscape:window-x="0"
     inkscape:window-y="27"
     inkscape:window-maximized="1"
     inkscape:current-layer="svg14095"
     inkscape:showpageshadow="2"
     inkscape:deskcolor="#d1d1d1"
     showguides="true" />
  <g
     transform="matrix(1.0059943,0.04421611,-0.04421611,1.0059943,-745.12307,-381.90551)"
     id="g14089-0-2-3-8" />
  <g
     transform="matrix(1.0059943,0.04421611,-0.04421611,1.0059943,-739.46405,-389.25258)"
     id="g14089-0-2-3-8-4" />
  <g
     transform="matrix(1.0059943,0.04421611,-0.04421611,1.0059943,-80.892994,-692.60444)"
     id="g14089-0-2-3-8-3" />
  <g
     style="stroke:#999999"
     transform="matrix(1.1213401,-0.33211481,0.33211481,1.1213401,-430.63722,276.5379)"
     id="g20709">
    <circle
       style="opacity:0.40200004;fill:#999999;fill-opacity:1;stroke:#999999;stroke-width:4.87011003;stroke-miterlimit:10;stroke-opacity:1"
       id="circle14075-1-6"
       r="93.262611"
       cy="-26.977139"
       cx="479.52991"
       stroke-miterlimit="10"
       transform="rotate(12.639723)" />
    <circle
       style="fill:#e6e7e8;stroke:#999999;stroke-width:2.5618031;stroke-miterlimit:10;stroke-dasharray:none;stroke-opacity:1"
       id="circle14075-1"
       r="93.262611"
       cy="308.37662"
       cx="362.74155"
       stroke-miterlimit="10"
       transform="rotate(-31.370807)" />
  </g>
  <g
     style="stroke:#999999"
     transform="matrix(1.1213401,-0.33211481,0.33211481,1.1213401,-76.480154,241.74783)"
     id="g20709-9-7">
    <circle
       style="opacity:0.40200004;fill:#999999;fill-opacity:1;stroke:#999999;stroke-width:4.87011003;stroke-miterlimit:10;stroke-opacity:1"
       id="circle14075-1-6-2-5"
       r="93.262611"
       cy="-24.764055"
       cx="477.99051"
       stroke-miterlimit="10"
       transform="rotate(12.639723)" />
    <circle
       style="fill:#e6e7e8;stroke:#999999;stroke-width:2.47629571;stroke-miterlimit:10;stroke-dasharray:none;stroke-opacity:1"
       id="circle14075-1-2-3"
       r="93.262611"
       cy="308.37662"
       cx="362.74155"
       stroke-miterlimit="10"
       transform="rotate(-31.370807)" />
  </g>
  <g
     id="g9786-5"
     transform="matrix(0.57985178,0,0,0.57985178,143.41406,198.75049)">
    <g
       transform="matrix(1.4638691,0,0,1.4638691,-49.916473,23.009294)"
       id="g5-2-6-3-62">
      <circle
         style="fill:#ffffff;stroke:#939598;stroke-width:2.31100011;stroke-miterlimit:10;stroke-dasharray:none"
         id="circle5-3-2-5-9-9"
         r="24.6"
         cy="-32.471069"
         cx="392.70529"
         stroke-miterlimit="10" />
    </g>
    <g
       id="g10630-3-2-12"
       transform="matrix(0.77688348,0,0,0.77688348,168.97808,-245.19338)"
       style="stroke-width:3.5408299;stroke-dasharray:none">
      <g
         id="g4492-70"
         transform="translate(0.33782467,1.0122544)"
         style="stroke-width:3.5408299;stroke-dasharray:none">
        <circle
           id="circle4482-9"
           r="22.27364"
           cy="263.41895"
           cx="492.81244"
           stroke-miterlimit="10"
           style="fill:#fff1f1;fill-opacity:1;stroke:#ff0000;stroke-width:3.5408299;stroke-miterlimit:10;stroke-dasharray:none;stroke-opacity:1"
           transform="rotate(2.5166813)" />
        <g
           aria-label="Nil"
           id="g4490-3"
           style="font-weight:bold;font-size:47.79990005px;line-height:1.25;font-family:Sans;-inkscape-font-specification:'Sans Bold';text-align:end;word-spacing:0px;text-anchor:end;fill:#ff0000;fill-opacity:1;stroke-width:6.61116982;stroke-dasharray:none"
           transform="matrix(0.53558268,0,0,0.53558268,405.86593,391.70988)">
          <path
             inkscape:connector-curvature="0"
             d="m 137.02431,-183.61572 h -9.17758 l -14.86577,-25.81195 h -0.1912 q 0.0956,2.4378 0.1912,4.87559 0.1434,2.4378 0.239,4.87559 v 16.06077 h -6.45299 v -34.12913 h 9.12978 l 14.81797,25.57295 h 0.1434 q -0.0478,-2.39 -0.1434,-4.73219 -0.0956,-2.3422 -0.1912,-4.6844 v -16.15636 h 6.50079 z"
             id="path4484-6"
             style="fill:#ff0000;fill-opacity:1;stroke-width:6.61116982;stroke-dasharray:none" />
          <path
             inkscape:connector-curvature="0"
             d="m 148.63967,-219.94365 q 1.5774,0 2.72459,0.7648 1.1472,0.717 1.1472,2.7246 0,1.95979 -1.1472,2.72459 -1.14719,0.7648 -2.72459,0.7648 -1.6252,0 -2.7724,-0.7648 -1.09939,-0.7648 -1.09939,-2.72459 0,-2.0076 1.09939,-2.7246 1.1472,-0.7648 2.7724,-0.7648 z m 3.53719,10.22918 v 26.09875 h -7.12218 v -26.09875 z"
             id="path4486-0"
             style="fill:#ff0000;fill-opacity:1;stroke-width:6.61116982;stroke-dasharray:none" />
          <path
             inkscape:connector-curvature="0"
             d="m 166.75584,-183.61572 h -7.12218 v -36.32793 h 7.12218 z"
             id="path4488-6"
             style="fill:#ff0000;fill-opacity:1;stroke-width:6.61116982;stroke-dasharray:none" />
        </g>
      </g>
      <g
         id="g3711-2"
         transform="translate(0.33782467,1.0122544)"
         style="stroke-width:3.5408299;stroke-dasharray:none">
        <circle
           id="circle14083-2-8-6-5-6-6-3-6"
           r="22.27364"
           cy="263.41895"
           cx="492.81244"
           stroke-miterlimit="10"
           style="fill:#fff1f1;fill-opacity:1;stroke:#ff0000;stroke-width:3.5408299;stroke-miterlimit:10;stroke-dasharray:none;stroke-opacity:1"
           transform="rotate(2.5166813)" />
        <g
           aria-label="Nil"
           id="text3168-1"
           style="font-weight:bold;font-size:47.79990005px;line-height:1.25;font-family:Sans;-inkscape-font-specification:'Sans Bold';text-align:end;word-spacing:0px;text-anchor:end;fill:#ff0000;fill-opacity:1;stroke-width:6.61116982;stroke-dasharray:none"
           transform="matrix(0.53558268,0,0,0.53558268,405.86593,391.70988)">
          <path
             inkscape:connector-curvature="0"
             d="m 137.02431,-183.61572 h -9.17758 l -14.86577,-25.81195 h -0.1912 q 0.0956,2.4378 0.1912,4.87559 0.1434,2.4378 0.239,4.87559 v 16.06077 h -6.45299 v -34.12913 h 9.12978 l 14.81797,25.57295 h 0.1434 q -0.0478,-2.39 -0.1434,-4.73219 -0.0956,-2.3422 -0.1912,-4.6844 v -16.15636 h 6.50079 z"
             id="path3170-8"
             style="fill:#ff0000;fill-opacity:1;stroke-width:6.61116982;stroke-dasharray:none" />
          <path
             inkscape:connector-curvature="0"
             d="m 148.63967,-219.94365 q 1.5774,0 2.72459,0.7648 1.1472,0.717 1.1472,2.7246 0,1.95979 -1.1472,2.72459 -1.14719,0.7648 -2.72459,0.7648 -1.6252,0 -2.7724,-0.7648 -1.09939,-0.7648 -1.09939,-2.72459 0,-2.0076 1.09939,-2.7246 1.1472,-0.7648 2.7724,-0.7648 z m 3.53719,10.22918 v 26.09875 h -7.12218 v -26.09875 z"
             id="path3172-79"
             style="fill:#ff0000;fill-opacity:1;stroke-width:6.61116982;stroke-dasharray:none" />
          <path
             inkscape:connector-curvature="0"
             d="m 166.75584,-183.61572 h -7.12218 v -36.32793 h 7.12218 z"
             id="path3174-2"
             style="fill:#ff0000;fill-opacity:1;stroke-width:6.61116982;stroke-dasharray:none" />
        </g>
      </g>
    </g>
    <circle
       stroke-miterlimit="10"
       cx="507.51358"
       cy="-22.980732"
       r="17.209185"
       id="circle8211-7-8"
       style="fill:#000000;stroke:#666666;stroke-width:3.43484831;stroke-miterlimit:10;stroke-dasharray:none" />
  </g>
  <g
     id="g25985-4-8-4-6"
     style="fill:#dddddd;stroke:#333333;stroke-width:6.38899994;stroke-miterlimit:10;stroke-dasharray:none;stroke-opacity:1"
     transform="matrix(0.14365352,-0.01006914,0.01919425,0.25516294,489.6082,46.034556)">
    <path
       inkscape:connector-curvature="0"
       style="fill:#838383;fill-opacity:1;stroke:#333333;stroke-width:30.02820015;stroke-linecap:butt;stroke-linejoin:miter;stroke-dasharray:none;stroke-opacity:1"
       d="m -609.36914,524.31037 14.41784,-35.42618 36.64345,26.90294 z"
       id="path3233-5-4-8-4-4-1-3-3-3-0"
       inkscape:transform-center-x="0.9901113"
       inkscape:transform-center-y="2.1216647" />
    <path
       style="fill:none;stroke:#333333;stroke-width:9.11184978;stroke-opacity:1;paint-order:markers fill stroke"
       inkscape:connector-curvature="0"
       id="path1480-1-3-3-3-9-1-6-0-7-2-0-1-3-6"
       d="m -2175.4107,709.03534 c 294.856,-150.37789 933.3578,-248.43986 1600.01423,-196.15995"
       sodipodi:nodetypes="cc" />
  </g>
  <g
     id="g10630-3-2-9"
     transform="matrix(0.45047727,0,0,0.45047727,-28.988743,122.54357)"
     style="stroke-width:3.5408299;stroke-dasharray:none">
    <g
       id="g4492-1"
       transform="translate(0.33782467,1.0122544)"
       style="stroke-width:3.5408299;stroke-dasharray:none">
      <circle
         id="circle4482-7"
         r="22.27364"
         cy="263.41895"
         cx="492.81244"
         stroke-miterlimit="10"
         style="fill:#fff1f1;fill-opacity:1;stroke:#ff0000;stroke-width:3.5408299;stroke-miterlimit:10;stroke-dasharray:none;stroke-opacity:1"
         transform="rotate(2.5166813)" />
      <g
         aria-label="Nil"
         id="g4490-7"
         style="font-weight:bold;font-size:47.79990005px;line-height:1.25;font-family:Sans;-inkscape-font-specification:'Sans Bold';text-align:end;word-spacing:0px;text-anchor:end;fill:#ff0000;fill-opacity:1;stroke-width:6.61116982;stroke-dasharray:none"
         transform="matrix(0.53558268,0,0,0.53558268,405.86593,391.70988)">
        <path
           inkscape:connector-curvature="0"
           d="m 137.02431,-183.61572 h -9.17758 l -14.86577,-25.81195 h -0.1912 q 0.0956,2.4378 0.1912,4.87559 0.1434,2.4378 0.239,4.87559 v 16.06077 h -6.45299 v -34.12913 h 9.12978 l 14.81797,25.57295 h 0.1434 q -0.0478,-2.39 -0.1434,-4.73219 -0.0956,-2.3422 -0.1912,-4.6844 v -16.15636 h 6.50079 z"
           id="path4484-1"
           style="fill:#ff0000;fill-opacity:1;stroke-width:6.61116982;stroke-dasharray:none" />
        <path
           inkscape:connector-curvature="0"
           d="m 148.63967,-219.94365 q 1.5774,0 2.72459,0.7648 1.1472,0.717 1.1472,2.7246 0,1.95979 -1.1472,2.72459 -1.14719,0.7648 -2.72459,0.7648 -1.6252,0 -2.7724,-0.7648 -1.09939,-0.7648 -1.09939,-2.72459 0,-2.0076 1.09939,-2.7246 1.1472,-0.7648 2.7724,-0.7648 z m 3.53719,10.22918 v 26.09875 h -7.12218 v -26.09875 z"
           id="path4486-1"
           style="fill:#ff0000;fill-opacity:1;stroke-width:6.61116982;stroke-dasharray:none" />
        <path
           inkscape:connector-curvature="0"
           d="m 166.75584,-183.61572 h -7.12218 v -36.32793 h 7.12218 z"
           id="path4488-5"
           style="fill:#ff0000;fill-opacity:1;stroke-width:6.61116982;stroke-dasharray:none" />
      </g>
    </g>
    <g
       id="g3711-9"
       transform="translate(0.33782467,1.0122544)"
       style="stroke-width:3.5408299;stroke-dasharray:none">
      <circle
         id="circle14083-2-8-6-5-6-6-3-7"
         r="22.27364"
         cy="263.41895"
         cx="492.81244"
         stroke-miterlimit="10"
         style="fill:#fff1f1;fill-opacity:1;stroke:#ff0000;stroke-width:3.5408299;stroke-miterlimit:10;stroke-dasharray:none;stroke-opacity:1"
         transform="rotate(2.5166813)" />
      <g
         aria-label="Nil"
         id="text3168-7"
         style="font-weight:bold;font-size:47.79990005px;line-height:1.25;font-family:Sans;-inkscape-font-specification:'Sans Bold';text-align:end;word-spacing:0px;text-anchor:end;fill:#ff0000;fill-opacity:1;stroke-width:6.61116982;stroke-dasharray:none"
         transform="matrix(0.53558268,0,0,0.53558268,405.86593,391.70988)">
        <path
           inkscape:connector-curvature="0"
           d="m 137.02431,-183.61572 h -9.17758 l -14.86577,-25.81195 h -0.1912 q 0.0956,2.4378 0.1912,4.87559 0.1434,2.4378 0.239,4.87559 v 16.06077 h -6.45299 v -34.12913 h 9.12978 l 14.81797,25.57295 h 0.1434 q -0.0478,-2.39 -0.1434,-4.73219 -0.0956,-2.3422 -0.1912,-4.6844 v -16.15636 h 6.50079 z"
           id="path3170-6"
           style="fill:#ff0000;fill-opacity:1;stroke-width:6.61116982;stroke-dasharray:none" />
        <path
           inkscape:connector-curvature="0"
           d="m 148.63967,-219.94365 q 1.5774,0 2.72459,0.7648 1.1472,0.717 1.1472,2.7246 0,1.95979 -1.1472,2.72459 -1.14719,0.7648 -2.72459,0.7648 -1.6252,0 -2.7724,-0.7648 -1.09939,-0.7648 -1.09939,-2.72459 0,-2.0076 1.09939,-2.7246 1.1472,-0.7648 2.7724,-0.7648 z m 3.53719,10.22918 v 26.09875 h -7.12218 v -26.09875 z"
           id="path3172-7"
           style="fill:#ff0000;fill-opacity:1;stroke-width:6.61116982;stroke-dasharray:none" />
        <path
           inkscape:connector-curvature="0"
           d="m 166.75584,-183.61572 h -7.12218 v -36.32793 h 7.12218 z"
           id="path3174-3"
           style="fill:#ff0000;fill-opacity:1;stroke-width:6.61116982;stroke-dasharray:none" />
      </g>
    </g>
  </g>
  <g
     id="g2307"
     transform="matrix(0.6877886,0,0,0.6877886,111.95618,-84.538999)">
    <circle
       style="opacity:0.13999999;stroke:#000000;stroke-width:2.70163369;stroke-miterlimit:10;stroke-dasharray:none"
       id="circle8173-9"
       r="48.899734"
       cy="192.14197"
       cx="79.574265"
       stroke-miterlimit="10" />
    <circle
       style="fill:#cccccc;stroke:#808285;stroke-width:4.35446072;stroke-miterlimit:10;stroke-dasharray:none"
       id="circle8175-3"
       r="48.899734"
       cy="185.75058"
       cx="73.529671"
       stroke-miterlimit="10" />
  </g>
  <g
     id="g25985-4-8-4-6-5-9-2"
     style="fill:#dddddd;stroke:#333333;stroke-width:6.38899994;stroke-miterlimit:10;stroke-dasharray:none;stroke-opacity:1"
     transform="matrix(0.11331003,0.09245024,0.15894515,-0.20860144,308.23463,346.19748)">
    <path
       inkscape:connector-curvature="0"
       style="fill:#838383;fill-opacity:1;stroke:#333333;stroke-width:30.02820015;stroke-linecap:butt;stroke-linejoin:miter;stroke-dasharray:none;stroke-opacity:1"
       d="m -610.36829,522.13319 29.00273,-32.51034 24.13522,31.07898 z"
       id="path3233-5-4-8-4-4-1-3-3-3-0-5-9-1"
       inkscape:transform-center-x="-0.28992246"
       inkscape:transform-center-y="2.8252085" />
    <path
       style="fill:none;stroke:#333333;stroke-width:9.11184978;stroke-opacity:1;paint-order:markers fill stroke"
       inkscape:connector-curvature="0"
       id="path1480-1-3-3-3-9-1-6-0-7-2-0-1-3-6-2-3-7"
       d="m -2003.0911,530.26872 c 314.5773,-125.22279 945.4268,-198.99871 1427.69463,-17.39333"
       sodipodi:nodetypes="cc" />
  </g>
  <circle
     stroke-miterlimit="10"
     cx="162.45207"
     cy="43.048904"
     r="10.22459"
     id="circle8211-7"
     style="fill:#000000;stroke:#666666;stroke-width:2.04076576;stroke-miterlimit:10;stroke-dasharray:none" />
</svg>
