<?xml version="1.0" encoding="UTF-8" standalone="no"?>
<svg
   xmlns:dc="http://purl.org/dc/elements/1.1/"
   xmlns:cc="http://creativecommons.org/ns#"
   xmlns:rdf="http://www.w3.org/1999/02/22-rdf-syntax-ns#"
   xmlns:svg="http://www.w3.org/2000/svg"
   xmlns="http://www.w3.org/2000/svg"
   xmlns:sodipodi="http://sodipodi.sourceforge.net/DTD/sodipodi-0.dtd"
   xmlns:inkscape="http://www.inkscape.org/namespaces/inkscape"
   viewBox="0 0 595.3 249.99999"
   version="1.1"
   id="svg14095"
   sodipodi:docname="rule_term_elimination.svg"
   inkscape:version="0.92.5 (2060ec1f9f, 2020-04-08)"
   width="595.29999"
   height="250">
  <metadata
     id="metadata21165">
    <rdf:RDF>
      <cc:Work
         rdf:about="">
        <dc:format>image/svg+xml</dc:format>
        <dc:type
           rdf:resource="http://purl.org/dc/dcmitype/StillImage" />
        <dc:title></dc:title>
      </cc:Work>
    </rdf:RDF>
  </metadata>
  <defs
     id="defs14099" />
  <sodipodi:namedview
     id="namedview14097"
     pagecolor="#ffffff"
     bordercolor="#999999"
     borderopacity="1"
     objecttolerance="10.0"
     gridtolerance="10.0"
     guidetolerance="10.0"
     inkscape:pageshadow="0"
     inkscape:pageopacity="0"
     inkscape:pagecheckerboard="0"
     showgrid="false"
     inkscape:zoom="0.92474385"
     inkscape:cx="230.00603"
     inkscape:cy="59.584238"
     inkscape:window-width="1920"
     inkscape:window-height="1016"
     inkscape:window-x="0"
     inkscape:window-y="27"
     inkscape:window-maximized="1"
     inkscape:current-layer="svg14095" />
  <g
     id="g20709"
     transform="rotate(-16.498062,536.21326,768.33332)"
     style="stroke:#999999">
    <circle
       transform="rotate(12.639723)"
       stroke-miterlimit="10"
       cx="482.94019"
       cy="-22.576714"
       r="93.262611"
       id="circle14075-1-6"
       style="opacity:0.40200004;fill:#999999;fill-opacity:1;stroke:#999999;stroke-width:4.87011003;stroke-miterlimit:10;stroke-opacity:1" />
    <circle
       transform="rotate(-31.370807)"
       stroke-miterlimit="10"
       cx="362.74155"
       cy="308.37662"
       r="93.262611"
       id="circle14075-1"
       style="fill:#e6e7e8;stroke:#999999;stroke-width:4.87011003;stroke-miterlimit:10;stroke-opacity:1" />
  </g>
  <g
     id="g2836-2-5-1-0-7-7-3-2-6"
     transform="matrix(2.2417335,1.1757148,-1.1757148,2.2417335,-266.4443,-544.14968)"
     style="opacity:1;fill:#4d4d4d;stroke:#333333">
    <path
       d="m 274.67398,117.15789 c -0.97147,-0.90203 -1.99125,-1.7647 -3.05947,-2.58835 0.008,1.51635 -0.38749,2.52951 -0.44376,4.16717 1.84195,-0.7612 1.93072,-0.76323 3.50323,-1.57882 z"
       id="path1478-7-9-0-19-0-0-3-9-5-2-4-5-5-9-4"
       inkscape:connector-curvature="0"
       style="display:inline;fill:#4d4d4d;stroke:#333333;stroke-width:3.92991328;stroke-miterlimit:10"
       sodipodi:nodetypes="cccc" />
    <path
       sodipodi:nodetypes="cc"
       d="m 196.55807,175.37452 c 11.15453,-44.61802 54.00475,-59.11443 74.94331,-58.285"
       id="path1480-1-3-1-5-7-6-7-2-9-9-3-9-6-3-0"
       inkscape:connector-curvature="0"
       style="display:inline;fill:none;stroke:#333333;stroke-width:1.32415998;stroke-miterlimit:10;stroke-dasharray:none;paint-order:markers fill stroke" />
  </g>
  <g
     id="g2836-2-5-1-0-7-7-3-2-6-6"
     transform="matrix(2.2417335,-1.1757148,-1.1757148,-2.2417335,-248.48955,798.67629)"
     style="opacity:1;fill:#4d4d4d;stroke:#333333">
    <path
       d="m 274.67398,117.15789 c -0.97147,-0.90203 -1.99125,-1.7647 -3.05947,-2.58835 0.008,1.51635 -0.38749,2.52951 -0.44376,4.16717 1.84195,-0.7612 1.93072,-0.76323 3.50323,-1.57882 z"
       id="path1478-7-9-0-19-0-0-3-9-5-2-4-5-5-9-4-2"
       inkscape:connector-curvature="0"
       style="display:inline;fill:#4d4d4d;stroke:#333333;stroke-width:3.92991328;stroke-miterlimit:10"
       sodipodi:nodetypes="cccc" />
    <path
       sodipodi:nodetypes="cc"
       d="m 196.55807,175.37452 c 11.15453,-44.61802 54.00475,-59.11443 74.94331,-58.285"
       id="path1480-1-3-1-5-7-6-7-2-9-9-3-9-6-3-0-9"
       inkscape:connector-curvature="0"
       style="display:inline;fill:none;stroke:#333333;stroke-width:1.32415998;stroke-miterlimit:10;stroke-dasharray:none;paint-order:markers fill stroke" />
  </g>
  <g
     id="g2836-2-5-1-0-7-7-3-2-6-3"
     transform="matrix(2.2417335,1.1757148,-1.1757148,2.2417335,-295.64157,-503.59791)"
     style="opacity:1;fill:#4d4d4d;stroke:#333333">
    <path
       d="m 274.67398,117.15789 c -0.97147,-0.90203 -1.99125,-1.7647 -3.05947,-2.58835 0.008,1.51635 -0.38749,2.52951 -0.44376,4.16717 1.84195,-0.7612 1.93072,-0.76323 3.50323,-1.57882 z"
       id="path1478-7-9-0-19-0-0-3-9-5-2-4-5-5-9-4-6"
       inkscape:connector-curvature="0"
       style="display:inline;fill:#4d4d4d;stroke:#333333;stroke-width:3.92991328;stroke-miterlimit:10"
       sodipodi:nodetypes="cccc" />
    <path
       sodipodi:nodetypes="cc"
       d="m 196.55807,175.37452 c 11.15453,-44.61802 54.00475,-59.11443 74.94331,-58.285"
       id="path1480-1-3-1-5-7-6-7-2-9-9-3-9-6-3-0-7"
       inkscape:connector-curvature="0"
       style="display:inline;fill:none;stroke:#333333;stroke-width:1.32415998;stroke-miterlimit:10;stroke-dasharray:none;paint-order:markers fill stroke" />
  </g>
  <g
     id="g2836-2-5-1-0-7-7-3-2-6-6-5"
     transform="matrix(2.2417335,-1.1757148,-1.1757148,-2.2417335,-295.64157,744.88043)"
     style="opacity:1;fill:#4d4d4d;stroke:#333333">
    <path
       d="m 274.67398,117.15789 c -0.97147,-0.90203 -1.99125,-1.7647 -3.05947,-2.58835 0.008,1.51635 -0.38749,2.52951 -0.44376,4.16717 1.84195,-0.7612 1.93072,-0.76323 3.50323,-1.57882 z"
       id="path1478-7-9-0-19-0-0-3-9-5-2-4-5-5-9-4-2-3"
       inkscape:connector-curvature="0"
       style="display:inline;fill:#4d4d4d;stroke:#333333;stroke-width:3.92991328;stroke-miterlimit:10"
       sodipodi:nodetypes="cccc" />
    <path
       sodipodi:nodetypes="cc"
       d="m 196.55807,175.37452 c 11.15453,-44.61802 54.00475,-59.11443 74.94331,-58.285"
       id="path1480-1-3-1-5-7-6-7-2-9-9-3-9-6-3-0-9-5"
       inkscape:connector-curvature="0"
       style="display:inline;fill:none;stroke:#333333;stroke-width:1.32415998;stroke-miterlimit:10;stroke-dasharray:none;paint-order:markers fill stroke" />
  </g>
  <g
     id="g2836-2-5-1-0-7-7-3-2-6-60"
     transform="matrix(2.0162373,1.5305102,-1.5305102,2.0162373,225.57688,-582.67086)"
     style="opacity:1;fill:#4d4d4d;stroke:#333333">
    <path
       d="m 274.67398,117.15789 c -0.97147,-0.90203 -1.99125,-1.7647 -3.05947,-2.58835 0.008,1.51635 -0.38749,2.52951 -0.44376,4.16717 1.84195,-0.7612 1.93072,-0.76323 3.50323,-1.57882 z"
       id="path1478-7-9-0-19-0-0-3-9-5-2-4-5-5-9-4-62"
       inkscape:connector-curvature="0"
       style="display:inline;fill:#4d4d4d;stroke:#333333;stroke-width:3.92991328;stroke-miterlimit:10"
       sodipodi:nodetypes="cccc" />
    <path
       sodipodi:nodetypes="cc"
       d="m 196.55807,175.37452 c 11.15453,-44.61802 54.00475,-59.11443 74.94331,-58.285"
       id="path1480-1-3-1-5-7-6-7-2-9-9-3-9-6-3-0-6"
       inkscape:connector-curvature="0"
       style="display:inline;fill:none;stroke:#333333;stroke-width:1.32415998;stroke-miterlimit:10;stroke-dasharray:none;paint-order:markers fill stroke" />
  </g>
  <g
     id="g2836-2-5-1-0-7-7-3-2-6-6-1"
     transform="matrix(2.2417335,-1.1757148,-1.1757148,-2.2417335,130.22765,770.01971)"
     style="opacity:1;fill:#4d4d4d;stroke:#333333">
    <path
       d="m 274.67398,117.15789 c -0.97147,-0.90203 -1.99125,-1.7647 -3.05947,-2.58835 0.008,1.51635 -0.38749,2.52951 -0.44376,4.16717 1.84195,-0.7612 1.93072,-0.76323 3.50323,-1.57882 z"
       id="path1478-7-9-0-19-0-0-3-9-5-2-4-5-5-9-4-2-8"
       inkscape:connector-curvature="0"
       style="display:inline;fill:#4d4d4d;stroke:#333333;stroke-width:3.92991328;stroke-miterlimit:10"
       sodipodi:nodetypes="cccc" />
    <path
       sodipodi:nodetypes="cc"
       d="m 199.87563,178.94082 c 19.07272,-30.44019 65.77499,-53.22789 86.71355,-52.39846"
       id="path1480-1-3-1-5-7-6-7-2-9-9-3-9-6-3-0-9-7"
       inkscape:connector-curvature="0"
       style="display:inline;fill:none;stroke:#333333;stroke-width:1.32415998;stroke-miterlimit:10;stroke-dasharray:none;paint-order:markers fill stroke" />
  </g>
  <g
     id="g2836-2-5-1-0-7-7-3-2-6-6-5-2"
     transform="matrix(2.2417335,-1.1757148,-1.1757148,-2.2417335,116.59843,800.57153)"
     style="opacity:1;fill:#4d4d4d;stroke:#333333">
    <path
       d="m 274.67398,117.15789 c -0.97147,-0.90203 -1.99125,-1.7647 -3.05947,-2.58835 0.008,1.51635 -0.38749,2.52951 -0.44376,4.16717 1.84195,-0.7612 1.93072,-0.76323 3.50323,-1.57882 z"
       id="path1478-7-9-0-19-0-0-3-9-5-2-4-5-5-9-4-2-3-3"
       inkscape:connector-curvature="0"
       style="display:inline;fill:#4d4d4d;stroke:#333333;stroke-width:3.92991328;stroke-miterlimit:10"
       sodipodi:nodetypes="cccc" />
    <path
       sodipodi:nodetypes="cc"
       d="m 196.55807,175.37452 c 11.15453,-44.61802 54.00475,-59.11443 74.94331,-58.285"
       id="path1480-1-3-1-5-7-6-7-2-9-9-3-9-6-3-0-9-5-7"
       inkscape:connector-curvature="0"
       style="display:inline;fill:none;stroke:#333333;stroke-width:1.32415998;stroke-miterlimit:10;stroke-dasharray:none;paint-order:markers fill stroke" />
  </g>
</svg>
