<?xml version="1.0" encoding="UTF-8" standalone="no"?>
<svg
   xmlns:dc="http://purl.org/dc/elements/1.1/"
   xmlns:cc="http://creativecommons.org/ns#"
   xmlns:rdf="http://www.w3.org/1999/02/22-rdf-syntax-ns#"
   xmlns:svg="http://www.w3.org/2000/svg"
   xmlns="http://www.w3.org/2000/svg"
   xmlns:sodipodi="http://sodipodi.sourceforge.net/DTD/sodipodi-0.dtd"
   xmlns:inkscape="http://www.inkscape.org/namespaces/inkscape"
   width="595.3"
   height="150"
   version="1.1"
   id="svg1893"
   sodipodi:docname="arrows.svg"
   inkscape:version="1.0.1 (0767f8302a, 2020-10-17)">
  <metadata
     id="metadata1899">
    <rdf:RDF>
      <cc:Work
         rdf:about="">
        <dc:format>image/svg+xml</dc:format>
        <dc:type
           rdf:resource="http://purl.org/dc/dcmitype/StillImage" />
      </cc:Work>
    </rdf:RDF>
  </metadata>
  <defs
     id="defs1897" />
  <sodipodi:namedview
     pagecolor="#ffffff"
     bordercolor="#666666"
     borderopacity="1"
     objecttolerance="10"
     gridtolerance="10"
     guidetolerance="10"
     inkscape:pageopacity="0"
     inkscape:pageshadow="2"
     inkscape:window-width="2276"
     inkscape:window-height="1283"
     id="namedview1895"
     showgrid="false"
     inkscape:snap-bbox="true"
     inkscape:snap-global="true"
     inkscape:zoom="2.3349572"
     inkscape:cx="326.82094"
     inkscape:cy="50.881862"
     inkscape:window-x="0"
     inkscape:window-y="27"
     inkscape:window-maximized="0"
     inkscape:current-layer="g1889" />
  <switch
     transform="translate(0 -209)"
     id="switch1891">
    <g
       i:extraneous="self"
       id="g1889"
       transform="translate(10.178158,5.8979328)">
      <circle
         cx="381.58987"
         cy="291.34216"
         r="30.896246"
         id="circle266-9"
         style="opacity:0.13;stroke:#000000;stroke-width:7.53567;stroke-miterlimit:10" />
      <circle
         cy="119.77"
         cx="454.19"
         stroke-miterlimit="10"
         transform="rotate(22.196)"
         r="33.001999"
         fill="#999491"
         stroke="#858585"
         stroke-width="8.049"
         id="circle1877" />
      <circle
         cx="197.73561"
         cy="292.48212"
         r="30.896246"
         id="circle266-9-3"
         style="opacity:0.13;stroke:#000000;stroke-width:7.53567;stroke-miterlimit:10" />
      <path
         d="m 222.375,263.16 c 0,0 1.349,-0.377 3.681,-0.949 1.228,-0.316 2.577,-0.693 4.235,-1.076 1.658,-0.384 3.438,-0.828 5.526,-1.279 8.045,-1.796 18.933,-3.538 29.841,-4.411 10.909,-0.874 22.025,-0.825 30.314,-0.252 4.084,0.317 7.607,0.473 9.961,0.77 l 1.486,0.14 1.919,-14.87 c 10.605,6.895 20.3,14.39 28.774,22.49 a 189.074,189.074 0 0 0 -32.943,11.372 l 1.797,-14.81 -1.486,-0.142 c -2.353,-0.297 -5.755,-0.513 -9.774,-0.715 -8.102,-0.52 -18.91,-0.575 -29.632,0.352 -10.787,0.813 -21.366,2.549 -29.289,4.284 -1.966,0.39 -3.746,0.835 -5.404,1.218 -1.658,0.384 -3.007,0.76 -4.112,1.016 -2.333,0.572 -3.56,0.888 -3.56,0.888 z"
         fill="#9d539f"
         stroke-width="0.3"
         id="path1879" />
      <path
         d="m 214.522,280.719 c 0,0 1.442,-0.355 3.933,-0.892 1.311,-0.298 2.753,-0.652 4.524,-1.012 1.77,-0.36 3.672,-0.778 5.903,-1.202 8.594,-1.689 20.224,-3.327 31.877,-4.148 11.653,-0.821 23.528,-0.775 32.383,-0.236 4.362,0.298 8.126,0.444 10.64,0.723 l 1.587,0.133 2.05,-13.981 c 11.33,6.483 21.685,13.528 30.738,21.144 -12.459,2.688 -24.296,6.345 -35.19,10.692 l 1.919,-13.925 -1.587,-0.133 c -2.515,-0.279 -6.149,-0.482 -10.442,-0.672 -8.655,-0.488 -20.2,-0.54 -31.654,0.331 -11.522,0.765 -22.823,2.396 -31.287,4.028 -2.1,0.367 -4.002,0.784 -5.773,1.145 -1.77,0.36 -3.212,0.714 -4.393,0.955 -2.491,0.537 -3.802,0.835 -3.802,0.835 z"
         fill="#e90909"
         stroke-width="0.3"
         id="path1881" />
      <path
         d="m 210.41,309.727 c 0,0 1.548,0.389 4.227,0.977 1.409,0.325 2.958,0.714 4.862,1.108 1.903,0.394 3.947,0.851 6.345,1.314 9.236,1.846 21.734,3.628 34.253,4.507 12.519,0.879 25.274,0.798 34.782,0.18 4.684,-0.34 8.726,-0.512 11.426,-0.827 l 1.704,-0.15 2.252,15.456 c 12.145,-7.198 23.243,-15.016 32.939,-23.46 -13.391,-2.943 -26.119,-6.957 -37.836,-11.737 l 2.112,15.395 -1.704,0.15 c -2.7,0.316 -6.602,0.55 -11.213,0.77 -9.294,0.563 -21.695,0.65 -34,-0.286 -12.379,-0.816 -24.522,-2.592 -33.619,-4.376 -2.257,-0.4 -4.301,-0.857 -6.205,-1.251 -1.903,-0.394 -3.452,-0.782 -4.721,-1.045 -2.679,-0.589 -4.088,-0.914 -4.088,-0.914 z"
         fill="#0e2db8"
         stroke-width="0.3"
         id="path1883" />
      <path
         d="m 224.392,302.217 c 0,0 1.346,0.246 3.663,0.59 1.221,0.197 2.567,0.444 4.212,0.665 1.644,0.22 3.414,0.491 5.482,0.736 7.973,1.006 18.687,1.657 29.323,1.412 10.637,-0.246 21.372,-1.463 29.316,-2.923 3.91,-0.755 7.296,-1.285 9.537,-1.838 0.946,-0.2 1.42,-0.302 1.42,-0.302 l 3.517,15.115 c 9.475,-8.215 18.002,-16.95 25.283,-26.183 a 176.183,176.183 0 0 1 -33.099,-8.254 l 3.393,15.064 -1.42,0.302 c -2.24,0.553 -5.502,1.132 -9.363,1.763 -7.77,1.385 -18.205,2.577 -28.667,2.747 -10.512,0.295 -20.927,-0.382 -28.776,-1.338 -1.943,-0.195 -3.713,-0.466 -5.357,-0.687 -1.645,-0.22 -2.99,-0.467 -4.087,-0.615 -2.317,-0.344 -3.538,-0.54 -3.538,-0.54 z"
         fill="#04bd3d"
         stroke-width="0.3"
         id="path1885" />
      <circle
         cy="191.463"
         cx="286.21701"
         stroke-miterlimit="10"
         transform="rotate(22.196)"
         r="33.001999"
         fill="#b5b5b1"
         stroke="#878578"
         stroke-width="8.049"
         id="circle1887" />
    </g>
    <circle
       cx="390.29419"
       cy="297.34653"
       r="31.458786"
       id="circle266"
       style="opacity:0.13;stroke:#000000;stroke-width:7.67287;stroke-miterlimit:10"
       transform="translate(13.672047,18.04996)" />
  </switch>
</svg>
