<?xml version="1.0" encoding="UTF-8" standalone="no"?>
<svg
   viewBox="0 0 595.3 359"
   version="1.1"
   id="svg43401"
   sodipodi:docname="category.svg"
   inkscape:version="1.2.2 (1:1.2.2+202212051552+b0a8486541)"
   xmlns:inkscape="http://www.inkscape.org/namespaces/inkscape"
   xmlns:sodipodi="http://sodipodi.sourceforge.net/DTD/sodipodi-0.dtd"
   xmlns="http://www.w3.org/2000/svg"
   xmlns:svg="http://www.w3.org/2000/svg"
   xmlns:i="&amp;#38;#38;ns_ai;">
  <defs
     id="defs43405" />
  <sodipodi:namedview
     id="namedview43403"
     pagecolor="#ffffff"
     bordercolor="#666666"
     borderopacity="1.0"
     inkscape:showpageshadow="2"
     inkscape:pageopacity="0.0"
     inkscape:pagecheckerboard="0"
     inkscape:deskcolor="#d1d1d1"
     showgrid="false"
     inkscape:zoom="0.87854863"
     inkscape:cx="297.65"
     inkscape:cy="179.84207"
     inkscape:window-width="1080"
     inkscape:window-height="1864"
     inkscape:window-x="0"
     inkscape:window-y="0"
     inkscape:window-maximized="1"
     inkscape:current-layer="g43373" />
  <switch
     id="switch43399">
    <g
       i:extraneous="self"
       id="g43397">
      <g
         stroke-miterlimit="10"
         stroke-width="6"
         id="g43373">
        <circle
           cx="305.3"
           cy="179.5"
           r="154.3"
           stroke="#808285"
           fill="#E6E7E8"
           id="circle43371"
           style="stroke-width:0;stroke-dasharray:none" />
      </g>
      <path
         d="M375.02 106.639s-.808-.622-2.228-1.64c-.742-.546-1.55-1.168-2.565-1.875-1.015-.707-2.096-1.49-3.384-2.356-4.944-3.384-11.825-7.466-18.96-10.928-7.136-3.461-14.667-6.312-20.432-8.05-2.849-.832-5.275-1.634-6.949-2.032l-1.044-.283 2.818-11.22c-9.08 2.218-17.711 5.105-25.684 8.744a131.33 131.33 0 0119.132 16.751l2.883-11.144 1.044.284c1.674.397 4.035 1.124 6.809 2.022 5.623 1.728 12.947 4.494 19.942 7.946 7.07 3.387 13.744 7.384 18.622 10.692 1.222.792 2.303 1.574 3.318 2.28 1.015.708 1.823 1.33 2.5 1.8 1.419 1.019 2.161 1.565 2.161 1.565z"
         fill="#719161"
         stroke-width=".3"
         id="path43375" />
      <path
         d="M284.016 241.926s.796-.638 2.193-1.686c.731-.562 1.526-1.2 2.526-1.928 1-.728 2.065-1.533 3.334-2.427 4.872-3.486 11.666-7.71 18.728-11.32 7.062-3.61 14.532-6.618 20.259-8.476 2.831-.89 5.24-1.744 6.905-2.176l1.038-.305-3.052-11.158c9.126 2.027 17.814 4.733 25.86 8.205a131.33 131.33 0 00-18.777 17.147l-3.115-11.081-1.038.305c-1.665.432-4.01 1.209-6.764 2.164-5.586 1.845-12.852 4.763-19.773 8.36-6.997 3.534-13.586 7.67-18.394 11.08-1.205.816-2.27 1.62-3.27 2.349-1 .728-1.795 1.366-2.462 1.851-1.397 1.048-2.128 1.61-2.128 1.61z"
         fill="#eb0707"
         stroke-width=".3"
         id="path43377" />
      <path
         d="M311.511 158.63s-.737.705-1.957 1.955c-.653.65-1.39 1.356-2.242 2.253-.852.896-1.788 1.847-2.84 2.989-4.09 4.376-9.165 10.561-13.665 17.093-4.5 6.53-8.454 13.545-11.043 18.981-1.252 2.691-2.412 4.968-3.058 6.563l-.438.99-10.665-4.48c.822 9.311 2.372 18.278 4.766 26.709a131.33 131.33 0 0119.447-16.383l-10.58-4.533.437-.99c.646-1.594 1.721-3.817 3.027-6.424 2.558-5.298 6.398-12.12 10.867-18.514 4.415-6.477 9.374-12.471 13.381-16.794.967-1.088 1.904-2.039 2.756-2.935.852-.897 1.589-1.602 2.157-2.2 1.22-1.249 1.872-1.9 1.872-1.9z"
         fill="#ae4444"
         stroke-width=".3"
         id="path43379" />
      <path
         d="M291.066 259.137s1.015-.103 2.746-.337c.915-.112 1.93-.215 3.153-.398 1.223-.183 2.546-.356 4.077-.61 5.918-.933 13.724-2.689 21.289-5.07 7.565-2.382 14.998-5.48 20.383-8.173 2.642-1.351 4.958-2.433 6.447-3.293l.954-.51 5.653 10.092c5.08-7.847 9.374-15.87 12.673-23.99a131.33 131.33 0 01-25.41.954l5.553 10.082-.954.51c-1.49.861-3.705 1.953-6.338 3.205-5.276 2.603-12.5 5.62-19.956 7.912-7.466 2.391-15.063 4.066-20.88 5.01-1.433.263-2.756.436-3.979.619-1.223.183-2.238.285-3.054.407-1.73.235-2.645.347-2.645.347z"
         fill="#1204ee"
         stroke-width=".3"
         id="path43381" />
      <path
         d="M292.828 180.683s.144-1.01.333-2.746c.111-.915.256-1.925.372-3.156.117-1.232.267-2.557.39-4.105.516-5.968.689-13.967.196-21.883-.493-7.915-1.712-15.876-3.031-21.75-.677-2.89-1.17-5.397-1.647-7.05l-.266-1.049 11.156-3.06c-6.395-6.818-13.15-12.916-20.24-18.07a131.33 131.33 0 01-5.183 24.895l11.122-2.967.266 1.049c.477 1.653 1.003 4.066 1.585 6.923 1.259 5.747 2.45 13.485 2.882 21.273.526 7.821.325 15.598-.158 21.472-.089 1.454-.239 2.78-.356 4.01-.116 1.232-.26 2.242-.338 3.063-.19 1.736-.3 2.651-.3 2.651z"
         fill="#b3b73b"
         stroke-width=".3"
         id="path43383" />
      <ellipse
         cy="59.554"
         cx="238.857"
         stroke-miterlimit="10"
         transform="matrix(.92016 .39155 -.36433 .93127 0 0)"
         rx="21.465"
         ry="22.119"
         fill="#b5b5b1"
         stroke="#878578"
         stroke-width="5.315"
         id="ellipse43385" />
      <ellipse
         cy="-38.502"
         cx="281.746"
         stroke-miterlimit="10"
         transform="matrix(.92016 .39155 -.36433 .93127 0 0)"
         rx="21.465"
         ry="22.119"
         fill="#b5b5b1"
         stroke="#878578"
         stroke-width="5.315"
         id="ellipse43387" />
      <ellipse
         cy="38.348"
         cx="336.971"
         stroke-miterlimit="10"
         transform="matrix(.92016 .39155 -.36433 .93127 0 0)"
         rx="21.465"
         ry="22.119"
         fill="#b5b5b1"
         stroke="#878578"
         stroke-width="5.315"
         id="ellipse43389" />
      <ellipse
         cy="129.787"
         cx="343.308"
         stroke-miterlimit="10"
         transform="matrix(.92016 .39155 -.36433 .93127 0 0)"
         rx="21.465"
         ry="22.119"
         fill="#b5b5b1"
         stroke="#878578"
         stroke-width="5.315"
         id="ellipse43391" />
      <ellipse
         cy="41.121"
         cx="434.999"
         stroke-miterlimit="10"
         transform="matrix(.92016 .39155 -.36433 .93127 0 0)"
         rx="21.465"
         ry="22.119"
         fill="#b5b5b1"
         stroke="#878578"
         stroke-width="5.315"
         id="ellipse43393" />
      <ellipse
         cy="-48.866"
         cx="384.153"
         stroke-miterlimit="10"
         transform="matrix(.92016 .39155 -.36433 .93127 0 0)"
         rx="21.465"
         ry="22.119"
         fill="#b5b5b1"
         stroke="#878578"
         stroke-width="5.315"
         id="ellipse43395" />
    </g>
  </switch>
</svg>
