<?xml version="1.0" encoding="UTF-8" standalone="no"?>
<svg
   viewBox="0 0 595.3 200"
   version="1.1"
   id="svg8536"
   sodipodi:docname="coproduct_candidates.svg"
   inkscape:version="1.2.2 (1:1.2.2+202305151914+b0a8486541)"
   width="595.29999"
   height="200"
   xmlns:inkscape="http://www.inkscape.org/namespaces/inkscape"
   xmlns:sodipodi="http://sodipodi.sourceforge.net/DTD/sodipodi-0.dtd"
   xmlns="http://www.w3.org/2000/svg"
   xmlns:svg="http://www.w3.org/2000/svg"
   xmlns:rdf="http://www.w3.org/1999/02/22-rdf-syntax-ns#"
   xmlns:cc="http://creativecommons.org/ns#"
   xmlns:dc="http://purl.org/dc/elements/1.1/">
  <metadata
     id="metadata8542">
    <rdf:RDF>
      <cc:Work
         rdf:about="">
        <dc:format>image/svg+xml</dc:format>
        <dc:type
           rdf:resource="http://purl.org/dc/dcmitype/StillImage" />
      </cc:Work>
    </rdf:RDF>
  </metadata>
  <defs
     id="defs8540" />
  <sodipodi:namedview
     pagecolor="#ffffff"
     bordercolor="#666666"
     borderopacity="1"
     objecttolerance="10"
     gridtolerance="10"
     guidetolerance="10"
     inkscape:pageopacity="0"
     inkscape:pageshadow="2"
     inkscape:window-width="1080"
     inkscape:window-height="1864"
     id="namedview8538"
     showgrid="false"
     inkscape:zoom="2.6625492"
     inkscape:cx="300.46393"
     inkscape:cy="159.24588"
     inkscape:window-x="0"
     inkscape:window-y="0"
     inkscape:window-maximized="1"
     inkscape:current-layer="svg8536"
     inkscape:showpageshadow="2"
     inkscape:pagecheckerboard="0"
     inkscape:deskcolor="#d1d1d1" />
  <circle
     stroke-miterlimit="10"
     cx="383.15869"
     cy="55.240788"
     r="20.697134"
     id="circle7565"
     style="opacity:0.14;stroke:#000000;stroke-width:4.01886;stroke-miterlimit:10" />
  <circle
     stroke-miterlimit="10"
     cx="298.69562"
     cy="109.8973"
     r="20.697134"
     id="circle7567"
     style="opacity:0.14;stroke:#000000;stroke-width:4.01886;stroke-miterlimit:10" />
  <circle
     stroke-miterlimit="10"
     cx="244.1731"
     cy="155.51137"
     r="21.032038"
     id="circle7569"
     style="opacity:0.14;stroke:#000000;stroke-width:4.01886;stroke-miterlimit:10" />
  <circle
     stroke-miterlimit="10"
     cx="353.88797"
     cy="153.50194"
     r="21.500904"
     id="circle7571"
     style="opacity:0.14;stroke:#000000;stroke-width:4.01886;stroke-miterlimit:10" />
  <path
     d="m 350.73519,129.18448 c 0,0 0.14066,-0.95582 0.41863,-2.71742 0.21769,-1.7328 0.60149,-4.21177 0.84463,-7.14219 0.51977,-5.95126 0.81382,-13.94545 -0.15406,-21.786236 -0.0978,-0.99065 -0.25653,-1.95317 -0.41528,-2.91502 -0.15874,-0.96251 -0.31749,-1.92436 -0.53719,-2.85808 -0.15874,-0.96251 -0.49901,-1.83863 -0.71803,-2.77234 l -0.83994,-2.71474 c -1.21236,-3.50244 -2.51916,-6.73628 -3.77974,-9.40079 -1.22844,-2.752916 -2.40931,-4.936498 -3.21442,-6.48175 -0.22908,-0.484272 -0.4039,-0.697942 -0.4039,-0.697942 l -6.88096,3.625013 c 0.36371,-5.655207 0.31213,-11.558914 0.29003,-17.401669 5.08989,2.927071 10.17911,5.854812 15.3199,9.203193 l -6.88096,3.625012 c 0,0 0.11454,0.241802 0.40456,0.697942 0.80512,1.545252 1.95384,3.817918 3.24255,6.542041 1.22844,2.75358 2.62566,6.02025 3.834,9.67205 0.34026,0.87612 0.55996,1.80983 0.86807,2.77503 0.24783,0.994 0.52848,1.89958 0.71536,2.92238 0.24783,0.994 0.40724,1.95584 0.59412,2.97864 0.18755,1.0228 0.28601,2.01412 0.47356,3.03692 0.99266,8.051116 0.69526,16.194666 0.14401,22.235016 -0.27597,3.02018 -0.57001,5.52995 -0.84865,7.29222 -0.27798,1.76161 -0.47892,2.74623 -0.47892,2.74623 z"
     id="path7573"
     inkscape:connector-curvature="0"
     style="fill:#dfeaa8;stroke-width:0.66981" />
  <circle
     stroke-miterlimit="10"
     cx="244.90988"
     cy="50.619099"
     r="20.697134"
     id="circle7575"
     style="opacity:0.14;stroke:#000000;stroke-width:4.01886;stroke-miterlimit:10" />
  <path
     d="m 235.26461,132.20197 c 0,0 -0.067,-0.80377 -0.20095,-2.14339 -0.13396,-1.33962 -0.3349,-3.28207 -0.46886,-5.62641 -0.33491,-4.68867 -0.66981,-10.9179 -0.60283,-17.14714 0,-6.22923 0.3349,-12.525446 0.66981,-17.147136 0.20094,-2.34433 0.40188,-4.28678 0.53585,-5.6264 0.067,-0.46887 0.067,-0.73679 0.067,-0.73679 l -7.70282,-0.87075 c 3.54999,-4.9566 7.23395,-9.645271 11.18583,-14.066018 1.80849,5.559424 3.95188,10.917908 6.3632,16.075448 l -7.70282,-0.87076 c 0,0 0,0.26793 -0.067,0.73679 -0.13396,1.33962 -0.33491,3.28207 -0.53585,5.55943 -0.40189,4.62169 -0.66981,10.783936 -0.66981,17.013176 0,6.16225 0.26792,12.39148 0.60283,17.01317 0.20094,2.34434 0.3349,4.21981 0.46887,5.55943 0.13396,1.33962 0.20094,2.14339 0.20094,2.14339 z"
     id="path7577"
     inkscape:connector-curvature="0"
     style="fill:#e0f3fd;stroke-width:0.066981" />
  <path
     d="m 338.11396,135.91942 c 0,0 -0.66981,-1.47358 -1.80849,-3.95188 -1.20566,-2.54528 -2.8132,-6.09527 -4.88962,-10.38206 -4.15282,-8.57357 -9.91319,-19.89336 -17.21412,-30.208436 -3.61697,-5.15753 -7.63583,-10.04715 -11.72167,-14.26695 -2.00944,-2.143395 -4.15283,-4.018863 -6.22924,-5.76037 -2.07641,-1.741506 -4.15282,-3.215089 -6.09527,-4.554709 -3.8849,-2.67924 -7.30093,-4.62169 -9.71225,-5.96131 l -0.80377,-0.401887 -3.68396,6.832064 c -2.74622,-4.822633 -6.02829,-9.578286 -9.64526,-14.199976 5.82735,-0.870753 11.78866,-1.33962 18.01789,-1.33962 l -3.68396,6.832064 0.80378,0.401886 c 2.47829,1.33962 5.96131,3.349051 9.91319,6.095273 2.00943,1.33962 4.08584,2.947164 6.22923,4.688671 2.14339,1.741506 4.35377,3.750937 6.3632,5.894334 4.2198,4.28678 8.30564,9.31036 11.92262,14.53488 7.36791,10.449026 13.19526,21.835806 17.34808,30.476356 2.07641,4.28678 3.75094,7.90376 4.9566,10.44904 1.13867,2.54527 1.80848,3.95188 1.80848,3.95188 z"
     id="path7579"
     inkscape:connector-curvature="0"
     style="fill:#dfeaa8;stroke-width:0.66981" />
  <path
     d="m 241.98414,131.26223 c 0,0 0.44409,-1.20767 1.22575,-3.30551 a 60.440319,60.440319 0 0 1 1.43675,-3.72884 c 0.59211,-1.39856 1.22575,-3.09385 2.00809,-4.76771 3.02285,-7.01358 7.84348,-16.04128 13.49131,-24.497626 5.64784,-8.45636 12.20729,-16.29983 17.49746,-21.8117 1.29072,-1.419998 2.58211,-2.628335 3.63974,-3.688645 1.12194,-1.081073 2.07441,-2.034883 2.87818,-2.798467 0.38112,-0.338924 0.65641,-0.572687 0.65641,-0.572687 l -5.27944,-5.650519 c 1.50372,-0.361698 2.94381,-0.701292 4.44754,-1.062989 l 4.42543,-0.914961 2.18157,-0.446763 2.22377,-0.3195 4.38391,-0.618234 -1.6062,4.068427 -0.80311,2.034214 -0.71803,2.076411 -1.39455,4.067757 c -0.40121,1.334932 -0.781,2.732825 -1.18221,4.067757 l -5.27945,-5.650518 c 0,0 -0.21166,0.212329 -0.59278,0.551253 -0.8252,0.699952 -1.77767,1.653762 -2.8353,2.714071 -1.0583,1.05964 -2.34903,2.267977 -3.57679,3.667211 -5.24796,5.427472 -11.70158,13.164452 -17.30655,21.535732 -5.60565,8.371956 -10.32111,17.293156 -13.30109,24.222346 -0.76091,1.73749 -1.41598,3.36914 -2.00809,4.76771 -0.59212,1.39856 -1.0141,2.66986 -1.43675,3.72883 -0.78234,2.09785 -1.18355,3.22112 -1.18355,3.22112 z"
     id="path7581"
     inkscape:connector-curvature="0"
     style="fill:#e0f3fd;stroke-width:0.66981" />
  <path
     d="m 361.84801,136.69439 c 0,0 0.24314,-0.72407 0.76559,-1.98666 0.52245,-1.26192 1.17619,-3.08112 1.90494,-5.25332 1.55061,-4.36314 3.47498,-10.24809 5.08386,-16.26433 1.66515,-5.97872 2.97731,-12.0318 3.85945,-16.600566 0.46886,-2.2653 0.71334,-4.19703 0.97658,-5.55273 l 0.0938,-0.74282 -7.66932,-1.18556 c 3.63037,-4.3397 7.16897,-8.90245 10.4477,-13.800772 a 160.28557,160.28557 0 0 1 6.9908,16.528232 l -7.67066,-1.18489 -0.0938,0.74349 c -0.26256,1.35502 -0.50838,3.28676 -0.97658,5.55272 -0.82654,4.604946 -2.23114,10.676776 -3.8782,16.748606 -1.60888,6.01623 -3.57076,11.95678 -5.15821,16.37552 -0.82185,2.19028 -1.47559,4.00948 -1.94245,5.30891 -0.46685,1.29943 -0.76559,1.98666 -0.76559,1.98666 z"
     id="path7583"
     inkscape:connector-curvature="0"
     style="fill:#dfeaa8;stroke-width:0.66981" />
  <path
     d="m 250.22951,134.2402 c 0,0 0.82788,-1.90895 2.1541,-5.20442 0.29405,-0.81985 0.75957,-1.72007 1.24786,-2.68326 0.48896,-0.96319 0.95917,-2.07574 1.49234,-3.16485 0.49298,-1.17552 1.17551,-2.28272 1.83997,-3.53861 0.35232,-0.58474 0.66445,-1.25589 1.03954,-1.9036 0.3751,-0.64838 0.68723,-1.31953 1.12528,-1.94446 3.0684,-5.37456 7.12477,-11.31979 12.09142,-17.222156 4.96664,-5.90303 10.88307,-11.67814 17.4385,-16.65483 6.55543,-4.97669 13.64538,-9.262132 20.6891,-12.426315 3.51248,-1.65644 6.9754,-2.975297 10.32914,-4.191002 3.39527,-1.1293 6.59562,-2.11526 9.55685,-2.830618 6.0082,-1.472242 11.11014,-2.202336 14.69765,-2.479638 0.65775,-0.0489 1.01811,-0.06162 1.01811,-0.06162 l -0.56331,-7.746354 c 2.95788,1.275988 5.74496,2.632353 8.40009,4.155502 2.65579,1.523148 5.24394,3.235183 7.46637,5.171605 -2.7777,0.995337 -5.30758,2.293429 -7.71085,3.637069 -2.40462,1.342299 -4.70877,3.005438 -6.84345,4.588199 l -0.58609,-7.683392 c 0,0 -0.36036,0.0134 -0.95515,0.08373 -3.5232,0.300075 -8.54008,0.98998 -14.39958,2.444807 -2.96123,0.715357 -6.07651,1.661129 -9.38538,2.749571 -3.26867,1.174847 -6.70881,2.430741 -10.13556,4.046993 -6.89503,3.146098 -13.87646,7.329063 -20.26042,12.224043 -6.44692,4.87353 -12.25552,10.54482 -17.11365,16.3447 -4.85813,5.799216 -8.89173,11.681486 -11.85229,16.952226 l -1.12528,1.94446 c -0.3751,0.64837 -0.66445,1.25589 -1.01677,1.84064 -0.64235,1.19293 -1.28403,2.38586 -1.8172,3.47564 -0.53384,1.08911 -1.0449,2.11593 -1.47023,3.10122 -0.48829,0.96386 -0.86808,1.82389 -1.24786,2.68393 -1.38918,3.27269 -2.13133,5.14146 -2.13133,5.14146 z"
     id="path7585"
     inkscape:connector-curvature="0"
     style="fill:#e0f3fd;stroke-width:0.66981"
     sodipodi:nodetypes="ccccccccsccccccccccccccccccccccccc" />
  <path
     d="m 254.83512,136.27576 c 2.14339,-4.62169 5.02358,-8.8415 8.50659,-12.52545 l 0.40188,-0.46887 -5.55942,-5.35848 c 0,0 1.20566,-0.46887 2.94717,-1.00472 1.7415,-0.53584 4.15282,-1.13867 6.63112,-1.54056 2.47829,-0.40189 4.95659,-0.40189 6.76508,-0.067 0.87075,0.13396 1.54056,0.3349 2.00943,0.53585 0.46887,0.20094 0.73679,0.26792 0.73679,0.26792 0,0 -0.20094,0.20095 -0.60283,0.46887 -0.3349,0.3349 -0.80377,0.73679 -1.33962,1.33962 -1.00471,1.20566 -1.94245,2.88018 -2.54528,4.68867 -0.66981,1.80849 -1.13868,3.68396 -1.47358,5.15754 -0.33491,1.4066 -0.40189,2.34433 -0.40189,2.34433 l -5.55942,-5.35848 -0.40189,0.46887 c -3.28207,3.54999 -6.09527,7.56885 -8.1047,11.9896 z"
     id="path7589"
     inkscape:connector-curvature="0"
     style="fill:#808285;stroke-width:0.66981" />
  <ellipse
     stroke-miterlimit="10"
     cx="381.48416"
     cy="54.437016"
     rx="20.161285"
     ry="20.697134"
     id="ellipse7591"
     style="fill:#e8cae1;stroke:#bcbec0;stroke-width:4.01886;stroke-miterlimit:10" />
  <path
     d="m 335.64236,135.39027 c -1.94245,-3.48301 -4.55471,-6.63112 -7.56886,-9.24338 l -0.46887,-0.40189 -4.95659,5.96131 c 0,0 -0.067,-0.20094 -0.13396,-0.60283 -0.067,-0.40188 -0.26793,-0.93773 -0.46887,-1.60754 -0.40189,-1.33962 -1.13868,-3.14811 -2.14339,-4.88961 -0.93774,-1.74151 -2.1434,-3.48302 -3.21509,-4.68868 -0.53585,-0.66981 -0.93774,-1.13867 -1.27264,-1.47358 l -0.53585,-0.53585 c 0,0 0.26793,-0.067 0.73679,-0.20094 0.46887,-0.13396 1.13868,-0.26792 2.00943,-0.40189 1.67453,-0.3349 4.01886,-0.53584 6.43018,-0.46886 2.41132,0 4.88961,0.3349 6.76508,0.66981 0.93774,0.20094 1.74151,0.3349 2.27736,0.46886 0.53585,0.13397 0.87075,0.20095 0.87075,0.20095 l -4.95659,5.96131 0.46886,0.40188 c 3.21509,2.81321 5.96131,6.09528 8.03772,9.84621 z"
     id="path7595"
     inkscape:connector-curvature="0"
     style="fill:#808285;stroke-width:0.66981" />
  <circle
     stroke-miterlimit="10"
     cx="317.11542"
     cy="44.456844"
     r="20.697134"
     id="circle7597"
     style="opacity:0.14;stroke:#000000;stroke-width:4.01886;stroke-miterlimit:10" />
  <circle
     stroke-miterlimit="10"
     cx="241.42686"
     cy="154.17175"
     r="21.032038"
     id="circle7599"
     style="fill:#caebfc;stroke:#808285;stroke-width:4.01886;stroke-miterlimit:10" />
  <circle
     stroke-miterlimit="10"
     cx="314.90503"
     cy="43.787037"
     r="20.697134"
     id="circle7601"
     style="fill:#e2f3f0;stroke:#bcbec0;stroke-width:4.01886;stroke-miterlimit:10" />
  <circle
     stroke-miterlimit="10"
     cx="351.7446"
     cy="152.16232"
     r="21.500904"
     id="circle7603"
     style="fill:#f8f7cb;stroke:#808285;stroke-width:4.01886;stroke-miterlimit:10" />
  <circle
     stroke-miterlimit="10"
     cx="242.76649"
     cy="49.346462"
     r="20.697134"
     id="circle7611"
     style="fill:#caebfc;stroke:#bcbec0;stroke-width:4.01886;stroke-miterlimit:10" />
  <circle
     stroke-miterlimit="10"
     cx="297.15506"
     cy="109.29447"
     r="20.697134"
     id="circle7615"
     style="fill:#cee7cc;stroke:#808285;stroke-width:4.01886;stroke-miterlimit:10" />
</svg>
