<?xml version="1.0" encoding="UTF-8" standalone="no"?>
<svg
   xmlns:dc="http://purl.org/dc/elements/1.1/"
   xmlns:cc="http://creativecommons.org/ns#"
   xmlns:rdf="http://www.w3.org/1999/02/22-rdf-syntax-ns#"
   xmlns:svg="http://www.w3.org/2000/svg"
   xmlns="http://www.w3.org/2000/svg"
   xmlns:sodipodi="http://sodipodi.sourceforge.net/DTD/sodipodi-0.dtd"
   xmlns:inkscape="http://www.inkscape.org/namespaces/inkscape"
   viewBox="0 0 595.3 312"
   version="1.1"
   id="svg8217"
   sodipodi:docname="coproduct.svg"
   inkscape:version="0.92.5 (2060ec1f9f, 2020-04-08)">
  <metadata
     id="metadata8223">
    <rdf:RDF>
      <cc:Work
         rdf:about="">
        <dc:format>image/svg+xml</dc:format>
        <dc:type
           rdf:resource="http://purl.org/dc/dcmitype/StillImage" />
      </cc:Work>
    </rdf:RDF>
  </metadata>
  <defs
     id="defs8221" />
  <sodipodi:namedview
     pagecolor="#ffffff"
     bordercolor="#666666"
     borderopacity="1"
     objecttolerance="10"
     gridtolerance="10"
     guidetolerance="10"
     inkscape:pageopacity="0"
     inkscape:pageshadow="2"
     inkscape:window-width="2560"
     inkscape:window-height="1376"
     id="namedview8219"
     showgrid="false"
     inkscape:zoom="1.926119"
     inkscape:cx="281.32831"
     inkscape:cy="156"
     inkscape:window-x="0"
     inkscape:window-y="27"
     inkscape:window-maximized="1"
     inkscape:current-layer="switch8215" />
  <switch
     id="switch8215"
     style="stroke-width:4;stroke-miterlimit:10;stroke-dasharray:none">
    <g
       id="g8213"
       style="stroke-width:4;stroke-miterlimit:10;stroke-dasharray:none"
       transform="matrix(1,0,0,-1,0,311.89999)">
      <circle
         stroke-miterlimit="10"
         cx="320"
         cy="145.2"
         r="120.4"
         id="circle8169"
         style="opacity:0.13999999;stroke:#000000;stroke-width:4;stroke-miterlimit:10;stroke-dasharray:none" />
      <circle
         stroke-miterlimit="10"
         cx="311.10001"
         cy="141.7"
         r="120.4"
         id="circle8171"
         style="fill:#cee7cc;stroke:#808285;stroke-width:4;stroke-miterlimit:10;stroke-dasharray:none" />
      <circle
         stroke-miterlimit="10"
         cx="118.3"
         cy="218.2"
         r="72.400002"
         id="circle8173"
         style="opacity:0.13999999;stroke:#000000;stroke-width:4;stroke-miterlimit:10;stroke-dasharray:none" />
      <circle
         stroke-miterlimit="10"
         cx="111.1"
         cy="213.60001"
         r="72.400002"
         id="circle8175"
         style="fill:#caebfc;stroke:#808285;stroke-width:4;stroke-miterlimit:10;stroke-dasharray:none" />
      <circle
         stroke-miterlimit="10"
         cx="482.60001"
         cy="239.2"
         r="47.299999"
         id="circle8177"
         style="opacity:0.13999999;stroke:#000000;stroke-width:4;stroke-miterlimit:10;stroke-dasharray:none" />
      <circle
         stroke-miterlimit="10"
         cx="478"
         cy="236.2"
         r="47.299999"
         id="circle8179"
         style="fill:#f8f7cb;stroke:#808285;stroke-width:4;stroke-miterlimit:10;stroke-dasharray:none" />
      <circle
         stroke-miterlimit="10"
         cx="479.90143"
         cy="212.69576"
         r="11.6"
         id="circle8181"
         style="fill:#8967ac;stroke:#651c5f;stroke-width:4;stroke-miterlimit:10;stroke-dasharray:none" />
      <circle
         stroke-miterlimit="10"
         cx="75.501411"
         cy="194.19432"
         r="11.6"
         id="circle8183"
         style="fill:#39bced;stroke:#008dd2;stroke-width:4;stroke-miterlimit:10;stroke-dasharray:none" />
      <circle
         stroke-miterlimit="10"
         cx="120.2"
         cy="208.89999"
         r="11.6"
         id="circle8185"
         style="fill:#54b948;stroke:#00873a;stroke-width:4;stroke-miterlimit:10;stroke-dasharray:none" />
      <circle
         stroke-miterlimit="10"
         cx="241.3"
         cy="100.6"
         r="27"
         id="circle8187"
         style="fill:#caebfc;stroke:#808285;stroke-width:4;stroke-miterlimit:10;stroke-dasharray:none" />
      <circle
         stroke-miterlimit="10"
         cx="241.5"
         cy="100.5"
         r="11.6"
         id="circle8189"
         style="fill:#39bced;stroke:#008dd2;stroke-width:4;stroke-miterlimit:10;stroke-dasharray:none" />
      <circle
         stroke-miterlimit="10"
         cx="294.70001"
         cy="144.60001"
         r="27"
         id="circle8191"
         style="fill:#caebfc;stroke:#808285;stroke-width:4;stroke-miterlimit:10;stroke-dasharray:none" />
      <circle
         stroke-miterlimit="10"
         cx="294.70001"
         cy="144.8"
         r="11.6"
         id="circle8193"
         style="fill:#54b948;stroke:#00873a;stroke-width:4;stroke-miterlimit:10;stroke-dasharray:none" />
      <circle
         stroke-miterlimit="10"
         cx="284"
         cy="218.2"
         r="27"
         id="circle8195"
         style="fill:#caebfc;stroke:#808285;stroke-width:4;stroke-miterlimit:10;stroke-dasharray:none" />
      <circle
         stroke-miterlimit="10"
         cx="372.5"
         cy="134.7"
         r="27.799999"
         id="circle8197"
         style="fill:#f8f7cb;stroke:#808285;stroke-width:4;stroke-miterlimit:10;stroke-dasharray:none" />
      <circle
         stroke-miterlimit="10"
         cx="373.5"
         cy="134.2"
         r="11.6"
         id="circle8199"
         style="fill:#8967ac;stroke:#651c5f;stroke-width:4;stroke-miterlimit:10;stroke-dasharray:none" />
      <circle
         stroke-miterlimit="10"
         cx="355.5"
         cy="202.7"
         r="27.799999"
         id="circle8201"
         style="fill:#f8f7cb;stroke:#808285;stroke-width:4;stroke-miterlimit:10;stroke-dasharray:none" />
      <circle
         stroke-miterlimit="10"
         cx="355.5"
         cy="202.7"
         r="11.6"
         id="circle8203"
         style="fill:#f58235;stroke:#e76524;stroke-width:4;stroke-miterlimit:10;stroke-dasharray:none" />
      <path
         d="m 84.5,184.4 c 0,0 1.2,-1.8 3.4,-4.8 2.1,-3.1 5.4,-7.4 9.3,-12.5 2.1,-2.5 4.3,-5.2 6.7,-7.9 1.3,-1.4 2.5,-2.7 3.8,-4.2 0.7,-0.7 1.3,-1.4 2,-2.2 l 2.1,-2.1 c 1.4,-1.4 2.9,-2.8 4.4,-4.3 1.5,-1.4 3.1,-2.7 4.7,-4.1 l 2.4,-2.1 c 0.8,-0.7 1.7,-1.3 2.5,-2 l 5.1,-3.9 c 1.8,-1.2 3.5,-2.4 5.3,-3.6 0.9,-0.6 1.8,-1.2 2.6,-1.8 0.9,-0.5 1.8,-1.1 2.7,-1.6 1.8,-1.1 3.6,-2.2 5.4,-3.1 1.8,-0.9 3.7,-1.8 5.5,-2.7 0.9,-0.4 1.8,-0.9 2.7,-1.3 0.9,-0.4 1.8,-0.8 2.7,-1.1 1.8,-0.8 3.5,-1.5 5.2,-2.2 l 5.1,-1.8 c 1.6,-0.5 3.2,-1.2 4.7,-1.6 3.1,-0.9 5.9,-1.7 8.4,-2.4 2.6,-0.5 4.8,-1 6.6,-1.4 0.8,-0.2 1.3,-0.3 1.3,-0.3 l 2.2,11.4 c 1.5,-1.5 3.1,-2.8 4.7,-4.1 1.6,-1.4 3.2,-2.7 4.9,-4.1 3.4,-2.6 6.9,-5.1 10.5,-7.7 -3.9,-1.8 -8,-3.7 -12.2,-5.4 -2.1,-0.8 -4.2,-1.6 -6.4,-2.3 -2.2,-0.8 -4.3,-1.6 -6.6,-2.2 l 2.2,11.4 c 0,0 -0.5,0.1 -1.3,0.3 -1.9,0.4 -4.1,0.9 -6.7,1.5 -2.6,0.7 -5.5,1.5 -8.6,2.4 -1.6,0.4 -3.2,1.1 -4.8,1.6 -1.7,0.6 -3.4,1.2 -5.2,1.8 -1.7,0.7 -3.5,1.5 -5.3,2.3 -0.9,0.4 -1.8,0.8 -2.8,1.2 -0.9,0.4 -1.8,0.9 -2.7,1.3 -1.8,0.9 -3.7,1.9 -5.6,2.8 -1.9,1 -3.7,2.1 -5.5,3.2 -0.9,0.5 -1.9,1.1 -2.8,1.6 l -2.7,1.8 c -1.8,1.2 -3.6,2.5 -5.4,3.7 -1.7,1.3 -3.5,2.7 -5.2,4 -0.9,0.7 -1.7,1.3 -2.6,2 l -2.4,2.1 c -1.6,1.4 -3.3,2.8 -4.8,4.2 -1.5,1.5 -3,2.9 -4.5,4.3 -0.7,0.7 -1.5,1.4 -2.2,2.1 -0.7,0.7 -1.4,1.5 -2,2.2 -1.3,1.4 -2.6,2.9 -3.9,4.2 -2.5,2.8 -4.7,5.6 -6.8,8.1 -4,5.1 -7.3,9.5 -9.4,12.6 -2.2,3.1 -3.4,4.9 -3.4,4.9 z m 47.8,19.1 c 0,0 1.6,-1.3 4.3,-3.4 2.7,-2.2 6.7,-5.2 11.4,-8.8 9.6,-7.1 23,-15.8 37.3,-22.7 14.3,-6.9 29.6,-11.6 41.3,-14.1 2.9,-0.6 5.6,-1.1 8,-1.6 2.4,-0.5 4.5,-0.7 6.2,-1 0.8,-0.1 1.3,-0.2 1.3,-0.2 l 1.6,11.5 2.4,-2 c 0.8,-0.7 1.7,-1.3 2.5,-1.9 l 5.1,-3.9 c 3.5,-2.5 7.1,-4.9 10.7,-7.4 -3.9,-1.9 -7.9,-3.9 -12,-5.7 l -6.2,-2.6 c -1,-0.4 -2.1,-0.9 -3.2,-1.3 l -3,-1.4 1.6,11.4 c 0,0 -0.5,0.1 -1.3,0.2 -1.7,0.3 -3.9,0.5 -6.3,1 -2.4,0.5 -5.1,1 -8.1,1.6 -11.8,2.5 -27.4,7.4 -41.9,14.4 -14.6,7 -28.1,15.9 -37.8,23.1 -4.8,3.6 -8.8,6.7 -11.5,8.9 -2.7,2.2 -4.3,3.5 -4.3,3.5 z m 3.9,40.5 c 0,0 1.4,-1 3.9,-2.6 1.2,-0.8 2.7,-1.9 4.5,-3 1.8,-1.1 3.7,-2.3 5.9,-3.7 8.7,-5.3 20.9,-11.6 33.8,-16 12.8,-4.5 26.4,-6.7 36.5,-7.3 1.3,-0.1 2.5,-0.2 3.6,-0.2 1.2,0 2.3,0 3.3,-0.1 2.1,0 3.9,-0.1 5.4,0 h 1.2 l -0.3,11.6 c 1.8,-1 3.6,-2.1 5.4,-3.1 1.9,-0.9 3.7,-1.9 5.7,-2.8 1,-0.5 1.9,-1 2.9,-1.4 l 3,-1.3 6,-2.5 -5.3,-4 -2.7,-2 c -0.9,-0.6 -1.8,-1.3 -2.8,-1.9 -1.9,-1.3 -3.8,-2.5 -5.7,-3.8 -1.9,-1.2 -3.9,-2.3 -6,-3.5 L 234.2,208 H 233 c -1.5,-0.1 -3.4,0 -5.5,0 -1.1,0 -2.2,0 -3.4,0.1 -1.2,0 -2.4,0.2 -3.7,0.2 -10.4,0.7 -24.2,2.8 -37.3,7.5 -13.1,4.5 -25.5,10.9 -34.4,16.3 -2.2,1.4 -4.2,2.6 -6,3.8 -1.8,1.1 -3.3,2.2 -4.5,3 -2.5,1.7 -3.9,2.7 -3.9,2.7 z m 340.2,-44.4 c 0,0 -0.6,-1 -1.6,-2.8 -0.5,-0.9 -1.1,-2 -1.8,-3.2 -0.8,-1.2 -1.7,-2.5 -2.7,-4 -0.2,-0.4 -0.5,-0.7 -0.8,-1.1 -0.3,-0.4 -0.6,-0.7 -0.9,-1.1 -0.6,-0.7 -1.2,-1.5 -1.8,-2.3 -1.2,-1.6 -2.7,-3.1 -4.2,-4.7 -3,-3.2 -6.6,-6.3 -10.3,-9.2 -7.4,-5.8 -15.7,-10.2 -22,-13.2 -3.2,-1.4 -5.9,-2.6 -7.8,-3.3 -0.7,-0.3 -1.1,-0.4 -1.1,-0.4 l 4.2,-10.8 c -9.3,1.1 -18.1,3 -26.5,5.5 6.4,6 12.1,12.4 17,19 l 4.2,-10.8 c 0,0 0.4,0.1 1,0.4 1.9,0.7 4.5,1.9 7.6,3.3 6.2,2.9 14.2,7.3 21.4,12.8 3.6,2.8 7,5.8 9.9,8.9 1.4,1.6 2.9,3 4.1,4.6 0.6,0.8 1.2,1.5 1.8,2.2 0.3,0.4 0.6,0.7 0.8,1 0.2,0.4 0.5,0.7 0.7,1.1 0.9,1.4 1.8,2.7 2.6,3.8 0.7,1.2 1.3,2.2 1.7,3.1 1,1.7 1.5,2.7 1.5,2.7 z m -0.4,48.7 c 0,0 -1,-0.8 -2.7,-2.2 -1.7,-1.4 -4.2,-3.3 -7.3,-5.5 -6.1,-4.3 -14.8,-9.3 -23.8,-13.6 -9,-4.3 -18.2,-8 -25.2,-10.5 -3.5,-1.3 -6.5,-2.2 -8.5,-2.9 -0.4,-0.1 -0.7,-0.2 -0.8,-0.3 -0.2,0 -0.2,-0.1 -0.2,-0.1 l 3.5,-11 c -8.9,1.8 -17.6,4 -26,6.7 6.5,5.9 12.5,12.1 18,18.4 l 3.5,-11 c 0,0 0.1,0 0.2,0.1 0.2,0.1 0.5,0.2 0.8,0.3 2,0.7 5,1.6 8.4,2.9 6.9,2.5 16.1,6.1 24.9,10.4 8.8,4.2 17.4,9.2 23.4,13.3 3,2.1 5.4,3.9 7.1,5.3 1.6,1.4 2.6,2.1 2.6,2.1 z"
         id="path8205"
         style="fill:#808285;stroke-width:4;stroke-miterlimit:10;stroke-dasharray:none"
         inkscape:connector-curvature="0" />
      <circle
         stroke-miterlimit="10"
         cx="486.5"
         cy="256.79999"
         r="11.6"
         id="circle8207"
         style="fill:#f58235;stroke:#e76524;stroke-width:4;stroke-miterlimit:10;stroke-dasharray:none" />
      <circle
         stroke-miterlimit="10"
         cx="284"
         cy="218.2"
         r="11.6"
         id="circle8209"
         style="fill:#f58235;stroke:#e76524;stroke-width:4;stroke-miterlimit:10;stroke-dasharray:none" />
      <circle
         stroke-miterlimit="10"
         cx="123.7"
         cy="249.5"
         r="11.6"
         id="circle8211"
         style="fill:#f58235;stroke:#e76524;stroke-width:4;stroke-miterlimit:10;stroke-dasharray:none" />
    </g>
  </switch>
</svg>
