<?xml version="1.0" encoding="UTF-8" standalone="no"?>
<svg
   viewBox="0 0 595.3 250"
   version="1.1"
   id="svg2847"
   sodipodi:docname="coproduct_external.svg"
   inkscape:version="1.2.2 (1:1.2.2+202305151914+b0a8486541)"
   width="595.29999"
   height="250"
   xmlns:inkscape="http://www.inkscape.org/namespaces/inkscape"
   xmlns:sodipodi="http://sodipodi.sourceforge.net/DTD/sodipodi-0.dtd"
   xmlns="http://www.w3.org/2000/svg"
   xmlns:svg="http://www.w3.org/2000/svg"
   xmlns:rdf="http://www.w3.org/1999/02/22-rdf-syntax-ns#"
   xmlns:cc="http://creativecommons.org/ns#"
   xmlns:dc="http://purl.org/dc/elements/1.1/"
   xmlns:i="&amp;#38;#38;ns_ai;">
  <metadata
     id="metadata2853">
    <rdf:RDF>
      <cc:Work
         rdf:about="">
        <dc:format>image/svg+xml</dc:format>
        <dc:type
           rdf:resource="http://purl.org/dc/dcmitype/StillImage" />
      </cc:Work>
    </rdf:RDF>
  </metadata>
  <defs
     id="defs2851" />
  <sodipodi:namedview
     pagecolor="#ffffff"
     bordercolor="#666666"
     borderopacity="1"
     objecttolerance="10"
     gridtolerance="10"
     guidetolerance="10"
     inkscape:pageopacity="0"
     inkscape:pageshadow="2"
     inkscape:window-width="1080"
     inkscape:window-height="1864"
     id="namedview2849"
     showgrid="false"
     inkscape:zoom="0.52741888"
     inkscape:cx="297.67611"
     inkscape:cy="155.47415"
     inkscape:window-x="0"
     inkscape:window-y="0"
     inkscape:window-maximized="1"
     inkscape:current-layer="svg2847"
     inkscape:showpageshadow="2"
     inkscape:pagecheckerboard="0"
     inkscape:deskcolor="#d1d1d1" />
  <g
     i:extraneous="self"
     id="g2845"
     transform="matrix(0.80243696,0,0,0.80243696,57.182648,9.227506)">
    <circle
       r="57.799999"
       cy="86.099998"
       cx="299.79999"
       stroke-miterlimit="10"
       id="circle2827"
       style="opacity:0.14;stroke:#000000;stroke-width:6;stroke-miterlimit:10" />
    <circle
       r="57.799999"
       cy="84.5"
       cx="295.5"
       stroke-miterlimit="10"
       id="circle2829"
       style="fill:#cee7cc;stroke:#808285;stroke-width:6;stroke-miterlimit:10" />
    <circle
       r="58.700001"
       cy="221.2"
       cx="160.5"
       stroke-miterlimit="10"
       id="circle2831"
       style="opacity:0.14;stroke:#000000;stroke-width:6;stroke-miterlimit:10" />
    <circle
       r="58.700001"
       cy="217.5"
       cx="154.7"
       stroke-miterlimit="10"
       id="circle2833"
       style="fill:#caebfc;stroke:#808285;stroke-width:6;stroke-miterlimit:10" />
    <circle
       r="60.200001"
       cy="223.2"
       cx="439.10001"
       stroke-miterlimit="10"
       id="circle2835"
       style="opacity:0.14;stroke:#000000;stroke-width:6;stroke-miterlimit:10" />
    <circle
       r="60.200001"
       cy="219.3"
       cx="433.20001"
       stroke-miterlimit="10"
       id="circle2837"
       style="fill:#f8f7cb;stroke:#808285;stroke-width:6;stroke-miterlimit:10" />
    <circle
       r="28.200001"
       cy="82.599998"
       cx="266.29999"
       stroke-miterlimit="10"
       id="circle2839"
       style="fill:#caebfc;stroke:#808285;stroke-width:6;stroke-miterlimit:10" />
    <circle
       r="28.9"
       cy="84.400002"
       cx="323.39999"
       stroke-miterlimit="10"
       id="circle2841"
       style="fill:#f8f7cb;stroke:#808285;stroke-width:6;stroke-miterlimit:10" />
    <path
       d="m 417.4,163.44 c 0,0 -0.49,-0.853 -1.451,-2.362 a 177.438,177.438 0 0 0 -4.163,-6.204 c -1.771,-2.53 -3.97,-5.318 -6.39,-8.284 -2.519,-2.956 -5.247,-5.99 -8.163,-8.905 a 141.988,141.988 0 0 0 -8.887,-8.125 c -2.964,-2.407 -5.809,-4.625 -8.303,-6.377 -2.494,-1.752 -4.649,-3.137 -6.254,-4.076 -0.21,-0.079 -0.32,-0.168 -0.43,-0.257 -0.109,-0.089 -0.208,-0.079 -0.318,-0.168 l -0.22,-0.178 5.793,-10.052 c -4.956,-0.29 -9.981,-0.27 -14.834,0.434 -2.377,0.348 -4.733,0.894 -6.98,1.53 -2.236,0.734 -4.362,1.558 -6.259,2.66 a 31.592,31.592 0 0 1 5.02,3.802 c 1.458,1.457 2.817,2.925 3.977,4.413 2.34,3.175 4.194,6.501 5.859,9.948 l 5.793,-10.052 c 0,0 0.11,0.089 0.209,0.079 0.1,-0.01 0.11,0.089 0.22,0.178 0.11,0.089 0.318,0.168 0.428,0.257 1.496,0.85 3.551,2.245 6.045,3.997 2.395,1.762 5.23,3.88 8.094,6.298 2.865,2.417 5.86,5.122 8.667,7.947 2.807,2.826 5.525,5.76 7.933,8.627 2.41,2.867 4.51,5.665 6.27,8.096 1.76,2.431 3.082,4.506 4.043,6.015 0.96,1.508 1.452,2.362 1.452,2.362 z m -233.117,0.763 c 0,0 0.423,-0.843 0.999,-2.203 0.333,-0.734 0.756,-1.577 1.17,-2.52 0.513,-0.952 1.117,-2.013 1.711,-3.174 2.576,-4.66 6.444,-10.547 11.055,-16.001 4.611,-5.454 9.785,-10.258 13.995,-13.566 1.02,-0.899 2.07,-1.5 2.91,-2.18 0.84,-0.682 1.59,-1.254 2.258,-1.618 0.57,-0.355 0.85,-0.582 0.85,-0.582 l 6.518,9.533 a 86.193,86.193 0 0 1 12.76,-21.384 c -8.669,-1.397 -17.922,-1.534 -27.551,-0.33 l 6.518,9.533 -0.95,0.591 c -0.659,0.464 -1.409,1.036 -2.348,1.727 -0.84,0.681 -1.88,1.381 -3,2.29 -4.3,3.416 -9.763,8.347 -14.465,13.91 -4.8,5.573 -8.848,11.677 -11.506,16.547 -0.693,1.17 -1.288,2.33 -1.801,3.282 -0.513,0.952 -0.927,1.895 -1.26,2.63 -0.666,1.468 -1.09,2.31 -1.09,2.31 z"
       id="path2843"
       inkscape:connector-curvature="0"
       style="fill:#808285" />
  </g>
</svg>
