<svg xmlns="http://www.w3.org/2000/svg" viewBox="0 0 595.3 312"><switch><g><circle opacity=".14" stroke="#000" stroke-width="6" stroke-miterlimit="10" cx="320" cy="145.2" r="120.4"/><circle fill="#CEE7CC" stroke="#808285" stroke-width="6" stroke-miterlimit="10" cx="311.1" cy="141.7" r="120.4"/><circle opacity=".14" stroke="#000" stroke-width="6" stroke-miterlimit="10" cx="118.3" cy="218.2" r="72.4"/><circle fill="#CAEBFC" stroke="#808285" stroke-width="6" stroke-miterlimit="10" cx="111.1" cy="213.6" r="72.4"/><circle opacity=".14" stroke="#000" stroke-width="6" stroke-miterlimit="10" cx="482.6" cy="239.2" r="47.3"/><circle fill="#F8F7CB" stroke="#808285" stroke-width="6" stroke-miterlimit="10" cx="478" cy="236.2" r="47.3"/><circle fill="#8967AC" stroke="#651C5F" stroke-width="6" stroke-miterlimit="10" cx="479.6" cy="213.6" r="11.6"/><circle fill="#39BCED" stroke="#008DD2" stroke-width="6" stroke-miterlimit="10" cx="75.2" cy="195.4" r="11.6"/><circle fill="#54B948" stroke="#00873A" stroke-width="6" stroke-miterlimit="10" cx="120.2" cy="208.9" r="11.6"/><circle fill="#CAEBFC" stroke="#808285" stroke-width="6" stroke-miterlimit="10" cx="241.3" cy="100.6" r="27"/><circle fill="#39BCED" stroke="#008DD2" stroke-width="6" stroke-miterlimit="10" cx="241.5" cy="100.5" r="11.6"/><circle fill="#CAEBFC" stroke="#808285" stroke-width="6" stroke-miterlimit="10" cx="294.7" cy="144.6" r="27"/><circle fill="#54B948" stroke="#00873A" stroke-width="6" stroke-miterlimit="10" cx="294.7" cy="144.8" r="11.6"/><circle fill="#CAEBFC" stroke="#808285" stroke-width="6" stroke-miterlimit="10" cx="284" cy="218.2" r="27"/><circle fill="#F8F7CB" stroke="#808285" stroke-width="6" stroke-miterlimit="10" cx="372.5" cy="134.7" r="27.8"/><circle fill="#8967AC" stroke="#651C5F" stroke-width="6" stroke-miterlimit="10" cx="373.5" cy="134.2" r="11.6"/><circle fill="#F8F7CB" stroke="#808285" stroke-width="6" stroke-miterlimit="10" cx="355.5" cy="202.7" r="27.8"/><circle fill="#F58235" stroke="#E76524" stroke-width="6" stroke-miterlimit="10" cx="355.5" cy="202.7" r="11.6"/><path fill="#808285" d="M84.5 184.4s1.2-1.8 3.4-4.8c2.1-3.1 5.4-7.4 9.3-12.5 2.1-2.5 4.3-5.2 6.7-7.9 1.3-1.4 2.5-2.7 3.8-4.2.7-.7 1.3-1.4 2-2.2l2.1-2.1c1.4-1.4 2.9-2.8 4.4-4.3 1.5-1.4 3.1-2.7 4.7-4.1l2.4-2.1c.8-.7 1.7-1.3 2.5-2l5.1-3.9c1.8-1.2 3.5-2.4 5.3-3.6.9-.6 1.8-1.2 2.6-1.8.9-.5 1.8-1.1 2.7-1.6 1.8-1.1 3.6-2.2 5.4-3.1 1.8-.9 3.7-1.8 5.5-2.7.9-.4 1.8-.9 2.7-1.3.9-.4 1.8-.8 2.7-1.1 1.8-.8 3.5-1.5 5.2-2.2l5.1-1.8c1.6-.5 3.2-1.2 4.7-1.6 3.1-.9 5.9-1.7 8.4-2.4 2.6-.5 4.8-1 6.6-1.4.8-.2 1.3-.3 1.3-.3l2.2 11.4c1.5-1.5 3.1-2.8 4.7-4.1 1.6-1.4 3.2-2.7 4.9-4.1 3.4-2.6 6.9-5.1 10.5-7.7-3.9-1.8-8-3.7-12.2-5.4-2.1-.8-4.2-1.6-6.4-2.3-2.2-.8-4.3-1.6-6.6-2.2l2.2 11.4s-.5.1-1.3.3c-1.9.4-4.1.9-6.7 1.5-2.6.7-5.5 1.5-8.6 2.4-1.6.4-3.2 1.1-4.8 1.6-1.7.6-3.4 1.2-5.2 1.8-1.7.7-3.5 1.5-5.3 2.3-.9.4-1.8.8-2.8 1.2-.9.4-1.8.9-2.7 1.3-1.8.9-3.7 1.9-5.6 2.8-1.9 1-3.7 2.1-5.5 3.2-.9.5-1.9 1.1-2.8 1.6l-2.7 1.8c-1.8 1.2-3.6 2.5-5.4 3.7-1.7 1.3-3.5 2.7-5.2 4-.9.7-1.7 1.3-2.6 2l-2.4 2.1c-1.6 1.4-3.3 2.8-4.8 4.2-1.5 1.5-3 2.9-4.5 4.3-.7.7-1.5 1.4-2.2 2.1-.7.7-1.4 1.5-2 2.2-1.3 1.4-2.6 2.9-3.9 4.2-2.5 2.8-4.7 5.6-6.8 8.1-4 5.1-7.3 9.5-9.4 12.6-2.2 3.1-3.4 4.9-3.4 4.9l2.7 1.8zM132.3 203.5s1.6-1.3 4.3-3.4c2.7-2.2 6.7-5.2 11.4-8.8 9.6-7.1 23-15.8 37.3-22.7 14.3-6.9 29.6-11.6 41.3-14.1 2.9-.6 5.6-1.1 8-1.6 2.4-.5 4.5-.7 6.2-1 .8-.1 1.3-.2 1.3-.2l1.6 11.5 2.4-2c.8-.7 1.7-1.3 2.5-1.9l5.1-3.9c3.5-2.5 7.1-4.9 10.7-7.4-3.9-1.9-7.9-3.9-12-5.7l-6.2-2.6c-1-.4-2.1-.9-3.2-1.3l-3-1.4 1.6 11.4s-.5.1-1.3.2c-1.7.3-3.9.5-6.3 1s-5.1 1-8.1 1.6c-11.8 2.5-27.4 7.4-41.9 14.4-14.6 7-28.1 15.9-37.8 23.1-4.8 3.6-8.8 6.7-11.5 8.9-2.7 2.2-4.3 3.5-4.3 3.5l1.9 2.4zM136.2 244s1.4-1 3.9-2.6c1.2-.8 2.7-1.9 4.5-3 1.8-1.1 3.7-2.3 5.9-3.7 8.7-5.3 20.9-11.6 33.8-16 12.8-4.5 26.4-6.7 36.5-7.3 1.3-.1 2.5-.2 3.6-.2 1.2 0 2.3 0 3.3-.1 2.1 0 3.9-.1 5.4 0h1.2l-.3 11.6c1.8-1 3.6-2.1 5.4-3.1 1.9-.9 3.7-1.9 5.7-2.8 1-.5 1.9-1 2.9-1.4l3-1.3 6-2.5-5.3-4-2.7-2c-.9-.6-1.8-1.3-2.8-1.9-1.9-1.3-3.8-2.5-5.7-3.8-1.9-1.2-3.9-2.3-6-3.5l-.3 11.6H233c-1.5-.1-3.4 0-5.5 0-1.1 0-2.2 0-3.4.1-1.2 0-2.4.2-3.7.2-10.4.7-24.2 2.8-37.3 7.5-13.1 4.5-25.5 10.9-34.4 16.3-2.2 1.4-4.2 2.6-6 3.8-1.8 1.1-3.3 2.2-4.5 3-2.5 1.7-3.9 2.7-3.9 2.7l1.9 2.4zM476.4 199.6s-.6-1-1.6-2.8c-.5-.9-1.1-2-1.8-3.2-.8-1.2-1.7-2.5-2.7-4-.2-.4-.5-.7-.8-1.1-.3-.4-.6-.7-.9-1.1-.6-.7-1.2-1.5-1.8-2.3-1.2-1.6-2.7-3.1-4.2-4.7-3-3.2-6.6-6.3-10.3-9.2-7.4-5.8-15.7-10.2-22-13.2-3.2-1.4-5.9-2.6-7.8-3.3-.7-.3-1.1-.4-1.1-.4l4.2-10.8c-9.3 1.1-18.1 3-26.5 5.5 6.4 6 12.1 12.4 17 19l4.2-10.8s.4.1 1 .4c1.9.7 4.5 1.9 7.6 3.3 6.2 2.9 14.2 7.3 21.4 12.8 3.6 2.8 7 5.8 9.9 8.9 1.4 1.6 2.9 3 4.1 4.6.6.8 1.2 1.5 1.8 2.2.3.4.6.7.8 1 .2.4.5.7.7 1.1.9 1.4 1.8 2.7 2.6 3.8.7 1.2 1.3 2.2 1.7 3.1 1 1.7 1.5 2.7 1.5 2.7l3-1.5zM476 248.3s-1-.8-2.7-2.2c-1.7-1.4-4.2-3.3-7.3-5.5-6.1-4.3-14.8-9.3-23.8-13.6-9-4.3-18.2-8-25.2-10.5-3.5-1.3-6.5-2.2-8.5-2.9-.4-.1-.7-.2-.8-.3-.2 0-.2-.1-.2-.1l3.5-11c-8.9 1.8-17.6 4-26 6.7 6.5 5.9 12.5 12.1 18 18.4l3.5-11s.1 0 .2.1c.2.1.5.2.8.3 2 .7 5 1.6 8.4 2.9 6.9 2.5 16.1 6.1 24.9 10.4 8.8 4.2 17.4 9.2 23.4 13.3 3 2.1 5.4 3.9 7.1 5.3 1.6 1.4 2.6 2.1 2.6 2.1l2.1-2.4z"/><circle fill="#F58235" stroke="#E76524" stroke-width="6" stroke-miterlimit="10" cx="486.5" cy="256.8" r="11.6"/><circle fill="#F58235" stroke="#E76524" stroke-width="6" stroke-miterlimit="10" cx="284" cy="218.2" r="11.6"/><circle fill="#F58235" stroke="#E76524" stroke-width="6" stroke-miterlimit="10" cx="123.7" cy="249.5" r="11.6"/></g></switch></svg>