<?xml version="1.0" encoding="UTF-8" standalone="no"?>
<svg
   width="595.29999"
   height="177"
   version="1.1"
   id="svg8680"
   sodipodi:docname="coproduct_product_duality.svg"
   inkscape:version="1.2.2 (1:1.2.2+202305151914+b0a8486541)"
   xmlns:inkscape="http://www.inkscape.org/namespaces/inkscape"
   xmlns:sodipodi="http://sodipodi.sourceforge.net/DTD/sodipodi-0.dtd"
   xmlns="http://www.w3.org/2000/svg"
   xmlns:svg="http://www.w3.org/2000/svg"
   xmlns:rdf="http://www.w3.org/1999/02/22-rdf-syntax-ns#"
   xmlns:cc="http://creativecommons.org/ns#"
   xmlns:dc="http://purl.org/dc/elements/1.1/">
  <metadata
     id="metadata8686">
    <rdf:RDF>
      <cc:Work
         rdf:about="">
        <dc:format>image/svg+xml</dc:format>
        <dc:type
           rdf:resource="http://purl.org/dc/dcmitype/StillImage" />
        <dc:title />
      </cc:Work>
    </rdf:RDF>
  </metadata>
  <defs
     id="defs8684" />
  <sodipodi:namedview
     pagecolor="#ffffff"
     bordercolor="#666666"
     borderopacity="1"
     objecttolerance="10"
     gridtolerance="10"
     guidetolerance="10"
     inkscape:pageopacity="0"
     inkscape:pageshadow="2"
     inkscape:window-width="1080"
     inkscape:window-height="1864"
     id="namedview8682"
     showgrid="false"
     inkscape:zoom="0.99276855"
     inkscape:cx="305.20709"
     inkscape:cy="148.07077"
     inkscape:window-x="0"
     inkscape:window-y="0"
     inkscape:window-maximized="1"
     inkscape:current-layer="text8678-3"
     inkscape:showpageshadow="2"
     inkscape:pagecheckerboard="0"
     inkscape:deskcolor="#d1d1d1"
     inkscape:lockguides="true" />
  <ellipse
     cy="48.283615"
     cx="416.51904"
     stroke-miterlimit="10"
     rx="29.048471"
     ry="28.48292"
     id="ellipse8632"
     style="opacity:0.14;stroke:#000000;stroke-width:2.98567;stroke-miterlimit:10" />
  <ellipse
     cy="47.495079"
     cx="414.35828"
     stroke-miterlimit="10"
     rx="29.048471"
     ry="28.48292"
     id="ellipse8634"
     style="fill:#cee7cc;stroke:#808285;stroke-width:2.98567;stroke-miterlimit:10" />
  <ellipse
     cy="114.8588"
     cx="346.51123"
     stroke-miterlimit="10"
     rx="29.501013"
     ry="28.92638"
     id="ellipse8636"
     style="opacity:0.14;stroke:#000000;stroke-width:2.98567;stroke-miterlimit:10" />
  <ellipse
     cy="113.0355"
     cx="343.59619"
     stroke-miterlimit="10"
     rx="29.501013"
     ry="28.92638"
     id="ellipse8638"
     style="fill:#caebfc;stroke:#808285;stroke-width:2.98567;stroke-miterlimit:10" />
  <ellipse
     cy="115.84409"
     cx="486.5274"
     stroke-miterlimit="10"
     rx="30.254747"
     ry="29.665482"
     id="ellipse8640"
     style="opacity:0.14;stroke:#000000;stroke-width:2.98567;stroke-miterlimit:10" />
  <ellipse
     cy="113.92242"
     cx="483.56244"
     stroke-miterlimit="10"
     rx="30.254747"
     ry="29.665482"
     id="ellipse8642"
     style="fill:#f8f7cb;stroke:#808285;stroke-width:2.98567;stroke-miterlimit:10" />
  <ellipse
     cy="46.558708"
     cx="399.68317"
     stroke-miterlimit="10"
     rx="14.172594"
     ry="13.896629"
     id="ellipse8644"
     style="fill:#caebfc;stroke:#808285;stroke-width:2.98567;stroke-miterlimit:10" />
  <ellipse
     cy="47.445633"
     cx="428.38"
     stroke-miterlimit="10"
     rx="14.524236"
     ry="14.241208"
     id="ellipse8646"
     style="fill:#f8f7cb;stroke:#808285;stroke-width:2.98567;stroke-miterlimit:10" />
  <path
     d="m 475.62202,86.395546 c 0,0 -0.24721,-0.420758 -0.73002,-1.164401 a 87.338135,87.338135 0 0 0 -2.09219,-3.056804 c -0.88995,-1.24714 -1.99533,-2.620911 -3.21119,-4.082466 -1.2658,-1.45651 -2.63655,-2.951363 -4.10264,-4.387693 a 70.868018,70.868018 0 0 0 -4.46589,-4.004267 c -1.48981,-1.186095 -2.91958,-2.27936 -4.17278,-3.142571 -1.25369,-0.862709 -2.33637,-1.545299 -3.14307,-2.007939 -0.10595,-0.0394 -0.16094,-0.0832 -0.21593,-0.12713 -0.0555,-0.0439 -0.10494,-0.0388 -0.16043,-0.0827 l -0.11049,-0.0878 2.91151,-4.95325 c -2.49075,-0.14277 -5.01631,-0.13369 -7.4556,0.21391 -1.19417,0.17103 -2.37824,0.44044 -3.50733,0.75323 -1.12404,0.36224 -2.19258,0.76837 -3.1456,1.31121 a 15.851592,15.851592 0 0 1 2.52254,1.87374 c 0.73304,0.71791 1.41615,1.44087 1.99885,2.17442 1.17651,1.564479 2.10783,3.20362 2.9443,4.902293 l 2.91151,-4.953753 c 0,0 0.0555,0.0439 0.10493,0.0388 0.0505,-0.005 0.0555,0.0439 0.111,0.0883 0.055,0.0439 0.15992,0.0827 0.21492,0.12613 0.75171,0.419247 1.78494,1.106889 3.03813,1.9701 1.20376,0.868255 2.62798,1.912079 4.06784,3.103219 1.43986,1.191139 2.94531,2.524045 4.35591,3.916483 1.4106,1.392438 2.7763,2.838353 3.98711,4.250971 1.21082,1.412618 2.26624,2.791434 3.15064,3.989637 0.88491,1.198203 1.54884,2.220333 2.03216,2.963975 a 33.428596,33.428596 0 0 1 0.72951,1.164401 z m -117.158,0.375857 c 0,0 0.2124,-0.415713 0.50148,-1.085697 0.1675,-0.361732 0.3804,-0.77694 0.58825,-1.241591 0.25781,-0.469191 0.56152,-0.992364 0.86019,-1.56397 1.29456,-2.297017 3.23842,-5.197425 5.55562,-7.885435 2.3172,-2.687506 4.91793,-5.055155 7.03333,-6.68471 0.51308,-0.442957 1.04029,-0.739102 1.46206,-1.074599 0.42227,-0.336001 0.79913,-0.61802 1.13514,-0.79712 0.28655,-0.175064 0.42731,-0.287064 0.42731,-0.287064 l 3.27576,4.697963 a 42.308414,42.308414 0 0 1 6.41228,-10.537625 c -4.35591,-0.68865 -9.00645,-0.75626 -13.84568,-0.16296 l 3.27576,4.69797 -0.47726,0.2911 c -0.33146,0.22854 -0.70833,0.51056 -1.18054,0.8511 -0.42228,0.335497 -0.94444,0.681084 -1.50747,1.128581 -2.1608,1.683034 -4.90683,4.113241 -7.26943,6.854729 -2.41255,2.746029 -4.44723,5.754401 -5.78265,8.153833 -0.34862,0.576147 -0.64729,1.148257 -0.90509,1.617448 -0.25831,0.469191 -0.46616,0.933337 -0.63366,1.295572 -0.33449,0.723463 -0.54739,1.139176 -0.54739,1.139176 z"
     id="path8648"
     style="fill:#808285;stroke-width:0.504506"
     inkscape:connector-curvature="0" />
  <ellipse
     cy="-113.72878"
     cx="181.27425"
     stroke-miterlimit="10"
     rx="29.048471"
     ry="28.48292"
     id="ellipse8650"
     style="opacity:0.14;stroke:#000000;stroke-width:2.98567;stroke-miterlimit:10"
     transform="scale(1,-1)" />
  <ellipse
     cy="-114.51734"
     cx="179.11342"
     stroke-miterlimit="10"
     rx="29.048471"
     ry="28.48292"
     id="ellipse8652"
     style="fill:#cee7cc;stroke:#808285;stroke-width:2.98567;stroke-miterlimit:10"
     transform="scale(1,-1)" />
  <ellipse
     cy="-47.154129"
     cx="111.26591"
     stroke-miterlimit="10"
     rx="29.501013"
     ry="28.92638"
     id="ellipse8654"
     style="opacity:0.14;stroke:#000000;stroke-width:2.98567;stroke-miterlimit:10"
     transform="scale(1,-1)" />
  <ellipse
     cy="-48.977425"
     cx="108.35136"
     stroke-miterlimit="10"
     rx="29.501013"
     ry="28.92638"
     id="ellipse8656"
     style="fill:#caebfc;stroke:#808285;stroke-width:2.98567;stroke-miterlimit:10"
     transform="scale(1,-1)" />
  <ellipse
     cy="-46.168312"
     cx="251.28258"
     stroke-miterlimit="10"
     rx="30.254747"
     ry="29.665482"
     id="ellipse8658"
     style="opacity:0.14;stroke:#000000;stroke-width:2.98567;stroke-miterlimit:10"
     transform="scale(1,-1)" />
  <ellipse
     cy="-48.089973"
     cx="248.31761"
     stroke-miterlimit="10"
     rx="30.254747"
     ry="29.665482"
     id="ellipse8660"
     style="fill:#f8f7cb;stroke:#808285;stroke-width:2.98567;stroke-miterlimit:10"
     transform="scale(1,-1)" />
  <ellipse
     cy="-115.4537"
     cx="164.43837"
     stroke-miterlimit="10"
     rx="14.172594"
     ry="13.896629"
     id="ellipse8662"
     style="fill:#caebfc;stroke:#808285;stroke-width:2.98567;stroke-miterlimit:10"
     transform="scale(1,-1)" />
  <ellipse
     cy="-114.56678"
     cx="193.13518"
     stroke-miterlimit="10"
     rx="14.524236"
     ry="14.241208"
     id="ellipse8664"
     style="fill:#f8f7cb;stroke:#808285;stroke-width:2.98567;stroke-miterlimit:10"
     transform="scale(1,-1)" />
  <path
     d="m 149.91361,106.09057 c 0,0 -0.45204,-0.19676 -1.25622,-0.59129 a 89.797604,89.797604 0 0 1 -3.31713,-1.7244 c -1.35712,-0.73961 -2.86459,-1.67546 -4.47245,-2.71071 -1.60837,-1.084195 -3.26718,-2.266755 -4.87504,-3.547695 a 70.925027,70.925027 0 0 1 -4.52341,-3.94221 c -1.35712,-1.33089 -2.61334,-2.61183 -3.61832,-3.74546 -1.00498,-1.13312 -1.80916,-2.11893 -2.3621,-2.85803 -0.0505,-0.0984 -0.1009,-0.14782 -0.15085,-0.19676 -0.0505,-0.0494 -0.0505,-0.0989 -0.1009,-0.14832 l -0.0999,-0.0984 -4.7242,3.35093 c -0.40209,-2.41457 -0.65333,-4.87858 -0.55294,-7.29314 0.0505,-1.18257 0.2008,-2.36563 0.40209,-3.49876 0.25125,-1.13362 0.55294,-2.21781 1.00498,-3.20361 a 15.6957,15.6957 0 0 0 2.16131,2.26725 c 0.80368,0.64072 1.60786,1.23201 2.41204,1.72491 1.70877,0.9853 3.46798,1.7244 5.27714,2.36512 l -4.7242,3.35094 c 0,0 0.0504,0.0494 0.0504,0.0984 0,0.0494 0.0505,0.0494 0.1004,0.0989 0.0505,0.0489 0.1009,0.14782 0.15085,0.19676 0.50248,0.69016 1.30667,1.62652 2.31164,2.75965 1.00498,1.08468 2.21126,2.36563 3.56838,3.64657 1.35712,1.28144 2.86459,2.61183 4.4225,3.84434 1.55792,1.2315 3.16628,2.41406 4.7242,3.4488 1.55792,1.035255 3.06589,1.922175 4.37256,2.661275 1.30667,0.73911 2.41204,1.28145 3.21623,1.67497 0.80418,0.39452 1.25622,0.59178 1.25622,0.59178 z m 57.29326,-2.95692 c 0,0 0.4021,-0.2462 1.05543,-0.59077 0.35215,-0.19727 0.75373,-0.44397 1.20628,-0.69017 0.45254,-0.29564 0.95503,-0.64072 1.50797,-0.9853 2.21125,-1.478205 4.97544,-3.646575 7.48788,-6.160025 2.51295,-2.51295 4.67425,-5.2726 6.13177,-7.49041 0.40209,-0.54184 0.65334,-1.08418 0.95453,-1.52765 0.30169,-0.44346 0.55294,-0.83748 0.70379,-1.18256 0.15084,-0.29564 0.25124,-0.44346 0.25124,-0.44346 l -5.07584,-2.75965 a 43.290688,43.290688 0 0 0 10.10173,-7.2437 c 1.10538,4.18841 1.60786,8.7219 1.45752,13.5021 l -5.07634,-2.75965 -0.25125,0.49291 c -0.20079,0.34508 -0.45203,0.7391 -0.75373,1.232 -0.30169,0.44346 -0.60288,0.9853 -1.00498,1.57709 -1.50797,2.26674 -3.71922,5.17421 -6.28211,7.7366 -2.56289,2.61183 -5.42798,4.878585 -7.73963,6.406235 -0.55294,0.39402 -1.10588,0.7391 -1.55792,1.03423 -0.45254,0.29615 -0.90508,0.54235 -1.25622,0.73961 a 36.323454,36.323454 0 0 0 -1.10588,0.64072 z"
     id="path8666"
     style="fill:#808285;stroke-width:0.504506"
     inkscape:connector-curvature="0" />
  <g
     aria-label="OR"
     style="font-weight:400;font-size:21.88019943px;line-height:1.25;font-family:sans-serif;letter-spacing:0;word-spacing:0;fill:#7e7e7e;stroke-width:0.54709399"
     id="text8678"
     transform="matrix(0.54720232,0,0,0.54720232,319.34192,73.623613)">
    <g
       aria-label="COPRODUCT"
       style="font-style:normal;font-variant:normal;font-weight:normal;font-stretch:normal;font-size:28.69952393px;line-height:1.25;font-family:'HVD Comic Serif Pro';-inkscape-font-specification:'HVD Comic Serif Pro';letter-spacing:0px;word-spacing:0px;fill:#666666;fill-opacity:1;stroke:none;stroke-width:0.39253342"
       id="text10008">
      <path
         d="m 97.819617,171.73737 q -1.485425,0.77074 -3.09697,1.16312 -1.611546,0.39237 -3.363226,0.39237 -5.227013,0 -8.281943,-2.91479 -3.054929,-2.92881 -3.054929,-7.93161 0,-5.01681 3.054929,-7.9316 3.05493,-2.92881 8.281943,-2.92881 1.75168,0 3.363226,0.39237 1.611545,0.39238 3.09697,1.16312 v 4.33015 q -1.499438,-1.02298 -2.956836,-1.49944 -1.457398,-0.47645 -3.068943,-0.47645 -2.886769,0 -4.540355,1.84977 -1.653585,1.84977 -1.653585,5.10089 0,3.23711 1.653585,5.08688 1.653586,1.84977 4.540355,1.84977 1.611545,0 3.068943,-0.47645 1.457398,-0.47646 2.956836,-1.49944 z"
         style="font-style:normal;font-variant:normal;font-weight:bold;font-stretch:normal;font-family:sans-serif;-inkscape-font-specification:'sans-serif Bold';fill:#666666;stroke-width:0.39253342"
         id="path10067" />
      <path
         d="m 111.84707,155.4958 q -2.46637,0 -3.82567,1.82174 -1.3593,1.82175 -1.3593,5.12892 0,3.29316 1.3593,5.11491 1.3593,1.82174 3.82567,1.82174 2.48038,0 3.83968,-1.82174 1.3593,-1.82175 1.3593,-5.11491 0,-3.30717 -1.3593,-5.12892 -1.3593,-1.82174 -3.83968,-1.82174 z m 0,-3.90975 q 5.04484,0 7.90358,2.88677 2.85874,2.88676 2.85874,7.97364 0,5.07287 -2.85874,7.95964 -2.85874,2.88676 -7.90358,2.88676 -5.03083,0 -7.90358,-2.88676 -2.85874,-2.88677 -2.85874,-7.95964 0,-5.08688 2.85874,-7.97364 2.87275,-2.88677 7.90358,-2.88677 z"
         style="font-style:normal;font-variant:normal;font-weight:bold;font-stretch:normal;font-family:sans-serif;-inkscape-font-specification:'sans-serif Bold';fill:#666666;stroke-width:0.39253342"
         id="path10069" />
      <path
         d="m 126.6873,151.96441 h 8.95459 q 3.99383,0 6.12387,1.77971 2.14406,1.76569 2.14406,5.04483 0,3.29316 -2.14406,5.07287 -2.13004,1.76569 -6.12387,1.76569 h -3.55942 v 7.25896 h -5.39517 z m 5.39517,3.90975 v 5.8436 h 2.98487 q 1.5695,0 2.42432,-0.75672 0.85482,-0.77074 0.85482,-2.17209 0,-1.40134 -0.85482,-2.15807 -0.85482,-0.75672 -2.42432,-0.75672 z"
         style="font-style:normal;font-variant:normal;font-weight:bold;font-stretch:normal;font-family:sans-serif;-inkscape-font-specification:'sans-serif Bold';fill:#666666;stroke-width:0.39253342"
         id="path10071" />
      <path
         d="m 155.38682,161.24131 q 1.69563,0 2.42433,-0.63061 0.74271,-0.6306 0.74271,-2.07399 0,-1.42937 -0.74271,-2.04596 -0.7287,-0.61659 -2.42433,-0.61659 h -2.27017 v 5.36715 z m -2.27017,3.72757 v 7.91759 h -5.39518 v -20.92206 h 8.2399 q 4.13397,0 6.05381,1.38733 1.93385,1.38733 1.93385,4.38621 0,2.07399 -1.00896,3.40526 -0.99496,1.33128 -3.01289,1.96188 1.10706,0.25225 1.97589,1.14911 0.88285,0.88284 1.77971,2.69058 l 2.92881,5.94169 h -5.74551 l -2.55045,-5.19898 q -0.77074,-1.56951 -1.5695,-2.14406 -0.78476,-0.57455 -2.10202,-0.57455 z"
         style="font-style:normal;font-variant:normal;font-weight:bold;font-stretch:normal;font-family:sans-serif;-inkscape-font-specification:'sans-serif Bold';fill:#666666;stroke-width:0.39253342"
         id="path10073" />
      <path
         d="m 179.37783,155.4958 q -2.46636,0 -3.82566,1.82174 -1.35931,1.82175 -1.35931,5.12892 0,3.29316 1.35931,5.11491 1.3593,1.82174 3.82566,1.82174 2.48038,0 3.83969,-1.82174 1.3593,-1.82175 1.3593,-5.11491 0,-3.30717 -1.3593,-5.12892 -1.35931,-1.82174 -3.83969,-1.82174 z m 0,-3.90975 q 5.04484,0 7.90358,2.88677 2.85875,2.88676 2.85875,7.97364 0,5.07287 -2.85875,7.95964 -2.85874,2.88676 -7.90358,2.88676 -5.03082,0 -7.90358,-2.88676 -2.85874,-2.88677 -2.85874,-7.95964 0,-5.08688 2.85874,-7.97364 2.87276,-2.88677 7.90358,-2.88677 z"
         style="font-style:normal;font-variant:normal;font-weight:bold;font-stretch:normal;font-family:sans-serif;-inkscape-font-specification:'sans-serif Bold';fill:#666666;stroke-width:0.39253342"
         id="path10075" />
      <path
         d="m 199.61324,156.04232 v 12.76624 h 1.93385 q 3.30717,0 5.04484,-1.63957 1.75168,-1.63957 1.75168,-4.76457 0,-3.11098 -1.73767,-4.73654 -1.73767,-1.62556 -5.05885,-1.62556 z m -5.39518,-4.07791 h 5.68946 q 4.76457,0 7.0908,0.68666 2.34024,0.67264 4.00784,2.2982 1.47141,1.41536 2.1861,3.26513 0.71468,1.84978 0.71468,4.19002 0,2.36827 -0.71468,4.23206 -0.71469,1.84977 -2.1861,3.26513 -1.68161,1.62556 -4.03587,2.31222 -2.35426,0.67264 -7.06277,0.67264 h -5.68946 z"
         style="font-style:normal;font-variant:normal;font-weight:bold;font-stretch:normal;font-family:sans-serif;-inkscape-font-specification:'sans-serif Bold';fill:#666666;stroke-width:0.39253342"
         id="path10077" />
      <path
         d="m 218.04091,151.96441 h 5.39517 v 12.54203 q 0,2.59248 0.84081,3.71356 0.85482,1.10706 2.77466,1.10706 1.93385,0 2.77466,-1.10706 0.85482,-1.12108 0.85482,-3.71356 v -12.54203 h 5.39517 v 12.54203 q 0,4.44226 -2.22813,6.61434 -2.22814,2.17208 -6.79652,2.17208 -4.55437,0 -6.78251,-2.17208 -2.22813,-2.17208 -2.22813,-6.61434 z"
         style="font-style:normal;font-variant:normal;font-weight:bold;font-stretch:normal;font-family:sans-serif;-inkscape-font-specification:'sans-serif Bold';fill:#666666;stroke-width:0.39253342"
         id="path10079" />
      <path
         d="m 257.93717,171.73737 q -1.48542,0.77074 -3.09697,1.16312 -1.61155,0.39237 -3.36323,0.39237 -5.22701,0 -8.28194,-2.91479 -3.05493,-2.92881 -3.05493,-7.93161 0,-5.01681 3.05493,-7.9316 3.05493,-2.92881 8.28194,-2.92881 1.75168,0 3.36323,0.39237 1.61155,0.39238 3.09697,1.16312 v 4.33015 q -1.49944,-1.02298 -2.95684,-1.49944 -1.45739,-0.47645 -3.06894,-0.47645 -2.88677,0 -4.54035,1.84977 -1.65359,1.84977 -1.65359,5.10089 0,3.23711 1.65359,5.08688 1.65358,1.84977 4.54035,1.84977 1.61155,0 3.06894,-0.47645 1.4574,-0.47646 2.95684,-1.49944 z"
         style="font-style:normal;font-variant:normal;font-weight:bold;font-stretch:normal;font-family:sans-serif;-inkscape-font-specification:'sans-serif Bold';fill:#666666;stroke-width:0.39253342"
         id="path10081" />
      <path
         d="m 259.91306,151.96441 h 19.28249 v 4.07791 h -6.93665 v 16.84415 h -5.39517 v -16.84415 h -6.95067 z"
         style="font-style:normal;font-variant:normal;font-weight:bold;font-stretch:normal;font-family:sans-serif;-inkscape-font-specification:'sans-serif Bold';fill:#666666;stroke-width:0.39253342"
         id="path10083" />
    </g>
    <g
       style="font-style:normal;font-variant:normal;font-weight:normal;font-stretch:normal;font-size:40px;line-height:1.25;font-family:'HVD Comic Serif Pro';-inkscape-font-specification:'HVD Comic Serif Pro';letter-spacing:0px;word-spacing:0px;fill:#000000;fill-opacity:1;stroke:none"
       id="flowRoot10010" />
  </g>
  <g
     transform="matrix(0.54720232,0,0,0.54720232,73.721163,74.185947)"
     aria-label="OR"
     style="font-weight:400;font-size:21.88019943px;line-height:1.25;font-family:sans-serif;letter-spacing:0;word-spacing:0;fill:#7e7e7e;stroke-width:0.54709399"
     id="text8678-3">
    <g
       aria-label="PRODUCT"
       style="font-style:normal;font-variant:normal;font-weight:normal;font-stretch:normal;font-size:28.69952393px;line-height:1.25;font-family:'HVD Comic Serif Pro';-inkscape-font-specification:'HVD Comic Serif Pro';letter-spacing:0px;word-spacing:0px;fill:#666666;fill-opacity:1;stroke:none;stroke-width:0.39253342"
       id="text10008-8">
      <path
         d="m 105.44446,151.25214 h 8.95458 q 3.99383,0 6.12388,1.77971 2.14405,1.76569 2.14405,5.04484 0,3.29316 -2.14405,5.07286 -2.13005,1.7657 -6.12388,1.7657 h -3.55941 v 7.25896 h -5.39517 z m 5.39517,3.90975 v 5.84361 h 2.98486 q 1.56951,0 2.42433,-0.75673 0.85482,-0.77074 0.85482,-2.17208 0,-1.40134 -0.85482,-2.15807 -0.85482,-0.75673 -2.42433,-0.75673 z"
         style="font-style:normal;font-variant:normal;font-weight:bold;font-stretch:normal;font-family:sans-serif;-inkscape-font-specification:'sans-serif Bold';fill:#666666;stroke-width:0.39253342"
         id="path10051" />
      <path
         d="m 134.14398,160.52904 q 1.69563,0 2.42432,-0.6306 0.74272,-0.63061 0.74272,-2.07399 0,-1.42937 -0.74272,-2.04596 -0.72869,-0.6166 -2.42432,-0.6166 h -2.27018 v 5.36715 z m -2.27018,3.72758 v 7.91759 h -5.39517 v -20.92207 h 8.2399 q 4.13396,0 6.05381,1.38734 1.93385,1.38733 1.93385,4.3862 0,2.07399 -1.00897,3.40527 -0.99495,1.33127 -3.01289,1.96188 1.10707,0.25224 1.9759,1.1491 0.88284,0.88285 1.77971,2.69058 l 2.9288,5.9417 h -5.74551 l -2.55044,-5.19899 q -0.77074,-1.5695 -1.56951,-2.14405 -0.78475,-0.57455 -2.10201,-0.57455 z"
         style="font-style:normal;font-variant:normal;font-weight:bold;font-stretch:normal;font-family:sans-serif;-inkscape-font-specification:'sans-serif Bold';fill:#666666;stroke-width:0.39253342"
         id="path10053" />
      <path
         d="m 158.13499,154.78353 q -2.46637,0 -3.82567,1.82175 -1.35931,1.82175 -1.35931,5.12892 0,3.29316 1.35931,5.1149 1.3593,1.82175 3.82567,1.82175 2.48038,0 3.83968,-1.82175 1.3593,-1.82174 1.3593,-5.1149 0,-3.30717 -1.3593,-5.12892 -1.3593,-1.82175 -3.83968,-1.82175 z m 0,-3.90975 q 5.04484,0 7.90358,2.88677 2.85874,2.88677 2.85874,7.97365 0,5.07286 -2.85874,7.95963 -2.85874,2.88677 -7.90358,2.88677 -5.03083,0 -7.90358,-2.88677 -2.85874,-2.88677 -2.85874,-7.95963 0,-5.08688 2.85874,-7.97365 2.87275,-2.88677 7.90358,-2.88677 z"
         style="font-style:normal;font-variant:normal;font-weight:bold;font-stretch:normal;font-family:sans-serif;-inkscape-font-specification:'sans-serif Bold';fill:#666666;stroke-width:0.39253342"
         id="path10055" />
      <path
         d="m 178.37039,155.33006 v 12.76624 h 1.93386 q 3.30717,0 5.04483,-1.63957 1.75168,-1.63958 1.75168,-4.76457 0,-3.11099 -1.73766,-4.73655 -1.73767,-1.62555 -5.05885,-1.62555 z m -5.39517,-4.07792 h 5.68945 q 4.76457,0 7.0908,0.68666 2.34025,0.67265 4.00785,2.29821 1.47141,1.41535 2.18609,3.26513 0.71469,1.84977 0.71469,4.19002 0,2.36827 -0.71469,4.23206 -0.71468,1.84977 -2.18609,3.26513 -1.68162,1.62556 -4.03587,2.31221 -2.35426,0.67265 -7.06278,0.67265 h -5.68945 z"
         style="font-style:normal;font-variant:normal;font-weight:bold;font-stretch:normal;font-family:sans-serif;-inkscape-font-specification:'sans-serif Bold';fill:#666666;stroke-width:0.39253342"
         id="path10057" />
      <path
         d="m 196.79806,151.25214 h 5.39518 v 12.54203 q 0,2.59249 0.8408,3.71356 0.85482,1.10707 2.77466,1.10707 1.93386,0 2.77467,-1.10707 0.85482,-1.12107 0.85482,-3.71356 v -12.54203 h 5.39517 v 12.54203 q 0,4.44226 -2.22814,6.61435 -2.22813,2.17208 -6.79652,2.17208 -4.55436,0 -6.7825,-2.17208 -2.22814,-2.17209 -2.22814,-6.61435 z"
         style="font-style:normal;font-variant:normal;font-weight:bold;font-stretch:normal;font-family:sans-serif;-inkscape-font-specification:'sans-serif Bold';fill:#666666;stroke-width:0.39253342"
         id="path10059" />
      <path
         d="m 236.69433,171.02511 q -1.48543,0.77074 -3.09697,1.16311 -1.61155,0.39238 -3.36323,0.39238 -5.22701,0 -8.28194,-2.9148 -3.05493,-2.9288 -3.05493,-7.9316 0,-5.01681 3.05493,-7.93161 3.05493,-2.92881 8.28194,-2.92881 1.75168,0 3.36323,0.39238 1.61154,0.39237 3.09697,1.16311 v 4.33016 q -1.49944,-1.02298 -2.95684,-1.49944 -1.4574,-0.47646 -3.06894,-0.47646 -2.88677,0 -4.54036,1.84978 -1.65358,1.84977 -1.65358,5.10089 0,3.2371 1.65358,5.08688 1.65359,1.84977 4.54036,1.84977 1.61154,0 3.06894,-0.47646 1.4574,-0.47645 2.95684,-1.49944 z"
         style="font-style:normal;font-variant:normal;font-weight:bold;font-stretch:normal;font-family:sans-serif;-inkscape-font-specification:'sans-serif Bold';fill:#666666;stroke-width:0.39253342"
         id="path10061" />
      <path
         d="m 238.67022,151.25214 h 19.28249 v 4.07792 h -6.93665 v 16.84415 h -5.39518 v -16.84415 h -6.95066 z"
         style="font-style:normal;font-variant:normal;font-weight:bold;font-stretch:normal;font-family:sans-serif;-inkscape-font-specification:'sans-serif Bold';fill:#666666;stroke-width:0.39253342"
         id="path10063" />
    </g>
    <g
       style="font-style:normal;font-variant:normal;font-weight:normal;font-stretch:normal;font-size:40px;line-height:1.25;font-family:'HVD Comic Serif Pro';-inkscape-font-specification:'HVD Comic Serif Pro';letter-spacing:0px;word-spacing:0px;fill:#000000;fill-opacity:1;stroke:none"
       id="flowRoot10010-6" />
  </g>
</svg>
