<?xml version="1.0" encoding="UTF-8" standalone="no"?>
<svg
   width="595.29999"
   height="277"
   version="1.1"
   id="svg8680"
   sodipodi:docname="coproduct_product_duality.svg"
   inkscape:version="1.2.2 (1:1.2.2+202305151914+b0a8486541)"
   xmlns:inkscape="http://www.inkscape.org/namespaces/inkscape"
   xmlns:sodipodi="http://sodipodi.sourceforge.net/DTD/sodipodi-0.dtd"
   xmlns="http://www.w3.org/2000/svg"
   xmlns:svg="http://www.w3.org/2000/svg"
   xmlns:rdf="http://www.w3.org/1999/02/22-rdf-syntax-ns#"
   xmlns:cc="http://creativecommons.org/ns#"
   xmlns:dc="http://purl.org/dc/elements/1.1/">
  <metadata
     id="metadata8686">
    <rdf:RDF>
      <cc:Work
         rdf:about="">
        <dc:format>image/svg+xml</dc:format>
        <dc:type
           rdf:resource="http://purl.org/dc/dcmitype/StillImage" />
      </cc:Work>
    </rdf:RDF>
  </metadata>
  <defs
     id="defs8684" />
  <sodipodi:namedview
     pagecolor="#ffffff"
     bordercolor="#666666"
     borderopacity="1"
     objecttolerance="10"
     gridtolerance="10"
     guidetolerance="10"
     inkscape:pageopacity="0"
     inkscape:pageshadow="2"
     inkscape:window-width="1080"
     inkscape:window-height="1864"
     id="namedview8682"
     showgrid="false"
     inkscape:zoom="0.70199337"
     inkscape:cx="280.62943"
     inkscape:cy="160.97018"
     inkscape:window-x="0"
     inkscape:window-y="0"
     inkscape:window-maximized="1"
     inkscape:current-layer="svg8680"
     inkscape:showpageshadow="2"
     inkscape:pagecheckerboard="0"
     inkscape:deskcolor="#d1d1d1"
     inkscape:lockguides="false"
     showguides="true" />
  <g
     aria-label="OR"
     style="font-weight:400;font-size:21.8802px;line-height:1.25;font-family:sans-serif;letter-spacing:0;word-spacing:0;fill:#7e7e7e;stroke-width:0.547094"
     id="text8678"
     transform="matrix(0.54720232,0,0,0.54720232,314.3642,169.55796)">
    <g
       aria-label="COPRODUCT"
       style="font-style:normal;font-variant:normal;font-weight:normal;font-stretch:normal;font-size:28.6995px;line-height:1.25;font-family:'HVD Comic Serif Pro';-inkscape-font-specification:'HVD Comic Serif Pro';letter-spacing:0px;word-spacing:0px;fill:#666666;fill-opacity:1;stroke:none;stroke-width:0.392533"
       id="text10008">
      <path
         d="m 97.819617,171.73737 q -1.485425,0.77074 -3.09697,1.16312 -1.611546,0.39237 -3.363226,0.39237 -5.227013,0 -8.281943,-2.91479 -3.054929,-2.92881 -3.054929,-7.93161 0,-5.01681 3.054929,-7.9316 3.05493,-2.92881 8.281943,-2.92881 1.75168,0 3.363226,0.39237 1.611545,0.39238 3.09697,1.16312 v 4.33015 q -1.499438,-1.02298 -2.956836,-1.49944 -1.457398,-0.47645 -3.068943,-0.47645 -2.886769,0 -4.540355,1.84977 -1.653585,1.84977 -1.653585,5.10089 0,3.23711 1.653585,5.08688 1.653586,1.84977 4.540355,1.84977 1.611545,0 3.068943,-0.47645 1.457398,-0.47646 2.956836,-1.49944 z"
         style="font-style:normal;font-variant:normal;font-weight:bold;font-stretch:normal;font-family:sans-serif;-inkscape-font-specification:'sans-serif Bold';fill:#666666;stroke-width:0.392533"
         id="path10067" />
      <path
         d="m 111.84707,155.4958 q -2.46637,0 -3.82567,1.82174 -1.3593,1.82175 -1.3593,5.12892 0,3.29316 1.3593,5.11491 1.3593,1.82174 3.82567,1.82174 2.48038,0 3.83968,-1.82174 1.3593,-1.82175 1.3593,-5.11491 0,-3.30717 -1.3593,-5.12892 -1.3593,-1.82174 -3.83968,-1.82174 z m 0,-3.90975 q 5.04484,0 7.90358,2.88677 2.85874,2.88676 2.85874,7.97364 0,5.07287 -2.85874,7.95964 -2.85874,2.88676 -7.90358,2.88676 -5.03083,0 -7.90358,-2.88676 -2.85874,-2.88677 -2.85874,-7.95964 0,-5.08688 2.85874,-7.97364 2.87275,-2.88677 7.90358,-2.88677 z"
         style="font-style:normal;font-variant:normal;font-weight:bold;font-stretch:normal;font-family:sans-serif;-inkscape-font-specification:'sans-serif Bold';fill:#666666;stroke-width:0.392533"
         id="path10069" />
      <path
         d="m 126.6873,151.96441 h 8.95459 q 3.99383,0 6.12387,1.77971 2.14406,1.76569 2.14406,5.04483 0,3.29316 -2.14406,5.07287 -2.13004,1.76569 -6.12387,1.76569 h -3.55942 v 7.25896 h -5.39517 z m 5.39517,3.90975 v 5.8436 h 2.98487 q 1.5695,0 2.42432,-0.75672 0.85482,-0.77074 0.85482,-2.17209 0,-1.40134 -0.85482,-2.15807 -0.85482,-0.75672 -2.42432,-0.75672 z"
         style="font-style:normal;font-variant:normal;font-weight:bold;font-stretch:normal;font-family:sans-serif;-inkscape-font-specification:'sans-serif Bold';fill:#666666;stroke-width:0.392533"
         id="path10071" />
      <path
         d="m 155.38682,161.24131 q 1.69563,0 2.42433,-0.63061 0.74271,-0.6306 0.74271,-2.07399 0,-1.42937 -0.74271,-2.04596 -0.7287,-0.61659 -2.42433,-0.61659 h -2.27017 v 5.36715 z m -2.27017,3.72757 v 7.91759 h -5.39518 v -20.92206 h 8.2399 q 4.13397,0 6.05381,1.38733 1.93385,1.38733 1.93385,4.38621 0,2.07399 -1.00896,3.40526 -0.99496,1.33128 -3.01289,1.96188 1.10706,0.25225 1.97589,1.14911 0.88285,0.88284 1.77971,2.69058 l 2.92881,5.94169 h -5.74551 l -2.55045,-5.19898 q -0.77074,-1.56951 -1.5695,-2.14406 -0.78476,-0.57455 -2.10202,-0.57455 z"
         style="font-style:normal;font-variant:normal;font-weight:bold;font-stretch:normal;font-family:sans-serif;-inkscape-font-specification:'sans-serif Bold';fill:#666666;stroke-width:0.392533"
         id="path10073" />
      <path
         d="m 179.37783,155.4958 q -2.46636,0 -3.82566,1.82174 -1.35931,1.82175 -1.35931,5.12892 0,3.29316 1.35931,5.11491 1.3593,1.82174 3.82566,1.82174 2.48038,0 3.83969,-1.82174 1.3593,-1.82175 1.3593,-5.11491 0,-3.30717 -1.3593,-5.12892 -1.35931,-1.82174 -3.83969,-1.82174 z m 0,-3.90975 q 5.04484,0 7.90358,2.88677 2.85875,2.88676 2.85875,7.97364 0,5.07287 -2.85875,7.95964 -2.85874,2.88676 -7.90358,2.88676 -5.03082,0 -7.90358,-2.88676 -2.85874,-2.88677 -2.85874,-7.95964 0,-5.08688 2.85874,-7.97364 2.87276,-2.88677 7.90358,-2.88677 z"
         style="font-style:normal;font-variant:normal;font-weight:bold;font-stretch:normal;font-family:sans-serif;-inkscape-font-specification:'sans-serif Bold';fill:#666666;stroke-width:0.392533"
         id="path10075" />
      <path
         d="m 199.61324,156.04232 v 12.76624 h 1.93385 q 3.30717,0 5.04484,-1.63957 1.75168,-1.63957 1.75168,-4.76457 0,-3.11098 -1.73767,-4.73654 -1.73767,-1.62556 -5.05885,-1.62556 z m -5.39518,-4.07791 h 5.68946 q 4.76457,0 7.0908,0.68666 2.34024,0.67264 4.00784,2.2982 1.47141,1.41536 2.1861,3.26513 0.71468,1.84978 0.71468,4.19002 0,2.36827 -0.71468,4.23206 -0.71469,1.84977 -2.1861,3.26513 -1.68161,1.62556 -4.03587,2.31222 -2.35426,0.67264 -7.06277,0.67264 h -5.68946 z"
         style="font-style:normal;font-variant:normal;font-weight:bold;font-stretch:normal;font-family:sans-serif;-inkscape-font-specification:'sans-serif Bold';fill:#666666;stroke-width:0.392533"
         id="path10077" />
      <path
         d="m 218.04091,151.96441 h 5.39517 v 12.54203 q 0,2.59248 0.84081,3.71356 0.85482,1.10706 2.77466,1.10706 1.93385,0 2.77466,-1.10706 0.85482,-1.12108 0.85482,-3.71356 v -12.54203 h 5.39517 v 12.54203 q 0,4.44226 -2.22813,6.61434 -2.22814,2.17208 -6.79652,2.17208 -4.55437,0 -6.78251,-2.17208 -2.22813,-2.17208 -2.22813,-6.61434 z"
         style="font-style:normal;font-variant:normal;font-weight:bold;font-stretch:normal;font-family:sans-serif;-inkscape-font-specification:'sans-serif Bold';fill:#666666;stroke-width:0.392533"
         id="path10079" />
      <path
         d="m 257.93717,171.73737 q -1.48542,0.77074 -3.09697,1.16312 -1.61155,0.39237 -3.36323,0.39237 -5.22701,0 -8.28194,-2.91479 -3.05493,-2.92881 -3.05493,-7.93161 0,-5.01681 3.05493,-7.9316 3.05493,-2.92881 8.28194,-2.92881 1.75168,0 3.36323,0.39237 1.61155,0.39238 3.09697,1.16312 v 4.33015 q -1.49944,-1.02298 -2.95684,-1.49944 -1.45739,-0.47645 -3.06894,-0.47645 -2.88677,0 -4.54035,1.84977 -1.65359,1.84977 -1.65359,5.10089 0,3.23711 1.65359,5.08688 1.65358,1.84977 4.54035,1.84977 1.61155,0 3.06894,-0.47645 1.4574,-0.47646 2.95684,-1.49944 z"
         style="font-style:normal;font-variant:normal;font-weight:bold;font-stretch:normal;font-family:sans-serif;-inkscape-font-specification:'sans-serif Bold';fill:#666666;stroke-width:0.392533"
         id="path10081" />
      <path
         d="m 259.91306,151.96441 h 19.28249 v 4.07791 h -6.93665 v 16.84415 h -5.39517 v -16.84415 h -6.95067 z"
         style="font-style:normal;font-variant:normal;font-weight:bold;font-stretch:normal;font-family:sans-serif;-inkscape-font-specification:'sans-serif Bold';fill:#666666;stroke-width:0.392533"
         id="path10083" />
    </g>
    <g
       style="font-style:normal;font-variant:normal;font-weight:normal;font-stretch:normal;font-size:40px;line-height:1.25;font-family:'HVD Comic Serif Pro';-inkscape-font-specification:'HVD Comic Serif Pro';letter-spacing:0px;word-spacing:0px;fill:#000000;fill-opacity:1;stroke:none"
       id="flowRoot10010" />
  </g>
  <circle
     stroke-miterlimit="10"
     cx="507.56525"
     cy="72.935959"
     r="21.574728"
     id="circle7565"
     style="opacity:0.14;stroke:#000000;stroke-width:4.18927;stroke-miterlimit:10" />
  <circle
     stroke-miterlimit="10"
     cx="419.52078"
     cy="129.90997"
     r="21.574728"
     id="circle7567"
     style="opacity:0.14;stroke:#000000;stroke-width:4.18927;stroke-miterlimit:10" />
  <circle
     stroke-miterlimit="10"
     cx="362.6864"
     cy="177.45818"
     r="21.923834"
     id="circle7569"
     style="opacity:0.14;stroke:#000000;stroke-width:4.18927;stroke-miterlimit:10" />
  <circle
     stroke-miterlimit="10"
     cx="477.05338"
     cy="175.36354"
     r="22.41258"
     id="circle7571"
     style="opacity:0.14;stroke:#000000;stroke-width:4.18927;stroke-miterlimit:10" />
  <path
     d="m 473.76692,150.01498 c 0,0 0.14663,-0.99634 0.43638,-2.83264 0.22692,-1.80627 0.627,-4.39035 0.88045,-7.44503 0.54181,-6.2036 0.84833,-14.53675 -0.16059,-22.71001 -0.10194,-1.03266 -0.26741,-2.03599 -0.43289,-3.03863 -0.16548,-1.00333 -0.33095,-2.00595 -0.55997,-2.97926 -0.16547,-1.00334 -0.52016,-1.91659 -0.74848,-2.88989 l -0.87556,-2.82985 c -1.26376,-3.65095 -2.62597,-7.02191 -3.94,-9.799401 -1.28052,-2.86965 -2.51147,-5.14582 -3.35072,-6.75659 -0.23879,-0.50481 -0.42102,-0.72754 -0.42102,-0.72754 l -7.17272,3.77872 c 0.37913,-5.895 0.32536,-12.04903 0.30232,-18.13953 5.30571,3.05119 10.61072,6.10307 15.96949,9.59342 l -7.17272,3.77872 c 0,0 0.11939,0.25206 0.42172,0.72754 0.83925,1.61077 2.03668,3.9798 3.38004,6.81942 1.28052,2.87036 2.73698,6.275531 3.99656,10.082181 0.35469,0.91325 0.5837,1.88657 0.90488,2.89269 0.25834,1.03614 0.55089,1.98012 0.74569,3.04629 0.25834,1.03613 0.42451,2.03877 0.61931,3.10494 0.1955,1.06617 0.29814,2.09951 0.49364,3.16569 1.03475,8.39251 0.72474,16.88136 0.15011,23.17783 -0.28766,3.14824 -0.59417,5.76444 -0.88463,7.60143 -0.28976,1.8363 -0.49922,2.86267 -0.49922,2.86267 z"
     id="path7573"
     inkscape:connector-curvature="0"
     style="fill:#dfeaa8;stroke-width:0.698211" />
  <circle
     stroke-miterlimit="10"
     cx="363.45444"
     cy="68.118286"
     r="21.574728"
     id="circle7575"
     style="opacity:0.14;stroke:#000000;stroke-width:4.18927;stroke-miterlimit:10" />
  <path
     d="m 353.40019,153.16043 c 0,0 -0.0698,-0.83786 -0.20946,-2.23428 -0.13964,-1.39642 -0.34911,-3.42124 -0.48875,-5.86498 -0.34911,-4.88747 -0.69821,-11.38084 -0.62839,-17.8742 0,-6.49338 0.34911,-13.05657 0.69821,-17.87422 0.20946,-2.44374 0.41893,-4.46855 0.55857,-5.86498 0.0698,-0.48874 0.0698,-0.76803 0.0698,-0.76803 l -8.02943,-0.90767 c 3.70052,-5.166761 7.54068,-10.054241 11.66013,-14.662431 1.88517,5.79515 4.11945,11.380841 6.63301,16.757061 l -8.02943,-0.90766 c 0,0 0,0.27927 -0.0698,0.76802 -0.13965,1.39643 -0.34911,3.42124 -0.55857,5.79515 -0.41893,4.81765 -0.69821,11.24121 -0.69821,17.73458 0,6.42354 0.27928,12.91691 0.62839,17.73456 0.20946,2.44374 0.3491,4.39873 0.48874,5.79516 0.13965,1.39642 0.20947,2.23427 0.20947,2.23427 z"
     id="path7577"
     inkscape:connector-curvature="0"
     style="fill:#e0f3fd;stroke-width:0.0698211" />
  <path
     d="m 460.61053,157.0355 c 0,0 -0.69821,-1.53607 -1.88517,-4.11945 -1.25678,-2.6532 -2.93249,-6.35372 -5.09694,-10.82227 -4.32891,-8.93711 -10.33353,-20.73688 -17.94403,-31.48934 -3.77034,-5.37622 -7.95961,-10.47316 -12.2187,-14.871891 -2.09463,-2.23427 -4.32891,-4.18927 -6.49336,-6.00462 -2.16446,-1.81535 -4.32891,-3.35141 -6.35373,-4.74784 -4.04962,-2.79284 -7.6105,-4.81765 -10.12406,-6.21408 l -0.83785,-0.41892 -3.84017,7.12175 c -2.86266,-5.02712 -6.2839,-9.98442 -10.05424,-14.80208 6.07444,-0.90767 12.28852,-1.39642 18.78189,-1.39642 l -3.84017,7.12176 0.83786,0.41892 c 2.58338,1.39642 6.21408,3.49106 10.33352,6.35372 2.09464,1.39643 4.25909,3.07213 6.49337,4.88748 2.23427,1.81535 4.53837,3.90999 6.633,6.14426 4.39874,4.468561 8.65782,9.705141 12.42816,15.151171 7.68033,10.89209 13.75477,22.76171 18.08368,31.76863 2.16445,4.46855 3.90998,8.23889 5.16676,10.8921 1.18696,2.6532 1.88517,4.11944 1.88517,4.11944 z"
     id="path7579"
     inkscape:connector-curvature="0"
     style="fill:#dfeaa8;stroke-width:0.698211" />
  <path
     d="m 360.40465,152.18084 c 0,0 0.46291,-1.25888 1.27772,-3.44568 a 63.003092,63.003092 0 0 1 1.49767,-3.88694 c 0.61721,-1.45786 1.27772,-3.22504 2.09323,-4.96987 3.15103,-7.31097 8.17606,-16.72146 14.06337,-25.53638 5.88732,-8.81491 12.7249,-16.990961 18.23938,-22.736551 1.34545,-1.48021 2.6916,-2.73978 3.79408,-3.84505 1.1695,-1.12691 2.16236,-2.12117 3.00021,-2.91713 0.39728,-0.35329 0.68425,-0.59697 0.68425,-0.59697 l -5.5033,-5.89011 c 1.56748,-0.37703 3.06863,-0.73102 4.63612,-1.10806 l 4.61308,-0.95375 2.27407,-0.46571 2.31807,-0.33305 4.56979,-0.64445 -1.67431,4.24094 -0.83716,2.12047 -0.74848,2.16445 -1.45368,4.24024 c -0.41822,1.39153 -0.81411,2.8487 -1.23234,4.24023 l -5.5033,-5.89011 c 0,0 -0.22063,0.22134 -0.61792,0.57463 -0.86019,0.72963 -1.85305,1.72388 -2.95552,2.82915 -1.10318,1.10457 -2.44863,2.36415 -3.72845,3.82271 -5.47049,5.657601 -12.19775,13.722641 -18.04038,22.448891 -5.84333,8.72694 -10.75874,18.02642 -13.86508,25.24942 -0.79317,1.81116 -1.47602,3.512 -2.09324,4.96986 -0.61722,1.45787 -1.05709,2.78307 -1.49766,3.88695 -0.81551,2.18679 -1.23374,3.35769 -1.23374,3.35769 z"
     id="path7581"
     inkscape:connector-curvature="0"
     style="fill:#e0f3fd;stroke-width:0.698211" />
  <path
     d="m 485.35095,157.84333 c 0,0 0.25345,-0.75477 0.79805,-2.0709 0.54461,-1.31543 1.22606,-3.21177 1.98571,-5.47607 1.61636,-4.54815 3.62232,-10.68263 5.29943,-16.95396 1.73575,-6.23224 3.10355,-12.54197 4.02309,-17.30447 0.48875,-2.36135 0.7436,-4.375 1.01799,-5.78817 l 0.0978,-0.77433 -7.99452,-1.23582 c 3.78431,-4.52371 7.47296,-9.27994 10.8907,-14.385941 a 167.08195,167.08195 0 0 1 7.28723,17.229051 l -7.99591,-1.23513 -0.0978,0.77501 c -0.2737,1.41248 -0.52994,3.42613 -1.01799,5.78817 -0.8616,4.80021 -2.32575,11.12949 -4.04265,17.45878 -1.6771,6.27133 -3.72216,12.46377 -5.37692,17.06987 -0.85671,2.28315 -1.53816,4.17949 -2.02481,5.53402 -0.48666,1.35453 -0.79806,2.07089 -0.79806,2.07089 z"
     id="path7583"
     inkscape:connector-curvature="0"
     style="fill:#dfeaa8;stroke-width:0.698211" />
  <path
     d="m 368.99963,155.28508 c 0,0 0.86299,-1.9899 2.24544,-5.4251 0.30652,-0.85461 0.79178,-1.79301 1.30077,-2.79703 0.5097,-1.00403 0.99984,-2.16376 1.55562,-3.29905 0.51388,-1.22536 1.22536,-2.37951 1.91798,-3.68865 0.36726,-0.60954 0.69263,-1.30915 1.08363,-1.98432 0.39099,-0.67587 0.71636,-1.37547 1.17299,-2.02691 3.19851,-5.60244 7.42687,-11.79977 12.60411,-17.95241 5.17724,-6.15334 11.34454,-12.17332 18.17793,-17.36101 6.83339,-5.187721 14.22396,-9.654871 21.56635,-12.953221 3.66142,-1.72668 7.27117,-3.10146 10.76712,-4.36871 3.53923,-1.17719 6.87528,-2.20495 9.96207,-2.95064 6.26296,-1.53467 11.58123,-2.29572 15.32085,-2.58478 0.68565,-0.051 1.06128,-0.0642 1.06128,-0.0642 l -0.58719,-8.07481 c 3.0833,1.33009 5.98856,2.74397 8.75627,4.3317 2.7684,1.58773 5.46629,3.37236 7.78296,5.39089 -2.89549,1.03754 -5.53263,2.39067 -8.03781,3.79128 -2.50658,1.39922 -4.90843,3.13288 -7.13363,4.78275 l -0.61093,-8.00918 c 0,0 -0.37564,0.014 -0.99565,0.0873 -3.67259,0.3128 -8.90219,1.03196 -15.01015,2.54847 -3.08679,0.74569 -6.33417,1.73157 -9.78333,2.86616 -3.40727,1.22466 -6.99329,2.53381 -10.56533,4.21859 -7.18739,3.27951 -14.46485,7.63983 -21.1195,12.742361 -6.72028,5.08019 -12.77517,10.99194 -17.8393,17.03775 -5.06412,6.04511 -9.26875,12.17681 -12.35484,17.67103 l -1.173,2.02691 c -0.391,0.67587 -0.69262,1.30914 -1.05988,1.91868 -0.66959,1.24352 -1.33847,2.48703 -1.89425,3.62302 -0.55647,1.13529 -1.08921,2.20565 -1.53257,3.23272 -0.509,1.00472 -0.90489,1.90123 -1.30077,2.79773 -1.44809,3.41146 -2.22171,5.35947 -2.22171,5.35947 z"
     id="path7585"
     inkscape:connector-curvature="0"
     style="fill:#e0f3fd;stroke-width:0.698211"
     sodipodi:nodetypes="ccccccccsccccccccccccccccccccccccc" />
  <path
     d="m 373.80053,157.40695 c 2.23427,-4.81766 5.23658,-9.21639 8.86728,-13.05655 l 0.41893,-0.48875 -5.79516,-5.58569 c 0,0 1.25678,-0.48875 3.07213,-1.04732 1.81535,-0.55857 4.32891,-1.18696 6.91229,-1.60588 2.58339,-0.41893 5.16677,-0.41893 7.05194,-0.0698 0.90767,0.13965 1.60588,0.34911 2.09463,0.55857 0.48875,0.20947 0.76803,0.27929 0.76803,0.27929 0,0 -0.20946,0.20946 -0.62839,0.48875 -0.3491,0.3491 -0.83785,0.76803 -1.39642,1.39642 -1.04732,1.25678 -2.02481,3.00231 -2.6532,4.88748 -0.69821,1.88517 -1.18696,3.84016 -1.53607,5.37622 -0.3491,1.46625 -0.41892,2.44374 -0.41892,2.44374 l -5.79516,-5.58569 -0.41892,0.48875 c -3.42124,3.70052 -6.35373,7.88979 -8.44836,12.49798 z"
     id="path7589"
     inkscape:connector-curvature="0"
     style="fill:#808285;stroke-width:0.698211" />
  <ellipse
     stroke-miterlimit="10"
     cx="505.8197"
     cy="72.098099"
     rx="21.016159"
     ry="21.574728"
     id="ellipse7591"
     style="fill:#e8cae1;stroke:#bcbec0;stroke-width:4.18927;stroke-miterlimit:10" />
  <path
     d="m 458.03413,156.48391 c -2.02481,-3.6307 -4.74784,-6.91229 -7.88979,-9.63531 l -0.48875,-0.41893 -5.16676,6.21408 c 0,0 -0.0698,-0.20946 -0.13964,-0.62839 -0.0698,-0.41893 -0.27929,-0.9775 -0.48875,-1.67571 -0.41893,-1.39642 -1.18696,-3.28159 -2.23428,-5.09694 -0.97749,-1.81535 -2.23427,-3.6307 -3.35141,-4.88748 -0.55857,-0.69821 -0.9775,-1.18696 -1.3266,-1.53606 l -0.55857,-0.55857 c 0,0 0.27928,-0.0698 0.76803,-0.20947 0.48875,-0.13964 1.18696,-0.27928 2.09464,-0.41892 1.74552,-0.34911 4.18926,-0.55857 6.70282,-0.48875 2.51356,0 5.09695,0.3491 7.05194,0.69821 0.97749,0.20946 1.81535,0.34911 2.37392,0.48875 0.55857,0.13964 0.90767,0.20946 0.90767,0.20946 l -5.16676,6.21408 0.48875,0.41893 c 3.35141,2.93249 6.21408,6.35372 8.37853,10.2637 z"
     id="path7595"
     inkscape:connector-curvature="0"
     style="fill:#808285;stroke-width:0.698211" />
  <circle
     stroke-miterlimit="10"
     cx="438.72159"
     cy="61.694748"
     r="21.574728"
     id="circle7597"
     style="opacity:0.14;stroke:#000000;stroke-width:4.18927;stroke-miterlimit:10" />
  <circle
     stroke-miterlimit="10"
     cx="359.82376"
     cy="176.06175"
     r="21.923834"
     id="circle7599"
     style="fill:#caebfc;stroke:#808285;stroke-width:4.18927;stroke-miterlimit:10" />
  <circle
     stroke-miterlimit="10"
     cx="436.41751"
     cy="60.996536"
     r="21.574728"
     id="circle7601"
     style="fill:#e2f3f0;stroke:#bcbec0;stroke-width:4.18927;stroke-miterlimit:10" />
  <circle
     stroke-miterlimit="10"
     cx="474.81912"
     cy="173.96712"
     r="22.41258"
     id="circle7603"
     style="fill:#f8f7cb;stroke:#808285;stroke-width:4.18927;stroke-miterlimit:10" />
  <circle
     stroke-miterlimit="10"
     cx="361.22015"
     cy="66.791702"
     r="21.574728"
     id="circle7611"
     style="fill:#caebfc;stroke:#bcbec0;stroke-width:4.18927;stroke-miterlimit:10" />
  <path
     d="m 402.68692,112.86663 -0.41473,-0.84063 c -0.2758,-0.55998 -0.69123,-1.26096 -1.1744,-2.17143 -1.03824,-1.75112 -2.49121,-4.0636 -4.15435,-6.23712 -1.66454,-2.17354 -3.3982,-4.27795 -4.78624,-5.751871 -0.69402,-0.77222 -1.31962,-1.33359 -1.73575,-1.75531 -0.34771,-0.28137 -0.48596,-0.49153 -0.48596,-0.49153 l -5.61781,5.764431 c -1.15693,-5.453021 -3.15102,-10.910251 -6.12331,-16.303231 6.07374,0.10403 12.56082,1.11714 18.97389,3.17825 l -5.61781,5.76374 0.48596,0.49153 1.80487,1.82513 c 1.45787,1.54444 3.26065,3.719381 4.99431,5.962721 1.66314,2.24405 3.25576,4.62635 4.2926,6.44799 a 29.820602,29.820602 0 0 1 1.24491,2.24126 c 0.2758,0.55997 0.48386,0.84065 0.48386,0.84065 z m 20.4939,-5.43626 c 0.72614,-2.63924 1.5207,-5.2673 2.52264,-7.86046 l 0.24158,-0.59627 7.50367,2.95762 c 0,0 -0.25135,-1.03334 -0.49084,-2.55964 a 48.495659,48.495659 0 0 1 -0.70519,-5.924321 c -0.32816,-4.37359 -0.0475,-8.99924 -0.0475,-8.99924 0,0 -0.23041,0.10333 -0.701,0.37843 -0.45943,0.20597 -1.09061,0.59557 -1.86004,0.96213 -1.5626,0.87067 -3.52597,2.02761 -5.52494,3.39191 -3.98609,2.65879 -7.732,5.99484 -7.732,5.99484 l 7.50368,2.957621 -0.24158,0.59697 c -1.01241,2.66158 -1.88796,5.3469 -2.55685,8.06644 z m 10.51925,4.47623 c 0,0 0.49922,-0.50761 1.38316,-1.34755 0.46082,-0.44895 0.96074,-0.95654 1.59471,-1.54304 0.63398,-0.5865 1.30705,-1.23095 2.11418,-1.95428 3.09448,-2.81381 7.46179,-6.29717 12.0651,-9.375581 4.6026,-3.07842 9.53756,-5.77212 13.35747,-7.52742 1.89076,-0.84833 3.49106,-1.63661 4.61099,-2.0716 l 0.69472,-0.29604 -3.02465,-7.48901 c 6.49337,0.6633 12.73817,1.83141 18.60105,3.58392 a 91.696083,91.696083 0 0 0 -11.62452,13.41962 l -3.06306,-7.43037 -0.69472,0.29604 c -1.11923,0.43499 -2.68182,1.16462 -4.51463,2.05135 -3.72286,1.73505 -8.52306,4.34985 -13.02932,7.408011 -4.5649,3.02048 -8.79746,6.42495 -11.85353,9.18149 -0.76943,0.66469 -1.44181,1.30913 -2.07578,1.89493 -0.63398,0.58649 -1.1332,1.09409 -1.55632,1.48511 a 167.81368,167.81368 0 0 0 -1.34475,1.28888 z"
     id="path7613"
     inkscape:connector-curvature="0"
     style="fill:#4d4d4d;stroke-width:0.698211" />
  <circle
     stroke-miterlimit="10"
     cx="417.91489"
     cy="129.28159"
     r="21.574728"
     id="circle7615"
     style="fill:#cee7cc;stroke:#808285;stroke-width:4.18927;stroke-miterlimit:10" />
  <g
     id="g4828"
     transform="translate(128.25646,-23.507736)">
    <path
       style="fill:#caebfc;fill-opacity:1;stroke:#808285;stroke-width:2.454;stroke-linecap:butt;stroke-linejoin:miter;stroke-dasharray:none;stroke-opacity:1"
       d="m 289.34575,162.73335 c -5.90355,0 -10.21983,-4.46432 -10.21983,-10.8797 0,-5.85789 4.74056,-9.87531 10.27218,-9.87531 0,3.51529 -0.0523,20.75501 -0.0523,20.75501 z"
       id="path3058"
       sodipodi:nodetypes="cscc" />
    <path
       d="m 290.30591,162.73973 c 5.90356,0 10.21984,-4.46431 10.21984,-10.87971 0,-5.85789 -4.74056,-9.8753 -10.27218,-9.8753 0,3.51528 0.0523,20.75501 0.0523,20.75501 z"
       style="fill:#f8f7cb;fill-opacity:1;stroke:#808285;stroke-width:2.454;stroke-linecap:butt;stroke-linejoin:miter;stroke-dasharray:none;stroke-opacity:1"
       id="path3958" />
  </g>
  <g
     aria-label="PRODUCT"
     style="font-style:normal;font-variant:normal;font-weight:normal;font-stretch:normal;font-size:28.6995px;line-height:1.25;font-family:'HVD Comic Serif Pro';-inkscape-font-specification:'HVD Comic Serif Pro';letter-spacing:0px;word-spacing:0px;fill:#666666;fill-opacity:1;stroke:none;stroke-width:0.392533"
     id="text10008-8"
     transform="matrix(0.54720232,0,0,0.54720232,51.259538,167.45289)">
    <path
       d="m 105.44446,151.25214 h 8.95458 q 3.99383,0 6.12388,1.77971 2.14405,1.76569 2.14405,5.04484 0,3.29316 -2.14405,5.07286 -2.13005,1.7657 -6.12388,1.7657 h -3.55941 v 7.25896 h -5.39517 z m 5.39517,3.90975 v 5.84361 h 2.98486 q 1.56951,0 2.42433,-0.75673 0.85482,-0.77074 0.85482,-2.17208 0,-1.40134 -0.85482,-2.15807 -0.85482,-0.75673 -2.42433,-0.75673 z"
       style="font-style:normal;font-variant:normal;font-weight:bold;font-stretch:normal;font-family:sans-serif;-inkscape-font-specification:'sans-serif Bold';fill:#666666;stroke-width:0.392533"
       id="path10051" />
    <path
       d="m 134.14398,160.52904 q 1.69563,0 2.42432,-0.6306 0.74272,-0.63061 0.74272,-2.07399 0,-1.42937 -0.74272,-2.04596 -0.72869,-0.6166 -2.42432,-0.6166 h -2.27018 v 5.36715 z m -2.27018,3.72758 v 7.91759 h -5.39517 v -20.92207 h 8.2399 q 4.13396,0 6.05381,1.38734 1.93385,1.38733 1.93385,4.3862 0,2.07399 -1.00897,3.40527 -0.99495,1.33127 -3.01289,1.96188 1.10707,0.25224 1.9759,1.1491 0.88284,0.88285 1.77971,2.69058 l 2.9288,5.9417 h -5.74551 l -2.55044,-5.19899 q -0.77074,-1.5695 -1.56951,-2.14405 -0.78475,-0.57455 -2.10201,-0.57455 z"
       style="font-style:normal;font-variant:normal;font-weight:bold;font-stretch:normal;font-family:sans-serif;-inkscape-font-specification:'sans-serif Bold';fill:#666666;stroke-width:0.392533"
       id="path10053" />
    <path
       d="m 158.13499,154.78353 q -2.46637,0 -3.82567,1.82175 -1.35931,1.82175 -1.35931,5.12892 0,3.29316 1.35931,5.1149 1.3593,1.82175 3.82567,1.82175 2.48038,0 3.83968,-1.82175 1.3593,-1.82174 1.3593,-5.1149 0,-3.30717 -1.3593,-5.12892 -1.3593,-1.82175 -3.83968,-1.82175 z m 0,-3.90975 q 5.04484,0 7.90358,2.88677 2.85874,2.88677 2.85874,7.97365 0,5.07286 -2.85874,7.95963 -2.85874,2.88677 -7.90358,2.88677 -5.03083,0 -7.90358,-2.88677 -2.85874,-2.88677 -2.85874,-7.95963 0,-5.08688 2.85874,-7.97365 2.87275,-2.88677 7.90358,-2.88677 z"
       style="font-style:normal;font-variant:normal;font-weight:bold;font-stretch:normal;font-family:sans-serif;-inkscape-font-specification:'sans-serif Bold';fill:#666666;stroke-width:0.392533"
       id="path10055" />
    <path
       d="m 178.37039,155.33006 v 12.76624 h 1.93386 q 3.30717,0 5.04483,-1.63957 1.75168,-1.63958 1.75168,-4.76457 0,-3.11099 -1.73766,-4.73655 -1.73767,-1.62555 -5.05885,-1.62555 z m -5.39517,-4.07792 h 5.68945 q 4.76457,0 7.0908,0.68666 2.34025,0.67265 4.00785,2.29821 1.47141,1.41535 2.18609,3.26513 0.71469,1.84977 0.71469,4.19002 0,2.36827 -0.71469,4.23206 -0.71468,1.84977 -2.18609,3.26513 -1.68162,1.62556 -4.03587,2.31221 -2.35426,0.67265 -7.06278,0.67265 h -5.68945 z"
       style="font-style:normal;font-variant:normal;font-weight:bold;font-stretch:normal;font-family:sans-serif;-inkscape-font-specification:'sans-serif Bold';fill:#666666;stroke-width:0.392533"
       id="path10057" />
    <path
       d="m 196.79806,151.25214 h 5.39518 v 12.54203 q 0,2.59249 0.8408,3.71356 0.85482,1.10707 2.77466,1.10707 1.93386,0 2.77467,-1.10707 0.85482,-1.12107 0.85482,-3.71356 v -12.54203 h 5.39517 v 12.54203 q 0,4.44226 -2.22814,6.61435 -2.22813,2.17208 -6.79652,2.17208 -4.55436,0 -6.7825,-2.17208 -2.22814,-2.17209 -2.22814,-6.61435 z"
       style="font-style:normal;font-variant:normal;font-weight:bold;font-stretch:normal;font-family:sans-serif;-inkscape-font-specification:'sans-serif Bold';fill:#666666;stroke-width:0.392533"
       id="path10059" />
    <path
       d="m 236.69433,171.02511 q -1.48543,0.77074 -3.09697,1.16311 -1.61155,0.39238 -3.36323,0.39238 -5.22701,0 -8.28194,-2.9148 -3.05493,-2.9288 -3.05493,-7.9316 0,-5.01681 3.05493,-7.93161 3.05493,-2.92881 8.28194,-2.92881 1.75168,0 3.36323,0.39238 1.61154,0.39237 3.09697,1.16311 v 4.33016 q -1.49944,-1.02298 -2.95684,-1.49944 -1.4574,-0.47646 -3.06894,-0.47646 -2.88677,0 -4.54036,1.84978 -1.65358,1.84977 -1.65358,5.10089 0,3.2371 1.65358,5.08688 1.65359,1.84977 4.54036,1.84977 1.61154,0 3.06894,-0.47646 1.4574,-0.47645 2.95684,-1.49944 z"
       style="font-style:normal;font-variant:normal;font-weight:bold;font-stretch:normal;font-family:sans-serif;-inkscape-font-specification:'sans-serif Bold';fill:#666666;stroke-width:0.392533"
       id="path10061" />
    <path
       d="m 238.67022,151.25214 h 19.28249 v 4.07792 h -6.93665 v 16.84415 h -5.39518 v -16.84415 h -6.95066 z"
       style="font-style:normal;font-variant:normal;font-weight:bold;font-stretch:normal;font-family:sans-serif;-inkscape-font-specification:'sans-serif Bold';fill:#666666;stroke-width:0.392533"
       id="path10063" />
  </g>
  <g
     id="g6440"
     transform="matrix(0.66438656,0,0,0.66438656,-34.563781,50.610074)">
    <circle
       opacity="0.14"
       stroke="#000000"
       stroke-width="6"
       stroke-miterlimit="10"
       cx="423.37628"
       cy="-194.51912"
       r="30.9"
       id="circle6392"
       transform="scale(1,-1)" />
    <circle
       opacity="0.14"
       stroke="#000000"
       stroke-width="6"
       stroke-miterlimit="10"
       cx="297.27628"
       cy="-112.91913"
       r="30.9"
       id="circle6394"
       transform="scale(1,-1)" />
    <circle
       fill="#cee7cc"
       stroke="#808285"
       stroke-width="6"
       stroke-miterlimit="10"
       cx="294.97629"
       cy="-113.81911"
       r="30.9"
       id="circle6396"
       transform="scale(1,-1)" />
    <circle
       opacity="0.14"
       stroke="#000000"
       stroke-width="6"
       stroke-miterlimit="10"
       cx="215.8763"
       cy="-44.819111"
       r="31.4"
       id="circle6398"
       transform="scale(1,-1)" />
    <circle
       fill="#caebfc"
       stroke="#808285"
       stroke-width="6"
       stroke-miterlimit="10"
       cx="211.77629"
       cy="-46.819111"
       r="31.4"
       id="circle6400"
       transform="scale(1,-1)" />
    <circle
       opacity="0.14"
       stroke="#000000"
       stroke-width="6"
       stroke-miterlimit="10"
       cx="379.67627"
       cy="-47.819111"
       r="32.099998"
       id="circle6402"
       transform="scale(1,-1)" />
    <circle
       fill="#f8f7cb"
       stroke="#808285"
       stroke-width="6"
       stroke-miterlimit="10"
       cx="376.47629"
       cy="-49.819111"
       r="32.099998"
       id="circle6404"
       transform="scale(1,-1)" />
    <circle
       fill="#caebfc"
       stroke="#808285"
       stroke-width="3.32237"
       stroke-miterlimit="10"
       cx="280.63803"
       cy="-114.15472"
       r="14.158109"
       id="circle6400-6"
       transform="scale(1,-1)"
       style="stroke-width:3.93058;stroke-dasharray:none" />
    <circle
       fill="#f8f7cb"
       stroke="#808285"
       stroke-width="3.32237"
       stroke-miterlimit="10"
       cx="310.22144"
       cy="-113.48833"
       r="14.473737"
       id="circle6404-7"
       transform="scale(1,-1)"
       style="stroke-width:3.93058;stroke-dasharray:none" />
    <path
       fill="#e0f3fd"
       d="m 293.77628,193.71911 c 0,0 -1.5,-1.2 -4.1,-3.3 -1.3,-1 -2.9,-2.3 -4.6,-3.8 -1.7,-1.5 -3.8,-3.2 -5.8,-5.1 -8.5,-7.6 -19,-18.7 -28.3,-30.7 -9.3,-12 -17.3,-25 -22.6,-35.1 -1.4,-2.5 -2.5,-4.9 -3.5,-6.9 -1,-2.1 -1.9,-3.9 -2.6,-5.4 -0.3,-0.7 -0.5,-1.2 -0.5,-1.2 l -10.5,4.8 c 0.2,-2.3 0.4,-4.5 0.6,-6.8 l 0.8,-6.699998 0.4,-3.299997 0.6,-3.3 1.2,-6.5 5,4.2 2.5,2.1 2.6,2 5.1,3.899997 c 1.7,1.2 3.5,2.4 5.2,3.6 l -10.5,4.799998 c 0,0 0.2,0.4 0.5,1.1 0.6,1.5 1.5,3.3 2.5,5.3 1,2 2.1,4.4 3.5,6.8 5.2,10 13.1,22.8 22.3,34.7 9.2,11.9 19.6,22.8 28,30.3 2.1,1.9 4.1,3.6 5.8,5.1 1.7,1.5 3.3,2.7 4.6,3.8 2.6,2.1 4,3.2 4,3.2 z"
       id="path6406" />
    <path
       fill="#dfeaa8"
       d="m 346.17628,190.51911 c 0,0 0.8,-1.2 2.3,-3.4 1.4,-2.2 3.5,-5.3 5.7,-9.1 4.5,-7.7 10,-18.3 13.7,-29.5 0.5,-1.4 0.9,-2.8 1.3,-4.2 0.4,-1.4 0.8,-2.8 1.1,-4.2 0.4,-1.4 0.5,-2.8 0.8,-4.2 l 0.6,-4.2 c 0.6,-5.5 0.9,-10.7 0.9,-15.1 0.1,-4.5 -0.1,-8.2 -0.2,-10.8 0,-0.8 -0.1,-1.2 -0.1,-1.2 l -11.6,0.5 c 4.1,-7.399998 7.8,-15.399995 11.5,-23.299995 5,7.2 10,14.399997 14.8,22.199995 l -11.6,0.5 c 0,0 0,0.4 0.1,1.2 0.1,2.6 0.2,6.4 0.2,10.9 -0.1,4.5 -0.3,9.8 -1,15.5 -0.1,1.4 -0.4,2.8 -0.6,4.3 -0.3,1.5 -0.5,2.9 -0.9,4.4 -0.3,1.5 -0.7,2.9 -1.1,4.4 -0.4,1.5 -0.9,2.9 -1.3,4.4 -3.8,11.5 -9.4,22.3 -14,30.1 -2.3,3.9 -4.3,7.1 -5.8,9.3 -1.5,2.2 -2.4,3.4 -2.4,3.4 z"
       id="path6408" />
    <circle
       opacity="0.14"
       stroke="#000000"
       stroke-width="6"
       stroke-miterlimit="10"
       cx="216.97629"
       cy="-201.41911"
       r="30.9"
       id="circle6410"
       transform="scale(1,-1)" />
    <path
       fill="#e0f3fd"
       d="m 202.47628,174.21911 c 0,0 -0.1,-1.2 -0.3,-3.2 -0.2,-2 -0.5,-4.9 -0.7,-8.4 -0.5,-7 -1,-16.3 -0.9,-25.6 0,-9.3 0.5,-18.7 1,-25.6 0.3,-3.5 0.6,-6.4 0.8,-8.4 0.1,-0.7 0.1,-1.1 0.1,-1.1 l -11.5,-1.3 c 5.3,-7.399998 10.8,-14.399995 16.7,-20.999995 2.7,8.3 5.9,16.299997 9.5,23.999995 l -11.5,-1.3 c 0,0 0,0.4 -0.1,1.1 -0.2,2 -0.5,4.9 -0.8,8.3 -0.6,6.9 -1,16.1 -1,25.4 0,9.2 0.4,18.5 0.9,25.4 0.3,3.5 0.5,6.3 0.7,8.3 0.2,2 0.3,3.2 0.3,3.2 z"
       id="path6412" />
    <path
       fill="#dfeaa8"
       d="m 241.07628,189.11911 c 0,0 2.2,-1 5.9,-2.7 3.8,-1.8 9.1,-4.2 15.5,-7.3 12.8,-6.2 29.7,-14.8 45.1,-25.7 7.7,-5.4 15,-11.4 21.3,-17.5 3.2,-3 6,-6.2 8.6,-9.3 2.6,-3.1 4.8,-6.2 6.8,-9.1 4,-5.8 6.9,-10.9 8.9,-14.5 l 0.6,-1.2 -10.2,-5.499998 c 7.2,-4.1 14.3,-8.999997 21.2,-14.399997 1.3,8.7 2,17.599997 2,26.899995 l -10.2,-5.5 -0.6,1.2 c -2,3.7 -5,8.9 -9.1,14.8 -2,3 -4.4,6.1 -7,9.3 -2.6,3.2 -5.6,6.5 -8.8,9.5 -6.4,6.3 -13.9,12.4 -21.7,17.8 -15.7,11 -32.7,19.7 -45.6,25.9 -6.4,3.1 -11.8,5.6 -15.6,7.4 -3.8,1.7 -5.9,2.7 -5.9,2.7 z m 181.7,-22.3 c 0,0 -0.3,-1.1 -0.7,-3.1 -0.4,-2 -1.1,-4.8 -2,-8.1 -1.7,-6.7 -4.2,-15.6 -7.2,-24.4 -2.9,-8.8 -6.3,-17.4 -9,-23.8 -1.3,-3.2 -2.6,-5.8 -3.4,-7.699998 l -0.5,-1 -10.5,4.899998 c 0.9,-8.399998 1.5,-16.999995 1.5,-25.799995 7.6,4.4 15.1,9.3 22.4,14.699997 l -10.5,4.9 0.5,1 c 0.8,1.899998 2.1,4.499998 3.4,7.699998 2.8,6.4 6.1,15.1 9.1,24 3,8.8 5.5,17.8 7.2,24.6 0.8,3.4 1.5,6.2 2,8.2 0.5,2 0.7,3.1 0.7,3.1 z"
       id="path6414" />
    <path
       fill="#e0f3fd"
       d="m 391.07628,192.11911 c 0,0 -3.1,-0.2 -8.4,-0.4 -1.3,0 -2.8,-0.2 -4.4,-0.4 -1.6,-0.2 -3.4,-0.3 -5.2,-0.5 -1.9,-0.1 -3.8,-0.5 -5.9,-0.8 -1,-0.2 -2.1,-0.3 -3.2,-0.5 -1.1,-0.2 -2.2,-0.3 -3.3,-0.6 -9.1,-1.6 -19.5,-4.3 -30.3,-8.3 -10.8,-4 -21.9,-9.4 -32.2,-16.1 -10.3,-6.7 -19.9,-14.5 -27.9,-22.8 -4.1,-4.1 -7.7,-8.3 -11.1,-12.4 -3.3,-4.2 -6.3,-8.2 -8.8,-12 -5.1,-7.7 -8.7,-14.5 -10.9,-19.399998 -0.4,-0.9 -0.6,-1.4 -0.6,-1.4 l -10.6,4.699998 c 0.3,-4.799998 0.8,-9.399998 1.6,-13.899995 0.8,-4.5 1.9,-9 3.5,-13.1 2.8,3.4 5.9,6.3 9,9 3.1,2.7 6.6,5.1 9.9,7.3 l -10.5,4.699997 c 0,0 0.2,0.5 0.6,1.3 2.2,4.799998 5.7,11.499998 10.7,18.999998 2.5,3.8 5.4,7.7 8.6,11.8 3.3,4 6.8,8.2 10.8,12.2 7.9,8.1 17.3,15.8 27.4,22.3 10.1,6.6 21,11.9 31.6,15.8 10.6,3.9 20.9,6.6 29.8,8.1 l 3.3,0.6 c 1.1,0.2 2.1,0.3 3.1,0.5 2,0.3 4,0.6 5.8,0.8 1.8,0.2 3.5,0.4 5.1,0.5 1.6,0.2 3,0.3 4.4,0.4 5.3,0.3 8.3,0.4 8.3,0.4 z"
       id="path6416" />
    <path
       fill="#dfeaa8"
       d="m 422.77628,166.91911 c 0,0 -0.3,-1.1 -0.7,-3.1 -0.4,-2 -1.1,-4.8 -2,-8.1 -1.7,-6.7 -4.2,-15.6 -7.2,-24.4 -2.9,-8.8 -6.3,-17.4 -9,-23.8 -1.3,-3.2 -2.6,-5.8 -3.4,-7.699998 l -0.5,-1 -10.5,4.899998 c 0.9,-8.399998 1.5,-16.999995 1.5,-25.799995 7.6,4.4 15.1,9.3 22.4,14.699997 l -10.5,4.9 0.5,1 c 0.8,1.899998 2.1,4.499998 3.4,7.699998 2.8,6.4 6.1,15.1 9.1,24 3,8.8 5.5,17.8 7.2,24.6 0.8,3.4 1.5,6.2 2,8.2 0.5,2 0.7,3.1 0.7,3.1 z"
       id="path6418" />
    <path
       fill="#808285"
       d="m 263.67628,105.41911 c -6.9,-3.2 -13.2,-7.499998 -18.7,-12.699998 l -0.7,-0.6 -8,8.299998 c 0,0 -0.7,-1.799998 -1.5,-4.399998 -0.8,-2.6 -1.7,-6.199997 -2.3,-9.899997 -0.6,-3.7 -0.6,-7.4 -0.1,-10.1 0.2,-1.3 0.5,-2.3 0.8,-3 0.3,-0.7 0.4,-1.1 0.4,-1.1 0,0 0.3,0.3 0.7,0.9 0.5,0.5 1.1,1.2 2,2 1.8,1.5 4.3,2.9 7,3.8 2.7,1 5.5,1.7 7.7,2.2 2.1,0.5 3.5,0.6 3.5,0.6 l -8,8.3 0.7,0.6 c 5.3,4.899997 11.3,9.099997 17.9,12.099995 z"
       id="path6424" />
    <circle
       fill="#caebfc"
       stroke="#bcbec0"
       stroke-width="6"
       stroke-miterlimit="10"
       cx="213.67628"
       cy="-203.31911"
       r="30.9"
       id="circle6426"
       transform="scale(1,-1)" />
    <ellipse
       fill="#e8cae1"
       stroke="#bcbec0"
       stroke-width="6"
       stroke-miterlimit="10"
       cx="420.87628"
       cy="-195.7191"
       rx="30.1"
       ry="30.9"
       id="ellipse6428"
       transform="scale(1,-1)" />
    <path
       fill="#808285"
       d="m 324.47628,102.81911 c 5.2,-2.899998 9.9,-6.799998 13.8,-11.299998 l 0.6,-0.7 -8.9,-7.399997 c 0,0 0.3,-0.1 0.9,-0.2 0.6,-0.1 1.4,-0.4 2.4,-0.7 2,-0.6 4.7,-1.7 7.3,-3.2 2.6,-1.4 5.2,-3.2 7,-4.8 1,-0.8 1.7,-1.4 2.2,-1.9 l 0.8,-0.8 c 0,0 0.1,0.4 0.3,1.1 0.2,0.7 0.4,1.7 0.6,3 0.5,2.5 0.8,6 0.7,9.6 0,3.6 -0.5,7.299997 -1,10.099997 -0.3,1.4 -0.5,2.6 -0.7,3.4 -0.2,0.8 -0.3,1.299998 -0.3,1.299998 l -8.9,-7.399998 -0.6,0.7 c -4.2,4.8 -9.1,8.899998 -14.7,11.999998 z"
       id="path6432" />
    <circle
       opacity="0.14"
       stroke="#000000"
       stroke-width="6"
       stroke-miterlimit="10"
       cx="324.67627"
       cy="-210.61911"
       r="30.9"
       id="circle6434"
       transform="scale(1,-1)" />
    <circle
       fill="#e2f3f0"
       stroke="#bcbec0"
       stroke-width="6"
       stroke-miterlimit="10"
       cx="321.37628"
       cy="-211.61911"
       r="30.9"
       id="circle6436"
       transform="scale(1,-1)" />
    <path
       fill="#d1d3d4"
       d="m 234.67628,175.61911 1.2,-0.6 c 0.8,-0.4 1.8,-1 3.1,-1.7 2.5,-1.5 5.8,-3.6 8.9,-6 3.1,-2.4 6.1,-4.9 8.2,-6.9 1.1,-1 1.9,-1.9 2.5,-2.5 0.4,-0.5 0.7,-0.7 0.7,-0.7 l -8.3,-8 c 7.8,-1.7 15.6,-4.6 23.3,-8.9 -0.1,8.7 -1.5,18 -4.4,27.2 l -8.3,-8 -0.7,0.7 -2.6,2.6 c -2.2,2.1 -5.3,4.7 -8.5,7.2 -3.2,2.4 -6.6,4.7 -9.2,6.2 -1.3,0.8 -2.4,1.4 -3.2,1.8 -0.8,0.4 -1.2,0.7 -1.2,0.7 z m 78.7,4.1 c -0.4,-3.9 -0.9,-7.8 -1.7,-11.7 l -0.2,-0.9 -11.3,2.4 c 0,0 0.6,-1.4 1.3,-3.5 0.8,-2.2 1.7,-5.1 2.4,-8.2 1.5,-6.1 2.2,-12.7 2.2,-12.7 0,0 0.3,0.2 0.9,0.7 0.6,0.4 1.4,1.1 2.4,1.8 2,1.6 4.5,3.7 7,6.1 5,4.7 9.5,10.3 9.5,10.3 l -11.3,2.4 0.2,0.9 c 0.8,4 1.4,8 1.7,12 z m 80.8,-1.1 c 0,0 -1,-0.2 -2.7,-0.6 -0.9,-0.2 -1.9,-0.4 -3.1,-0.7 -1.2,-0.3 -2.5,-0.6 -4,-1 -5.8,-1.5 -13.4,-4 -20.7,-7.1 -7.3,-3.1 -14.4,-6.9 -19.5,-10.1 -2.5,-1.6 -4.7,-2.9 -6.1,-3.9 l -0.9,-0.6 -6.6,9.5 c -4.3,-8.3 -7.8,-16.7 -10.3,-25.1 8.5,2 17,3.1 25.2,3.4 l -6.5,9.5 0.9,0.6 c 1.4,1 3.5,2.3 6,3.8 5,3.1 11.9,6.8 19.1,9.8 7.2,3.1 14.6,5.5 20.3,7 1.4,0.4 2.7,0.7 3.9,1 1.2,0.3 2.2,0.5 3,0.7 1.7,0.4 2.6,0.6 2.6,0.6 z"
       id="path6438"
       sodipodi:nodetypes="cscscccccccccccscccccccccccccccccccscscccccccccccsccc"
       style="fill:#4d4d4d" />
  </g>
</svg>
