<?xml version="1.0" encoding="UTF-8" standalone="no"?>
<svg
   xmlns:dc="http://purl.org/dc/elements/1.1/"
   xmlns:cc="http://creativecommons.org/ns#"
   xmlns:rdf="http://www.w3.org/1999/02/22-rdf-syntax-ns#"
   xmlns:svg="http://www.w3.org/2000/svg"
   xmlns="http://www.w3.org/2000/svg"
   xmlns:sodipodi="http://sodipodi.sourceforge.net/DTD/sodipodi-0.dtd"
   xmlns:inkscape="http://www.inkscape.org/namespaces/inkscape"
   viewBox="0 0 595.3 317.5"
   version="1.1"
   id="svg7627"
   sodipodi:docname="coproduct_morphisms.svg"
   inkscape:version="0.92.5 (2060ec1f9f, 2020-04-08)">
  <metadata
     id="metadata7633">
    <rdf:RDF>
      <cc:Work
         rdf:about="">
        <dc:format>image/svg+xml</dc:format>
        <dc:type
           rdf:resource="http://purl.org/dc/dcmitype/StillImage" />
      </cc:Work>
    </rdf:RDF>
  </metadata>
  <defs
     id="defs7631" />
  <sodipodi:namedview
     pagecolor="#ffffff"
     bordercolor="#666666"
     borderopacity="1"
     objecttolerance="10"
     gridtolerance="10"
     guidetolerance="10"
     inkscape:pageopacity="0"
     inkscape:pageshadow="2"
     inkscape:window-width="1828"
     inkscape:window-height="846"
     id="namedview7629"
     showgrid="false"
     inkscape:zoom="1.913435"
     inkscape:cx="297.64999"
     inkscape:cy="158.75"
     inkscape:window-x="0"
     inkscape:window-y="27"
     inkscape:window-maximized="0"
     inkscape:current-layer="svg7627" />
  <switch
     id="switch7625"
     transform="matrix(1,0,0,-1,0,342.10001)">
    <g
       id="g7623">
      <circle
         stroke-miterlimit="10"
         cx="319.5"
         cy="282.10001"
         r="30.9"
         id="circle7563"
         style="opacity:0.13999999;stroke:#000000;stroke-width:6;stroke-miterlimit:10" />
      <circle
         stroke-miterlimit="10"
         cx="437.60001"
         cy="77.099998"
         r="30.9"
         id="circle7565"
         style="opacity:0.13999999;stroke:#000000;stroke-width:6;stroke-miterlimit:10" />
      <circle
         stroke-miterlimit="10"
         cx="311.5"
         cy="158.7"
         r="30.9"
         id="circle7567"
         style="opacity:0.13999999;stroke:#000000;stroke-width:6;stroke-miterlimit:10" />
      <circle
         stroke-miterlimit="10"
         cx="230.10001"
         cy="226.8"
         r="31.4"
         id="circle7569"
         style="opacity:0.13999999;stroke:#000000;stroke-width:6;stroke-miterlimit:10" />
      <circle
         stroke-miterlimit="10"
         cx="393.89999"
         cy="223.8"
         r="32.099998"
         id="circle7571"
         style="opacity:0.13999999;stroke:#000000;stroke-width:6;stroke-miterlimit:10" />
      <path
         d="m 389.193,187.495 c 0,0 0.21,-1.427 0.625,-4.057 0.325,-2.587 0.898,-6.288 1.261,-10.663 0.776,-8.885 1.215,-20.82 -0.23,-32.526 -0.146,-1.479 -0.383,-2.916 -0.62,-4.352 -0.237,-1.437 -0.474,-2.873 -0.802,-4.267 -0.237,-1.437 -0.745,-2.745 -1.072,-4.139 l -1.254,-4.053 c -1.81,-5.229 -3.761,-10.057 -5.643,-14.035 -1.834,-4.11 -3.597,-7.37 -4.799,-9.677 -0.342,-0.723 -0.603,-1.042 -0.603,-1.042 l -10.273,5.412 c 0.543,-8.443 0.466,-17.257 0.433,-25.98 7.599,4.37 15.197,8.741 22.872,13.74 l -10.273,5.412 c 0,0 0.171,0.361 0.604,1.042 1.202,2.307 2.917,5.7 4.841,9.767 1.834,4.111 3.92,8.988 5.724,14.44 0.508,1.308 0.836,2.702 1.296,4.143 0.37,1.484 0.789,2.836 1.068,4.363 0.37,1.484 0.608,2.92 0.887,4.447 0.28,1.527 0.427,3.007 0.707,4.534 1.482,12.02 1.038,24.178 0.215,33.196 -0.412,4.509 -0.851,8.256 -1.267,10.887 -0.415,2.63 -0.715,4.1 -0.715,4.1 z"
         id="path7573"
         inkscape:connector-curvature="0"
         style="fill:#dfeaa8" />
      <circle
         stroke-miterlimit="10"
         cx="231.2"
         cy="70.199997"
         r="30.9"
         id="circle7575"
         style="opacity:0.13999999;stroke:#000000;stroke-width:6;stroke-miterlimit:10" />
      <path
         d="m 216.8,192 c 0,0 -0.1,-1.2 -0.3,-3.2 -0.2,-2 -0.5,-4.9 -0.7,-8.4 -0.5,-7 -1,-16.3 -0.9,-25.6 0,-9.3 0.5,-18.7 1,-25.6 0.3,-3.5 0.6,-6.4 0.8,-8.4 0.1,-0.7 0.1,-1.1 0.1,-1.1 l -11.5,-1.3 c 5.3,-7.4 10.8,-14.4 16.7,-21 2.7,8.3 5.9,16.3 9.5,24 L 220,120.1 c 0,0 0,0.4 -0.1,1.1 -0.2,2 -0.5,4.9 -0.8,8.3 -0.6,6.9 -1,16.1 -1,25.4 0,9.2 0.4,18.5 0.9,25.4 0.3,3.5 0.5,6.3 0.7,8.3 0.2,2 0.3,3.2 0.3,3.2 z"
         id="path7577"
         inkscape:connector-curvature="0"
         style="fill:#e0f3fd;stroke-width:0.1" />
      <path
         d="m 370.35,197.55 c 0,0 -1,-2.2 -2.7,-5.9 -1.8,-3.8 -4.2,-9.1 -7.3,-15.5 -6.2,-12.8 -14.8,-29.7 -25.7,-45.1 -5.4,-7.7 -11.4,-15 -17.5,-21.3 -3,-3.2 -6.2,-6 -9.3,-8.6 -3.1,-2.6 -6.2,-4.8 -9.1,-6.8 -5.8,-4 -10.9,-6.9 -14.5,-8.9 l -1.2,-0.6 -5.5,10.2 c -4.1,-7.2 -9,-14.3 -14.4,-21.2 8.7,-1.3 17.6,-2 26.9,-2 l -5.5,10.2 1.2,0.6 c 3.7,2 8.9,5 14.8,9.1 3,2 6.1,4.4 9.3,7 3.2,2.6 6.5,5.6 9.5,8.8 6.3,6.4 12.4,13.9 17.8,21.7 11,15.6 19.7,32.6 25.9,45.5 3.1,6.4 5.6,11.8 7.4,15.6 1.7,3.8 2.7,5.9 2.7,5.9 z"
         id="path7579"
         inkscape:connector-curvature="0"
         style="fill:#dfeaa8" />
      <path
         d="m 226.832,190.597 c 0,0 0.663,-1.803 1.83,-4.935 a 90.235,90.235 0 0 1 2.145,-5.567 c 0.884,-2.088 1.83,-4.619 2.998,-7.118 4.513,-10.471 11.71,-23.949 20.142,-36.574 8.432,-12.625 18.225,-24.335 26.123,-32.564 1.927,-2.12 3.855,-3.924 5.434,-5.507 1.675,-1.614 3.097,-3.038 4.297,-4.178 0.569,-0.506 0.98,-0.855 0.98,-0.855 l -7.882,-8.436 c 2.245,-0.54 4.395,-1.047 6.64,-1.587 l 6.607,-1.366 3.257,-0.667 3.32,-0.477 6.545,-0.923 -2.398,6.074 -1.199,3.037 -1.072,3.1 -2.082,6.073 c -0.599,1.993 -1.166,4.08 -1.765,6.073 l -7.882,-8.436 c 0,0 -0.316,0.317 -0.885,0.823 -1.232,1.045 -2.654,2.469 -4.233,4.052 -1.58,1.582 -3.507,3.386 -5.34,5.475 -7.835,8.103 -17.47,19.654 -25.838,32.152 -8.369,12.499 -15.409,25.818 -19.858,36.163 -1.136,2.594 -2.114,5.03 -2.998,7.118 -0.884,2.088 -1.514,3.986 -2.145,5.567 -1.168,3.132 -1.767,4.809 -1.767,4.809 z"
         id="path7581"
         inkscape:connector-curvature="0"
         style="fill:#e0f3fd" />
      <path
         d="m 405.784,198.707 c 0,0 0.363,-1.081 1.143,-2.966 0.78,-1.884 1.756,-4.6 2.844,-7.843 2.315,-6.514 5.188,-15.3 7.59,-24.282 2.486,-8.926 4.445,-17.963 5.762,-24.784 0.7,-3.382 1.065,-6.266 1.458,-8.29 l 0.14,-1.109 -11.45,-1.77 c 5.42,-6.479 10.703,-13.291 15.598,-20.604 a 239.3,239.3 0 0 1 10.437,24.676 l -11.452,-1.769 -0.14,1.11 c -0.392,2.023 -0.759,4.907 -1.458,8.29 -1.234,6.875 -3.331,15.94 -5.79,25.005 -2.402,8.982 -5.331,17.851 -7.701,24.448 -1.227,3.27 -2.203,5.986 -2.9,7.926 -0.697,1.94 -1.143,2.966 -1.143,2.966 z"
         id="path7583"
         inkscape:connector-curvature="0"
         style="fill:#dfeaa8" />
      <path
         d="m 239.142,195.043 c 0,0 1.236,-2.85 3.216,-7.77 0.439,-1.224 1.134,-2.568 1.863,-4.006 0.73,-1.438 1.432,-3.099 2.228,-4.725 0.736,-1.755 1.755,-3.408 2.747,-5.283 0.526,-0.873 0.992,-1.875 1.552,-2.842 0.56,-0.968 1.026,-1.97 1.68,-2.903 4.581,-8.024 10.637,-16.9 18.052,-25.712 7.415,-8.813 16.248,-17.435 26.035,-24.865 9.787,-7.43 20.372,-13.828 30.888,-18.552 5.244,-2.473 10.414,-4.442 15.421,-6.257 5.069,-1.686 9.847,-3.158 14.268,-4.226 8.97,-2.198 16.587,-3.288 21.943,-3.702 0.982,-0.073 1.52,-0.092 1.52,-0.092 l -0.841,-11.565 c 4.416,1.905 8.577,3.93 12.541,6.204 3.965,2.274 7.829,4.83 11.147,7.721 -4.147,1.486 -7.924,3.424 -11.512,5.43 -3.59,2.004 -7.03,4.487 -10.217,6.85 l -0.875,-11.471 c 0,0 -0.538,0.02 -1.426,0.125 -5.26,0.448 -12.75,1.478 -21.498,3.65 -4.421,1.068 -9.072,2.48 -14.012,4.105 -4.88,1.754 -10.016,3.629 -15.132,6.042 -10.294,4.697 -20.717,10.942 -30.248,18.25 -9.625,7.276 -18.297,15.743 -25.55,24.402 -7.253,8.658 -13.275,17.44 -17.695,25.309 l -1.68,2.903 c -0.56,0.968 -0.992,1.875 -1.518,2.748 -0.959,1.781 -1.917,3.562 -2.713,5.189 -0.797,1.626 -1.56,3.159 -2.195,4.63 -0.729,1.439 -1.296,2.723 -1.863,4.007 -2.074,4.886 -3.182,7.676 -3.182,7.676 z m 10.16,51.053 0.864,0.71 c 0.517,0.427 1.34,1.046 2.244,1.848 1.858,1.472 4.498,3.472 7.149,5.248 2.69,1.868 5.34,3.644 7.433,4.903 1.045,0.63 1.868,1.249 2.437,1.543 0.568,0.294 0.873,0.487 0.873,0.487 l 6,-9.89 c 1.888,3.757 3.869,7.472 6.083,10.975 2.163,3.635 4.377,7.137 7.362,10.406 -4.294,0.925 -8.914,1.118 -13.443,1.271 -4.569,0.062 -9.087,-0.008 -13.686,-0.262 l 5.999,-9.89 c 0,0 -0.305,-0.193 -0.873,-0.487 -0.61,-0.386 -1.524,-0.965 -2.57,-1.594 -2.132,-1.35 -4.782,-3.127 -7.473,-4.994 -2.691,-1.868 -5.331,-3.868 -7.322,-5.39 -0.995,-0.762 -1.817,-1.381 -2.376,-1.9 -0.558,-0.517 -0.863,-0.71 -0.863,-0.71 z"
         id="path7585"
         inkscape:connector-curvature="0"
         style="fill:#e0f3fd" />
      <path
         d="m 368.851,248.004 -1.312,2.458 c -0.26,0.471 -0.409,0.856 -0.669,1.327 l -1.04,1.08 -0.694,0.72 8.033,8.352 c 0,0 -0.533,0.237 -1.364,0.436 -0.843,0.298 -1.984,0.56 -3.335,0.896 -2.704,0.673 -6.09,1.16 -9.463,1.548 -3.373,0.388 -6.734,0.677 -9.165,0.778 -2.53,0.09 -4.143,0.092 -4.143,0.092 0,0 0.78,-1.415 1.956,-3.587 1.077,-2.184 2.55,-5.125 3.813,-7.992 1.262,-2.866 2.338,-5.857 2.894,-7.904 0.334,-1.067 0.432,-1.86 0.605,-2.444 l 0.11,-0.893 8.034,8.352 0.57,-0.534 0.806,-0.807 c 0.248,-0.373 0.384,-0.658 0.532,-1.043 l 1.189,-2.27 z"
         id="path7587"
         inkscape:connector-curvature="0"
         style="fill:#dfeaa8" />
      <path
         d="m 246.018,198.082 c 3.2,-6.9 7.5,-13.2 12.7,-18.7 l 0.6,-0.7 -8.3,-8 c 0,0 1.8,-0.7 4.4,-1.5 2.6,-0.8 6.2,-1.7 9.9,-2.3 3.7,-0.6 7.4,-0.6 10.1,-0.1 1.3,0.2 2.3,0.5 3,0.8 0.7,0.3 1.1,0.4 1.1,0.4 0,0 -0.3,0.3 -0.9,0.7 -0.5,0.5 -1.2,1.1 -2,2 -1.5,1.8 -2.9,4.3 -3.8,7 -1,2.7 -1.7,5.5 -2.2,7.7 -0.5,2.1 -0.6,3.5 -0.6,3.5 l -8.3,-8 -0.6,0.7 c -4.9,5.3 -9.1,11.3 -12.1,17.9 z"
         id="path7589"
         inkscape:connector-curvature="0"
         style="fill:#808285" />
      <ellipse
         stroke-miterlimit="10"
         cx="435.10001"
         cy="75.900002"
         rx="30.1"
         ry="30.9"
         id="ellipse7591"
         style="fill:#e8cae1;stroke:#bcbec0;stroke-width:6;stroke-miterlimit:10" />
      <ellipse
         stroke-miterlimit="10"
         cx="316.5"
         cy="279.10001"
         rx="30.1"
         ry="30.9"
         id="ellipse7593"
         style="fill:#feddbf;stroke:#bcbec0;stroke-width:6;stroke-miterlimit:10" />
      <path
         d="m 366.66,196.76 c -2.9,-5.2 -6.8,-9.9 -11.3,-13.8 l -0.7,-0.6 -7.4,8.9 c 0,0 -0.1,-0.3 -0.2,-0.9 -0.1,-0.6 -0.4,-1.4 -0.7,-2.4 -0.6,-2 -1.7,-4.7 -3.2,-7.3 -1.4,-2.6 -3.2,-5.2 -4.8,-7 -0.8,-1 -1.4,-1.7 -1.9,-2.2 l -0.8,-0.8 c 0,0 0.4,-0.1 1.1,-0.3 0.7,-0.2 1.7,-0.4 3,-0.6 2.5,-0.5 6,-0.8 9.6,-0.7 3.6,0 7.3,0.5 10.1,1 1.4,0.3 2.6,0.5 3.4,0.7 0.8,0.2 1.3,0.3 1.3,0.3 l -7.4,8.9 0.7,0.6 c 4.8,4.2 8.9,9.1 12,14.7 z"
         id="path7595"
         inkscape:connector-curvature="0"
         style="fill:#808285" />
      <circle
         stroke-miterlimit="10"
         cx="339"
         cy="61"
         r="30.9"
         id="circle7597"
         style="opacity:0.13999999;stroke:#000000;stroke-width:6;stroke-miterlimit:10" />
      <circle
         stroke-miterlimit="10"
         cx="226"
         cy="224.8"
         r="31.4"
         id="circle7599"
         style="fill:#caebfc;stroke:#808285;stroke-width:6;stroke-miterlimit:10" />
      <circle
         stroke-miterlimit="10"
         cx="335.70001"
         cy="60"
         r="30.9"
         id="circle7601"
         style="fill:#e2f3f0;stroke:#bcbec0;stroke-width:6;stroke-miterlimit:10" />
      <circle
         stroke-miterlimit="10"
         cx="390.70001"
         cy="221.8"
         r="32.099998"
         id="circle7603"
         style="fill:#f8f7cb;stroke:#808285;stroke-width:6;stroke-miterlimit:10" />
      <circle
         stroke-miterlimit="10"
         cx="324.5"
         cy="52.900002"
         r="11.9"
         id="circle7605"
         style="opacity:0.98999999;fill:#caebfc;stroke:#9d9fa2;stroke-width:6;stroke-miterlimit:10" />
      <circle
         stroke-miterlimit="10"
         cx="348.5"
         cy="53.599998"
         r="12.2"
         id="circle7607"
         style="opacity:0.98999999;fill:#f8f7cb;stroke:#9d9fa2;stroke-width:6;stroke-miterlimit:10" />
      <circle
         stroke-miterlimit="10"
         cx="335.70001"
         cy="74.199997"
         r="12.2"
         id="circle7609"
         style="opacity:0.98999999;fill:#f7a8b3;stroke:#9d9fa2;stroke-width:6;stroke-miterlimit:10" />
      <circle
         stroke-miterlimit="10"
         cx="228"
         cy="68.300003"
         r="30.9"
         id="circle7611"
         style="fill:#caebfc;stroke:#bcbec0;stroke-width:6;stroke-miterlimit:10" />
      <path
         d="m 287.39,134.29 -0.594,-1.204 c -0.395,-0.802 -0.99,-1.806 -1.682,-3.11 -1.487,-2.508 -3.568,-5.82 -5.95,-8.933 -2.384,-3.113 -4.867,-6.127 -6.855,-8.238 -0.994,-1.106 -1.89,-1.91 -2.486,-2.514 -0.498,-0.403 -0.696,-0.704 -0.696,-0.704 l -8.046,8.256 c -1.657,-7.81 -4.513,-15.626 -8.77,-23.35 8.699,0.149 17.99,1.6 27.175,4.552 l -8.046,8.255 0.696,0.704 2.585,2.614 c 2.088,2.212 4.67,5.327 7.153,8.54 2.382,3.214 4.663,6.626 6.148,9.235 a 42.71,42.71 0 0 1 1.783,3.21 c 0.395,0.802 0.693,1.204 0.693,1.204 z m 29.352,-7.786 c 1.04,-3.78 2.178,-7.544 3.613,-11.258 l 0.346,-0.854 10.747,4.236 c 0,0 -0.36,-1.48 -0.703,-3.666 a 69.457,69.457 0 0 1 -1.01,-8.485 c -0.47,-6.264 -0.068,-12.889 -0.068,-12.889 0,0 -0.33,0.148 -1.004,0.542 -0.658,0.295 -1.562,0.853 -2.664,1.378 -2.238,1.247 -5.05,2.904 -7.913,4.858 -5.709,3.808 -11.074,8.586 -11.074,8.586 l 10.747,4.236 -0.346,0.855 c -1.45,3.812 -2.704,7.658 -3.662,11.553 z m 15.066,6.411 c 0,0 0.715,-0.727 1.981,-1.93 0.66,-0.643 1.376,-1.37 2.284,-2.21 0.908,-0.84 1.872,-1.763 3.028,-2.799 4.432,-4.03 10.687,-9.019 17.28,-13.428 6.592,-4.409 13.66,-8.267 19.131,-10.781 2.708,-1.215 5,-2.344 6.604,-2.967 l 0.995,-0.424 -4.332,-10.726 c 9.3,0.95 18.244,2.623 26.641,5.133 a 131.33,131.33 0 0 0 -16.649,19.22 l -4.387,-10.642 -0.995,0.424 c -1.603,0.623 -3.841,1.668 -6.466,2.938 -5.332,2.485 -12.207,6.23 -18.661,10.61 -6.538,4.326 -12.6,9.202 -16.977,13.15 -1.102,0.952 -2.065,1.875 -2.973,2.714 -0.908,0.84 -1.623,1.567 -2.229,2.127 a 240.348,240.348 0 0 0 -1.926,1.846 z"
         id="path7613"
         inkscape:connector-curvature="0"
         style="fill:#d1d3d4" />
      <circle
         stroke-miterlimit="10"
         cx="309.20001"
         cy="157.8"
         r="30.9"
         id="circle7615"
         style="fill:#cee7cc;stroke:#808285;stroke-width:6;stroke-miterlimit:10" />
      <circle
         stroke-miterlimit="10"
         cx="293.60001"
         cy="156.8"
         r="15"
         id="circle7617"
         style="fill:#caebfc;stroke:#808285;stroke-width:6;stroke-miterlimit:10" />
      <circle
         stroke-miterlimit="10"
         cx="324.10001"
         cy="157.8"
         r="15.4"
         id="circle7619"
         style="fill:#f8f7cb;stroke:#808285;stroke-width:6;stroke-miterlimit:10" />
      <path
         d="m 309.029,192.52 c 0,0 -0.074,1.9 -0.287,4.793 -0.113,2.898 -0.365,6.791 -0.417,10.692 -0.052,3.9 -0.004,7.806 0.182,10.715 0.042,1.503 0.195,2.71 0.264,3.513 0.076,0.604 0.06,1.003 0.06,1.003 l -11.545,0.951 c 4.992,8 10.815,15.233 17.084,21.282 2.233,-8.52 5.239,-16.308 9.12,-23.462 l -11.545,0.95 c 0,0 0.015,-0.4 -0.061,-1.003 -0.069,-0.803 -0.122,-2.006 -0.167,-3.409 -0.087,-2.905 -0.239,-6.714 -0.19,-10.515 0.047,-3.801 0.2,-7.698 0.412,-10.592 0.113,-2.898 0.287,-4.793 0.287,-4.793 z"
         id="path7621"
         inkscape:connector-curvature="0"
         style="fill:#d1d3d4" />
    </g>
  </switch>
</svg>
