<?xml version="1.0" encoding="UTF-8" standalone="no"?>
<svg
   width="595.29999"
   height="177"
   version="1.1"
   id="svg8680"
   sodipodi:docname="demorgan_duality.svg"
   inkscape:version="1.2.2 (1:1.2.2+202305151914+b0a8486541)"
   xmlns:inkscape="http://www.inkscape.org/namespaces/inkscape"
   xmlns:sodipodi="http://sodipodi.sourceforge.net/DTD/sodipodi-0.dtd"
   xmlns="http://www.w3.org/2000/svg"
   xmlns:svg="http://www.w3.org/2000/svg"
   xmlns:rdf="http://www.w3.org/1999/02/22-rdf-syntax-ns#"
   xmlns:cc="http://creativecommons.org/ns#"
   xmlns:dc="http://purl.org/dc/elements/1.1/">
  <metadata
     id="metadata8686">
    <rdf:RDF>
      <cc:Work
         rdf:about="">
        <dc:format>image/svg+xml</dc:format>
        <dc:type
           rdf:resource="http://purl.org/dc/dcmitype/StillImage" />
        <dc:title />
      </cc:Work>
    </rdf:RDF>
  </metadata>
  <defs
     id="defs8684" />
  <sodipodi:namedview
     pagecolor="#ffffff"
     bordercolor="#666666"
     borderopacity="1"
     objecttolerance="10"
     gridtolerance="10"
     guidetolerance="10"
     inkscape:pageopacity="0"
     inkscape:pageshadow="2"
     inkscape:window-width="1080"
     inkscape:window-height="1864"
     id="namedview8682"
     showgrid="false"
     inkscape:zoom="1.9855372"
     inkscape:cx="415.50469"
     inkscape:cy="76.049949"
     inkscape:window-x="0"
     inkscape:window-y="0"
     inkscape:window-maximized="1"
     inkscape:current-layer="g5432"
     inkscape:showpageshadow="2"
     inkscape:pagecheckerboard="0"
     inkscape:deskcolor="#d1d1d1" />
  <ellipse
     cy="51.542961"
     cx="417.45068"
     stroke-miterlimit="10"
     rx="29.048471"
     ry="28.48292"
     id="ellipse8632"
     style="opacity:0.14;stroke:#000000;stroke-width:2.98567;stroke-miterlimit:10" />
  <ellipse
     cy="50.754425"
     cx="415.28989"
     stroke-miterlimit="10"
     rx="29.048471"
     ry="28.48292"
     id="ellipse8634"
     style="fill:#cee7cc;stroke:#808285;stroke-width:2.98567;stroke-miterlimit:10" />
  <ellipse
     cy="118.11814"
     cx="347.44287"
     stroke-miterlimit="10"
     rx="29.501013"
     ry="28.92638"
     id="ellipse8636"
     style="opacity:0.14;stroke:#000000;stroke-width:2.98567;stroke-miterlimit:10" />
  <ellipse
     cy="116.29485"
     cx="344.52783"
     stroke-miterlimit="10"
     rx="29.501013"
     ry="28.92638"
     id="ellipse8638"
     style="fill:#caebfc;stroke:#808285;stroke-width:2.98567;stroke-miterlimit:10" />
  <ellipse
     cy="119.10344"
     cx="487.45901"
     stroke-miterlimit="10"
     rx="30.254747"
     ry="29.665482"
     id="ellipse8640"
     style="opacity:0.14;stroke:#000000;stroke-width:2.98567;stroke-miterlimit:10" />
  <ellipse
     cy="117.18177"
     cx="484.49405"
     stroke-miterlimit="10"
     rx="30.254747"
     ry="29.665482"
     id="ellipse8642"
     style="fill:#f8f7cb;stroke:#808285;stroke-width:2.98567;stroke-miterlimit:10" />
  <path
     d="m 476.55363,89.654892 c 0,0 -0.24721,-0.420758 -0.73002,-1.164401 a 87.338135,87.338135 0 0 0 -2.09219,-3.056804 c -0.88995,-1.24714 -1.99533,-2.620911 -3.21119,-4.082466 -1.2658,-1.45651 -2.63655,-2.951363 -4.10264,-4.387693 a 70.868018,70.868018 0 0 0 -4.46589,-4.004267 c -1.48981,-1.186095 -2.91958,-2.27936 -4.17278,-3.142571 -1.25369,-0.862709 -2.33637,-1.545303 -3.14307,-2.007943 -0.10595,-0.0394 -0.16094,-0.0832 -0.21593,-0.12713 -0.0555,-0.0439 -0.10494,-0.0388 -0.16043,-0.0827 l -0.11049,-0.0878 2.91151,-4.95325 c -2.49075,-0.14277 -5.01631,-0.13369 -7.4556,0.21391 -1.19417,0.17103 -2.37824,0.44044 -3.50733,0.75323 -1.12404,0.36224 -2.19258,0.76837 -3.1456,1.31121 a 15.851592,15.851592 0 0 1 2.52254,1.87374 c 0.73304,0.71791 1.41615,1.44087 1.99885,2.174424 1.17651,1.564479 2.10783,3.20362 2.9443,4.902293 l 2.91151,-4.953753 c 0,0 0.0555,0.0439 0.10493,0.0388 0.0505,-0.005 0.0555,0.0439 0.111,0.0883 0.055,0.0439 0.15992,0.0827 0.21492,0.12613 0.75171,0.419247 1.78494,1.106889 3.03813,1.9701 1.20376,0.868255 2.62798,1.912079 4.06784,3.103219 1.43986,1.191139 2.94531,2.524045 4.35591,3.916483 1.4106,1.392438 2.7763,2.838353 3.98711,4.250971 1.21082,1.412618 2.26624,2.791434 3.15064,3.989637 0.88491,1.198203 1.54884,2.220333 2.03216,2.963975 a 33.428596,33.428596 0 0 1 0.72951,1.164401 z m -117.158,0.375857 c 0,0 0.2124,-0.415713 0.50148,-1.085697 0.1675,-0.361732 0.3804,-0.77694 0.58825,-1.241591 0.25781,-0.469191 0.56152,-0.992364 0.86019,-1.56397 1.29456,-2.297017 3.23842,-5.197425 5.55562,-7.885435 2.3172,-2.687506 4.91793,-5.055155 7.03333,-6.68471 0.51308,-0.442957 1.04029,-0.739102 1.46206,-1.074599 0.42227,-0.336001 0.79913,-0.61802 1.13514,-0.79712 0.28655,-0.175064 0.42731,-0.287064 0.42731,-0.287064 l 3.27576,4.697963 a 42.308414,42.308414 0 0 1 6.41228,-10.537629 c -4.35591,-0.68865 -9.00645,-0.75626 -13.84568,-0.16296 l 3.27576,4.69797 -0.47726,0.2911 c -0.33146,0.228544 -0.70833,0.510564 -1.18054,0.851104 -0.42228,0.335497 -0.94444,0.681084 -1.50747,1.128581 -2.1608,1.683034 -4.90683,4.113241 -7.26943,6.854729 -2.41255,2.746029 -4.44723,5.754401 -5.78265,8.153833 -0.34862,0.576147 -0.64729,1.148257 -0.90509,1.617448 -0.25831,0.469191 -0.46616,0.933337 -0.63366,1.295572 -0.33449,0.723463 -0.54739,1.139176 -0.54739,1.139176 z"
     id="path8648"
     style="fill:#808285;stroke-width:0.504506"
     inkscape:connector-curvature="0" />
  <ellipse
     cy="-116.98813"
     cx="180.01228"
     stroke-miterlimit="10"
     rx="29.048471"
     ry="28.48292"
     id="ellipse8650"
     style="opacity:0.14;stroke:#000000;stroke-width:2.98567;stroke-miterlimit:10"
     transform="scale(1,-1)" />
  <ellipse
     cy="-117.77669"
     cx="177.85146"
     stroke-miterlimit="10"
     rx="29.048471"
     ry="28.48292"
     id="ellipse8652"
     style="fill:#cee7cc;stroke:#808285;stroke-width:2.98567;stroke-miterlimit:10"
     transform="scale(1,-1)" />
  <ellipse
     cy="-50.413475"
     cx="110.00394"
     stroke-miterlimit="10"
     rx="29.501013"
     ry="28.92638"
     id="ellipse8654"
     style="opacity:0.14;stroke:#000000;stroke-width:2.98567;stroke-miterlimit:10"
     transform="scale(1,-1)" />
  <ellipse
     cy="-52.236771"
     cx="107.08941"
     stroke-miterlimit="10"
     rx="29.501013"
     ry="28.92638"
     id="ellipse8656"
     style="fill:#caebfc;stroke:#808285;stroke-width:2.98567;stroke-miterlimit:10"
     transform="scale(1,-1)" />
  <ellipse
     cy="-49.427658"
     cx="250.02063"
     stroke-miterlimit="10"
     rx="30.254747"
     ry="29.665482"
     id="ellipse8658"
     style="opacity:0.14;stroke:#000000;stroke-width:2.98567;stroke-miterlimit:10"
     transform="scale(1,-1)" />
  <ellipse
     cy="-51.349319"
     cx="247.05565"
     stroke-miterlimit="10"
     rx="30.254747"
     ry="29.665482"
     id="ellipse8660"
     style="fill:#f8f7cb;stroke:#808285;stroke-width:2.98567;stroke-miterlimit:10"
     transform="scale(1,-1)" />
  <ellipse
     cy="-118.71304"
     cx="163.17641"
     stroke-miterlimit="10"
     rx="14.172594"
     ry="13.896629"
     id="ellipse8662"
     style="fill:#caebfc;stroke:#808285;stroke-width:2.98567;stroke-miterlimit:10"
     transform="scale(1,-1)" />
  <ellipse
     cy="-117.82613"
     cx="191.87321"
     stroke-miterlimit="10"
     rx="14.524236"
     ry="14.241208"
     id="ellipse8664"
     style="fill:#f8f7cb;stroke:#808285;stroke-width:2.98567;stroke-miterlimit:10"
     transform="scale(1,-1)" />
  <path
     d="m 148.65165,109.34991 c 0,0 -0.45204,-0.19676 -1.25622,-0.59129 a 89.797604,89.797604 0 0 1 -3.31713,-1.7244 c -1.35712,-0.73961 -2.86459,-1.67546 -4.47245,-2.71071 -1.60837,-1.08419 -3.26718,-2.26675 -4.87504,-3.54769 a 70.925027,70.925027 0 0 1 -4.52341,-3.942209 c -1.35712,-1.33089 -2.61334,-2.61183 -3.61832,-3.74546 -1.00498,-1.13312 -1.80916,-2.11893 -2.3621,-2.85803 -0.0505,-0.0984 -0.1009,-0.14782 -0.15085,-0.19676 -0.0505,-0.0494 -0.0505,-0.0989 -0.1009,-0.14832 l -0.0999,-0.0984 -4.7242,3.35093 c -0.40209,-2.41457 -0.65333,-4.87858 -0.55294,-7.29314 0.0505,-1.18257 0.2008,-2.36563 0.40209,-3.49876 0.25125,-1.13362 0.55294,-2.21781 1.00498,-3.20361 a 15.6957,15.6957 0 0 0 2.16131,2.26725 c 0.80368,0.64072 1.60786,1.23201 2.41204,1.72491 1.70877,0.9853 3.46798,1.7244 5.27714,2.36512 l -4.7242,3.35094 c 0,0 0.0504,0.0494 0.0504,0.0984 0,0.0494 0.0505,0.0494 0.1004,0.0989 0.0505,0.0489 0.1009,0.14782 0.15085,0.19676 0.50248,0.69016 1.30667,1.62652 2.31164,2.75965 1.00498,1.08468 2.21126,2.36563 3.56838,3.64657 1.35712,1.28144 2.86459,2.61183 4.4225,3.84434 1.55792,1.231499 3.16628,2.414059 4.7242,3.448799 1.55792,1.03525 3.06589,1.92217 4.37256,2.66127 1.30667,0.73911 2.41204,1.28145 3.21623,1.67497 0.80418,0.39452 1.25622,0.59178 1.25622,0.59178 z m 57.29326,-2.95692 c 0,0 0.4021,-0.2462 1.05543,-0.59077 0.35215,-0.19727 0.75373,-0.44397 1.20628,-0.69017 0.45254,-0.29564 0.95503,-0.64072 1.50797,-0.9853 2.21125,-1.4782 4.97544,-3.64657 7.48788,-6.160019 2.51295,-2.51295 4.67425,-5.2726 6.13177,-7.49041 0.40209,-0.54184 0.65334,-1.08418 0.95453,-1.52765 0.30169,-0.44346 0.55294,-0.83748 0.70379,-1.18256 0.15084,-0.29564 0.25124,-0.44346 0.25124,-0.44346 l -5.07584,-2.75965 a 43.290688,43.290688 0 0 0 10.10173,-7.2437 c 1.10538,4.18841 1.60786,8.7219 1.45752,13.5021 l -5.07634,-2.75965 -0.25125,0.49291 c -0.20079,0.34508 -0.45203,0.7391 -0.75373,1.232 -0.30169,0.44346 -0.60288,0.9853 -1.00498,1.57709 -1.50797,2.26674 -3.71922,5.17421 -6.28211,7.7366 -2.56289,2.611829 -5.42798,4.878579 -7.73963,6.406229 -0.55294,0.39402 -1.10588,0.7391 -1.55792,1.03423 -0.45254,0.29615 -0.90508,0.54235 -1.25622,0.73961 a 36.323454,36.323454 0 0 0 -1.10588,0.64072 z"
     id="path8666"
     style="fill:#808285;stroke-width:0.504506"
     inkscape:connector-curvature="0" />
  <g
     aria-label="V"
     style="font-style:normal;font-variant:normal;font-weight:normal;font-stretch:normal;font-size:40px;line-height:1.25;font-family:'HVD Comic Serif Pro';-inkscape-font-specification:'HVD Comic Serif Pro';letter-spacing:0px;word-spacing:0px;fill:#4d4d4d;fill-opacity:1;stroke:none"
     id="text10830"
     transform="translate(478.79457,303.00432)">
    <path
       d="m -67.615257,-167.73259 -11.132813,-29.16016 h 4.121094 l 9.238281,24.55079 9.257813,-24.55079 h 4.101562 l -11.113281,29.16016 z"
       style="font-style:normal;font-variant:normal;font-weight:normal;font-stretch:normal;font-family:sans-serif;-inkscape-font-specification:sans-serif;fill:#4d4d4d"
       id="path10832"
       inkscape:connector-curvature="0" />
  </g>
  <g
     aria-label="V"
     style="font-style:normal;font-variant:normal;font-weight:normal;font-stretch:normal;font-size:40px;line-height:1.25;font-family:'HVD Comic Serif Pro';-inkscape-font-specification:'HVD Comic Serif Pro';letter-spacing:0px;word-spacing:0px;fill:#4d4d4d;fill-opacity:1;stroke:none"
     id="text10830-8"
     transform="rotate(180,55.471817,-67.861274)">
    <path
       d="m -67.615257,-167.73259 -11.132813,-29.16016 h 4.121094 l 9.238281,24.55079 9.257813,-24.55079 h 4.101562 l -11.113281,29.16016 z"
       style="font-style:normal;font-variant:normal;font-weight:normal;font-stretch:normal;font-family:sans-serif;-inkscape-font-specification:sans-serif;fill:#4d4d4d"
       id="path10832-1"
       inkscape:connector-curvature="0" />
  </g>
  <g
     id="g5432"
     transform="matrix(1.4071074,0,0,1.4071074,-197.39724,-104.05876)"
     style="stroke-width:1.80500971;stroke-dasharray:none">
    <g
       id="g4828"
       transform="translate(146.07572,-42.671389)"
       style="stroke-width:1.80500971;stroke-dasharray:none">
      <path
         style="fill:#caebfc;fill-opacity:1;stroke:#808285;stroke-width:1.80500971;stroke-linecap:butt;stroke-linejoin:miter;stroke-dasharray:none;stroke-opacity:1"
         d="m 289.34575,162.73335 c -5.90355,0 -10.21983,-4.46432 -10.21983,-10.8797 0,-5.85789 4.74056,-9.87531 10.27218,-9.87531 0,3.51529 -0.0523,20.75501 -0.0523,20.75501 z"
         id="path3058"
         sodipodi:nodetypes="cscc" />
      <path
         d="m 289.69492,162.73973 c 5.90356,0 10.21984,-4.46431 10.21984,-10.87971 0,-5.85789 -4.74056,-9.8753 -10.27218,-9.8753 0,3.51528 0.0523,20.75501 0.0523,20.75501 z"
         style="fill:#f8f7cb;fill-opacity:1;stroke:#808285;stroke-width:1.80501;stroke-linecap:butt;stroke-linejoin:miter;stroke-dasharray:none;stroke-opacity:1"
         id="path3958" />
    </g>
  </g>
</svg>
