<svg xmlns="http://www.w3.org/2000/svg" width="595.3" height="200"><g transform="matrix(.47127 0 0 .46783 157.85 -68.789)"><ellipse cy="432.242" cx="362.485" stroke-miterlimit="10" rx="89.268" ry="84.777" opacity=".14" stroke="#000" stroke-width="8.922"/><g stroke="#6d6d6d" fill="none" stroke-width="6.389" stroke-miterlimit="10"><path d="M315.1 101.79c10.682-4.135 21.77-7.738 33.127-11.074-8.518-8.139-17.577-16.01-27.178-23.616-2.04 12.119-3.103 21.663-5.949 34.69z" transform="matrix(.06166 .69487 -.648 .06164 394.029 56.19)" stroke-width="35.526"/><path d="M382.5 152.612c-51.166 72.823-102.367 60.976-124.514 26.904-16.476-25.348-11.856-92.973 59.512-93.343" stroke-width="10.649" paint-order="markers fill stroke" transform="matrix(.03241 1.30729 -1.23778 .02809 454.669 -133.846)"/></g><ellipse cy="420.54" cx="347.159" stroke-miterlimit="10" rx="89.268" ry="84.777" fill="#e1e1e1" stroke="#808285" stroke-width="15.835"/><text style="line-height:1.25" x="255.196" y="289.324" transform="scale(.99634 1.00367)" font-weight="400" font-size="51.638" font-family="sans-serif" letter-spacing="0" word-spacing="0" fill="#6d6d6d" stroke-width="1.291"><tspan x="255.196" y="289.324" style="-inkscape-font-specification:'sans-serif Bold'" font-weight="700">ID</tspan></text></g></svg>
