<?xml version="1.0" encoding="UTF-8" standalone="no"?>
<svg
   xmlns:dc="http://purl.org/dc/elements/1.1/"
   xmlns:cc="http://creativecommons.org/ns#"
   xmlns:rdf="http://www.w3.org/1999/02/22-rdf-syntax-ns#"
   xmlns:svg="http://www.w3.org/2000/svg"
   xmlns="http://www.w3.org/2000/svg"
   xmlns:sodipodi="http://sodipodi.sourceforge.net/DTD/sodipodi-0.dtd"
   xmlns:inkscape="http://www.inkscape.org/namespaces/inkscape"
   width="595.3"
   height="200"
   version="1.1"
   id="svg89207"
   sodipodi:docname="identity.svg"
   inkscape:version="0.92.5 (2060ec1f9f, 2020-04-08)">
  <metadata
     id="metadata89213">
    <rdf:RDF>
      <cc:Work
         rdf:about="">
        <dc:format>image/svg+xml</dc:format>
        <dc:type
           rdf:resource="http://purl.org/dc/dcmitype/StillImage" />
      </cc:Work>
    </rdf:RDF>
  </metadata>
  <defs
     id="defs89211" />
  <sodipodi:namedview
     pagecolor="#ffffff"
     bordercolor="#666666"
     borderopacity="1"
     objecttolerance="10"
     gridtolerance="10"
     guidetolerance="10"
     inkscape:pageopacity="0"
     inkscape:pageshadow="2"
     inkscape:window-width="2560"
     inkscape:window-height="1376"
     id="namedview89209"
     showgrid="false"
     inkscape:zoom="3.2756594"
     inkscape:cx="297.64999"
     inkscape:cy="100"
     inkscape:window-x="0"
     inkscape:window-y="27"
     inkscape:window-maximized="1"
     inkscape:current-layer="g89205" />
  <g
     transform="matrix(.47127 0 0 .46783 157.85 -68.789)"
     id="g89205">
    <ellipse
       cy="432.242"
       cx="362.485"
       stroke-miterlimit="10"
       rx="89.268"
       ry="84.777"
       opacity=".14"
       stroke="#000"
       stroke-width="8.922"
       id="ellipse89191" />
    <g
       stroke="#6d6d6d"
       fill="none"
       stroke-width="6.389"
       stroke-miterlimit="10"
       id="g89197">
      <path
         d="M315.1 101.79c10.682-4.135 21.77-7.738 33.127-11.074-8.518-8.139-17.577-16.01-27.178-23.616-2.04 12.119-3.103 21.663-5.949 34.69z"
         transform="matrix(.06166 .69487 -.648 .06164 394.029 56.19)"
         stroke-width="35.526"
         id="path89193" />
      <path
         d="M382.5 152.612c-51.166 72.823-102.367 60.976-124.514 26.904-16.476-25.348-11.856-92.973 59.512-93.343"
         stroke-width="10.649"
         paint-order="markers fill stroke"
         transform="matrix(.03241 1.30729 -1.23778 .02809 454.669 -133.846)"
         id="path89195" />
    </g>
    <ellipse
       cy="420.54"
       cx="347.159"
       stroke-miterlimit="10"
       rx="89.268"
       ry="84.777"
       fill="#e1e1e1"
       stroke="#808285"
       stroke-width="15.835"
       id="ellipse89199" />
    <g
       aria-label="ID"
       transform="scale(.99634 1.00367)"
       style="font-weight:400;font-size:51.63800049px;line-height:1.25;font-family:sans-serif;letter-spacing:0;word-spacing:0;fill:#6d6d6d;stroke-width:1.29100001"
       id="text89203">
      <path
         d="m 259.93621,251.6797 h 9.70734 v 37.64431 h -9.70734 z"
         style="font-weight:700;-inkscape-font-specification:'sans-serif Bold'"
         id="path89215" />
      <path
         d="m 288.85651,259.01694 v 22.96983 h 3.47952 q 5.95047,0 9.07699,-2.95002 3.15173,-2.95003 3.15173,-8.57272 0,-5.59748 -3.12652,-8.52228 -3.12652,-2.92481 -9.1022,-2.92481 z m -9.70734,-7.33724 H 289.386 q 8.57272,0 12.75822,1.23548 4.21072,1.21027 7.21117,4.13507 2.64745,2.54661 3.93336,5.87484 1.28591,3.32823 1.28591,7.53894 0,4.26115 -1.28591,7.61459 -1.28591,3.32823 -3.93336,5.87483 -3.02567,2.92481 -7.2616,4.16029 -4.23593,1.21027 -12.70779,1.21027 h -10.23683 z"
         style="font-weight:700;-inkscape-font-specification:'sans-serif Bold'"
         id="path89217" />
    </g>
  </g>
</svg>
