<?xml version="1.0" encoding="UTF-8" standalone="no"?>
<svg
   viewBox="0 0 595.3 200"
   version="1.1"
   id="svg6444"
   sodipodi:docname="initial_object.svg"
   width="595.29999"
   height="200"
   inkscape:version="1.3 (1:1.3+202307231459+0e150ed6c4)"
   xmlns:inkscape="http://www.inkscape.org/namespaces/inkscape"
   xmlns:sodipodi="http://sodipodi.sourceforge.net/DTD/sodipodi-0.dtd"
   xmlns="http://www.w3.org/2000/svg"
   xmlns:svg="http://www.w3.org/2000/svg">
  <defs
     id="defs6448" />
  <sodipodi:namedview
     id="namedview6446"
     pagecolor="#ffffff"
     bordercolor="#666666"
     borderopacity="1.0"
     inkscape:showpageshadow="2"
     inkscape:pageopacity="0.0"
     inkscape:pagecheckerboard="0"
     inkscape:deskcolor="#d1d1d1"
     showgrid="false"
     inkscape:zoom="0.74330708"
     inkscape:cx="313.46399"
     inkscape:cy="140.58792"
     inkscape:window-width="1080"
     inkscape:window-height="1864"
     inkscape:window-x="0"
     inkscape:window-y="0"
     inkscape:window-maximized="1"
     inkscape:current-layer="svg6444"
     inkscape:lockguides="false" />
  <circle
     opacity="0.14"
     stroke="#000000"
     stroke-width="4.39221"
     stroke-miterlimit="10"
     cx="378.48465"
     cy="94.022644"
     r="22.619894"
     id="circle6392" />
  <circle
     opacity="0.14"
     stroke="#000000"
     stroke-width="4.39221"
     stroke-miterlimit="10"
     cx="286.17496"
     cy="153.75673"
     r="22.619894"
     id="circle6394" />
  <circle
     opacity="0.14"
     stroke="#000000"
     stroke-width="4.39221"
     stroke-miterlimit="10"
     cx="227.39253"
     cy="88.971619"
     r="22.619894"
     id="circle6410" />
  <circle
     fill="#caebfc"
     stroke="#bcbec0"
     stroke-width="4.39221"
     stroke-miterlimit="10"
     cx="224.97682"
     cy="87.58075"
     r="22.619894"
     id="circle6426" />
  <ellipse
     fill="#e8cae1"
     stroke="#bcbec0"
     stroke-width="4.39221"
     stroke-miterlimit="10"
     cx="376.65454"
     cy="93.144226"
     rx="22.034267"
     ry="22.619894"
     id="ellipse6428" />
  <circle
     opacity="0.14"
     stroke="#000000"
     stroke-width="4.39221"
     stroke-miterlimit="10"
     cx="306.23273"
     cy="82.236877"
     r="22.619894"
     id="circle6434" />
  <circle
     fill="#e2f3f0"
     stroke="#bcbec0"
     stroke-width="4.39221"
     stroke-miterlimit="10"
     cx="303.81702"
     cy="81.504837"
     r="22.619894"
     id="circle6436" />
  <path
     d="m 256.00087,82.831664 m 20.73152,49.026586 c 0,0 -0.31214,-0.71179 -0.80532,-1.94806 -0.26841,-0.64936 -0.58055,-1.36116 -0.91766,-2.24153 -0.33704,-0.88039 -0.71807,-1.82313 -1.12361,-2.9346 -1.59806,-4.27702 -3.35831,-10.11496 -4.61287,-16.02777 -1.25453,-5.91281 -1.98459,-12.006656 -2.21527,-16.589506 -0.0935,-2.26021 -0.2432,-4.20198 -0.2306,-5.51315 l -0.0187,-0.82417 -8.81603,0.0306 c 3.30335,-6.31205 7.01875,-12.16834 11.17115,-17.4002 2.46576,6.1814 5.49351,11.96947 8.88968,17.22063 l -8.77233,0.093 0.0187,0.82415 c -0.0126,1.31119 0.0934,3.19054 0.24934,5.40702 0.24942,4.47671 0.95451,10.401976 2.22779,16.208656 1.21085,5.85038 2.94616,11.51973 4.50051,15.73429 0.36209,1.04897 0.74286,1.99179 1.07997,2.87216 0.33704,0.88039 0.64924,1.59217 0.87394,2.17909 0.49324,1.23624 0.76159,1.88564 0.76159,1.88564 z"
     style="fill:#4d4d4d;stroke-width:1.14712"
     id="path8135" />
  <path
     d="m 307.78646,122.58687 m -31.39521,42.98537 c 0,0 0.46665,-0.62153 1.22952,-1.71224 0.40982,-0.57075 0.87648,-1.19229 1.40602,-1.97223 0.52945,-0.77996 1.11601,-1.61055 1.76501,-2.59981 2.53393,-3.79814 5.58276,-9.07874 8.15643,-14.54788 2.57366,-5.46914 4.67814,-11.23448 5.95086,-15.64308 0.60797,-2.17892 1.19782,-4.03498 1.48546,-5.31428 l 0.20666,-0.79804 8.57533,2.04616 c -1.77209,-6.90026 -4.04958,-13.45109 -6.89529,-19.49401 -3.81419,5.45359 -8.08552,10.39573 -12.5927,14.73094 l 8.51853,2.09692 -0.20667,0.79804 c -0.28764,1.2793 -0.82067,3.08459 -1.47942,5.20667 -1.26671,4.30099 -3.30832,9.90791 -5.87594,15.26946 -2.51682,5.41836 -5.50282,10.54053 -7.97992,14.28788 -0.59242,0.93834 -1.17873,1.76908 -1.70825,2.54901 -0.52947,0.77998 -0.9962,1.40146 -1.34918,1.92144 -0.76292,1.09066 -1.17268,1.66146 -1.17268,1.66146 z"
     style="fill:#4d4d4d;stroke-width:1.14712"
     id="path8135-3" />
  <path
     d="m 356.10647,127.6079 m -49.46141,19.67152 c 0,0 0.72591,-0.27766 1.95237,-0.79478 0.65079,-0.26493 1.37672,-0.54261 2.24021,-0.92089 0.86345,-0.37834 1.80217,-0.76913 2.87823,-1.261 4.1671,-1.86599 9.55933,-4.71274 14.64972,-7.97205 5.09039,-3.25933 9.94132,-7.01918 13.36584,-10.0734 1.6747,-1.52074 3.1622,-2.77783 4.08679,-3.70761 l 0.59983,-0.5655 6.16951,6.29764 c 2.1737,-6.78448 3.73355,-13.54222 4.54199,-20.17256 -6.1322,2.58569 -12.37908,4.49505 -18.50243,5.7651 l 6.0944,6.31035 -0.59983,0.56551 c -0.92458,0.92977 -2.33694,2.17412 -4.02437,3.61972 -3.36214,2.96633 -8.07551,6.62557 -13.10351,9.79702 -5.01523,3.2466 -10.26993,5.99269 -14.36187,7.84594 -1.00107,0.4789 -1.93965,0.86995 -2.80313,1.24823 -0.86347,0.37835 -1.58943,0.65594 -2.16506,0.90817 -1.22648,0.51704 -1.87724,0.78206 -1.87724,0.78206 z"
     style="fill:#4d4d4d;stroke-width:1.14712"
     id="path8135-3-6" />
  <path
     d="m 240.5982,127.5534 m 47.3974,24.22578 c 0,0 -0.69667,-0.34455 -1.86919,-0.97447 -0.62306,-0.32483 -1.31974,-0.66941 -2.14392,-1.12702 -0.82414,-0.45771 -1.72205,-0.93486 -2.74721,-1.52552 -3.97362,-2.24876 -9.07495,-5.5889 -13.83706,-9.31148 -4.7621,-3.72258 -9.23883,-7.92103 -12.36167,-11.2831 -1.52462,-1.67118 -2.88761,-3.06229 -3.72085,-4.07472 l -0.54412,-0.61928 -6.73323,5.69095 c -1.52751,-6.95851 -2.44639,-13.8328 -2.62912,-20.50974 5.86252,3.14967 11.90268,5.63677 17.87985,7.47578 l -6.65962,5.71066 0.54411,0.61929 c 0.83327,1.01242 2.12264,2.38381 3.66698,3.98137 3.06896,3.26872 7.4182,7.35408 12.12643,10.98332 4.68847,3.70286 9.66232,6.9299 13.56231,9.15892 0.95171,0.57072 1.84947,1.04811 2.67365,1.50574 0.82415,0.4577 1.52085,0.80219 2.07029,1.10732 1.17254,0.62984 1.79557,0.95475 1.79557,0.95475 z"
     style="fill:#4d4d4d;stroke-width:1.14712"
     id="path8135-3-6-7" />
  <circle
     opacity="0.14"
     stroke="#000000"
     stroke-width="4.39221"
     stroke-miterlimit="10"
     cx="272.29675"
     cy="41.742573"
     r="22.619894"
     id="circle6392-2" />
  <ellipse
     fill="#e8cae1"
     stroke="#bcbec0"
     stroke-width="4.39221"
     stroke-miterlimit="10"
     cx="270.46667"
     cy="43.076771"
     rx="22.034267"
     ry="22.619894"
     id="ellipse6428-2"
     style="fill:#ac9393" />
  <circle
     fill="#cee7cc"
     stroke="#808285"
     stroke-width="4.39221"
     stroke-miterlimit="10"
     cx="284.49127"
     cy="153.09792"
     r="22.619894"
     id="circle6396"
     style="fill:#ffffff" />
  <g
     aria-label="0"
     id="text8350-8"
     style="font-size:28.9566px;line-height:1.25;word-spacing:0px;fill:#808285;stroke-width:0.723916"
     transform="matrix(1.1018216,0,0,1.1018216,-70.213478,188.75381)">
    <path
       d="m 324.72717,-32.891166 q 0,-3.95891 -0.74937,-5.570752 -0.73522,-1.625981 -2.48845,-1.625981 -1.75324,0 -2.5026,1.625981 -0.74937,1.611842 -0.74937,5.570752 0,4.001327 0.74937,5.641447 0.74936,1.64012 2.5026,1.64012 1.73909,0 2.48845,-1.64012 0.74937,-1.64012 0.74937,-5.641447 z m 5.4435,0.04242 q 0,5.245556 -2.26223,8.101627 -2.26224,2.841932 -6.41909,2.841932 -4.171,0 -6.43323,-2.841932 -2.26224,-2.856071 -2.26224,-8.101627 0,-5.259695 2.26224,-8.101627 2.26223,-2.856071 6.43323,-2.856071 4.15685,0 6.41909,2.856071 2.26223,2.841932 2.26223,8.101627 z"
       style="font-weight:bold;-inkscape-font-specification:'sans-serif Bold'"
       id="path16329" />
  </g>
</svg>
