<svg xmlns:i="&amp;#38;ns_ai;" xmlns="http://www.w3.org/2000/svg" width="595.3" height="200"><switch transform="translate(0 -159)"><g i:extraneous="self"><path d="M234.227 253.974s1.35-.377 3.682-.95c1.227-.315 2.577-.692 4.234-1.076 1.658-.383 3.438-.827 5.527-1.278 8.045-1.796 18.932-3.538 29.84-4.412 10.91-.873 22.026-.825 30.315-.251 4.083.317 7.607.472 9.96.769l1.486.141 1.92-14.87c10.605 6.895 20.3 14.39 28.774 22.49a189.074 189.074 0 00-32.943 11.372l1.797-14.81-1.486-.142c-2.354-.297-5.756-.513-9.774-.716-8.103-.52-18.91-.575-29.633.353-10.786.813-21.365 2.548-29.288 4.284-1.967.39-3.747.834-5.404 1.218-1.658.383-3.008.76-4.113 1.015-2.332.572-3.56.889-3.56.889zM360.01 280.138s-1.442.355-3.934.892c-1.31.297-2.752.652-4.523 1.012s-3.672.778-5.903 1.202c-8.595 1.689-20.225 3.327-31.878 4.148-11.653.821-23.528.775-32.382.236-4.362-.298-8.126-.444-10.64-.723l-1.588-.133-2.05 13.981c-11.329-6.483-21.685-13.528-30.737-21.144 12.458-2.688 24.296-6.345 35.19-10.692l-1.919 13.925 1.587.133c2.514.278 6.148.482 10.441.672 8.655.488 20.2.54 31.654-.331 11.523-.765 22.823-2.396 31.287-4.028 2.101-.367 4.002-.784 5.773-1.145 1.771-.36 3.213-.714 4.393-.955 2.492-.538 3.803-.835 3.803-.835z" fill="#6d6d6d" stroke-width=".3"/><g stroke="#6d6d6d" fill="none" stroke-width="6.389" stroke-miterlimit="10"><path d="M315.1 101.79c10.682-4.135 21.77-7.738 33.127-11.074-8.518-8.139-17.577-16.01-27.178-23.616-2.04 12.119-3.103 21.663-5.949 34.69z" transform="matrix(.03347 .37874 -.3517 .0336 408.004 79.942)" stroke-width="35.526"/><path d="M382.5 152.612c-51.166 72.823-109.784 64.461-131.931 30.39-16.476-25.349-9.294-98.303 48.505-93.633" stroke-width="10.649" paint-order="markers fill stroke" transform="matrix(.01423 .54478 -.5436 .0117 433.444 35.347)"/></g><circle cy="98.283" cx="456.064" stroke-miterlimit="10" transform="rotate(22.196)" r="33.002" fill="#999491" stroke="#858585" stroke-width="8.049"/><g stroke="#6d6d6d" fill="none" stroke-width="6.389" stroke-miterlimit="10"><path d="M315.1 101.79c10.682-4.135 21.77-7.738 33.127-11.074-8.518-8.139-17.577-16.01-27.178-23.616-2.04 12.119-3.103 21.663-5.949 34.69z" transform="matrix(.03347 .37874 -.3517 .0336 231.245 83.6)" stroke-width="35.526"/><path d="M382.5 152.612c-51.166 72.823-109.784 64.461-131.931 30.39-16.476-25.349-9.294-98.303 48.505-93.633" stroke-width="10.649" paint-order="markers fill stroke" transform="matrix(.01423 .54478 -.5436 .0117 256.684 39.005)"/></g><circle cy="172.907" cx="286.776" stroke-miterlimit="10" transform="rotate(22.196)" r="33.002" fill="#999491" stroke="#858585" stroke-width="8.049"/><text style="line-height:1.25" x="342.857" y="211.48" font-weight="400" font-size="24.247" font-family="sans-serif" letter-spacing="0" word-spacing="0" fill="#6d6d6d" stroke-width=".606"><tspan x="342.857" y="211.48" style="-inkscape-font-specification:'sans-serif Bold'" font-weight="700">ID</tspan></text><text style="line-height:1.25" x="166.804" y="214.735" font-weight="400" font-size="24.247" font-family="sans-serif" letter-spacing="0" word-spacing="0" fill="#6d6d6d" stroke-width=".606"><tspan x="166.804" y="214.735" style="-inkscape-font-specification:'sans-serif Bold'" font-weight="700">ID</tspan></text></g></switch></svg>