<svg xmlns="http://www.w3.org/2000/svg" viewBox="0 0 595.3 204"><switch><g><circle opacity=".38" fill="#808285" stroke="#808285" stroke-width="6" stroke-miterlimit="10" cx="303.2" cy="102.9" r="83.7"/><circle fill="#E6E7E8" stroke="#808285" stroke-width="6" stroke-miterlimit="10" cx="295.6" cy="97.3" r="83.7"/><circle fill="#E6E7E8" stroke="#808285" stroke-width="6" stroke-miterlimit="10" cx="262.4" cy="90.1" r="38.5"/><circle fill="#39BCED" stroke="#008DD2" stroke-width="6" stroke-miterlimit="10" cx="266.7" cy="108.7" r="13.2"/><circle fill="#E6E7E8" stroke="#808285" stroke-width="6" stroke-miterlimit="10" cx="340" cy="100" r="36.8"/><circle fill="#F58235" stroke="#E76524" stroke-width="6" stroke-miterlimit="10" cx="327.5" cy="86.3" r="13.2"/><circle fill="#FFF" stroke="#939598" stroke-width="6" stroke-miterlimit="10" cx="262.4" cy="72.8" r="15"/><path fill="#818285" d="M265.6 79h-3.9v-7.5c0-.9 0-1.7.1-2.5-.2.3-.6.6-.9.9l-1.6 1.4-1.9-2.4 4.9-4h3.4V79h-.1z"/><circle fill="#FFF" stroke="#939598" stroke-width="6" stroke-miterlimit="10" cx="356.6" cy="107.4" r="15"/><path fill="#818285" d="M361.5 113.6h-10.3V111l3.4-3.5c1-1 1.6-1.7 1.9-2.2.3-.5.6-.7.7-1 .1-.2.2-.6.2-.8 0-.3-.1-.7-.3-.9-.2-.2-.6-.3-1-.3s-.9.1-1.4.3c-.5.2-1 .7-1.6 1.1l-2.1-2.5c.7-.7 1.4-1.1 1.8-1.4.5-.2 1-.5 1.6-.7.6-.1 1.3-.2 1.9-.2.9 0 1.7.1 2.5.5.8.3 1.3.8 1.7 1.4.3.6.6 1.3.6 2.1 0 .6-.1 1-.2 1.6-.1.5-.3.9-.7 1.4-.3.5-.7.9-1.1 1.5-.5.5-1.5 1.5-3.1 2.9v.1h5.4l.1 3.2z"/></g></switch></svg>