<?xml version="1.0" encoding="UTF-8" standalone="no"?>
<svg
   xmlns:dc="http://purl.org/dc/elements/1.1/"
   xmlns:cc="http://creativecommons.org/ns#"
   xmlns:rdf="http://www.w3.org/1999/02/22-rdf-syntax-ns#"
   xmlns:svg="http://www.w3.org/2000/svg"
   xmlns="http://www.w3.org/2000/svg"
   xmlns:sodipodi="http://sodipodi.sourceforge.net/DTD/sodipodi-0.dtd"
   xmlns:inkscape="http://www.inkscape.org/namespaces/inkscape"
   viewBox="0 0 595.3 477.5"
   version="1.1"
   id="svg9505"
   sodipodi:docname="plus.svg"
   inkscape:version="0.92.5 (2060ec1f9f, 2020-04-08)">
  <metadata
     id="metadata9511">
    <rdf:RDF>
      <cc:Work
         rdf:about="">
        <dc:format>image/svg+xml</dc:format>
        <dc:type
           rdf:resource="http://purl.org/dc/dcmitype/StillImage" />
      </cc:Work>
    </rdf:RDF>
  </metadata>
  <defs
     id="defs9509" />
  <sodipodi:namedview
     pagecolor="#ffffff"
     bordercolor="#666666"
     borderopacity="1"
     objecttolerance="10"
     gridtolerance="10"
     guidetolerance="10"
     inkscape:pageopacity="0"
     inkscape:pageshadow="2"
     inkscape:window-width="2560"
     inkscape:window-height="1376"
     id="namedview9507"
     showgrid="false"
     inkscape:zoom="1.5057919"
     inkscape:cx="301.29919"
     inkscape:cy="750.53705"
     inkscape:window-x="0"
     inkscape:window-y="27"
     inkscape:window-maximized="1"
     inkscape:current-layer="svg9505" />
  <path
     opacity=".14"
     stroke="#000"
     stroke-width="6"
     stroke-miterlimit="10"
     d="M441.3 286.8c0 77.8-53.9 120.4-120.4 120.4s-120.4-53.9-120.4-120.4 54-120.4 120.5-120.4 120.3 53.9 120.3 120.4z"
     id="path9389"
     style="stroke-width:4;stroke-miterlimit:10;stroke-dasharray:none" />
  <circle
     fill="#E6E7E8"
     stroke="#808285"
     stroke-width="6"
     stroke-miterlimit="10"
     cx="312.1"
     cy="283.3"
     r="120.4"
     id="circle9391"
     style="stroke-width:4;stroke-miterlimit:10;stroke-dasharray:none" />
  <circle
     opacity=".14"
     stroke="#000"
     stroke-width="6"
     stroke-miterlimit="10"
     cx="129.3"
     cy="389.8"
     r="72.4"
     id="circle9393"
     style="stroke-width:4;stroke-miterlimit:10;stroke-dasharray:none" />
  <circle
     fill="#E6E7E8"
     stroke="#808285"
     stroke-width="6"
     stroke-miterlimit="10"
     cx="122.1"
     cy="385.2"
     r="72.4"
     id="circle9395"
     style="stroke-width:4;stroke-miterlimit:10;stroke-dasharray:none" />
  <circle
     opacity=".14"
     stroke="#000"
     stroke-width="6"
     stroke-miterlimit="10"
     cx="483.6"
     cy="400.8"
     r="47.3"
     id="circle9397"
     style="stroke-width:4;stroke-miterlimit:10;stroke-dasharray:none" />
  <circle
     fill="#E6E7E8"
     stroke="#808285"
     stroke-width="6"
     stroke-miterlimit="10"
     cx="479"
     cy="397.8"
     r="47.3"
     id="circle9399"
     style="stroke-width:4;stroke-miterlimit:10;stroke-dasharray:none" />
  <circle
     fill="#E6E7E8"
     stroke="#808285"
     stroke-width="6"
     stroke-miterlimit="10"
     cx="271.8"
     cy="359.8"
     r="23.1"
     id="circle9401"
     style="stroke-width:4;stroke-miterlimit:10;stroke-dasharray:none;fill:#ffffff;fill-opacity:1" />
  <path
     fill="#808285"
     d="M251.9 282.2s1-.1 2.9-.3c1.9-.1 4.6-.5 8.1-.7 7-.4 17.1-.7 29.2.2 12 .9 26 3 40.6 7 14.6 3.9 29.6 9.9 43.8 17.5 7 3.9 13.9 8.2 20.4 12.8 6.4 4.6 12.6 9.4 18.3 14.4 1.5 1.2 2.8 2.5 4.2 3.7 1.4 1.2 2.7 2.5 4 3.8 1.3 1.3 2.6 2.5 3.9 3.8 1.2 1.3 2.4 2.5 3.6 3.8.6.6 1.2 1.2 1.8 1.9.6.6 1.1 1.3 1.7 1.9 1.1 1.3 2.2 2.5 3.3 3.7 2.1 2.5 4.2 4.9 6 7.3 7.6 9.4 13.2 17.8 17.1 23.7.6.9.9 1.4.9 1.4l-9.7 6.2c7.7 3.8 15.2 8 22.8 12.4.1-8.7-.1-17.6-.6-26.6l-9.7 6.2s-.3-.5-.9-1.4c-3.9-6-9.6-14.4-17.3-24-1.9-2.4-4-4.8-6.1-7.3-1.1-1.2-2.2-2.5-3.4-3.7-.6-.6-1.1-1.3-1.7-1.9-.6-.6-1.2-1.3-1.8-1.9-1.2-1.3-2.4-2.6-3.7-3.8-1.3-1.3-2.6-2.5-3.9-3.8-1.3-1.3-2.7-2.6-4.1-3.8-1.4-1.3-2.8-2.6-4.2-3.8-5.8-5-12-9.9-18.6-14.6-6.6-4.6-13.5-9-20.7-13-14.4-7.7-29.7-13.9-44.5-17.8-14.8-4.1-29-6.3-41.2-7.1-12.2-.9-22.5-.6-29.6-.2-3.6.2-6.4.6-8.3.7-1.9.2-2.9.3-2.9.3l.3 3z"
     id="path9403"
     style="stroke-width:4;stroke-miterlimit:10;stroke-dasharray:none" />
  <path
     d="m 355.8,332 c 0,0 0.5,0.1 1.3,0.2 0.9,0.2 2.2,0.3 3.8,0.7 3.3,0.7 7.9,1.9 13.3,3.9 5.4,1.9 11.5,4.6 17.9,8 6.3,3.4 12.8,7.5 19.1,12 12.5,9 23.8,19.5 31.9,27.8 4,4.2 7.2,7.8 9.4,10.3 0.5,0.6 0.8,1 0.8,1 l -8.8,7.6 c 8,2.6 16.1,5.7 24.1,9.3 -0.9,-8.7 -2.3,-17.6 -4.1,-26.5 l -8.8,7.6 c 0,0 -0.3,-0.4 -0.8,-1 -2.2,-2.6 -5.5,-6.2 -9.5,-10.4 -8.1,-8.4 -19.6,-19.1 -32.3,-28.2 -6.3,-4.5 -13,-8.8 -19.4,-12.2 -6.5,-3.5 -12.8,-6.2 -18.3,-8.2 -5.5,-2 -10.3,-3.3 -13.7,-4 -1.7,-0.4 -3,-0.6 -3.9,-0.8 -0.9,-0.2 -1.4,-0.3 -1.4,-0.3 z"
     id="path9405"
     style="fill:#808285;stroke-width:4;stroke-miterlimit:10;stroke-dasharray:none"
     inkscape:connector-curvature="0" />
  <path
     d="m 295.8,360.9 h 7.3 c 4.6,0.1 11.3,0.5 19.2,1.5 7.9,1 17.2,2.6 27,4.7 9.8,2.2 20.1,5 30.3,8.2 20.4,6.4 40.1,15 54,22.9 7,3.9 12.5,7.6 16.3,10.3 0.7,0.5 1.1,0.8 1.1,0.8 l -6.9,9.3 c 8.1,0.6 16.4,1.8 24.7,4.6 -1.8,-8.6 -5.1,-17.3 -9.2,-25.8 l -6.9,9.3 c 0,0 -0.4,-0.3 -1.2,-0.8 -3.9,-2.8 -9.5,-6.6 -16.6,-10.5 -14.1,-8 -34,-16.7 -54.6,-23.2 -10.3,-3.3 -20.7,-6.1 -30.6,-8.3 -9.9,-2.2 -19.2,-3.8 -27.3,-4.8 -8,-1 -14.8,-1.4 -19.6,-1.5 -2.4,-0.1 -4.2,-0.1 -5.5,0 h -2 z m 80.3,-91.8 c 0,0 1.8,0.5 5,1.5 0.8,0.2 1.7,0.5 2.6,0.8 0.5,0.1 1,0.3 1.5,0.5 0.5,0.2 1,0.4 1.6,0.6 2.1,0.8 4.6,1.7 7.2,2.8 2.5,1.2 5.3,2.5 8.2,4 1.4,0.8 2.8,1.6 4.3,2.5 1.5,0.9 3,1.7 4.4,2.7 1.5,1 2.9,2 4.4,3 0.4,0.3 0.8,0.5 1.1,0.8 l 1.1,0.9 c 0.7,0.6 1.4,1.2 2.2,1.7 0.7,0.6 1.4,1.2 2.2,1.7 l 1.1,0.9 c 0.4,0.3 0.7,0.6 1,0.9 1.4,1.3 2.8,2.6 4.1,3.8 10.9,10.4 19.5,23.1 25,32.9 1.5,2.4 2.6,4.8 3.6,6.8 0.5,1 1,2 1.5,2.9 0.5,0.9 0.8,1.7 1.1,2.5 0.3,0.7 0.5,1.1 0.5,1.1 l -10.5,4.8 c 1.7,1.2 3.5,2.3 5.2,3.6 l 5.1,3.9 c 0.8,0.7 1.7,1.3 2.5,2 l 2.5,2.1 5,4.3 1.2,-6.5 0.6,-3.3 c 0.2,-1.1 0.3,-2.2 0.5,-3.3 l 0.9,-6.7 c 0.2,-2.3 0.4,-4.5 0.6,-6.8 l -10.5,4.8 c 0,0 -0.2,-0.4 -0.5,-1.2 -0.4,-0.8 -0.7,-1.6 -1.2,-2.5 -0.5,-0.9 -1,-1.9 -1.5,-2.9 -1.1,-2.1 -2.2,-4.5 -3.7,-7 -5.6,-10.1 -14.3,-23 -25.5,-33.7 l -4.2,-3.9 c -0.4,-0.3 -0.7,-0.7 -1.1,-1 l -1.1,-0.9 c -0.7,-0.6 -1.5,-1.2 -2.2,-1.8 -0.7,-0.6 -1.5,-1.2 -2.2,-1.8 l -1.1,-0.9 c -0.4,-0.3 -0.8,-0.5 -1.1,-0.8 -1.5,-1.1 -3.1,-2.1 -4.5,-3.1 -1.5,-1.1 -3,-1.9 -4.5,-2.8 -1.5,-0.9 -3,-1.7 -4.4,-2.6 -2.9,-1.5 -5.8,-2.8 -8.4,-4.1 -2.7,-1.1 -5.2,-2 -7.4,-2.9 -0.5,-0.2 -1.1,-0.4 -1.6,-0.6 -0.5,-0.2 -1,-0.3 -1.5,-0.5 -1,-0.3 -1.9,-0.6 -2.7,-0.8 -3.2,-1 -5.1,-1.5 -5.1,-1.5 z"
     id="path9407"
     style="fill:#808285;stroke-width:4;stroke-miterlimit:10;stroke-dasharray:none"
     inkscape:connector-curvature="0" />
  <path
     fill="#808285"
     d="M306.5 205.7s3.7.4 10.2 1.2c6.5.9 15.7 2.3 26.7 4.7 10.9 2.4 23.6 6 36.6 11.1.8.3 1.6.6 2.5 1 .8.3 1.6.7 2.4 1.1 1.6.7 3.3 1.4 4.9 2.1 1.6.8 3.3 1.6 4.9 2.4.8.4 1.6.8 2.5 1.2.8.4 1.6.9 2.4 1.3 6.5 3.4 12.8 7.3 18.9 11.6 6.1 4.3 11.8 9.1 17 14.2 1.3 1.3 2.6 2.5 3.8 3.9 1.2 1.3 2.4 2.7 3.6 4 1.2 1.3 2.3 2.8 3.4 4.1.6.7 1.1 1.4 1.7 2.1l1.5 2.1c4.2 5.6 7.6 11.4 10.7 17 1.4 2.9 2.9 5.6 4 8.4.6 1.4 1.2 2.7 1.7 4.1.5 1.4 1 2.7 1.5 4 3.8 10.5 5.7 19.6 6.9 26 .2 1 .2 1.6.2 1.6l-11.4 1.8c1.3 1.6 2.7 3.2 4 4.8 1.3 1.6 2.5 3.3 3.8 5l1.9 2.6 1.8 2.7 3.6 5.5 3-5.9 1.5-3 1.3-3.1 2.7-6.3c.8-2.1 1.6-4.3 2.4-6.5l-11.4 1.8s-.1-.6-.2-1.6c-1.2-6.5-3.1-15.9-7-26.6-.5-1.3-1-2.7-1.5-4.1l-1.8-4.2c-1.2-2.9-2.6-5.7-4.1-8.6-3.1-5.8-6.6-11.7-10.9-17.4-.5-.7-1.1-1.4-1.6-2.2-.6-.7-1.1-1.4-1.7-2.1-1.2-1.4-2.3-2.8-3.5-4.2-1.2-1.4-2.5-2.7-3.7-4.1-1.2-1.4-2.6-2.6-3.9-4-5.4-5.2-11.2-10.2-17.4-14.5-6.2-4.4-12.6-8.4-19.3-11.9-.8-.4-1.6-.9-2.5-1.3-.8-.4-1.7-.8-2.5-1.2-1.7-.8-3.3-1.6-5-2.4-1.7-.7-3.3-1.4-5-2.2-.8-.4-1.7-.7-2.5-1.1-.8-.3-1.7-.6-2.5-1-13.2-5.2-26-8.8-37.1-11.2-11.1-2.5-20.4-3.8-27-4.7-6.6-.8-10.3-1.2-10.3-1.2l-.2 3.2z"
     id="path9409"
     style="stroke-width:4;stroke-miterlimit:10;stroke-dasharray:none" />
  <path
     d="m 391.3,210.8 c 0,0 0.7,0.2 1.9,0.4 0.6,0.1 1.4,0.3 2.3,0.5 0.9,0.2 1.9,0.4 3.1,0.8 1.1,0.4 2.4,0.7 3.8,1.2 1.4,0.4 2.8,1 4.4,1.6 l 2.4,0.9 c 0.8,0.4 1.6,0.7 2.5,1.1 0.8,0.4 1.7,0.8 2.6,1.2 0.9,0.4 1.8,0.9 2.7,1.4 7.2,3.9 15.2,9.3 22.7,16.4 0.9,0.9 1.8,1.8 2.8,2.7 l 1.4,1.4 1.3,1.5 c 0.9,1 1.8,1.9 2.7,2.9 0.9,1 1.7,2.1 2.6,3.1 l 1.3,1.6 1.2,1.6 c 0.8,1.1 1.7,2.2 2.5,3.2 0.8,1.1 1.6,2.2 2.4,3.4 l 1.2,1.7 1.1,1.7 2.2,3.5 2.1,3.6 c 1.4,2.3 2.6,4.8 3.9,7.2 2.4,4.9 4.6,9.7 6.4,14.5 3.7,9.6 6.3,19 7.8,27.1 1.5,8.1 2.1,15 2.3,19.8 0,0.9 0.1,1.4 0.1,1.4 l -11.6,0.3 c 4.6,6.7 8.6,14 11.5,22.3 5.7,-6.7 10.7,-14.5 14.8,-23 l -11.6,0.3 c 0,0 0,-0.5 -0.1,-1.4 -0.1,-4.9 -0.8,-11.9 -2.3,-20.2 -1.5,-8.3 -4.1,-17.8 -7.9,-27.6 -1.8,-4.9 -4.1,-9.9 -6.6,-14.8 -1.3,-2.4 -2.5,-4.9 -4,-7.3 l -2.1,-3.6 -2.3,-3.5 -1.1,-1.8 -1.2,-1.7 c -0.8,-1.1 -1.6,-2.3 -2.4,-3.4 -0.9,-1.1 -1.7,-2.2 -2.6,-3.3 l -1.3,-1.7 -1.3,-1.6 c -0.9,-1.1 -1.8,-2.1 -2.7,-3.2 -0.9,-1 -1.9,-2 -2.8,-3 l -1.4,-1.5 c -0.5,-0.5 -1,-0.9 -1.4,-1.4 -1,-0.9 -1.9,-1.9 -2.9,-2.8 -7.7,-7.2 -15.9,-12.9 -23.4,-16.8 l -2.7,-1.5 -2.7,-1.2 c -0.9,-0.4 -1.7,-0.8 -2.6,-1.2 -0.8,-0.4 -1.7,-0.7 -2.5,-1 -1.6,-0.6 -3.1,-1.2 -4.5,-1.7 -1.4,-0.4 -2.7,-0.8 -3.9,-1.2 -1.2,-0.4 -2.3,-0.6 -3.2,-0.8 -0.9,-0.2 -1.7,-0.4 -2.4,-0.6 -1.3,-0.3 -2,-0.5 -2,-0.5 z M 257.2,200 c 0,0 -2.9,0.1 -4.5,0.3 -0.8,0.1 -1.8,0.2 -3,0.3 -0.6,0.1 -1.2,0.1 -1.9,0.2 -0.7,0.1 -1.4,0.2 -2.2,0.3 -1.5,0.2 -3.2,0.5 -5.1,0.8 -1.8,0.3 -3.8,0.8 -5.9,1.3 -2.1,0.4 -4.3,1.1 -6.6,1.7 -1.2,0.3 -2.4,0.6 -3.6,1 -1.2,0.4 -2.4,0.8 -3.7,1.2 -10,3.4 -21.4,8.4 -32.7,15.2 -11.3,6.8 -22.7,15.1 -33.2,24.5 l -3.9,3.5 c -1.3,1.2 -2.5,2.4 -3.8,3.6 l -1.9,1.8 -1.8,1.9 c -1.2,1.2 -2.4,2.5 -3.6,3.7 -4.7,5.1 -9.3,10.1 -13.4,15.2 -8.4,10.2 -15.4,20.3 -20.8,29.3 -5.5,9 -9.5,16.9 -12.1,22.4 -0.4,0.9 -0.6,1.4 -0.6,1.4 l -10.5,-4.8 c 0.6,9.2 1.9,18.2 3.9,26.7 6.4,-6 13.1,-11.2 20,-15.9 l -10.5,-4.8 c 0,0 0.2,-0.5 0.6,-1.4 2.6,-5.5 6.5,-13.2 11.9,-22.1 5.4,-8.9 12.3,-18.9 20.6,-29 4.1,-5.1 8.6,-10.1 13.3,-15 1.2,-1.2 2.4,-2.4 3.6,-3.7 l 1.8,-1.8 1.9,-1.8 c 1.2,-1.2 2.5,-2.4 3.8,-3.6 l 3.9,-3.5 c 10.3,-9.3 21.6,-17.4 32.7,-24.1 11.1,-6.7 22.3,-11.6 32.1,-14.9 l 3.6,-1.2 c 1.2,-0.4 2.4,-0.7 3.5,-1 2.3,-0.6 4.4,-1.3 6.5,-1.7 2.1,-0.4 4,-0.9 5.8,-1.2 1.8,-0.3 3.4,-0.6 4.9,-0.8 0.7,-0.1 1.4,-0.3 2.1,-0.3 0.7,-0.1 1.3,-0.1 1.9,-0.2 1.2,-0.1 2.2,-0.2 3,-0.3 1.6,-0.2 4.5,-0.3 4.5,-0.3 z"
     id="path9411"
     style="fill:#808285;stroke-width:4;stroke-miterlimit:10;stroke-dasharray:none"
     inkscape:connector-curvature="0"
     sodipodi:nodetypes="cssccsccscccccscccccccccccscccccccsccccccccccccccccccscscssccccscsccccscscccccccccccccccscccccccscscsscccscc" />
  <path
     fill="#808285"
     d="M203.7 285.2s-1.7.4-4.7 1.2c-1.5.4-3.3 1-5.3 1.6-2 .7-4.3 1.4-6.8 2.4-4.9 1.9-10.5 4.3-16.4 7.2-5.9 2.9-12 6.3-17.9 10-11.9 7.3-23.2 15.5-31.4 22-4.1 3.2-7.4 6-9.8 8-.6.5-.9.8-.9.8l-7.5-8.8c-1.6 4.2-3.1 8.5-4.4 12.8-.7 2.1-1.3 4.3-1.9 6.4-.6 2.2-1.2 4.3-1.5 6.5 2-.8 4.1-1.3 6.2-1.9l6.3-1.5c4.2-.9 8.4-1.7 12.6-2.4l-7.5-8.8s.3-.3.9-.8c2.3-1.9 5.6-4.7 9.7-7.9 8.1-6.4 19.3-14.6 31.1-21.8 5.9-3.6 11.9-7 17.7-9.8 5.8-2.9 11.3-5.3 16.1-7.1 2.4-.9 4.6-1.7 6.6-2.3 2-.6 3.7-1.1 5.2-1.6 2.9-.7 4.6-1.2 4.6-1.2l-1-3zM246.6 360.9s-.4.1-1.1.2c-.7.1-1.7.3-3 .6-2.6.6-6.2 1.5-10.5 2.9-8.5 2.8-19.5 7.7-29.9 13.5-10.4 5.7-20.4 12.3-27.6 17.6-3.6 2.6-6.6 4.9-8.6 6.6-.6.5-.9.8-.9.8l-7.3-9c-1.8 4.3-3.4 8.6-4.8 13-.4 1.1-.7 2.2-1 3.3l-.9 3.3c-.5 2.3-.9 4.5-.9 6.8 1.9-1.1 3.9-1.8 5.8-2.4 1-.3 2-.6 3-.8 1-.3 2-.5 3-.7 4.1-.9 8.2-1.5 12.3-2.1l-7.3-9s.3-.3.9-.7c2-1.6 4.9-3.9 8.5-6.5 7.1-5.2 17-11.7 27.3-17.3 10.3-5.7 21.1-10.5 29.4-13.2 4.2-1.4 7.7-2.3 10.2-2.9 1.2-.3 2.2-.4 2.9-.6.7-.1 1-.2 1-.2l-.5-3.2zM309.5 328.2s-2.5-.4-6.9-1c-2.2-.3-4.9-.5-8-.9-1.5-.2-3.2-.3-4.9-.4-1.7-.1-3.5-.2-5.4-.3-7.6-.3-16.5-.1-25.9.7-9.5.8-19.5 2.3-29.4 4.6-9.9 2.2-19.6 5.1-28.5 8.3-8.9 3.2-17 6.8-23.8 10.2-6.8 3.4-12.3 6.6-16.1 8.9-.7.5-1.2.7-1.2.7l-6.2-9.8c-2.3 4.1-4.4 8.2-6.3 12.4-.9 2.1-1.8 4.3-2.6 6.5-.4 1.1-.7 2.2-1 3.3-.1.6-.2 1.1-.3 1.7-.1.6-.1 1.2-.1 1.7.5-.3 1-.5 1.4-.7.5-.2 1-.3 1.5-.5 1-.3 2-.5 3-.7 2-.4 4.1-.7 6.2-.9 4.1-.4 8.2-.6 12.4-.6l-6.2-9.8s.4-.3 1.2-.7c3.7-2.3 9.1-5.4 15.8-8.8 6.7-3.3 14.7-6.9 23.5-10.1 8.8-3.2 18.4-6 28.1-8.2 9.7-2.2 19.6-3.7 29-4.5 9.3-.8 18.1-.9 25.5-.7 1.9.1 3.7.2 5.4.3 1.7.1 3.3.2 4.8.4 3 .3 5.7.5 7.8.8 4.3.6 6.8 1 6.8 1l.4-2.9z"
     id="path9413"
     style="stroke-width:4;stroke-miterlimit:10;stroke-dasharray:none" />
  <path
     d="m 343.5,203.3 c 0,0 -4.1,0.5 -11.4,1.4 -3.6,0.5 -7.9,1.4 -12.9,2.2 -2.5,0.6 -5.1,1.2 -7.9,1.8 -1.4,0.3 -2.8,0.6 -4.3,1 -1.4,0.4 -2.9,0.8 -4.4,1.2 -12,3.3 -25.8,8.2 -39.9,14.9 -14.1,6.7 -28.4,15.2 -41.9,25 -13.5,9.7 -26,20.8 -36.9,31.9 -1.4,1.4 -2.7,2.8 -4,4.2 l -3.9,4.2 c -1.2,1.4 -2.5,2.8 -3.7,4.2 -1.2,1.4 -2.4,2.7 -3.5,4.1 -1.1,1.4 -2.3,2.7 -3.4,4.1 -1.1,1.3 -2.1,2.7 -3.2,4 -2.1,2.6 -4,5.3 -5.8,7.8 -7.3,10.1 -12.4,19.2 -15.7,25.8 -0.5,1 -0.7,1.5 -0.7,1.5 l -10.4,-5 0.1,3.5 0.3,3.6 c 0.2,2.3 0.5,4.7 0.8,7 0.1,1.1 0.4,2.3 0.6,3.5 l 0.4,1.7 0.2,0.8 0.2,0.9 c 0.3,1.1 0.7,2.2 1,3.3 0.5,1.1 0.9,2.1 1.4,3.1 0.6,-0.9 1.2,-1.8 1.9,-2.6 0.7,-0.8 1.4,-1.6 2.1,-2.3 l 0.5,-0.5 0.6,-0.5 1.2,-1 c 0.8,-0.7 1.5,-1.3 2.3,-2 1.6,-1.3 3.2,-2.5 4.9,-3.6 l 2.5,-1.7 2.6,-1.6 -10.4,-5 c 0,0 0.3,-0.5 0.7,-1.5 3.2,-6.4 8.3,-15.3 15.4,-25.3 1.8,-2.5 3.7,-5.1 5.7,-7.7 1,-1.3 2,-2.7 3.1,-4 1.1,-1.3 2.2,-2.7 3.3,-4 1.1,-1.4 2.3,-2.7 3.5,-4.1 1.2,-1.4 2.4,-2.7 3.6,-4.1 1.3,-1.4 2.5,-2.7 3.8,-4.1 1.3,-1.4 2.6,-2.8 4,-4.1 10.8,-11 23.1,-21.9 36.5,-31.5 13.3,-9.6 27.5,-18 41.4,-24.7 13.9,-6.6 27.5,-11.5 39.4,-14.7 1.5,-0.4 2.9,-0.8 4.4,-1.2 1.4,-0.4 2.8,-0.7 4.2,-1 2.7,-0.6 5.3,-1.2 7.8,-1.8 4.9,-0.9 9.2,-1.7 12.8,-2.2 7.1,-0.9 11.2,-1.4 11.2,-1.4 z m -12.4,60 c 0,0 -0.9,0.1 -2.6,0.3 -1.7,0.2 -4.2,0.4 -7.3,0.9 -6.3,1 -15.2,2.7 -25.6,5.8 -10.4,3.1 -22.2,7.8 -34.2,14 -12,6.2 -24.3,13.9 -35.8,22.7 l -4.3,3.3 c -1.4,1.1 -2.8,2.3 -4.2,3.4 -2.8,2.2 -5.5,4.6 -8.2,6.9 -5.3,4.7 -10.4,9.5 -15.1,14.4 -4.8,4.8 -9.1,9.7 -13.2,14.3 -4,4.7 -7.7,9.3 -11,13.6 -6.5,8.6 -11.5,16.2 -14.7,21.6 -0.5,0.9 -0.8,1.4 -0.8,1.4 l -10,-5.9 c -0.3,9.2 -0.1,18.4 1.2,27 6.9,-5.4 14.1,-9.8 21.5,-13.7 l -10,-5.9 c 0,0 0.3,-0.5 0.8,-1.3 3.2,-5.3 8,-12.8 14.5,-21.4 3.2,-4.3 6.9,-8.8 10.8,-13.4 4,-4.6 8.3,-9.4 13.1,-14.2 4.7,-4.8 9.7,-9.5 14.9,-14.2 2.7,-2.3 5.3,-4.7 8.1,-6.9 1.4,-1.1 2.8,-2.2 4.1,-3.4 l 4.2,-3.3 c 11.3,-8.7 23.5,-16.2 35.3,-22.4 11.9,-6.2 23.5,-10.8 33.7,-13.8 10.2,-3.1 19,-4.7 25.1,-5.7 3.1,-0.5 5.5,-0.7 7.2,-0.9 1.7,-0.2 2.5,-0.3 2.5,-0.3 v -2.9 z"
     id="path9415"
     style="fill:#808285;stroke-width:4;stroke-miterlimit:10;stroke-dasharray:none"
     inkscape:connector-curvature="0" />
  <circle
     opacity=".14"
     stroke="#000"
     stroke-width="6"
     stroke-miterlimit="10"
     cx="327.9"
     cy="85.3"
     r="61.3"
     id="circle9417"
     style="stroke-width:4;stroke-miterlimit:10;stroke-dasharray:none" />
  <circle
     fill="#E6E7E8"
     stroke="#808285"
     stroke-width="6"
     stroke-miterlimit="10"
     cx="322.2"
     cy="78.4"
     r="61.3"
     id="circle9419"
     style="stroke-width:4;stroke-miterlimit:10;stroke-dasharray:none" />
  <circle
     fill="#FFF"
     stroke="#939598"
     stroke-width="6"
     stroke-miterlimit="10"
     cx="322.2"
     cy="48.9"
     r="13.1"
     id="circle9421"
     style="stroke-width:4;stroke-miterlimit:10;stroke-dasharray:none" />
  <path
     fill="#808285"
     d="M325 54.3h-3.4v-6.6c0-.8 0-1.5.1-2.2-.2.3-.5.5-.8.8l-1.4 1.2-1.7-2.1 4.3-3.5h3v12.4z"
     id="path9423"
     style="stroke-width:4;stroke-miterlimit:10;stroke-dasharray:none" />
  <circle
     fill="#FFF"
     stroke="#939598"
     stroke-width="6"
     stroke-miterlimit="10"
     cx="357.4"
     cy="69.3"
     r="13.1"
     id="circle9425"
     style="stroke-width:4;stroke-miterlimit:10;stroke-dasharray:none" />
  <path
     fill="#808285"
     d="M361.7 74.7h-9v-2.2l3-3.1c.9-.9 1.4-1.5 1.7-1.9s.5-.6.6-.9c.1-.2.2-.5.2-.7 0-.3-.1-.6-.3-.8-.2-.2-.5-.3-.9-.3s-.8.1-1.2.3-.9.6-1.4 1l-1.8-2.2c.6-.6 1.2-1 1.6-1.2.4-.2.9-.4 1.4-.6.5-.1 1.1-.2 1.7-.2.8 0 1.5.1 2.2.4s1.1.7 1.5 1.2c.3.5.5 1.1.5 1.8 0 .5-.1.9-.2 1.4-.1.4-.3.8-.6 1.2-.3.4-.6.8-1 1.3-.4.4-1.3 1.3-2.7 2.5v.1h4.7v2.9z"
     id="path9427"
     style="stroke-width:4;stroke-miterlimit:10;stroke-dasharray:none" />
  <circle
     stroke-miterlimit="10"
     cx="360.15778"
     cy="102.74333"
     r="13.1"
     id="circle9429"
     style="fill:#ffffff;stroke:#939598;stroke-width:4;stroke-miterlimit:10;stroke-dasharray:none" />
  <path
     d="m 364.05778,98.443333 c 0,0.8 -0.2,1.4 -0.7,1.999997 -0.5,0.6 -1.2,1 -2,1.2 v 0.1 c 2.1,0.3 3.1,1.2 3.1,2.9 0,1.2 -0.5,2.1 -1.4,2.7 -0.9,0.7 -2.2,1 -3.8,1 -0.7,0 -1.3,0 -1.9,-0.1 -0.6,-0.1 -1.2,-0.3 -1.9,-0.5 v -2.9 c 0.5,0.3 1.1,0.5 1.7,0.6 0.6,0.1 1.1,0.2 1.6,0.2 0.7,0 1.3,-0.1 1.6,-0.3 0.3,-0.2 0.5,-0.5 0.5,-1 0,-0.3 -0.1,-0.6 -0.3,-0.8 -0.2,-0.2 -0.5,-0.3 -0.9,-0.4 -0.4,-0.1 -0.9,-0.1 -1.5,-0.1 h -0.7 v -2.5 h 0.8 c 1.7,0 2.6,-0.4 2.6,-1.299997 0,-0.3 -0.1,-0.6 -0.4,-0.7 -0.3,-0.2 -0.6,-0.2 -1,-0.2 -0.8,0 -1.6,0.3 -2.5,0.8 l -1.4,-2.2 c 0.7,-0.5 1.3,-0.8 2,-1 0.7,-0.2 1.5,-0.3 2.4,-0.3 1.3,0 2.3,0.3 3,0.8 0.8,0.4 1.1,1.1 1.1,2 z"
     id="path9431"
     style="fill:#808285;stroke-width:4;stroke-miterlimit:10;stroke-dasharray:none"
     inkscape:connector-curvature="0" />
  <circle
     fill="#FFF"
     stroke="#939598"
     stroke-width="6"
     stroke-miterlimit="10"
     cx="298.1"
     cy="102.6"
     r="13.1"
     id="circle9433"
     style="stroke-width:4;stroke-miterlimit:10;stroke-dasharray:none" />
  <path
     fill="#808285"
     d="M302.8 106h-1.2v2h-2.8v-2h-4.2v-2.1l4.4-6.4h2.6v6.4h1.2v2.1zm-3.9-2.1v-1.2-.9-.6h-.1c-.2.4-.3.7-.6 1l-1.2 1.7h1.9z"
     id="path9435"
     style="stroke-width:4;stroke-miterlimit:10;stroke-dasharray:none" />
  <circle
     fill="#FFF"
     stroke="#939598"
     stroke-width="6"
     stroke-miterlimit="10"
     cx="80.5"
     cy="363.9"
     r="13.1"
     id="circle9437"
     style="stroke-width:4;stroke-miterlimit:10;stroke-dasharray:none" />
  <path
     fill="#808285"
     d="M83.3 369.3h-3.4v-6.6c0-.8 0-1.5.1-2.2-.2.3-.5.5-.8.8l-1.4 1.2-1.7-2.1 4.3-3.5h3v12.4z"
     id="path9439"
     style="stroke-width:4;stroke-miterlimit:10;stroke-dasharray:none" />
  <circle
     fill="#FFF"
     stroke="#939598"
     stroke-width="6"
     stroke-miterlimit="10"
     cx="123.2"
     cy="377.7"
     r="13.1"
     id="circle9441"
     style="stroke-width:4;stroke-miterlimit:10;stroke-dasharray:none" />
  <path
     fill="#808285"
     d="M127.5 383.1h-9v-2.2l3-3.1c.9-.9 1.4-1.5 1.7-1.9.3-.3.5-.6.6-.9.1-.2.2-.5.2-.7 0-.3-.1-.6-.3-.8-.2-.2-.5-.3-.9-.3s-.8.1-1.2.3c-.4.2-.9.6-1.4 1l-1.8-2.2c.6-.6 1.2-1 1.6-1.2.4-.2.9-.4 1.4-.6.5-.1 1.1-.2 1.7-.2.8 0 1.5.1 2.2.4.6.3 1.1.7 1.5 1.2.3.5.5 1.1.5 1.8 0 .5-.1.9-.2 1.4-.1.4-.3.8-.6 1.2-.3.4-.6.8-1 1.3-.4.4-1.3 1.3-2.7 2.5v.1h4.7v2.9z"
     id="path9443"
     style="stroke-width:4;stroke-miterlimit:10;stroke-dasharray:none" />
  <circle
     fill="#FFF"
     stroke="#939598"
     stroke-width="6"
     stroke-miterlimit="10"
     cx="134.7"
     cy="423.5"
     r="13.1"
     id="circle9445"
     style="stroke-width:4;stroke-miterlimit:10;stroke-dasharray:none" />
  <path
     fill="#808285"
     d="M139.6 419.1c0 .8-.2 1.4-.7 2-.5.6-1.2 1-2 1.2v.1c2.1.3 3.1 1.2 3.1 2.9 0 1.2-.5 2.1-1.4 2.7-.9.7-2.2 1-3.8 1-.7 0-1.3 0-1.9-.1-.6-.1-1.2-.3-1.9-.5v-2.8c.5.3 1.1.5 1.7.6.6.1 1.1.2 1.6.2.7 0 1.3-.1 1.6-.3.3-.2.5-.5.5-1 0-.3-.1-.6-.3-.8-.2-.2-.5-.3-.9-.4-.4-.1-.9-.1-1.5-.1h-.7v-2.5h.8c1.7 0 2.6-.4 2.6-1.3 0-.3-.1-.6-.4-.7-.3-.2-.6-.2-1-.2-.8 0-1.6.3-2.5.8l-1.4-2.2c.7-.5 1.3-.8 2-1 .7-.2 1.5-.3 2.4-.3 1.3 0 2.3.3 3 .8.7.3 1.1 1 1.1 1.9z"
     id="path9447"
     style="stroke-width:4;stroke-miterlimit:10;stroke-dasharray:none" />
  <circle
     fill="#FFF"
     stroke="#939598"
     stroke-width="6"
     stroke-miterlimit="10"
     cx="482.2"
     cy="371.4"
     r="13.1"
     id="circle9449"
     style="stroke-width:4;stroke-miterlimit:10;stroke-dasharray:none" />
  <path
     fill="#808285"
     d="M485 376.8h-3.4v-6.6c0-.8 0-1.5.1-2.2-.2.3-.5.5-.8.8l-1.4 1.2-1.7-2.1 4.3-3.5h3v12.4z"
     id="path9451"
     style="stroke-width:4;stroke-miterlimit:10;stroke-dasharray:none" />
  <circle
     fill="#FFF"
     stroke="#939598"
     stroke-width="6"
     stroke-miterlimit="10"
     cx="486.9"
     cy="414.7"
     r="13.1"
     id="circle9453"
     style="stroke-width:4;stroke-miterlimit:10;stroke-dasharray:none" />
  <path
     fill="#808285"
     d="M491.2 420.1h-9v-2.2l3-3.1c.9-.9 1.4-1.5 1.7-1.9.3-.3.5-.6.6-.9.1-.2.2-.5.2-.7 0-.3-.1-.6-.3-.8-.2-.2-.5-.3-.9-.3s-.8.1-1.2.3-.9.6-1.4 1l-1.8-2.2c.6-.6 1.2-1 1.6-1.2.4-.2.9-.4 1.4-.6s1.1-.2 1.7-.2c.8 0 1.5.1 2.2.4.6.3 1.1.7 1.5 1.2.3.5.5 1.1.5 1.8 0 .5-.1.9-.2 1.4-.1.4-.3.8-.6 1.2-.3.4-.6.8-1 1.3-.4.4-1.3 1.3-2.7 2.5v.1h4.7v2.9z"
     id="path9455"
     style="stroke-width:4;stroke-miterlimit:10;stroke-dasharray:none" />
  <g
     fill="#6D6E71"
     id="g9459"
     style="stroke-width:4;stroke-miterlimit:10;stroke-dasharray:none">
    <path
       d="M258.5 363.3l1.5-2.1c.7.7 1.6 1.1 2.5 1.1 1.1 0 1.7-.4 1.7-1.1 0-.9-.5-1.4-3-1.4v-2.3c2 0 2.6-.5 2.6-1.4 0-.7-.4-1.1-1.3-1.1-.8 0-1.4.3-2.1 1l-1.6-2c1.2-1 2.4-1.6 3.9-1.6 2.7 0 4.4 1.2 4.4 3.4 0 1.2-.6 2-1.9 2.6v.1c1.4.4 2.3 1.4 2.3 2.9 0 2.3-2.2 3.5-4.7 3.5-1.9.1-3.4-.5-4.3-1.6zM269.3 367c1.5-.5 2.3-1.4 2.3-2.3h-.1c-1 0-1.9-.6-1.9-1.8 0-1.1.9-1.8 2-1.8 1.4 0 2.2 1.1 2.2 3 0 2.2-1.3 4-3.8 4.6l-.7-1.7zM275.2 363c2.9-2.6 5.1-4.6 5.1-6.3 0-1.1-.6-1.6-1.5-1.6-.8 0-1.4.6-2 1.1l-1.7-1.7c1.3-1.3 2.4-1.9 4.2-1.9 2.4 0 4.1 1.6 4.1 4 0 1.9-1.8 4.1-3.5 5.7.6-.1 1.5-.2 2-.2h2v2.7h-8.7V363z"
       id="path9457"
       style="stroke-width:4;stroke-miterlimit:10;stroke-dasharray:none" />
  </g>
  <circle
     fill="#E6E7E8"
     stroke="#808285"
     stroke-width="6"
     stroke-miterlimit="10"
     cx="331.8"
     cy="329.6"
     r="23.1"
     id="circle9461"
     style="stroke-width:4;stroke-miterlimit:10;stroke-dasharray:none;fill:#ffffff;fill-opacity:1" />
  <g
     fill="#6D6E71"
     id="g9465"
     style="stroke-width:4;stroke-miterlimit:10;stroke-dasharray:none">
    <path
       d="M318.8 332.8c2.9-2.6 5.1-4.6 5.1-6.3 0-1.1-.6-1.6-1.5-1.6-.8 0-1.4.6-2 1.1l-1.7-1.7c1.3-1.3 2.4-1.9 4.2-1.9 2.4 0 4.1 1.6 4.1 4 0 1.9-1.8 4.1-3.5 5.7.6-.1 1.5-.2 2-.2h2v2.7h-8.7v-1.8zM329.3 336.8c1.5-.5 2.3-1.4 2.3-2.3h-.1c-1 0-1.9-.6-1.9-1.8 0-1.1.9-1.8 2-1.8 1.4 0 2.2 1.1 2.2 3 0 2.2-1.3 4-3.8 4.6l-.7-1.7zM335.2 332.8c2.9-2.6 5.1-4.6 5.1-6.3 0-1.1-.6-1.6-1.5-1.6-.8 0-1.4.6-2 1.1l-1.7-1.7c1.3-1.3 2.4-1.9 4.2-1.9 2.4 0 4.1 1.6 4.1 4 0 1.9-1.8 4.1-3.5 5.7.6-.1 1.5-.2 2-.2h2v2.7h-8.7v-1.8z"
       id="path9463"
       style="stroke-width:4;stroke-miterlimit:10;stroke-dasharray:none" />
  </g>
  <circle
     fill="#E6E7E8"
     stroke="#808285"
     stroke-width="6"
     stroke-miterlimit="10"
     cx="227.2"
     cy="283.3"
     r="23.1"
     id="circle9473"
     style="stroke-width:4;stroke-miterlimit:10;stroke-dasharray:none;fill:#ffffff;fill-opacity:1" />
  <g
     fill="#6D6E71"
     id="g9477"
     style="stroke-width:4;stroke-miterlimit:10;stroke-dasharray:none">
    <path
       d="M214.8 285.7h2.6v-6.2h-2.3v-2c1.4-.3 2.2-.6 3.2-1.2h2.4v9.4h2.2v2.6h-8v-2.6zM224.7 290.5c1.5-.5 2.3-1.4 2.3-2.3h-.1c-1 0-1.9-.6-1.9-1.8 0-1.1.9-1.8 2-1.8 1.4 0 2.2 1.1 2.2 3 0 2.2-1.3 4-3.8 4.6l-.7-1.7zM230.6 286.5c2.9-2.6 5.1-4.6 5.1-6.3 0-1.1-.6-1.6-1.5-1.6-.8 0-1.4.6-2 1.1l-1.7-1.7c1.3-1.3 2.4-1.9 4.2-1.9 2.4 0 4.1 1.6 4.1 4 0 1.9-1.8 4.1-3.5 5.7.6-.1 1.5-.2 2-.2h2v2.7h-8.7v-1.8z"
       id="path9475"
       style="stroke-width:4;stroke-miterlimit:10;stroke-dasharray:none" />
  </g>
  <circle
     fill="#E6E7E8"
     stroke="#808285"
     stroke-width="6"
     stroke-miterlimit="10"
     cx="281.3"
     cy="204.1"
     r="23.1"
     id="circle9479"
     style="stroke-width:4;stroke-miterlimit:10;stroke-dasharray:none;fill:#ffffff;fill-opacity:1" />
  <g
     fill="#6D6E71"
     id="g9483"
     style="stroke-width:4;stroke-miterlimit:10;stroke-dasharray:none">
    <path
       d="M268.9 206.5h2.6v-6.2h-2.3v-2c1.4-.3 2.2-.6 3.2-1.2h2.4v9.4h2.2v2.6h-8v-2.6zM278.8 211.3c1.5-.5 2.3-1.4 2.3-2.3h-.1c-1 0-1.9-.6-1.9-1.8 0-1.1.9-1.8 2-1.8 1.4 0 2.2 1.1 2.2 3 0 2.2-1.3 4-3.8 4.6l-.7-1.7zM285.2 206.5h2.6v-6.2h-2.3v-2c1.4-.3 2.2-.6 3.2-1.2h2.4v9.4h2.2v2.6h-8v-2.6z"
       id="path9481"
       style="stroke-width:4;stroke-miterlimit:10;stroke-dasharray:none" />
  </g>
  <path
     fill="#808285"
     d="M282.9 181.1s.2-1.6.5-4.3c.1-.7.2-1.5.3-2.3.1-.8.3-1.7.5-2.7l.6-3c.1-.5.2-1.1.3-1.6.1-.6.3-1.1.5-1.7 1.3-4.6 3-9.9 5.5-15.4.6-1.4 1.2-2.8 1.9-4.2.7-1.4 1.4-2.8 2.2-4.2 1.4-2.8 3.2-5.5 4.8-8.3 6.8-10.9 15.1-20.8 21.7-27.9 3.3-3.5 6.2-6.3 8.2-8.3.5-.5.9-.8.9-.8l7.9 8.4c2.2-8.1 5-16.2 8.3-24.3-8.7 1.2-17.5 2.9-26.4 5.2l7.9 8.4-.9.9c-2 2-5 4.8-8.3 8.4-6.7 7.1-15.2 17.2-22.1 28.4-1.7 2.8-3.4 5.6-4.9 8.5-.8 1.4-1.5 2.9-2.2 4.3-.7 1.4-1.3 2.9-1.9 4.3-2.6 5.6-4.4 11.1-5.7 15.9-.2.6-.4 1.2-.5 1.7-.1.6-.2 1.1-.4 1.7-.2 1.1-.4 2.2-.7 3.1-.2 1-.4 1.9-.5 2.8-.1.9-.2 1.7-.3 2.4-.3 2.9-.5 4.5-.5 4.5l3.3.1zM366.4 186.9s0-.8.1-2.1.2-3.2.3-5.5c.2-4.5.4-10.6.4-16.6 0-6.1-.2-12.1-.4-16.7-.1-2.3-.3-4.2-.3-5.5-.1-.7-.1-1.1-.1-1.1l11.5-.9c-2.5-3.8-5.1-7.6-7.8-11.2-2.7-3.6-5.5-7.1-8.4-10.4-2.8 8.3-6.3 16.1-10.1 23.6l11.5-.9s0 .4.1 1c.1 1.3.2 3.2.3 5.4.2 4.5.4 10.5.4 16.5s-.2 12-.4 16.5c-.1 2.3-.2 4.1-.3 5.4-.1 1.3-.1 2.1-.1 2.1l3.3.4z"
     id="path9491"
     style="stroke-width:4;stroke-miterlimit:10;stroke-dasharray:none" />
  <path
     fill="#808285"
     d="M228.8 260s-.1-.7-.1-2.1c0-.7-.1-1.5-.2-2.5 0-.5-.1-1-.1-1.6V252c-.2-5.1.1-12.5 1.5-21.3 1.4-8.7 4.2-18.7 8.7-28.9 2.3-5 4.9-10.1 8-15 3.1-4.9 6.6-9.7 10.4-14.2 1-1.1 2-2.2 2.9-3.3 1-1.1 2-2.2 3-3.2 1-1.1 2-2.1 3.1-3.2 1.1-1 2.1-2 3.2-3 2.1-2 4.3-3.9 6.4-5.8 2.2-1.8 4.3-3.7 6.5-5.4 8.6-7 17.2-13 24.7-17.8 1.9-1.2 3.7-2.3 5.4-3.4 1.7-1 3.4-2 5-2.9 1.6-.9 3.1-1.7 4.4-2.4 1.4-.8 2.6-1.4 3.8-2 .8-.4 1.3-.6 1.3-.6l5.1 10.4c4.4-7 9.2-14 15.3-20.3-8.5-2.1-17.7-2.9-26.9-3.3l5.1 10.4s-.5.2-1.3.7c-1.2.6-2.5 1.3-3.9 2-1.4.8-2.9 1.6-4.5 2.5-1.6.9-3.3 1.9-5 2.9-1.8 1-3.6 2.2-5.5 3.4-7.6 4.8-16.2 10.9-25 18-2.2 1.8-4.4 3.6-6.6 5.5-2.1 2-4.4 3.9-6.5 5.9-1.1 1-2.1 2.1-3.2 3.1s-2.1 2.1-3.1 3.2c-1.1 1.1-2.1 2.2-3.1 3.3-1 1.1-2 2.2-3 3.4-3.9 4.6-7.4 9.5-10.6 14.6-3.2 5.1-5.8 10.3-8.2 15.4-4.5 10.4-7.5 20.7-8.9 29.6-1.4 9-1.7 16.6-1.5 21.9v1.9c0 .6.1 1.1.1 1.7.1 1 .1 1.9.2 2.6.1 1.4.2 2.2.2 2.2l2.9-.6z"
     id="path9493"
     style="stroke-width:4;stroke-miterlimit:10;stroke-dasharray:none" />
  <path
     fill="#808285"
     d="M353.2 242.5s-.2-1.9-.6-5.2c-.1-.8-.2-1.7-.3-2.7-.1-1-.3-2.1-.5-3.2-.3-2.3-.7-4.9-1.2-7.7-1.9-11.3-5.3-26.1-9.7-40.6-4.4-14.6-9.7-28.8-14.2-39.3-.6-1.3-1.1-2.6-1.6-3.8-.5-1.2-1-2.3-1.5-3.4-1-2.1-1.8-4-2.5-5.5-.4-.7-.6-1.1-.6-1.1l10.4-5c-7.3-5.3-14.9-10.2-22.5-14.5 0 8.8-.4 17.3-1.3 25.8l10.4-5s.2.4.5 1.1c.7 1.5 1.5 3.3 2.5 5.4.5 1 1 2.2 1.5 3.3.5 1.2 1 2.4 1.6 3.7 4.4 10.4 9.7 24.5 14.1 39 4.3 14.4 7.8 29.1 9.6 40.3.5 2.8.8 5.3 1.2 7.6.2 1.1.3 2.2.5 3.2.1 1 .2 1.9.3 2.7.3 3.3.5 5.1.5 5.1l3.4-.2z"
     id="path9495"
     style="stroke-width:4;stroke-miterlimit:10;stroke-dasharray:none" />
  <g
     id="g10059">
    <circle
       style="stroke-width:4;stroke-miterlimit:10;stroke-dasharray:none;fill:#ffffff;fill-opacity:1"
       id="circle9485"
       r="23.1"
       cy="208.3"
       cx="366.4"
       stroke-miterlimit="10"
       stroke-width="6"
       stroke="#808285"
       fill="#E6E7E8" />
    <g
       style="stroke-width:4;stroke-miterlimit:10;stroke-dasharray:none"
       id="g9489"
       fill="#6D6E71">
      <path
         style="stroke-width:4;stroke-miterlimit:10;stroke-dasharray:none"
         id="path9487"
         d="M353.4 211.5c2.9-2.6 5.1-4.6 5.1-6.3 0-1.1-.6-1.6-1.5-1.6-.8 0-1.4.6-2 1.1l-1.8-1.7c1.3-1.3 2.4-1.9 4.2-1.9 2.4 0 4.1 1.6 4.1 4 0 1.9-1.8 4.1-3.5 5.7.6-.1 1.5-.2 2-.2h2v2.7h-8.7v-1.8zM363.9 215.5c1.5-.5 2.3-1.4 2.3-2.3h-.1c-1 0-1.9-.6-1.9-1.8 0-1.1.9-1.8 2-1.8 1.4 0 2.2 1.1 2.2 3 0 2.2-1.3 4-3.8 4.6l-.7-1.7zM370.3 210.7h2.6v-6.2h-2.3v-2c1.4-.3 2.2-.6 3.2-1.2h2.4v9.4h2.2v2.6h-8v-2.6z" />
    </g>
  </g>
  <path
     fill="#808285"
     d="M333.4 304s-.1-2.7-.2-7.6c0-2.4-.1-5.3-.3-8.7-.2-3.3-.4-7.1-.7-11.2-1.2-16.4-4.1-38.2-8.1-59.8-3.9-21.6-8.7-43-12.6-58.9-2-8-3.8-14.6-5-19.2-.2-.9-.4-1.4-.4-1.4l11.2-3.1c-6.3-6.3-12.6-12.5-19.1-18.4-1.9 8.6-4 17-6.2 25.3l11.2-3.1s.1.5.4 1.4c1.2 4.6 3 11.2 5 19.2 4 15.9 8.8 37.2 12.6 58.7 3.9 21.5 6.8 43.2 8 59.5.4 4.1.5 7.8.7 11.1.2 3.3.3 6.2.3 8.6.1 4.8.2 7.5.2 7.5h3z"
     id="path9497"
     style="stroke-width:4;stroke-miterlimit:10;stroke-dasharray:none" />
  <g
     id="g10064">
    <circle
       style="stroke-width:4;stroke-miterlimit:10;stroke-dasharray:none;fill:#ffffff;fill-opacity:1"
       id="circle9467"
       r="23.1"
       cy="265.8"
       cx="351.7"
       stroke-miterlimit="10"
       stroke-width="6"
       stroke="#808285"
       fill="#E6E7E8" />
    <g
       style="stroke-width:4;stroke-miterlimit:10;stroke-dasharray:none"
       id="g9471"
       fill="#6D6E71">
      <path
         style="stroke-width:4;stroke-miterlimit:10;stroke-dasharray:none"
         id="path9469"
         d="M338.4 269.4l1.5-2.1c.7.7 1.6 1.1 2.5 1.1 1.1 0 1.7-.4 1.7-1.1 0-.9-.5-1.4-3-1.4v-2.3c2 0 2.6-.5 2.6-1.4 0-.7-.4-1.1-1.3-1.1-.8 0-1.4.3-2.1 1l-1.6-2c1.2-1 2.4-1.6 3.9-1.6 2.7 0 4.4 1.2 4.4 3.4 0 1.2-.6 2-1.9 2.6v.1c1.4.4 2.3 1.4 2.3 2.9 0 2.3-2.2 3.5-4.7 3.5-2 .1-3.4-.6-4.3-1.6zM349.1 273c1.5-.5 2.3-1.4 2.3-2.3h-.1c-1 0-1.9-.6-1.9-1.8 0-1.1.9-1.8 2-1.8 1.4 0 2.2 1.1 2.2 3 0 2.2-1.3 4-3.8 4.6l-.7-1.7zM355.6 268.2h2.6V262h-2.3v-2c1.4-.3 2.2-.6 3.2-1.2h2.4v9.4h2.2v2.6h-8v-2.6z" />
    </g>
  </g>
  <circle
     fill="#FFF"
     stroke="#939598"
     stroke-width="6"
     stroke-miterlimit="10"
     cx="288.4"
     cy="69.3"
     r="13.1"
     id="circle9499"
     style="stroke-width:4;stroke-miterlimit:10;stroke-dasharray:none" />
  <path
     fill="#6D6E71"
     d="M284.3 73.7l1.4-2.1c.7.6 1.6 1.1 2.4 1.1 1.1 0 1.8-.5 1.8-1.6 0-1-.7-1.6-1.6-1.6-.6 0-1 .1-1.7.6l-1.4-.9.3-6.2h7.1v2.7h-4.3l-.2 1.7c.4-.2.7-.2 1.1-.2 2.1 0 3.9 1.2 3.9 3.7 0 2.7-2.1 4.3-4.6 4.3-1.8.2-3.2-.5-4.2-1.5z"
     id="path9501"
     style="stroke-width:4;stroke-miterlimit:10;stroke-dasharray:none" />
  <path
     fill="#808285"
     d="M267.5 334.8s-1-3.7-2.6-10.2c-1.5-6.5-3.6-15.9-5.3-27.3-1.7-11.4-3.2-24.7-4-39.1-.9-14.4-1.3-29.7-1.3-45.1 0-7.7 0-15.4.1-23 .1-3.8.1-7.5.2-11.3 0-1.9.1-3.7.1-5.5 0-1.8.2-3.6.2-5.4.5-7.1 1.7-13.9 3-20.4 1.3-6.4 2.7-12.5 4.2-18.1 3-11.1 6-20.2 8.3-26.5l.6-1.5 10.8 4.1c-.8-4.1-1.5-8.3-2-12.5-.3-2.1-.4-4.2-.6-6.4-.2-2.2-.2-4.3-.2-6.5-1.8 1.1-3.8 2.2-5.7 3.5-1.8 1.3-3.8 2.6-5.5 3.9-3.6 2.7-7.2 5.6-10.6 8.6l10.8 4.1s-.2.6-.6 1.5c-2.4 6.4-5.4 15.5-8.4 26.7-1.5 5.6-3 11.7-4.3 18.2-1.3 6.5-2.5 13.5-3 20.8-.1 1.8-.2 3.7-.2 5.5 0 1.8-.1 3.7-.1 5.5-.1 3.7-.1 7.5-.2 11.3-.1 7.6-.1 15.3-.1 23 0 15.4.4 30.9 1.3 45.3.9 14.4 2.3 27.9 4.1 39.4 1.7 11.5 3.8 20.9 5.3 27.5 1.7 6.6 2.7 10.3 2.7 10.3l3-.4z"
     id="path9503"
     style="stroke-width:4;stroke-miterlimit:10;stroke-dasharray:none" />
</svg>
