<?xml version="1.0" encoding="UTF-8" standalone="no"?>
<svg
   viewBox="0 0 595.3 250"
   version="1.1"
   id="svg6134"
   sodipodi:docname="product_external.svg"
   width="595.29999"
   height="250"
   inkscape:version="1.2.2 (1:1.2.2+202305151914+b0a8486541)"
   xmlns:inkscape="http://www.inkscape.org/namespaces/inkscape"
   xmlns:sodipodi="http://sodipodi.sourceforge.net/DTD/sodipodi-0.dtd"
   xmlns="http://www.w3.org/2000/svg"
   xmlns:svg="http://www.w3.org/2000/svg">
  <defs
     id="defs6138" />
  <sodipodi:namedview
     id="namedview6136"
     pagecolor="#ffffff"
     bordercolor="#666666"
     borderopacity="1.0"
     inkscape:showpageshadow="2"
     inkscape:pageopacity="0.0"
     inkscape:pagecheckerboard="0"
     inkscape:deskcolor="#d1d1d1"
     showgrid="false"
     inkscape:zoom="0.75641026"
     inkscape:cx="297.45763"
     inkscape:cy="156"
     inkscape:window-width="1080"
     inkscape:window-height="1864"
     inkscape:window-x="0"
     inkscape:window-y="0"
     inkscape:window-maximized="1"
     inkscape:current-layer="svg6134" />
  <circle
     r="46.641964"
     cy="-180.80948"
     cx="302.20456"
     stroke-miterlimit="10"
     opacity="0.14"
     stroke="#000000"
     stroke-width="4.84172"
     id="circle6116"
     transform="scale(1,-1)" />
  <circle
     r="46.641964"
     cy="-182.1006"
     cx="298.73471"
     stroke-miterlimit="10"
     fill="#cee7cc"
     stroke="#808285"
     stroke-width="4.84172"
     id="circle6118"
     transform="scale(1,-1)" />
  <circle
     r="47.368225"
     cy="-71.789948"
     cx="189.79585"
     stroke-miterlimit="10"
     opacity="0.14"
     stroke="#000000"
     stroke-width="4.84172"
     id="circle6120"
     transform="scale(1,-1)" />
  <circle
     r="47.368225"
     cy="-74.775665"
     cx="185.11552"
     stroke-miterlimit="10"
     fill="#caebfc"
     stroke="#808285"
     stroke-width="4.84172"
     id="circle6122"
     transform="scale(1,-1)" />
  <circle
     r="48.578655"
     cy="-70.176025"
     cx="414.61334"
     stroke-miterlimit="10"
     opacity="0.14"
     stroke="#000000"
     stroke-width="4.84172"
     id="circle6124"
     transform="scale(1,-1)" />
  <circle
     r="48.578655"
     cy="-73.323151"
     cx="409.85233"
     stroke-miterlimit="10"
     fill="#f8f7cb"
     stroke="#808285"
     stroke-width="4.84172"
     id="circle6126"
     transform="scale(1,-1)" />
  <circle
     r="22.756115"
     cy="-183.63382"
     cx="275.1716"
     stroke-miterlimit="10"
     fill="#caebfc"
     stroke="#808285"
     stroke-width="4.84172"
     id="circle6128"
     transform="scale(1,-1)" />
  <circle
     r="23.320982"
     cy="-182.1813"
     cx="321.24872"
     stroke-miterlimit="10"
     fill="#f8f7cb"
     stroke="#808285"
     stroke-width="4.84172"
     id="circle6130"
     transform="scale(1,-1)" />
  <path
     d="m 251.85065,168.30168 c 0,0 -0.72626,-0.32278 -2.01739,-0.96835 -1.29112,-0.64556 -3.14712,-1.61391 -5.3259,-2.82434 -2.17878,-1.21042 -4.59963,-2.74365 -7.18189,-4.43825 -2.58225,-1.7753 -5.2452,-3.71199 -7.82746,-5.81006 -2.58225,-2.09809 -5.00312,-4.27686 -7.26259,-6.45564 -2.17877,-2.17878 -4.19616,-4.27686 -5.81007,-6.13286 -1.6139,-1.85599 -2.90504,-3.4699 -3.79268,-4.68033 -0.0807,-0.16139 -0.16139,-0.24209 -0.24209,-0.32278 -0.0807,-0.0807 -0.0807,-0.16139 -0.16139,-0.24209 l -0.16139,-0.16139 -7.58538,5.48729 c -0.64555,-3.95407 -1.04903,-7.98884 -0.88764,-11.94292 0.0807,-1.93669 0.32278,-3.87338 0.64556,-5.72938 0.40348,-1.85599 0.88765,-3.63129 1.6139,-5.2452 1.04905,1.37182 2.25948,2.66295 3.46992,3.71199 1.29112,1.04904 2.58225,2.01739 3.87337,2.82434 2.74365,1.61391 5.56799,2.82434 8.47303,3.87338 l -7.58538,5.48729 c 0,0 0.0807,0.0807 0.0807,0.16139 0,0.0807 0.0807,0.0807 0.16139,0.16139 0.0807,0.0807 0.16139,0.24209 0.24209,0.32278 0.80695,1.12974 2.09808,2.66295 3.71199,4.51894 1.61391,1.7753 3.5506,3.87339 5.72937,5.97147 2.17878,2.09808 4.59964,4.27686 7.10121,6.29424 2.50155,2.01739 5.08381,3.95408 7.58536,5.64869 2.50156,1.6946 4.92243,3.14712 7.02051,4.35754 2.09807,1.21044 3.87337,2.09809 5.16451,2.74365 1.29112,0.64556 2.01738,0.96834 2.01738,0.96834 z m 91.9928,-4.84173 c 0,0 0.64556,-0.40347 1.6946,-0.96834 0.56487,-0.32279 1.21043,-0.72627 1.9367,-1.12974 0.72625,-0.48417 1.53321,-1.04904 2.42085,-1.6139 3.5506,-2.42087 7.98885,-5.97147 12.02363,-10.08693 4.03477,-4.11547 7.50468,-8.63441 9.84484,-12.26571 0.64556,-0.88765 1.04904,-1.7753 1.53322,-2.50156 0.48416,-0.72625 0.88764,-1.37182 1.12973,-1.93669 0.24209,-0.48417 0.40348,-0.72626 0.40348,-0.72626 l -8.15024,-4.51894 c 5.64868,-2.98573 11.21666,-6.93981 16.21978,-11.86223 1.7753,6.85911 2.58226,14.28309 2.34017,22.11054 l -8.15025,-4.51894 -0.40347,0.80696 c -0.32278,0.56486 -0.72626,1.21043 -1.21043,2.01738 -0.48417,0.72626 -0.96834,1.61392 -1.61391,2.58226 -2.42086,3.71199 -5.97146,8.47301 -10.08693,12.66918 -4.11547,4.27686 -8.7151,7.98885 -12.42709,10.4904 -0.88766,0.64557 -1.7753,1.21044 -2.50156,1.69461 -0.72627,0.48417 -1.45252,0.88765 -2.01739,1.21043 -1.12973,0.64556 -1.7753,1.04904 -1.7753,1.04904 z"
     fill="#808285"
     id="path6132"
     style="stroke-width:0.806955" />
</svg>
