<?xml version="1.0" encoding="UTF-8" standalone="no"?>
<svg
   viewBox="0 0 595.3 312"
   version="1.1"
   id="svg5846"
   sodipodi:docname="product_functions.svg"
   inkscape:version="1.2.2 (b0a8486541, 2022-12-01)"
   xmlns:inkscape="http://www.inkscape.org/namespaces/inkscape"
   xmlns:sodipodi="http://sodipodi.sourceforge.net/DTD/sodipodi-0.dtd"
   xmlns="http://www.w3.org/2000/svg"
   xmlns:svg="http://www.w3.org/2000/svg"
   xmlns:rdf="http://www.w3.org/1999/02/22-rdf-syntax-ns#"
   xmlns:cc="http://creativecommons.org/ns#"
   xmlns:dc="http://purl.org/dc/elements/1.1/">
  <metadata
     id="metadata5852">
    <rdf:RDF>
      <cc:Work
         rdf:about="">
        <dc:format>image/svg+xml</dc:format>
        <dc:type
           rdf:resource="http://purl.org/dc/dcmitype/StillImage" />
      </cc:Work>
    </rdf:RDF>
  </metadata>
  <defs
     id="defs5850" />
  <sodipodi:namedview
     pagecolor="#ffffff"
     bordercolor="#666666"
     borderopacity="1"
     objecttolerance="10"
     gridtolerance="10"
     guidetolerance="10"
     inkscape:pageopacity="0"
     inkscape:pageshadow="2"
     inkscape:window-width="1080"
     inkscape:window-height="1853"
     id="namedview5848"
     showgrid="false"
     inkscape:zoom="0.70220025"
     inkscape:cx="178.0119"
     inkscape:cy="171.60347"
     inkscape:window-x="0"
     inkscape:window-y="0"
     inkscape:window-maximized="1"
     inkscape:current-layer="svg5846"
     inkscape:showpageshadow="2"
     inkscape:pagecheckerboard="0"
     inkscape:deskcolor="#d1d1d1" />
  <circle
     opacity="0.14"
     stroke="#000000"
     stroke-width="6"
     stroke-miterlimit="10"
     cx="320"
     cy="-166.7"
     r="120.4"
     id="circle5754"
     style="stroke-width:4;stroke-miterlimit:10;stroke-dasharray:none"
     transform="scale(1,-1)" />
  <circle
     fill="#cee7cc"
     stroke="#808285"
     stroke-width="6"
     stroke-miterlimit="10"
     cx="311.10001"
     cy="-170.2"
     r="120.4"
     id="circle5756"
     style="stroke-width:4;stroke-miterlimit:10;stroke-dasharray:none"
     transform="scale(1,-1)" />
  <circle
     opacity="0.14"
     stroke="#000000"
     stroke-width="6"
     stroke-miterlimit="10"
     cx="118.3"
     cy="-93.699989"
     r="72.400002"
     id="circle5758"
     style="stroke-width:4;stroke-miterlimit:10;stroke-dasharray:none"
     transform="scale(1,-1)" />
  <circle
     fill="#caebfc"
     stroke="#808285"
     stroke-width="6"
     stroke-miterlimit="10"
     cx="111.1"
     cy="-98.29998"
     r="72.400002"
     id="circle5760"
     style="stroke-width:4;stroke-miterlimit:10;stroke-dasharray:none"
     transform="scale(1,-1)" />
  <circle
     opacity="0.14"
     stroke="#000000"
     stroke-width="6"
     stroke-miterlimit="10"
     cx="482.60001"
     cy="-72.699989"
     r="47.299999"
     id="circle5762"
     style="stroke-width:4;stroke-miterlimit:10;stroke-dasharray:none"
     transform="scale(1,-1)" />
  <circle
     fill="#f8f7cb"
     stroke="#808285"
     stroke-width="6"
     stroke-miterlimit="10"
     cx="478"
     cy="-75.699989"
     r="47.299999"
     id="circle5764"
     style="stroke-width:4;stroke-miterlimit:10;stroke-dasharray:none"
     transform="scale(1,-1)" />
  <circle
     fill="#8967ac"
     stroke="#651c5f"
     stroke-width="6"
     stroke-miterlimit="10"
     cx="477.39999"
     cy="-97.599983"
     r="11.6"
     id="circle5766"
     style="stroke-width:4;stroke-miterlimit:10;stroke-dasharray:none"
     transform="scale(1,-1)" />
  <circle
     fill="#f58235"
     stroke="#e76524"
     stroke-width="6"
     stroke-miterlimit="10"
     cx="482.70001"
     cy="-54.699978"
     r="11.6"
     id="circle5768"
     style="stroke-width:4;stroke-miterlimit:10;stroke-dasharray:none"
     transform="scale(1,-1)" />
  <circle
     fill="#39bced"
     stroke="#008dd2"
     stroke-width="6"
     stroke-miterlimit="10"
     cx="75.199997"
     cy="-116.49999"
     r="11.6"
     id="circle5770"
     style="stroke-width:4;stroke-miterlimit:10;stroke-dasharray:none"
     transform="scale(1,-1)" />
  <circle
     fill="#54b948"
     stroke="#00873a"
     stroke-width="6"
     stroke-miterlimit="10"
     cx="120.2"
     cy="-102.99999"
     r="11.6"
     id="circle5772"
     style="stroke-width:4;stroke-miterlimit:10;stroke-dasharray:none"
     transform="scale(1,-1)" />
  <g
     stroke-width="6"
     stroke-miterlimit="10"
     id="g5788"
     style="stroke-width:4;stroke-miterlimit:10;stroke-dasharray:none"
     transform="matrix(1,0,0,-1,0,311.89999)">
    <circle
       fill="#e6e7e8"
       stroke="#808285"
       cx="365"
       cy="66"
       r="23.1"
       id="circle5782"
       style="stroke-width:4;stroke-miterlimit:10;stroke-dasharray:none" />
    <circle
       fill="#8967ac"
       stroke="#651c5f"
       cx="376.5"
       cy="67.099998"
       r="11.6"
       id="circle5784"
       style="stroke-width:4;stroke-miterlimit:10;stroke-dasharray:none" />
    <circle
       fill="#54b948"
       stroke="#00873a"
       cx="353.39999"
       cy="66"
       r="11.6"
       id="circle5786"
       style="stroke-width:4;stroke-miterlimit:10;stroke-dasharray:none" />
  </g>
  <g
     stroke-width="6"
     stroke-miterlimit="10"
     id="g5796"
     style="stroke-width:4;stroke-miterlimit:10;stroke-dasharray:none"
     transform="matrix(1,0,0,-1,0,311.89999)">
    <circle
       fill="#e6e7e8"
       stroke="#808285"
       cx="270.79999"
       cy="218.2"
       r="23.1"
       id="circle5790"
       style="stroke-width:4;stroke-miterlimit:10;stroke-dasharray:none" />
    <circle
       fill="#f58235"
       stroke="#e76524"
       cx="282.29999"
       cy="218.10001"
       r="11.6"
       id="circle5792"
       style="stroke-width:4;stroke-miterlimit:10;stroke-dasharray:none" />
    <circle
       fill="#f58235"
       stroke="#e76524"
       cx="259.79999"
       cy="218.10001"
       r="11.6"
       id="circle5794"
       style="stroke-width:4;stroke-miterlimit:10;stroke-dasharray:none" />
  </g>
  <path
     fill="#7a8916"
     d="m 250.9,171.29999 2.7,0.3 c 1.8,0.2 4.4,0.4 7.7,0.7 6.6,0.3 16.2,0.8 27.5,0 11.4,-0.8 24.6,-2.5 38.5,-6 13.8,-3.5 28.2,-8.6 41.8,-15.4 l 5.1,-2.6 c 1.7,-0.8 3.3,-1.9 5,-2.8 3.3,-1.8 6.5,-3.9 9.6,-5.9 6.3,-4.1 12.6,-8.2 18.6,-12 12.1,-7.7 23.4,-14.9 32.2,-22.1 8.9,-7.2 15.3,-14.2 19.3,-19.4 0.4,-0.4 0.7,-0.8 0.9,-1 l 0.2,-0.2 -9.1,-7.1 c 7.6,-2.7 15.3,-6.5 22.9,-10.9 0,8.7 -0.5,17.8 -2.2,27.1 l -9.1,-7.1 -0.2,0.2 c -0.2,0.2 -0.5,0.6 -0.9,1.1 -4.2,5.3 -10.8,12.6 -19.8,19.9 -9,7.4 -20.4,14.7 -32.5,22.4 -6.1,3.8 -12.3,7.9 -18.6,12 -3.2,2 -6.4,4.1 -9.8,6 -1.7,0.9 -3.3,2 -5,2.8 l -5.1,2.7 c -13.8,6.9 -28.5,12.1 -42.5,15.7 -14,3.6 -27.5,5.3 -39,6.1 -11.6,0.8 -21.2,0.3 -28,0 -3.4,-0.3 -6,-0.5 -7.8,-0.7 -1.8,-0.2 -2.8,-0.3 -2.8,-0.3 z"
     id="path5798"
     style="stroke-width:4;stroke-miterlimit:10;stroke-dasharray:none" />
  <path
     fill="#7a8916"
     d="m 356.2,122.19999 c 0,0 1.7,-0.3 4.7,-0.8 3,-0.5 7.3,-1.4 12.4,-2.6 10.2,-2.4 23.6,-6.8 36.2,-12.6 3.2,-1.4 6.3,-3.1 9.3,-4.6 1.5,-0.8 3,-1.7 4.5,-2.5 1.5,-0.8 2.9,-1.6 4.3,-2.5 5.6,-3.5 10.6,-6.9 14.7,-10.1 1,-0.8 2,-1.6 2.9,-2.3 0.5,-0.4 0.9,-0.7 1.4,-1.1 0.4,-0.4 0.8,-0.7 1.2,-1.1 1.6,-1.4 3,-2.6 4.1,-3.7 0.2,-0.2 0.4,-0.3 0.5,-0.4 l 0.2,-0.2 0.2,-0.2 -8,-8.4 c 7.9,-1.6 16,-4 24.1,-7.6 -0.9,8.7 -2.9,17.7 -5.9,26.7 l -8,-8.4 -0.2,0.2 -0.2,0.2 -0.5,0.5 c -1.2,1 -2.6,2.3 -4.2,3.7 -0.4,0.4 -0.8,0.7 -1.3,1.1 -0.5,0.4 -0.9,0.7 -1.4,1.1 l -3,2.4 c -4.2,3.3 -9.3,6.8 -15,10.4 -1.4,0.9 -2.9,1.7 -4.4,2.5 -1.5,0.8 -3,1.8 -4.5,2.5 -3.1,1.6 -6.2,3.3 -9.5,4.7 -12.9,6 -26.5,10.3 -36.8,12.8 -5.2,1.2 -9.5,2.2 -12.6,2.6 -3.1,0.5 -4.8,0.9 -4.8,0.9 z"
     id="path5800"
     style="stroke-width:4;stroke-miterlimit:10;stroke-dasharray:none" />
  <path
     fill="#7a8916"
     d="m 295.8,94.39999 h 1.9 c 1.2,0 3,0.1 5.2,0.1 4.5,0.1 11,0.1 18.7,-0.2 15.5,-0.5 36.2,-1.9 56.6,-5.3 20.4,-3.2 40.4,-8.7 54.6,-14.8 7.1,-3 12.7,-6.1 16.6,-8.4 0.7,-0.5 1.2,-0.7 1.2,-0.7 l -6.2,-9.8 c 7.9,0.2 16.1,-0.6 24.5,-3.3 -1.8,8.6 -5.6,17.4 -10.5,25.6 l -6.2,-9.8 c 0,0 -0.4,0.3 -1.2,0.8 -3.9,2.4 -9.7,5.6 -17,8.6 -14.5,6.2 -34.7,11.8 -55.3,15 -20.6,3.4 -41.4,4.9 -57,5.3 -7.8,0.2 -14.3,0.2 -18.9,0.2 -2.3,0 -4.1,-0.1 -5.3,-0.1 h -1.9 z m 80.3,91.7 c 0,0 1.6,-0.4 4.4,-1.2 1.4,-0.4 3.1,-0.9 5.1,-1.4 1.9,-0.6 4.1,-1.3 6.5,-2.1 9.5,-3.2 22.1,-8 33.4,-15.2 5.7,-3.4 10.8,-7.7 15.4,-11.9 1.1,-1.1 2.2,-2.2 3.2,-3.3 0.5,-0.5 1.1,-1 1.5,-1.6 0.5,-0.6 0.9,-1.1 1.4,-1.7 0.9,-1.1 1.8,-2.2 2.7,-3.2 0.9,-1 1.6,-2.1 2.3,-3.1 0.7,-1 1.4,-2 2.1,-2.9 0.6,-0.9 1.2,-1.9 1.7,-2.7 1,-1.7 2,-3.2 2.7,-4.5 0.3,-0.7 0.5,-1.1 0.5,-1.1 l -10.2,-5.5 c 1.7,-1 3.5,-2 5.3,-3.1 1.7,-1.1 3.4,-2.3 5.1,-3.6 l 2.6,-1.9 2.5,-2 c 1.7,-1.4 3.3,-2.8 5,-4.2 0.4,2.1 0.8,4.3 1.2,6.5 l 0.6,3.3 0.4,3.4 c 0.2,2.3 0.5,4.6 0.6,6.9 0.1,2.3 0.1,4.7 0.1,7.1 l -10.2,-5.5 c 0,0 -0.2,0.4 -0.6,1.1 -0.7,1.3 -1.7,2.9 -2.8,4.7 -0.6,0.9 -1.1,1.9 -1.8,2.8 l -2.1,3 c -0.8,1 -1.5,2.2 -2.4,3.2 -0.9,1.1 -1.8,2.2 -2.8,3.3 -0.5,0.6 -1,1.1 -1.4,1.7 -0.5,0.6 -1.1,1.1 -1.6,1.7 -1.1,1.1 -2.2,2.2 -3.3,3.4 -4.7,4.3 -10.1,8.7 -15.9,12.3 -11.6,7.4 -24.4,12.3 -34.1,15.5 -2.4,0.8 -4.7,1.5 -6.6,2.1 -2,0.6 -3.7,1 -5.2,1.5 -2.9,0.8 -4.5,1.2 -4.5,1.2 z"
     id="path5802"
     style="stroke-width:4;stroke-miterlimit:10;stroke-dasharray:none" />
  <path
     fill="#7a8916"
     d="m 305.5,247.79999 c 0,0 3.5,-0.4 9.7,-1.1 6.2,-0.8 15,-1.8 25.5,-3.6 10.5,-1.8 22.7,-4.2 35.5,-7.9 1.6,-0.5 3.2,-0.9 4.8,-1.4 1.6,-0.5 3.2,-1 4.8,-1.6 3.3,-1 6.5,-2.3 9.8,-3.4 6.5,-2.6 13,-5.4 19.2,-8.7 6.2,-3.4 12.2,-7.1 17.7,-11.3 5.5,-4.2 10.5,-8.8 15,-13.7 4.4,-4.9 8.1,-10.1 11.3,-15.2 0.7,-1.3 1.5,-2.6 2.2,-3.9 0.4,-0.6 0.7,-1.3 1.1,-1.9 0.3,-0.7 0.6,-1.3 0.9,-1.9 0.6,-1.3 1.2,-2.5 1.8,-3.8 0.5,-1.3 1,-2.5 1.5,-3.7 4,-9.8 5.8,-18.5 7,-24.5 0.2,-1 0.2,-1.5 0.2,-1.5 l -11.4,-1.9 c 1.3,-1.5 2.7,-3.1 4.1,-4.7 1.3,-1.6 2.6,-3.3 3.8,-5 l 1.9,-2.6 1.8,-2.7 3.6,-5.5 3,5.9 1.5,3 1.3,3.1 c 0.9,2.1 1.8,4.2 2.6,6.3 0.8,2.1 1.6,4.3 2.3,6.5 l -11.4,-1.9 c 0,0 -0.1,0.6 -0.2,1.6 -1.2,6.2 -3.1,15 -7.2,25.1 -0.5,1.3 -1,2.5 -1.6,3.8 -0.6,1.3 -1.2,2.6 -1.9,3.9 -0.3,0.7 -0.6,1.3 -1,2 -0.4,0.6 -0.7,1.3 -1.1,2 -0.7,1.3 -1.5,2.7 -2.3,4 -3.3,5.3 -7.1,10.6 -11.7,15.7 -4.6,5 -9.8,9.8 -15.4,14.1 -5.7,4.3 -11.8,8.1 -18.2,11.5 -6.4,3.4 -13,6.3 -19.5,8.9 -3.3,1.2 -6.6,2.5 -9.9,3.5 -1.6,0.5 -3.3,1.1 -4.9,1.6 -1.6,0.5 -3.3,1 -4.9,1.4 -12.9,3.7 -25.2,6.1 -35.8,7.9 -10.6,1.8 -19.5,2.9 -25.7,3.7 -6.2,0.7 -9.8,1.1 -9.8,1.1 z"
     id="path5804"
     style="stroke-width:4;stroke-miterlimit:10;stroke-dasharray:none" />
  <path
     fill="#7a8916"
     d="m 390.3,242.59999 c 0,0 0.6,-0.1 1.7,-0.4 1.1,-0.3 2.8,-0.6 4.9,-1.1 4.2,-1.1 10.2,-2.9 17,-5.8 6.9,-2.9 14.5,-7.1 22.1,-12.5 3.8,-2.7 7.5,-5.8 11.1,-9.1 1.7,-1.7 3.6,-3.4 5.2,-5.2 0.8,-0.9 1.7,-1.8 2.5,-2.7 l 2.4,-2.8 c 0.8,-0.9 1.6,-1.9 2.3,-2.9 0.7,-1 1.5,-1.9 2.3,-3 1.4,-2 2.9,-4 4.1,-6.1 2.7,-4.1 4.9,-8.4 7,-12.5 4,-8.4 6.7,-16.7 8.3,-24 1.6,-7.3 2.2,-13.5 2.4,-17.8 0,-0.9 0.1,-1.4 0.1,-1.4 l -11.6,-0.5 c 4.6,-6.5 8.6,-13.9 11.5,-22.2 5.7,6.6 10.7,14.5 14.8,23.2 l -11.6,-0.5 c 0,0 0,0.5 -0.1,1.4 -0.2,4.5 -0.8,10.8 -2.5,18.3 -1.7,7.5 -4.5,16 -8.5,24.7 -2.1,4.3 -4.4,8.7 -7.2,12.9 -1.3,2.1 -2.8,4.2 -4.3,6.3 -0.7,1 -1.5,2 -2.3,3 -0.8,1 -1.5,2 -2.4,3 l -2.5,2.9 c -0.8,1 -1.7,1.9 -2.6,2.8 -1.7,1.9 -3.6,3.6 -5.4,5.4 -3.7,3.4 -7.5,6.6 -11.4,9.3 -7.8,5.6 -15.7,9.9 -22.7,12.9 -7,3 -13.2,4.8 -17.5,6 -2.2,0.6 -3.9,0.9 -5,1.2 -1.2,0.3 -1.8,0.4 -1.8,0.4 z"
     id="path5806"
     style="stroke-width:4;stroke-miterlimit:10;stroke-dasharray:none" />
  <g
     stroke-width="6"
     stroke-miterlimit="10"
     id="g5822"
     style="stroke-width:4;stroke-miterlimit:10;stroke-dasharray:none"
     transform="matrix(1,0,0,-1,0,311.89999)">
    <circle
       fill="#e6e7e8"
       stroke="#808285"
       cx="333.29999"
       cy="188.2"
       r="23.1"
       id="circle5816"
       style="stroke-width:4;stroke-miterlimit:10;stroke-dasharray:none" />
    <circle
       fill="#f58235"
       stroke="#e76524"
       cx="344.79999"
       cy="188.2"
       r="11.6"
       id="circle5818"
       style="stroke-width:4;stroke-miterlimit:10;stroke-dasharray:none" />
    <circle
       fill="#54b948"
       stroke="#00873a"
       cx="321.70001"
       cy="188.2"
       r="11.6"
       id="circle5820"
       style="stroke-width:4;stroke-miterlimit:10;stroke-dasharray:none" />
  </g>
  <path
     d="m 256.45175,254.10348 c 0,0 -0.8,-0.1 -2.4,-0.2 -1.6,-0.2 -3.8,-0.3 -6.7,-0.7 -5.8,-0.7 -14.1,-1.9 -23.8,-4.1 -9.8,-2.2 -21,-5.5 -32.7,-10 -11.7,-4.4 -23.7,-10.2 -35.3,-16.9 -5.7,-3.4 -11.4,-6.9 -16.8,-10.7 -5.4,-3.7 -10.5,-7.7 -15.3,-11.7 -9.5,-8.1 -17.8,-16.5 -24.100003,-24.3 -6.3,-7.8 -10.9,-14.9 -13.8,-20 l -0.3,-0.6 -0.1,-0.1 c 0,-0.1 -0.1,-0.1 -0.1,-0.2 -0.1,-0.1 -0.1,-0.2 -0.1,-0.3 l -0.1,-0.2 -10.1,5.6 c -0.2,-9.5 0.6,-18.7 2.7,-27.3 6.4,6.1 13.3,10.8 20.4,14.6 l -10.1,5.6 c 0,0 0,0.1 0.1,0.2 0,0.1 0.1,0.2 0.1,0.3 0,0.1 0.1,0.1 0.1,0.2 v 0.1 l 0.3,0.6 c 2.8,5 7.2,11.9 13.500003,19.5 6.2,7.7 14.3,15.9 23.7,23.9 4.7,3.9 9.7,7.9 15.1,11.6 5.3,3.8 10.9,7.3 16.5,10.6 11.4,6.6 23.3,12.3 34.8,16.7 11.5,4.4 22.6,7.7 32.2,9.9 9.6,2.2 17.8,3.4 23.5,4.1 2.9,0.4 5.1,0.5 6.6,0.7 1.5,0.1 2.4,0.2 2.4,0.2 z"
     id="path5824"
     style="fill:#628da0;stroke-width:4;stroke-miterlimit:10;stroke-dasharray:none"
     inkscape:connector-curvature="0" />
  <g
     stroke-width="6"
     stroke-miterlimit="10"
     id="g5780"
     style="stroke-width:4;stroke-miterlimit:10;stroke-dasharray:none"
     transform="matrix(1,0,0,-1,0,311.89999)">
    <circle
       fill="#e6e7e8"
       stroke="#808285"
       cx="279.79999"
       cy="59.5"
       r="23.1"
       id="circle5774"
       style="stroke-width:4;stroke-miterlimit:10;stroke-dasharray:none" />
    <circle
       fill="#8967ac"
       stroke="#651c5f"
       cx="291.79999"
       cy="59.900002"
       r="11.6"
       id="circle5776"
       style="stroke-width:4;stroke-miterlimit:10;stroke-dasharray:none" />
    <circle
       fill="#39bced"
       stroke="#008dd2"
       cx="268.70001"
       cy="59.900002"
       r="11.6"
       id="circle5778"
       style="stroke-width:4;stroke-miterlimit:10;stroke-dasharray:none" />
  </g>
  <path
     fill="#628da0"
     d="m 202.7,168.29999 c 0,0 -1.6,-0.4 -4.4,-1 -2.8,-0.7 -6.9,-1.6 -11.7,-2.9 -9.7,-2.4 -22.5,-5.9 -35.2,-9.6 -12.7,-3.7 -25.4,-7.7 -34.8,-10.9 -4.7,-1.6 -8.6,-3 -11.4,-4 -0.7,-0.3 -1.2,-0.4 -1.2,-0.4 l -4,10.8 c -2.9,-3.4 -5.8,-6.9 -8.6,-10.5 -1.4,-1.8 -2.8,-3.6 -4,-5.5 -0.6,-1 -1.3,-1.9 -1.8,-3 l -0.4,-0.8 -0.4,-0.8 c -0.2,-0.5 -0.4,-1.1 -0.5,-1.6 0.6,0.2 1,0.3 1.5,0.3 l 0.8,0.1 h 0.8 c 1,0 2.1,-0.1 3.1,-0.1 2.1,-0.2 4.2,-0.4 6.3,-0.7 4.2,-0.6 8.4,-1.3 12.5,-2.1 l -4,10.8 c 0,0 0.4,0.2 1.1,0.4 2.7,1 6.6,2.4 11.3,4 9.4,3.2 22,7.2 34.7,10.8 12.7,3.7 25.5,7.1 35.1,9.5 l 11.6,2.9 c 2.8,0.7 4.4,1 4.4,1 z m 42.9,-75.7 c 0,0 -5.6,-0.9 -14.1,-2.3 -8.5,-1.4 -19.8,-3.2 -31.1,-5.3 -11.3,-2.1 -22.5,-4.4 -30.9,-6.5 -4.2,-1.1 -7.7,-2 -10.1,-2.8 -0.4,-0.1 -0.7,-0.2 -0.9,-0.3 l -0.2,-0.1 -3.5,11 c -3.3,-3.3 -6.5,-6.8 -9.5,-10.6 -1.5,-1.9 -2.9,-3.8 -4.1,-6 -0.3,-0.5 -0.6,-1 -0.8,-1.6 -0.2,-0.6 -0.5,-1.1 -0.7,-1.7 -0.2,-0.6 -0.3,-1.2 -0.5,-1.7 -0.1,-0.6 -0.1,-1.2 -0.1,-1.7 1.9,1.1 3.9,1.2 5.8,1.3 1.9,0 4,-0.2 5.9,-0.5 3.9,-0.6 7.9,-1.5 11.8,-2.6 l -3.5,11 c 0,0 0.1,0 0.2,0.1 0.2,0.1 0.5,0.2 0.9,0.3 2.4,0.7 5.8,1.7 9.9,2.7 8.3,2.1 19.4,4.4 30.7,6.5 11.2,2.1 22.5,3.9 31,5.3 8.5,1.4 14.1,2.3 14.1,2.3 z"
     id="path5826"
     style="stroke-width:4;stroke-miterlimit:10;stroke-dasharray:none" />
  <g
     stroke-width="6"
     stroke-miterlimit="10"
     id="g5834"
     style="stroke-width:4;stroke-miterlimit:10;stroke-dasharray:none"
     transform="matrix(1,0,0,-1,0,311.89999)">
    <circle
       fill="#e6e7e8"
       stroke="#808285"
       cx="227.39999"
       cy="143.2"
       r="23.1"
       id="circle5828"
       style="stroke-width:4;stroke-miterlimit:10;stroke-dasharray:none" />
    <circle
       fill="#f58235"
       stroke="#e76524"
       cx="238.89999"
       cy="143.2"
       r="11.6"
       id="circle5830"
       style="stroke-width:4;stroke-miterlimit:10;stroke-dasharray:none" />
    <circle
       fill="#39bced"
       stroke="#008dd2"
       cx="215.8"
       cy="143.2"
       r="11.6"
       id="circle5832"
       style="stroke-width:4;stroke-miterlimit:10;stroke-dasharray:none" />
  </g>
  <path
     fill="#628da0"
     d="m 308.5,125.29999 -1.8,0.3 c -1.2,0.2 -2.9,0.5 -5.1,0.8 -4.4,0.6 -10.8,1.5 -18.4,2.2 -15.3,1.5 -35.7,2.4 -56.2,1.7 -20.4,-0.7 -40.8,-3.1 -55.9,-6 -7.5,-1.4 -13.8,-2.9 -18.1,-4.1 -0.9,-0.2 -1.3,-0.4 -1.3,-0.4 l -3.2,11.1 c -3.4,-3.2 -6.6,-6.6 -9.7,-10.2 -1.5,-1.8 -3,-3.7 -4.3,-5.6 -0.7,-1 -1.3,-2 -1.8,-3.1 -0.5,-1.1 -0.9,-2.3 -0.9,-3.4 0.9,0.6 1.9,0.7 2.9,0.8 1,0.1 2,0 3,0 2,-0.1 4,-0.4 6,-0.8 4,-0.8 8,-1.8 11.9,-2.9 l -3.2,11.1 c 0,0 0.5,0.1 1.3,0.4 4.3,1.2 10.4,2.7 17.9,4.1 14.9,2.9 35.1,5.2 55.4,5.9 20.3,0.8 40.6,-0.1 55.7,-1.6 7.6,-0.7 13.9,-1.6 18.3,-2.2 2.2,-0.3 3.9,-0.6 5.1,-0.8 l 1.8,-0.3 z m 31.3,122.2 c 0,0 -1,-0.1 -2.8,-0.3 -0.9,-0.1 -2.1,-0.2 -3.4,-0.4 -1.3,-0.2 -2.9,-0.4 -4.6,-0.6 -6.9,-0.9 -16.7,-2.4 -28.3,-5 -11.6,-2.5 -25.1,-6.2 -39.1,-11.1 -14,-4.9 -28.7,-11.2 -42.7,-18.5 -14.1,-7.3 -27.6,-15.7 -39.7,-24.4 -12.1,-8.7 -22.7,-17.8 -31.1,-26.2 -8.5,-8.4 -14.7,-16.2 -18.7,-22 l -0.6,-0.9 c -0.1,-0.1 -0.1,-0.2 -0.2,-0.3 -0.1,-0.1 -0.1,-0.2 -0.1,-0.2 l -9.6,6.4 c -0.5,-4.8 -0.8,-9.6 -0.6,-14.4 0.1,-2.4 0.4,-4.8 0.8,-7.1 0.5,-2.3 1.2,-4.6 2.2,-6.5 1.1,1.9 2.6,3.4 4.1,4.7 1.5,1.3 3.1,2.5 4.8,3.5 3.4,2.1 6.9,3.8 10.6,5.4 l -9.8,6.3 c 0,0 0,0.1 0.1,0.2 0,0.1 0.1,0.2 0.2,0.3 0.2,0.3 0.4,0.5 0.6,0.9 3.8,5.6 10,13.3 18.3,21.6 8.3,8.3 18.8,17.3 30.7,25.9 11.9,8.6 25.3,16.9 39.3,24.2 13.9,7.3 28.4,13.5 42.3,18.3 13.9,4.9 27.2,8.5 38.7,11 11.5,2.6 21.2,4 28.1,4.9 1.7,0.2 3.2,0.4 4.6,0.6 1.3,0.1 2.5,0.3 3.4,0.4 1.8,0.2 2.8,0.3 2.8,0.3 z"
     id="path5836"
     style="stroke-width:4;stroke-miterlimit:10;stroke-dasharray:none" />
  <path
     d="m 329.4,187.39999 c 0,0 -3.4,-0.4 -9.4,-1 -6,-0.8 -14.5,-2 -24.6,-4.2 -10.1,-2.2 -21.8,-5.3 -34,-9.6 -12.2,-4.2 -25,-9.6 -37.3,-15.7 -12.3,-6.2 -24.2,-13.3 -34.9,-20.6 -10.6,-7.4 -20,-15.1 -27.5,-22.2 -7.5,-7.2 -13.2,-13.8 -16.8,-18.6 -0.6,-0.8 -0.9,-1.3 -0.9,-1.3 l -9.3,6.9 c -1.5,-9.4 -2,-18.8 -0.7,-27.5 6.9,5.4 14.3,9.1 21.9,11.9 l -9.3,6.9 0.9,1.2 c 3.6,4.7 9.1,11.2 16.5,18.2 7.4,7 16.7,14.6 27.2,21.9 10.5,7.2 22.3,14.3 34.5,20.4 12.2,6.1 24.8,11.4 36.9,15.6 12.1,4.2 23.7,7.3 33.7,9.5 10,2.2 18.5,3.4 24.4,4.2 5.9,0.6 9.3,1 9.3,1 z"
     id="path5838"
     style="fill:#628da0;stroke-width:4;stroke-miterlimit:10;stroke-dasharray:none"
     inkscape:connector-curvature="0" />
  <g
     stroke-width="6"
     stroke-miterlimit="10"
     id="g5814"
     style="stroke-width:4;stroke-miterlimit:10;stroke-dasharray:none"
     transform="matrix(1,0,0,-1,0,311.89999)">
    <circle
       fill="#e6e7e8"
       stroke="#808285"
       cx="353.39999"
       cy="124.2"
       r="23.1"
       id="circle5808"
       style="stroke-width:4;stroke-miterlimit:10;stroke-dasharray:none" />
    <circle
       fill="#8967ac"
       stroke="#651c5f"
       cx="365"
       cy="124.2"
       r="11.6"
       id="circle5810"
       style="stroke-width:4;stroke-miterlimit:10;stroke-dasharray:none" />
    <circle
       fill="#f58235"
       stroke="#e76524"
       cx="341.89999"
       cy="124.2"
       r="11.6"
       id="circle5812"
       style="stroke-width:4;stroke-miterlimit:10;stroke-dasharray:none" />
  </g>
  <circle
     fill="#f58235"
     stroke="#e76524"
     stroke-width="6"
     stroke-miterlimit="10"
     cx="127.7"
     cy="-57.89999"
     r="11.6"
     id="circle5840"
     style="stroke-width:4;stroke-miterlimit:10;stroke-dasharray:none"
     transform="scale(1,-1)" />
  <g
     aria-label="A"
     id="text28280"
     style="font-size:44.271px;line-height:1.25;font-family:Sans;-inkscape-font-specification:'Sans, Normal';text-align:end;word-spacing:0px;text-anchor:end;opacity:0.525963;stroke-width:3.32034"
     transform="matrix(0.75856719,0,0,0.75856719,-97.447309,155.02485)">
    <path
       d="m 279.65133,15.830255 -2.3021,-7.5260704 h -11.51046 l -2.30209,7.5260704 h -7.21617 l 11.15629,-31.742307 h 8.19014 l 11.20056,31.742307 z m -6.19794,-20.4974734 q -0.22136,-0.752607 -0.57553,-1.903653 -0.35416,-1.151046 -0.70833,-2.346363 -0.35417,-1.1953166 -0.57553,-2.0807366 -0.22135,0.88542 -0.61979,2.2135496 -0.35417,1.283859 -0.70834,2.479176 -0.30989,1.151046 -0.48698,1.638027 l -2.25782,7.348986 h 8.23441 z"
       style="font-weight:bold;-inkscape-font-specification:'Sans Bold'"
       id="path28398" />
  </g>
  <g
     aria-label="B"
     id="text28280-6"
     style="font-size:44.271px;line-height:1.25;font-family:Sans;-inkscape-font-specification:'Sans, Normal';text-align:end;word-spacing:0px;text-anchor:end;opacity:0.525963;stroke-width:3.32034"
     transform="matrix(0.75856719,0,0,0.75856719,242.91932,75.598768)">
    <path
       d="m 346.37551,-17.681931 q 6.33075,0 9.56254,1.77084 3.23178,1.77084 3.23178,6.2422108 0,2.700531 -1.28386,4.559913 -1.23959,1.8593819 -3.58595,2.2578209 v 0.221355 q 1.59376,0.309897 2.87762,1.106775 1.28385,0.79687804 2.03646,2.30209204 0.75261,1.50521396 0.75261,3.98438996 0,4.294287 -3.09897,6.7291923 -3.09897,2.434905 -8.50003,2.434905 h -11.82036 v -31.609494 z m 0.75261,12.5286928 q 2.92188,0 4.02866,-0.929691 1.15105,-0.929691 1.15105,-2.700531 0,-1.8151108 -1.32813,-2.6119888 -1.32813,-0.796878 -4.20575,-0.796878 h -3.54168 v 7.0390888 z m -3.89585,5.31251994 V 8.3936877 h 4.38283 q 3.01043,0 4.20574,-1.151046 1.19532,-1.195317 1.19532,-3.143241 0,-1.77084 -1.23959,-2.833344 -1.19531,-1.10677496 -4.38283,-1.10677496 z"
       style="font-weight:bold;-inkscape-font-specification:'Sans Bold'"
       id="path28401" />
  </g>
  <g
     aria-label="C"
     id="text28280-6-4"
     style="font-size:44.271px;line-height:1.25;font-family:Sans;-inkscape-font-specification:'Sans, Normal';text-align:end;word-spacing:0px;text-anchor:end;opacity:0.525963;stroke-width:3.32034"
     transform="matrix(0.75856719,0,0,0.75856719,49.080997,326.71783)">
    <path
       d="m 353.71952,-84.819402 q -3.85158,0 -5.88804,2.877615 -2.03647,2.877614 -2.03647,7.880237 0,5.046894 1.85938,7.835967 1.90366,2.744802 6.06513,2.744802 1.94792,0 3.85158,-0.44271 1.94792,-0.44271 4.20574,-1.239588 v 5.622417 q -2.08073,0.841149 -4.1172,1.239588 -2.03647,0.398439 -4.55991,0.398439 -4.86981,0 -8.05733,-1.992195 -3.14324,-2.036466 -4.64845,-5.666688 -1.50521,-3.674493 -1.50521,-8.544303 0,-4.781268 1.72656,-8.45576 1.72657,-3.674493 5.00263,-5.75523 3.32032,-2.080737 8.10159,-2.080737 2.34636,0 4.69273,0.619794 2.39063,0.575523 4.55991,1.593756 l -2.16928,5.445333 q -1.77084,-0.841149 -3.58595,-1.460943 -1.77084,-0.619794 -3.49741,-0.619794 z"
       style="font-weight:bold;-inkscape-font-specification:'Sans Bold'"
       id="path28404" />
  </g>
</svg>
