<?xml version="1.0" encoding="UTF-8" standalone="no"?>
<svg
   viewBox="0 0 595.3 312"
   version="1.1"
   id="svg5846"
   sodipodi:docname="product.svg"
   inkscape:version="1.2.2 (b0a8486541, 2022-12-01)"
   xmlns:inkscape="http://www.inkscape.org/namespaces/inkscape"
   xmlns:sodipodi="http://sodipodi.sourceforge.net/DTD/sodipodi-0.dtd"
   xmlns="http://www.w3.org/2000/svg"
   xmlns:svg="http://www.w3.org/2000/svg"
   xmlns:rdf="http://www.w3.org/1999/02/22-rdf-syntax-ns#"
   xmlns:cc="http://creativecommons.org/ns#"
   xmlns:dc="http://purl.org/dc/elements/1.1/">
  <metadata
     id="metadata5852">
    <rdf:RDF>
      <cc:Work
         rdf:about="">
        <dc:format>image/svg+xml</dc:format>
        <dc:type
           rdf:resource="http://purl.org/dc/dcmitype/StillImage" />
      </cc:Work>
    </rdf:RDF>
  </metadata>
  <defs
     id="defs5850" />
  <sodipodi:namedview
     pagecolor="#ffffff"
     bordercolor="#666666"
     borderopacity="1"
     objecttolerance="10"
     gridtolerance="10"
     guidetolerance="10"
     inkscape:pageopacity="0"
     inkscape:pageshadow="2"
     inkscape:window-width="1080"
     inkscape:window-height="1853"
     id="namedview5848"
     showgrid="false"
     inkscape:zoom="1.4044005"
     inkscape:cx="255.62509"
     inkscape:cy="233.19559"
     inkscape:window-x="0"
     inkscape:window-y="0"
     inkscape:window-maximized="1"
     inkscape:current-layer="svg5846"
     inkscape:showpageshadow="2"
     inkscape:pagecheckerboard="0"
     inkscape:deskcolor="#d1d1d1" />
  <circle
     opacity="0.14"
     stroke="#000000"
     stroke-width="6"
     stroke-miterlimit="10"
     cx="320"
     cy="-166.7"
     r="120.4"
     id="circle5754"
     style="stroke-width:4;stroke-miterlimit:10;stroke-dasharray:none"
     transform="scale(1,-1)" />
  <circle
     fill="#cee7cc"
     stroke="#808285"
     stroke-width="6"
     stroke-miterlimit="10"
     cx="311.10001"
     cy="-170.2"
     r="120.4"
     id="circle5756"
     style="stroke-width:4;stroke-miterlimit:10;stroke-dasharray:none"
     transform="scale(1,-1)" />
  <circle
     opacity="0.14"
     stroke="#000000"
     stroke-width="6"
     stroke-miterlimit="10"
     cx="118.3"
     cy="-93.699989"
     r="72.400002"
     id="circle5758"
     style="stroke-width:4;stroke-miterlimit:10;stroke-dasharray:none"
     transform="scale(1,-1)" />
  <circle
     fill="#caebfc"
     stroke="#808285"
     stroke-width="6"
     stroke-miterlimit="10"
     cx="111.1"
     cy="-98.29998"
     r="72.400002"
     id="circle5760"
     style="stroke-width:4;stroke-miterlimit:10;stroke-dasharray:none"
     transform="scale(1,-1)" />
  <circle
     opacity="0.14"
     stroke="#000000"
     stroke-width="6"
     stroke-miterlimit="10"
     cx="482.60001"
     cy="-72.699989"
     r="47.299999"
     id="circle5762"
     style="stroke-width:4;stroke-miterlimit:10;stroke-dasharray:none"
     transform="scale(1,-1)" />
  <circle
     fill="#f8f7cb"
     stroke="#808285"
     stroke-width="6"
     stroke-miterlimit="10"
     cx="478"
     cy="-75.699989"
     r="47.299999"
     id="circle5764"
     style="stroke-width:4;stroke-miterlimit:10;stroke-dasharray:none"
     transform="scale(1,-1)" />
  <circle
     fill="#8967ac"
     stroke="#651c5f"
     stroke-width="6"
     stroke-miterlimit="10"
     cx="477.39999"
     cy="-97.599983"
     r="11.6"
     id="circle5766"
     style="stroke-width:4;stroke-miterlimit:10;stroke-dasharray:none"
     transform="scale(1,-1)" />
  <circle
     fill="#f58235"
     stroke="#e76524"
     stroke-width="6"
     stroke-miterlimit="10"
     cx="482.70001"
     cy="-54.699978"
     r="11.6"
     id="circle5768"
     style="stroke-width:4;stroke-miterlimit:10;stroke-dasharray:none"
     transform="scale(1,-1)" />
  <circle
     fill="#39bced"
     stroke="#008dd2"
     stroke-width="6"
     stroke-miterlimit="10"
     cx="75.199997"
     cy="-116.49999"
     r="11.6"
     id="circle5770"
     style="stroke-width:4;stroke-miterlimit:10;stroke-dasharray:none"
     transform="scale(1,-1)" />
  <circle
     fill="#54b948"
     stroke="#00873a"
     stroke-width="6"
     stroke-miterlimit="10"
     cx="120.2"
     cy="-102.99999"
     r="11.6"
     id="circle5772"
     style="stroke-width:4;stroke-miterlimit:10;stroke-dasharray:none"
     transform="scale(1,-1)" />
  <g
     stroke-width="6"
     stroke-miterlimit="10"
     id="g5788"
     style="stroke-width:4;stroke-miterlimit:10;stroke-dasharray:none"
     transform="matrix(1,0,0,-1,0,311.89999)">
    <circle
       fill="#e6e7e8"
       stroke="#808285"
       cx="365"
       cy="66"
       r="23.1"
       id="circle5782"
       style="stroke-width:4;stroke-miterlimit:10;stroke-dasharray:none" />
    <circle
       fill="#8967ac"
       stroke="#651c5f"
       cx="376.5"
       cy="67.099998"
       r="11.6"
       id="circle5784"
       style="stroke-width:4;stroke-miterlimit:10;stroke-dasharray:none" />
    <circle
       fill="#54b948"
       stroke="#00873a"
       cx="353.39999"
       cy="66"
       r="11.6"
       id="circle5786"
       style="stroke-width:4;stroke-miterlimit:10;stroke-dasharray:none" />
  </g>
  <g
     stroke-width="6"
     stroke-miterlimit="10"
     id="g5796"
     style="stroke-width:4;stroke-miterlimit:10;stroke-dasharray:none"
     transform="matrix(1,0,0,-1,0,311.89999)">
    <circle
       fill="#e6e7e8"
       stroke="#808285"
       cx="270.79999"
       cy="218.2"
       r="23.1"
       id="circle5790"
       style="stroke-width:4;stroke-miterlimit:10;stroke-dasharray:none" />
    <circle
       fill="#f58235"
       stroke="#e76524"
       cx="282.29999"
       cy="218.10001"
       r="11.6"
       id="circle5792"
       style="stroke-width:4;stroke-miterlimit:10;stroke-dasharray:none" />
    <circle
       fill="#f58235"
       stroke="#e76524"
       cx="259.79999"
       cy="218.10001"
       r="11.6"
       id="circle5794"
       style="stroke-width:4;stroke-miterlimit:10;stroke-dasharray:none" />
  </g>
  <g
     stroke-width="6"
     stroke-miterlimit="10"
     id="g5822"
     style="stroke-width:4;stroke-miterlimit:10;stroke-dasharray:none"
     transform="matrix(1,0,0,-1,0,311.89999)">
    <circle
       fill="#e6e7e8"
       stroke="#808285"
       cx="333.29999"
       cy="188.2"
       r="23.1"
       id="circle5816"
       style="stroke-width:4;stroke-miterlimit:10;stroke-dasharray:none" />
    <circle
       fill="#f58235"
       stroke="#e76524"
       cx="344.79999"
       cy="188.2"
       r="11.6"
       id="circle5818"
       style="stroke-width:4;stroke-miterlimit:10;stroke-dasharray:none" />
    <circle
       fill="#54b948"
       stroke="#00873a"
       cx="321.70001"
       cy="188.2"
       r="11.6"
       id="circle5820"
       style="stroke-width:4;stroke-miterlimit:10;stroke-dasharray:none" />
  </g>
  <g
     stroke-width="6"
     stroke-miterlimit="10"
     id="g5780"
     style="stroke-width:4;stroke-miterlimit:10;stroke-dasharray:none"
     transform="matrix(1,0,0,-1,0,311.89999)">
    <circle
       fill="#e6e7e8"
       stroke="#808285"
       cx="279.79999"
       cy="59.5"
       r="23.1"
       id="circle5774"
       style="stroke-width:4;stroke-miterlimit:10;stroke-dasharray:none" />
    <circle
       fill="#8967ac"
       stroke="#651c5f"
       cx="291.79999"
       cy="59.900002"
       r="11.6"
       id="circle5776"
       style="stroke-width:4;stroke-miterlimit:10;stroke-dasharray:none" />
    <circle
       fill="#39bced"
       stroke="#008dd2"
       cx="268.70001"
       cy="59.900002"
       r="11.6"
       id="circle5778"
       style="stroke-width:4;stroke-miterlimit:10;stroke-dasharray:none" />
  </g>
  <g
     stroke-width="6"
     stroke-miterlimit="10"
     id="g5834"
     style="stroke-width:4;stroke-miterlimit:10;stroke-dasharray:none"
     transform="matrix(1,0,0,-1,0,311.89999)">
    <circle
       fill="#e6e7e8"
       stroke="#808285"
       cx="227.39999"
       cy="143.2"
       r="23.1"
       id="circle5828"
       style="stroke-width:4;stroke-miterlimit:10;stroke-dasharray:none" />
    <circle
       fill="#f58235"
       stroke="#e76524"
       cx="238.89999"
       cy="143.2"
       r="11.6"
       id="circle5830"
       style="stroke-width:4;stroke-miterlimit:10;stroke-dasharray:none" />
    <circle
       fill="#39bced"
       stroke="#008dd2"
       cx="215.8"
       cy="143.2"
       r="11.6"
       id="circle5832"
       style="stroke-width:4;stroke-miterlimit:10;stroke-dasharray:none" />
  </g>
  <g
     stroke-width="6"
     stroke-miterlimit="10"
     id="g5814"
     style="stroke-width:4;stroke-miterlimit:10;stroke-dasharray:none"
     transform="matrix(1,0,0,-1,0,311.89999)">
    <circle
       fill="#e6e7e8"
       stroke="#808285"
       cx="353.39999"
       cy="124.2"
       r="23.1"
       id="circle5808"
       style="stroke-width:4;stroke-miterlimit:10;stroke-dasharray:none" />
    <circle
       fill="#8967ac"
       stroke="#651c5f"
       cx="365"
       cy="124.2"
       r="11.6"
       id="circle5810"
       style="stroke-width:4;stroke-miterlimit:10;stroke-dasharray:none" />
    <circle
       fill="#f58235"
       stroke="#e76524"
       cx="341.89999"
       cy="124.2"
       r="11.6"
       id="circle5812"
       style="stroke-width:4;stroke-miterlimit:10;stroke-dasharray:none" />
  </g>
  <circle
     fill="#f58235"
     stroke="#e76524"
     stroke-width="6"
     stroke-miterlimit="10"
     cx="127.7"
     cy="-57.89999"
     r="11.6"
     id="circle5840"
     style="stroke-width:4;stroke-miterlimit:10;stroke-dasharray:none"
     transform="scale(1,-1)" />
  <g
     aria-label="A"
     id="text28280"
     style="font-size:44.271px;line-height:1.25;font-family:Sans;-inkscape-font-specification:'Sans, Normal';text-align:end;word-spacing:0px;text-anchor:end;opacity:0.525963;stroke-width:3.32034"
     transform="matrix(0.75856719,0,0,0.75856719,-97.447309,155.02485)">
    <path
       d="m 279.65133,15.830255 -2.3021,-7.5260704 h -11.51046 l -2.30209,7.5260704 h -7.21617 l 11.15629,-31.742307 h 8.19014 l 11.20056,31.742307 z m -6.19794,-20.4974734 q -0.22136,-0.752607 -0.57553,-1.903653 -0.35416,-1.151046 -0.70833,-2.346363 -0.35417,-1.1953166 -0.57553,-2.0807366 -0.22135,0.88542 -0.61979,2.2135496 -0.35417,1.283859 -0.70834,2.479176 -0.30989,1.151046 -0.48698,1.638027 l -2.25782,7.348986 h 8.23441 z"
       style="font-weight:bold;-inkscape-font-specification:'Sans Bold'"
       id="path28398" />
  </g>
  <g
     aria-label="B"
     id="text28280-6"
     style="font-size:44.271px;line-height:1.25;font-family:Sans;-inkscape-font-specification:'Sans, Normal';text-align:end;word-spacing:0px;text-anchor:end;opacity:0.525963;stroke-width:3.32034"
     transform="matrix(0.75856719,0,0,0.75856719,242.91932,75.598768)">
    <path
       d="m 346.37551,-17.681931 q 6.33075,0 9.56254,1.77084 3.23178,1.77084 3.23178,6.2422108 0,2.700531 -1.28386,4.559913 -1.23959,1.8593819 -3.58595,2.2578209 v 0.221355 q 1.59376,0.309897 2.87762,1.106775 1.28385,0.79687804 2.03646,2.30209204 0.75261,1.50521396 0.75261,3.98438996 0,4.294287 -3.09897,6.7291923 -3.09897,2.434905 -8.50003,2.434905 h -11.82036 v -31.609494 z m 0.75261,12.5286928 q 2.92188,0 4.02866,-0.929691 1.15105,-0.929691 1.15105,-2.700531 0,-1.8151108 -1.32813,-2.6119888 -1.32813,-0.796878 -4.20575,-0.796878 h -3.54168 v 7.0390888 z m -3.89585,5.31251994 V 8.3936877 h 4.38283 q 3.01043,0 4.20574,-1.151046 1.19532,-1.195317 1.19532,-3.143241 0,-1.77084 -1.23959,-2.833344 -1.19531,-1.10677496 -4.38283,-1.10677496 z"
       style="font-weight:bold;-inkscape-font-specification:'Sans Bold'"
       id="path28401" />
  </g>
  <g
     aria-label="C"
     id="text28280-6-4"
     style="font-size:44.271px;line-height:1.25;font-family:Sans;-inkscape-font-specification:'Sans, Normal';text-align:end;word-spacing:0px;text-anchor:end;opacity:0.525963;stroke-width:3.32034"
     transform="matrix(0.75856719,0,0,0.75856719,49.080997,326.71783)">
    <path
       d="m 353.71952,-84.819402 q -3.85158,0 -5.88804,2.877615 -2.03647,2.877614 -2.03647,7.880237 0,5.046894 1.85938,7.835967 1.90366,2.744802 6.06513,2.744802 1.94792,0 3.85158,-0.44271 1.94792,-0.44271 4.20574,-1.239588 v 5.622417 q -2.08073,0.841149 -4.1172,1.239588 -2.03647,0.398439 -4.55991,0.398439 -4.86981,0 -8.05733,-1.992195 -3.14324,-2.036466 -4.64845,-5.666688 -1.50521,-3.674493 -1.50521,-8.544303 0,-4.781268 1.72656,-8.45576 1.72657,-3.674493 5.00263,-5.75523 3.32032,-2.080737 8.10159,-2.080737 2.34636,0 4.69273,0.619794 2.39063,0.575523 4.55991,1.593756 l -2.16928,5.445333 q -1.77084,-0.841149 -3.58595,-1.460943 -1.77084,-0.619794 -3.49741,-0.619794 z"
       style="font-weight:bold;-inkscape-font-specification:'Sans Bold'"
       id="path28404" />
  </g>
</svg>
