<?xml version="1.0" encoding="UTF-8" standalone="no"?>
<svg
   xmlns:dc="http://purl.org/dc/elements/1.1/"
   xmlns:cc="http://creativecommons.org/ns#"
   xmlns:rdf="http://www.w3.org/1999/02/22-rdf-syntax-ns#"
   xmlns:svg="http://www.w3.org/2000/svg"
   xmlns="http://www.w3.org/2000/svg"
   xmlns:sodipodi="http://sodipodi.sourceforge.net/DTD/sodipodi-0.dtd"
   xmlns:inkscape="http://www.inkscape.org/namespaces/inkscape"
   viewBox="0 0 595.3 312"
   version="1.1"
   id="svg3545"
   sodipodi:docname="product.svg">
  <metadata
     id="metadata3551">
    <rdf:RDF>
      <cc:Work
         rdf:about="">
        <dc:format>image/svg+xml</dc:format>
        <dc:type
           rdf:resource="http://purl.org/dc/dcmitype/StillImage" />
      </cc:Work>
    </rdf:RDF>
  </metadata>
  <defs
     id="defs3549" />
  <sodipodi:namedview
     pagecolor="#ffffff"
     bordercolor="#666666"
     borderopacity="1"
     objecttolerance="10"
     gridtolerance="10"
     guidetolerance="10"
     inkscape:pageopacity="0"
     inkscape:pageshadow="2"
     inkscape:window-width="640"
     inkscape:window-height="480"
     id="namedview3547"
     showgrid="false" />
  <switch
     id="switch3543">
    <g
       id="g3541">
      <circle
         opacity=".14"
         stroke="#000"
         stroke-width="6"
         stroke-miterlimit="10"
         cx="320"
         cy="145.2"
         r="120.4"
         id="circle3453" />
      <circle
         fill="#CEE7CC"
         stroke="#808285"
         stroke-width="6"
         stroke-miterlimit="10"
         cx="311.1"
         cy="141.7"
         r="120.4"
         id="circle3455" />
      <circle
         opacity=".14"
         stroke="#000"
         stroke-width="6"
         stroke-miterlimit="10"
         cx="118.3"
         cy="218.2"
         r="72.4"
         id="circle3457" />
      <circle
         fill="#CAEBFC"
         stroke="#808285"
         stroke-width="6"
         stroke-miterlimit="10"
         cx="111.1"
         cy="213.6"
         r="72.4"
         id="circle3459" />
      <circle
         opacity=".14"
         stroke="#000"
         stroke-width="6"
         stroke-miterlimit="10"
         cx="482.6"
         cy="239.2"
         r="47.3"
         id="circle3461" />
      <circle
         fill="#F8F7CB"
         stroke="#808285"
         stroke-width="6"
         stroke-miterlimit="10"
         cx="478"
         cy="236.2"
         r="47.3"
         id="circle3463" />
      <circle
         fill="#8967AC"
         stroke="#651C5F"
         stroke-width="6"
         stroke-miterlimit="10"
         cx="477.4"
         cy="214.3"
         r="11.6"
         id="circle3465" />
      <circle
         fill="#F58235"
         stroke="#E76524"
         stroke-width="6"
         stroke-miterlimit="10"
         cx="482.7"
         cy="257.2"
         r="11.6"
         id="circle3467" />
      <circle
         fill="#39BCED"
         stroke="#008DD2"
         stroke-width="6"
         stroke-miterlimit="10"
         cx="75.2"
         cy="195.4"
         r="11.6"
         id="circle3469" />
      <circle
         fill="#54B948"
         stroke="#00873A"
         stroke-width="6"
         stroke-miterlimit="10"
         cx="120.2"
         cy="208.9"
         r="11.6"
         id="circle3471" />
      <g
         stroke-width="6"
         stroke-miterlimit="10"
         id="g3479">
        <circle
           fill="#E6E7E8"
           stroke="#808285"
           cx="279.8"
           cy="59.5"
           r="23.1"
           id="circle3473" />
        <circle
           fill="#8967AC"
           stroke="#651C5F"
           cx="291.8"
           cy="59.9"
           r="11.6"
           id="circle3475" />
        <circle
           fill="#39BCED"
           stroke="#008DD2"
           cx="268.7"
           cy="59.9"
           r="11.6"
           id="circle3477" />
      </g>
      <g
         stroke-width="6"
         stroke-miterlimit="10"
         id="g3487">
        <circle
           fill="#E6E7E8"
           stroke="#808285"
           cx="365"
           cy="66"
           r="23.1"
           id="circle3481" />
        <circle
           fill="#8967AC"
           stroke="#651C5F"
           cx="376.5"
           cy="67.1"
           r="11.6"
           id="circle3483" />
        <circle
           fill="#54B948"
           stroke="#00873A"
           cx="353.4"
           cy="66"
           r="11.6"
           id="circle3485" />
      </g>
      <g
         stroke-width="6"
         stroke-miterlimit="10"
         id="g3495">
        <circle
           fill="#E6E7E8"
           stroke="#808285"
           cx="270.8"
           cy="218.2"
           r="23.1"
           id="circle3489" />
        <circle
           fill="#F58235"
           stroke="#E76524"
           cx="282.3"
           cy="218.1"
           r="11.6"
           id="circle3491" />
        <circle
           fill="#F58235"
           stroke="#E76524"
           cx="259.8"
           cy="218.1"
           r="11.6"
           id="circle3493" />
      </g>
      <path
         fill="#7A8916"
         d="M250.9 140.6l2.7-.3c1.8-.2 4.4-.4 7.7-.7 6.6-.3 16.2-.8 27.5 0 11.4.8 24.6 2.5 38.5 6 13.8 3.5 28.2 8.6 41.8 15.4l5.1 2.6c1.7.8 3.3 1.9 5 2.8 3.3 1.8 6.5 3.9 9.6 5.9 6.3 4.1 12.6 8.2 18.6 12 12.1 7.7 23.4 14.9 32.2 22.1 8.9 7.2 15.3 14.2 19.3 19.4.4.4.7.8.9 1l.2.2-9.1 7.1c7.6 2.7 15.3 6.5 22.9 10.9 0-8.7-.5-17.8-2.2-27.1l-9.1 7.1-.2-.2c-.2-.2-.5-.6-.9-1.1-4.2-5.3-10.8-12.6-19.8-19.9-9-7.4-20.4-14.7-32.5-22.4-6.1-3.8-12.3-7.9-18.6-12-3.2-2-6.4-4.1-9.8-6-1.7-.9-3.3-2-5-2.8l-5.1-2.7c-13.8-6.9-28.5-12.1-42.5-15.7-14-3.6-27.5-5.3-39-6.1-11.6-.8-21.2-.3-28 0-3.4.3-6 .5-7.8.7-1.8.2-2.8.3-2.8.3l.4 3.5z"
         id="path3497" />
      <path
         fill="#7A8916"
         d="M356.2 189.7s1.7.3 4.7.8 7.3 1.4 12.4 2.6c10.2 2.4 23.6 6.8 36.2 12.6 3.2 1.4 6.3 3.1 9.3 4.6 1.5.8 3 1.7 4.5 2.5s2.9 1.6 4.3 2.5c5.6 3.5 10.6 6.9 14.7 10.1 1 .8 2 1.6 2.9 2.3.5.4.9.7 1.4 1.1.4.4.8.7 1.2 1.1 1.6 1.4 3 2.6 4.1 3.7.2.2.4.3.5.4l.2.2.2.2-8 8.4c7.9 1.6 16 4 24.1 7.6-.9-8.7-2.9-17.7-5.9-26.7l-8 8.4-.2-.2-.2-.2-.5-.5c-1.2-1-2.6-2.3-4.2-3.7-.4-.4-.8-.7-1.3-1.1-.5-.4-.9-.7-1.4-1.1l-3-2.4c-4.2-3.3-9.3-6.8-15-10.4-1.4-.9-2.9-1.7-4.4-2.5-1.5-.8-3-1.8-4.5-2.5-3.1-1.6-6.2-3.3-9.5-4.7-12.9-6-26.5-10.3-36.8-12.8-5.2-1.2-9.5-2.2-12.6-2.6-3.1-.5-4.8-.9-4.8-.9l-.4 3.2z"
         id="path3499" />
      <path
         fill="#7A8916"
         d="m 380.7,227.6 h 1.9 c 1.2,0 3,-0.1 5.2,-0.1 4.5,-0.1 11,-0.1 18.7,0.2 15.5,0.5 36.2,1.9 56.6,5.3 20.4,3.2 40.4,8.7 54.6,14.8 7.1,3 12.7,6.1 16.6,8.4 0.7,0.5 1.2,0.7 1.2,0.7 l -6.2,9.8 c 7.9,-0.2 16.1,0.6 24.5,3.3 -1.8,-8.6 -5.6,-17.4 -10.5,-25.6 l -6.2,9.8 c 0,0 -0.4,-0.3 -1.2,-0.8 -3.9,-2.4 -9.7,-5.6 -17,-8.6 -14.5,-6.2 -34.7,-11.8 -55.3,-15 -20.6,-3.4 -41.4,-4.9 -57,-5.3 -7.8,-0.2 -14.3,-0.2 -18.9,-0.2 -2.3,0 -4.1,0.1 -5.3,0.1 h -1.9 z M 461,135.9 c 0,0 1.6,0.4 4.4,1.2 1.4,0.4 3.1,0.9 5.1,1.4 1.9,0.6 4.1,1.3 6.5,2.1 9.5,3.2 22.1,8 33.4,15.2 5.7,3.4 10.8,7.7 15.4,11.9 1.1,1.1 2.2,2.2 3.2,3.3 0.5,0.5 1.1,1 1.5,1.6 0.5,0.6 0.9,1.1 1.4,1.7 0.9,1.1 1.8,2.2 2.7,3.2 0.9,1 1.6,2.1 2.3,3.1 0.7,1 1.4,2 2.1,2.9 0.6,0.9 1.2,1.9 1.7,2.7 1,1.7 2,3.2 2.7,4.5 0.3,0.7 0.5,1.1 0.5,1.1 l -10.2,5.5 c 1.7,1 3.5,2 5.3,3.1 1.7,1.1 3.4,2.3 5.1,3.6 l 2.6,1.9 2.5,2 c 1.7,1.4 3.3,2.8 5,4.2 0.4,-2.1 0.8,-4.3 1.2,-6.5 l 0.6,-3.3 0.4,-3.4 c 0.2,-2.3 0.5,-4.6 0.6,-6.9 0.1,-2.3 0.1,-4.7 0.1,-7.1 l -10.2,5.5 c 0,0 -0.2,-0.4 -0.6,-1.1 -0.7,-1.3 -1.7,-2.9 -2.8,-4.7 -0.6,-0.9 -1.1,-1.9 -1.8,-2.8 l -2.1,-3 c -0.8,-1 -1.5,-2.2 -2.4,-3.2 -0.9,-1.1 -1.8,-2.2 -2.8,-3.3 -0.5,-0.6 -1,-1.1 -1.4,-1.7 -0.5,-0.6 -1.1,-1.1 -1.6,-1.7 -1.1,-1.1 -2.2,-2.2 -3.3,-3.4 -4.7,-4.3 -10.1,-8.7 -15.9,-12.3 -11.6,-7.4 -24.4,-12.3 -34.1,-15.5 -2.4,-0.8 -4.7,-1.5 -6.6,-2.1 -2,-0.6 -3.7,-1 -5.2,-1.5 -2.9,-0.8 -4.5,-1.2 -4.5,-1.2 z"
         id="path3501" />
      <path
         fill="#7A8916"
         d="M305.5 64.1s3.5.4 9.7 1.1c6.2.8 15 1.8 25.5 3.6s22.7 4.2 35.5 7.9c1.6.5 3.2.9 4.8 1.4 1.6.5 3.2 1 4.8 1.6 3.3 1 6.5 2.3 9.8 3.4 6.5 2.6 13 5.4 19.2 8.7 6.2 3.4 12.2 7.1 17.7 11.3 5.5 4.2 10.5 8.8 15 13.7 4.4 4.9 8.1 10.1 11.3 15.2.7 1.3 1.5 2.6 2.2 3.9.4.6.7 1.3 1.1 1.9.3.7.6 1.3.9 1.9.6 1.3 1.2 2.5 1.8 3.8.5 1.3 1 2.5 1.5 3.7 4 9.8 5.8 18.5 7 24.5.2 1 .2 1.5.2 1.5l-11.4 1.9c1.3 1.5 2.7 3.1 4.1 4.7 1.3 1.6 2.6 3.3 3.8 5l1.9 2.6 1.8 2.7 3.6 5.5 3-5.9 1.5-3 1.3-3.1c.9-2.1 1.8-4.2 2.6-6.3.8-2.1 1.6-4.3 2.3-6.5l-11.4 1.9s-.1-.6-.2-1.6c-1.2-6.2-3.1-15-7.2-25.1-.5-1.3-1-2.5-1.6-3.8-.6-1.3-1.2-2.6-1.9-3.9-.3-.7-.6-1.3-1-2-.4-.6-.7-1.3-1.1-2-.7-1.3-1.5-2.7-2.3-4-3.3-5.3-7.1-10.6-11.7-15.7-4.6-5-9.8-9.8-15.4-14.1-5.7-4.3-11.8-8.1-18.2-11.5-6.4-3.4-13-6.3-19.5-8.9-3.3-1.2-6.6-2.5-9.9-3.5-1.6-.5-3.3-1.1-4.9-1.6-1.6-.5-3.3-1-4.9-1.4-12.9-3.7-25.2-6.1-35.8-7.9-10.6-1.8-19.5-2.9-25.7-3.7-6.2-.7-9.8-1.1-9.8-1.1v3.2z"
         id="path3503" />
      <path
         fill="#7A8916"
         d="M390.3 69.3s.6.1 1.7.4c1.1.3 2.8.6 4.9 1.1 4.2 1.1 10.2 2.9 17 5.8 6.9 2.9 14.5 7.1 22.1 12.5 3.8 2.7 7.5 5.8 11.1 9.1 1.7 1.7 3.6 3.4 5.2 5.2.8.9 1.7 1.8 2.5 2.7l2.4 2.8c.8.9 1.6 1.9 2.3 2.9.7 1 1.5 1.9 2.3 3 1.4 2 2.9 4 4.1 6.1 2.7 4.1 4.9 8.4 7 12.5 4 8.4 6.7 16.7 8.3 24 1.6 7.3 2.2 13.5 2.4 17.8 0 .9.1 1.4.1 1.4l-11.6.5c4.6 6.5 8.6 13.9 11.5 22.2 5.7-6.6 10.7-14.5 14.8-23.2l-11.6.5s0-.5-.1-1.4c-.2-4.5-.8-10.8-2.5-18.3s-4.5-16-8.5-24.7c-2.1-4.3-4.4-8.7-7.2-12.9-1.3-2.1-2.8-4.2-4.3-6.3-.7-1-1.5-2-2.3-3-.8-1-1.5-2-2.4-3l-2.5-2.9c-.8-1-1.7-1.9-2.6-2.8-1.7-1.9-3.6-3.6-5.4-5.4-3.7-3.4-7.5-6.6-11.4-9.3-7.8-5.6-15.7-9.9-22.7-12.9s-13.2-4.8-17.5-6c-2.2-.6-3.9-.9-5-1.2-1.2-.3-1.8-.4-1.8-.4l-.3 3.2z"
         id="path3505" />
      <g
         stroke-width="6"
         stroke-miterlimit="10"
         id="g3513">
        <circle
           fill="#E6E7E8"
           stroke="#808285"
           cx="353.4"
           cy="124.2"
           r="23.1"
           id="circle3507" />
        <circle
           fill="#8967AC"
           stroke="#651C5F"
           cx="365"
           cy="124.2"
           r="11.6"
           id="circle3509" />
        <circle
           fill="#F58235"
           stroke="#E76524"
           cx="341.9"
           cy="124.2"
           r="11.6"
           id="circle3511" />
      </g>
      <g
         stroke-width="6"
         stroke-miterlimit="10"
         id="g3521">
        <circle
           fill="#E6E7E8"
           stroke="#808285"
           cx="333.3"
           cy="188.2"
           r="23.1"
           id="circle3515" />
        <circle
           fill="#F58235"
           stroke="#E76524"
           cx="344.8"
           cy="188.2"
           r="11.6"
           id="circle3517" />
        <circle
           fill="#54B948"
           stroke="#00873A"
           cx="321.7"
           cy="188.2"
           r="11.6"
           id="circle3519" />
      </g>
      <path
         fill="#628DA0"
         d="M254.2 58.3s-.8.1-2.4.2c-1.6.2-3.8.3-6.7.7-5.8.7-14.1 1.9-23.8 4.1-9.8 2.2-21 5.5-32.7 10-11.7 4.4-23.7 10.2-35.3 16.9-5.7 3.4-11.4 6.9-16.8 10.7-5.4 3.7-10.5 7.7-15.3 11.7-9.5 8.1-17.8 16.5-24.1 24.3-6.3 7.8-10.9 14.9-13.8 20l-.3.6-.1.1c0 .1-.1.1-.1.2-.1.1-.1.2-.1.3l-.1.2-10.1-5.6c-.2 9.5.6 18.7 2.7 27.3 6.4-6.1 13.3-10.8 20.4-14.6l-10.1-5.6s0-.1.1-.2c0-.1.1-.2.1-.3 0-.1.1-.1.1-.2v-.1l.3-.6c2.8-5 7.2-11.9 13.5-19.5 6.2-7.7 14.3-15.9 23.7-23.9 4.7-3.9 9.7-7.9 15.1-11.6 5.3-3.8 10.9-7.3 16.5-10.6 11.4-6.6 23.3-12.3 34.8-16.7 11.5-4.4 22.6-7.7 32.2-9.9 9.6-2.2 17.8-3.4 23.5-4.1 2.9-.4 5.1-.5 6.6-.7 1.5-.1 2.4-.2 2.4-.2l-.2-2.9z"
         id="path3523" />
      <path
         fill="#628DA0"
         d="M202.7 143.6s-1.6.4-4.4 1c-2.8.7-6.9 1.6-11.7 2.9-9.7 2.4-22.5 5.9-35.2 9.6-12.7 3.7-25.4 7.7-34.8 10.9-4.7 1.6-8.6 3-11.4 4-.7.3-1.2.4-1.2.4l-4-10.8c-2.9 3.4-5.8 6.9-8.6 10.5-1.4 1.8-2.8 3.6-4 5.5-.6 1-1.3 1.9-1.8 3l-.4.8-.4.8c-.2.5-.4 1.1-.5 1.6.6-.2 1-.3 1.5-.3l.8-.1h.8c1 0 2.1.1 3.1.1 2.1.2 4.2.4 6.3.7 4.2.6 8.4 1.3 12.5 2.1l-4-10.8s.4-.2 1.1-.4c2.7-1 6.6-2.4 11.3-4 9.4-3.2 22-7.2 34.7-10.8 12.7-3.7 25.5-7.1 35.1-9.5l11.6-2.9c2.8-.7 4.4-1 4.4-1l-.8-3.3zM245.6 219.3s-5.6.9-14.1 2.3-19.8 3.2-31.1 5.3c-11.3 2.1-22.5 4.4-30.9 6.5-4.2 1.1-7.7 2-10.1 2.8-.4.1-.7.2-.9.3l-.2.1-3.5-11c-3.3 3.3-6.5 6.8-9.5 10.6-1.5 1.9-2.9 3.8-4.1 6-.3.5-.6 1-.8 1.6-.2.6-.5 1.1-.7 1.7-.2.6-.3 1.2-.5 1.7-.1.6-.1 1.2-.1 1.7 1.9-1.1 3.9-1.2 5.8-1.3 1.9 0 4 .2 5.9.5 3.9.6 7.9 1.5 11.8 2.6l-3.5-11s.1 0 .2-.1c.2-.1.5-.2.9-.3 2.4-.7 5.8-1.7 9.9-2.7 8.3-2.1 19.4-4.4 30.7-6.5 11.2-2.1 22.5-3.9 31-5.3s14.1-2.3 14.1-2.3l-.3-3.2z"
         id="path3525" />
      <g
         stroke-width="6"
         stroke-miterlimit="10"
         id="g3533">
        <circle
           fill="#E6E7E8"
           stroke="#808285"
           cx="227.4"
           cy="143.2"
           r="23.1"
           id="circle3527" />
        <circle
           fill="#F58235"
           stroke="#E76524"
           cx="238.9"
           cy="143.2"
           r="11.6"
           id="circle3529" />
        <circle
           fill="#39BCED"
           stroke="#008DD2"
           cx="215.8"
           cy="143.2"
           r="11.6"
           id="circle3531" />
      </g>
      <path
         fill="#628DA0"
         d="M308.5 186.6l-1.8-.3c-1.2-.2-2.9-.5-5.1-.8-4.4-.6-10.8-1.5-18.4-2.2-15.3-1.5-35.7-2.4-56.2-1.7-20.4.7-40.8 3.1-55.9 6-7.5 1.4-13.8 2.9-18.1 4.1-.9.2-1.3.4-1.3.4l-3.2-11.1c-3.4 3.2-6.6 6.6-9.7 10.2-1.5 1.8-3 3.7-4.3 5.6-.7 1-1.3 2-1.8 3.1s-.9 2.3-.9 3.4c.9-.6 1.9-.7 2.9-.8 1-.1 2 0 3 0 2 .1 4 .4 6 .8 4 .8 8 1.8 11.9 2.9l-3.2-11.1s.5-.1 1.3-.4c4.3-1.2 10.4-2.7 17.9-4.1 14.9-2.9 35.1-5.2 55.4-5.9 20.3-.8 40.6.1 55.7 1.6 7.6.7 13.9 1.6 18.3 2.2 2.2.3 3.9.6 5.1.8l1.8.3.6-3zM339.8 64.4s-1 .1-2.8.3c-.9.1-2.1.2-3.4.4-1.3.2-2.9.4-4.6.6-6.9.9-16.7 2.4-28.3 5-11.6 2.5-25.1 6.2-39.1 11.1-14 4.9-28.7 11.2-42.7 18.5-14.1 7.3-27.6 15.7-39.7 24.4-12.1 8.7-22.7 17.8-31.1 26.2-8.5 8.4-14.7 16.2-18.7 22l-.6.9c-.1.1-.1.2-.2.3-.1.1-.1.2-.1.2l-9.6-6.4c-.5 4.8-.8 9.6-.6 14.4.1 2.4.4 4.8.8 7.1.5 2.3 1.2 4.6 2.2 6.5 1.1-1.9 2.6-3.4 4.1-4.7 1.5-1.3 3.1-2.5 4.8-3.5 3.4-2.1 6.9-3.8 10.6-5.4L131 176s0-.1.1-.2c0-.1.1-.2.2-.3.2-.3.4-.5.6-.9 3.8-5.6 10-13.3 18.3-21.6s18.8-17.3 30.7-25.9c11.9-8.6 25.3-16.9 39.3-24.2 13.9-7.3 28.4-13.5 42.3-18.3 13.9-4.9 27.2-8.5 38.7-11 11.5-2.6 21.2-4 28.1-4.9 1.7-.2 3.2-.4 4.6-.6 1.3-.1 2.5-.3 3.4-.4 1.8-.2 2.8-.3 2.8-.3l-.3-3z"
         id="path3535" />
      <path
         fill="#628DA0"
         d="M327.4 124.5s-3.4.4-9.4 1c-6 .8-14.5 2-24.6 4.2-10.1 2.2-21.8 5.3-34 9.6-12.2 4.2-25 9.6-37.3 15.7-12.3 6.2-24.2 13.3-34.9 20.6-10.6 7.4-20 15.1-27.5 22.2-7.5 7.2-13.2 13.8-16.8 18.6-.6.8-.9 1.3-.9 1.3l-9.3-6.9c-1.5 9.4-2 18.8-.7 27.5 6.9-5.4 14.3-9.1 21.9-11.9l-9.3-6.9.9-1.2c3.6-4.7 9.1-11.2 16.5-18.2s16.7-14.6 27.2-21.9c10.5-7.2 22.3-14.3 34.5-20.4 12.2-6.1 24.8-11.4 36.9-15.6 12.1-4.2 23.7-7.3 33.7-9.5 10-2.2 18.5-3.4 24.4-4.2 5.9-.6 9.3-1 9.3-1l-.6-3z"
         id="path3537" />
      <circle
         fill="#F58235"
         stroke="#E76524"
         stroke-width="6"
         stroke-miterlimit="10"
         cx="127.7"
         cy="254"
         r="11.6"
         id="circle3539" />
    </g>
  </switch>
</svg>
