<?xml version="1.0" encoding="UTF-8" standalone="no"?>
<svg
   viewBox="0 0 595.3 200"
   version="1.1"
   id="svg6444"
   sodipodi:docname="products_morphisms.svg"
   width="595.29999"
   height="200"
   inkscape:version="1.2.2 (1:1.2.2+202305151914+b0a8486541)"
   xmlns:inkscape="http://www.inkscape.org/namespaces/inkscape"
   xmlns:sodipodi="http://sodipodi.sourceforge.net/DTD/sodipodi-0.dtd"
   xmlns="http://www.w3.org/2000/svg"
   xmlns:svg="http://www.w3.org/2000/svg">
  <defs
     id="defs6448" />
  <sodipodi:namedview
     id="namedview6446"
     pagecolor="#ffffff"
     bordercolor="#666666"
     borderopacity="1.0"
     inkscape:showpageshadow="2"
     inkscape:pageopacity="0.0"
     inkscape:pagecheckerboard="0"
     inkscape:deskcolor="#d1d1d1"
     showgrid="false"
     inkscape:zoom="2.1023899"
     inkscape:cx="993.63111"
     inkscape:cy="169.80675"
     inkscape:window-width="1080"
     inkscape:window-height="1864"
     inkscape:window-x="0"
     inkscape:window-y="0"
     inkscape:window-maximized="1"
     inkscape:current-layer="svg6444" />
  <switch
     id="switch6442">
    <g
       id="g6440"
       transform="matrix(0.66438656,0,0,0.66438656,84.695015,17.702027)">
      <circle
         opacity="0.14"
         stroke="#000000"
         stroke-width="6"
         stroke-miterlimit="10"
         cx="423.37628"
         cy="-194.51912"
         r="30.9"
         id="circle6392"
         transform="scale(1,-1)" />
      <circle
         opacity="0.14"
         stroke="#000000"
         stroke-width="6"
         stroke-miterlimit="10"
         cx="297.27628"
         cy="-112.91913"
         r="30.9"
         id="circle6394"
         transform="scale(1,-1)" />
      <circle
         fill="#cee7cc"
         stroke="#808285"
         stroke-width="6"
         stroke-miterlimit="10"
         cx="294.97629"
         cy="-113.81911"
         r="30.9"
         id="circle6396"
         transform="scale(1,-1)" />
      <circle
         opacity="0.14"
         stroke="#000000"
         stroke-width="6"
         stroke-miterlimit="10"
         cx="215.8763"
         cy="-44.819111"
         r="31.4"
         id="circle6398"
         transform="scale(1,-1)" />
      <circle
         fill="#caebfc"
         stroke="#808285"
         stroke-width="6"
         stroke-miterlimit="10"
         cx="211.77629"
         cy="-46.819111"
         r="31.4"
         id="circle6400"
         transform="scale(1,-1)" />
      <circle
         opacity="0.14"
         stroke="#000000"
         stroke-width="6"
         stroke-miterlimit="10"
         cx="379.67627"
         cy="-47.819111"
         r="32.099998"
         id="circle6402"
         transform="scale(1,-1)" />
      <circle
         fill="#f8f7cb"
         stroke="#808285"
         stroke-width="6"
         stroke-miterlimit="10"
         cx="376.47629"
         cy="-49.819111"
         r="32.099998"
         id="circle6404"
         transform="scale(1,-1)" />
      <path
         fill="#e0f3fd"
         d="m 293.77628,193.71911 c 0,0 -1.5,-1.2 -4.1,-3.3 -1.3,-1 -2.9,-2.3 -4.6,-3.8 -1.7,-1.5 -3.8,-3.2 -5.8,-5.1 -8.5,-7.6 -19,-18.7 -28.3,-30.7 -9.3,-12 -17.3,-25 -22.6,-35.1 -1.4,-2.5 -2.5,-4.9 -3.5,-6.9 -1,-2.1 -1.9,-3.9 -2.6,-5.4 -0.3,-0.7 -0.5,-1.2 -0.5,-1.2 l -10.5,4.8 c 0.2,-2.3 0.4,-4.5 0.6,-6.8 l 0.8,-6.699998 0.4,-3.299997 0.6,-3.3 1.2,-6.5 5,4.2 2.5,2.1 2.6,2 5.1,3.899997 c 1.7,1.2 3.5,2.4 5.2,3.6 l -10.5,4.799998 c 0,0 0.2,0.4 0.5,1.1 0.6,1.5 1.5,3.3 2.5,5.3 1,2 2.1,4.4 3.5,6.8 5.2,10 13.1,22.8 22.3,34.7 9.2,11.9 19.6,22.8 28,30.3 2.1,1.9 4.1,3.6 5.8,5.1 1.7,1.5 3.3,2.7 4.6,3.8 2.6,2.1 4,3.2 4,3.2 z"
         id="path6406" />
      <path
         fill="#dfeaa8"
         d="m 346.17628,190.51911 c 0,0 0.8,-1.2 2.3,-3.4 1.4,-2.2 3.5,-5.3 5.7,-9.1 4.5,-7.7 10,-18.3 13.7,-29.5 0.5,-1.4 0.9,-2.8 1.3,-4.2 0.4,-1.4 0.8,-2.8 1.1,-4.2 0.4,-1.4 0.5,-2.8 0.8,-4.2 l 0.6,-4.2 c 0.6,-5.5 0.9,-10.7 0.9,-15.1 0.1,-4.5 -0.1,-8.2 -0.2,-10.8 0,-0.8 -0.1,-1.2 -0.1,-1.2 l -11.6,0.5 c 4.1,-7.399998 7.8,-15.399995 11.5,-23.299995 5,7.2 10,14.399997 14.8,22.199995 l -11.6,0.5 c 0,0 0,0.4 0.1,1.2 0.1,2.6 0.2,6.4 0.2,10.9 -0.1,4.5 -0.3,9.8 -1,15.5 -0.1,1.4 -0.4,2.8 -0.6,4.3 -0.3,1.5 -0.5,2.9 -0.9,4.4 -0.3,1.5 -0.7,2.9 -1.1,4.4 -0.4,1.5 -0.9,2.9 -1.3,4.4 -3.8,11.5 -9.4,22.3 -14,30.1 -2.3,3.9 -4.3,7.1 -5.8,9.3 -1.5,2.2 -2.4,3.4 -2.4,3.4 z"
         id="path6408" />
      <circle
         opacity="0.14"
         stroke="#000000"
         stroke-width="6"
         stroke-miterlimit="10"
         cx="216.97629"
         cy="-201.41911"
         r="30.9"
         id="circle6410"
         transform="scale(1,-1)" />
      <path
         fill="#e0f3fd"
         d="m 202.47628,174.21911 c 0,0 -0.1,-1.2 -0.3,-3.2 -0.2,-2 -0.5,-4.9 -0.7,-8.4 -0.5,-7 -1,-16.3 -0.9,-25.6 0,-9.3 0.5,-18.7 1,-25.6 0.3,-3.5 0.6,-6.4 0.8,-8.4 0.1,-0.7 0.1,-1.1 0.1,-1.1 l -11.5,-1.3 c 5.3,-7.399998 10.8,-14.399995 16.7,-20.999995 2.7,8.3 5.9,16.299997 9.5,23.999995 l -11.5,-1.3 c 0,0 0,0.4 -0.1,1.1 -0.2,2 -0.5,4.9 -0.8,8.3 -0.6,6.9 -1,16.1 -1,25.4 0,9.2 0.4,18.5 0.9,25.4 0.3,3.5 0.5,6.3 0.7,8.3 0.2,2 0.3,3.2 0.3,3.2 z"
         id="path6412" />
      <path
         fill="#dfeaa8"
         d="m 241.07628,189.11911 c 0,0 2.2,-1 5.9,-2.7 3.8,-1.8 9.1,-4.2 15.5,-7.3 12.8,-6.2 29.7,-14.8 45.1,-25.7 7.7,-5.4 15,-11.4 21.3,-17.5 3.2,-3 6,-6.2 8.6,-9.3 2.6,-3.1 4.8,-6.2 6.8,-9.1 4,-5.8 6.9,-10.9 8.9,-14.5 l 0.6,-1.2 -10.2,-5.499998 c 7.2,-4.1 14.3,-8.999997 21.2,-14.399997 1.3,8.7 2,17.599997 2,26.899995 l -10.2,-5.5 -0.6,1.2 c -2,3.7 -5,8.9 -9.1,14.8 -2,3 -4.4,6.1 -7,9.3 -2.6,3.2 -5.6,6.5 -8.8,9.5 -6.4,6.3 -13.9,12.4 -21.7,17.8 -15.7,11 -32.7,19.7 -45.6,25.9 -6.4,3.1 -11.8,5.6 -15.6,7.4 -3.8,1.7 -5.9,2.7 -5.9,2.7 z m 181.7,-22.3 c 0,0 -0.3,-1.1 -0.7,-3.1 -0.4,-2 -1.1,-4.8 -2,-8.1 -1.7,-6.7 -4.2,-15.6 -7.2,-24.4 -2.9,-8.8 -6.3,-17.4 -9,-23.8 -1.3,-3.2 -2.6,-5.8 -3.4,-7.699998 l -0.5,-1 -10.5,4.899998 c 0.9,-8.399998 1.5,-16.999995 1.5,-25.799995 7.6,4.4 15.1,9.3 22.4,14.699997 l -10.5,4.9 0.5,1 c 0.8,1.899998 2.1,4.499998 3.4,7.699998 2.8,6.4 6.1,15.1 9.1,24 3,8.8 5.5,17.8 7.2,24.6 0.8,3.4 1.5,6.2 2,8.2 0.5,2 0.7,3.1 0.7,3.1 z"
         id="path6414" />
      <path
         fill="#e0f3fd"
         d="m 391.07628,192.11911 c 0,0 -3.1,-0.2 -8.4,-0.4 -1.3,0 -2.8,-0.2 -4.4,-0.4 -1.6,-0.2 -3.4,-0.3 -5.2,-0.5 -1.9,-0.1 -3.8,-0.5 -5.9,-0.8 -1,-0.2 -2.1,-0.3 -3.2,-0.5 -1.1,-0.2 -2.2,-0.3 -3.3,-0.6 -9.1,-1.6 -19.5,-4.3 -30.3,-8.3 -10.8,-4 -21.9,-9.4 -32.2,-16.1 -10.3,-6.7 -19.9,-14.5 -27.9,-22.8 -4.1,-4.1 -7.7,-8.3 -11.1,-12.4 -3.3,-4.2 -6.3,-8.2 -8.8,-12 -5.1,-7.7 -8.7,-14.5 -10.9,-19.399998 -0.4,-0.9 -0.6,-1.4 -0.6,-1.4 l -10.6,4.699998 c 0.3,-4.799998 0.8,-9.399998 1.6,-13.899995 0.8,-4.5 1.9,-9 3.5,-13.1 2.8,3.4 5.9,6.3 9,9 3.1,2.7 6.6,5.1 9.9,7.3 l -10.5,4.699997 c 0,0 0.2,0.5 0.6,1.3 2.2,4.799998 5.7,11.499998 10.7,18.999998 2.5,3.8 5.4,7.7 8.6,11.8 3.3,4 6.8,8.2 10.8,12.2 7.9,8.1 17.3,15.8 27.4,22.3 10.1,6.6 21,11.9 31.6,15.8 10.6,3.9 20.9,6.6 29.8,8.1 l 3.3,0.6 c 1.1,0.2 2.1,0.3 3.1,0.5 2,0.3 4,0.6 5.8,0.8 1.8,0.2 3.5,0.4 5.1,0.5 1.6,0.2 3,0.3 4.4,0.4 5.3,0.3 8.3,0.4 8.3,0.4 z"
         id="path6416" />
      <path
         fill="#dfeaa8"
         d="m 422.77628,166.91911 c 0,0 -0.3,-1.1 -0.7,-3.1 -0.4,-2 -1.1,-4.8 -2,-8.1 -1.7,-6.7 -4.2,-15.6 -7.2,-24.4 -2.9,-8.8 -6.3,-17.4 -9,-23.8 -1.3,-3.2 -2.6,-5.8 -3.4,-7.699998 l -0.5,-1 -10.5,4.899998 c 0.9,-8.399998 1.5,-16.999995 1.5,-25.799995 7.6,4.4 15.1,9.3 22.4,14.699997 l -10.5,4.9 0.5,1 c 0.8,1.899998 2.1,4.499998 3.4,7.699998 2.8,6.4 6.1,15.1 9.1,24 3,8.8 5.5,17.8 7.2,24.6 0.8,3.4 1.5,6.2 2,8.2 0.5,2 0.7,3.1 0.7,3.1 z"
         id="path6418" />
      <path
         fill="#808285"
         d="m 263.67628,105.41911 c -6.9,-3.2 -13.2,-7.499998 -18.7,-12.699998 l -0.7,-0.6 -8,8.299998 c 0,0 -0.7,-1.799998 -1.5,-4.399998 -0.8,-2.6 -1.7,-6.199997 -2.3,-9.899997 -0.6,-3.7 -0.6,-7.4 -0.1,-10.1 0.2,-1.3 0.5,-2.3 0.8,-3 0.3,-0.7 0.4,-1.1 0.4,-1.1 0,0 0.3,0.3 0.7,0.9 0.5,0.5 1.1,1.2 2,2 1.8,1.5 4.3,2.9 7,3.8 2.7,1 5.5,1.7 7.7,2.2 2.1,0.5 3.5,0.6 3.5,0.6 l -8,8.3 0.7,0.6 c 5.3,4.899997 11.3,9.099997 17.9,12.099995 z"
         id="path6424" />
      <circle
         fill="#caebfc"
         stroke="#bcbec0"
         stroke-width="6"
         stroke-miterlimit="10"
         cx="213.67628"
         cy="-203.31911"
         r="30.9"
         id="circle6426"
         transform="scale(1,-1)" />
      <ellipse
         fill="#e8cae1"
         stroke="#bcbec0"
         stroke-width="6"
         stroke-miterlimit="10"
         cx="420.87628"
         cy="-195.7191"
         rx="30.1"
         ry="30.9"
         id="ellipse6428"
         transform="scale(1,-1)" />
      <path
         fill="#808285"
         d="m 324.47628,102.81911 c 5.2,-2.899998 9.9,-6.799998 13.8,-11.299998 l 0.6,-0.7 -8.9,-7.399997 c 0,0 0.3,-0.1 0.9,-0.2 0.6,-0.1 1.4,-0.4 2.4,-0.7 2,-0.6 4.7,-1.7 7.3,-3.2 2.6,-1.4 5.2,-3.2 7,-4.8 1,-0.8 1.7,-1.4 2.2,-1.9 l 0.8,-0.8 c 0,0 0.1,0.4 0.3,1.1 0.2,0.7 0.4,1.7 0.6,3 0.5,2.5 0.8,6 0.7,9.6 0,3.6 -0.5,7.299997 -1,10.099997 -0.3,1.4 -0.5,2.6 -0.7,3.4 -0.2,0.8 -0.3,1.299998 -0.3,1.299998 l -8.9,-7.399998 -0.6,0.7 c -4.2,4.8 -9.1,8.899998 -14.7,11.999998 z"
         id="path6432" />
      <circle
         opacity="0.14"
         stroke="#000000"
         stroke-width="6"
         stroke-miterlimit="10"
         cx="324.67627"
         cy="-210.61911"
         r="30.9"
         id="circle6434"
         transform="scale(1,-1)" />
      <circle
         fill="#e2f3f0"
         stroke="#bcbec0"
         stroke-width="6"
         stroke-miterlimit="10"
         cx="321.37628"
         cy="-211.61911"
         r="30.9"
         id="circle6436"
         transform="scale(1,-1)" />
      <path
         fill="#d1d3d4"
         d="m 234.67628,175.61911 1.2,-0.6 c 0.8,-0.4 1.8,-1 3.1,-1.7 2.5,-1.5 5.8,-3.6 8.9,-6 3.1,-2.4 6.1,-4.9 8.2,-6.9 1.1,-1 1.9,-1.9 2.5,-2.5 0.4,-0.5 0.7,-0.7 0.7,-0.7 l -8.3,-8 c 7.8,-1.7 15.6,-4.6 23.3,-8.9 -0.1,8.7 -1.5,18 -4.4,27.2 l -8.3,-8 -0.7,0.7 -2.6,2.6 c -2.2,2.1 -5.3,4.7 -8.5,7.2 -3.2,2.4 -6.6,4.7 -9.2,6.2 -1.3,0.8 -2.4,1.4 -3.2,1.8 -0.8,0.4 -1.2,0.7 -1.2,0.7 z m 78.7,4.1 c -0.4,-3.9 -0.9,-7.8 -1.7,-11.7 l -0.2,-0.9 -11.3,2.4 c 0,0 0.6,-1.4 1.3,-3.5 0.8,-2.2 1.7,-5.1 2.4,-8.2 1.5,-6.1 2.2,-12.7 2.2,-12.7 0,0 0.3,0.2 0.9,0.7 0.6,0.4 1.4,1.1 2.4,1.8 2,1.6 4.5,3.7 7,6.1 5,4.7 9.5,10.3 9.5,10.3 l -11.3,2.4 0.2,0.9 c 0.8,4 1.4,8 1.7,12 z m 80.8,-1.1 c 0,0 -1,-0.2 -2.7,-0.6 -0.9,-0.2 -1.9,-0.4 -3.1,-0.7 -1.2,-0.3 -2.5,-0.6 -4,-1 -5.8,-1.5 -13.4,-4 -20.7,-7.1 -7.3,-3.1 -14.4,-6.9 -19.5,-10.1 -2.5,-1.6 -4.7,-2.9 -6.1,-3.9 l -0.9,-0.6 -6.6,9.5 c -4.3,-8.3 -7.8,-16.7 -10.3,-25.1 8.5,2 17,3.1 25.2,3.4 l -6.5,9.5 0.9,0.6 c 1.4,1 3.5,2.3 6,3.8 5,3.1 11.9,6.8 19.1,9.8 7.2,3.1 14.6,5.5 20.3,7 1.4,0.4 2.7,0.7 3.9,1 1.2,0.3 2.2,0.5 3,0.7 1.7,0.4 2.6,0.6 2.6,0.6 z"
         id="path6438"
         sodipodi:nodetypes="cscscccccccccccscccccccccccccccccccscscccccccccccsccc"
         style="fill:#4d4d4d" />
    </g>
    <circle
       stroke-miterlimit="10"
       cx="289.43915"
       cy="153.18948"
       r="8.3087139"
       id="circle7605"
       style="opacity:0.99;fill:#caebfc;stroke:#9d9fa2;stroke-width:4.18927;stroke-miterlimit:10" />
    <circle
       stroke-miterlimit="10"
       cx="306.1962"
       cy="153.67819"
       r="8.518177"
       id="circle7607"
       style="opacity:0.99;fill:#f8f7cb;stroke:#9d9fa2;stroke-width:4.18927;stroke-miterlimit:10" />
    <circle
       stroke-miterlimit="10"
       cx="297.25912"
       cy="168.06137"
       r="8.518177"
       id="circle7609"
       style="opacity:0.99;fill:#f7a8b3;stroke:#9d9fa2;stroke-width:4.18927;stroke-miterlimit:10" />
    <circle
       stroke-miterlimit="10"
       cx="271.72748"
       cy="92.473526"
       r="9.2936897"
       id="circle7617"
       style="fill:#caebfc;stroke:#808285;stroke-width:3.71748;stroke-miterlimit:10" />
    <circle
       stroke-miterlimit="10"
       cx="290.62463"
       cy="93.093155"
       r="9.541522"
       id="circle7619"
       style="fill:#f8f7cb;stroke:#808285;stroke-width:3.71748;stroke-miterlimit:10" />
    <circle
       fill="#caebfc"
       stroke="#808285"
       stroke-width="3.32237"
       stroke-miterlimit="10"
       cx="269.84625"
       cy="-94.076721"
       r="10.02922"
       id="circle6400-6-5"
       transform="scale(1,-1)"
       style="stroke-width:2.78431;stroke-dasharray:none" />
    <circle
       fill="#f8f7cb"
       stroke="#808285"
       stroke-width="3.32237"
       stroke-miterlimit="10"
       cx="290.80231"
       cy="-93.60466"
       r="10.252803"
       id="circle6404-7-3"
       transform="scale(1,-1)"
       style="stroke-width:2.78431;stroke-dasharray:none" />
    <circle
       fill="#caebfc"
       stroke="#808285"
       stroke-width="3.32237"
       stroke-miterlimit="10"
       cx="270.25146"
       cy="-92.258316"
       r="9.1970272"
       id="circle6400-6-5-5"
       transform="scale(1,-1)"
       style="stroke-width:2.55328;stroke-dasharray:none" />
    <circle
       fill="#f8f7cb"
       stroke="#808285"
       stroke-width="3.32237"
       stroke-miterlimit="10"
       cx="289.46863"
       cy="-91.825424"
       r="9.4020586"
       id="circle6404-7-3-6"
       transform="scale(1,-1)"
       style="stroke-width:2.55328;stroke-dasharray:none" />
    <g
       id="g4828"
       transform="translate(-9.7520872,-59.956753)">
      <path
         style="fill:#caebfc;fill-opacity:1;stroke:#808285;stroke-width:2.454;stroke-linecap:butt;stroke-linejoin:miter;stroke-dasharray:none;stroke-opacity:1"
         d="m 289.34575,162.73335 c -5.90355,0 -10.21983,-4.46432 -10.21983,-10.8797 0,-5.85789 4.74056,-9.87531 10.27218,-9.87531 0,3.51529 -0.0523,20.75501 -0.0523,20.75501 z"
         id="path3058"
         sodipodi:nodetypes="cscc" />
      <path
         d="m 290.30591,162.73973 c 5.90356,0 10.21984,-4.46431 10.21984,-10.87971 0,-5.85789 -4.74056,-9.8753 -10.27218,-9.8753 0,3.51528 0.0523,20.75501 0.0523,20.75501 z"
         style="fill:#f8f7cb;fill-opacity:1;stroke:#808285;stroke-width:2.454;stroke-linecap:butt;stroke-linejoin:miter;stroke-dasharray:none;stroke-opacity:1"
         id="path3958" />
    </g>
  </switch>
  <circle
     stroke-miterlimit="10"
     cx="270.54214"
     cy="93.743698"
     r="9.2936897"
     id="circle7617-3"
     style="fill:#caebfc;stroke:#808285;stroke-width:3.71748;stroke-miterlimit:10" />
  <circle
     stroke-miterlimit="10"
     cx="289.4393"
     cy="93.348801"
     r="9.541522"
     id="circle7619-6"
     style="fill:#f8f7cb;stroke:#808285;stroke-width:3.71748;stroke-miterlimit:10" />
</svg>
