<?xml version="1.0" encoding="UTF-8" standalone="no"?>
<svg
   viewBox="0 0 595.3 200"
   version="1.1"
   id="svg6444"
   sodipodi:docname="product_universal_property.svg"
   width="595.29999"
   height="200"
   inkscape:version="1.2.2 (1:1.2.2+202305151914+b0a8486541)"
   xmlns:inkscape="http://www.inkscape.org/namespaces/inkscape"
   xmlns:sodipodi="http://sodipodi.sourceforge.net/DTD/sodipodi-0.dtd"
   xmlns="http://www.w3.org/2000/svg"
   xmlns:svg="http://www.w3.org/2000/svg">
  <defs
     id="defs6448" />
  <sodipodi:namedview
     id="namedview6446"
     pagecolor="#ffffff"
     bordercolor="#666666"
     borderopacity="1.0"
     inkscape:showpageshadow="2"
     inkscape:pageopacity="0.0"
     inkscape:pagecheckerboard="0"
     inkscape:deskcolor="#d1d1d1"
     showgrid="false"
     inkscape:zoom="2.1023899"
     inkscape:cx="253.99665"
     inkscape:cy="204.05349"
     inkscape:window-width="1080"
     inkscape:window-height="1864"
     inkscape:window-x="0"
     inkscape:window-y="0"
     inkscape:window-maximized="1"
     inkscape:current-layer="switch6442" />
  <switch
     id="switch6442">
    <g
       id="g6440"
       transform="matrix(0.66438656,0,0,0.66438656,84.695015,17.702027)">
      <circle
         opacity="0.14"
         stroke="#000000"
         stroke-width="6"
         stroke-miterlimit="10"
         cx="297.27628"
         cy="-112.91913"
         r="30.9"
         id="circle6394"
         transform="scale(1,-1)" />
      <circle
         fill="#cee7cc"
         stroke="#808285"
         stroke-width="6"
         stroke-miterlimit="10"
         cx="294.97629"
         cy="-113.81911"
         r="30.9"
         id="circle6396"
         transform="scale(1,-1)" />
      <circle
         opacity="0.14"
         stroke="#000000"
         stroke-width="6"
         stroke-miterlimit="10"
         cx="200.95819"
         cy="-42.377705"
         r="31.4"
         id="circle6398"
         transform="scale(1,-1)" />
      <circle
         fill="#caebfc"
         stroke="#808285"
         stroke-width="6"
         stroke-miterlimit="10"
         cx="200.5217"
         cy="-38.272789"
         r="31.4"
         id="circle6400"
         transform="scale(1,-1)" />
      <circle
         opacity="0.14"
         stroke="#000000"
         stroke-width="6"
         stroke-miterlimit="10"
         cx="397.34338"
         cy="-44.288982"
         r="32.099998"
         id="circle6402"
         transform="scale(1,-1)" />
      <circle
         fill="#f8f7cb"
         stroke="#808285"
         stroke-width="6"
         stroke-miterlimit="10"
         cx="388.64816"
         cy="-36.82259"
         r="32.099998"
         id="circle6404"
         transform="scale(1,-1)" />
      <path
         fill="#e0f3fd"
         d="m 274.82764,203.68513 c 0,0 -1.30483,-1.40976 -3.56356,-3.87312 -1.1368,-1.18223 -2.52565,-2.70575 -3.98363,-4.44192 -1.45798,-1.73617 -3.28177,-3.72961 -4.97692,-5.90595 -7.27505,-8.77973 -16.00726,-21.31801 -23.41897,-34.56779 -7.4117,-13.24978 -13.38912,-27.29508 -17.12792,-38.07104 -1.01258,-2.68043 -1.74337,-5.21734 -2.43478,-7.34383 -0.67652,-2.22538 -1.29878,-4.13923 -1.76789,-5.72666 -0.19255,-0.73683 -0.31595,-1.26102 -0.31595,-1.26102 l -11.09715,3.18486 c 0.53987,-2.24466 1.06487,-4.39045 1.60474,-6.635106 l 1.78765,-6.506488 0.88638,-3.203793 1.08416,-3.17405 2.15345,-6.249213 4.31968,4.89697 2.15985,2.448485 2.2736,2.364472 4.46319,4.615176 c 1.50261,1.439506 3.1041,2.893881 4.60671,4.333391 l -11.09715,3.184856 c 0,0 0.13828,0.4253 0.33083,1.16214 0.37022,1.57255 0.99248,3.4864 1.68388,5.61289 0.6914,2.12649 1.4222,4.6634 2.44965,7.24494 3.65478,10.6622 9.56307,24.49485 16.89076,37.63087 7.32768,13.13602 15.99076,25.46165 23.18179,34.12762 1.79404,2.19122 3.51894,4.16978 4.97692,5.90595 1.45799,1.73617 2.8617,3.1608 3.98363,4.44192 2.25873,2.46336 3.47955,3.75936 3.47955,3.75936 z"
         id="path6406" />
      <path
         fill="#e0f3fd"
         d="m 312.6578,208.87693 c 0,0 1.30483,-1.40976 3.56356,-3.87312 1.1368,-1.18223 2.52565,-2.70575 3.98363,-4.44192 1.45798,-1.73617 3.28177,-3.72961 4.97692,-5.90595 7.27505,-8.77973 16.00726,-21.31801 23.41897,-34.56779 7.4117,-13.24978 13.38912,-27.29508 17.12792,-38.07104 1.01258,-2.68043 1.74337,-5.21734 2.43478,-7.34383 0.67652,-2.22538 1.29878,-4.13923 1.76789,-5.72666 0.19255,-0.73683 0.31595,-1.26102 0.31595,-1.26102 l 11.09715,3.18486 c -0.53987,-2.24466 -1.06487,-4.39045 -1.60474,-6.63511 l -1.78765,-6.506495 -0.88638,-3.20379 -1.08416,-3.17405 -2.15345,-6.249212 -4.31968,4.896972 -2.15985,2.44848 -2.2736,2.36447 -4.46319,4.61518 c -1.50261,1.439515 -3.1041,2.893885 -4.60671,4.333395 l 11.09715,3.18486 c 0,0 -0.13828,0.4253 -0.33083,1.16214 -0.37022,1.57255 -0.99248,3.4864 -1.68388,5.61289 -0.6914,2.12649 -1.4222,4.6634 -2.44965,7.24494 -3.65478,10.6622 -9.56307,24.49485 -16.89076,37.63087 -7.32768,13.13602 -15.99076,25.46165 -23.18179,34.12762 -1.79404,2.19122 -3.51894,4.16978 -4.97692,5.90595 -1.45799,1.73617 -2.8617,3.1608 -3.98363,4.44192 -2.25873,2.46336 -3.47955,3.75936 -3.47955,3.75936 z"
         id="path6406-3" />
      <path
         fill="#808285"
         d="m 267.33699,101.75561 c -6.9,-3.200005 -25.1078,-16.353952 -30.6078,-21.553952 l -0.7,-0.6 -8,8.299998 c 0,0 -0.7,-1.799998 -1.5,-4.399998 -0.8,-2.6 -1.7,-6.199997 -2.3,-9.899997 -0.6,-3.7 -0.6,-7.4 -0.1,-10.1 0.2,-1.3 0.5,-2.3 0.8,-3 0.3,-0.7 0.4,-1.1 0.4,-1.1 0,0 0.3,0.3 0.7,0.9 0.5,0.5 1.1,1.2 2,2 1.8,1.5 4.3,2.9 7,3.8 2.7,1 5.5,1.7 7.7,2.2 2.1,0.5 3.5,0.6 3.5,0.6 l -8,8.3 0.7,0.6 c 5.3,4.899997 23.2078,17.953942 29.8078,20.953944 z"
         id="path6424"
         sodipodi:nodetypes="ccccsscscccccccccc" />
      <path
         fill="#808285"
         d="m 321.30186,100.40541 c 6.9,-3.200009 25.1078,-16.353952 30.6078,-21.553952 l 0.7,-0.6 8,8.299998 c 0,0 0.7,-1.799998 1.5,-4.399998 0.8,-2.6 1.7,-6.199997 2.3,-9.899997 0.6,-3.7 0.6,-7.4 0.1,-10.1 -0.2,-1.3 -0.5,-2.3 -0.8,-3 -0.3,-0.7 -0.4,-1.1 -0.4,-1.1 0,0 -0.3,0.3 -0.7,0.9 -0.5,0.5 -1.1,1.2 -2,2 -1.8,1.5 -4.3,2.9 -7,3.8 -2.7,1 -5.5,1.7 -7.7,2.2 -2.1,0.5 -3.5,0.6 -3.5,0.6 l 8,8.3 -0.7,0.6 c -5.3,4.899997 -23.2078,17.953942 -29.8078,20.95394 z"
         id="path6424-1"
         sodipodi:nodetypes="ccccsscscccccccccc" />
      <circle
         opacity="0.14"
         stroke="#000000"
         stroke-width="6"
         stroke-miterlimit="10"
         cx="333.61572"
         cy="-182.04848"
         r="30.9"
         id="circle6434"
         transform="matrix(0.98776489,0.15595039,0.15595039,-0.98776489,0,0)" />
      <circle
         fill="#e2f3f0"
         stroke="#bcbec0"
         stroke-width="6"
         stroke-miterlimit="10"
         cx="325.96188"
         cy="-178.96332"
         r="30.9"
         id="circle6436"
         transform="matrix(0.98776489,0.15595039,0.15595039,-0.98776489,0,0)" />
      <path
         fill="#d1d3d4"
         d="m 294.80061,193.54386 c 0.21311,-3.91467 0.32743,-16.87582 0.14542,-20.85285 l -0.0572,-0.92019 -11.53602,0.6084 c 0,0 0.81098,-1.2893 1.82991,-3.25444 1.1333,-2.04832 2.47455,-4.77249 3.64944,-7.72539 2.43294,-5.79145 4.15364,-12.20153 4.15364,-12.20153 0,0 0.26515,0.24434 0.77983,0.83179 0.53028,0.48868 1.21132,1.30488 2.08992,2.15226 1.72601,1.89233 3.86793,4.35651 5.96306,7.11702 4.20585,5.42225 7.77748,11.6555 7.77748,11.6555 l -11.53603,0.60841 0.0572,0.92017 c 0.16641,4.07582 0.13527,17.15135 -0.1922,21.14919 z"
         id="path6438"
         sodipodi:nodetypes="ccccccccccccccc"
         style="fill:#4d4d4d" />
      <g
         aria-label="b∘i"
         id="text2361"
         style="font-size:40px;line-height:1.25;word-spacing:0px;fill:#808080"
         transform="matrix(0.47617649,0,0,0.47617649,264.56825,63.038633)">
        <path
           d="m 201.77032,213.77037 q 2.2461,0 3.41797,-1.64062 1.19141,-1.64063 1.19141,-4.76563 0,-3.125 -1.19141,-4.76562 -1.17187,-1.64063 -3.41797,-1.64063 -2.24609,0 -3.45703,1.66016 -1.1914,1.64062 -1.1914,4.74609 0,3.10547 1.1914,4.76563 1.21094,1.64062 3.45703,1.64062 z m -4.64843,-14.16016 q 1.44531,-1.91406 3.20312,-2.8125 1.75781,-0.91796 4.04297,-0.91796 4.04297,0 6.64063,3.22265 2.59765,3.20313 2.59765,8.26172 0,5.05859 -2.59765,8.28125 -2.59766,3.20313 -6.64063,3.20313 -2.28516,0 -4.04297,-0.89844 -1.75781,-0.91797 -3.20312,-2.83203 v 3.16406 h -6.99219 v -30.39063 h 6.99219 z"
           style="font-weight:bold;-inkscape-font-specification:'sans-serif Bold';fill:#808080"
           id="path2553" />
        <path
           d="m 227.92267,202.38365 q -1.40625,0 -2.38281,0.97656 -0.97657,0.97657 -0.97657,2.38282 0,1.40625 0.95703,2.36328 0.97657,0.95703 2.40235,0.95703 1.40625,0 2.38281,-0.95703 0.97656,-0.97656 0.97656,-2.36328 0,-1.40625 -0.99609,-2.38282 -0.97656,-0.97656 -2.36328,-0.97656 z m 0,-3.16406 q 1.28906,0 2.48047,0.50781 1.1914,0.48828 2.1289,1.40625 0.91797,0.9375 1.38672,2.10938 0.48828,1.17187 0.48828,2.5 0,1.30859 -0.48828,2.5 -0.46875,1.17187 -1.34765,2.05078 -0.9375,0.9375 -2.14844,1.44531 -1.21094,0.48828 -2.53906,0.48828 -2.75391,0 -4.62891,-1.85547 -1.85547,-1.875 -1.85547,-4.6289 0,-2.75391 1.875,-4.62891 1.89453,-1.89453 4.64844,-1.89453 z"
           style="font-weight:bold;-inkscape-font-specification:'sans-serif Bold';fill:#808080"
           id="path2555" />
        <path
           d="m 243.80157,196.40709 h 6.99219 v 21.875 h -6.99219 z m 0,-8.51563 h 6.99219 v 5.70313 h -6.99219 z"
           style="font-weight:bold;-inkscape-font-specification:'sans-serif Bold';fill:#808080"
           id="path2557" />
      </g>
      <g
         aria-label="i"
         id="text2361-2"
         style="font-size:40px;line-height:1.25;word-spacing:0px;fill:#808080"
         transform="matrix(0.47617649,0,0,0.47617649,205.23882,40.077947)">
        <path
           d="m 204.68881,288.40778 h 6.99219 v 21.875 h -6.99219 z m 0,-8.51563 h 6.99219 v 5.70313 h -6.99219 z"
           style="font-weight:bold;-inkscape-font-specification:'sans-serif Bold';fill:#808080"
           id="path2560" />
      </g>
      <g
         aria-label="y∘i"
         id="text2361-6"
         style="font-size:40px;line-height:1.25;word-spacing:0px;fill:#808080"
         transform="matrix(0.47617649,0,0,0.47617649,94.788148,23.915134)">
        <path
           d="m 244.03717,277.1557 h 6.99219 l 5.8789,14.84375 5,-14.84375 h 6.99219 l -9.19922,23.94531 q -1.38672,3.65235 -3.24218,5.09766 -1.83594,1.46484 -4.86329,1.46484 h -4.04296 v -4.58984 h 2.1875 q 1.77734,0 2.57812,-0.56641 0.82031,-0.5664 1.26953,-2.03125 l 0.19531,-0.60547 z"
           style="font-weight:bold;-inkscape-font-specification:'sans-serif Bold';fill:#808080"
           id="path2563" />
        <path
           d="m 282.14264,283.13226 q -1.40625,0 -2.38281,0.97657 -0.97657,0.97656 -0.97657,2.38281 0,1.40625 0.95704,2.36328 0.97656,0.95703 2.40234,0.95703 1.40625,0 2.38281,-0.95703 0.97656,-0.97656 0.97656,-2.36328 0,-1.40625 -0.99609,-2.38281 -0.97656,-0.97657 -2.36328,-0.97657 z m 0,-3.16406 q 1.28906,0 2.48047,0.50781 1.1914,0.48828 2.1289,1.40625 0.91797,0.9375 1.38672,2.10938 0.48828,1.17187 0.48828,2.5 0,1.30859 -0.48828,2.5 -0.46875,1.17187 -1.34765,2.05078 -0.9375,0.9375 -2.14844,1.44531 -1.21094,0.48828 -2.53906,0.48828 -2.75391,0 -4.62891,-1.85547 -1.85547,-1.875 -1.85547,-4.6289 0,-2.75391 1.875,-4.62891 1.89453,-1.89453 4.64844,-1.89453 z"
           style="font-weight:bold;-inkscape-font-specification:'sans-serif Bold';fill:#808080"
           id="path2565" />
        <path
           d="m 298.02155,277.1557 h 6.99218 v 21.875 h -6.99218 z m 0,-8.51562 h 6.99218 v 5.70312 h -6.99218 z"
           style="font-weight:bold;-inkscape-font-specification:'sans-serif Bold';fill:#808080"
           id="path2567" />
      </g>
      <g
         aria-label="y"
         id="text2361-6-5"
         style="font-size:40px;line-height:1.25;word-spacing:0px;fill:#808080"
         transform="matrix(0.47617649,0,0,0.47617649,162.4123,-83.770662)">
        <path
           d="m 181.59363,327.3725 h 6.99219 l 5.8789,14.84375 5,-14.84375 h 6.99219 l -9.19922,23.94531 q -1.38672,3.65234 -3.24219,5.09766 -1.83593,1.46484 -4.86328,1.46484 h -4.04297 v -4.58984 h 2.1875 q 1.77735,0 2.57813,-0.56641 0.82031,-0.56641 1.26953,-2.03125 l 0.19531,-0.60547 z"
           style="font-weight:bold;-inkscape-font-specification:'sans-serif Bold';fill:#808080"
           id="path2570" />
      </g>
      <g
         aria-label="b"
         id="text2361-6-5-5"
         style="font-size:40px;line-height:1.25;word-spacing:0px;fill:#808080"
         transform="matrix(0.47617649,0,0,0.47617649,206.32418,-85.003156)">
        <path
           d="m 257.78238,356.43454 q 2.24609,0 3.41797,-1.64063 1.1914,-1.64062 1.1914,-4.76562 0,-3.125 -1.1914,-4.76563 -1.17188,-1.64062 -3.41797,-1.64062 -2.24609,0 -3.45703,1.66016 -1.19141,1.64062 -1.19141,4.74609 0,3.10547 1.19141,4.76562 1.21094,1.64063 3.45703,1.64063 z m -4.64844,-14.16016 q 1.44531,-1.91406 3.20313,-2.8125 1.75781,-0.91797 4.04297,-0.91797 4.04296,0 6.64062,3.22266 2.59766,3.20313 2.59766,8.26172 0,5.05859 -2.59766,8.28125 -2.59766,3.20312 -6.64062,3.20312 -2.28516,0 -4.04297,-0.89843 -1.75782,-0.91797 -3.20313,-2.83203 v 3.16406 h -6.99219 v -30.39063 h 6.99219 z"
           style="font-weight:bold;-inkscape-font-specification:'sans-serif Bold';fill:#808080"
           id="path2573" />
      </g>
    </g>
    <text
       xml:space="preserve"
       style="font-size:40px;line-height:1.25;font-family:sans-serif;word-spacing:0px"
       x="338.70493"
       y="319.50247"
       id="text2514"><tspan
         sodipodi:role="line"
         id="tspan2512"></tspan></text>
    <text
       xml:space="preserve"
       style="font-size:40px;line-height:1.25;font-family:sans-serif;word-spacing:0px"
       x="139.30203"
       y="191.50638"
       id="text2518"><tspan
         sodipodi:role="line"
         id="tspan2516"></tspan></text>
  </switch>
</svg>
