<?xml version="1.0" encoding="UTF-8" standalone="no"?>
<svg
   xmlns:ns0="foo"
   xmlns:dc="http://purl.org/dc/elements/1.1/"
   xmlns:cc="http://creativecommons.org/ns#"
   xmlns:rdf="http://www.w3.org/1999/02/22-rdf-syntax-ns#"
   xmlns:svg="http://www.w3.org/2000/svg"
   xmlns="http://www.w3.org/2000/svg"
   xmlns:sodipodi="http://sodipodi.sourceforge.net/DTD/sodipodi-0.dtd"
   xmlns:inkscape="http://www.inkscape.org/namespaces/inkscape"
   width="595.3"
   height="200"
   version="1.1"
   id="svg2850"
   sodipodi:docname="set_arrows.svg"
   inkscape:version="1.0.1 (0767f8302a, 2020-10-17)">
  <metadata
     id="metadata2856">
    <rdf:RDF>
      <cc:Work
         rdf:about="">
        <dc:format>image/svg+xml</dc:format>
        <dc:type
           rdf:resource="http://purl.org/dc/dcmitype/StillImage" />
        <dc:title></dc:title>
      </cc:Work>
    </rdf:RDF>
  </metadata>
  <defs
     id="defs2854" />
  <sodipodi:namedview
     pagecolor="#ffffff"
     bordercolor="#666666"
     borderopacity="1"
     objecttolerance="10"
     gridtolerance="10"
     guidetolerance="10"
     inkscape:pageopacity="0"
     inkscape:pageshadow="2"
     inkscape:window-width="1871"
     inkscape:window-height="818"
     id="namedview2852"
     showgrid="false"
     inkscape:zoom="0.82553204"
     inkscape:cx="-57.326316"
     inkscape:cy="100"
     inkscape:window-x="0"
     inkscape:window-y="27"
     inkscape:window-maximized="0"
     inkscape:current-layer="g2846"
     inkscape:document-rotation="0" />
  <switch
     transform="translate(0 -159)"
     id="switch2848">
    <g
       ns0:extraneous="self"
       id="g2846"
       transform="translate(-1.0910201,3.9272465)">
      <path
         d="m 221.9446,225.81021 c 0,0 1.71416,-0.47866 4.67711,-1.20496 1.55881,-0.40165 3.27297,-0.88031 5.37817,-1.36761 2.10586,-0.48729 4.3664,-1.05094 7.01931,-1.62387 10.21859,-2.28113 24.04742,-4.49454 37.90347,-5.60324 13.85538,-1.11002 27.97632,-1.04828 38.50429,-0.31933 5.18697,0.40232 9.66225,0.5995 12.65241,0.97592 l 1.88677,0.18058 2.43714,-18.889 c 13.47166,8.75804 25.78549,18.27689 36.54847,28.56586 -14.81337,3.63214 -28.8885,8.57281 -41.84299,14.44558 l 2.28246,-18.81265 -1.88678,-0.17925 c -2.99016,-0.37709 -7.31076,-0.65127 -12.4154,-0.90886 -10.29163,-0.65991 -24.01954,-0.73028 -37.63858,0.44746 -13.7007,1.03301 -27.13783,3.23713 -37.20174,5.4419 -2.49755,0.49527 -4.7581,1.05957 -6.86462,1.54687 -2.1052,0.48663 -3.81936,0.96529 -5.22282,1.28994 -2.96294,0.72696 -4.52109,1.12861 -4.52109,1.12861 z"
         fill="#9d539f"
         stroke-width="0.199167"
         id="path2810" />
      <path
         d="m 209.31542,252.09627 c 0,0 1.83101,-0.45011 4.99577,-1.13326 1.66504,-0.37775 3.49605,-0.8272 5.74531,-1.28529 2.24992,-0.45808 4.66449,-0.98853 7.49863,-1.52694 10.91568,-2.14437 25.6879,-4.225 40.48933,-5.26797 14.80142,-1.04297 29.885,-0.98521 41.1313,-0.30008 5.54082,0.37842 10.32216,0.56431 13.51613,0.91816 l 2.01557,0.16929 2.60312,-17.75905 c 14.39047,8.23489 27.54479,17.18412 39.0427,26.857 -15.82448,3.41439 -30.86026,8.05962 -44.69838,13.58053 l 2.4378,-17.68603 -2.01557,-0.16929 c -3.19331,-0.35385 -7.80934,-0.6121 -13.26253,-0.85376 -10.99335,-0.62074 -25.65802,-0.68713 -40.2065,0.42024 -14.63546,0.97127 -28.98876,3.04327 -39.73979,5.11594 -2.66817,0.46605 -5.08274,0.99583 -7.33267,1.45392 -2.24925,0.45808 -4.08026,0.9082 -5.57999,1.21359 a 528.05475,528.05475 0 0 0 -4.8298,1.06023 z"
         fill="#e90909"
         stroke-width="0.199167"
         id="path2812" />
      <circle
         cx="428.10294"
         cy="260.32166"
         r="55.360668"
         id="circle268"
         style="opacity:0.13;stroke:#000000;stroke-width:13.5026;stroke-miterlimit:10" />
      <path
         d="m 204.09127,298.23662 c 0,0 1.96777,0.49327 5.36954,1.24082 1.78985,0.41293 3.75762,0.9062 6.17551,1.40744 2.41789,0.50057 5.0137,1.08081 8.05962,1.66902 11.73227,2.34486 27.60587,4.6074 43.50737,5.72406 15.90149,1.11666 32.10173,1.01442 44.17922,0.22838 5.94978,-0.43219 11.0843,-0.64995 14.5133,-1.04895 l 2.16428,-0.19253 2.86003,19.63322 c 15.42748,-9.14243 29.52319,-19.07356 41.83835,-29.80003 -17.00886,-3.73637 -33.17458,-8.83504 -48.05767,-14.90632 l 2.68212,19.55355 -2.16428,0.19253 c -3.42966,0.399 -8.38626,0.69576 -14.24177,0.97725 -11.80595,0.71368 -27.55674,0.82388 -43.18604,-0.36381 -15.72357,-1.037 -31.14839,-3.2929 -42.70273,-5.55809 -2.86734,-0.50854 -5.46315,-1.08878 -7.88037,-1.58935 -2.41855,-0.50124 -4.38632,-0.99385 -5.99825,-1.32778 -3.40177,-0.74754 -5.19162,-1.16048 -5.19162,-1.16048 z"
         fill="#0e2db8"
         stroke-width="0.199167"
         id="path2814" />
      <path
         d="m 221.85166,279.40207 c 0,0 1.70951,0.31335 4.6532,0.75019 1.55085,0.25029 3.2597,0.56365 5.34896,0.84381 2.08926,0.28082 4.33653,0.62405 6.96354,0.93608 10.12765,1.27666 23.7354,2.10453 37.24622,1.7925 13.51016,-0.31202 27.14513,-1.85756 37.2356,-3.71247 4.96589,-0.95932 9.2679,-1.6325 12.114,-2.33424 l 1.80312,-0.38306 4.46798,19.19771 c 12.035,-10.4337 22.8657,-21.52996 32.11369,-33.25624 -14.71844,-2.18553 -28.86926,-5.79643 -42.0415,-10.48482 l 4.30998,19.13464 -1.80313,0.38373 c -2.8461,0.70173 -6.9901,1.43732 -11.89292,2.23797 -9.86873,1.75997 -23.12396,3.27364 -36.41304,3.49007 -13.35216,0.37443 -26.58083,-0.4853 -36.55046,-1.69956 -2.46834,-0.24829 -4.71561,-0.59219 -6.80487,-0.87235 -2.0886,-0.28083 -3.79745,-0.59352 -5.1903,-0.78073 -2.94368,-0.43751 -4.49453,-0.68713 -4.49453,-0.68713 z"
         fill="#04bd3d"
         stroke-width="0.199167"
         id="path2816" />
      <circle
         cx="180.93854"
         cy="260.38248"
         r="55.360668"
         id="circle268-6"
         style="opacity:0.13;stroke:#000000;stroke-width:13.5026;stroke-miterlimit:10" />
      <circle
         cy="170.53233"
         cx="257.52014"
         stroke-miterlimit="10"
         transform="rotate(22.196)"
         r="59.502464"
         fill="#dbdb8b"
         stroke="#878578"
         stroke-width="7.00006"
         id="circle2818" />
      <text
         style="line-height:1.25;-inkscape-font-specification:'sans-serif, Bold';font-variant-ligatures:normal;font-variant-caps:normal;font-variant-numeric:normal;font-feature-settings:normal;text-align:start;stroke-width:0.66389"
         x="225.62718"
         y="239.03592"
         transform="rotate(-4.889)"
         font-weight="700"
         font-size="17.704px"
         font-family="sans-serif"
         letter-spacing="0"
         word-spacing="0"
         fill="#9d539f"
         id="text2822"><tspan
           x="225.62718"
           y="239.03592"
           id="tspan2820"
           style="stroke-width:0.66389">isEven</tspan></text>
      <text
         style="line-height:1.25;-inkscape-font-specification:'sans-serif, Bold';font-variant-ligatures:normal;font-variant-caps:normal;font-variant-numeric:normal;font-feature-settings:normal;text-align:start;stroke-width:0.66389"
         x="224.71373"
         y="261.5994"
         transform="rotate(-4.227)"
         font-weight="700"
         font-size="17.704px"
         font-family="sans-serif"
         letter-spacing="0"
         word-spacing="0"
         fill="#e90909"
         id="text2826"><tspan
           x="224.71373"
           y="261.5994"
           id="tspan2824"
           style="stroke-width:0.66389">isOdd</tspan></text>
      <text
         style="line-height:1.25;-inkscape-font-specification:'sans-serif, Bold';font-variant-ligatures:normal;font-variant-caps:normal;font-variant-numeric:normal;font-feature-settings:normal;text-align:start;stroke-width:0.66389"
         x="232.00917"
         y="287.25305"
         transform="rotate(-2.197)"
         font-weight="700"
         font-size="17.704px"
         font-family="sans-serif"
         letter-spacing="0"
         word-spacing="0"
         fill="#04bd3d"
         id="text2830"><tspan
           x="232.00917"
           y="287.25305"
           id="tspan2828"
           style="stroke-width:0.66389">isPrime</tspan></text>
      <text
         style="line-height:1.25;-inkscape-font-specification:'sans-serif, Bold';font-variant-ligatures:normal;font-variant-caps:normal;font-variant-numeric:normal;font-feature-settings:normal;text-align:start;stroke-width:0.66389"
         x="272.09683"
         y="299.49792"
         transform="rotate(0.662)"
         font-weight="700"
         font-size="17.704px"
         font-family="sans-serif"
         letter-spacing="0"
         word-spacing="0"
         fill="#0e2db8"
         id="text2834"><tspan
           x="272.09683"
           y="299.49792"
           id="tspan2832"
           style="stroke-width:0.66389">&gt;0</tspan></text>
      <circle
         cy="76.969345"
         cx="488.81006"
         stroke-miterlimit="10"
         transform="rotate(22.196)"
         r="59.502464"
         fill="#d9d98d"
         stroke="#878578"
         stroke-width="7.00006"
         id="circle2836" />
      <text
         style="line-height:1.25;-inkscape-font-specification:'sans-serif, Bold';font-variant-ligatures:normal;font-variant-caps:normal;font-variant-numeric:normal;font-feature-settings:normal;text-align:start"
         x="130.5511"
         y="259.93155"
         transform="rotate(0.221)"
         font-weight="700"
         font-size="20.1212px"
         font-family="sans-serif"
         letter-spacing="0"
         word-spacing="0"
         fill="#9d539f"
         stroke-width="0.754843"
         id="text2840"><tspan
           x="130.5511"
           y="259.93155"
           fill="#797979"
           id="tspan2838"
           style="stroke-width:0.501133">number</tspan></text>
      <text
         style="line-height:1.25;-inkscape-font-specification:'sans-serif, Bold';font-variant-ligatures:normal;font-variant-caps:normal;font-variant-numeric:normal;font-feature-settings:normal;text-align:start"
         x="380.29541"
         y="259.6022"
         transform="rotate(0.221)"
         font-weight="700"
         font-size="20.1212px"
         font-family="sans-serif"
         letter-spacing="0"
         word-spacing="0"
         fill="#9d539f"
         stroke-width="0.754843"
         id="text2844"><tspan
           x="380.29541"
           y="259.6022"
           fill="#797979"
           id="tspan2842"
           style="stroke-width:0.501133">boolean</tspan></text>
    </g>
  </switch>
</svg>
