<?xml version="1.0" encoding="UTF-8" standalone="no"?>
<svg
   xmlns:ns0="foo"
   xmlns:dc="http://purl.org/dc/elements/1.1/"
   xmlns:cc="http://creativecommons.org/ns#"
   xmlns:rdf="http://www.w3.org/1999/02/22-rdf-syntax-ns#"
   xmlns:svg="http://www.w3.org/2000/svg"
   xmlns="http://www.w3.org/2000/svg"
   xmlns:sodipodi="http://sodipodi.sourceforge.net/DTD/sodipodi-0.dtd"
   xmlns:inkscape="http://www.inkscape.org/namespaces/inkscape"
   width="595.3"
   height="200"
   version="1.1"
   id="svg2850"
   sodipodi:docname="set_arrows.svg"
   inkscape:version="0.92.5 (2060ec1f9f, 2020-04-08)">
  <metadata
     id="metadata2856">
    <rdf:RDF>
      <cc:Work
         rdf:about="">
        <dc:format>image/svg+xml</dc:format>
        <dc:type
           rdf:resource="http://purl.org/dc/dcmitype/StillImage" />
        <dc:title />
      </cc:Work>
    </rdf:RDF>
  </metadata>
  <defs
     id="defs2854" />
  <sodipodi:namedview
     pagecolor="#ffffff"
     bordercolor="#666666"
     borderopacity="1"
     objecttolerance="10"
     gridtolerance="10"
     guidetolerance="10"
     inkscape:pageopacity="0"
     inkscape:pageshadow="2"
     inkscape:window-width="2560"
     inkscape:window-height="1376"
     id="namedview2852"
     showgrid="false"
     inkscape:zoom="3.8567825"
     inkscape:cx="284.62552"
     inkscape:cy="100"
     inkscape:window-x="0"
     inkscape:window-y="27"
     inkscape:window-maximized="1"
     inkscape:current-layer="g2846"
     inkscape:document-rotation="0" />
  <switch
     transform="translate(0 -159)"
     id="switch2848">
    <g
       ns0:extraneous="self"
       id="g2846"
       transform="translate(-1.0910201,3.9272465)">
      <path
         d="m 221.9446,225.81021 c 0,0 1.71416,-0.47866 4.67711,-1.20496 1.55881,-0.40165 3.27297,-0.88031 5.37817,-1.36761 2.10586,-0.48729 4.3664,-1.05094 7.01931,-1.62387 10.21859,-2.28113 24.04742,-4.49454 37.90347,-5.60324 13.85538,-1.11002 27.97632,-1.04828 38.50429,-0.31933 5.18697,0.40232 9.66225,0.5995 12.65241,0.97592 l 1.88677,0.18058 2.43714,-18.889 c 13.47166,8.75804 25.78549,18.27689 36.54847,28.56586 -14.81337,3.63214 -28.8885,8.57281 -41.84299,14.44558 l 2.28246,-18.81265 -1.88678,-0.17925 c -2.99016,-0.37709 -7.31076,-0.65127 -12.4154,-0.90886 -10.29163,-0.65991 -24.01954,-0.73028 -37.63858,0.44746 -13.7007,1.03301 -27.13783,3.23713 -37.20174,5.4419 -2.49755,0.49527 -4.7581,1.05957 -6.86462,1.54687 -2.1052,0.48663 -3.81936,0.96529 -5.22282,1.28994 -2.96294,0.72696 -4.52109,1.12861 -4.52109,1.12861 z"
         fill="#9d539f"
         stroke-width="0.199167"
         id="path2810" />
      <path
         d="m 209.31542,252.09627 c 0,0 1.83101,-0.45011 4.99577,-1.13326 1.66504,-0.37775 3.49605,-0.8272 5.74531,-1.28529 2.24992,-0.45808 4.66449,-0.98853 7.49863,-1.52694 10.91568,-2.14437 25.6879,-4.225 40.48933,-5.26797 14.80142,-1.04297 29.885,-0.98521 41.1313,-0.30008 5.54082,0.37842 10.32216,0.56431 13.51613,0.91816 l 2.01557,0.16929 2.60312,-17.75905 c 14.39047,8.23489 27.54479,17.18412 39.0427,26.857 -15.82448,3.41439 -30.86026,8.05962 -44.69838,13.58053 l 2.4378,-17.68603 -2.01557,-0.16929 c -3.19331,-0.35385 -7.80934,-0.6121 -13.26253,-0.85376 -10.99335,-0.62074 -25.65802,-0.68713 -40.2065,0.42024 -14.63546,0.97127 -28.98876,3.04327 -39.73979,5.11594 -2.66817,0.46605 -5.08274,0.99583 -7.33267,1.45392 -2.24925,0.45808 -4.08026,0.9082 -5.57999,1.21359 a 528.05475,528.05475 0 0 0 -4.8298,1.06023 z"
         fill="#e90909"
         stroke-width="0.199167"
         id="path2812" />
      <circle
         cx="428.10294"
         cy="260.32166"
         r="55.360668"
         id="circle268"
         style="opacity:0.13;stroke:#000000;stroke-width:13.5026;stroke-miterlimit:10" />
      <path
         d="m 204.09127,298.23662 c 0,0 1.96777,0.49327 5.36954,1.24082 1.78985,0.41293 3.75762,0.9062 6.17551,1.40744 2.41789,0.50057 5.0137,1.08081 8.05962,1.66902 11.73227,2.34486 27.60587,4.6074 43.50737,5.72406 15.90149,1.11666 32.10173,1.01442 44.17922,0.22838 5.94978,-0.43219 11.0843,-0.64995 14.5133,-1.04895 l 2.16428,-0.19253 2.86003,19.63322 c 15.42748,-9.14243 29.52319,-19.07356 41.83835,-29.80003 -17.00886,-3.73637 -33.17458,-8.83504 -48.05767,-14.90632 l 2.68212,19.55355 -2.16428,0.19253 c -3.42966,0.399 -8.38626,0.69576 -14.24177,0.97725 -11.80595,0.71368 -27.55674,0.82388 -43.18604,-0.36381 -15.72357,-1.037 -31.14839,-3.2929 -42.70273,-5.55809 -2.86734,-0.50854 -5.46315,-1.08878 -7.88037,-1.58935 -2.41855,-0.50124 -4.38632,-0.99385 -5.99825,-1.32778 -3.40177,-0.74754 -5.19162,-1.16048 -5.19162,-1.16048 z"
         fill="#0e2db8"
         stroke-width="0.199167"
         id="path2814" />
      <path
         d="m 221.85166,279.40207 c 0,0 1.70951,0.31335 4.6532,0.75019 1.55085,0.25029 3.2597,0.56365 5.34896,0.84381 2.08926,0.28082 4.33653,0.62405 6.96354,0.93608 10.12765,1.27666 23.7354,2.10453 37.24622,1.7925 13.51016,-0.31202 27.14513,-1.85756 37.2356,-3.71247 4.96589,-0.95932 9.2679,-1.6325 12.114,-2.33424 l 1.80312,-0.38306 4.46798,19.19771 c 12.035,-10.4337 22.8657,-21.52996 32.11369,-33.25624 -14.71844,-2.18553 -28.86926,-5.79643 -42.0415,-10.48482 l 4.30998,19.13464 -1.80313,0.38373 c -2.8461,0.70173 -6.9901,1.43732 -11.89292,2.23797 -9.86873,1.75997 -23.12396,3.27364 -36.41304,3.49007 -13.35216,0.37443 -26.58083,-0.4853 -36.55046,-1.69956 -2.46834,-0.24829 -4.71561,-0.59219 -6.80487,-0.87235 -2.0886,-0.28083 -3.79745,-0.59352 -5.1903,-0.78073 -2.94368,-0.43751 -4.49453,-0.68713 -4.49453,-0.68713 z"
         fill="#04bd3d"
         stroke-width="0.199167"
         id="path2816" />
      <circle
         cx="180.93854"
         cy="260.38248"
         r="55.360668"
         id="circle268-6"
         style="opacity:0.13;stroke:#000000;stroke-width:13.5026;stroke-miterlimit:10" />
      <circle
         cy="170.53233"
         cx="257.52014"
         stroke-miterlimit="10"
         transform="rotate(22.196)"
         r="59.502464"
         fill="#dbdb8b"
         stroke="#878578"
         stroke-width="7.00006"
         id="circle2818" />
      <g
         aria-label="isEven"
         transform="rotate(-4.889)"
         style="font-weight:700;font-size:17.70400047px;line-height:1.25;font-family:sans-serif;-inkscape-font-specification:'sans-serif, Bold';font-variant-ligatures:normal;font-variant-caps:normal;font-variant-numeric:normal;font-feature-settings:normal;text-align:start;letter-spacing:0;word-spacing:0;fill:#9d539f;stroke-width:0.66389"
         id="text2822">
        <path
           d="m 227.11404,229.35404 h 3.09474 v 9.68188 h -3.09474 z m 0,-3.76901 h 3.09474 v 2.5242 h -3.09474 z"
           style="stroke-width:0.66389"
           id="path85763" />
        <path
           d="m 240.74647,229.6566 v 2.35132 q -0.99412,-0.41494 -1.91909,-0.62241 -0.92496,-0.20747 -1.74619,-0.20747 -0.88175,0 -1.31397,0.22476 -0.42358,0.21611 -0.42358,0.67427 0,0.37172 0.31984,0.57054 0.3285,0.19882 1.16701,0.29391 l 0.54461,0.0778 q 2.37725,0.30255 3.19848,0.99412 0.82123,0.69156 0.82123,2.16977 0,1.54737 -1.14108,2.32538 -1.14108,0.77801 -3.40595,0.77801 -0.95954,0 -1.98824,-0.1556 -1.02005,-0.14696 -2.10062,-0.44952 v -2.35131 q 0.92497,0.44952 1.89315,0.67427 0.97683,0.22476 1.9796,0.22476 0.90768,0 1.36584,-0.25069 0.45816,-0.25069 0.45816,-0.74343 0,-0.41494 -0.31985,-0.61376 -0.3112,-0.20747 -1.25346,-0.31985 l -0.5446,-0.0692 q -2.06605,-0.25934 -2.89592,-0.95955 -0.82988,-0.7002 -0.82988,-2.12655 0,-1.53873 1.05464,-2.28216 1.05463,-0.74343 3.23305,-0.74343 0.85581,0 1.79806,0.12967 0.94226,0.12967 2.04876,0.40629 z"
           style="stroke-width:0.66389"
           id="path85765" />
        <path
           d="m 243.8585,226.12963 h 8.98167 v 2.51556 h -5.65353 v 2.40318 h 5.31639 v 2.51556 h -5.31639 v 2.95643 h 5.84371 v 2.51556 h -9.17185 z"
           style="stroke-width:0.66389"
           id="path85767" />
        <path
           d="m 254.59501,229.35404 h 3.09474 l 2.41182,6.69087 2.40318,-6.69087 h 3.10339 l -3.81224,9.68188 h -3.3973 z"
           style="stroke-width:0.66389"
           id="path85769" />
        <path
           d="m 277.01892,234.16905 v 0.88174 h -7.23547 q 0.11238,1.08921 0.78665,1.63382 0.67427,0.5446 1.88451,0.5446 0.97683,0 1.99688,-0.28527 1.0287,-0.29391 2.10927,-0.88174 v 2.38589 q -1.09786,0.41494 -2.19571,0.62241 -1.09786,0.21611 -2.19571,0.21611 -2.62794,0 -4.08887,-1.33126 -1.45228,-1.3399 -1.45228,-3.75172 0,-2.36861 1.42635,-3.7258 1.43499,-1.35719 3.94191,-1.35719 2.28215,0 3.64799,1.37448 1.37448,1.37448 1.37448,3.67393 z m -3.18119,-1.0287 q 0,-0.88174 -0.51867,-1.4177 -0.51003,-0.54461 -1.3399,-0.54461 -0.89903,0 -1.46093,0.51003 -0.56189,0.50138 -0.70021,1.45228 z"
           style="stroke-width:0.66389"
           id="path85771" />
        <path
           d="m 289.09533,233.14035 v 5.89557 h -3.11203 v -0.95954 -3.55291 q 0,-1.25345 -0.0605,-1.7289 -0.0519,-0.47545 -0.19018,-0.70021 -0.18154,-0.30256 -0.49274,-0.4668 -0.3112,-0.17289 -0.70885,-0.17289 -0.96819,0 -1.52144,0.75207 -0.55325,0.74343 -0.55325,2.06604 v 4.76314 h -3.09474 v -9.68188 h 3.09474 v 1.41771 q 0.70021,-0.84717 1.48686,-1.24482 0.78665,-0.40629 1.73755,-0.40629 1.67704,0 2.54149,1.0287 0.8731,1.0287 0.8731,2.99101 z"
           style="stroke-width:0.66389"
           id="path85773" />
      </g>
      <g
         aria-label="isOdd"
         transform="rotate(-4.227)"
         style="font-weight:700;font-size:17.70400047px;line-height:1.25;font-family:sans-serif;-inkscape-font-specification:'sans-serif, Bold';font-variant-ligatures:normal;font-variant-caps:normal;font-variant-numeric:normal;font-feature-settings:normal;text-align:start;letter-spacing:0;word-spacing:0;fill:#e90909;stroke-width:0.66389"
         id="text2826">
        <path
           d="m 226.20059,251.91752 h 3.09474 v 9.68188 h -3.09474 z m 0,-3.76902 h 3.09474 v 2.52421 h -3.09474 z"
           style="stroke-width:0.66389"
           id="path85776" />
        <path
           d="m 239.83302,252.22008 v 2.35131 q -0.99413,-0.41494 -1.91909,-0.6224 -0.92497,-0.20747 -1.7462,-0.20747 -0.88174,0 -1.31396,0.22475 -0.42359,0.21612 -0.42359,0.67428 0,0.37171 0.31985,0.57054 0.32849,0.19882 1.16701,0.29391 l 0.54461,0.0778 q 2.37724,0.30256 3.19847,0.99412 0.82124,0.69157 0.82124,2.16978 0,1.54737 -1.14108,2.32538 -1.14108,0.77801 -3.40595,0.77801 -0.95954,0 -1.98824,-0.1556 -1.02006,-0.14696 -2.10062,-0.44952 v -2.35131 q 0.92496,0.44951 1.89315,0.67427 0.97683,0.22476 1.9796,0.22476 0.90767,0 1.36583,-0.25069 0.45816,-0.25069 0.45816,-0.74343 0,-0.41494 -0.31984,-0.61376 -0.31121,-0.20747 -1.25346,-0.31985 l -0.54461,-0.0692 q -2.06604,-0.25933 -2.89591,-0.95954 -0.82988,-0.70021 -0.82988,-2.12656 0,-1.53872 1.05463,-2.28215 1.05464,-0.74343 3.23306,-0.74343 0.85581,0 1.79806,0.12967 0.94226,0.12966 2.04876,0.40629 z"
           style="stroke-width:0.66389"
           id="path85778" />
        <path
           d="m 248.84062,250.87153 q -1.52144,0 -2.35996,1.12379 -0.83852,1.12379 -0.83852,3.1639 0,2.03146 0.83852,3.15525 0.83852,1.12379 2.35996,1.12379 1.53008,0 2.3686,-1.12379 0.83852,-1.12379 0.83852,-3.15525 0,-2.04011 -0.83852,-3.1639 -0.83852,-1.12379 -2.3686,-1.12379 z m 0,-2.41182 q 3.11203,0 4.87551,1.78077 1.76349,1.78077 1.76349,4.91874 0,3.12932 -1.76349,4.91009 -1.76348,1.78078 -4.87551,1.78078 -3.10339,0 -4.87552,-1.78078 -1.76348,-1.78077 -1.76348,-4.91009 0,-3.13797 1.76348,-4.91874 1.77213,-1.78077 4.87552,-1.78077 z"
           style="stroke-width:0.66389"
           id="path85780" />
        <path
           d="m 264.444,253.33522 v -5.18672 h 3.11203 v 13.4509 H 264.444 v -1.40042 q -0.6397,0.85581 -1.40906,1.25346 -0.76937,0.39765 -1.78078,0.39765 -1.78941,0 -2.93914,-1.41771 -1.14972,-1.42634 -1.14972,-3.66528 0,-2.23893 1.14972,-3.65663 1.14973,-1.42635 2.93914,-1.42635 1.00277,0 1.77213,0.40629 0.77801,0.39765 1.41771,1.24481 z m -2.04011,6.26729 q 0.99412,0 1.51279,-0.72614 0.52732,-0.72614 0.52732,-2.10927 0,-1.38312 -0.52732,-2.10926 -0.51867,-0.72614 -1.51279,-0.72614 -0.98548,0 -1.5128,0.72614 -0.51867,0.72614 -0.51867,2.10926 0,1.38313 0.51867,2.10927 0.52732,0.72614 1.5128,0.72614 z"
           style="stroke-width:0.66389"
           id="path85782" />
        <path
           d="m 277.11688,253.33522 v -5.18672 h 3.11203 v 13.4509 h -3.11203 v -1.40042 q -0.6397,0.85581 -1.40906,1.25346 -0.76936,0.39765 -1.78077,0.39765 -1.78942,0 -2.93915,-1.41771 -1.14972,-1.42634 -1.14972,-3.66528 0,-2.23893 1.14972,-3.65663 1.14973,-1.42635 2.93915,-1.42635 1.00276,0 1.77212,0.40629 0.77801,0.39765 1.41771,1.24481 z m -2.04011,6.26729 q 0.99412,0 1.51279,-0.72614 0.52732,-0.72614 0.52732,-2.10927 0,-1.38312 -0.52732,-2.10926 -0.51867,-0.72614 -1.51279,-0.72614 -0.98548,0 -1.5128,0.72614 -0.51867,0.72614 -0.51867,2.10926 0,1.38313 0.51867,2.10927 0.52732,0.72614 1.5128,0.72614 z"
           style="stroke-width:0.66389"
           id="path85784" />
      </g>
      <g
         aria-label="isPrime"
         transform="rotate(-2.197)"
         style="font-weight:700;font-size:17.70400047px;line-height:1.25;font-family:sans-serif;-inkscape-font-specification:'sans-serif, Bold';font-variant-ligatures:normal;font-variant-caps:normal;font-variant-numeric:normal;font-feature-settings:normal;text-align:start;letter-spacing:0;word-spacing:0;fill:#04bd3d;stroke-width:0.66389"
         id="text2830">
        <path
           d="m 233.49603,277.57118 h 3.09474 v 9.68187 h -3.09474 z m 0,-3.76902 h 3.09474 v 2.5242 h -3.09474 z"
           style="stroke-width:0.66389"
           id="path85748" />
        <path
           d="m 247.12846,277.87374 v 2.35131 q -0.99413,-0.41494 -1.91909,-0.62241 -0.92496,-0.20747 -1.7462,-0.20747 -0.88174,0 -1.31396,0.22476 -0.42359,0.21611 -0.42359,0.67427 0,0.37172 0.31985,0.57054 0.32849,0.19883 1.16701,0.29392 l 0.54461,0.0778 q 2.37724,0.30256 3.19848,0.99412 0.82123,0.69156 0.82123,2.16978 0,1.54737 -1.14108,2.32538 -1.14108,0.778 -3.40595,0.778 -0.95954,0 -1.98824,-0.1556 -1.02005,-0.14696 -2.10062,-0.44951 v -2.35132 q 0.92496,0.44952 1.89315,0.67428 0.97683,0.22475 1.9796,0.22475 0.90767,0 1.36583,-0.25069 0.45817,-0.25069 0.45817,-0.74343 0,-0.41493 -0.31985,-0.61376 -0.31121,-0.20747 -1.25346,-0.31985 l -0.54461,-0.0692 q -2.06604,-0.25934 -2.89591,-0.95955 -0.82988,-0.7002 -0.82988,-2.12655 0,-1.53873 1.05463,-2.28216 1.05464,-0.74343 3.23306,-0.74343 0.85581,0 1.79806,0.12967 0.94226,0.12967 2.04876,0.4063 z"
           style="stroke-width:0.66389"
           id="path85750" />
        <path
           d="m 250.24049,274.34677 h 5.52385 q 2.46369,0 3.77766,1.09785 1.32262,1.08921 1.32262,3.11203 0,2.03147 -1.32262,3.12932 -1.31397,1.08921 -3.77766,1.08921 h -2.19571 v 4.47787 h -3.32814 z m 3.32814,2.41182 v 3.60477 h 1.84129 q 0.96818,0 1.4955,-0.4668 0.52732,-0.47545 0.52732,-1.33991 0,-0.86445 -0.52732,-1.33125 -0.52732,-0.46681 -1.4955,-0.46681 z"
           style="stroke-width:0.66389"
           id="path85752" />
        <path
           d="m 270.26987,280.20776 q -0.4063,-0.19018 -0.81259,-0.27663 -0.39765,-0.0951 -0.80394,-0.0951 -1.19295,0 -1.84129,0.76937 -0.63969,0.76072 -0.63969,2.18706 v 4.46058 h -3.09474 v -9.68187 h 3.09474 v 1.59059 q 0.59647,-0.9509 1.36584,-1.38312 0.778,-0.44088 1.85857,-0.44088 0.1556,0 0.33714,0.0173 0.18153,0.009 0.52731,0.0519 z"
           style="stroke-width:0.66389"
           id="path85754" />
        <path
           d="m 271.80859,277.57118 h 3.09475 v 9.68187 h -3.09475 z m 0,-3.76902 h 3.09475 v 2.5242 h -3.09475 z"
           style="stroke-width:0.66389"
           id="path85756" />
        <path
           d="m 286.85008,279.17906 q 0.58783,-0.89903 1.39177,-1.36584 0.81258,-0.47545 1.78077,-0.47545 1.66839,0 2.54149,1.0287 0.8731,1.0287 0.8731,2.99101 v 5.89557 h -3.11203 v -5.0484 q 0.009,-0.11238 0.009,-0.23341 0.009,-0.12102 0.009,-0.34578 0,-1.0287 -0.30256,-1.48686 -0.30256,-0.4668 -0.97683,-0.4668 -0.88175,0 -1.36584,0.72614 -0.47545,0.72614 -0.49274,2.10062 v 4.75449 h -3.11203 v -5.0484 q 0,-1.60789 -0.27662,-2.06605 -0.27663,-0.4668 -0.98548,-0.4668 -0.89039,0 -1.37448,0.73478 -0.48409,0.72614 -0.48409,2.08333 v 4.76314 h -3.11204 v -9.68187 h 3.11204 v 1.4177 q 0.57053,-0.82123 1.30532,-1.23617 0.74343,-0.41494 1.63382,-0.41494 1.00276,0 1.77213,0.4841 0.76936,0.48409 1.16701,1.35719 z"
           style="stroke-width:0.66389"
           id="path85758" />
        <path
           d="m 305.98907,282.38618 v 0.88174 h -7.23547 q 0.11238,1.08921 0.78665,1.63382 0.67427,0.5446 1.88451,0.5446 0.97683,0 1.99688,-0.28526 1.0287,-0.29392 2.10927,-0.88175 v 2.38589 q -1.09786,0.41494 -2.19571,0.62241 -1.09786,0.21611 -2.19571,0.21611 -2.62794,0 -4.08887,-1.33125 -1.45228,-1.33991 -1.45228,-3.75173 0,-2.3686 1.42635,-3.72579 1.43499,-1.3572 3.94191,-1.3572 2.28215,0 3.64799,1.37448 1.37448,1.37449 1.37448,3.67393 z m -3.18119,-1.0287 q 0,-0.88174 -0.51867,-1.4177 -0.51003,-0.54461 -1.3399,-0.54461 -0.89903,0 -1.46093,0.51003 -0.56189,0.50138 -0.70021,1.45228 z"
           style="stroke-width:0.66389"
           id="path85760" />
      </g>
      <g
         aria-label="&gt;0"
         transform="rotate(0.662)"
         style="font-weight:700;font-size:17.70400047px;line-height:1.25;font-family:sans-serif;-inkscape-font-specification:'sans-serif, Bold';font-variant-ligatures:normal;font-variant-caps:normal;font-variant-numeric:normal;font-feature-settings:normal;text-align:start;letter-spacing:0;word-spacing:0;fill:#0e2db8;stroke-width:0.66389"
         id="text2834">
        <path
           d="m 273.9727,291.0868 v -2.16114 l 11.08228,4.00242 v 2.04011 l -11.08228,4.00242 v -2.16113 l 8.34197,-2.8527 z"
           style="stroke-width:0.66389"
           id="path85743" />
        <path
           d="m 295.074,293.03182 q 0,-2.42047 -0.45816,-3.40595 -0.44952,-0.99412 -1.52144,-0.99412 -1.07192,0 -1.53008,0.99412 -0.45816,0.98548 -0.45816,3.40595 0,2.4464 0.45816,3.44916 0.45816,1.00277 1.53008,1.00277 1.06328,0 1.52144,-1.00277 0.45816,-1.00276 0.45816,-3.44916 z m 3.32814,0.0259 q 0,3.20712 -1.38312,4.95332 -1.38313,1.73755 -3.92462,1.73755 -2.55014,0 -3.93326,-1.73755 -1.38313,-1.7462 -1.38313,-4.95332 0,-3.21577 1.38313,-4.95332 1.38312,-1.74619 3.93326,-1.74619 2.54149,0 3.92462,1.74619 1.38312,1.73755 1.38312,4.95332 z"
           style="stroke-width:0.66389"
           id="path85745" />
      </g>
      <circle
         cy="76.969345"
         cx="488.81006"
         stroke-miterlimit="10"
         transform="rotate(22.196)"
         r="59.502464"
         fill="#d9d98d"
         stroke="#878578"
         stroke-width="7.00006"
         id="circle2836" />
      <g
         aria-label="number"
         transform="rotate(0.221)"
         style="font-weight:700;font-size:20.12120056px;line-height:1.25;font-family:sans-serif;-inkscape-font-specification:'sans-serif, Bold';font-variant-ligatures:normal;font-variant-caps:normal;font-variant-numeric:normal;font-feature-settings:normal;text-align:start;letter-spacing:0;word-spacing:0;fill:#9d539f;stroke-width:0.754843"
         id="text2840">
        <path
           d="m 143.3037,253.23103 v 6.70052 h -3.53693 v -1.09055 -4.038 q 0,-1.4246 -0.0688,-1.96496 -0.059,-0.54036 -0.21615,-0.79581 -0.20632,-0.34387 -0.56001,-0.53054 -0.3537,-0.19649 -0.80564,-0.19649 -1.10038,0 -1.72916,0.85475 -0.62879,0.84494 -0.62879,2.34813 v 5.41347 h -3.51728 v -11.00378 h 3.51728 v 1.61127 q 0.79581,-0.96284 1.68986,-1.41478 0.89406,-0.46176 1.97479,-0.46176 1.90601,0 2.88849,1.16915 0.99231,1.16915 0.99231,3.39938 z"
           style="fill:#797979;stroke-width:0.50113302"
           id="path85787" />
        <path
           d="m 146.44764,255.64793 v -6.72016 h 3.53693 v 1.10038 q 0,0.89405 -0.01,2.24988 -0.01,1.34599 -0.01,1.79794 0,1.32634 0.0688,1.91583 0.0688,0.57967 0.2358,0.84494 0.21614,0.34386 0.56001,0.53053 0.35369,0.18668 0.80563,0.18668 1.10038,0 1.72917,-0.84494 0.62879,-0.84493 0.62879,-2.34813 v -5.43311 h 3.51728 v 11.00378 h -3.51728 v -1.59162 q -0.79581,0.96283 -1.68987,1.4246 -0.88423,0.45194 -1.95514,0.45194 -1.90601,0 -2.90814,-1.16915 -0.9923,-1.16916 -0.9923,-3.39939 z"
           style="fill:#797979;stroke-width:0.50113302"
           id="path85789" />
        <path
           d="m 171.08825,250.75518 q 0.66808,-1.02178 1.58179,-1.55232 0.92353,-0.54036 2.02391,-0.54036 1.89619,0 2.88849,1.16915 0.99231,1.16915 0.99231,3.39938 v 6.70052 h -3.53693 v -5.73769 q 0.01,-0.12772 0.01,-0.26527 0.01,-0.13754 0.01,-0.39299 0,-1.16915 -0.34387,-1.68987 -0.34387,-0.53053 -1.1102,-0.53053 -1.00213,0 -1.55232,0.82528 -0.54037,0.82528 -0.56002,2.38743 v 5.40364 h -3.53693 v -5.73769 q 0,-1.82741 -0.31439,-2.34813 -0.31439,-0.53053 -1.12003,-0.53053 -1.01195,0 -1.56214,0.8351 -0.55019,0.82529 -0.55019,2.36778 v 5.41347 h -3.53693 v -11.00378 h 3.53693 v 1.61127 q 0.64844,-0.93336 1.48355,-1.40495 0.84493,-0.47159 1.85688,-0.47159 1.13968,0 2.01409,0.55019 0.87441,0.55019 1.32635,1.54249 z"
           style="fill:#797979;stroke-width:0.50113302"
           id="path85791" />
        <path
           d="m 187.71182,257.66202 q 1.12985,0 1.71934,-0.82528 0.59931,-0.82529 0.59931,-2.39726 0,-1.57197 -0.59931,-2.39725 -0.58949,-0.82528 -1.71934,-0.82528 -1.12986,0 -1.73899,0.83511 -0.59932,0.82528 -0.59932,2.38742 0,1.56215 0.59932,2.39726 0.60913,0.82528 1.73899,0.82528 z m -2.33831,-7.12298 q 0.72704,-0.96284 1.61127,-1.41478 0.88423,-0.46176 2.03374,-0.46176 2.03373,0 3.34043,1.62109 1.3067,1.61127 1.3067,4.15589 0,2.54463 -1.3067,4.16572 -1.3067,1.61127 -3.34043,1.61127 -1.14951,0 -2.03374,-0.45194 -0.88423,-0.46177 -1.61127,-1.4246 v 1.59162 h -3.51728 v -15.2874 h 3.51728 z"
           style="fill:#797979;stroke-width:0.50113302"
           id="path85793" />
        <path
           d="m 207.24353,254.40018 v 1.00213 h -8.22336 q 0.12772,1.23793 0.89406,1.85689 0.76633,0.61896 2.14181,0.61896 1.1102,0 2.26953,-0.32421 1.16915,-0.33405 2.39725,-1.00213 v 2.71164 q -1.24775,0.47159 -2.4955,0.70739 -1.24775,0.24562 -2.4955,0.24562 -2.98674,0 -4.64714,-1.51302 -1.65056,-1.52285 -1.65056,-4.26397 0,-2.69199 1.62109,-4.23449 1.63092,-1.54249 4.48011,-1.54249 2.59375,0 4.14607,1.56214 1.56214,1.56215 1.56214,4.17554 z m -3.61553,-1.16915 q 0,-1.00213 -0.58948,-1.61127 -0.57967,-0.61896 -1.52285,-0.61896 -1.02178,0 -1.66039,0.57966 -0.63861,0.56984 -0.79581,1.65057 z"
           style="fill:#797979;stroke-width:0.50113302"
           id="path85795" />
        <path
           d="m 218.08029,251.92433 q -0.46177,-0.21614 -0.92353,-0.31439 -0.45194,-0.10807 -0.91371,-0.10807 -1.35582,0 -2.09268,0.8744 -0.72704,0.86459 -0.72704,2.48568 v 5.0696 h -3.51728 v -11.00378 h 3.51728 v 1.80776 q 0.67791,-1.08073 1.55232,-1.57197 0.88423,-0.50106 2.11234,-0.50106 0.17684,0 0.38316,0.0197 0.20632,0.01 0.59932,0.0589 z"
           style="fill:#797979;stroke-width:0.50113302"
           id="path85797" />
      </g>
      <g
         aria-label="boolean"
         transform="rotate(0.221)"
         style="font-weight:700;font-size:20.12120056px;line-height:1.25;font-family:sans-serif;-inkscape-font-specification:'sans-serif, Bold';font-variant-ligatures:normal;font-variant-caps:normal;font-variant-numeric:normal;font-feature-settings:normal;text-align:start;letter-spacing:0;word-spacing:0;fill:#9d539f;stroke-width:0.754843"
         id="text2844">
        <path
           d="m 387.84086,257.33267 q 1.12985,0 1.71934,-0.82528 0.59931,-0.82528 0.59931,-2.39725 0,-1.57197 -0.59931,-2.39726 -0.58949,-0.82528 -1.71934,-0.82528 -1.12985,0 -1.73899,0.83511 -0.59931,0.82528 -0.59931,2.38743 0,1.56214 0.59931,2.39725 0.60914,0.82528 1.73899,0.82528 z m -2.3383,-7.12298 q 0.72703,-0.96283 1.61126,-1.41477 0.88424,-0.46177 2.03374,-0.46177 2.03373,0 3.34043,1.62109 1.3067,1.61127 1.3067,4.1559 0,2.54462 -1.3067,4.16571 -1.3067,1.61127 -3.34043,1.61127 -1.1495,0 -2.03374,-0.45194 -0.88423,-0.46176 -1.61126,-1.4246 v 1.59162 h -3.51728 v -15.28739 h 3.51728 z"
           style="fill:#797979;stroke-width:0.50113302"
           id="path85728" />
        <path
           d="m 401.62506,250.8483 q -1.16915,0 -1.78811,0.84494 -0.60914,0.8351 -0.60914,2.4169 0,1.58179 0.60914,2.42672 0.61896,0.83511 1.78811,0.83511 1.1495,0 1.75864,-0.83511 0.60914,-0.84493 0.60914,-2.42672 0,-1.5818 -0.60914,-2.4169 -0.60914,-0.84494 -1.75864,-0.84494 z m 0,-2.51515 q 2.83937,0 4.43099,1.53267 1.60144,1.53267 1.60144,4.24432 0,2.71164 -1.60144,4.24431 -1.59162,1.53267 -4.43099,1.53267 -2.84919,0 -4.46046,-1.53267 -1.60144,-1.53267 -1.60144,-4.24431 0,-2.71165 1.60144,-4.24432 1.61127,-1.53267 4.46046,-1.53267 z"
           style="fill:#797979;stroke-width:0.50113302"
           id="path85730" />
        <path
           d="m 415.44856,250.8483 q -1.16915,0 -1.78811,0.84494 -0.60914,0.8351 -0.60914,2.4169 0,1.58179 0.60914,2.42672 0.61896,0.83511 1.78811,0.83511 1.14951,0 1.75864,-0.83511 0.60914,-0.84493 0.60914,-2.42672 0,-1.5818 -0.60914,-2.4169 -0.60913,-0.84494 -1.75864,-0.84494 z m 0,-2.51515 q 2.83937,0 4.43099,1.53267 1.60144,1.53267 1.60144,4.24432 0,2.71164 -1.60144,4.24431 -1.59162,1.53267 -4.43099,1.53267 -2.84919,0 -4.46046,-1.53267 -1.60144,-1.53267 -1.60144,-4.24431 0,-2.71165 1.60144,-4.24432 1.61127,-1.53267 4.46046,-1.53267 z"
           style="fill:#797979;stroke-width:0.50113302"
           id="path85732" />
        <path
           d="m 424.03544,244.31481 h 3.51728 v 15.28739 h -3.51728 z"
           style="fill:#797979;stroke-width:0.50113302"
           id="path85734" />
        <path
           d="m 441.91659,254.07084 v 1.00213 h -8.22337 q 0.12773,1.23792 0.89406,1.85689 0.76634,0.61896 2.14181,0.61896 1.1102,0 2.26953,-0.32422 1.16915,-0.33404 2.39725,-1.00213 v 2.71165 q -1.24775,0.47159 -2.4955,0.70738 -1.24775,0.24562 -2.4955,0.24562 -2.98674,0 -4.64713,-1.51302 -1.65057,-1.52284 -1.65057,-4.26396 0,-2.692 1.62109,-4.23449 1.63092,-1.5425 4.48011,-1.5425 2.59375,0 4.14607,1.56215 1.56215,1.56214 1.56215,4.17554 z m -3.61553,-1.16915 q 0,-1.00213 -0.58949,-1.61127 -0.57966,-0.61896 -1.52284,-0.61896 -1.02178,0 -1.6604,0.57966 -0.63861,0.56984 -0.79581,1.65057 z"
           style="fill:#797979;stroke-width:0.50113302"
           id="path85736" />
        <path
           d="m 449.51116,254.6505 q -1.10038,0 -1.66039,0.37334 -0.55019,0.37335 -0.55019,1.10038 0,0.66809 0.44212,1.05126 0.45194,0.37334 1.24775,0.37334 0.9923,0 1.67021,-0.70739 0.67792,-0.71721 0.67792,-1.78811 v -0.40282 z m 5.37417,-1.32635 v 6.27805 h -3.54675 v -1.63091 q -0.70739,1.00213 -1.59162,1.46389 -0.88423,0.45194 -2.15163,0.45194 -1.70952,0 -2.78042,-0.9923 -1.06108,-1.00213 -1.06108,-2.59375 0,-1.93549 1.32635,-2.83937 1.33617,-0.90388 4.18536,-0.90388 h 2.07304 v -0.2751 q 0,-0.8351 -0.65827,-1.21827 -0.65826,-0.39299 -2.05338,-0.39299 -1.12985,0 -2.10251,0.22597 -0.97265,0.22597 -1.80776,0.67791 v -2.68217 q 1.12985,-0.2751 2.26953,-0.41265 1.13968,-0.14737 2.27935,-0.14737 2.97692,0 4.29344,1.17898 1.32635,1.16915 1.32635,3.81202 z"
           style="fill:#797979;stroke-width:0.50113302"
           id="path85738" />
        <path
           d="m 469.21972,252.90169 v 6.70051 h -3.53693 v -1.09055 -4.03799 q 0,-1.4246 -0.0688,-1.96497 -0.0589,-0.54036 -0.21615,-0.79581 -0.20632,-0.34386 -0.56001,-0.53053 -0.35369,-0.1965 -0.80564,-0.1965 -1.10037,0 -1.72916,0.85476 -0.62879,0.84493 -0.62879,2.34813 v 5.41346 h -3.51728 v -11.00378 h 3.51728 v 1.61127 q 0.79581,-0.96283 1.68987,-1.41477 0.89406,-0.46177 1.97478,-0.46177 1.90602,0 2.8885,1.16915 0.9923,1.16916 0.9923,3.39939 z"
           style="fill:#797979;stroke-width:0.50113302"
           id="path85740" />
      </g>
    </g>
  </switch>
</svg>
