<?xml version="1.0" encoding="UTF-8" standalone="no"?>
<svg
   viewBox="0 0 595.3 200"
   version="1.1"
   id="svg6444"
   sodipodi:docname="terminal_object.svg"
   width="595.29999"
   height="200"
   inkscape:version="1.2.2 (1:1.2.2+202305151914+b0a8486541)"
   xmlns:inkscape="http://www.inkscape.org/namespaces/inkscape"
   xmlns:sodipodi="http://sodipodi.sourceforge.net/DTD/sodipodi-0.dtd"
   xmlns="http://www.w3.org/2000/svg"
   xmlns:svg="http://www.w3.org/2000/svg">
  <defs
     id="defs6448" />
  <sodipodi:namedview
     id="namedview6446"
     pagecolor="#ffffff"
     bordercolor="#666666"
     borderopacity="1.0"
     inkscape:showpageshadow="2"
     inkscape:pageopacity="0.0"
     inkscape:pagecheckerboard="0"
     inkscape:deskcolor="#d1d1d1"
     showgrid="false"
     inkscape:zoom="2.1023899"
     inkscape:cx="278.25476"
     inkscape:cy="139.84085"
     inkscape:window-width="1080"
     inkscape:window-height="1864"
     inkscape:window-x="0"
     inkscape:window-y="0"
     inkscape:window-maximized="1"
     inkscape:current-layer="svg6444"
     inkscape:lockguides="false" />
  <circle
     opacity="0.14"
     stroke="#000000"
     stroke-width="3.98632"
     stroke-miterlimit="10"
     cx="384.84485"
     cy="-102.10798"
     r="20.529545"
     id="circle6392"
     transform="scale(1,-1)" />
  <circle
     opacity="0.14"
     stroke="#000000"
     stroke-width="3.98632"
     stroke-miterlimit="10"
     cx="301.0657"
     cy="-47.894047"
     r="20.529545"
     id="circle6394"
     transform="scale(1,-1)" />
  <circle
     fill="#cee7cc"
     stroke="#808285"
     stroke-width="3.98632"
     stroke-miterlimit="10"
     cx="299.5376"
     cy="-48.491978"
     r="20.529545"
     id="circle6396"
     transform="scale(1,-1)"
     style="fill:#1a1a1a" />
  <circle
     opacity="0.14"
     stroke="#000000"
     stroke-width="3.98632"
     stroke-miterlimit="10"
     cx="247.71545"
     cy="-106.69225"
     r="20.529545"
     id="circle6410"
     transform="scale(1,-1)" />
  <circle
     fill="#caebfc"
     stroke="#bcbec0"
     stroke-width="3.98632"
     stroke-miterlimit="10"
     cx="245.52298"
     cy="-107.95457"
     r="20.529545"
     id="circle6426"
     transform="scale(1,-1)" />
  <ellipse
     fill="#e8cae1"
     stroke="#bcbec0"
     stroke-width="3.98632"
     stroke-miterlimit="10"
     cx="383.18387"
     cy="-102.90524"
     rx="19.998035"
     ry="20.529545"
     id="ellipse6428"
     transform="scale(1,-1)" />
  <circle
     opacity="0.14"
     stroke="#000000"
     stroke-width="3.98632"
     stroke-miterlimit="10"
     cx="319.26987"
     cy="-112.8046"
     r="20.529545"
     id="circle6434"
     transform="scale(1,-1)" />
  <circle
     fill="#e2f3f0"
     stroke="#bcbec0"
     stroke-width="3.98632"
     stroke-miterlimit="10"
     cx="317.07742"
     cy="-113.46899"
     r="20.529545"
     id="circle6436"
     transform="scale(1,-1)" />
  <path
     fill="#d1d3d4"
     d="m 259.4751,89.551068 0.79726,-0.398631 c 0.53151,-0.265755 1.1959,-0.664387 2.0596,-1.129458 1.66097,-0.996579 3.85345,-2.391791 5.91304,-3.986318 2.0596,-1.594527 4.05276,-3.255494 5.44797,-4.584267 0.73083,-0.664386 1.26234,-1.262334 1.66097,-1.660966 0.26575,-0.332194 0.46507,-0.465071 0.46507,-0.465071 l -5.51441,-5.315092 c 5.18222,-1.129458 10.36443,-3.056179 15.48021,-5.913041 -0.0664,5.780163 -0.99658,11.958958 -2.9233,18.071313 l -5.51441,-5.315091 -0.46507,0.465071 -1.72741,1.727405 c -1.46165,1.395212 -3.52124,3.122615 -5.64728,4.783582 -2.12604,1.594527 -4.38495,3.122617 -6.11236,4.119196 -0.8637,0.53151 -1.59453,0.930142 -2.12604,1.195896 -0.5315,0.265755 -0.79726,0.465071 -0.79726,0.465071 z m 52.28722,2.723985 c -0.26575,-2.591107 -0.59794,-5.182215 -1.12945,-7.773322 l -0.13288,-0.597947 -7.50757,1.594526 c 0,0 0.39863,-0.930141 0.8637,-2.325351 0.53151,-1.461651 1.12946,-3.388372 1.59453,-5.44797 0.99658,-4.052758 1.46165,-8.437709 1.46165,-8.437709 0,0 0.19932,0.132877 0.59795,0.46507 0.39863,0.265755 0.93014,0.730826 1.59453,1.195896 1.32877,1.063019 2.98974,2.45823 4.6507,4.052758 3.32194,3.122617 6.31168,6.843182 6.31168,6.843182 l -7.50757,1.594527 0.13287,0.597948 c 0.53151,2.657545 0.93015,5.315091 1.12946,7.972638 z m 53.68244,-0.730825 c 0,0 -0.66439,-0.132877 -1.79385,-0.398632 -0.59794,-0.132877 -1.26233,-0.265754 -2.05959,-0.46507 -0.79727,-0.199316 -1.66097,-0.398632 -2.65755,-0.664387 -3.85344,-0.99658 -8.90278,-2.657546 -13.7528,-4.717145 -4.85002,-2.059597 -9.56717,-4.584265 -12.95554,-6.710302 -1.66097,-1.063019 -3.12262,-1.926721 -4.05276,-2.591108 l -0.59795,-0.398632 -4.38495,6.311672 c -2.85686,-5.514408 -5.18221,-11.095255 -6.84318,-16.676102 5.64729,1.328773 11.29457,2.059598 16.74254,2.258914 l -4.31851,6.311672 0.59795,0.398632 c 0.93014,0.664387 2.32535,1.528089 3.98632,2.524669 3.32193,2.059599 7.9062,4.517829 12.68978,6.510988 4.78358,2.059597 9.70004,3.654125 13.48705,4.650705 0.93014,0.265755 1.79384,0.465071 2.5911,0.664387 0.79727,0.199316 1.46165,0.332193 1.99316,0.46507 1.12946,0.265755 1.72741,0.398632 1.72741,0.398632 z"
     id="path6438"
     sodipodi:nodetypes="cscscccccccccccscccccccccccccccccccscscccccccccccsccc"
     style="fill:#4d4d4d;stroke-width:0.664387" />
  <path
     d="m 283.27211,79.120013 m 3.61382,48.175287 c 0,0 -0.062,-0.70266 -0.1277,-1.90889 -0.0426,-0.63629 -0.10461,-1.33896 -0.13925,-2.19385 -0.0346,-0.85489 -0.0887,-1.77615 -0.11542,-2.84962 -0.13422,-4.14171 0.0447,-9.67287 0.68023,-15.1218 0.63554,-5.448916 1.77465,-10.90145 2.90511,-14.909688 0.57497,-1.970942 1.00925,-3.684322 1.40027,-4.808311 l 0.22291,-0.714209 -7.59084,-2.530007 c 4.67119,-4.470681 9.56461,-8.429886 14.6528,-11.725377 0.32828,6.031103 1.25389,11.886909 2.65204,17.387774 l -7.57137,-2.463632 -0.22291,0.714202 c -0.39101,1.123996 -0.84478,2.77101 -1.35338,4.72246 -1.08356,3.922392 -2.19526,9.222698 -2.78391,14.585778 -0.65502,5.38255 -0.8065,10.76149 -0.69178,14.83681 0.007,1.00713 0.0613,1.92839 0.096,2.78327 0.0346,0.85489 0.0967,1.55756 0.11976,2.12748 0.0656,1.20622 0.10822,1.84252 0.10822,1.84252 z"
     style="fill:#4d4d4d;stroke-width:1.04111"
     id="path8135" />
  <circle
     opacity="0.14"
     stroke="#000000"
     stroke-width="3.98632"
     stroke-miterlimit="10"
     cx="288.47"
     cy="-149.55676"
     r="20.529545"
     id="circle6392-2"
     transform="scale(1,-1)" />
  <ellipse
     fill="#e8cae1"
     stroke="#bcbec0"
     stroke-width="3.98632"
     stroke-miterlimit="10"
     cx="286.80905"
     cy="-148.34586"
     rx="19.998035"
     ry="20.529545"
     id="ellipse6428-2"
     transform="scale(1,-1)"
     style="fill:#ac9393" />
  <g
     aria-label="1"
     id="text8350"
     style="font-size:28.9566px;line-height:1.25;word-spacing:0px;fill:#808285;stroke-width:0.723916">
    <path
       d="m 292.07148,56.117915 h 4.80725 V 42.473814 l -4.9345,1.018005 V 39.78741 l 4.90622,-1.018005 h 5.17486 v 17.34851 h 4.80725 v 3.760965 h -14.76108 z"
       style="font-weight:bold;-inkscape-font-specification:'sans-serif Bold'"
       id="path16332" />
  </g>
</svg>
