<?xml version="1.0" encoding="UTF-8" standalone="no"?>
<svg
   viewBox="0 0 594.57228 294.58228"
   version="1.1"
   id="svg5846"
   sodipodi:docname="triple_product_associativity.svg"
   inkscape:version="1.2.2 (b0a8486541, 2022-12-01)"
   width="594.57227"
   height="294.58228"
   xmlns:inkscape="http://www.inkscape.org/namespaces/inkscape"
   xmlns:sodipodi="http://sodipodi.sourceforge.net/DTD/sodipodi-0.dtd"
   xmlns="http://www.w3.org/2000/svg"
   xmlns:svg="http://www.w3.org/2000/svg"
   xmlns:rdf="http://www.w3.org/1999/02/22-rdf-syntax-ns#"
   xmlns:cc="http://creativecommons.org/ns#"
   xmlns:dc="http://purl.org/dc/elements/1.1/">
  <metadata
     id="metadata5852">
    <rdf:RDF>
      <cc:Work
         rdf:about="">
        <dc:format>image/svg+xml</dc:format>
        <dc:type
           rdf:resource="http://purl.org/dc/dcmitype/StillImage" />
      </cc:Work>
    </rdf:RDF>
  </metadata>
  <defs
     id="defs5850" />
  <sodipodi:namedview
     pagecolor="#ffffff"
     bordercolor="#666666"
     borderopacity="1"
     objecttolerance="10"
     gridtolerance="10"
     guidetolerance="10"
     inkscape:pageopacity="0"
     inkscape:pageshadow="2"
     inkscape:window-width="1080"
     inkscape:window-height="1853"
     id="namedview5848"
     showgrid="false"
     inkscape:zoom="1.4044005"
     inkscape:cx="298.34794"
     inkscape:cy="134.22097"
     inkscape:window-x="0"
     inkscape:window-y="0"
     inkscape:window-maximized="1"
     inkscape:current-layer="svg5846"
     inkscape:showpageshadow="2"
     inkscape:pagecheckerboard="0"
     inkscape:deskcolor="#d1d1d1" />
  <circle
     fill="#e6e7e8"
     stroke="#808285"
     cx="214.85254"
     cy="-225.86761"
     r="32.905243"
     id="circle5828-2"
     style="stroke-width:5.69788;stroke-miterlimit:10;stroke-dasharray:none"
     transform="scale(1,-1)" />
  <circle
     fill="#39bced"
     stroke="#008dd2"
     cx="199.32947"
     cy="-217.05756"
     r="14.408016"
     id="circle5832-7"
     style="stroke-width:4.9683;stroke-miterlimit:10;stroke-dasharray:none"
     transform="scale(1,-1)" />
  <circle
     fill="#d71920"
     stroke="#be1e2d"
     cx="530.43158"
     cy="58.275051"
     r="24.666586"
     id="circle23279-1"
     style="stroke-width:7.82113;stroke-dasharray:none" />
  <circle
     fill="#d71920"
     stroke="#be1e2d"
     cx="214.81598"
     cy="243.07628"
     r="13.975347"
     id="circle23279-3-6-2"
     style="stroke-width:4.43121;stroke-dasharray:none" />
  <g
     style="display:inline;fill:#dddddd;stroke:#838383;stroke-width:6.389;stroke-miterlimit:10"
     id="g1482-7-0-4-0-2-6"
     transform="matrix(-0.12613165,-0.05604007,0.06932736,-0.18004986,112.95264,147.05013)"
     inkscape:transform-center-x="-6.445157"
     inkscape:transform-center-y="4.3753812">
    <path
       style="stroke-width:36.8983"
       inkscape:connector-curvature="0"
       id="path1478-7-9-9-4-6-1"
       d="m 300.11147,308.89056 c 11.45734,-5.05862 23.31627,-9.60141 35.44547,-13.89029 -8.57402,-7.71646 -17.73121,-15.11655 -27.47244,-22.20324 -2.74504,12.60642 -4.33418,22.49306 -7.97303,36.09353 z" />
    <path
       style="display:inline;fill:none;stroke:#838383;stroke-width:14.2769;stroke-miterlimit:10;paint-order:markers fill stroke"
       inkscape:connector-curvature="0"
       id="path1480-1-3-7-9-7-0-5"
       d="m -95.244763,297.21501 c 82.600454,-24.0111 325.521373,-31.07804 394.101123,-8.52096"
       sodipodi:nodetypes="cc" />
  </g>
  <g
     style="display:inline;fill:#dddddd;stroke:#838383;stroke-width:6.389;stroke-miterlimit:10"
     id="g1482-7-0-4-0-2-6-3"
     transform="matrix(0.11567794,-0.07528809,-0.09693778,-0.16681517,252.71297,139.42715)"
     inkscape:transform-center-x="5.6311245"
     inkscape:transform-center-y="5.59396">
    <path
       style="stroke-width:36.8983"
       inkscape:connector-curvature="0"
       id="path1478-7-9-9-4-6-1-9"
       d="m 300.11147,308.89056 c 11.45734,-5.05862 23.31627,-9.60141 35.44547,-13.89029 -8.57402,-7.71646 -17.73121,-15.11655 -27.47244,-22.20324 -2.74504,12.60642 -4.33418,22.49306 -7.97303,36.09353 z" />
    <path
       style="display:inline;fill:none;stroke:#838383;stroke-width:14.2769;stroke-miterlimit:10;paint-order:markers fill stroke"
       inkscape:connector-curvature="0"
       id="path1480-1-3-7-9-7-0-5-4"
       d="m -95.244763,297.21501 c 82.600454,-24.0111 325.521373,-31.07804 394.101123,-8.52096"
       sodipodi:nodetypes="cc" />
  </g>
  <g
     style="display:inline;fill:#dddddd;stroke:#838383;stroke-width:6.389;stroke-miterlimit:10"
     id="g1482-7-0-4-0-2-6-3-0"
     transform="matrix(0.13786249,-0.00660422,5.1822735e-4,-0.19293514,284.53253,295.00212)"
     inkscape:transform-center-x="7.6847149"
     inkscape:transform-center-y="2.1989507">
    <path
       style="stroke-width:36.8983"
       inkscape:connector-curvature="0"
       id="path1478-7-9-9-4-6-1-9-4"
       d="m 300.11147,308.89056 c 11.45734,-5.05862 23.31627,-9.60141 35.44547,-13.89029 -8.57402,-7.71646 -17.73121,-15.11655 -27.47244,-22.20324 -2.74504,12.60642 -4.33418,22.49306 -7.97303,36.09353 z" />
    <path
       style="display:inline;fill:none;stroke:#838383;stroke-width:14.2769;stroke-miterlimit:10;paint-order:markers fill stroke"
       inkscape:connector-curvature="0"
       id="path1480-1-3-7-9-7-0-5-4-4"
       d="m -274.14329,318.81359 c 144.42277,-42.50075 465.6383,-49.89434 572.99965,-30.11954"
       sodipodi:nodetypes="cc" />
  </g>
  <g
     style="display:inline;fill:#dddddd;stroke:#838383;stroke-width:6.389;stroke-miterlimit:10"
     id="g1482-7-0-4-0-2-6-3-0-4"
     transform="matrix(-0.13786249,0.00660422,-5.1822735e-4,0.19293514,302.0759,165.33754)"
     inkscape:transform-center-x="-7.6847208"
     inkscape:transform-center-y="-2.1989575">
    <path
       style="stroke-width:36.8983"
       inkscape:connector-curvature="0"
       id="path1478-7-9-9-4-6-1-9-4-4"
       d="m 300.11147,308.89056 c 11.45734,-5.05862 23.31627,-9.60141 35.44547,-13.89029 -8.57402,-7.71646 -17.73121,-15.11655 -27.47244,-22.20324 -2.74504,12.60642 -4.33418,22.49306 -7.97303,36.09353 z" />
    <path
       style="display:inline;fill:none;stroke:#838383;stroke-width:14.2769;stroke-miterlimit:10;paint-order:markers fill stroke"
       inkscape:connector-curvature="0"
       id="path1480-1-3-7-9-7-0-5-4-4-7"
       d="m -274.14329,318.81359 c 144.42277,-42.50075 465.6383,-49.89434 572.99965,-30.11954"
       sodipodi:nodetypes="cc" />
  </g>
  <g
     style="display:inline;fill:#dddddd;stroke:#838383;stroke-width:6.389;stroke-miterlimit:10"
     id="g1482-7-0-4-0-2-6-0-9"
     transform="matrix(0.07601509,-0.08098273,-0.15624347,-0.0799614,531.9083,136.24437)"
     inkscape:transform-center-x="2.233501"
     inkscape:transform-center-y="5.1824677">
    <path
       style="stroke-width:40.7472"
       inkscape:connector-curvature="0"
       id="path1478-7-9-9-4-6-1-8-84"
       d="m 295.15682,304.74262 c 12.3155,-3.8458 25.2443,-7.09673 38.56143,-10.04547 -12.23035,-9.23016 -25.07211,-18.20258 -38.52711,-26.9205 0.0353,12.91627 0.73407,23.11868 -0.0343,36.96597 z" />
    <path
       style="display:inline;fill:none;stroke:#838383;stroke-width:16.6056;stroke-miterlimit:10;stroke-dasharray:none;paint-order:markers fill stroke"
       inkscape:connector-curvature="0"
       id="path1480-1-3-7-9-7-0-5-8-8"
       d="M -1168.599,274.05386 C -794.05622,130.70212 -76.102256,184.64211 298.85636,288.69405"
       sodipodi:nodetypes="cc" />
  </g>
  <g
     style="display:inline;fill:#dddddd;stroke:#838383;stroke-width:6.389;stroke-miterlimit:10"
     id="g1482-7-0-4-0-2-6-0-3-1"
     transform="matrix(-0.1037245,-0.05829801,0.12102274,-0.09594457,206.32393,175.59697)"
     inkscape:transform-center-x="-4.7555982"
     inkscape:transform-center-y="4.0528018">
    <path
       style="stroke-width:43.6944"
       inkscape:connector-curvature="0"
       id="path1478-7-9-9-4-6-1-8-8-0"
       d="m 267.82992,303.14139 c 10.99131,-3.63785 22.70865,-6.50281 34.86876,-8.96874 -13.8801,-12.2191 -28.29068,-24.17653 -43.23425,-35.87638 2.96853,15.67326 5.95971,28.1094 8.36549,44.84512 z" />
    <path
       style="display:inline;fill:none;stroke:#838383;stroke-width:17.8432;stroke-miterlimit:10;stroke-dasharray:none;paint-order:markers fill stroke"
       inkscape:connector-curvature="0"
       id="path1480-1-3-7-9-7-0-5-8-5-3"
       d="m -1171.6386,260.15545 c 463.90794,-126.87753 1014.90533,-110.2228 1470.49496,28.5386"
       sodipodi:nodetypes="cc" />
  </g>
  <g
     style="display:inline;fill:#dddddd;stroke:#838383;stroke-width:6.389;stroke-miterlimit:10"
     id="g1482-7-0-4-0-2-6-0-9-6"
     transform="matrix(-0.07601509,-0.08098273,0.15624347,-0.0799614,54.288098,137.73811)"
     inkscape:transform-center-x="-2.2334987"
     inkscape:transform-center-y="5.1824736">
    <path
       style="stroke-width:40.7472"
       inkscape:connector-curvature="0"
       id="path1478-7-9-9-4-6-1-8-84-3"
       d="m 295.15682,304.74262 c 12.3155,-3.8458 25.2443,-7.09673 38.56143,-10.04547 -12.23035,-9.23016 -25.07211,-18.20258 -38.52711,-26.9205 0.0353,12.91627 0.73407,23.11868 -0.0343,36.96597 z" />
    <path
       style="display:inline;fill:none;stroke:#838383;stroke-width:16.6056;stroke-miterlimit:10;stroke-dasharray:none;paint-order:markers fill stroke"
       inkscape:connector-curvature="0"
       id="path1480-1-3-7-9-7-0-5-8-8-1"
       d="M -1168.599,274.05386 C -794.05622,130.70212 -76.102256,184.64211 298.85636,288.69405"
       sodipodi:nodetypes="cc" />
  </g>
  <g
     style="display:inline;fill:#dddddd;stroke:#838383;stroke-width:6.389;stroke-miterlimit:10"
     id="g1482-7-0-4-0-2-6-0-3-1-7"
     transform="matrix(0.1037245,-0.05829801,-0.12102274,-0.09594457,381.59614,173.64336)"
     inkscape:transform-center-x="4.7556004"
     inkscape:transform-center-y="4.0528016">
    <path
       style="stroke-width:43.6944"
       inkscape:connector-curvature="0"
       id="path1478-7-9-9-4-6-1-8-8-0-5"
       d="m 267.82992,303.14139 c 10.99131,-3.63785 22.70865,-6.50281 34.86876,-8.96874 -13.8801,-12.2191 -28.29068,-24.17653 -43.23425,-35.87638 2.96853,15.67326 5.95971,28.1094 8.36549,44.84512 z" />
    <path
       style="display:inline;fill:none;stroke:#838383;stroke-width:17.8432;stroke-miterlimit:10;stroke-dasharray:none;paint-order:markers fill stroke"
       inkscape:connector-curvature="0"
       id="path1480-1-3-7-9-7-0-5-8-5-3-9"
       d="m -1171.6386,260.15545 c 463.90794,-126.87753 1014.90533,-110.2228 1470.49496,28.5386"
       sodipodi:nodetypes="cc" />
  </g>
  <g
     style="display:inline;fill:#dddddd;stroke:#838383;stroke-width:6.389;stroke-miterlimit:10"
     id="g1482-7-0-4-0-2-6-8"
     transform="matrix(-0.11386636,-0.07800086,0.10085302,-0.16447767,330.28593,139.61858)"
     inkscape:transform-center-x="-5.4973489"
     inkscape:transform-center-y="5.7254694">
    <path
       style="stroke-width:36.8983"
       inkscape:connector-curvature="0"
       id="path1478-7-9-9-4-6-1-1"
       d="m 300.11147,308.89056 c 11.45734,-5.05862 23.31627,-9.60141 35.44547,-13.89029 -8.57402,-7.71646 -17.73121,-15.11655 -27.47244,-22.20324 -2.74504,12.60642 -4.33418,22.49306 -7.97303,36.09353 z" />
    <path
       style="display:inline;fill:none;stroke:#838383;stroke-width:14.2769;stroke-miterlimit:10;paint-order:markers fill stroke"
       inkscape:connector-curvature="0"
       id="path1480-1-3-7-9-7-0-5-2"
       d="m -95.244763,297.21501 c 82.600454,-24.0111 325.521373,-31.07804 394.101123,-8.52096"
       sodipodi:nodetypes="cc" />
  </g>
  <g
     style="display:inline;fill:#dddddd;stroke:#838383;stroke-width:6.389;stroke-miterlimit:10"
     id="g1482-7-0-4-0-2-6-3-9"
     transform="matrix(0.12613165,-0.05604007,-0.06932736,-0.18004986,474.7415,142.70442)"
     inkscape:transform-center-x="6.4451604"
     inkscape:transform-center-y="4.3753923">
    <path
       style="stroke-width:36.8983"
       inkscape:connector-curvature="0"
       id="path1478-7-9-9-4-6-1-9-3"
       d="m 300.11147,308.89056 c 11.45734,-5.05862 23.31627,-9.60141 35.44547,-13.89029 -8.57402,-7.71646 -17.73121,-15.11655 -27.47244,-22.20324 -2.74504,12.60642 -4.33418,22.49306 -7.97303,36.09353 z" />
    <path
       style="display:inline;fill:none;stroke:#838383;stroke-width:14.2769;stroke-miterlimit:10;paint-order:markers fill stroke"
       inkscape:connector-curvature="0"
       id="path1480-1-3-7-9-7-0-5-4-9"
       d="m -95.244763,297.21501 c 82.600454,-24.0111 325.521373,-31.07804 394.101123,-8.52096"
       sodipodi:nodetypes="cc" />
  </g>
  <circle
     fill="#39bced"
     stroke="#008dd2"
     stroke-width="6"
     stroke-miterlimit="10"
     cx="61.75359"
     cy="-53.409119"
     r="25.402214"
     id="circle5770"
     style="stroke-width:8.75938;stroke-miterlimit:10;stroke-dasharray:none"
     transform="scale(1,-1)" />
  <circle
     fill="#fce600"
     stroke="#ffdd00"
     cx="292.31525"
     cy="49.645149"
     r="24.666586"
     id="circle23275-77"
     style="stroke:#d4aa00;stroke-width:7.82113;stroke-dasharray:none" />
  <circle
     fill="#fce600"
     stroke="#ffdd00"
     cx="228.74922"
     cy="216.05322"
     r="13.906822"
     id="circle23275-77-5"
     style="stroke:#d4aa00;stroke-width:4.40948;stroke-dasharray:none" />
  <circle
     fill="#e6e7e8"
     stroke="#808285"
     cx="368.11786"
     cy="-225.29239"
     r="32.905243"
     id="circle5828-2-3"
     style="stroke-width:5.69788;stroke-miterlimit:10;stroke-dasharray:none"
     transform="scale(1,-1)" />
  <circle
     fill="#39bced"
     stroke="#008dd2"
     cx="352.59479"
     cy="-216.4823"
     r="14.408016"
     id="circle5832-7-6"
     style="stroke-width:4.9683;stroke-miterlimit:10;stroke-dasharray:none"
     transform="scale(1,-1)" />
  <circle
     fill="#d71920"
     stroke="#be1e2d"
     cx="368.0813"
     cy="242.50102"
     r="13.975347"
     id="circle23279-3-6-2-5"
     style="stroke-width:4.43121;stroke-dasharray:none" />
  <circle
     fill="#fce600"
     stroke="#ffdd00"
     cx="382.01453"
     cy="215.47794"
     r="13.906822"
     id="circle23275-77-5-6"
     style="stroke:#d4aa00;stroke-width:4.40948;stroke-dasharray:none" />
  <g
     stroke-width="6"
     stroke-miterlimit="10"
     id="g5834"
     style="stroke-width:4;stroke-miterlimit:10;stroke-dasharray:none"
     transform="matrix(1.4244693,0,0,-1.4244693,-143.22224,305.01136)">
    <circle
       fill="#e6e7e8"
       stroke="#808285"
       cx="227.39999"
       cy="143.2"
       r="23.1"
       id="circle5828"
       style="stroke-width:4;stroke-miterlimit:10;stroke-dasharray:none" />
    <circle
       fill="#fce600"
       stroke="#ffdd00"
       cx="238.71127"
       cy="-143.56845"
       r="11.787579"
       id="circle23275-1"
       style="stroke:#d4aa00;stroke-width:3.73753;stroke-dasharray:none"
       transform="scale(1,-1)" />
    <circle
       fill="#39bced"
       stroke="#008dd2"
       cx="215.8"
       cy="143.2"
       r="11.6"
       id="circle5832"
       style="stroke-width:4;stroke-miterlimit:10;stroke-dasharray:none" />
  </g>
  <g
     id="g33521"
     transform="matrix(2.480846,0,0,2.480846,-546.90193,-463.71766)">
    <circle
       fill="#e6e7e8"
       stroke="#808285"
       cx="384.31192"
       cy="-226.6891"
       r="13.263719"
       id="circle5828-7"
       style="stroke-width:2.29675;stroke-miterlimit:10;stroke-dasharray:none"
       transform="scale(1,-1)" />
    <circle
       fill="#fce600"
       stroke="#ffdd00"
       cx="377.9801"
       cy="226.99071"
       r="6.7682738"
       id="circle23275-1-7"
       style="stroke:#d4aa00;stroke-width:2.14604;stroke-miterlimit:10;stroke-dasharray:none" />
    <circle
       fill="#d71920"
       stroke="#be1e2d"
       cx="391.12344"
       cy="226.69675"
       r="6.657836"
       id="circle23279-1-7"
       style="stroke-width:2.11103;stroke-dasharray:none" />
  </g>
</svg>
