<svg xmlns="http://www.w3.org/2000/svg" viewBox="0 0 595.3 284.7"><switch><g><circle opacity=".14" stroke="#000" stroke-width="6" stroke-miterlimit="10" cx="311.8" cy="147" r="114.9"/><circle fill="#E6E7E8" stroke="#808285" stroke-width="6" stroke-miterlimit="10" cx="301.1" cy="134" r="114.9"/><circle fill="#FFF" stroke="#939598" stroke-width="6" stroke-miterlimit="10" cx="272" cy="188.2" r="41.3"/><g fill="#808285"><path d="M246.8 193.5c.8 0 1.8-.2 2.9-.6v4.4c-.8.3-1.6.6-2.3.7-.7.1-1.6.2-2.6.2-2 0-3.5-.5-4.3-1.5-.9-1-1.3-2.5-1.3-4.5V185h-2.1v-2.4l2.7-1.9 1.5-3.6h3.9v3.5h4.2v4.5h-4.2v6.7c0 1.1.5 1.7 1.6 1.7zM263.2 180.3c.5 0 1 0 1.5.1l.3.1-.5 5.6c-.5-.1-1.2-.2-2-.2-1.3 0-2.3.3-2.8.9-.6.6-.9 1.5-.9 2.6v8.5h-6v-17.3h4.4l.9 2.8h.3c.5-.9 1.2-1.7 2.1-2.2.9-.7 1.8-.9 2.7-.9zM279.7 197.9l-.7-2.2h-.4c-.5.8-1.2 1.4-2.1 1.8-.9.4-1.9.6-3.1.6-1.9 0-3.4-.6-4.4-1.7-1.1-1.1-1.6-2.7-1.6-4.7v-11.3h6v9.5c0 1.1.2 2 .5 2.6.3.6.8.9 1.6.9 1 0 1.8-.4 2.2-1.2.4-.8.7-2.2.7-4.1v-7.6h6v17.3h-4.7zM296.7 198.2c-2.9 0-5.1-.8-6.7-2.3-1.6-1.5-2.4-3.7-2.4-6.5 0-2.9.7-5.2 2.2-6.7 1.5-1.6 3.6-2.3 6.3-2.3 2.6 0 4.6.7 6 2 1.4 1.4 2.1 3.3 2.1 5.9v2.7h-10.7c0 1 .4 1.7 1.1 2.3s1.6.8 2.7.8c1 0 2-.1 2.9-.3.9-.2 1.8-.5 2.9-1v4.3c-.9.5-1.9.8-2.9 1-.9 0-2.1.1-3.5.1zm-.3-13.9c-.7 0-1.3.2-1.8.7-.5.4-.8 1.1-.8 2.1h5.1c0-.8-.3-1.5-.7-2-.5-.5-1.1-.8-1.8-.8z"/></g><g><circle fill="#FFF" stroke="#939598" stroke-width="6" stroke-miterlimit="10" cx="325" cy="95.4" r="41.3"/><g fill="#808285"><path d="M300.5 92.4h-3.3v11.4h-5.3V92.4h-2v-2.6l2.2-1.3v-.3c0-2 .4-3.5 1.2-4.4.8-.9 2.2-1.3 4-1.3.7 0 1.4.1 2 .2.6.1 1.4.3 2.2.6l-1.1 3.4c-.7-.2-1.3-.3-1.9-.3-.4 0-.7.1-.9.4s-.3.7-.3 1.2v.4h3.3v4zM312.7 103.8l-1-2h-.1c-.7.9-1.4 1.5-2.2 1.8-.7.3-1.7.5-2.9.5-1.5 0-2.6-.4-3.4-1.3s-1.3-2.1-1.3-3.7.6-2.9 1.7-3.7c1.1-.8 2.8-1.3 5-1.4h2.5v-.2c0-1.3-.6-1.9-1.9-1.9-1.1 0-2.6.4-4.3 1.1l-1.5-3.5c1.8-.9 4.1-1.4 6.8-1.4 2 0 3.5.5 4.6 1.5 1.1 1 1.6 2.4 1.6 4.1v10.1h-3.6zm-4-3.5c.6 0 1.2-.2 1.7-.6s.7-.9.7-1.6v-1.2l-1.2.1c-1.8.1-2.6.7-2.6 1.9-.1 1 .4 1.4 1.4 1.4zM325.3 103.8H320V82.6h5.3v21.2zM340.9 99.1c0 1.7-.6 2.9-1.7 3.7-1.1.8-2.7 1.3-4.9 1.3-1.1 0-2.1-.1-3-.2-.8-.1-1.7-.3-2.6-.7V99c.8.4 1.7.7 2.7.9 1 .2 1.9.4 2.6.4 1.2 0 1.7-.3 1.7-.8 0-.3-.2-.5-.5-.7s-1.3-.6-2.8-1.2c-1.4-.6-2.4-1.2-3-2-.6-.7-.8-1.7-.8-2.8 0-1.4.6-2.6 1.7-3.4 1.1-.8 2.7-1.2 4.7-1.2 1 0 2 .1 2.9.3.9.2 1.8.5 2.8 1l-1.4 3.4c-.7-.3-1.5-.6-2.2-.8s-1.4-.3-1.9-.3c-.9 0-1.3.2-1.3.6 0 .3.2.5.5.7s1.2.6 2.6 1.1c1.1.4 1.9.9 2.4 1.3s.9.9 1.2 1.5c.2.5.3 1.2.3 2.1zM351.3 104.1c-2.6 0-4.6-.7-6-2.1-1.4-1.4-2.1-3.3-2.1-5.8 0-2.6.7-4.6 2-6 1.3-1.4 3.2-2.1 5.6-2.1 2.3 0 4.1.6 5.4 1.8 1.3 1.2 1.9 3 1.9 5.2v2.4h-9.5c0 .9.4 1.5.9 2 .6.5 1.4.7 2.4.7.9 0 1.8-.1 2.6-.3.8-.2 1.6-.5 2.6-.9v3.8c-.8.4-1.7.7-2.6.9s-1.9.4-3.2.4zm-.3-12.4c-.6 0-1.2.2-1.6.6-.4.4-.7 1-.7 1.9h4.6c0-.7-.2-1.3-.6-1.8-.5-.4-1-.7-1.7-.7z"/></g></g></g></switch></svg>