<?xml version="1.0" encoding="UTF-8" standalone="no"?>
<svg
   viewBox="0 0 595.3 359"
   version="1.1"
   id="svg521"
   sodipodi:docname="char_boolean.svg"
   inkscape:version="1.2.2 (1:1.2.2+202212051552+b0a8486541)"
   xmlns:inkscape="http://www.inkscape.org/namespaces/inkscape"
   xmlns:sodipodi="http://sodipodi.sourceforge.net/DTD/sodipodi-0.dtd"
   xmlns="http://www.w3.org/2000/svg"
   xmlns:svg="http://www.w3.org/2000/svg">
  <defs
     id="defs525" />
  <sodipodi:namedview
     id="namedview523"
     pagecolor="#ffffff"
     bordercolor="#666666"
     borderopacity="1.0"
     inkscape:showpageshadow="2"
     inkscape:pageopacity="0.0"
     inkscape:pagecheckerboard="0"
     inkscape:deskcolor="#d1d1d1"
     showgrid="false"
     inkscape:zoom="0.87854863"
     inkscape:cx="217.97314"
     inkscape:cy="259.51893"
     inkscape:window-width="1080"
     inkscape:window-height="1864"
     inkscape:window-x="0"
     inkscape:window-y="0"
     inkscape:window-maximized="1"
     inkscape:current-layer="switch519" />
  <switch
     id="switch519">
    <circle
       opacity="0.14"
       stroke="#000000"
       stroke-width="6"
       stroke-miterlimit="10"
       cx="467.5"
       cy="187.3"
       r="114.9"
       id="circle395" />
    <circle
       fill="#e6e7e8"
       stroke="#808285"
       stroke-width="6"
       stroke-miterlimit="10"
       cx="456.79999"
       cy="174.39999"
       r="114.9"
       id="circle397" />
    <circle
       fill="#ffffff"
       stroke="#939598"
       stroke-width="6"
       stroke-miterlimit="10"
       cx="427.60001"
       cy="228.60001"
       r="41.299999"
       id="circle399" />
    <g
       fill="#808285"
       id="g403">
      <path
         d="m 402.5,233.8 c 0.8,0 1.8,-0.2 2.9,-0.6 v 4.4 c -0.8,0.3 -1.6,0.6 -2.3,0.7 -0.7,0.1 -1.6,0.2 -2.6,0.2 -2,0 -3.5,-0.5 -4.3,-1.5 -0.9,-1 -1.3,-2.5 -1.3,-4.5 v -7.1 h -2.1 V 223 l 2.7,-1.9 1.5,-3.6 h 3.9 v 3.5 h 4.2 v 4.5 h -4.2 v 6.7 c 0,1.1 0.5,1.6 1.6,1.6 z m 16.3,-13.2 c 0.5,0 1,0 1.5,0.1 l 0.3,0.1 -0.5,5.6 c -0.5,-0.1 -1.2,-0.2 -2,-0.2 -1.3,0 -2.3,0.3 -2.8,0.9 -0.6,0.6 -0.9,1.5 -0.9,2.6 v 8.5 h -6 v -17.3 h 4.4 l 0.9,2.8 h 0.3 c 0.5,-0.9 1.2,-1.7 2.1,-2.2 0.9,-0.6 1.8,-0.9 2.7,-0.9 z m 16.6,17.6 -0.7,-2.2 h -0.4 c -0.5,0.8 -1.2,1.4 -2.1,1.8 -0.9,0.4 -1.9,0.6 -3.1,0.6 -1.9,0 -3.4,-0.6 -4.4,-1.7 -1.1,-1.1 -1.6,-2.7 -1.6,-4.7 v -11.3 h 6 v 9.5 c 0,1.1 0.2,2 0.5,2.6 0.3,0.6 0.8,0.9 1.6,0.9 1,0 1.8,-0.4 2.2,-1.2 0.4,-0.8 0.7,-2.2 0.7,-4.1 v -7.6 h 6 v 17.3 h -4.7 z m 17,0.3 c -2.9,0 -5.1,-0.8 -6.7,-2.3 -1.6,-1.5 -2.4,-3.7 -2.4,-6.5 0,-2.9 0.7,-5.2 2.2,-6.7 1.5,-1.6 3.6,-2.3 6.3,-2.3 2.6,0 4.6,0.7 6,2 1.4,1.4 2.1,3.3 2.1,5.9 v 2.7 h -10.7 c 0,1 0.4,1.7 1.1,2.3 0.7,0.6 1.6,0.8 2.7,0.8 1,0 2,-0.1 2.9,-0.3 0.9,-0.2 1.8,-0.5 2.9,-1 v 4.3 c -0.9,0.5 -1.9,0.8 -2.9,1 -1,0 -2.1,0.1 -3.5,0.1 z M 452,224.7 c -0.7,0 -1.3,0.2 -1.8,0.7 -0.5,0.4 -0.8,1.1 -0.8,2.1 h 5.1 c 0,-0.8 -0.3,-1.5 -0.7,-2 -0.4,-0.6 -1,-0.8 -1.8,-0.8 z"
         id="path401" />
    </g>
    <circle
       fill="#ffffff"
       stroke="#939598"
       stroke-width="6"
       stroke-miterlimit="10"
       cx="480.60001"
       cy="135.8"
       r="41.299999"
       id="circle405" />
    <g
       fill="#808285"
       id="g409">
      <path
         d="m 456.2,132.7 h -3.3 v 11.4 h -5.3 v -11.4 h -2 v -2.6 l 2.2,-1.3 v -0.3 c 0,-2 0.4,-3.5 1.2,-4.4 0.8,-0.9 2.2,-1.3 4,-1.3 0.7,0 1.4,0.1 2,0.2 0.6,0.1 1.4,0.3 2.2,0.6 L 456,127 c -0.7,-0.2 -1.3,-0.3 -1.9,-0.3 -0.4,0 -0.7,0.1 -0.9,0.4 -0.2,0.3 -0.3,0.7 -0.3,1.2 v 0.4 h 3.3 z m 12.1,11.5 -1,-2 h -0.1 c -0.7,0.9 -1.4,1.5 -2.2,1.8 -0.7,0.3 -1.7,0.5 -2.9,0.5 -1.5,0 -2.6,-0.4 -3.4,-1.3 -0.8,-0.9 -1.3,-2.1 -1.3,-3.7 0,-1.6 0.6,-2.9 1.7,-3.7 1.1,-0.8 2.8,-1.3 5,-1.4 l 2.6,-0.1 v -0.2 c 0,-1.3 -0.6,-1.9 -1.9,-1.9 -1.1,0 -2.6,0.4 -4.3,1.1 l -1.5,-3.5 c 1.8,-0.9 4.1,-1.4 6.8,-1.4 2,0 3.5,0.5 4.6,1.5 1.1,1 1.6,2.4 1.6,4.1 v 10.1 h -3.7 z m -3.9,-3.5 c 0.6,0 1.2,-0.2 1.7,-0.6 0.5,-0.4 0.7,-0.9 0.7,-1.6 v -1.2 l -1.2,0.1 c -1.8,0.1 -2.6,0.7 -2.6,1.9 -0.1,0.9 0.4,1.4 1.4,1.4 z m 16.6,3.5 h -5.3 V 123 h 5.3 z m 15.6,-4.8 c 0,1.7 -0.6,2.9 -1.7,3.7 -1.1,0.8 -2.7,1.3 -4.9,1.3 -1.1,0 -2.1,-0.1 -3,-0.2 -0.8,-0.1 -1.7,-0.3 -2.6,-0.7 v -4.3 c 0.8,0.4 1.7,0.7 2.7,0.9 1,0.2 1.9,0.4 2.6,0.4 1.2,0 1.7,-0.3 1.7,-0.8 0,-0.3 -0.2,-0.5 -0.5,-0.7 -0.3,-0.2 -1.3,-0.6 -2.8,-1.2 -1.4,-0.6 -2.4,-1.2 -3,-2 -0.6,-0.7 -0.8,-1.7 -0.8,-2.8 0,-1.4 0.6,-2.6 1.7,-3.4 1.1,-0.8 2.7,-1.2 4.7,-1.2 1,0 2,0.1 2.9,0.3 0.9,0.2 1.8,0.5 2.8,1 l -1.4,3.4 c -0.7,-0.3 -1.5,-0.6 -2.2,-0.8 -0.7,-0.2 -1.4,-0.3 -1.9,-0.3 -0.9,0 -1.3,0.2 -1.3,0.6 0,0.3 0.2,0.5 0.5,0.7 0.3,0.2 1.2,0.6 2.6,1.1 1.1,0.4 1.9,0.9 2.4,1.3 0.5,0.4 0.9,0.9 1.2,1.5 0.2,0.7 0.3,1.4 0.3,2.2 z m 10.4,5 c -2.6,0 -4.6,-0.7 -6,-2.1 -1.4,-1.4 -2.1,-3.3 -2.1,-5.8 0,-2.6 0.7,-4.6 2,-6 1.3,-1.4 3.2,-2.1 5.6,-2.1 2.3,0 4.1,0.6 5.4,1.8 1.3,1.2 1.9,3 1.9,5.2 v 2.4 h -9.5 c 0,0.9 0.4,1.5 0.9,2 0.6,0.5 1.4,0.7 2.4,0.7 0.9,0 1.8,-0.1 2.6,-0.3 0.8,-0.2 1.6,-0.5 2.6,-0.9 v 3.8 c -0.8,0.4 -1.7,0.7 -2.6,0.9 -0.9,0.2 -2,0.4 -3.2,0.4 z m -0.3,-12.3 c -0.6,0 -1.2,0.2 -1.6,0.6 -0.4,0.4 -0.7,1 -0.7,1.9 h 4.6 c 0,-0.7 -0.2,-1.3 -0.6,-1.8 -0.5,-0.5 -1,-0.7 -1.7,-0.7 z"
         id="path407" />
    </g>
    <circle
       opacity="0.14"
       stroke="#000000"
       stroke-width="6"
       stroke-miterlimit="10"
       cx="174.2"
       cy="182.8"
       r="150"
       id="circle411" />
    <circle
       fill="#e6e7e8"
       stroke="#808285"
       stroke-width="6"
       stroke-miterlimit="10"
       cx="166.5"
       cy="171.60001"
       r="150"
       id="circle413" />
    <circle
       fill="#ffffff"
       stroke="#939598"
       stroke-width="6"
       stroke-miterlimit="10"
       cx="210.2"
       cy="142.7"
       r="24.6"
       id="circle415" />
    <text
       fill="#808285"
       font-family="OpenSans-Extrabold"
       font-size="32.669px"
       id="text417"
       x="198.761"
       y="152.752">A</text>
    <circle
       fill="#ffffff"
       stroke="#939598"
       stroke-width="6"
       stroke-miterlimit="10"
       cx="149.60001"
       cy="158.2"
       r="24.6"
       id="circle419" />
    <path
       fill="#808285"
       d="m 151.7,150.8 c -1.5,0 -2.7,0.6 -3.5,1.8 -0.8,1.2 -1.3,2.9 -1.3,5.1 0,4.5 1.7,6.7 5.1,6.7 1,0 2,-0.1 3,-0.4 1,-0.3 1.9,-0.6 2.9,-1 v 5.3 c -1.9,0.9 -4.1,1.3 -6.6,1.3 -3.5,0 -6.2,-1 -8.1,-3.1 -1.9,-2.1 -2.8,-5 -2.8,-8.9 0,-2.4 0.5,-4.5 1.4,-6.4 0.9,-1.8 2.2,-3.2 3.9,-4.2 1.7,-1 3.7,-1.5 6,-1.5 2.5,0 4.9,0.5 7.2,1.6 l -1.9,5 c -0.9,-0.4 -1.7,-0.7 -2.6,-1 -0.8,-0.2 -1.7,-0.3 -2.7,-0.3 z"
       id="path421" />
    <circle
       fill="#ffffff"
       stroke="#939598"
       stroke-width="6"
       stroke-miterlimit="10"
       cx="156.10001"
       cy="73.900002"
       r="24.6"
       id="circle423" />
    <path
       fill="#808285"
       d="m 147.8,61.7 h 8.1 c 3.2,0 5.5,0.5 7.1,1.4 1.5,0.9 2.3,2.4 2.3,4.4 0,1.3 -0.3,2.4 -1,3.3 -0.7,0.9 -1.6,1.5 -2.6,1.8 v 0.2 c 1.4,0.4 2.5,1 3.1,1.9 0.6,0.9 1,2.1 1,3.5 0,2.1 -0.8,3.8 -2.4,5 -1.6,1.2 -3.8,1.8 -6.5,1.8 h -9.1 z m 6.3,8.9 h 1.9 c 0.9,0 1.6,-0.2 2.1,-0.6 0.5,-0.4 0.7,-0.9 0.7,-1.7 0,-1.3 -1,-2 -3,-2 H 154 v 4.3 z m 0,4.7 v 4.9 h 2.2 c 2,0 3,-0.8 3,-2.5 0,-0.8 -0.3,-1.4 -0.8,-1.8 -0.5,-0.4 -1.3,-0.6 -2.3,-0.6 z"
       id="path425" />
    <circle
       fill="#ffffff"
       stroke="#939598"
       stroke-width="6"
       stroke-miterlimit="10"
       cx="110.3"
       cy="217.3"
       r="24.6"
       id="circle427" />
    <path
       fill="#808285"
       d="m 122.8,215.2 c 0,3.9 -1.1,6.9 -3.2,9 -2.1,2.1 -5.2,3.2 -9,3.2 H 103 V 204 h 8.1 c 3.7,0 6.6,1 8.7,2.9 2,1.9 3,4.7 3,8.3 z m -6.5,0.2 c 0,-2.1 -0.4,-3.7 -1.3,-4.8 -0.8,-1 -2.1,-1.5 -3.9,-1.5 h -1.8 v 13.1 h 1.4 c 1.9,0 3.3,-0.6 4.2,-1.7 0.9,-1.1 1.4,-2.8 1.4,-5.1 z"
       id="path429" />
    <circle
       fill="#ffffff"
       stroke="#939598"
       stroke-width="6"
       stroke-miterlimit="10"
       cx="265"
       cy="109.6"
       r="24.6"
       id="circle431" />
    <path
       fill="#808285"
       d="M 271.5,119.7 H 257.7 V 96.4 h 13.8 v 5.1 H 264 v 3.7 h 7 v 5.1 h -7 v 4.4 h 7.5 z"
       id="path433" />
    <circle
       fill="#ffffff"
       stroke="#939598"
       stroke-width="6"
       stroke-miterlimit="10"
       cx="134.89999"
       cy="111.1"
       r="24.6"
       id="circle435" />
    <path
       fill="#808285"
       d="m 133.8,121.2 h -6.2 V 97.9 h 13.8 v 5.1 h -7.6 v 4.5 h 7 v 5.1 h -7 z"
       id="path437" />
    <circle
       fill="#ffffff"
       stroke="#939598"
       stroke-width="6"
       stroke-miterlimit="10"
       cx="191.10001"
       cy="109"
       r="24.6"
       id="circle439" />
    <path
       fill="#808285"
       d="m 191.2,105.4 h 10.1 V 118 c -2.7,0.9 -5.7,1.4 -9,1.4 -3.6,0 -6.4,-1 -8.3,-3.1 -2,-2.1 -2.9,-5.1 -2.9,-8.9 0,-3.8 1.1,-6.7 3.2,-8.8 2.1,-2.1 5.2,-3.1 9,-3.1 1.5,0 2.9,0.1 4.2,0.4 1.3,0.3 2.4,0.6 3.4,1.1 l -2,4.9 c -1.7,-0.8 -3.5,-1.2 -5.5,-1.2 -1.8,0 -3.3,0.6 -4.3,1.8 -1,1.2 -1.5,2.9 -1.5,5.1 0,2.2 0.5,3.8 1.4,5 0.9,1.1 2.2,1.7 3.9,1.7 0.9,0 1.8,-0.1 2.6,-0.3 v -3.7 h -4.2 v -4.9 z"
       id="path441" />
    <circle
       fill="#ffffff"
       stroke="#939598"
       stroke-width="6"
       stroke-miterlimit="10"
       cx="227"
       cy="109"
       r="24.6"
       id="circle443" />
    <path
       fill="#808285"
       d="m 216.8,100.4 h 6.6 l 3.1,10.4 c 0.2,0.5 0.3,1.2 0.3,2 h 0.1 c 0.1,-0.7 0.2,-1.4 0.4,-1.9 l 3.1,-10.4 h 6.4 l -7.1,19.2 c -0.9,2.4 -2,4.2 -3.4,5.2 -1.3,1 -3.1,1.5 -5.2,1.5 -0.8,0 -1.7,-0.1 -2.6,-0.3 v -4.9 c 0.6,0.1 1.2,0.2 1.9,0.2 0.6,0 1,-0.1 1.5,-0.3 0.4,-0.2 0.8,-0.5 1.1,-0.9 0.3,-0.4 0.6,-1 1,-1.9 z"
       id="path445" />
    <circle
       fill="#ffffff"
       stroke="#939598"
       stroke-width="6"
       stroke-miterlimit="10"
       cx="185.60001"
       cy="167.3"
       r="24.6"
       id="circle447" />
    <path
       fill="#808285"
       d="m 181.5,167.6 -5.5,-8.9 h 7.1 l 2.7,5.1 2.8,-5.1 h 7.1 l -5.7,8.9 5.9,9.2 h -7.1 l -3,-5.5 -3,5.5 h -7.1 z"
       id="path449" />
    <circle
       fill="#ffffff"
       stroke="#939598"
       stroke-width="6"
       stroke-miterlimit="10"
       cx="145.3"
       cy="196.2"
       r="24.6"
       id="circle451" />
    <path
       fill="#808285"
       d="m 143.3,205.7 h -6.6 l 4.6,-6.9 c -0.9,-0.5 -1.7,-1.2 -2.2,-2.2 -0.5,-0.9 -0.8,-2 -0.8,-3.3 0,-1.9 0.7,-3.3 2.1,-4.3 1.4,-1 3.3,-1.5 5.8,-1.5 h 8.6 v 18.1 h -6.2 v -6.3 h -1.8 z m 1.3,-12.1 c 0,0.6 0.2,1 0.6,1.3 0.4,0.3 1,0.5 1.7,0.5 h 1.8 v -3.6 h -1.8 c -0.7,0 -1.3,0.2 -1.7,0.5 -0.4,0.3 -0.6,0.7 -0.6,1.3 z"
       id="path453" />
    <circle
       fill="#ffffff"
       stroke="#939598"
       stroke-width="6"
       stroke-miterlimit="10"
       cx="100.5"
       cy="169.3"
       r="24.6"
       id="circle455" />
    <path
       fill="#808285"
       d="m 98.4,184.7 c -1.1,0 -2.2,-0.1 -3.3,-0.3 v -4.9 c 0.3,0.1 0.7,0.1 1.1,0.2 0.4,0.1 0.8,0.1 1.2,0.1 1,0 1.8,-0.3 2.2,-0.9 0.4,-0.6 0.7,-1.7 0.7,-3.2 v -21.6 h 6.3 v 21 c 0,3.2 -0.7,5.5 -2.1,7.2 -1.3,1.6 -3.4,2.4 -6.1,2.4 z"
       id="path457" />
    <circle
       fill="#ffffff"
       stroke="#939598"
       stroke-width="6"
       stroke-miterlimit="10"
       cx="97.699997"
       cy="128.10001"
       r="24.6"
       id="circle459" />
    <path
       fill="#808285"
       d="m 107.3,139.2 h -7.1 l -4.6,-8.9 -1.9,1.1 v 7.8 h -6.3 v -23.3 h 6.3 V 126 c 0.3,-0.6 1,-1.6 1.9,-3 l 4.9,-7.1 h 6.9 l -7.4,10.4 z"
       id="path461" />
    <circle
       fill="#ffffff"
       stroke="#939598"
       stroke-width="6"
       stroke-miterlimit="10"
       cx="216.8"
       cy="257.60001"
       r="24.6"
       id="circle463" />
    <path
       fill="#808285"
       d="m 221.3,268.7 -1.2,-2.4 H 220 c -0.8,1 -1.7,1.8 -2.6,2.1 -0.9,0.3 -2,0.6 -3.4,0.6 -1.7,0 -3,-0.5 -4,-1.5 -1,-1 -1.5,-2.5 -1.5,-4.3 0,-1.9 0.7,-3.4 2,-4.3 1.3,-0.9 3.3,-1.5 5.8,-1.6 l 3,-0.1 v -0.3 c 0,-1.5 -0.7,-2.2 -2.2,-2.2 -1.3,0 -3,0.4 -5,1.3 l -1.8,-4.1 c 2.1,-1.1 4.8,-1.6 8,-1.6 2.3,0 4.1,0.6 5.4,1.7 1.3,1.1 1.9,2.8 1.9,4.8 v 11.9 z m -4.6,-4.1 c 0.8,0 1.4,-0.2 1.9,-0.7 0.5,-0.5 0.8,-1.1 0.8,-1.9 v -1.4 l -1.4,0.1 c -2.1,0.1 -3.1,0.8 -3.1,2.3 0,1.1 0.6,1.6 1.8,1.6 z"
       id="path465" />
    <circle
       fill="#ffffff"
       stroke="#939598"
       stroke-width="6"
       stroke-miterlimit="10"
       cx="188.5"
       cy="236.89999"
       r="24.6"
       id="circle467" />
    <path
       fill="#808285"
       d="m 196.7,236.4 c 0,4.1 -0.7,7.1 -2.1,9.1 -1.4,1.9 -3.5,2.9 -6.3,2.9 -2.8,0 -4.9,-1 -6.3,-3 -1.4,-2 -2.1,-5 -2.1,-8.9 0,-4.1 0.7,-7.2 2.1,-9.1 1.4,-1.9 3.5,-2.9 6.3,-2.9 2.8,0 4.9,1 6.3,3 1.4,1.9 2.1,4.9 2.1,8.9 z m -10.6,0 c 0,2.6 0.2,4.5 0.5,5.4 0.3,1 0.9,1.5 1.7,1.5 0.8,0 1.3,-0.5 1.7,-1.5 0.3,-1 0.5,-2.8 0.5,-5.4 0,-2.6 -0.2,-4.4 -0.5,-5.4 -0.3,-1 -0.9,-1.6 -1.7,-1.6 -0.8,0 -1.3,0.5 -1.7,1.5 -0.3,1 -0.5,2.8 -0.5,5.5 z"
       id="path469" />
    <circle
       fill="#ffffff"
       stroke="#939598"
       stroke-width="6"
       stroke-miterlimit="10"
       cx="151.3"
       cy="253.89999"
       r="24.6"
       id="circle471" />
    <path
       fill="#808285"
       d="m 158.2,263 h -15 v -3.6 l 7.5,-9.7 h -7 v -4.8 h 14.2 v 3.9 l -7.2,9.4 h 7.5 z"
       id="path473" />
    <circle
       fill="#ffffff"
       stroke="#939598"
       stroke-width="6"
       stroke-miterlimit="10"
       cx="216.60001"
       cy="146.7"
       r="24.6"
       id="circle479" />
    <circle
       fill="#ffffff"
       stroke="#939598"
       stroke-width="6"
       stroke-miterlimit="10"
       cx="263.5"
       cy="236.89999"
       r="24.6"
       id="circle483" />
    <path
       fill="#808285"
       d="M 271.9,246 H 255 v -4.1 l 5.7,-5.8 c 1.6,-1.7 2.7,-2.9 3.2,-3.5 0.5,-0.6 0.8,-1.2 1,-1.6 0.2,-0.4 0.3,-0.9 0.3,-1.4 0,-0.6 -0.2,-1.1 -0.6,-1.4 -0.4,-0.4 -0.9,-0.5 -1.7,-0.5 -0.7,0 -1.5,0.2 -2.2,0.6 -0.7,0.4 -1.6,1 -2.5,1.9 l -3.5,-4.1 c 1.2,-1.1 2.2,-1.8 3,-2.3 0.8,-0.5 1.7,-0.8 2.7,-1.1 1,-0.3 2,-0.4 3.2,-0.4 1.5,0 2.9,0.3 4,0.8 1.1,0.5 2.1,1.3 2.8,2.3 0.7,1 1,2.1 1,3.3 0,0.9 -0.1,1.8 -0.3,2.5 -0.2,0.8 -0.6,1.5 -1.1,2.3 -0.5,0.8 -1.1,1.5 -1.9,2.4 -0.8,0.8 -2.5,2.4 -5.1,4.7 v 0.2 h 8.8 v 5.2 z"
       id="path485" />
    <circle
       fill="#ffffff"
       stroke="#939598"
       stroke-width="6"
       stroke-miterlimit="10"
       cx="259.79999"
       cy="187.39999"
       r="24.6"
       id="circle487" />
    <path
       fill="#808285"
       d="m 224.85413,143.75857 -0.5,2.7 h 3.9 v 4.1 h -4.6 l -1.2,6.2 h -4.2 l 1.2,-6.2 h -2.7 l -1.1,6.2 h -4.3 l 1.1,-6.2 h -3.6 v -4.1 h 4.4 l 0.5,-2.7 h -3.8 v -4.1 h 4.6 l 1.1,-6.2 h 4.3 l -1.2,6.2 h 2.6 l 1.1,-6.2 h 4.3 l -1.2,6.2 h 3.7 v 4.1 z m -7.4,2.7 h 2.6 l 0.5,-2.7 h -2.6 z"
       id="path489" />
    <circle
       fill="#ffffff"
       stroke="#939598"
       stroke-width="6"
       stroke-miterlimit="10"
       cx="222.60001"
       cy="204.39999"
       r="24.6"
       id="circle491" />
    <path
       fill="#808285"
       d="m 236.2,204.5 c 0,2.6 -0.9,4.7 -2.6,6.3 -1.7,1.6 -4.1,2.5 -7.3,2.7 v 7.8 h -5.8 v -7.8 c -3.1,-0.3 -5.5,-1.3 -7.3,-2.9 -1.8,-1.6 -2.6,-3.6 -2.6,-6.1 0,-2.7 0.8,-4.9 2.5,-6.4 1.7,-1.5 4.1,-2.4 7.3,-2.6 v -6.7 h 5.9 v 6.7 c 3.1,0.3 5.5,1.2 7.2,2.8 1.7,1.6 2.7,3.6 2.7,6.2 z m -19.4,0 c 0,1.2 0.3,2.3 1,3.1 0.7,0.8 1.6,1.2 2.6,1.3 v -8.8 c -1,0 -1.9,0.5 -2.6,1.4 -0.7,0.8 -1,1.8 -1,3 z m 13.1,0 c 0,-1.2 -0.3,-2.2 -1,-3.1 -0.7,-0.8 -1.5,-1.3 -2.6,-1.3 v 8.8 c 1,0 1.9,-0.4 2.6,-1.3 0.7,-0.9 1,-1.8 1,-3.1 z"
       id="path493" />
    <circle
       fill="#ffffff"
       stroke="#939598"
       stroke-width="6"
       stroke-miterlimit="10"
       cx="213.10001"
       cy="59.700001"
       r="24.6"
       id="circle495" />
    <path
       fill="#808285"
       d="m 220.2,69.3 -1.6,-1.6 c -1,0.6 -1.7,1 -2.4,1.3 -0.6,0.2 -1.3,0.4 -2.1,0.5 -0.8,0.1 -1.6,0.2 -2.6,0.2 -1.7,0 -3.2,-0.3 -4.5,-0.9 -1.3,-0.6 -2.3,-1.4 -3,-2.4 -0.7,-1 -1,-2.2 -1,-3.5 0,-2.8 1.4,-4.9 4.3,-6.4 -0.7,-0.7 -1.2,-1.5 -1.5,-2.4 -0.4,-0.8 -0.6,-1.8 -0.6,-2.8 0,-1.7 0.7,-3.1 2,-4.1 1.3,-1 3.1,-1.5 5.4,-1.5 2.2,0 4,0.5 5.2,1.5 1.2,1 1.9,2.3 1.9,4.1 0,1.2 -0.3,2.3 -1,3.3 -0.7,1 -1.7,1.9 -3.2,2.8 l 3.2,3 c 0.8,-1.2 1.4,-2.6 1.7,-4.1 h 6.5 c -0.3,1.5 -0.8,2.9 -1.5,4.4 -0.7,1.5 -1.5,2.7 -2.3,3.8 l 5.1,4.9 h -8 z m -10.6,-7 c 0,0.7 0.2,1.2 0.7,1.6 0.5,0.4 1.1,0.6 1.9,0.6 0.6,0 1.1,-0.1 1.6,-0.2 0.5,-0.2 0.8,-0.3 1.1,-0.5 l -4,-4 c -0.9,0.7 -1.3,1.5 -1.3,2.5 z m 4.7,-11.1 c 0,-0.5 -0.2,-0.9 -0.5,-1.1 -0.3,-0.2 -0.7,-0.3 -1.1,-0.3 -0.4,0 -0.8,0.1 -1.2,0.4 -0.3,0.3 -0.5,0.7 -0.5,1.3 0,0.8 0.5,1.6 1.4,2.5 0.6,-0.3 1.1,-0.7 1.4,-1.2 0.3,-0.6 0.5,-1.1 0.5,-1.6 z"
       id="path497" />
    <circle
       fill="#ffffff"
       stroke="#939598"
       stroke-width="6"
       stroke-miterlimit="10"
       cx="179.3"
       cy="287.60001"
       r="24.6"
       id="circle499" />
    <g
       id="g503">
      <path
         fill="#808285"
         d="m 177.8,281.8 c 0,2.3 -0.5,4.1 -1.6,5.4 -1.1,1.3 -2.6,1.9 -4.5,1.9 -1.8,0 -3.3,-0.7 -4.3,-2 -1.1,-1.3 -1.6,-3.1 -1.6,-5.4 0,-2.3 0.5,-4.1 1.6,-5.4 1,-1.3 2.5,-1.9 4.4,-1.9 1.9,0 3.3,0.7 4.4,2 1,1.4 1.6,3.2 1.6,5.4 z m -7.2,0.1 c 0,1.2 0.1,2.1 0.3,2.6 0.2,0.5 0.5,0.8 0.9,0.8 0.4,0 0.7,-0.3 0.9,-0.8 0.2,-0.5 0.3,-1.4 0.3,-2.7 0,-1.2 -0.1,-2.1 -0.3,-2.6 -0.2,-0.5 -0.5,-0.8 -0.9,-0.8 -0.4,0 -0.7,0.3 -0.9,0.8 -0.2,0.6 -0.3,1.5 -0.3,2.7 z m 18.8,-7 -12.9,23.3 h -4.7 l 12.9,-23.3 z m 6.1,16.2 c 0,2.3 -0.5,4.1 -1.6,5.4 -1.1,1.3 -2.6,1.9 -4.5,1.9 -1.8,0 -3.3,-0.7 -4.3,-2 -1.1,-1.3 -1.6,-3.1 -1.6,-5.4 0,-2.3 0.5,-4.1 1.6,-5.4 1,-1.3 2.5,-1.9 4.4,-1.9 1.9,0 3.3,0.7 4.4,2 1.1,1.4 1.6,3.2 1.6,5.4 z m -7.2,0.1 c 0,1.2 0.1,2.1 0.3,2.6 0.2,0.5 0.5,0.8 0.9,0.8 0.5,0 0.8,-0.3 0.9,-0.9 0.1,-0.6 0.3,-1.5 0.3,-2.5 0,-1 -0.1,-1.9 -0.3,-2.5 -0.2,-0.6 -0.5,-0.9 -0.9,-0.9 -0.4,0 -0.7,0.3 -0.9,0.8 -0.2,0.5 -0.3,1.4 -0.3,2.6 z"
         id="path501" />
    </g>
    <g
       id="g515">
      <path
         fill="#6d6e71"
         d="m 237.3,49.2 c 0,0 3.2,0 8.8,-0.1 h 4.7 c 1.7,0 3.5,0.1 5.5,0.2 3.9,0.1 8.3,0.2 13.2,0.6 19.2,1.2 44.9,4.5 69.8,11.2 l 4.7,1.2 c 1.6,0.4 3.1,0.8 4.6,1.3 3.1,0.9 6.1,1.9 9.2,2.8 L 360,67 c 0.7,0.3 1.5,0.5 2.2,0.8 1.5,0.5 3,1 4.4,1.5 1.5,0.5 2.9,1 4.4,1.5 0.7,0.3 1.4,0.5 2.2,0.8 0.7,0.3 1.4,0.5 2.1,0.8 5.6,2.2 11.1,4.2 16.1,6.5 2.5,1.1 5,2.2 7.4,3.2 2.3,1.1 4.6,2.2 6.8,3.2 2.2,1.1 4.3,2 6.2,3 1.9,1 3.8,2 5.5,2.9 3.5,1.8 6.5,3.4 8.9,4.8 0.8,0.5 1.3,0.7 1.3,0.7 l -5.7,10.1 6.4,-0.1 h 3.2 c 1.1,0 2.1,0 3.2,0.1 4.3,0.1 8.7,0.3 13.1,0.4 -2,-3.9 -4.1,-7.7 -6.2,-11.7 -0.5,-1 -1.1,-2 -1.6,-2.9 l -1.7,-2.9 -3.5,-5.8 -5.5,10.1 c 0,0 -0.5,-0.3 -1.3,-0.8 -2.4,-1.5 -5.5,-3 -9,-4.9 -1.8,-0.9 -3.6,-1.9 -5.6,-2.9 -2,-1 -4.1,-2 -6.3,-3 -2.2,-1 -4.5,-2.1 -6.9,-3.3 -2.4,-1 -4.9,-2.1 -7.5,-3.2 -5.1,-2.3 -10.6,-4.3 -16.3,-6.5 -0.7,-0.3 -1.4,-0.5 -2.1,-0.8 -0.7,-0.3 -1.5,-0.5 -2.2,-0.8 -1.5,-0.5 -2.9,-1 -4.4,-1.5 l -4.5,-1.5 c -0.7,-0.3 -1.5,-0.5 -2.3,-0.8 l -2.3,-0.7 c -3.1,-0.9 -6.1,-1.9 -9.2,-2.8 -1.5,-0.5 -3.1,-0.9 -4.7,-1.3 L 339.9,58 c -25.1,-6.8 -51,-10.1 -70.4,-11.3 -4.9,-0.4 -9.3,-0.4 -13.3,-0.6 -2,-0.1 -3.8,-0.1 -5.5,-0.2 H 246 c -5.7,0 -8.9,0.1 -8.9,0.1 z m 53.7,63.5 c 0,0 1.8,0.5 5.1,1.3 1.6,0.4 3.6,0.9 5.8,1.6 1.1,0.4 2.3,0.7 3.5,1.1 1.2,0.4 2.5,0.8 3.9,1.3 5.3,2 11.5,4.5 17.8,7.8 1.6,0.8 3.2,1.7 4.8,2.5 1.6,0.9 3.2,1.9 4.8,2.9 0.8,0.5 1.6,1 2.4,1.4 0.8,0.5 1.6,1 2.4,1.6 1.6,1.1 3.2,2.1 4.7,3.2 12.4,8.8 23.3,19.6 30.6,28.4 1.9,2.1 3.4,4.3 4.8,6.1 0.7,0.9 1.4,1.8 2,2.6 0.6,0.8 1.1,1.6 1.5,2.3 0.4,0.7 0.7,1 0.7,1 l -9.6,6.5 c 1.9,0.8 3.8,1.7 5.7,2.6 1.8,1 3.7,1.9 5.5,3 0.9,0.5 1.9,1 2.8,1.6 l 2.7,1.7 c 1.8,1.1 3.7,2.3 5.5,3.6 l 0.3,-6.6 0.1,-3.4 v -3.4 c 0,-2.3 -0.1,-4.5 -0.2,-6.9 -0.1,-2.3 -0.4,-4.6 -0.6,-6.9 l -9.6,6.5 c 0,0 -0.3,-0.4 -0.7,-1.1 -0.5,-0.7 -1,-1.5 -1.6,-2.3 -0.6,-0.8 -1.3,-1.7 -2,-2.6 -1.4,-1.9 -3,-4.1 -4.9,-6.3 -7.4,-9 -18.5,-20 -31.2,-29 -1.6,-1.1 -3.2,-2.2 -4.8,-3.2 -0.8,-0.5 -1.6,-1.1 -2.4,-1.6 -0.8,-0.5 -1.6,-1 -2.5,-1.5 -1.6,-1 -3.3,-1.9 -4.9,-2.9 -1.7,-0.9 -3.3,-1.7 -4.9,-2.6 -6.4,-3.4 -12.7,-6 -18.2,-8 -1.3,-0.6 -2.7,-0.9 -4,-1.4 -1.3,-0.4 -2.5,-0.8 -3.6,-1.2 -2.2,-0.8 -4.3,-1.2 -5.9,-1.7 -3.3,-0.8 -5.2,-1.3 -5.2,-1.3 z"
         id="path505" />
      <path
         fill="#6d6e71"
         d="m 243.9,148.7 c 0,0 2.7,-0.7 7.4,-2 1.2,-0.3 2.5,-0.7 3.9,-1.1 1.4,-0.4 3,-0.7 4.6,-1.1 3.3,-0.8 7,-1.7 11.1,-2.5 16.3,-3.4 38.4,-6.9 60.6,-7.9 2.8,-0.1 5.6,-0.3 8.3,-0.4 2.8,0 5.5,-0.1 8.3,-0.1 h 4.1 c 1.4,0 2.7,0 4,0.1 2.7,0 5.3,0.1 7.9,0.1 10.4,0.4 20.1,1.1 28.4,2 8.3,0.8 15.2,1.9 20,2.6 0.9,0.2 1.4,0.2 1.4,0.2 L 412,150 c 4,-1.5 8,-3.1 12.1,-4.5 4.1,-1.4 8.2,-2.8 12.4,-4.1 -3.2,-2.9 -6.5,-5.8 -9.9,-8.8 -3.4,-2.9 -6.8,-5.7 -10.3,-8.5 l -1.9,11.4 c 0,0 -0.5,-0.1 -1.4,-0.2 -4.9,-0.7 -11.8,-1.8 -20.2,-2.6 -8.4,-0.9 -18.2,-1.6 -28.7,-2 -2.6,0 -5.3,-0.1 -8,-0.1 -1.4,0 -2.7,0 -4.1,-0.1 h -4.1 c -2.8,0 -5.5,0.1 -8.3,0.1 -2.8,0.1 -5.6,0.3 -8.4,0.4 -22.4,1 -44.7,4.5 -61.1,7.9 -4.1,0.8 -7.9,1.8 -11.2,2.5 -1.7,0.4 -3.2,0.7 -4.7,1.1 -1.4,0.4 -2.7,0.7 -3.9,1.1 -4.7,1.3 -7.4,2 -7.4,2 z m 42.8,40.9 c 0,0 1.3,0 3.6,0.1 2.3,0 5.6,0.3 9.5,0.5 7.9,0.6 18.3,2 28.6,4.3 10.3,2.3 20.3,5.4 27.7,8.2 3.7,1.4 6.7,2.6 8.8,3.5 0.7,0.3 1.1,0.5 1.1,0.5 l -4.6,10.6 c 8.3,-1.2 16.8,-1.9 25.6,-1.9 -4.4,-7.6 -9.5,-15 -15.2,-22.2 l -4.6,10.6 c 0,0 -0.4,-0.2 -1.1,-0.5 -2.1,-1 -5.2,-2.2 -9,-3.6 -7.5,-2.8 -17.7,-6 -28.1,-8.3 -10.4,-2.3 -21,-3.8 -29,-4.4 -4,-0.3 -7.3,-0.5 -9.7,-0.5 -2.3,-0.1 -3.7,-0.1 -3.7,-0.1 z"
         id="path507" />
      <path
         fill="#6d6e71"
         d="m 289.3,221.7 c 0,0 1.7,-1.7 4.6,-4.8 0.7,-0.8 1.5,-1.6 2.4,-2.5 0.9,-0.9 1.9,-1.8 3,-2.8 1.1,-1 2.2,-2 3.4,-3.1 0.6,-0.6 1.2,-1.1 1.9,-1.7 0.6,-0.6 1.3,-1.1 2,-1.7 11,-9.3 27.2,-20 44.7,-28 l 6.6,-3 6.6,-2.7 c 1.1,-0.4 2.2,-0.9 3.3,-1.3 l 3.3,-1.2 c 2.2,-0.8 4.3,-1.6 6.5,-2.4 2.1,-0.8 4.3,-1.4 6.3,-2.1 2.1,-0.7 4.1,-1.4 6.1,-2 4,-1.2 7.7,-2.4 11.2,-3.3 3.5,-0.9 6.7,-1.9 9.5,-2.6 2.9,-0.7 5.3,-1.4 7.4,-1.9 0.8,-0.2 1.3,-0.3 1.3,-0.3 l 2.8,11.2 c 3.1,-3 6.3,-6 9.4,-9 l 9.6,-8.9 -12.6,-3.9 c -4.2,-1.2 -8.5,-2.5 -12.7,-3.7 l 2.8,11.2 c 0,0 -0.5,0.1 -1.3,0.3 -2.1,0.5 -4.6,1.2 -7.4,1.9 -2.9,0.7 -6.1,1.7 -9.6,2.6 -3.5,0.9 -7.3,2.2 -11.3,3.3 -2,0.6 -4,1.3 -6.1,2 -2.1,0.7 -4.2,1.4 -6.4,2.1 -2.1,0.8 -4.3,1.6 -6.5,2.4 l -3.3,1.2 c -1.1,0.4 -2.2,0.9 -3.3,1.3 -2.2,0.9 -4.5,1.8 -6.7,2.7 -2.2,1 -4.4,2 -6.7,3 -17.8,8.1 -34.2,19 -45.4,28.4 -0.7,0.6 -1.4,1.1 -2.1,1.7 -0.6,0.6 -1.3,1.2 -1.9,1.7 -1.2,1.1 -2.4,2.2 -3.5,3.2 -1.1,1 -2.2,1.9 -3,2.9 -0.9,0.9 -1.7,1.8 -2.5,2.6 -3,3.1 -4.7,4.8 -4.7,4.8 z m -50.7,49.1 c 0,0 2.2,0.5 5.9,1.4 0.9,0.2 2,0.5 3.1,0.7 1.1,0.3 2.4,0.5 3.7,0.7 1.3,0.2 2.7,0.5 4.2,0.8 0.7,0.1 1.5,0.3 2.3,0.4 l 2.4,0.3 c 13.2,2 31,2.9 48.6,1.3 4.4,-0.5 8.8,-0.9 13.1,-1.6 2.2,-0.4 4.3,-0.6 6.4,-1 2.1,-0.4 4.2,-0.9 6.2,-1.3 l 3,-0.6 c 1,-0.3 2,-0.5 2.9,-0.8 l 5.7,-1.5 c 3.7,-1 7.1,-2.1 10.3,-3.1 3.1,-1.1 6,-2.2 8.5,-3.1 1.3,-0.4 2.4,-1 3.5,-1.4 1.1,-0.4 2.1,-0.9 3,-1.2 0.8,-0.3 1.2,-0.5 1.2,-0.5 l 4.6,10.6 2.1,-2.7 2,-2.8 3.9,-5.5 1,-1.4 0.9,-1.4 1.8,-2.8 3.5,-5.6 -6.6,-0.2 -3.2,-0.1 -1.6,-0.1 -1.6,-0.1 -6.4,-0.6 -3.1,-0.3 -3.1,-0.5 4.6,10.6 c 0,0 -0.4,0.2 -1.2,0.5 -0.9,0.4 -1.9,0.8 -2.9,1.2 -1.1,0.4 -2.2,1 -3.5,1.4 -2.5,0.9 -5.3,1.9 -8.4,3 -3.1,0.9 -6.5,2.1 -10.1,3.1 -1.8,0.5 -3.7,0.9 -5.6,1.4 -1,0.2 -1.9,0.5 -2.9,0.7 l -3,0.6 c -2,0.4 -4,0.8 -6.1,1.3 -2.1,0.4 -4.2,0.7 -6.3,1 -4.2,0.8 -8.6,1.1 -12.9,1.6 -17.4,1.6 -35,0.6 -47.9,-1.3 l -2.4,-0.3 c -0.8,-0.1 -1.5,-0.3 -2.3,-0.4 -1.5,-0.3 -2.9,-0.5 -4.2,-0.8 -1.3,-0.3 -2.5,-0.4 -3.7,-0.7 -1.1,-0.3 -2.2,-0.5 -3.1,-0.7 -3.7,-0.9 -5.8,-1.4 -5.8,-1.4 z"
         id="path509" />
      <path
         fill="#6d6e71"
         d="m 65.1,232.1 v 2.8 l 0.2,0.8 0.1,0.1 1.6,2.6 c 17.2,28.2 41.3,52.1 69.3,69.7 28,17.6 60.1,28.7 93,31.6 32.9,2.9 66.5,-2 97.3,-14 15.4,-6 30.1,-13.8 43.7,-23.2 1.7,-1.2 3.4,-2.3 5.1,-3.5 l 4.9,-3.8 c 1.6,-1.3 3.3,-2.5 4.9,-3.8 1.6,-1.3 3.2,-2.7 4.7,-4 1.5,-1.4 3.1,-2.8 4.6,-4.2 l 1.9,-1.8 0.5,-0.5 8.1,8.3 c 2.7,-8.8 4.8,-17.6 6.1,-26.3 -8.2,3.2 -16.3,5.7 -24.5,7.5 l 8.1,8.3 -0.5,0.5 -1.9,1.8 c -1.5,1.4 -3,2.8 -4.5,4.1 -1.5,1.3 -3.1,2.7 -4.6,4 -1.5,1.3 -3.2,2.5 -4.8,3.8 l -4.8,3.7 c -1.6,1.2 -3.3,2.3 -5,3.5 -13.4,9.2 -27.9,16.9 -43.1,22.8 -30.3,11.9 -63.4,16.7 -95.8,13.8 -32.4,-2.8 -64.1,-13.8 -91.6,-31.1 -27.6,-17.3 -51.3,-40.9 -68.2,-68.7 l -1.6,-2.5 v -0.1 c 0,-0.2 0.4,1.4 0.2,0.8 v -2.8 z m 181,-24 c 0,0 1.8,0.8 4.8,2.3 1.5,0.7 3.4,1.7 5.6,2.6 1.1,0.5 2.2,1 3.5,1.5 1.2,0.5 2.5,1.1 3.9,1.6 10.8,4.3 25.7,8.9 41,11.8 15.3,2.8 30.9,3.8 42.5,3.6 2.9,0 5.6,-0.2 7.9,-0.2 1.2,-0.1 2.3,-0.1 3.3,-0.1 1,-0.1 2,-0.2 2.8,-0.2 0.8,-0.1 1.3,-0.1 1.3,-0.1 l 0.9,11.5 c 7.7,-4.9 14.9,-10.5 21.5,-16.1 -8.3,-3 -16.2,-6.2 -23.6,-10.1 l 0.9,11.5 c 0,0 -0.5,0 -1.3,0.1 -0.8,0.1 -1.8,0.1 -2.8,0.2 -1,0 -2.1,0.1 -3.3,0.1 -2.3,0.1 -5,0.3 -7.8,0.2 -11.5,0.2 -26.8,-0.8 -41.9,-3.6 -15.1,-2.8 -29.8,-7.3 -40.4,-11.6 -1.4,-0.5 -2.6,-1.1 -3.8,-1.6 -1.2,-0.5 -2.3,-1 -3.4,-1.5 -2.2,-0.9 -4,-1.8 -5.5,-2.5 -3,-1.4 -4.7,-2.3 -4.7,-2.3 z"
         id="path511" />
      <path
         fill="#6d6e71"
         d="m 202.1,181.7 c 0,0 2.5,1.1 6.9,3.2 1.1,0.5 2.3,1.1 3.6,1.7 1.3,0.6 2.8,1.1 4.4,1.8 1.6,0.6 3.2,1.3 5,2 0.9,0.3 1.8,0.7 2.7,1.1 0.9,0.3 1.9,0.7 2.9,1 3.9,1.4 8.1,3 12.7,4.3 2.3,0.7 4.6,1.4 7,2.2 2.4,0.6 4.9,1.3 7.4,2 1.3,0.3 2.5,0.7 3.8,1 l 3.9,0.9 c 2.6,0.6 5.2,1.2 7.9,1.7 l 8.1,1.5 c 1.4,0.2 2.7,0.5 4.1,0.7 1.4,0.2 2.7,0.4 4.1,0.6 2.7,0.4 5.5,0.7 8.2,1.1 2.7,0.3 5.5,0.5 8.2,0.8 1.4,0.1 2.7,0.3 4,0.4 1.3,0.1 2.7,0.1 4,0.2 2.7,0.1 5.3,0.3 7.9,0.4 2.6,0 5.1,0.1 7.6,0.1 2.5,0 4.9,0.1 7.3,0 4.7,-0.2 9.2,-0.2 13.4,-0.6 8.3,-0.5 15.1,-1.4 19.9,-1.9 0.9,-0.1 1.4,-0.2 1.4,-0.2 l 1.6,11.5 c 3.6,-2.8 7.2,-5.5 10.6,-8.4 3.4,-2.9 6.7,-5.8 10,-8.7 -4.2,-1.4 -8.3,-2.8 -12.3,-4.2 -4,-1.5 -8,-3.2 -11.9,-4.8 l 1.6,11.5 c 0,0 -0.5,0.1 -1.4,0.2 -4.8,0.5 -11.5,1.5 -19.7,1.9 -4.1,0.4 -8.5,0.4 -13.2,0.6 -2.3,0.1 -4.8,0.1 -7.2,0 -2.5,0 -5,-0.1 -7.5,-0.1 -2.6,-0.1 -5.2,-0.3 -7.8,-0.4 -1.3,-0.1 -2.6,-0.1 -4,-0.2 -1.3,-0.1 -2.7,-0.2 -4,-0.4 -2.7,-0.3 -5.4,-0.5 -8.1,-0.8 -2.7,-0.4 -5.4,-0.7 -8.1,-1.1 -1.4,-0.2 -2.7,-0.4 -4.1,-0.6 -1.3,-0.2 -2.7,-0.5 -4,-0.7 -2.7,-0.5 -5.4,-0.9 -8,-1.4 -2.6,-0.6 -5.2,-1.2 -7.8,-1.7 -1.3,-0.3 -2.6,-0.5 -3.8,-0.9 -1.3,-0.3 -2.5,-0.7 -3.7,-1 -2.5,-0.7 -4.9,-1.3 -7.3,-1.9 -2.4,-0.7 -4.7,-1.4 -6.9,-2.1 -4.5,-1.3 -8.7,-2.9 -12.5,-4.3 -1,-0.3 -1.9,-0.7 -2.8,-1 -0.9,-0.3 -1.8,-0.7 -2.7,-1.1 -1.7,-0.7 -3.4,-1.4 -4.9,-2 -1.5,-0.6 -3,-1.2 -4.3,-1.8 -1.3,-0.6 -2.5,-1.1 -3.6,-1.6 -4.3,-2 -6.8,-3.1 -6.8,-3.1 z"
         id="path513" />
    </g>
    <circle
       fill="#ffffff"
       stroke="#939598"
       stroke-width="6"
       stroke-miterlimit="10"
       cx="60.200001"
       cy="213.5"
       r="24.6"
       id="circle475" />
    <path
       fill="#808285"
       d="m 66.5,204.2 c 0.5,0 1.1,0 1.5,0.1 l 0.4,0.1 -0.6,5.9 c -0.5,-0.1 -1.2,-0.2 -2.1,-0.2 -1.4,0 -2.3,0.3 -3,0.9 -0.6,0.6 -0.9,1.5 -0.9,2.7 v 8.9 h -6.2 v -18.1 h 4.6 l 1,2.9 h 0.3 c 0.5,-1 1.2,-1.7 2.2,-2.3 0.9,-0.6 1.8,-0.9 2.8,-0.9 z"
       id="path477" />
    <path
       fill="#808285"
       d="m 266.9196,197.46123 h -15 v -3.6 l 7.5,-9.7 h -7 v -4.8 h 14.2 v 3.9 l -7.2,9.4 h 7.5 z"
       id="path481" />
  </switch>
</svg>
