<?xml version="1.0" encoding="UTF-8" standalone="no"?>
<svg
   viewBox="0 0 595.3 432.9"
   version="1.1"
   id="svg21534"
   sodipodi:docname="functions_compose.svg"
   inkscape:version="1.2.2 (b0a8486541, 2022-12-01)"
   xmlns:inkscape="http://www.inkscape.org/namespaces/inkscape"
   xmlns:sodipodi="http://sodipodi.sourceforge.net/DTD/sodipodi-0.dtd"
   xmlns="http://www.w3.org/2000/svg"
   xmlns:svg="http://www.w3.org/2000/svg">
  <defs
     id="defs21538" />
  <sodipodi:namedview
     id="namedview21536"
     pagecolor="#ffffff"
     bordercolor="#666666"
     borderopacity="1.0"
     inkscape:showpageshadow="2"
     inkscape:pageopacity="0.0"
     inkscape:pagecheckerboard="0"
     inkscape:deskcolor="#d1d1d1"
     showgrid="false"
     inkscape:zoom="1.0213338"
     inkscape:cx="297.65"
     inkscape:cy="216.87327"
     inkscape:window-width="1080"
     inkscape:window-height="1853"
     inkscape:window-x="0"
     inkscape:window-y="0"
     inkscape:window-maximized="1"
     inkscape:current-layer="svg21534" />
  <circle
     opacity="0.14"
     stroke="#000000"
     stroke-width="6"
     stroke-miterlimit="10"
     cx="150.39999"
     cy="114.7"
     r="66.599998"
     id="circle21482" />
  <circle
     fill="#f8f6c1"
     stroke="#808285"
     stroke-width="6"
     stroke-miterlimit="10"
     cx="143.8"
     cy="110.5"
     r="66.599998"
     id="circle21484"
     style="fill:#d6d5eb;fill-opacity:1" />
  <circle
     opacity="0.14"
     stroke="#000000"
     stroke-width="6"
     stroke-miterlimit="10"
     cx="403.39999"
     cy="121.5"
     r="62.700001"
     id="circle21486" />
  <circle
     fill="#d6d5eb"
     stroke="#808285"
     stroke-width="6"
     stroke-miterlimit="10"
     cx="397.29999"
     cy="117.6"
     r="62.700001"
     id="circle21488"
     style="fill:#ffd5d5" />
  <path
     fill="#6d6e71"
     d="m 178.5,83.6 c 0,0 0.1,-0.1 0.4,-0.3 0.3,-0.2 0.7,-0.6 1.3,-0.9 1.2,-0.8 3.1,-1.8 5.5,-2.9 5,-2.2 12.5,-4.4 21.8,-6.2 9.3,-1.8 20.3,-3.1 32.1,-3.8 11.8,-0.7 24.5,-0.9 37.1,-0.5 12.6,0.4 25.2,1.4 37,2.8 11.7,1.5 22.6,3.6 31.7,6.1 9.1,2.5 16.5,5.3 21.3,7.9 0.7,0.4 1.1,0.6 1.1,0.6 l -4,7.4 c 2.8,-0.3 5.7,-0.4 8.6,-0.2 2.9,0.2 5.8,0.8 8.8,2 -0.4,-3.2 -1.5,-6.5 -2.9,-9.6 -1.4,-3.1 -3.4,-6.2 -5.4,-9.1 l -4,7.4 c 0,0 -0.4,-0.2 -1.1,-0.6 -5,-2.6 -12.5,-5.5 -21.7,-8 -9.2,-2.5 -20.2,-4.6 -32,-6.1 -11.8,-1.5 -24.5,-2.5 -37.3,-2.9 -25.4,-0.8 -50.9,0.8 -69.7,4.4 -9.4,1.8 -17.1,4 -22.3,6.3 -2.6,1.2 -4.6,2.3 -5.8,3.1 -0.7,0.4 -1.1,0.8 -1.5,1 -0.3,0.2 -0.5,0.4 -0.5,0.4 z"
     id="path21490" />
  <path
     fill="#6d6e71"
     d="m 127.3,69 c 0,0 13.3,-8.9 13.7,-9.2 0.4,-0.3 0.9,-0.8 1.7,-1.2 1.5,-1.1 3.9,-2.5 7.1,-3.9 6.4,-2.8 16.2,-5.6 28.2,-7.6 24,-4 56.7,-5.2 89.2,-2.9 16.3,1.1 32.4,3.1 47.4,5.8 15,2.8 28.7,6.3 40.2,10.6 11.4,4.2 20.3,9 25.9,13.3 0.2,0.1 0.4,0.3 0.6,0.4 l 0.1,0.1 c 0.1,0 0.1,0.1 0.1,0.1 l 0.1,0.1 0.1,0.1 -5.3,6.6 2.1,0.1 c 0.7,0.1 1.4,0.1 2.1,0.3 1.5,0.2 2.8,0.5 4.2,0.9 2.8,0.8 5.5,1.9 8.3,3.6 0.1,-3.2 -0.2,-6.6 -1.1,-10 -0.4,-1.7 -0.9,-3.4 -1.6,-5 -0.3,-0.8 -0.7,-1.7 -1,-2.5 l -1.1,-2.5 -5.3,6.6 -0.1,-0.1 -0.1,-0.1 -0.1,-0.1 -0.1,-0.1 C 382.4,72.3 382.2,72.1 381.9,72 376.1,67.6 367,62.6 355.4,58.4 343.9,54.2 329.9,50.5 314.8,47.8 299.7,45 283.4,43.1 267.2,41.9 c -32.6,-2.3 -65.4,-1.1 -89.7,2.9 -12.1,2 -22.1,4.8 -28.7,7.8 -3.4,1.5 -5.8,2.9 -7.4,4.1 -0.8,0.5 -1.4,1.1 -1.8,1.4 -0.4,0.3 -13.7,9.3 -13.7,9.3 z m -0.9,79.5 c 0,0 0.8,0.8 2.3,2.4 0.8,0.7 1.8,1.6 3,2.6 1.2,0.9 2.6,2.1 4.3,3.2 3.3,2.3 7.5,4.7 12.5,7.1 5,2.3 10.9,4.5 17.4,6.5 13.1,3.9 28.7,6.8 45.5,8.4 16.8,1.7 34.9,2.2 53,1.8 18.1,-0.4 36.1,-1.8 52.9,-3.9 16.8,-2.1 32.4,-4.9 45.6,-8.1 13.2,-3.2 23.9,-6.9 31.2,-10.2 0.5,-0.2 0.9,-0.4 1.2,-0.6 l 0.1,-0.1 3.6,7.6 c 2.1,-2.8 4.1,-5.7 5.8,-8.8 1.7,-3.1 3.1,-6.3 3.4,-9.6 -0.8,0.3 -1.5,0.6 -2.2,0.8 -0.8,0.1 -1.5,0.4 -2.2,0.4 -0.7,0.1 -1.5,0.2 -2.2,0.3 -0.7,0.1 -1.5,0.1 -2.2,0.1 -2.9,0 -5.8,-0.2 -8.7,-0.6 l 3.6,7.6 c 0,0 -0.1,0 -0.1,0.1 -0.3,0.1 -0.7,0.3 -1.2,0.5 -7.1,3.3 -17.7,6.9 -30.8,10.1 -13.1,3.2 -28.6,6 -45.3,8 -16.7,2 -34.6,3.4 -52.7,3.9 -17.9,0.4 -36,-0.1 -52.7,-1.8 -16.8,-1.6 -32.2,-4.4 -45.1,-8.3 -6.4,-1.9 -12.2,-4.1 -17.1,-6.3 -5,-2.3 -9,-4.7 -12.2,-6.9 -1.6,-1.1 -2.9,-2.2 -4.2,-3.1 -1.2,-0.9 -2.1,-1.8 -2.8,-2.6 -1.5,-1.5 -2.2,-2.3 -2.2,-2.3 z"
     id="path21492" />
  <circle
     opacity="0.14"
     stroke="#000000"
     stroke-width="6"
     stroke-miterlimit="10"
     cx="406.39999"
     cy="359.39999"
     r="59.799999"
     id="circle21494" />
  <circle
     fill="#d9ecd5"
     stroke="#808285"
     stroke-width="6"
     stroke-miterlimit="10"
     cx="400.5"
     cy="355.60001"
     r="59.799999"
     id="circle21496" />
  <circle
     fill="#d71920"
     stroke="#be1e2d"
     stroke-width="6"
     stroke-miterlimit="10"
     cx="371.20001"
     cy="376.29999"
     r="9.6000004"
     id="circle21498" />
  <circle
     fill="#f58235"
     stroke="#e76524"
     stroke-width="6"
     stroke-miterlimit="10"
     cx="436.60001"
     cy="381.89999"
     r="9.6000004"
     id="circle21500" />
  <circle
     fill="#8967ac"
     stroke="#651c5f"
     stroke-width="6"
     stroke-miterlimit="10"
     cx="393.29999"
     cy="355.39999"
     r="9.6000004"
     id="circle21502" />
  <circle
     fill="#54b948"
     stroke="#00873a"
     stroke-width="6"
     stroke-miterlimit="10"
     cx="423.89999"
     cy="326"
     r="9.6000004"
     id="circle21504" />
  <path
     fill="#6d6e71"
     d="m 119.9,124.9 c 0,0 0.9,0.7 2.8,1.8 1.8,1.1 4.5,2.7 8.1,4.4 7.1,3.4 17.7,7.4 30.8,10.9 13.1,3.5 28.4,6.6 45.1,9.1 16.7,2.5 34.5,4.3 52.4,5.4 35.8,2.3 71.8,1.5 98.6,-1.9 13.3,-1.7 24.4,-4.2 31.9,-6.7 0.5,-0.2 0.9,-0.3 1.2,-0.4 l 0.1,-0.1 2.8,7.9 c 2.4,-2.6 4.7,-5.3 6.6,-8.2 1.9,-2.9 3.6,-6.1 4.2,-9.2 -0.8,0.2 -1.5,0.4 -2.3,0.6 -0.8,0.1 -1.5,0.2 -2.3,0.3 -0.7,0 -1.5,0.1 -2.2,0.1 -0.7,0 -1.5,-0.1 -2.2,-0.1 -2.9,-0.2 -5.8,-0.8 -8.5,-1.5 l 2.8,7.9 c 0,0 -0.1,0 -0.1,0.1 -0.3,0.1 -0.7,0.2 -1.2,0.4 -7.3,2.6 -18.2,5 -31.5,6.6 -26.5,3.4 -62.4,4.2 -98.2,1.9 -17.9,-1.1 -35.7,-2.9 -52.2,-5.3 -16.5,-2.4 -31.9,-5.5 -44.9,-9 -12.9,-3.4 -23.3,-7.4 -30.3,-10.8 -3.5,-1.7 -6.1,-3.2 -7.9,-4.2 -1.8,-1.1 -2.6,-1.8 -2.6,-1.8 z m 303.3,24.2 c 0,0 0.3,0.7 0.9,2 0.3,0.7 0.7,1.4 1.1,2.3 0.4,0.9 0.8,2 1.3,3.3 2,4.9 4.3,12.1 5.8,21.1 0.2,1.1 0.4,2.3 0.6,3.4 0.2,1.1 0.3,2.3 0.4,3.6 0.1,1.2 0.4,2.5 0.4,3.7 0.1,1.2 0.2,2.6 0.3,3.9 0.1,1.3 0.2,2.6 0.2,3.9 0.1,1.3 0.1,2.7 0.2,4.1 0,1.4 0.1,2.8 0.1,4.2 0,1.4 0.1,2.8 0,4.2 0,1.4 -0.1,2.8 -0.1,4.3 -0.1,1.5 -0.1,2.9 -0.2,4.4 -0.1,2.9 -0.4,5.9 -0.6,8.9 -0.6,6 -1.2,12 -2.2,18 -3.6,24.1 -10.3,47.6 -16.4,64.7 -3.1,8.6 -6,15.6 -8.1,20.5 -0.1,0.3 -0.2,0.5 -0.3,0.7 -0.1,0.1 -0.1,0.1 -0.1,0.2 l -0.1,0.1 -7.7,-3.4 c 0.7,6.2 1.3,12.5 1.5,18.9 5.4,-3.4 10.7,-7.1 16,-11.1 l -7.7,-3.4 c 0,0 0,-0.1 0.1,-0.1 0,-0.1 0.1,-0.1 0.1,-0.2 0.1,-0.2 0.2,-0.4 0.3,-0.7 2.1,-4.9 5.1,-12 8.2,-20.6 6.2,-17.3 12.9,-40.9 16.6,-65.1 0.9,-6.1 1.6,-12.2 2.2,-18.2 0.2,-3 0.5,-6 0.6,-9 0.1,-1.5 0.1,-2.9 0.2,-4.4 0,-1.5 0.1,-2.9 0.1,-4.4 0.1,-1.5 0,-2.8 0,-4.3 0,-1.4 -0.1,-2.8 -0.1,-4.2 -0.1,-1.4 -0.1,-2.8 -0.2,-4.1 -0.1,-1.4 -0.1,-2.7 -0.3,-4 -0.2,-1.3 -0.2,-2.6 -0.4,-3.9 -0.1,-1.3 -0.3,-2.6 -0.4,-3.8 -0.1,-1.2 -0.3,-2.5 -0.5,-3.6 -0.2,-1.2 -0.4,-2.3 -0.6,-3.5 -1.6,-9.1 -3.9,-16.5 -6,-21.5 -0.5,-1.2 -0.9,-2.4 -1.4,-3.4 -0.4,-0.9 -0.8,-1.8 -1.2,-2.4 -0.7,-1.3 -0.9,-2 -0.9,-2 z"
     id="path21506" />
  <path
     fill="#6d6e71"
     d="m 404.9,105 c 0,0 0.9,0.4 2.6,1.3 1.7,0.9 4.1,2.2 7.2,3.9 3.1,1.8 6.8,3.8 10.9,6.4 2.1,1.3 4.2,2.8 6.5,4.3 1.1,0.8 2.3,1.6 3.4,2.5 1.2,0.9 2.3,1.8 3.5,2.7 4.7,3.7 9.6,8.2 14.1,13.3 4.5,5.2 8.8,11.1 12.5,17.6 7.4,13.1 12.9,28.4 15.4,44.3 2.6,15.8 2,32.2 -0.9,46.9 -3,14.7 -8.4,27.9 -14.4,38.4 -3,5.3 -6,9.8 -8.9,13.8 -1.4,2 -2.9,3.7 -4.2,5.4 -0.7,0.9 -1.3,1.6 -2,2.3 -0.7,0.7 -1.2,1.5 -1.8,2.1 -0.2,0.2 -0.4,0.4 -0.6,0.7 0,0.1 -0.1,0.1 -0.1,0.1 l -0.1,0.1 -0.1,0.1 -6.2,-5.7 c -1.1,6 -2.8,12 -4.9,18 6.3,-1.2 12.7,-2.8 19,-5 l -6.2,-5.7 0.1,-0.1 0.1,-0.1 0.1,-0.1 c 0.1,-0.2 0.4,-0.4 0.6,-0.7 l 1.8,-2.1 c 0.7,-0.7 1.3,-1.5 2,-2.3 1.3,-1.7 2.8,-3.5 4.3,-5.5 3,-3.9 6.1,-8.7 9,-14 6.1,-10.6 11.5,-24 14.6,-39 3.1,-15 3.6,-31.6 1,-47.7 -2.5,-16.1 -8.1,-31.7 -15.6,-45.1 -3.8,-6.6 -8.1,-12.7 -12.8,-18 -4.7,-5.3 -9.6,-9.8 -14.4,-13.6 -1.2,-0.9 -2.4,-1.9 -3.6,-2.8 -1.2,-0.9 -2.3,-1.7 -3.5,-2.5 -2.3,-1.5 -4.5,-3.1 -6.6,-4.4 -4.2,-2.6 -7.9,-4.7 -11.1,-6.5 -3.1,-1.7 -5.5,-3.1 -7.3,-3.9 -1.7,-0.9 -2.6,-1.4 -2.6,-1.4 z"
     id="path21508" />
  <path
     fill="#6d6e71"
     d="m 175.8,89.6 c 0,0 2.8,4.4 7.9,12.1 5,7.7 12.2,18.7 20.9,31.7 8.8,13.1 19.3,28.2 31,43.9 5.9,7.9 12.1,15.9 18.6,23.9 6.6,8 13.3,16 20.4,23.8 14.1,15.5 29.2,30.2 44.4,42.7 0.9,0.8 1.9,1.6 2.8,2.3 0.9,0.8 1.9,1.5 2.8,2.3 1.9,1.5 3.8,3 5.6,4.4 1.9,1.4 3.8,2.8 5.6,4.2 0.9,0.7 1.8,1.4 2.8,2 0.9,0.7 1.9,1.3 2.8,2 1.8,1.3 3.6,2.6 5.5,3.8 l 5.4,3.6 c 1.8,1.2 3.5,2.3 5.3,3.4 1.8,1.1 3.5,2.1 5.2,3.1 13.6,8.1 25.5,13.7 33.9,17.4 0.9,0.4 1.5,0.7 1.5,0.7 l -3.3,7.8 4.9,-0.6 2.4,-0.3 2.4,-0.4 c 3.2,-0.5 6.4,-1 9.5,-1.5 -2,-2.5 -4.1,-5 -6.1,-7.4 l -1.5,-1.8 c -0.5,-0.6 -0.9,-1.2 -1.5,-1.9 l -2.8,-3.8 -3.3,7.8 c 0,0 -0.5,-0.2 -1.5,-0.7 -8.4,-3.6 -20.2,-9.2 -33.6,-17.2 -1.7,-1 -3.4,-2 -5.1,-3.1 -1.8,-1 -3.4,-2.3 -5.3,-3.4 -1.8,-1.2 -3.6,-2.3 -5.4,-3.5 -1.8,-1.2 -3.6,-2.5 -5.5,-3.8 -0.9,-0.7 -1.8,-1.3 -2.8,-2 -0.9,-0.7 -1.8,-1.4 -2.8,-2 -1.8,-1.4 -3.7,-2.8 -5.6,-4.2 -1.8,-1.5 -3.7,-2.9 -5.6,-4.4 -0.9,-0.7 -1.9,-1.5 -2.8,-2.3 -0.9,-0.8 -1.9,-1.5 -2.8,-2.3 -15.1,-12.5 -30.1,-27.1 -44.2,-42.5 -7.1,-7.7 -13.8,-15.7 -20.3,-23.7 -6.5,-7.9 -12.7,-16 -18.6,-23.8 -11.7,-15.8 -22.1,-30.9 -30.9,-43.8 -8.8,-13.1 -15.9,-24 -20.9,-31.7 -5,-7.7 -7.9,-12.1 -7.9,-12.1 z"
     opacity="0.56"
     id="path21510" />
  <path
     fill="#6d6e71"
     d="m 131.7,76.7 c 0,0 3,5.3 8.2,14.7 5.3,9.3 12.6,22.7 21.8,38.5 9.2,15.8 20.2,34.2 33,53.2 6.5,9.5 13.4,19 20.9,28.5 7.5,9.4 15.5,18.7 24.1,27.5 8.6,8.8 17.6,17.1 26.9,24.7 2.3,1.9 4.7,3.7 7.1,5.6 1.2,0.9 2.3,1.8 3.5,2.8 1.2,0.9 2.4,1.8 3.6,2.6 2.4,1.8 4.7,3.5 7.1,5.1 l 7.2,4.8 c 2.3,1.6 4.8,3.1 7.2,4.5 1.2,0.7 2.4,1.5 3.6,2.2 0.6,0.4 1.2,0.7 1.8,1.1 0.6,0.4 1.2,0.7 1.8,1 4.8,2.7 9.5,5.4 14.3,7.7 2.3,1.2 4.7,2.4 7,3.4 2.3,1 4.6,2.1 6.9,3.1 1.1,0.5 2.3,1 3.4,1.5 1.1,0.4 2.3,0.9 3.4,1.3 2.2,0.9 4.4,1.8 6.6,2.6 0.5,0.2 1.1,0.4 1.6,0.7 0.5,0.2 1.1,0.4 1.6,0.6 1.1,0.4 2.1,0.7 3.1,1.1 2.1,0.7 4.1,1.4 6.1,2.1 0.9,0.4 2,0.6 3,0.9 0.9,0.3 2,0.6 2.9,0.8 1.9,0.6 3.8,1.1 5.5,1.6 7.2,1.8 13.6,3.4 18.9,4.2 1.1,0.2 1.8,0.3 1.8,0.3 l -1.5,8.3 4.6,-1.6 c 1.5,-0.6 3.1,-1.2 4.6,-1.8 3,-1.2 6,-2.5 8.9,-3.7 -2.6,-1.9 -5.1,-3.9 -7.6,-5.8 -1.2,-0.9 -2.5,-1.9 -3.6,-2.9 l -3.6,-3.1 -1.5,8.3 c 0,0 -0.7,-0.1 -1.8,-0.3 -5.3,-0.8 -11.5,-2.3 -18.7,-4.2 -1.8,-0.5 -3.6,-1 -5.5,-1.6 -0.9,-0.3 -1.9,-0.6 -2.8,-0.8 -0.9,-0.3 -2,-0.5 -2.9,-0.9 -2,-0.7 -4,-1.4 -6.1,-2 -1,-0.4 -2,-0.7 -3.1,-1.1 -0.5,-0.2 -1.1,-0.4 -1.6,-0.6 -0.5,-0.2 -1,-0.4 -1.6,-0.7 -2.1,-0.8 -4.3,-1.7 -6.5,-2.6 -1.1,-0.4 -2.2,-0.9 -3.4,-1.3 -1.1,-0.5 -2.2,-1 -3.4,-1.5 -2.3,-1 -4.5,-2 -6.9,-3.1 -2.3,-1.1 -4.6,-2.3 -6.9,-3.4 -4.7,-2.3 -9.3,-5 -14.1,-7.6 -0.6,-0.4 -1.2,-0.7 -1.8,-1 -0.6,-0.4 -1.2,-0.7 -1.8,-1.1 -1.2,-0.7 -2.4,-1.5 -3.6,-2.2 -2.4,-1.5 -4.8,-2.9 -7.1,-4.5 -2.3,-1.6 -4.7,-3.2 -7.1,-4.8 -2.4,-1.6 -4.7,-3.4 -7.1,-5.1 -1.2,-0.9 -2.4,-1.8 -3.6,-2.6 -1.2,-0.9 -2.3,-1.8 -3.5,-2.7 -2.3,-1.8 -4.7,-3.6 -7,-5.5 -9.3,-7.6 -18.2,-15.9 -26.7,-24.6 -8.5,-8.8 -16.4,-17.9 -23.8,-27.3 -7.4,-9.4 -14.4,-19 -20.8,-28.4 -12.8,-18.9 -23.8,-37.2 -33,-53 -9.1,-15.8 -16.6,-29.2 -21.8,-38.5 -5.3,-9.3 -8.2,-14.7 -8.2,-14.7 z"
     opacity="0.56"
     id="path21512" />
  <path
     fill="#6d6e71"
     d="m 129.9,160.3 c 0,0 0.4,1.2 1.2,3.5 0.4,1.2 0.8,2.6 1.5,4.2 0.3,0.8 0.7,1.7 0.9,2.6 0.4,0.9 0.7,1.9 1.2,3 0.9,2 1.8,4.4 2.9,6.9 0.6,1.2 1.2,2.5 1.8,3.9 0.7,1.3 1.3,2.6 2,4.1 2.8,5.5 6.2,11.7 10.2,18.2 8.2,13 19.1,27.2 32.6,40.8 13.5,13.6 29.8,26 47,37 8.5,5.5 17.4,10.7 26.1,15.6 4.4,2.5 8.8,4.7 13.1,7.1 4.4,2.3 8.7,4.4 13,6.5 2.1,1 4.3,2.1 6.4,3.1 2.1,1 4.2,2 6.3,2.9 4.2,1.9 8.3,3.7 12.3,5.4 8,3.4 15.8,6.4 22.9,9.2 14.3,5.3 26.4,9.2 34.9,11.8 0.9,0.3 1.5,0.4 1.5,0.4 l -2.4,8.1 c 3.1,-0.7 6.3,-1.5 9.4,-2.3 l 9.3,-2.4 -6.7,-6.9 -6.6,-6.9 -2.4,8.1 c 0,0 -0.6,-0.1 -1.5,-0.4 -8.5,-2.6 -20.6,-6.4 -34.8,-11.7 -7.1,-2.7 -14.8,-5.7 -22.8,-9.1 -4,-1.7 -8.1,-3.5 -12.3,-5.4 -2,-0.9 -4.2,-2 -6.3,-2.9 -2.1,-0.9 -4.2,-2 -6.3,-3.1 -4.3,-2 -8.6,-4.2 -12.9,-6.5 -4.3,-2.3 -8.7,-4.6 -13.1,-7.1 -8.7,-4.9 -17.4,-10 -26,-15.5 -17.1,-10.9 -33.2,-23.3 -46.6,-36.8 -13.4,-13.4 -24.2,-27.6 -32.3,-40.4 -4,-6.4 -7.4,-12.5 -10.1,-18 -0.7,-1.4 -1.3,-2.7 -2,-4 -0.6,-1.3 -1.2,-2.6 -1.7,-3.8 -1.1,-2.4 -2,-4.7 -2.8,-6.7 -0.4,-1 -0.8,-2 -1.1,-2.9 -0.4,-0.9 -0.7,-1.8 -0.9,-2.6 -0.6,-1.6 -1,-3 -1.5,-4.1 -0.7,-2.3 -1.2,-3.4 -1.2,-3.4 z"
     opacity="0.56"
     id="path21514" />
  <path
     fill="#6d6e71"
     d="m 110.4,128.1 c 0,0 -0.3,1.6 -0.8,4.6 -0.3,1.5 -0.5,3.4 -0.8,5.5 -0.1,1.1 -0.3,2.3 -0.4,3.5 -0.1,1.2 -0.2,2.6 -0.4,4 -0.4,5.6 -0.7,12.5 -0.1,20.3 0.4,7.9 1.5,16.7 3.4,26.2 1.9,9.5 4.7,19.6 8.7,30 0.9,2.6 2,5.2 3.1,7.8 0.5,1.3 1.2,2.6 1.8,3.9 l 1.8,3.9 c 0.3,0.7 0.7,1.3 0.9,2 0.4,0.7 0.7,1.3 1,2 l 2.1,3.9 c 1.4,2.6 3,5.2 4.6,7.7 6.4,10.2 14.1,20.1 22.9,29.3 8.8,9.2 18.5,17.7 28.9,25.4 10.4,7.7 21.4,14.4 32.7,20.1 11.3,5.8 22.8,10.6 34.4,14.3 11.5,3.6 22.9,6.3 33.8,8.1 10.9,1.8 21.3,2.9 30.9,3.7 19.3,1.5 35.3,1.8 46.5,2 1.2,0 1.8,0.1 1.8,0.1 l -0.2,8.5 16.8,-9.3 -16.4,-9.9 -0.2,8.5 c 0,0 -0.7,0 -1.8,-0.1 -11.2,-0.3 -27.2,-0.6 -46.4,-2 -9.6,-0.8 -19.9,-1.9 -30.7,-3.7 -10.8,-1.8 -22.1,-4.4 -33.5,-8 -11.4,-3.6 -22.8,-8.5 -34,-14.1 -11.2,-5.8 -22.1,-12.4 -32.4,-20 -10.3,-7.6 -19.9,-16 -28.5,-25.1 -8.6,-9.1 -16.3,-18.9 -22.6,-29 -1.5,-2.6 -3.2,-5 -4.5,-7.7 l -2.1,-3.9 c -0.4,-0.7 -0.7,-1.2 -1,-1.9 -0.3,-0.7 -0.6,-1.3 -0.9,-2 l -1.8,-3.9 -1.8,-3.9 c -1.1,-2.6 -2.2,-5.1 -3.1,-7.7 -3.9,-10.2 -6.7,-20.2 -8.6,-29.6 -1.9,-9.3 -2.9,-18.1 -3.4,-25.8 -0.5,-7.7 -0.2,-14.5 0.1,-20.1 0.1,-1.4 0.2,-2.7 0.3,-3.9 0.1,-1.2 0.3,-2.4 0.4,-3.4 0.3,-2.1 0.5,-3.9 0.8,-5.4 0.5,-2.9 0.8,-4.5 0.8,-4.5 z"
     opacity="0.56"
     id="path21516" />
  <circle
     fill="#fce600"
     stroke="#ffdd00"
     stroke-width="6"
     stroke-miterlimit="10"
     cx="127.6"
     cy="149.89999"
     r="10.6"
     id="circle21518" />
  <circle
     fill="#39bced"
     stroke="#008dd2"
     stroke-width="6"
     stroke-miterlimit="10"
     cx="131.2"
     cy="71"
     r="10.6"
     id="circle21520" />
  <circle
     fill="#54b948"
     stroke="#00873a"
     stroke-width="6"
     stroke-miterlimit="10"
     cx="172.5"
     cy="83.400002"
     r="10.6"
     id="circle21522" />
  <circle
     fill="#d71920"
     stroke="#be1e2d"
     stroke-width="6"
     stroke-miterlimit="10"
     cx="114.5"
     cy="118.1"
     r="10.6"
     id="circle21524" />
  <circle
     fill="#8967ac"
     stroke="#651c5f"
     stroke-width="6"
     stroke-miterlimit="10"
     cx="394"
     cy="98.5"
     r="10.6"
     id="circle21526" />
  <circle
     fill="#f58235"
     stroke="#e76524"
     stroke-width="6"
     stroke-miterlimit="10"
     cx="418"
     cy="137.89999"
     r="10.6"
     id="circle21528" />
</svg>
