<svg xmlns="http://www.w3.org/2000/svg" viewBox="0 0 595.3 307"><switch><g><circle opacity=".14" stroke="#000" stroke-width="6" stroke-miterlimit="10" cx="460.4" cy="159.3" r="65"/><circle fill="#E6E7E8" stroke="#808285" stroke-width="6" stroke-miterlimit="10" cx="454" cy="155.2" r="65"/><circle fill="#39BCED" stroke="#008DD2" stroke-width="6" stroke-miterlimit="10" cx="453" cy="145.9" r="17.6"/><circle opacity=".14" stroke="#000" stroke-width="6" stroke-miterlimit="10" cx="197.3" cy="180.3" r="114.5"/><circle fill="#E6E7E8" stroke="#808285" stroke-width="6" stroke-miterlimit="10" cx="186" cy="173.1" r="114.5"/><path fill="#6D6E71" d="M266 208.2s.6.3 1.7.9c.6.3 1.3.7 2.1 1.1.8.5 1.7 1 2.8 1.5 4.3 2.2 10.6 4.9 18.4 7.3 7.8 2.4 17.3 4.4 27.5 5 1.3.1 2.6.1 3.9.2 1.3.1 2.6 0 3.9.1 2.6.1 5.3-.1 8-.2 1.3-.1 2.7-.2 4-.3l2-.2c.7-.1 1.3-.2 2-.3 1.3-.2 2.7-.3 4.1-.5l4-.7c.7-.1 1.3-.2 2-.4l2-.4c1.3-.3 2.7-.6 4-.9 2.6-.7 5.3-1.4 7.8-2.2 5.1-1.6 10.1-3.6 14.7-5.6 9.3-4.2 17.5-9.3 24.1-14.1 6.6-4.9 11.5-9.6 14.9-13 .6-.7 1-1 1-1l8.3 8c2.7-9.1 4.2-18.2 4.7-26.9-7.8 4-15.8 6.8-23.7 8.7l8.3 8s-.3.4-1 1c-3.3 3.3-8.1 7.9-14.6 12.6-6.4 4.8-14.4 9.7-23.5 13.8-4.6 2-9.4 3.9-14.4 5.5-2.5.8-5.1 1.5-7.6 2.2l-3.9.9-1.9.4c-.7.1-1.3.2-2 .4l-3.9.7c-1.3.2-2.6.3-4 .5-.7.1-1.3.2-2 .2l-2 .2-3.9.3c-2.6.1-5.2.3-7.8.2-1.3 0-2.6 0-3.8-.1-1.3-.1-2.5-.1-3.8-.2-10-.6-19.1-2.6-26.8-4.9-7.6-2.3-13.8-5-17.9-7.1-1.1-.5-2-1-2.8-1.4-.8-.4-1.5-.8-2-1.1-1.1-.6-1.7-.9-1.7-.9l-1.2 2.7zM243 103.7s.6-.3 1.9-.9c1.2-.6 3-1.5 5.3-2.5 4.6-2.1 11.3-4.7 19.8-6.8 8.4-2.1 18.4-3.8 29.3-4.4 1.4-.1 2.7-.1 4.1-.2 1.4-.1 2.8 0 4.2-.1 2.8-.1 5.6.1 8.5.1 1.4.1 2.9.2 4.3.3 1.4.1 2.9.2 4.3.3 1.4.1 2.9.3 4.3.4l4.3.6c1.4.2 2.9.4 4.3.7 1.4.2 2.9.5 4.3.7 2.8.6 5.7 1.1 8.4 1.8 1.4.3 2.8.7 4.1 1 1.4.4 2.7.8 4.1 1.1.7.2 1.3.4 2 .6.7.2 1.3.4 2 .6l3.9 1.2c10.3 3.5 19.6 7.6 27.3 11.7 7.7 4.1 13.8 7.9 18 10.8.8.5 1.2.8 1.2.8l-6.6 9.5c8.3.4 16.7 1.6 25.3 3.4-2.7-8.3-6.1-16.7-10.3-25l-6.6 9.5s-.4-.3-1.2-.8c-4.2-3-10.5-6.9-18.3-11-7.8-4.1-17.3-8.4-27.7-11.9-1.3-.4-2.6-.8-4-1.3-.7-.2-1.3-.4-2-.6-.7-.2-1.4-.4-2-.6-1.4-.4-2.7-.8-4.1-1.2-1.4-.3-2.8-.7-4.2-1-2.8-.7-5.7-1.2-8.6-1.9-1.4-.3-2.9-.5-4.3-.8-1.4-.3-2.9-.5-4.4-.7l-4.4-.6c-1.5-.1-2.9-.3-4.4-.4-1.5-.2-2.9-.3-4.4-.4-1.5-.1-2.9-.2-4.4-.3-2.9-.1-5.8-.2-8.6-.2-1.4 0-2.8 0-4.2.1-1.4.1-2.8.1-4.2.2-11.1.6-21.3 2.3-29.9 4.5-8.6 2.2-15.5 4.9-20.3 7-2.4 1-4.2 2-5.4 2.6-1.2.6-1.9 1-1.9 1l1.2 3.1z"/><path fill="#6D6E71" d="M184.7 184.2s.8 1.1 2.3 3.1c.4.5.8 1.1 1.3 1.7.5.6 1 1.3 1.6 2 .6.7 1.2 1.5 1.9 2.3.7.8 1.4 1.7 2.2 2.6 6.2 7.2 15.7 17.1 28.6 27.1 12.9 10 29.1 20.1 47.9 28.2 18.7 8.1 39.8 14.1 61.4 16.4 10.8 1.2 21.7 1.4 32.4.5 10.7-.9 21.1-2.9 30.9-6 9.8-3.1 18.8-7.4 26.7-12.6 3.9-2.6 7.6-5.4 10.9-8.3 3.3-3 6.4-6 9-9.1 5.4-6.2 9.5-12.6 12.6-18.5 3.1-5.9 5.2-11.4 6.7-15.9.1-.3.2-.6.3-.8V196.6c0-.1 0-.1.1-.2 0-.1.1-.2.1-.3 0-.2.1-.2.1-.2l11 3.5c-1.6-9.4-4.4-18.1-7.7-26.2-5.3 7-11.2 13.2-17.4 18.3l11 3.5s0 .1-.1.2c0 .1-.1.2-.1.3 0 .1 0 .1-.1.2V196c-.1.3-.2.5-.3.8-1.5 4.4-3.5 9.7-6.5 15.4-3 5.7-7 11.9-12.2 17.9-2.6 3-5.5 5.9-8.7 8.8-3.2 2.8-6.8 5.5-10.6 8-7.6 5-16.4 9.2-25.9 12.2-9.5 3.1-19.7 5-30.2 5.8-10.5.8-21.2.6-31.8-.5-21.3-2.3-42.1-8.2-60.5-16.2-18.5-7.9-34.5-17.9-47.2-27.7-12.7-9.9-22-19.5-28.1-26.6-.8-.9-1.5-1.7-2.2-2.5-.7-.8-1.3-1.6-1.8-2.3-.6-.7-1.1-1.4-1.6-2-.5-.6-.9-1.2-1.3-1.7-1.5-2-2.3-3.1-2.3-3.1l-2.4 1.9zM129.4 128.1s.9-1.2 2.6-3.6c.4-.6.9-1.2 1.4-1.9.5-.7 1.1-1.5 1.8-2.3.6-.8 1.3-1.7 2-2.7.7-.9 1.6-1.9 2.4-2.9 6.8-8.3 17.1-19.7 31.3-31.5C185 71.4 203 59.4 223.8 49.7c20.8-9.7 44.5-17 68.9-19.9 12.2-1.4 24.4-1.8 36.5-1 12 .8 23.7 2.9 34.7 6 11 3.1 21.3 7.5 30.5 12.5 9.2 5.1 17.3 10.9 24.2 16.9 6.9 6 12.6 12.2 17.2 18 1.1 1.5 2.3 2.9 3.3 4.3s2 2.8 2.9 4.1c.9 1.3 1.7 2.6 2.6 3.9l1.2 1.8c.4.6.7 1.2 1.1 1.8.7 1.1 1 1.7 1 1.7l-10 5.9c7.3 3.8 14.5 8.4 21.6 13.7 1.1-8.7 1.5-17.7 1.1-27l-10 5.9s-.4-.6-1.1-1.8c-.3-.6-.7-1.2-1.1-1.8l-1.2-1.8c-.8-1.3-1.7-2.6-2.6-3.9-1-1.3-2-2.7-3-4.2-1-1.4-2.2-2.9-3.4-4.4-4.8-5.9-10.6-12.3-17.6-18.4-7-6.2-15.4-12.1-24.7-17.3-9.4-5.1-19.9-9.6-31.1-12.8-11.2-3.2-23.2-5.3-35.4-6.2-12.2-.9-24.7-.5-37.1 1-24.7 2.9-48.7 10.3-69.8 20.2-21.1 9.8-39.3 22.1-53.6 34-14.3 11.9-24.8 23.5-31.7 31.9-.9 1.1-1.7 2-2.4 3s-1.4 1.9-2.1 2.7c-.6.8-1.2 1.6-1.8 2.3-.5.7-1 1.4-1.4 2-1.7 2.4-2.6 3.6-2.6 3.6l2.5 1.7z"/><circle fill="#D71920" stroke="#BE1E2D" stroke-width="6" stroke-miterlimit="10" cx="119.8" cy="134.6" r="18.3"/><circle fill="#F58235" stroke="#E76524" stroke-width="6" stroke-miterlimit="10" cx="248.9" cy="194.3" r="18.3"/><circle fill="#8967AC" stroke="#651C5F" stroke-width="6" stroke-miterlimit="10" cx="177.7" cy="176" r="18.3"/><circle fill="#54B948" stroke="#00873A" stroke-width="6" stroke-miterlimit="10" cx="230.7" cy="116.4" r="18.3"/></g></switch></svg>