<?xml version="1.0" encoding="UTF-8" standalone="no"?>
<svg
   viewBox="0 306.9 595.3 237"
   version="1.1"
   id="svg22028"
   sodipodi:docname="functions_one_after_another.svg"
   inkscape:version="1.2.2 (b0a8486541, 2022-12-01)"
   xmlns:inkscape="http://www.inkscape.org/namespaces/inkscape"
   xmlns:sodipodi="http://sodipodi.sourceforge.net/DTD/sodipodi-0.dtd"
   xmlns="http://www.w3.org/2000/svg"
   xmlns:svg="http://www.w3.org/2000/svg">
  <defs
     id="defs22032" />
  <sodipodi:namedview
     id="namedview22030"
     pagecolor="#ffffff"
     bordercolor="#666666"
     borderopacity="1.0"
     inkscape:showpageshadow="2"
     inkscape:pageopacity="0.0"
     inkscape:pagecheckerboard="0"
     inkscape:deskcolor="#d1d1d1"
     showgrid="false"
     inkscape:zoom="0.99578059"
     inkscape:cx="297.25424"
     inkscape:cy="119.00212"
     inkscape:window-width="1080"
     inkscape:window-height="1853"
     inkscape:window-x="0"
     inkscape:window-y="0"
     inkscape:window-maximized="1"
     inkscape:current-layer="g22024" />
  <g
     id="g22024">
    <circle
       opacity="0.14"
       stroke="#000000"
       stroke-width="6"
       stroke-miterlimit="10"
       cx="293.29999"
       cy="436.5"
       r="79.099998"
       id="circle21984" />
    <circle
       fill="#d6d5eb"
       stroke="#808285"
       stroke-width="6"
       stroke-miterlimit="10"
       cx="285.5"
       cy="431.5"
       r="79.099998"
       id="circle21986"
       style="fill:#f4d7d7" />
    <circle
       opacity="0.14"
       stroke="#000000"
       stroke-width="6"
       stroke-miterlimit="10"
       cx="107.1"
       cy="429.89999"
       r="83.900002"
       id="circle21988" />
    <circle
       fill="#f8f6c1"
       stroke="#808285"
       stroke-width="6"
       stroke-miterlimit="10"
       cx="98.900002"
       cy="424.5"
       r="83.900002"
       id="circle21990"
       style="fill:#d6d5eb;fill-opacity:1" />
    <circle
       opacity="0.14"
       stroke="#000000"
       stroke-width="6"
       stroke-miterlimit="10"
       cx="480.20001"
       cy="428.79999"
       r="75.400002"
       id="circle21992" />
    <circle
       fill="#d9ecd5"
       stroke="#808285"
       stroke-width="6"
       stroke-miterlimit="10"
       cx="472.79999"
       cy="424"
       r="75.400002"
       id="circle21994" />
    <circle
       fill="#d71920"
       stroke="#be1e2d"
       stroke-width="6"
       stroke-miterlimit="10"
       cx="425"
       cy="404.70001"
       r="12"
       id="circle21996" />
    <circle
       fill="#8967ac"
       stroke="#651c5f"
       stroke-width="6"
       stroke-miterlimit="10"
       cx="467.29999"
       cy="419.10001"
       r="12"
       id="circle21998" />
    <circle
       fill="#54b948"
       stroke="#00873a"
       stroke-width="6"
       stroke-miterlimit="10"
       cx="502.20001"
       cy="386.70001"
       r="12"
       id="circle22000" />
    <path
       fill="#6d6e71"
       d="m 320.5,461.8 1.2,0.9 c 0.4,0.3 0.9,0.7 1.5,1.1 0.6,0.4 1.4,0.8 2.2,1.3 3.3,1.8 8.3,3.7 14.5,4.7 6.2,1 13.5,1.3 21.2,0.6 7.7,-0.6 15.9,-2 23.9,-4 16,-3.9 31.3,-10.1 42.3,-15.9 5.5,-2.8 9.9,-5.5 12.9,-7.5 0.7,-0.5 1.1,-0.7 1.1,-0.7 l 6.4,9.6 c 4.5,-8.2 8.3,-17 10.1,-25.6 -8.4,2.7 -16.5,3.6 -24.7,3.7 l 6.4,9.6 c 0,0 -0.4,0.3 -1.1,0.7 -2.9,1.9 -7.3,4.5 -12.6,7.3 -10.7,5.6 -25.8,11.7 -41.6,15.6 -7.9,1.9 -15.8,3.3 -23.4,3.9 -7.5,0.6 -14.6,0.4 -20.5,-0.6 -5.9,-0.9 -10.5,-2.7 -13.5,-4.4 -0.7,-0.4 -1.4,-0.8 -2,-1.1 -0.5,-0.4 -1,-0.7 -1.3,-1 -0.7,-0.5 -1.1,-0.8 -1.1,-0.8 z"
       id="path22002" />
    <path
       fill="#6d6e71"
       d="m 289.5,399.8 1.6,-1.6 c 1.1,-1 2.5,-2.7 4.6,-4.5 4,-3.8 10.1,-9 17.9,-14.3 7.9,-5.4 17.6,-10.7 28.6,-15.2 5.5,-2.2 11.3,-4.3 17.3,-6 3,-0.9 6.1,-1.6 9.1,-2.3 1.5,-0.3 3.1,-0.6 4.7,-0.9 l 2.3,-0.5 2.4,-0.4 c 6.3,-1.1 12.6,-1.6 18.8,-2 3.1,-0.1 6.2,-0.2 9.3,-0.1 1.5,0 3.1,0 4.6,0.1 l 4.5,0.3 c 11.9,0.8 22.8,3.1 31.9,5.8 1.1,0.3 2.3,0.7 3.3,1 1.1,0.3 2.1,0.7 3.1,1.1 2,0.7 4,1.4 5.8,2.2 1.8,0.7 3.5,1.4 5,2.1 1.5,0.7 2.9,1.4 4.1,2 0.9,0.4 1.3,0.6 1.3,0.6 l -5.2,10.3 c 8.1,-0.8 16.6,-0.8 25.4,0 -3.6,-7.9 -8.2,-15.9 -13.6,-23.5 l -5.1,10.4 c 0,0 -0.5,-0.2 -1.4,-0.7 -1.3,-0.6 -2.7,-1.3 -4.2,-2 -1.6,-0.7 -3.3,-1.4 -5.1,-2.1 -1.8,-0.8 -3.8,-1.5 -5.9,-2.2 -1,-0.4 -2.1,-0.8 -3.2,-1.1 -1.1,-0.3 -2.3,-0.7 -3.4,-1 -9.3,-2.8 -20.4,-5.2 -32.6,-6 -1.5,-0.1 -3,-0.2 -4.6,-0.3 -1.5,-0.1 -3.1,-0.1 -4.7,-0.1 -3.1,-0.1 -6.3,0 -9.5,0.1 -6.4,0.4 -12.8,0.9 -19.2,2 l -2.4,0.4 -2.4,0.5 c -1.6,0.3 -3.2,0.6 -4.7,1 -3.1,0.8 -6.3,1.4 -9.3,2.4 -6.1,1.7 -12,3.8 -17.7,6.1 -11.2,4.6 -21.2,10.1 -29.2,15.5 -8,5.4 -14.2,10.7 -18.3,14.6 -2.1,1.9 -3.6,3.6 -4.7,4.6 -1.1,1.1 -1.6,1.7 -1.6,1.7 z"
       opacity="0.37"
       id="path22004" />
    <circle
       fill="#8967ac"
       stroke="#651c5f"
       stroke-width="6"
       stroke-miterlimit="10"
       cx="283.79999"
       cy="404.89999"
       r="13.4"
       id="circle22006" />
    <circle
       fill="#f58235"
       stroke="#e76524"
       stroke-width="6"
       stroke-miterlimit="10"
       cx="314"
       cy="454.60001"
       r="13.4"
       id="circle22008" />
    <path
       fill="#6d6e71"
       d="m 142.7,390.7 c 0,0 0.4,-0.3 1.1,-0.8 0.7,-0.5 1.7,-1.4 3.2,-2.3 2.7,-2 6.9,-4.5 12.1,-7.1 5.2,-2.6 11.5,-5.1 18.5,-7 7,-1.8 14.7,-3.1 22.5,-3.3 7.7,-0.2 15.5,0.3 22.6,1.9 7.1,1.5 13.5,3.8 18.7,6.3 5.2,2.5 9.2,5.2 12,7.2 l 0.3,0.2 0.1,0.1 0.1,0.1 c 0.1,0 0.1,0.1 0.2,0.1 0.1,0.1 0.2,0.1 0.2,0.2 l 0.2,0.2 -7,9.2 c 7.6,0.3 15.8,2.2 23.8,5.8 -0.9,-8.7 -3.5,-17.8 -7.9,-26.7 l -7,9.2 -0.2,-0.2 c -0.1,-0.1 -0.2,-0.1 -0.2,-0.2 0,0 -0.1,-0.1 -0.2,-0.1 l -0.1,-0.1 -0.1,-0.1 -0.3,-0.2 c -2.9,-2 -7,-4.8 -12.5,-7.5 -5.4,-2.6 -12.1,-5 -19.4,-6.6 -7.3,-1.6 -15.4,-2.2 -23.4,-2 -8,0.3 -15.9,1.6 -23.2,3.4 -7.2,1.9 -13.8,4.5 -19.1,7.2 -5.4,2.7 -9.6,5.3 -12.5,7.4 -1.5,1 -2.5,1.9 -3.3,2.4 -0.7,0.6 -1.1,0.9 -1.1,0.9 z"
       opacity="0.37"
       id="path22010" />
    <path
       fill="#6d6e71"
       d="m 94.8,365.4 c 0,0 0.6,-0.5 1.7,-1.4 0.5,-0.4 1.2,-1 2,-1.6 0.8,-0.6 1.8,-1.3 2.9,-2 4.3,-3 10.9,-6.7 19.5,-9.8 8.5,-3.1 18.9,-5.8 30.2,-7.2 11.3,-1.4 23.5,-1.8 35.7,-0.8 12.1,1 24.2,3.1 35.1,6.6 10.9,3.4 20.6,7.8 28.3,12.6 7.8,4.7 13.4,9.8 17.1,13.5 0.6,0.7 1,1 1,1 l -8.4,8 c 7.6,1.6 15.3,4.6 22.7,9.4 0.5,-8.7 -0.7,-18.2 -3.6,-27.6 l -8.4,8 c 0,0 -0.4,-0.4 -1,-1.1 -3.9,-3.9 -9.7,-9.1 -17.7,-14 -8,-4.9 -17.9,-9.5 -29.1,-12.9 -11.1,-3.5 -23.4,-5.7 -35.7,-6.7 -12.4,-1 -24.8,-0.6 -36.3,0.8 -11.5,1.4 -22.1,4.1 -30.9,7.3 -8.8,3.2 -15.7,7 -20.2,10.1 -1.1,0.8 -2.2,1.5 -3,2.1 -0.8,0.7 -1.5,1.3 -2.1,1.7 -1.1,0.9 -1.8,1.4 -1.8,1.4 z M 76.9,479.2 c 0,0 0.6,0.7 1.8,1.9 0.6,0.6 1.3,1.4 2.2,2.3 0.9,0.9 1.9,1.9 3.2,2.9 4.8,4.3 12.2,10 22.1,15 4.9,2.5 10.5,4.8 16.5,6.8 6,2 12.5,3.6 19.3,4.8 13.6,2.4 28.3,3 42.9,2 14.6,-1 29.1,-3.5 42.3,-6.9 13.3,-3.4 25.4,-7.8 35.4,-12.3 10,-4.5 18,-9.2 23.3,-12.8 0.8,-0.6 1.3,-0.9 1.3,-0.9 l 6.6,9.5 c 2.2,-4.2 4.2,-8.6 5.8,-13 1.6,-4.4 2.8,-8.9 3.2,-13.3 -4,1.8 -8,2.8 -12.1,3.6 -4,0.7 -8,1 -12,1.2 l 6.6,9.5 c 0,0 -0.5,0.3 -1.3,0.9 -5.2,3.5 -12.9,8.1 -22.8,12.5 -9.8,4.5 -21.8,8.8 -34.8,12.2 -13.1,3.4 -27.4,5.9 -41.8,6.8 -14.4,1 -28.9,0.4 -42.1,-2 -6.6,-1.2 -13,-2.7 -18.8,-4.7 -5.9,-1.9 -11.2,-4.2 -16,-6.6 -9.6,-4.8 -16.7,-10.3 -21.4,-14.5 -1.2,-1 -2.2,-2 -3,-2.8 -0.9,-0.8 -1.6,-1.6 -2.2,-2.2 -1.2,-1.2 -1.8,-1.9 -1.8,-1.9 z"
       opacity="0.37"
       id="path22012" />
    <path
       fill="#6d6e71"
       d="m 66.2,441.7 c 0,0 0.2,0.1 0.6,0.4 0.4,0.2 0.9,0.7 1.6,1.1 1.4,0.9 3.6,2.2 6.5,3.5 5.7,2.7 14.1,5.6 24.4,8.3 20.5,5.4 48.5,9.7 76.6,12.2 28.1,2.5 56.3,3.1 77.5,1.9 10.6,-0.6 19.4,-1.6 25.5,-2.6 1,-0.2 1.6,-0.3 1.6,-0.3 l 2,11.4 c 3.7,-2.9 7.3,-5.9 10.7,-9.1 3.3,-3.2 6.5,-6.8 8.7,-10.6 -4.4,0 -8.4,-1 -12.4,-2.1 -3.9,-1.2 -7.8,-2.6 -11.6,-4.2 l 2,11.4 c 0,0 -0.6,0.1 -1.5,0.3 -6,1 -14.7,2 -25.2,2.6 -21,1.2 -49.1,0.6 -77,-1.9 -27.9,-2.5 -55.8,-6.8 -76,-12.1 -10.1,-2.6 -18.4,-5.5 -23.8,-8.1 -2.7,-1.3 -4.8,-2.4 -6.1,-3.3 -0.7,-0.4 -1.1,-0.8 -1.5,-1 -0.3,-0.2 -0.5,-0.4 -0.5,-0.4 z"
       id="path22014" />
    <circle
       fill="#fce600"
       stroke="#ffdd00"
       stroke-width="6"
       stroke-miterlimit="10"
       cx="82.400002"
       cy="474.29999"
       r="13.4"
       id="circle22016" />
    <circle
       fill="#39bced"
       stroke="#008dd2"
       stroke-width="6"
       stroke-miterlimit="10"
       cx="86.900002"
       cy="374.79999"
       r="13.4"
       id="circle22018" />
    <circle
       fill="#54b948"
       stroke="#00873a"
       stroke-width="6"
       stroke-miterlimit="10"
       cx="139.10001"
       cy="390.39999"
       r="13.4"
       id="circle22020" />
    <circle
       fill="#d71920"
       stroke="#be1e2d"
       stroke-width="6"
       stroke-miterlimit="10"
       cx="55.700001"
       cy="433.60001"
       r="13.4"
       id="circle22022" />
  </g>
</svg>
