<?xml version="1.0" encoding="UTF-8" standalone="no"?>
<svg
   viewBox="0 0 595.3 201"
   version="1.1"
   id="svg21861"
   sodipodi:docname="functions_matching.svg"
   inkscape:version="1.2.2 (b0a8486541, 2022-12-01)"
   xmlns:inkscape="http://www.inkscape.org/namespaces/inkscape"
   xmlns:sodipodi="http://sodipodi.sourceforge.net/DTD/sodipodi-0.dtd"
   xmlns="http://www.w3.org/2000/svg"
   xmlns:svg="http://www.w3.org/2000/svg">
  <defs
     id="defs21865" />
  <sodipodi:namedview
     id="namedview21863"
     pagecolor="#ffffff"
     bordercolor="#666666"
     borderopacity="1.0"
     inkscape:showpageshadow="2"
     inkscape:pageopacity="0.0"
     inkscape:pagecheckerboard="0"
     inkscape:deskcolor="#d1d1d1"
     showgrid="false"
     inkscape:zoom="0.58706468"
     inkscape:cx="253.80508"
     inkscape:cy="-314.27542"
     inkscape:window-width="1080"
     inkscape:window-height="1853"
     inkscape:window-x="0"
     inkscape:window-y="0"
     inkscape:window-maximized="1"
     inkscape:current-layer="svg21861" />
  <circle
     opacity="0.14"
     stroke="#000000"
     stroke-width="6"
     stroke-miterlimit="10"
     cx="378.60001"
     cy="107.1"
     r="59"
     id="circle21809" />
  <circle
     fill="#d6d5eb"
     stroke="#808285"
     stroke-width="6"
     stroke-miterlimit="10"
     cx="372.70001"
     cy="103.3"
     r="59"
     id="circle21811"
     style="fill:#ffd5d5" />
  <circle
     opacity="0.14"
     stroke="#000000"
     stroke-width="6"
     stroke-miterlimit="10"
     cx="83.699997"
     cy="96.699997"
     r="62.599998"
     id="circle21813" />
  <circle
     fill="#f8f6c1"
     stroke="#808285"
     stroke-width="6"
     stroke-miterlimit="10"
     cx="77.5"
     cy="92.699997"
     r="62.599998"
     id="circle21815"
     style="fill:#d6d5eb;fill-opacity:1" />
  <circle
     opacity="0.14"
     stroke="#000000"
     stroke-width="6"
     stroke-miterlimit="10"
     cx="224.2"
     cy="99.800003"
     r="59"
     id="circle21817" />
  <circle
     fill="#d6d5eb"
     stroke="#808285"
     stroke-width="6"
     stroke-miterlimit="10"
     cx="218.3"
     cy="96.099998"
     r="59"
     id="circle21819"
     style="fill:#ffd5d5" />
  <circle
     fill="#8967ac"
     stroke="#651c5f"
     stroke-width="6"
     stroke-miterlimit="10"
     cx="215.3"
     cy="78.099998"
     r="10"
     id="circle21821" />
  <path
     fill="#6d6e71"
     d="m 110.4,67.8 c 0,0 0.3,-0.2 0.8,-0.6 0.5,-0.4 1.2,-1 2.2,-1.6 1.9,-1.3 4.7,-3.2 8.3,-5 7.1,-3.7 17.5,-7.1 28.2,-7.9 5.3,-0.4 10.7,-0.2 15.7,0.5 5,0.7 9.5,2 13.2,3.4 3.8,1.4 6.7,3 8.7,4.1 0.6,0.4 1,0.6 1,0.6 l -6,9.9 c 3.6,-0.3 7.5,-0.3 11.4,0.4 3.9,0.7 8,1.9 12,3.7 -0.5,-4.3 -1.5,-8.8 -3.1,-13.3 -1.6,-4.5 -3.9,-9 -6.7,-13.3 l -6,9.9 c 0,0 -0.4,-0.2 -1,-0.6 -2.1,-1.2 -5.2,-2.9 -9.2,-4.4 -3.9,-1.5 -8.7,-2.8 -13.9,-3.6 -5.2,-0.8 -10.8,-0.9 -16.4,-0.5 -11.2,0.8 -22,4.4 -29.4,8.2 -3.7,1.9 -6.7,3.8 -8.7,5.2 -1,0.7 -1.8,1.3 -2.3,1.7 -0.5,0.4 -0.8,0.6 -0.8,0.6 z"
     id="path21823" />
  <path
     fill="#6d6e71"
     d="m 74.7,48.9 c 0,0 0.4,-0.3 1.2,-1 0.4,-0.3 0.9,-0.7 1.4,-1.2 0.5,-0.5 1.3,-0.9 2,-1.4 3,-2.1 7.7,-4.8 13.8,-7.1 6,-2.3 13.4,-4.2 21.4,-5.4 8,-1.2 16.7,-1.5 25.4,-1.1 8.7,0.4 17.2,1.8 25.1,3.9 7.8,2.1 14.9,4.9 20.6,7.9 5.7,3 10,6.2 12.9,8.6 0.6,0.5 1,0.9 1,0.9 l -7.6,8.7 c 7.4,0.7 15.3,3 22.6,7.9 0.5,-8.7 -1.3,-18.4 -5.3,-27.7 l -7.6,8.7 c 0,0 -0.4,-0.3 -1,-0.9 -3,-2.5 -7.5,-5.8 -13.5,-9 -5.9,-3.1 -13.2,-6 -21.2,-8.2 -8,-2.1 -16.8,-3.6 -25.7,-4 -8.9,-0.5 -17.8,-0.1 -26,1.1 -8.2,1.2 -15.8,3.2 -22.1,5.6 -6.3,2.4 -11.2,5.2 -14.4,7.4 -0.8,0.6 -1.6,1 -2.1,1.5 -0.6,0.5 -1.1,0.9 -1.5,1.2 -0.8,0.7 -1.3,1 -1.3,1 z"
     id="path21825" />
  <circle
     fill="#f58235"
     stroke="#e76524"
     stroke-width="6"
     stroke-miterlimit="10"
     cx="237.8"
     cy="115.2"
     r="10"
     id="circle21827" />
  <path
     fill="#6d6e71"
     d="m 60.8,133.8 c 0,0 0.5,0.5 1.3,1.4 l 1.6,1.6 c 0.7,0.6 1.3,1.4 2.2,2.1 3.5,3.1 8.7,7.2 15.7,10.9 7,3.7 15.8,6.9 25.5,8.8 4.8,1 9.9,1.6 15.1,2.1 1.3,0.1 2.6,0.1 3.9,0.2 1.3,0 2.6,0.2 3.9,0.1 2.6,0 5.2,0.1 7.9,-0.1 10.5,-0.4 20.9,-1.9 30.5,-4.1 9.6,-2.2 18.3,-5 25.6,-8 7.3,-2.9 13.1,-6 17.1,-8.3 0.8,-0.5 1.2,-0.7 1.2,-0.7 l 6,9.9 c 0.6,-1 1.3,-2 1.9,-3.1 l 1.7,-3.2 0.8,-1.6 0.8,-1.6 1.5,-3.2 c 1.8,-4.4 3.2,-8.9 3.7,-13.3 -4,1.8 -8.1,2.6 -12.1,3.1 l -3,0.3 -1.5,0.1 h -4.5 c -1,0 -2,-0.1 -3,-0.1 l 6,9.9 c 0,0 -0.4,0.3 -1.2,0.7 -3.9,2.3 -9.5,5.2 -16.7,8.1 -7.1,2.9 -15.7,5.7 -25.1,7.8 -9.4,2.2 -19.6,3.6 -29.9,4 -2.6,0.2 -5.1,0.1 -7.7,0.1 -1.3,0 -2.6,-0.1 -3.8,-0.1 -1.3,-0.1 -2.5,-0.1 -3.8,-0.2 -5,-0.4 -10,-1 -14.7,-2 -9.4,-1.9 -17.9,-5 -24.6,-8.5 -6.8,-3.6 -11.8,-7.5 -15.1,-10.5 -0.9,-0.7 -1.5,-1.5 -2.1,-2.1 -0.6,-0.6 -1.1,-1.1 -1.5,-1.6 l -1.3,-1.3 z"
     id="path21829" />
  <circle
     fill="#fce600"
     stroke="#ffdd00"
     stroke-width="6"
     stroke-miterlimit="10"
     cx="62.299999"
     cy="129.8"
     r="10"
     id="circle21831" />
  <circle
     fill="#39bced"
     stroke="#008dd2"
     stroke-width="6"
     stroke-miterlimit="10"
     cx="65.599998"
     cy="55.599998"
     r="10"
     id="circle21833" />
  <circle
     fill="#54b948"
     stroke="#00873a"
     stroke-width="6"
     stroke-miterlimit="10"
     cx="104.5"
     cy="67.300003"
     r="10"
     id="circle21835" />
  <circle
     opacity="0.14"
     stroke="#000000"
     stroke-width="6"
     stroke-miterlimit="10"
     cx="517.90002"
     cy="101.3"
     r="56.200001"
     id="circle21837" />
  <circle
     fill="#d9ecd5"
     stroke="#808285"
     stroke-width="6"
     stroke-miterlimit="10"
     cx="512.29999"
     cy="97.699997"
     r="56.200001"
     id="circle21839" />
  <circle
     fill="#d71920"
     stroke="#be1e2d"
     stroke-width="6"
     stroke-miterlimit="10"
     cx="476.70001"
     cy="83.300003"
     r="9"
     id="circle21841" />
  <circle
     fill="#8967ac"
     stroke="#651c5f"
     stroke-width="6"
     stroke-miterlimit="10"
     cx="508.29999"
     cy="94"
     r="9"
     id="circle21843" />
  <circle
     fill="#54b948"
     stroke="#00873a"
     stroke-width="6"
     stroke-miterlimit="10"
     cx="534.20001"
     cy="69.900002"
     r="9"
     id="circle21845" />
  <path
     fill="#6d6e71"
     d="m 407.5,125.5 c 0,0 0.3,0.2 0.8,0.6 0.5,0.4 1.2,1 2.3,1.6 0.5,0.3 1.1,0.7 1.7,1 0.6,0.3 1.4,0.6 2.1,1 0.8,0.3 1.6,0.6 2.5,0.9 0.9,0.3 1.8,0.5 2.8,0.8 3.9,0.9 8.6,1.3 13.5,1.1 4.9,-0.2 10.1,-1 15.2,-2.1 10.2,-2.3 19.9,-6.3 26.8,-9.8 3.5,-1.8 6.3,-3.4 8.2,-4.6 0.6,-0.4 1,-0.6 1,-0.6 l 6.1,9.8 c 2.5,-4.1 4.6,-8.3 6.5,-12.6 1.8,-4.3 3.3,-8.6 4.1,-12.9 -4.2,1.4 -8.3,2.2 -12.4,2.7 -4.1,0.5 -8.1,0.6 -12.1,0.5 l 6.1,9.8 c 0,0 -0.4,0.2 -1,0.6 -1.9,1.2 -4.6,2.7 -8,4.5 -6.8,3.4 -16.2,7.3 -26.1,9.5 -4.9,1.1 -9.9,1.8 -14.6,2 -4.7,0.2 -9.1,-0.2 -12.7,-1 -3.6,-0.8 -6.4,-2.1 -8.2,-3.2 -0.9,-0.5 -1.5,-1 -2,-1.4 -0.4,-0.3 -0.7,-0.5 -0.7,-0.5 z M 377.4,73.1 378.5,72 c 0.4,-0.4 0.8,-0.8 1.3,-1.4 0.3,-0.3 0.5,-0.6 0.9,-0.9 0.3,-0.3 0.7,-0.6 1,-0.9 2.8,-2.7 7.1,-6.2 12.7,-9.9 1.4,-1 2.9,-1.8 4.4,-2.7 1.5,-0.9 3.2,-1.7 4.9,-2.7 3.4,-1.7 7.1,-3.4 11,-4.8 3.9,-1.5 8,-2.7 12.3,-3.8 2.1,-0.5 4.3,-1 6.5,-1.4 2.2,-0.4 4.4,-0.7 6.6,-1 8.8,-1.1 17.8,-1.1 26.1,-0.2 8.3,0.9 16,2.5 22.4,4.5 0.8,0.2 1.6,0.5 2.3,0.7 0.8,0.3 1.5,0.5 2.2,0.8 1.4,0.5 2.8,0.9 4.1,1.5 1.3,0.5 2.4,1 3.5,1.4 1.1,0.5 2.1,0.9 2.9,1.3 0.8,0.3 1.2,0.5 1.2,0.5 L 500,63.5 c 8,-1.1 16.5,-1.3 25.2,-0.4 -3.6,-8 -8.3,-15.9 -14.1,-23.4 l -4.9,10.5 -1.2,-0.6 c -0.9,-0.4 -1.9,-0.9 -3,-1.4 -1.1,-0.4 -2.3,-0.9 -3.6,-1.4 -1.3,-0.5 -2.7,-1 -4.2,-1.5 -0.7,-0.3 -1.5,-0.5 -2.3,-0.8 -0.8,-0.2 -1.6,-0.5 -2.4,-0.7 -6.6,-2 -14.4,-3.7 -22.9,-4.6 -8.5,-0.9 -17.7,-0.8 -26.8,0.2 -2.3,0.3 -4.5,0.6 -6.8,1 -2.3,0.4 -4.5,0.9 -6.7,1.4 -4.4,1.1 -8.6,2.3 -12.6,3.9 -4,1.4 -7.8,3.2 -11.4,4.9 -1.7,0.9 -3.4,1.8 -5,2.8 -1.6,1 -3.2,1.8 -4.6,2.8 -5.7,3.8 -10.2,7.5 -13.1,10.2 -0.4,0.3 -0.7,0.7 -1.1,1 l -0.9,0.9 c -0.5,0.6 -1,1 -1.4,1.4 l -1.2,1.2 z"
     id="path21847" />
  <circle
     fill="#8967ac"
     stroke="#651c5f"
     stroke-width="6"
     stroke-miterlimit="10"
     cx="370.5"
     cy="81.599998"
     r="11.3"
     id="circle21849" />
  <circle
     fill="#f58235"
     stroke="#e76524"
     stroke-width="6"
     stroke-miterlimit="10"
     cx="398.20001"
     cy="115.2"
     r="11.3"
     id="circle21851" />
  <path
     fill="#6d6e71"
     d="m 48.6,107.1 0.4,0.4 c 0.2,0.2 0.6,0.6 1.1,1 0.9,0.9 2.4,2 4.4,3.2 3.9,2.5 9.9,5.1 17.2,7.4 14.7,4.7 34.8,8.4 55,10.7 20.2,2.3 40.6,3.1 55.9,2.6 7.7,-0.2 14,-0.7 18.5,-1.2 0.9,-0.1 1.4,-0.2 1.4,-0.2 l 1.4,11.5 c 3.8,-2.7 7.6,-5.5 11.1,-8.6 1.8,-1.5 3.5,-3.1 5.1,-4.8 1.6,-1.7 3,-3.5 4.1,-5.4 -2.2,0 -4.3,-0.4 -6.3,-0.8 -2,-0.5 -4,-1.1 -5.9,-1.7 -3.9,-1.4 -7.6,-3 -11.3,-4.7 l 1.4,11.5 c 0,0 -0.5,0.1 -1.4,0.2 -4.4,0.5 -10.6,1 -18.2,1.2 -15.1,0.4 -35.4,-0.3 -55.5,-2.6 -20.1,-2.2 -40.1,-5.9 -54.4,-10.5 -7.2,-2.3 -12.9,-4.8 -16.5,-7.1 -1.8,-1.1 -3.1,-2.1 -3.9,-2.9 l -0.9,-0.9 C 51.1,105.1 51,105 51,105 Z"
     id="path21853" />
  <circle
     fill="#d71920"
     stroke="#be1e2d"
     stroke-width="6"
     stroke-miterlimit="10"
     cx="42.299999"
     cy="99.5"
     r="10"
     id="circle21855" />
</svg>
