<?xml version="1.0" encoding="UTF-8" standalone="no"?>
<svg
   xmlns:dc="http://purl.org/dc/elements/1.1/"
   xmlns:cc="http://creativecommons.org/ns#"
   xmlns:rdf="http://www.w3.org/1999/02/22-rdf-syntax-ns#"
   xmlns:svg="http://www.w3.org/2000/svg"
   xmlns="http://www.w3.org/2000/svg"
   xmlns:sodipodi="http://sodipodi.sourceforge.net/DTD/sodipodi-0.dtd"
   xmlns:inkscape="http://www.inkscape.org/namespaces/inkscape"
   viewBox="0 0 596.04969 160"
   version="1.1"
   id="svg15613"
   sodipodi:docname="hom_set.svg"
   inkscape:version="0.92.5 (2060ec1f9f, 2020-04-08)"
   width="596.04968"
   height="160">
  <metadata
     id="metadata15619">
    <rdf:RDF>
      <cc:Work
         rdf:about="">
        <dc:format>image/svg+xml</dc:format>
        <dc:type
           rdf:resource="http://purl.org/dc/dcmitype/StillImage" />
        <dc:title></dc:title>
      </cc:Work>
    </rdf:RDF>
  </metadata>
  <defs
     id="defs15617" />
  <sodipodi:namedview
     pagecolor="#ffffff"
     bordercolor="#666666"
     borderopacity="1"
     objecttolerance="10"
     gridtolerance="10"
     guidetolerance="10"
     inkscape:pageopacity="0"
     inkscape:pageshadow="2"
     inkscape:window-width="1920"
     inkscape:window-height="1016"
     id="namedview15615"
     showgrid="false"
     inkscape:zoom="1.9174532"
     inkscape:cx="-15.055631"
     inkscape:cy="153.59747"
     inkscape:window-x="0"
     inkscape:window-y="27"
     inkscape:window-maximized="1"
     inkscape:current-layer="svg15613"
     inkscape:showpageshadow="2"
     inkscape:pagecheckerboard="0"
     inkscape:deskcolor="#d1d1d1"
     showguides="false"
     inkscape:guide-bbox="true">
    <sodipodi:guide
       position="424.82759,-5.9003832"
       orientation="0,1"
       id="guide20669"
       inkscape:locked="false" />
  </sodipodi:namedview>
  <g
     id="g42748"
     transform="matrix(0.63957119,0,0,0.63957119,143.92713,37.432672)" />
  <g
     id="g42748-8"
     transform="matrix(0.63957119,0,0,0.63957119,146.9643,139.14438)" />
  <g
     id="g42748-0"
     transform="matrix(0.63957119,0,0,0.63957119,763.49731,-918.29811)" />
  <g
     id="g42748-8-9"
     transform="matrix(0.63957119,0,0,0.63957119,766.53447,-816.58641)" />
  <g
     id="g2-93-0"
     transform="matrix(0.8403412,0,0,0.8403412,27.625558,-123.08924)"
     style="opacity:1">
    <g
       id="g2762-1-3-0-3"
       transform="matrix(0.58377771,0,0,0.58377771,-11.35869,7.1864401)"
       style="stroke:#333333">
      <circle
         cx="588.24414"
         cy="422.29401"
         r="122.87096"
         id="circle15601-2-8-8-6-2"
         style="opacity:1;fill:#b3b3b3;stroke:#cccccc;stroke-width:0;stroke-miterlimit:10;stroke-dasharray:none;stroke-opacity:1" />
      <circle
         cx="583.42084"
         cy="415.31961"
         r="122.87096"
         id="circle15601-2-8-8-6"
         style="fill:#e6e7e8;stroke:#b3b3b3;stroke-width:4.73936081;stroke-miterlimit:10;stroke-dasharray:none;stroke-opacity:1" />
    </g>
  </g>
  <g
     id="g2836-2-5-1-0-7-7-3-2-6-3"
     transform="matrix(2.1763414,-1.8108103,1.8108103,2.1763414,-467.68746,297.95101)"
     style="opacity:1;fill:#4d4d4d;stroke:#b3b3b3">
    <path
       d="m 273.21167,117.26782 c -0.57835,-0.53701 -1.18546,-1.05059 -1.82141,-1.54094 0.005,0.90274 -0.23069,1.50591 -0.26419,2.48087 1.09658,-0.45317 1.14943,-0.45438 2.0856,-0.93993 z"
       id="path1478-7-9-0-19-0-0-3-9-5-2-4-5-5-9-4-74"
       inkscape:connector-curvature="0"
       style="display:inline;fill:#4d4d4d;stroke:#b3b3b3;stroke-width:2.33962011;stroke-miterlimit:10"
       sodipodi:nodetypes="cccc" />
    <path
       sodipodi:nodetypes="cc"
       d="m 261.50224,117.05671 c 2.40313,-0.74385 8.27942,-1.02831 11.70943,0.21111"
       id="path1480-1-3-1-5-7-6-7-2-9-9-3-9-6-3-0-5"
       inkscape:connector-curvature="0"
       style="display:inline;fill:none;stroke:#b3b3b3;stroke-width:0.83059484;stroke-miterlimit:10;stroke-dasharray:none;paint-order:markers fill stroke" />
  </g>
  <g
     id="g2836-2-5-1-0-7-7-3-2-6-45"
     transform="matrix(2.1763414,-1.8108103,1.8108103,2.1763414,-505.55392,335.03646)"
     style="opacity:1;fill:#4d4d4d;stroke:#b3b3b3">
    <path
       d="m 273.21167,117.26782 c -0.57835,-0.53701 -1.18546,-1.05059 -1.82141,-1.54094 0.005,0.90274 -0.23069,1.50591 -0.26419,2.48087 1.09658,-0.45317 1.14943,-0.45438 2.0856,-0.93993 z"
       id="path1478-7-9-0-19-0-0-3-9-5-2-4-5-5-9-4-0"
       inkscape:connector-curvature="0"
       style="display:inline;fill:#4d4d4d;stroke:#b3b3b3;stroke-width:2.33962011;stroke-miterlimit:10"
       sodipodi:nodetypes="cccc" />
    <path
       sodipodi:nodetypes="cc"
       d="m 261.50224,117.05671 c 2.40313,-0.74385 8.27942,-1.02831 11.70943,0.21111"
       id="path1480-1-3-1-5-7-6-7-2-9-9-3-9-6-3-0-3"
       inkscape:connector-curvature="0"
       style="display:inline;fill:none;stroke:#b3b3b3;stroke-width:0.83059484;stroke-miterlimit:10;stroke-dasharray:none;paint-order:markers fill stroke" />
  </g>
  <g
     id="g2836-2-5-1-0-7-7-3-2-6-6"
     transform="matrix(2.7499776,-0.67314113,0.67314113,2.7499776,-518.99939,-86.325889)"
     style="opacity:1;fill:#4d4d4d;stroke:#b3b3b3">
    <path
       d="m 273.21167,117.26782 c -0.57835,-0.53701 -1.18546,-1.05059 -1.82141,-1.54094 0.005,0.90274 -0.23069,1.50591 -0.26419,2.48087 1.09658,-0.45317 1.14943,-0.45438 2.0856,-0.93993 z"
       id="path1478-7-9-0-19-0-0-3-9-5-2-4-5-5-9-4-1"
       inkscape:connector-curvature="0"
       style="display:inline;fill:#4d4d4d;stroke:#b3b3b3;stroke-width:2.33962011;stroke-miterlimit:10"
       sodipodi:nodetypes="cccc" />
    <path
       sodipodi:nodetypes="cc"
       d="m 261.50224,117.05671 c 2.40313,-0.74385 8.27942,-1.02831 11.70943,0.21111"
       id="path1480-1-3-1-5-7-6-7-2-9-9-3-9-6-3-0-0"
       inkscape:connector-curvature="0"
       style="display:inline;fill:none;stroke:#b3b3b3;stroke-width:0.83059484;stroke-miterlimit:10;stroke-dasharray:none;paint-order:markers fill stroke" />
  </g>
  <g
     style="opacity:1;fill:#4d4d4d;stroke:#806600;stroke-opacity:1"
     transform="matrix(2.1763414,-1.8108103,1.8108103,2.1763414,-468.32987,295.80964)"
     id="g2836-2-5-1-0-7-7-3-2-6-63">
    <path
       sodipodi:nodetypes="cccc"
       style="display:inline;fill:#4d4d4d;stroke:#806600;stroke-width:2.33962011;stroke-miterlimit:10;stroke-opacity:1"
       inkscape:connector-curvature="0"
       id="path1478-7-9-0-19-0-0-3-9-5-2-4-5-5-9-4-2"
       d="m 273.21167,117.26782 c -0.57835,-0.53701 -1.18546,-1.05059 -1.82141,-1.54094 0.005,0.90274 -0.23069,1.50591 -0.26419,2.48087 1.09658,-0.45317 1.14943,-0.45438 2.0856,-0.93993 z" />
    <path
       style="display:inline;fill:none;stroke:#806600;stroke-width:0.83059484;stroke-miterlimit:10;stroke-dasharray:none;stroke-opacity:1;paint-order:markers fill stroke"
       inkscape:connector-curvature="0"
       id="path1480-1-3-1-5-7-6-7-2-9-9-3-9-6-3-0-06"
       d="m 261.50224,117.05671 c 2.40313,-0.74385 8.27942,-1.02831 11.70943,0.21111"
       sodipodi:nodetypes="cc" />
  </g>
  <g
     style="opacity:1;fill:#4d4d4d;stroke:#0e2db8;stroke-opacity:1"
     transform="matrix(2.1763414,-1.8108103,1.8108103,2.1763414,-505.55392,333.03646)"
     id="g2836-2-5-1-0-7-7-3-2-6-45-4">
    <path
       sodipodi:nodetypes="cccc"
       style="display:inline;fill:#4d4d4d;stroke:#0e2db8;stroke-width:2.33962011;stroke-miterlimit:10;stroke-opacity:1"
       inkscape:connector-curvature="0"
       id="path1478-7-9-0-19-0-0-3-9-5-2-4-5-5-9-4-0-7"
       d="m 273.21167,117.26782 c -0.57835,-0.53701 -1.18546,-1.05059 -1.82141,-1.54094 0.005,0.90274 -0.23069,1.50591 -0.26419,2.48087 1.09658,-0.45317 1.14943,-0.45438 2.0856,-0.93993 z" />
    <path
       style="display:inline;fill:none;stroke:#0e2db8;stroke-width:0.83059484;stroke-miterlimit:10;stroke-dasharray:none;stroke-opacity:1;paint-order:markers fill stroke"
       inkscape:connector-curvature="0"
       id="path1480-1-3-1-5-7-6-7-2-9-9-3-9-6-3-0-3-6"
       d="m 261.50224,117.05671 c 2.40313,-0.74385 8.27942,-1.02831 11.70943,0.21111"
       sodipodi:nodetypes="cc" />
  </g>
  <g
     style="opacity:1;fill:#4d4d4d;stroke:#800000;stroke-opacity:1"
     transform="matrix(2.7499776,-0.67314113,0.67314113,2.7499776,-519.6418,-88.467259)"
     id="g2836-2-5-1-0-7-7-3-2-6-6-5">
    <path
       sodipodi:nodetypes="cccc"
       style="display:inline;fill:#4d4d4d;stroke:#800000;stroke-width:2.33962011;stroke-miterlimit:10;stroke-opacity:1"
       inkscape:connector-curvature="0"
       id="path1478-7-9-0-19-0-0-3-9-5-2-4-5-5-9-4-1-6"
       d="m 273.21167,117.26782 c -0.57835,-0.53701 -1.18546,-1.05059 -1.82141,-1.54094 0.005,0.90274 -0.23069,1.50591 -0.26419,2.48087 1.09658,-0.45317 1.14943,-0.45438 2.0856,-0.93993 z" />
    <path
       style="display:inline;fill:none;stroke:#800000;stroke-width:0.83059484;stroke-miterlimit:10;stroke-dasharray:none;stroke-opacity:1;paint-order:markers fill stroke"
       inkscape:connector-curvature="0"
       id="path1480-1-3-1-5-7-6-7-2-9-9-3-9-6-3-0-0-9"
       d="m 261.50224,117.05671 c 2.40313,-0.74385 8.27942,-1.02831 11.70943,0.21111"
       sodipodi:nodetypes="cc" />
  </g>
</svg>
