<svg xmlns="http://www.w3.org/2000/svg" viewBox="0 0 595.3 307"><g stroke-miterlimit="10"><circle opacity=".14" stroke="#000" stroke-width="6" cx="188.6" cy="171.8" r="114.5"/><circle fill="#FBC4AB" stroke="#808285" stroke-width="6" cx="177.3" cy="164.5" r="114.5"/><circle opacity=".14" stroke="#000" stroke-width="6" cx="459.4" cy="160.8" r="114.5"/><circle fill="#C8E3B7" stroke="#808285" stroke-width="6" cx="448.1" cy="153.5" r="114.5"/><circle fill="#54B948" stroke="#00873A" stroke-width="6" cx="492.8" cy="96.8" r="18.3"/><path fill="none" stroke="#6D6E71" stroke-width="4" d="M253.2 195.4c41.2 34.4 131 8.7 172.1-38.3M233.6 93.8c30.4-27.5 91-31 131.4 14.8M177.3 174.7c56.3 89.2 244.3 107.9 323.2 14.9M119.6 121.6C225.6 8.3 357.5 4.3 474.5 85.9"/><circle fill="#D71920" stroke="#BE1E2D" stroke-width="6" cx="104.7" cy="135.3" r="18.3"/><circle fill="#F58235" stroke="#E76524" stroke-width="6" cx="240.2" cy="185.8" r="18.3"/><circle fill="#8967AC" stroke="#651C5F" stroke-width="6" cx="169" cy="157.1" r="18.3"/><circle fill="#54B948" stroke="#00873A" stroke-width="6" cx="221.9" cy="107.9" r="18.3"/><path fill="#6D6E71" stroke="#6D6E71" d="M118.6 121.6l8.9-24.7 15.8 19.3zM234.3 94.6l9-24.7L259 89.2zM255.9 197.9l26.1-2.2-10.9 22.4zM176.2 174.8l24.5 9.5-19.7 15.3z"/><circle fill="#D71920" stroke="#BE1E2D" stroke-width="6" cx="375.5" cy="124.2" r="18.3"/><circle fill="#A9CF38" stroke="#80B541" stroke-width="6" cx="511.1" cy="174.7" r="18.3"/><circle fill="#048A7A" stroke="#006A74" stroke-width="6" cx="439.8" cy="146.1" r="18.3"/></g></svg>