<svg xmlns="http://www.w3.org/2000/svg" viewBox="0 0 595.3 195.3"><switch><g><g stroke-miterlimit="10"><circle opacity=".14" stroke="#000" cx="203.2" cy="119.3" r="61.4"/><circle fill="#E6E7E8" stroke="#808285" stroke-width="6" cx="194.2" cy="112.4" r="61.4"/><circle opacity=".14" stroke="#000" stroke-width="6" cx="401.1" cy="100.3" r="61.4"/><circle fill="#E6E7E8" stroke="#808285" stroke-width="6" cx="392.1" cy="93.4" r="61.4"/></g><circle fill="#39BCED" stroke="#008DD2" stroke-width="6" stroke-miterlimit="10" cx="394.6" cy="92.8" r="24.6"/><circle fill="#D71920" stroke="#BE1E2D" stroke-width="6" stroke-miterlimit="10" cx="197.2" cy="109.6" r="24.6"/><path fill="#6D6E71" d="M224.1 101.8s1.9-.5 5.1-1.5c1.6-.5 3.6-1 5.9-1.6 1.1-.3 2.4-.6 3.6-.9 1.3-.3 2.6-.7 4.1-.9 11.3-2.5 26.6-5 42.1-6.2 15.5-1.2 31-1.1 42.6-.6 2.9.1 5.6.3 7.9.5 2.4.2 4.4.3 6.1.5.8.1 1.3.1 1.3.1l-1.1 11.5c7.7-3.8 15.6-7.1 23.8-10.3-6.8-5.5-13.9-10.9-21.4-15.9L343 88s-.5 0-1.3-.1c-1.7-.2-3.8-.3-6.1-.5-2.4-.2-5.1-.4-8-.5-11.7-.6-27.4-.6-43 .6-15.6 1.2-31.1 3.6-42.5 6.2-1.4.3-2.8.6-4.1.9-1.3.3-2.5.6-3.7.9-2.3.5-4.3 1.1-6 1.6-3.3.9-5.2 1.5-5.2 1.5l1 3.2z"/></g></switch></svg>