<?xml version="1.0" encoding="UTF-8" standalone="no"?>
<svg
   xmlns:dc="http://purl.org/dc/elements/1.1/"
   xmlns:cc="http://creativecommons.org/ns#"
   xmlns:rdf="http://www.w3.org/1999/02/22-rdf-syntax-ns#"
   xmlns:svg="http://www.w3.org/2000/svg"
   xmlns="http://www.w3.org/2000/svg"
   xmlns:sodipodi="http://sodipodi.sourceforge.net/DTD/sodipodi-0.dtd"
   xmlns:inkscape="http://www.inkscape.org/namespaces/inkscape"
   viewBox="0 0 595.3 359"
   version="1.1"
   id="svg3170"
   sodipodi:docname="square.svg">
  <metadata
     id="metadata3176">
    <rdf:RDF>
      <cc:Work
         rdf:about="">
        <dc:format>image/svg+xml</dc:format>
        <dc:type
           rdf:resource="http://purl.org/dc/dcmitype/StillImage" />
      </cc:Work>
    </rdf:RDF>
  </metadata>
  <defs
     id="defs3174" />
  <sodipodi:namedview
     pagecolor="#ffffff"
     bordercolor="#666666"
     borderopacity="1"
     objecttolerance="10"
     gridtolerance="10"
     guidetolerance="10"
     inkscape:pageopacity="0"
     inkscape:pageshadow="2"
     inkscape:window-width="640"
     inkscape:window-height="480"
     id="namedview3172"
     showgrid="false" />
  <switch
     id="switch3168">
    <g
       id="g3166"
       transform="translate(95.801269,46.172636)">
      <circle
         opacity="0.14"
         stroke="#000000"
         stroke-width="6"
         stroke-miterlimit="10"
         cx="137.8"
         cy="159.89999"
         r="114.9"
         id="circle3114" />
      <circle
         fill="#e6e7e8"
         stroke="#808285"
         stroke-width="6"
         stroke-miterlimit="10"
         cx="127.1"
         cy="147"
         r="114.9"
         id="circle3116" />
      <circle
         opacity="0.14"
         stroke="#000000"
         stroke-width="6"
         stroke-miterlimit="10"
         cx="435.29999"
         cy="164.7"
         r="114.9"
         id="circle3118" />
      <circle
         fill="#e6e7e8"
         stroke="#808285"
         stroke-width="6"
         stroke-miterlimit="10"
         cx="424.5"
         cy="151.7"
         r="114.9"
         id="circle3120" />
      <circle
         fill="#ffffff"
         stroke="#939598"
         stroke-width="6"
         stroke-miterlimit="10"
         cx="415.70001"
         cy="80.699997"
         r="24.6"
         id="circle3122" />
      <path
         fill="#808285"
         d="m 424.9,80.1 c 0,4.1 -0.7,7.1 -2.1,9.1 -1.4,1.9 -3.5,2.9 -6.3,2.9 -2.8,0 -4.9,-1 -6.3,-3 -1.4,-2 -2.1,-5 -2.1,-8.9 0,-4.1 0.7,-7.2 2.1,-9.1 1.4,-1.9 3.5,-2.9 6.3,-2.9 2.8,0 4.9,1 6.3,3 1.4,1.9 2.1,4.9 2.1,8.9 z m -10.6,0 c 0,2.6 0.2,4.5 0.5,5.4 0.3,1 0.9,1.5 1.7,1.5 0.8,0 1.3,-0.5 1.7,-1.5 0.3,-1 0.5,-2.8 0.5,-5.4 0,-2.6 -0.2,-4.4 -0.5,-5.4 -0.3,-1 -0.9,-1.6 -1.7,-1.6 -0.8,0 -1.3,0.5 -1.7,1.5 -0.3,1 -0.5,2.9 -0.5,5.5 z"
         id="path3124" />
      <circle
         fill="#ffffff"
         stroke="#939598"
         stroke-width="6"
         stroke-miterlimit="10"
         cx="371.39999"
         cy="133.60001"
         r="24.6"
         id="circle3126" />
      <path
         fill="#808285"
         d="m 376.6,143.7 h -6.4 v -12.3 c 0,-1.5 0,-2.9 0.1,-4.1 -0.4,0.5 -0.9,1 -1.5,1.5 l -2.6,2.2 -3.3,-4 8,-6.5 h 5.7 z"
         id="path3128" />
      <circle
         fill="#ffffff"
         stroke="#939598"
         stroke-width="6"
         stroke-miterlimit="10"
         cx="490.5"
         cy="134.60001"
         r="24.6"
         id="circle3130" />
      <path
         fill="#808285"
         d="m 498.6,144.7 h -16.9 v -4.1 l 5.7,-5.8 c 1.6,-1.7 2.7,-2.9 3.2,-3.5 0.5,-0.6 0.8,-1.2 1,-1.6 0.2,-0.4 0.3,-0.9 0.3,-1.4 0,-0.6 -0.2,-1.1 -0.6,-1.4 -0.4,-0.4 -0.9,-0.5 -1.7,-0.5 -0.7,0 -1.5,0.2 -2.2,0.6 -0.7,0.4 -1.6,1 -2.5,1.9 l -3.5,-4.1 c 1.2,-1.1 2.2,-1.8 3,-2.3 0.8,-0.5 1.7,-0.8 2.7,-1.1 1,-0.3 2,-0.4 3.2,-0.4 1.5,0 2.9,0.3 4,0.8 1.1,0.5 2.1,1.3 2.8,2.3 0.7,1 1,2.1 1,3.3 0,0.9 -0.1,1.8 -0.3,2.5 -0.2,0.8 -0.6,1.5 -1.1,2.3 -0.5,0.8 -1.1,1.5 -1.9,2.4 -0.8,0.8 -2.5,2.4 -5.1,4.7 v 0.2 h 8.8 v 5.2 z"
         id="path3132" />
      <circle
         fill="#ffffff"
         stroke="#939598"
         stroke-width="6"
         stroke-miterlimit="10"
         cx="475.70001"
         cy="213.2"
         r="24.6"
         id="circle3134" />
      <path
         fill="#808285"
         d="m 483,205 c 0,1.4 -0.4,2.7 -1.3,3.7 -0.9,1 -2.2,1.8 -3.8,2.3 v 0.1 c 3.9,0.5 5.8,2.3 5.8,5.5 0,2.2 -0.9,3.9 -2.6,5.1 -1.7,1.2 -4.1,1.9 -7.2,1.9 -1.3,0 -2.4,-0.1 -3.5,-0.3 -1.1,-0.2 -2.2,-0.5 -3.5,-1 v -5.2 c 1,0.5 2.1,0.9 3.1,1.2 1,0.3 2,0.4 2.9,0.4 1.4,0 2.4,-0.2 3,-0.6 0.6,-0.4 0.9,-1 0.9,-1.8 0,-0.6 -0.2,-1.1 -0.5,-1.5 -0.3,-0.4 -0.9,-0.6 -1.6,-0.8 -0.7,-0.2 -1.7,-0.3 -2.9,-0.3 h -1.4 V 209 h 1.5 c 3.2,0 4.8,-0.8 4.8,-2.5 0,-0.6 -0.2,-1.1 -0.7,-1.4 -0.5,-0.3 -1.1,-0.4 -1.9,-0.4 -1.5,0 -3,0.5 -4.6,1.5 l -2.6,-4.2 c 1.2,-0.9 2.5,-1.5 3.8,-1.8 1.3,-0.4 2.8,-0.5 4.4,-0.5 2.4,0 4.3,0.5 5.7,1.4 1.5,0.9 2.2,2.2 2.2,3.9 z"
         id="path3136" />
      <circle
         fill="#ffffff"
         stroke="#939598"
         stroke-width="6"
         stroke-miterlimit="10"
         cx="379.39999"
         cy="215.89999"
         r="24.6"
         id="circle3138" />
      <path
         fill="#808285"
         d="m 388.2,221.5 h -2.6 v 4.5 h -6.2 v -4.5 h -9.3 v -4.6 l 9.7,-14.2 h 5.8 v 14.1 h 2.6 z m -8.8,-4.7 v -2.7 c 0,-0.5 0,-1.2 0.1,-2.1 0,-0.9 0.1,-1.3 0.1,-1.4 h -0.2 c -0.4,0.8 -0.8,1.6 -1.2,2.3 l -2.6,3.8 h 3.8 z"
         id="path3140" />
      <path
         fill="#6d6e71"
         d="m 223.5,135.4 c 0,0 0.3,-0.4 0.8,-1.1 0.3,-0.4 0.5,-0.8 0.9,-1.4 0.4,-0.5 0.9,-1.1 1.4,-1.8 2.1,-2.6 5.5,-6.1 10.2,-9.8 4.6,-3.7 10.5,-7.4 17.1,-10.7 6.6,-3.3 14,-6.1 21.6,-8.1 7.6,-2 15.5,-3 22.8,-3.1 7.4,-0.1 14.2,0.8 19.9,2.2 0.4,0.1 0.7,0.2 1.1,0.2 0.3,0.1 0.7,0.2 1,0.3 0.7,0.2 1.3,0.4 2,0.6 0.6,0.2 1.3,0.4 1.9,0.6 0.6,0.2 1.2,0.4 1.7,0.7 1.1,0.4 2.2,0.8 3.1,1.2 0.9,0.4 1.8,0.8 2.6,1.2 0.7,0.3 1.1,0.5 1.1,0.5 l -5.1,10.4 c 7.5,-1.2 15.9,-0.8 24.4,1.3 -2.5,-8.4 -6.6,-17 -12.7,-24.9 l -5.1,10.4 -1.2,-0.6 c -0.8,-0.4 -1.7,-0.8 -2.7,-1.2 -1,-0.4 -2.1,-0.8 -3.3,-1.3 -0.6,-0.2 -1.2,-0.4 -1.8,-0.7 -0.6,-0.2 -1.3,-0.4 -1.9,-0.6 l -2.1,-0.6 c -0.4,-0.1 -0.7,-0.2 -1.1,-0.3 -0.4,-0.1 -0.7,-0.2 -1.1,-0.3 -5.9,-1.5 -13.1,-2.4 -20.7,-2.3 -7.6,0.1 -15.7,1.2 -23.6,3.2 -7.8,2.1 -15.5,4.9 -22.3,8.4 -6.8,3.4 -12.8,7.3 -17.6,11.1 -4.8,3.8 -8.4,7.5 -10.7,10.3 -0.6,0.7 -1.1,1.4 -1.5,1.9 -0.4,0.6 -0.7,1.1 -1,1.5 -0.5,0.8 -0.8,1.3 -0.8,1.3 z M 153,183.6 c 0,0 0.5,0.7 1.5,1.9 0.5,0.6 1.1,1.4 1.8,2.3 0.3,0.5 0.7,0.9 1.1,1.5 0.4,0.5 0.9,1 1.4,1.6 1,1.1 2.1,2.3 3.2,3.6 1.2,1.3 2.7,2.6 4.1,4 3,2.8 6.7,5.7 10.9,8.5 0.5,0.4 1.1,0.7 1.6,1 0.6,0.3 1.1,0.6 1.7,1 1.2,0.6 2.3,1.4 3.5,1.9 2.5,1.1 5,2.4 7.8,3.3 0.7,0.2 1.4,0.5 2.1,0.7 0.3,0.1 0.7,0.3 1,0.4 l 1.1,0.3 c 1.4,0.4 2.9,0.8 4.4,1.2 l 4.5,0.9 c 0.8,0.1 1.5,0.3 2.3,0.4 0.8,0.1 1.6,0.2 2.3,0.3 l 2.4,0.3 1.2,0.1 h 1.2 c 1.6,0.1 3.2,0.1 4.8,0.2 3.2,-0.1 6.5,-0.1 9.8,-0.5 3.3,-0.2 6.6,-0.8 9.9,-1.3 3.3,-0.7 6.6,-1.3 9.8,-2.2 3.3,-0.8 6.4,-1.8 9.6,-2.8 1.6,-0.5 3.1,-1.1 4.7,-1.7 l 2.3,-0.8 2.3,-0.9 4.5,-1.8 c 1.5,-0.7 3,-1.3 4.4,-2 3,-1.3 5.8,-2.7 8.6,-4.1 11.2,-5.6 21.1,-11.7 29.4,-17.2 8.3,-5.5 15,-10.5 19.6,-14 l 1.2,-0.9 7,9.2 c 3.6,-8.2 6.8,-16.5 9.7,-24.7 -8.7,1.5 -17.2,2.9 -25.7,3.9 l 7,9.2 -1.2,0.9 c -4.6,3.5 -11.2,8.4 -19.4,13.8 -8.2,5.4 -18.1,11.5 -29.1,17 -2.8,1.3 -5.6,2.8 -8.5,4 -1.4,0.6 -2.9,1.3 -4.4,1.9 l -4.5,1.8 c -0.7,0.3 -1.5,0.6 -2.3,0.9 l -2.3,0.8 c -1.5,0.5 -3.1,1.1 -4.6,1.6 -3.1,1 -6.2,2 -9.4,2.8 -3.1,0.9 -6.4,1.5 -9.5,2.2 -3.2,0.5 -6.4,1.1 -9.6,1.3 -3.2,0.4 -6.4,0.4 -9.5,0.5 -1.6,-0.1 -3.1,-0.1 -4.7,-0.2 h -1.2 l -1.1,-0.1 c -0.8,-0.1 -1.5,-0.2 -2.3,-0.3 -0.8,-0.1 -1.5,-0.2 -2.3,-0.2 -0.7,-0.1 -1.5,-0.3 -2.2,-0.4 -1.5,-0.3 -2.9,-0.5 -4.3,-0.8 -1.4,-0.4 -2.8,-0.8 -4.2,-1.1 l -1,-0.3 c -0.3,-0.1 -0.7,-0.2 -1,-0.4 -0.7,-0.2 -1.3,-0.5 -2,-0.7 -2.7,-0.9 -5.1,-2.1 -7.4,-3.2 -1.2,-0.5 -2.3,-1.3 -3.4,-1.9 -0.5,-0.3 -1.1,-0.6 -1.6,-0.9 -0.5,-0.3 -1.1,-0.6 -1.6,-1 -4.1,-2.7 -7.6,-5.4 -10.5,-8.1 -1.4,-1.4 -2.8,-2.6 -4,-3.9 -1.1,-1.3 -2.2,-2.5 -3.1,-3.5 -0.5,-0.5 -0.9,-1 -1.3,-1.5 -0.4,-0.5 -0.7,-1 -1.1,-1.4 -0.7,-0.9 -1.2,-1.6 -1.7,-2.2 -0.9,-1.2 -1.4,-1.9 -1.4,-1.9 z"
         id="path3142" />
      <circle
         fill="#ffffff"
         stroke="#939598"
         stroke-width="6"
         stroke-miterlimit="10"
         cx="205.89999"
         cy="153.10001"
         r="24.6"
         id="circle3144" />
      <g
         fill="#808285"
         id="g3148">
        <path
           d="m 192.1,156.9 v -5 h 9 v 5 z m 24.7,6.3 h -6.4 v -12.3 c 0,-1.5 0,-2.9 0.1,-4.1 -0.4,0.5 -0.9,1 -1.5,1.5 l -2.6,2.2 -3.3,-4 8,-6.5 h 5.7 z"
           id="path3146" />
      </g>
      <circle
         fill="#ffffff"
         stroke="#939598"
         stroke-width="6"
         stroke-miterlimit="10"
         cx="145.3"
         cy="168.7"
         r="24.6"
         id="circle3150" />
      <path
         fill="#808285"
         d="m 150.5,178.7 h -6.4 v -12.3 c 0,-1.5 0,-2.9 0.1,-4.1 -0.4,0.5 -0.9,1 -1.5,1.5 l -2.6,2.2 -3.3,-4 8,-6.5 h 5.7 z"
         id="path3152" />
      <path
         fill="#6d6e71"
         d="m 166.7,69.4 c 0,0 0.7,-0.6 2,-1.6 1.3,-1 3.2,-2.7 5.9,-4.4 0.7,-0.4 1.3,-0.9 2.1,-1.4 0.7,-0.5 1.5,-1 2.3,-1.5 1.6,-1 3.4,-2.1 5.3,-3.2 1.9,-1 4,-2.1 6.2,-3.3 2.2,-1.1 4.6,-2.2 7.1,-3.3 9.9,-4.4 22.1,-8.5 35.4,-11.6 3.3,-0.8 6.7,-1.5 10.2,-2.1 1.7,-0.4 3.5,-0.6 5.2,-0.9 1.8,-0.3 3.5,-0.6 5.3,-0.8 1.8,-0.2 3.6,-0.5 5.4,-0.7 l 2.7,-0.3 2.7,-0.3 c 1.8,-0.2 3.6,-0.4 5.4,-0.5 l 5.5,-0.4 c 29.1,-2 58.4,1.3 79.4,7.4 10.5,3 18.8,6.5 24.5,9.4 0.9,0.5 1.4,0.7 1.4,0.7 l -5.7,10 c 7.9,-0.8 16.2,-0.7 24.8,1.4 -2.5,-8.4 -7,-16.8 -12.5,-24.6 l -5.4,10.2 c 0,0 -0.5,-0.3 -1.4,-0.8 -5.8,-2.9 -14.4,-6.6 -25.1,-9.6 -21.3,-6.2 -51,-9.5 -80.4,-7.5 l -5.5,0.4 c -1.8,0.2 -3.7,0.4 -5.5,0.5 l -2.7,0.3 -2.7,0.3 c -1.8,0.2 -3.6,0.5 -5.4,0.7 -1.8,0.2 -3.6,0.6 -5.4,0.9 -1.8,0.3 -3.5,0.5 -5.3,0.9 -3.5,0.7 -6.9,1.3 -10.3,2.2 -13.5,3.1 -25.8,7.2 -35.9,11.8 -2.5,1.2 -4.9,2.3 -7.2,3.4 -2.2,1.2 -4.4,2.3 -6.3,3.4 -1.9,1.2 -3.7,2.3 -5.4,3.3 l -2.4,1.5 -2.1,1.5 c -2.7,1.8 -4.7,3.5 -6,4.5 -1.4,1.1 -2.1,1.7 -2.1,1.7 z"
         id="path3154" />
      <circle
         fill="#ffffff"
         stroke="#939598"
         stroke-width="6"
         stroke-miterlimit="10"
         cx="151.7"
         cy="84.400002"
         r="24.6"
         id="circle3156" />
      <path
         fill="#808285"
         d="m 160.9,83.8 c 0,4.1 -0.7,7.1 -2.1,9.1 -1.4,1.9 -3.5,2.9 -6.3,2.9 -2.8,0 -4.9,-1 -6.3,-3 -1.4,-2 -2.1,-5 -2.1,-8.9 0,-4.1 0.7,-7.2 2.1,-9.1 1.4,-1.9 3.5,-2.9 6.3,-2.9 2.8,0 4.9,1 6.3,3 1.4,1.9 2.1,4.9 2.1,8.9 z m -10.6,0 c 0,2.6 0.2,4.5 0.5,5.4 0.3,1 0.9,1.5 1.7,1.5 0.8,0 1.3,-0.5 1.7,-1.5 0.3,-1 0.5,-2.8 0.5,-5.4 0,-2.6 -0.2,-4.4 -0.5,-5.4 -0.3,-1 -0.9,-1.6 -1.7,-1.6 -0.8,0 -1.3,0.5 -1.7,1.5 -0.3,1 -0.5,2.9 -0.5,5.5 z"
         id="path3158" />
      <path
         fill="#6d6e71"
         d="m 122.1,246.4 c 0,0 0.6,0.8 1.7,2.2 1.2,1.4 2.7,3.6 5.1,6.1 0.6,0.6 1.2,1.3 1.8,2 0.3,0.3 0.7,0.7 1,1.1 0.4,0.3 0.7,0.7 1.1,1 1.5,1.4 3.1,2.9 5,4.5 0.9,0.7 1.9,1.5 2.9,2.3 l 1.5,1.2 c 0.3,0.2 0.5,0.4 0.8,0.6 0.3,0.2 0.6,0.4 0.8,0.6 1.1,0.7 2.3,1.5 3.4,2.3 l 1.8,1.2 c 0.6,0.4 1.3,0.7 1.9,1.1 1.3,0.7 2.6,1.4 3.9,2.2 0.7,0.4 1.4,0.7 2.1,1 0.7,0.3 1.4,0.7 2.1,1 0.7,0.3 1.4,0.7 2.2,1 0.7,0.3 1.5,0.7 2.2,1 1.5,0.6 3.1,1.2 4.6,1.8 1.5,0.6 3.2,1.1 4.8,1.6 0.8,0.3 1.6,0.5 2.5,0.8 0.8,0.3 1.7,0.5 2.5,0.7 1.7,0.4 3.4,0.8 5.2,1.3 0.9,0.2 1.8,0.4 2.6,0.6 0.9,0.2 1.8,0.3 2.7,0.5 3.6,0.8 7.3,1.1 11,1.6 1.9,0.2 3.7,0.3 5.6,0.5 0.9,0.1 1.9,0.1 2.8,0.2 1,0 1.9,0.1 2.9,0.1 7.6,0.4 15.4,0 23.1,-0.6 l 5.8,-0.6 c 1.9,-0.2 3.8,-0.5 5.7,-0.8 3.8,-0.5 7.6,-1.3 11.4,-2 1.9,-0.3 3.7,-0.8 5.6,-1.2 1.8,-0.4 3.7,-0.8 5.5,-1.3 3.6,-1 7.2,-1.9 10.6,-3 13.9,-4.2 26.5,-9.5 36.9,-14.7 10.4,-5.2 18.6,-10.3 24.3,-14 0.9,-0.6 1.3,-0.9 1.3,-0.9 l 6.5,9.6 3.1,-6.1 2.8,-6.2 1.3,-3.1 1.2,-3.1 2.4,-6.2 -6.5,1 -3.2,0.5 -3.2,0.3 -6.3,0.6 -6.3,0.3 6.5,9.6 c 0,0 -0.5,0.3 -1.3,0.9 -5.6,3.6 -13.7,8.7 -24,13.8 -10.3,5.1 -22.7,10.3 -36.4,14.5 -3.4,1.1 -6.9,2 -10.5,3 -1.8,0.5 -3.6,0.9 -5.4,1.3 -1.8,0.4 -3.6,0.9 -5.5,1.2 -3.7,0.7 -7.4,1.4 -11.2,1.9 -1.9,0.3 -3.8,0.6 -5.7,0.8 l -5.7,0.6 c -7.6,0.6 -15.2,1 -22.7,0.6 -0.9,0 -1.9,-0.1 -2.8,-0.1 -0.9,-0.1 -1.9,-0.1 -2.8,-0.2 -1.9,-0.2 -3.7,-0.3 -5.5,-0.5 -3.6,-0.5 -7.3,-0.9 -10.7,-1.6 -0.9,-0.2 -1.7,-0.3 -2.6,-0.5 -0.9,-0.2 -1.7,-0.3 -2.6,-0.5 -1.7,-0.4 -3.4,-0.8 -5,-1.2 -0.8,-0.2 -1.7,-0.4 -2.5,-0.7 -0.8,-0.3 -1.6,-0.5 -2.4,-0.8 -1.6,-0.5 -3.2,-0.9 -4.7,-1.6 -1.5,-0.6 -3,-1.2 -4.5,-1.7 -0.7,-0.3 -1.5,-0.6 -2.2,-0.9 -0.7,-0.3 -1.4,-0.7 -2.1,-1 -0.7,-0.3 -1.4,-0.6 -2.1,-1 -0.7,-0.3 -1.4,-0.6 -2,-1 -1.3,-0.7 -2.6,-1.4 -3.8,-2.1 -9.9,-5.6 -16.9,-12.1 -21.3,-17 -2.3,-2.4 -3.8,-4.5 -4.9,-5.9 -1.1,-1.4 -1.7,-2.1 -1.7,-2.1 z"
         id="path3160" />
      <circle
         fill="#ffffff"
         stroke="#939598"
         stroke-width="6"
         stroke-miterlimit="10"
         cx="105.9"
         cy="227.7"
         r="24.6"
         id="circle3162" />
      <path
         fill="#808285"
         d="M 114,237.8 H 97.1 v -4.1 l 5.7,-5.8 c 1.6,-1.7 2.7,-2.9 3.2,-3.5 0.5,-0.6 0.8,-1.2 1,-1.6 0.2,-0.4 0.3,-0.9 0.3,-1.4 0,-0.6 -0.2,-1.1 -0.6,-1.4 -0.4,-0.4 -0.9,-0.5 -1.7,-0.5 -0.7,0 -1.5,0.2 -2.2,0.6 -0.7,0.4 -1.6,1 -2.5,1.9 l -3.5,-4.1 c 1.2,-1.1 2.2,-1.8 3,-2.3 0.8,-0.5 1.7,-0.8 2.7,-1.1 1,-0.3 2,-0.4 3.2,-0.4 1.5,0 2.9,0.3 4,0.8 1.1,0.5 2.1,1.3 2.8,2.3 0.7,1 1,2.1 1,3.3 0,0.9 -0.1,1.8 -0.3,2.5 -0.2,0.8 -0.6,1.5 -1.1,2.3 -0.5,0.8 -1.1,1.5 -1.9,2.4 -0.8,0.8 -2.5,2.4 -5.1,4.7 v 0.2 h 8.8 v 5.2 z"
         id="path3164" />
    </g>
  </switch>
</svg>
