<?xml version="1.0" encoding="UTF-8" standalone="no"?>
<svg
   xmlns:dc="http://purl.org/dc/elements/1.1/"
   xmlns:cc="http://creativecommons.org/ns#"
   xmlns:rdf="http://www.w3.org/1999/02/22-rdf-syntax-ns#"
   xmlns:svg="http://www.w3.org/2000/svg"
   xmlns="http://www.w3.org/2000/svg"
   xmlns:sodipodi="http://sodipodi.sourceforge.net/DTD/sodipodi-0.dtd"
   xmlns:inkscape="http://www.inkscape.org/namespaces/inkscape"
   viewBox="0 0 595.3 177"
   version="1.1"
   id="svg3397"
   sodipodi:docname="bhk_implies.svg"
   inkscape:version="0.92.5 (2060ec1f9f, 2020-04-08)">
  <metadata
     id="metadata3403">
    <rdf:RDF>
      <cc:Work
         rdf:about="">
        <dc:format>image/svg+xml</dc:format>
        <dc:type
           rdf:resource="http://purl.org/dc/dcmitype/StillImage" />
        <dc:title />
      </cc:Work>
    </rdf:RDF>
  </metadata>
  <defs
     id="defs3401" />
  <sodipodi:namedview
     pagecolor="#ffffff"
     bordercolor="#666666"
     borderopacity="1"
     objecttolerance="10"
     gridtolerance="10"
     guidetolerance="10"
     inkscape:pageopacity="0"
     inkscape:pageshadow="2"
     inkscape:window-width="1920"
     inkscape:window-height="1016"
     id="namedview3399"
     showgrid="false"
     inkscape:zoom="3.7594489"
     inkscape:cx="289.56483"
     inkscape:cy="133.24887"
     inkscape:window-x="0"
     inkscape:window-y="27"
     inkscape:window-maximized="1"
     inkscape:current-layer="svg3397"
     inkscape:document-rotation="0"
     inkscape:pagecheckerboard="0"
     inkscape:showpageshadow="2"
     inkscape:deskcolor="#d1d1d1" />
  <g
     id="g8880-3"
     transform="matrix(0.75024244,0,0,0.75024244,91.65334,-70.82068)">
    <circle
       cx="423.45349"
       cy="220.3054"
       r="73.749413"
       id="circle3373-8"
       style="opacity:0.12999998;fill:#999999;stroke:#000000;stroke-width:5.27169991;stroke-miterlimit:10" />
  </g>
  <g
     id="g9442"
     transform="matrix(0.75024244,0,0,0.75024244,236.92128,36.260659)"
     style="paint-order:fill markers stroke">
    <g
       id="g2445-3-1"
       transform="matrix(2.4458076,0,0,2.2485166,-117.57238,88.039232)"
       style="fill:#000000;fill-opacity:0.11290301;stroke:none;stroke-width:1.32404006;stroke-miterlimit:4;stroke-dasharray:none;paint-order:fill markers stroke" />
  </g>
  <text
     xml:space="preserve"
     style="font-style:normal;font-weight:normal;font-size:30.0097px;line-height:1.25;font-family:sans-serif;fill:#000000;fill-opacity:1;stroke:none;stroke-width:0.750243"
     x="266.82175"
     y="-2.2733741"
     id="text9288" />
  <g
     id="g8880"
     transform="matrix(0.75024244,0,0,0.75024244,69.21824,-126.28444)">
    <circle
       cx="457.06818"
       cy="298.73965"
       r="18.663952"
       id="circle3373"
       style="opacity:0.12999998;stroke:#000000;stroke-width:4.55217981;stroke-miterlimit:10" />
    <circle
       cx="453.42642"
       cy="292.44247"
       r="18.663952"
       id="circle3387"
       style="fill:#8967ac;stroke:#651c5f;stroke-width:4.55217981;stroke-miterlimit:10" />
  </g>
  <circle
     style="fill:#f58235;stroke:#e76524;stroke-width:4.059;stroke-miterlimit:10;stroke-dasharray:none"
     id="circle15603"
     r="14.689879"
     cy="92.273964"
     cx="410.29312" />
  <g
     id="g17955"
     transform="translate(8.2758709,3.009409)">
    <path
       style="fill:#9d539f;stroke-width:0.26567388"
       inkscape:connector-curvature="0"
       id="path1879"
       d="m 243.71029,72.587072 c 0,0 1.19464,-0.333857 3.25982,-0.840421 1.08749,-0.279836 2.28214,-0.613707 3.75042,-0.952872 1.4683,-0.340062 3.04463,-0.733262 4.89373,-1.132666 7.12448,-1.590503 16.76667,-3.133175 26.42657,-3.906283 9.66079,-0.774005 19.50488,-0.7306 26.84545,-0.223169 3.61672,0.280733 6.73661,0.418872 8.82127,0.681902 l 1.31597,0.12395 1.69943,-13.168579 c 9.39157,6.106082 17.97726,12.743502 25.48167,19.916688 a 167.44008,167.44008 0 0 0 -29.17365,10.07081 l 1.59139,-13.115426 -1.31598,-0.125715 c -2.08377,-0.263015 -5.09651,-0.454292 -8.65566,-0.633189 -7.17497,-0.460498 -16.7463,-0.509211 -26.24148,0.311728 -9.55275,0.719969 -18.9213,2.257333 -25.93774,3.793815 -1.74105,0.345385 -3.31738,0.739467 -4.78569,1.078646 -1.46828,0.340062 -2.66292,0.673036 -3.6415,0.899749 -2.06605,0.506549 -3.15265,0.786385 -3.15265,0.786385 z" />
    <path
       style="fill:#e90909;stroke-width:0.26567388"
       inkscape:connector-curvature="0"
       id="path1881"
       d="m 236.35467,88.297246 c 0,0 1.27701,-0.314374 3.48299,-0.789943 1.161,-0.263898 2.43799,-0.57739 4.00635,-0.896205 1.56748,-0.318801 3.25186,-0.688975 5.22758,-1.064457 7.61067,-1.495754 17.90996,-2.946323 28.22963,-3.673395 10.31965,-0.727056 20.83592,-0.686313 28.67771,-0.208995 3.86291,0.263913 7.19623,0.3932 9.42258,0.640277 l 1.40542,0.117775 1.81543,-12.381297 c 10.03362,5.741215 19.20379,11.980128 27.22094,18.724693 -11.03343,2.380445 -21.51604,5.619 -31.16354,9.468615 l 1.69943,-12.331688 -1.40542,-0.117774 c -2.22723,-0.247077 -5.44542,-0.426842 -9.24722,-0.595108 -7.66469,-0.432164 -17.88871,-0.478215 -28.03213,0.293128 -10.20366,0.677477 -20.2116,2.121856 -27.70714,3.567118 -1.85971,0.325005 -3.54408,0.694297 -5.11245,1.013995 -1.56748,0.3188 -2.84447,0.632292 -3.89035,0.845728 -2.20597,0.475554 -3.36697,0.739451 -3.36697,0.739451 z" />
    <path
       style="fill:#0e2db8;stroke-width:0.26567388"
       inkscape:connector-curvature="0"
       id="path1883"
       d="m 233.11433,113.82586 c 0,0 1.37088,0.34449 3.74334,0.86521 1.24778,0.28781 2.61955,0.6323 4.30569,0.98122 1.68526,0.34892 3.49539,0.75363 5.61901,1.16365 8.17921,1.63477 19.24718,3.21288 30.33375,3.99131 11.08657,0.77842 22.38214,0.7067 30.80223,0.1594 4.14806,-0.30109 7.72757,-0.45341 10.11863,-0.73238 l 1.50903,-0.13277 1.99432,13.68752 c 10.75537,-6.3744 20.58353,-13.29786 29.17012,-20.7757 -11.8588,-2.60626 -23.13045,-6.16097 -33.5068,-10.39404 l 1.87035,13.63349 -1.50903,0.13292 c -2.39106,0.27983 -5.84659,0.48706 -9.93001,0.68189 -8.23057,0.49857 -19.21264,0.57562 -30.1097,-0.25327 -10.96259,-0.72263 -21.71618,-2.29543 -29.7723,-3.8753 -1.99876,-0.35424 -3.80888,-0.75894 -5.49502,-1.10787 -1.68526,-0.34891 -3.05702,-0.69251 -4.18082,-0.92542 -2.37247,-0.52162 -3.62024,-0.80942 -3.62024,-0.80942 z" />
    <path
       style="fill:#04bd3d;stroke-width:0.26567388"
       inkscape:connector-curvature="0"
       id="path1885"
       d="m 244.54451,107.88008 c 0,0 1.19199,0.21784 3.24387,0.52249 1.0813,0.17445 2.27329,0.3932 3.73007,0.58891 1.45589,0.19482 3.02336,0.43481 4.85474,0.65178 7.06073,0.8909 16.54883,1.4674 25.96785,1.25044 9.41992,-0.21785 18.9266,-1.2956 25.96165,-2.58854 3.46262,-0.66862 6.4612,-1.13798 8.44578,-1.62771 0.83775,-0.1771 1.25752,-0.26744 1.25752,-0.26744 l 3.11459,13.38555 c 8.39086,-7.27504 15.94219,-15.01059 22.3901,-23.187139 a 156.02406,156.02406 0 0 1 -29.3118,-7.309575 l 3.00477,13.340374 -1.25752,0.26744 c -1.9837,0.48973 -4.87246,1.00247 -8.29169,1.56127 -6.88094,1.22654 -16.12197,2.28214 -25.3869,2.43269 -9.30922,0.26125 -18.53252,-0.33828 -25.48343,-1.18491 -1.72069,-0.17267 -3.28817,-0.41268 -4.74406,-0.60838 -1.45677,-0.19484 -2.64789,-0.41356 -3.61936,-0.54463 -2.0519,-0.30464 -3.13319,-0.47822 -3.13319,-0.47822 z" />
  </g>
  <g
     id="g8880-3-88"
     transform="matrix(0.75024244,0,0,0.75024244,-108.39657,-67.074094)">
    <circle
       cx="423.45349"
       cy="220.3054"
       r="73.749413"
       id="circle3373-8-7"
       style="opacity:1;fill:#f2f2f2;stroke:#e6e6e6;stroke-width:5.27169991;stroke-miterlimit:10" />
  </g>
  <circle
     style="opacity:0.12999998;stroke:#000000;stroke-width:3.41523838;stroke-miterlimit:10"
     id="circle3375-7"
     r="14.002489"
     cy="96.244644"
     cx="206.74484" />
  <circle
     style="fill:#39bced;stroke:#008dd2;stroke-width:3.24699926;stroke-miterlimit:10;stroke-dasharray:none"
     id="circle15605"
     r="14.605404"
     cy="92.439995"
     cx="204.02884" />
</svg>
