<?xml version="1.0" encoding="UTF-8" standalone="no"?>
<svg
   xmlns:dc="http://purl.org/dc/elements/1.1/"
   xmlns:cc="http://creativecommons.org/ns#"
   xmlns:rdf="http://www.w3.org/1999/02/22-rdf-syntax-ns#"
   xmlns:svg="http://www.w3.org/2000/svg"
   xmlns="http://www.w3.org/2000/svg"
   xmlns:sodipodi="http://sodipodi.sourceforge.net/DTD/sodipodi-0.dtd"
   xmlns:inkscape="http://www.inkscape.org/namespaces/inkscape"
   width="595.29999"
   height="177"
   version="1.1"
   id="svg8680"
   sodipodi:docname="lattice_meet_join.svg"
   inkscape:version="0.92.5 (2060ec1f9f, 2020-04-08)">
  <metadata
     id="metadata8686">
    <rdf:RDF>
      <cc:Work
         rdf:about="">
        <dc:format>image/svg+xml</dc:format>
        <dc:type
           rdf:resource="http://purl.org/dc/dcmitype/StillImage" />
        <dc:title />
      </cc:Work>
    </rdf:RDF>
  </metadata>
  <defs
     id="defs8684" />
  <sodipodi:namedview
     pagecolor="#ffffff"
     bordercolor="#666666"
     borderopacity="1"
     objecttolerance="10"
     gridtolerance="10"
     guidetolerance="10"
     inkscape:pageopacity="0"
     inkscape:pageshadow="2"
     inkscape:window-width="2560"
     inkscape:window-height="1376"
     id="namedview8682"
     showgrid="false"
     inkscape:zoom="9.1575744"
     inkscape:cx="274.28136"
     inkscape:cy="73.841718"
     inkscape:window-x="0"
     inkscape:window-y="27"
     inkscape:window-maximized="1"
     inkscape:current-layer="svg8680" />
  <path
     style="opacity:0.13999999;stroke:#000000;stroke-width:1.62162149;stroke-miterlimit:10"
     d="M 225.96846,66.158188 A 15.777238,15.470067 0 0 1 210.19122,81.628255 15.777238,15.470067 0 0 1 194.41399,66.158188 15.777238,15.470067 0 0 1 210.19122,50.688121 15.777238,15.470067 0 0 1 225.96846,66.158188 Z"
     id="ellipse8632" />
  <path
     style="fill:#cee7cc;stroke:#808285;stroke-width:1.62162149;stroke-miterlimit:10"
     d="M 224.79485,65.729904 A 15.777238,15.470067 0 0 1 209.01761,81.199971 15.777238,15.470067 0 0 1 193.24037,65.729904 15.777238,15.470067 0 0 1 209.01761,50.259837 15.777238,15.470067 0 0 1 224.79485,65.729904 Z"
     id="ellipse8634" />
  <path
     style="opacity:0.13999999;stroke:#000000;stroke-width:1.62162149;stroke-miterlimit:10"
     d="m 188.19057,102.31749 a 16.023029,15.710926 0 0 1 -16.02303,15.71093 16.023029,15.710926 0 0 1 -16.02303,-15.71093 16.023029,15.710926 0 0 1 16.02303,-15.710926 16.023029,15.710926 0 0 1 16.02303,15.710926 z"
     id="ellipse8636" />
  <path
     style="fill:#caebfc;stroke:#808285;stroke-width:1.62162149;stroke-miterlimit:10"
     d="m 186.6073,101.32719 a 16.023029,15.710926 0 0 1 -16.02303,15.71092 16.023029,15.710926 0 0 1 -16.02303,-15.71092 16.023029,15.710926 0 0 1 16.02303,-15.710929 16.023029,15.710926 0 0 1 16.02303,15.710929 z"
     id="ellipse8638" />
  <path
     style="opacity:0.13999999;stroke:#000000;stroke-width:1.62162149;stroke-miterlimit:10"
     d="m 264.6476,102.85265 a 16.432407,16.112358 0 0 1 -16.43241,16.11236 16.432407,16.112358 0 0 1 -16.4324,-16.11236 16.432407,16.112358 0 0 1 16.4324,-16.112355 16.432407,16.112358 0 0 1 16.43241,16.112355 z"
     id="ellipse8640" />
  <path
     style="fill:#f8f7cb;stroke:#808285;stroke-width:1.62162149;stroke-miterlimit:10"
     d="m 263.03722,101.80891 a 16.432407,16.112358 0 0 1 -16.43241,16.11235 16.432407,16.112358 0 0 1 -16.4324,-16.11235 16.432407,16.112358 0 0 1 16.4324,-16.112362 16.432407,16.112358 0 0 1 16.43241,16.112362 z"
     id="ellipse8642" />
  <path
     d="m 242.29209,86.858106 c 0,0 -0.13427,-0.228528 -0.3965,-0.632427 a 47.436386,47.436386 0 0 0 -1.13634,-1.660257 c -0.48336,-0.677365 -1.08373,-1.423508 -1.74411,-2.217329 -0.6875,-0.791082 -1.432,-1.602988 -2.22829,-2.383109 a 38.490892,38.490892 0 0 0 -2.42558,-2.174857 c -0.80916,-0.64421 -1.58572,-1.238 -2.26638,-1.70684 -0.68092,-0.468566 -1.26896,-0.839308 -1.70711,-1.09058 -0.0575,-0.02137 -0.0874,-0.04521 -0.11728,-0.06905 -0.0301,-0.02384 -0.057,-0.0211 -0.0871,-0.04494 l -0.06,-0.04768 1.58135,-2.69028 c -1.35282,-0.07755 -2.72454,-0.07261 -4.0494,0.116182 -0.64859,0.09289 -1.2917,0.239216 -1.90495,0.409105 -0.61051,0.196743 -1.19087,0.417325 -1.70849,0.712165 a 8.6095523,8.6095523 0 0 1 1.37008,1.017692 c 0.39814,0.389923 0.76916,0.782587 1.08565,1.181005 0.639,0.849721 1.14483,1.739995 1.59915,2.662604 l 1.58134,-2.690554 c 0,0 0.0301,0.02384 0.057,0.0211 0.0274,-0.0027 0.0301,0.02384 0.0603,0.04795 0.0299,0.02384 0.0869,0.04494 0.11673,0.0685 0.40828,0.227706 0.96946,0.601189 1.65012,1.070029 0.6538,0.471579 1.42734,1.038516 2.20938,1.685466 0.78204,0.646949 1.5997,1.370897 2.36585,2.127178 0.76614,0.756282 1.5079,1.541609 2.16554,2.308851 0.65763,0.767242 1.23087,1.516125 1.71122,2.166911 0.48062,0.650786 0.84123,1.20594 1.10374,1.609838 a 18.156236,18.156236 0 0 1 0.39622,0.632427 z m -63.63259,0.204141 c 0,0 0.11536,-0.225788 0.27237,-0.58968 0.091,-0.196469 0.2066,-0.421983 0.3195,-0.674351 0.14002,-0.254834 0.30498,-0.538988 0.46719,-0.849447 0.70313,-1.24759 1.7589,-2.822903 3.01746,-4.282854 1.25855,-1.459679 2.67109,-2.745631 3.82004,-3.6307 0.27867,-0.240585 0.56502,-0.401432 0.7941,-0.583652 0.22935,-0.182494 0.43403,-0.335668 0.61653,-0.432943 0.15564,-0.09508 0.23209,-0.155915 0.23209,-0.155915 l 1.77918,2.551628 a 22.979175,22.979175 0 0 1 3.48273,-5.723352 c -2.36584,-0.374031 -4.89172,-0.410748 -7.52007,-0.08851 l 1.77918,2.551628 -0.25922,0.158107 c -0.18002,0.124129 -0.38472,0.277303 -0.64119,0.462263 -0.22935,0.18222 -0.51296,0.36992 -0.81876,0.612971 -1.1736,0.914115 -2.66507,2.234045 -3.94828,3.723043 -1.31034,1.491464 -2.41545,3.125416 -3.14076,4.428631 -0.18935,0.312925 -0.35156,0.623658 -0.49158,0.878492 -0.1403,0.254834 -0.25319,0.506928 -0.34417,0.703671 -0.18167,0.392938 -0.2973,0.618726 -0.2973,0.618726 z"
     id="path8648"
     style="fill:#808285;stroke-width:0.2740148"
     inkscape:connector-curvature="0" />
  <path
     style="opacity:0.13999999;stroke:#000000;stroke-width:1.62162149;stroke-miterlimit:10"
     d="M 406.38722,63.818054 A 15.777238,15.470067 0 0 1 390.60999,79.288121 15.777238,15.470067 0 0 1 374.83275,63.818054 15.777238,15.470067 0 0 1 390.60999,48.347987 15.777238,15.470067 0 0 1 406.38722,63.818054 Z"
     id="ellipse8650" />
  <path
     style="fill:#cee7cc;stroke:#808285;stroke-width:1.62162149;stroke-miterlimit:10"
     d="M 405.21361,63.389763 A 15.777238,15.470067 0 0 1 389.43637,78.85983 15.777238,15.470067 0 0 1 373.65913,63.389763 15.777238,15.470067 0 0 1 389.43637,47.919696 15.777238,15.470067 0 0 1 405.21361,63.389763 Z"
     id="ellipse8652" />
  <path
     style="opacity:0.13999999;stroke:#000000;stroke-width:1.62162149;stroke-miterlimit:10"
     d="M 368.60906,99.977081 A 16.023029,15.710926 0 0 1 352.58603,115.68801 16.023029,15.710926 0 0 1 336.563,99.977081 16.023029,15.710926 0 0 1 352.58603,84.266155 16.023029,15.710926 0 0 1 368.60906,99.977081 Z"
     id="ellipse8654" />
  <path
     style="fill:#caebfc;stroke:#808285;stroke-width:1.62162149;stroke-miterlimit:10"
     d="M 367.02605,98.986778 A 16.023029,15.710926 0 0 1 351.00302,114.6977 16.023029,15.710926 0 0 1 334.97999,98.986778 16.023029,15.710926 0 0 1 351.00302,83.275852 16.023029,15.710926 0 0 1 367.02605,98.986778 Z"
     id="ellipse8656" />
  <path
     style="opacity:0.13999999;stroke:#000000;stroke-width:1.62162149;stroke-miterlimit:10"
     d="M 445.06635,100.5125 A 16.432407,16.112358 0 0 1 428.63394,116.62486 16.432407,16.112358 0 0 1 412.20153,100.5125 16.432407,16.112358 0 0 1 428.63394,84.400139 16.432407,16.112358 0 0 1 445.06635,100.5125 Z"
     id="ellipse8658" />
  <path
     style="fill:#f8f7cb;stroke:#808285;stroke-width:1.62162149;stroke-miterlimit:10"
     d="M 443.45597,99.468781 A 16.432407,16.112358 0 0 1 427.02356,115.58114 16.432407,16.112358 0 0 1 410.59115,99.468781 16.432407,16.112358 0 0 1 427.02356,83.356422 16.432407,16.112358 0 0 1 443.45597,99.468781 Z"
     id="ellipse8660" />
  <path
     d="m 373.57692,67.966639 c 0,0 -0.24551,0.106867 -0.68229,0.32115 a 48.77221,48.77221 0 0 0 -1.80165,0.936582 c -0.7371,0.401708 -1.55586,0.910001 -2.42914,1.472281 -0.87357,0.588862 -1.77452,1.231151 -2.64781,1.926874 a 38.521855,38.521855 0 0 0 -2.45682,2.141152 c -0.7371,0.722853 -1.4194,1.418576 -1.96524,2.03429 -0.54584,0.615437 -0.98261,1.150865 -1.28294,1.552296 -0.0274,0.05344 -0.0548,0.08029 -0.0819,0.106867 -0.0274,0.02683 -0.0274,0.05372 -0.0548,0.08056 l -0.0543,0.05344 -2.56588,-1.820007 c -0.21839,1.311437 -0.35484,2.649727 -0.30032,3.961159 0.0274,0.642295 0.10906,1.284856 0.21839,1.900298 0.13646,0.615709 0.30032,1.20457 0.54584,1.739993 a 8.524882,8.524882 0 0 1 1.17388,-1.231423 c 0.43651,-0.347997 0.87329,-0.669147 1.31007,-0.936859 0.92809,-0.53515 1.88358,-0.936581 2.8662,-1.284579 l -2.56588,-1.820012 c 0,0 0.0274,-0.02683 0.0274,-0.05344 0,-0.02683 0.0274,-0.02683 0.0545,-0.05372 0.0274,-0.02656 0.0548,-0.08029 0.0819,-0.106867 0.27291,-0.37485 0.70969,-0.88342 1.25553,-1.498862 0.54584,-0.589128 1.20101,-1.284856 1.93811,-1.980579 0.7371,-0.695995 1.55586,-1.418576 2.40201,-2.087995 0.84616,-0.668871 1.71972,-1.311161 2.56588,-1.873164 0.84616,-0.56228 1.66519,-1.043997 2.37489,-1.445428 0.7097,-0.401437 1.31006,-0.696001 1.74685,-0.909735 0.43678,-0.214278 0.68229,-0.321416 0.68229,-0.321416 z m 31.11797,1.606006 c 0,0 0.2184,0.13372 0.57324,0.320868 0.19127,0.107144 0.40938,0.241136 0.65518,0.374856 0.24579,0.160572 0.51871,0.347997 0.81903,0.53515 1.201,0.802862 2.70233,1.98058 4.06693,3.345722 1.36487,1.364871 2.53874,2.863733 3.33037,4.068303 0.21839,0.294292 0.35486,0.588856 0.51844,0.82972 0.16386,0.240858 0.30032,0.454864 0.38226,0.642289 0.0819,0.160573 0.13645,0.240859 0.13645,0.240859 l -2.75686,1.498862 a 23.512682,23.512682 0 0 1 5.4866,3.934306 c 0.60037,-2.274871 0.87328,-4.737168 0.79163,-7.333461 l -2.75714,1.498862 -0.13646,-0.267717 c -0.10906,-0.187425 -0.24551,-0.401431 -0.40938,-0.669142 -0.16386,-0.240858 -0.32744,-0.535151 -0.54584,-0.856572 -0.81903,-1.231146 -2.02004,-2.810294 -3.41203,-4.202018 -1.392,-1.418575 -2.94813,-2.649726 -4.20366,-3.479446 -0.30033,-0.214006 -0.60065,-0.401431 -0.84616,-0.561727 -0.2458,-0.160849 -0.49159,-0.294569 -0.6823,-0.401708 a 19.728534,19.728534 0 0 1 -0.60064,-0.347997 z"
     id="path8666"
     style="fill:#808285;stroke-width:0.2740148"
     inkscape:connector-curvature="0" />
  <g
     aria-label="AND"
     style="font-weight:400;font-size:11.23116016px;line-height:1.25;font-family:sans-serif;letter-spacing:0;word-spacing:0;fill:#7e7e7e;stroke-width:0.28074586"
     id="text8674">
    <path
       d="m 384.64912,141.43118 h -3.30135 l -0.52098,1.49164 h -2.12229 l 3.03263,-8.18756 h 2.51714 l 3.03263,8.18756 h -2.12229 z m -2.77489,-1.51906 h 2.24294 l -1.11873,-3.25747 z"
       style="font-style:normal;font-variant:normal;font-weight:bold;font-stretch:normal;font-family:sans-serif;-inkscape-font-specification:'sans-serif Bold';stroke-width:0.28074586"
       id="path169111" />
    <path
       d="m 388.37273,134.73526 h 2.3581 l 2.9778,5.61558 v -5.61558 h 2.00164 v 8.18756 h -2.3581 l -2.97779,-5.61558 v 5.61558 h -2.00165 z"
       style="font-style:normal;font-variant:normal;font-weight:bold;font-stretch:normal;font-family:sans-serif;-inkscape-font-specification:'sans-serif Bold';stroke-width:0.28074586"
       id="path169113" />
    <path
       d="m 399.88357,136.3311 v 4.99589 h 0.75679 q 1.29421,0 1.97423,-0.64163 0.68549,-0.64162 0.68549,-1.86454 0,-1.21744 -0.68001,-1.85358 -0.68001,-0.63614 -1.97971,-0.63614 z m -2.11133,-1.59584 h 2.22649 q 1.86455,0 2.77489,0.26872 0.91582,0.26323 1.56841,0.89937 0.57582,0.55388 0.8555,1.27776 0.27968,0.72388 0.27968,1.63971 0,0.92679 -0.27968,1.65615 -0.27968,0.72389 -0.8555,1.27777 -0.65807,0.63614 -1.57938,0.90485 -0.9213,0.26323 -2.76392,0.26323 h -2.22649 z"
       style="font-style:normal;font-variant:normal;font-weight:bold;font-stretch:normal;font-family:sans-serif;-inkscape-font-specification:'sans-serif Bold';stroke-width:0.28074586"
       id="path169115" />
  </g>
  <g
     aria-label="OR"
     style="font-weight:400;font-size:11.88389969px;line-height:1.25;font-family:sans-serif;letter-spacing:0;word-spacing:0;fill:#7e7e7e;stroke-width:0.29714581"
     id="text8678">
    <path
       d="m 205.15751,136.63285 q -1.02127,0 -1.58413,0.75435 -0.56286,0.75435 -0.56286,2.12378 0,1.36363 0.56286,2.11798 0.56286,0.75435 1.58413,0.75435 1.02708,0 1.58994,-0.75435 0.56286,-0.75435 0.56286,-2.11798 0,-1.36943 -0.56286,-2.12378 -0.56286,-0.75435 -1.58994,-0.75435 z m 0,-1.61895 q 2.08897,0 3.27272,1.19536 1.18375,1.19535 1.18375,3.30172 0,2.10058 -1.18375,3.29593 -1.18375,1.19535 -3.27272,1.19535 -2.08316,0 -3.27271,-1.19535 -1.18375,-1.19535 -1.18375,-3.29593 0,-2.10637 1.18375,-3.30172 1.18955,-1.19536 3.27271,-1.19536 z"
       style="font-style:normal;font-variant:normal;font-weight:bold;font-stretch:normal;font-family:sans-serif;-inkscape-font-specification:'sans-serif Bold';stroke-width:0.29714581"
       id="path169118" />
    <path
       d="m 214.47663,139.01195 q 0.70212,0 1.00386,-0.26112 0.30754,-0.26112 0.30754,-0.8588 0,-0.59187 -0.30754,-0.84719 -0.30174,-0.25532 -1.00386,-0.25532 h -0.94004 v 2.22243 z m -0.94004,1.54352 v 3.27851 h -2.23403 v -8.6634 h 3.41198 q 1.71179,0 2.50676,0.57446 0.80077,0.57447 0.80077,1.81624 0,0.8588 -0.4178,1.41005 -0.41199,0.55126 -1.24757,0.81238 0.45841,0.10445 0.81817,0.47582 0.36557,0.36557 0.73695,1.11412 l 1.21276,2.46033 h -2.3791 l -1.05609,-2.15279 q -0.31915,-0.6499 -0.6499,-0.88781 -0.32495,-0.23791 -0.87041,-0.23791 z"
       style="font-style:normal;font-variant:normal;font-weight:bold;font-stretch:normal;font-family:sans-serif;-inkscape-font-specification:'sans-serif Bold';stroke-width:0.29714581"
       id="path169120" />
  </g>
</svg>
