<?xml version="1.0" encoding="UTF-8" standalone="no"?>
<svg
   xmlns:dc="http://purl.org/dc/elements/1.1/"
   xmlns:cc="http://creativecommons.org/ns#"
   xmlns:rdf="http://www.w3.org/1999/02/22-rdf-syntax-ns#"
   xmlns:svg="http://www.w3.org/2000/svg"
   xmlns="http://www.w3.org/2000/svg"
   xmlns:sodipodi="http://sodipodi.sourceforge.net/DTD/sodipodi-0.dtd"
   xmlns:inkscape="http://www.inkscape.org/namespaces/inkscape"
   width="595.29999"
   height="177"
   version="1.1"
   id="svg8680"
   sodipodi:docname="lattice_meet_join.svg"
   inkscape:version="0.92.5 (2060ec1f9f, 2020-04-08)">
  <metadata
     id="metadata8686">
    <rdf:RDF>
      <cc:Work
         rdf:about="">
        <dc:format>image/svg+xml</dc:format>
        <dc:type
           rdf:resource="http://purl.org/dc/dcmitype/StillImage" />
        <dc:title></dc:title>
      </cc:Work>
    </rdf:RDF>
  </metadata>
  <defs
     id="defs8684" />
  <sodipodi:namedview
     pagecolor="#ffffff"
     bordercolor="#666666"
     borderopacity="1"
     objecttolerance="10"
     gridtolerance="10"
     guidetolerance="10"
     inkscape:pageopacity="0"
     inkscape:pageshadow="2"
     inkscape:window-width="1920"
     inkscape:window-height="1016"
     id="namedview8682"
     showgrid="false"
     inkscape:zoom="1.9601497"
     inkscape:cx="297.64999"
     inkscape:cy="183.04094"
     inkscape:window-x="0"
     inkscape:window-y="27"
     inkscape:window-maximized="1"
     inkscape:current-layer="svg8680" />
  <ellipse
     cy="66.158188"
     cx="210.19122"
     stroke-miterlimit="10"
     rx="15.777238"
     ry="15.470067"
     id="ellipse8632"
     style="opacity:0.13999999;stroke:#000000;stroke-width:1.62162149;stroke-miterlimit:10" />
  <ellipse
     cy="65.729904"
     cx="209.01761"
     stroke-miterlimit="10"
     rx="15.777238"
     ry="15.470067"
     id="ellipse8634"
     style="fill:#cee7cc;stroke:#808285;stroke-width:1.62162149;stroke-miterlimit:10" />
  <ellipse
     cy="102.31749"
     cx="172.16754"
     stroke-miterlimit="10"
     rx="16.023029"
     ry="15.710926"
     id="ellipse8636"
     style="opacity:0.13999999;stroke:#000000;stroke-width:1.62162149;stroke-miterlimit:10" />
  <ellipse
     cy="101.32719"
     cx="170.58427"
     stroke-miterlimit="10"
     rx="16.023029"
     ry="15.710926"
     id="ellipse8638"
     style="fill:#caebfc;stroke:#808285;stroke-width:1.62162149;stroke-miterlimit:10" />
  <ellipse
     cy="102.85265"
     cx="248.21519"
     stroke-miterlimit="10"
     rx="16.432407"
     ry="16.112358"
     id="ellipse8640"
     style="opacity:0.13999999;stroke:#000000;stroke-width:1.62162149;stroke-miterlimit:10" />
  <ellipse
     cy="101.80891"
     cx="246.60481"
     stroke-miterlimit="10"
     rx="16.432407"
     ry="16.112358"
     id="ellipse8642"
     style="fill:#f8f7cb;stroke:#808285;stroke-width:1.62162149;stroke-miterlimit:10" />
  <path
     d="m 242.29209,86.858106 c 0,0 -0.13427,-0.228528 -0.3965,-0.632427 a 47.436386,47.436386 0 0 0 -1.13634,-1.660257 c -0.48336,-0.677365 -1.08373,-1.423508 -1.74411,-2.217329 -0.6875,-0.791082 -1.432,-1.602988 -2.22829,-2.383109 a 38.490892,38.490892 0 0 0 -2.42558,-2.174857 c -0.80916,-0.64421 -1.58572,-1.238 -2.26638,-1.70684 -0.68092,-0.468566 -1.26896,-0.839308 -1.70711,-1.09058 -0.0575,-0.02137 -0.0874,-0.04521 -0.11728,-0.06905 -0.0301,-0.02384 -0.057,-0.0211 -0.0871,-0.04494 l -0.06,-0.04768 1.58135,-2.69028 c -1.35282,-0.07755 -2.72454,-0.07261 -4.0494,0.116182 -0.64859,0.09289 -1.2917,0.239216 -1.90495,0.409105 -0.61051,0.196743 -1.19087,0.417325 -1.70849,0.712165 a 8.6095523,8.6095523 0 0 1 1.37008,1.017692 c 0.39814,0.389923 0.76916,0.782587 1.08565,1.181005 0.639,0.849721 1.14483,1.739995 1.59915,2.662604 l 1.58134,-2.690554 c 0,0 0.0301,0.02384 0.057,0.0211 0.0274,-0.0027 0.0301,0.02384 0.0603,0.04795 0.0299,0.02384 0.0869,0.04494 0.11673,0.0685 0.40828,0.227706 0.96946,0.601189 1.65012,1.070029 0.6538,0.471579 1.42734,1.038516 2.20938,1.685466 0.78204,0.646949 1.5997,1.370897 2.36585,2.127178 0.76614,0.756282 1.5079,1.541609 2.16554,2.308851 0.65763,0.767242 1.23087,1.516125 1.71122,2.166911 0.48062,0.650786 0.84123,1.20594 1.10374,1.609838 a 18.156236,18.156236 0 0 1 0.39622,0.632427 z m -63.63259,0.204141 c 0,0 0.11536,-0.225788 0.27237,-0.58968 0.091,-0.196469 0.2066,-0.421983 0.3195,-0.674351 0.14002,-0.254834 0.30498,-0.538988 0.46719,-0.849447 0.70313,-1.24759 1.7589,-2.822903 3.01746,-4.282854 1.25855,-1.459679 2.67109,-2.745631 3.82004,-3.6307 0.27867,-0.240585 0.56502,-0.401432 0.7941,-0.583652 0.22935,-0.182494 0.43403,-0.335668 0.61653,-0.432943 0.15564,-0.09508 0.23209,-0.155915 0.23209,-0.155915 l 1.77918,2.551628 a 22.979175,22.979175 0 0 1 3.48273,-5.723352 c -2.36584,-0.374031 -4.89172,-0.410748 -7.52007,-0.08851 l 1.77918,2.551628 -0.25922,0.158107 c -0.18002,0.124129 -0.38472,0.277303 -0.64119,0.462263 -0.22935,0.18222 -0.51296,0.36992 -0.81876,0.612971 -1.1736,0.914115 -2.66507,2.234045 -3.94828,3.723043 -1.31034,1.491464 -2.41545,3.125416 -3.14076,4.428631 -0.18935,0.312925 -0.35156,0.623658 -0.49158,0.878492 -0.1403,0.254834 -0.25319,0.506928 -0.34417,0.703671 -0.18167,0.392938 -0.2973,0.618726 -0.2973,0.618726 z"
     id="path8648"
     style="fill:#808285;stroke-width:0.2740148"
     inkscape:connector-curvature="0" />
  <ellipse
     cy="63.818054"
     cx="390.60999"
     stroke-miterlimit="10"
     rx="15.777238"
     ry="15.470067"
     id="ellipse8650"
     style="opacity:0.13999999;stroke:#000000;stroke-width:1.62162149;stroke-miterlimit:10" />
  <ellipse
     cy="63.389763"
     cx="389.43637"
     stroke-miterlimit="10"
     rx="15.777238"
     ry="15.470067"
     id="ellipse8652"
     style="fill:#cee7cc;stroke:#808285;stroke-width:1.62162149;stroke-miterlimit:10" />
  <ellipse
     cy="99.977081"
     cx="352.58603"
     stroke-miterlimit="10"
     rx="16.023029"
     ry="15.710926"
     id="ellipse8654"
     style="opacity:0.13999999;stroke:#000000;stroke-width:1.62162149;stroke-miterlimit:10" />
  <ellipse
     cy="98.986778"
     cx="351.00302"
     stroke-miterlimit="10"
     rx="16.023029"
     ry="15.710926"
     id="ellipse8656"
     style="fill:#caebfc;stroke:#808285;stroke-width:1.62162149;stroke-miterlimit:10" />
  <ellipse
     cy="100.5125"
     cx="428.63394"
     stroke-miterlimit="10"
     rx="16.432407"
     ry="16.112358"
     id="ellipse8658"
     style="opacity:0.13999999;stroke:#000000;stroke-width:1.62162149;stroke-miterlimit:10" />
  <ellipse
     cy="99.468781"
     cx="427.02356"
     stroke-miterlimit="10"
     rx="16.432407"
     ry="16.112358"
     id="ellipse8660"
     style="fill:#f8f7cb;stroke:#808285;stroke-width:1.62162149;stroke-miterlimit:10" />
  <path
     d="m 373.57692,67.966639 c 0,0 -0.24551,0.106867 -0.68229,0.32115 a 48.77221,48.77221 0 0 0 -1.80165,0.936582 c -0.7371,0.401708 -1.55586,0.910001 -2.42914,1.472281 -0.87357,0.588862 -1.77452,1.231151 -2.64781,1.926874 a 38.521855,38.521855 0 0 0 -2.45682,2.141152 c -0.7371,0.722853 -1.4194,1.418576 -1.96524,2.03429 -0.54584,0.615437 -0.98261,1.150865 -1.28294,1.552296 -0.0274,0.05344 -0.0548,0.08029 -0.0819,0.106867 -0.0274,0.02683 -0.0274,0.05372 -0.0548,0.08056 l -0.0543,0.05344 -2.56588,-1.820007 c -0.21839,1.311437 -0.35484,2.649727 -0.30032,3.961159 0.0274,0.642295 0.10906,1.284856 0.21839,1.900298 0.13646,0.615709 0.30032,1.20457 0.54584,1.739993 a 8.524882,8.524882 0 0 1 1.17388,-1.231423 c 0.43651,-0.347997 0.87329,-0.669147 1.31007,-0.936859 0.92809,-0.53515 1.88358,-0.936581 2.8662,-1.284579 l -2.56588,-1.820012 c 0,0 0.0274,-0.02683 0.0274,-0.05344 0,-0.02683 0.0274,-0.02683 0.0545,-0.05372 0.0274,-0.02656 0.0548,-0.08029 0.0819,-0.106867 0.27291,-0.37485 0.70969,-0.88342 1.25553,-1.498862 0.54584,-0.589128 1.20101,-1.284856 1.93811,-1.980579 0.7371,-0.695995 1.55586,-1.418576 2.40201,-2.087995 0.84616,-0.668871 1.71972,-1.311161 2.56588,-1.873164 0.84616,-0.56228 1.66519,-1.043997 2.37489,-1.445428 0.7097,-0.401437 1.31006,-0.696001 1.74685,-0.909735 0.43678,-0.214278 0.68229,-0.321416 0.68229,-0.321416 z m 31.11797,1.606006 c 0,0 0.2184,0.13372 0.57324,0.320868 0.19127,0.107144 0.40938,0.241136 0.65518,0.374856 0.24579,0.160572 0.51871,0.347997 0.81903,0.53515 1.201,0.802862 2.70233,1.98058 4.06693,3.345722 1.36487,1.364871 2.53874,2.863733 3.33037,4.068303 0.21839,0.294292 0.35486,0.588856 0.51844,0.82972 0.16386,0.240858 0.30032,0.454864 0.38226,0.642289 0.0819,0.160573 0.13645,0.240859 0.13645,0.240859 l -2.75686,1.498862 a 23.512682,23.512682 0 0 1 5.4866,3.934306 c 0.60037,-2.274871 0.87328,-4.737168 0.79163,-7.333461 l -2.75714,1.498862 -0.13646,-0.267717 c -0.10906,-0.187425 -0.24551,-0.401431 -0.40938,-0.669142 -0.16386,-0.240858 -0.32744,-0.535151 -0.54584,-0.856572 -0.81903,-1.231146 -2.02004,-2.810294 -3.41203,-4.202018 -1.392,-1.418575 -2.94813,-2.649726 -4.20366,-3.479446 -0.30033,-0.214006 -0.60065,-0.401431 -0.84616,-0.561727 -0.2458,-0.160849 -0.49159,-0.294569 -0.6823,-0.401708 a 19.728534,19.728534 0 0 1 -0.60064,-0.347997 z"
     id="path8666"
     style="fill:#808285;stroke-width:0.2740148"
     inkscape:connector-curvature="0" />
  <text
     style="font-weight:400;font-size:11.23116016px;line-height:1.25;font-family:sans-serif;letter-spacing:0;word-spacing:0;fill:#7e7e7e;stroke-width:0.28074586"
     x="378.64966"
     y="142.92282"
     font-weight="400"
     font-size="20.6784px"
     letter-spacing="0"
     word-spacing="0"
     id="text8674">
    <tspan
       x="378.64966"
       y="142.92282"
       id="tspan8672"
       style="font-style:normal;font-variant:normal;font-weight:bold;font-stretch:normal;font-family:sans-serif;-inkscape-font-specification:'sans-serif Bold';stroke-width:0.28074586">AND</tspan>
  </text>
  <text
     style="font-weight:400;font-size:11.88389969px;line-height:1.25;font-family:sans-serif;letter-spacing:0;word-spacing:0;fill:#7e7e7e;stroke-width:0.29714581"
     x="200.10918"
     y="143.83398"
     font-weight="400"
     font-size="21.8802px"
     letter-spacing="0"
     word-spacing="0"
     id="text8678">
    <tspan
       x="200.10918"
       y="143.83398"
       id="tspan8676"
       style="font-style:normal;font-variant:normal;font-weight:bold;font-stretch:normal;font-family:sans-serif;-inkscape-font-specification:'sans-serif Bold';stroke-width:0.29714581">OR</tspan>
  </text>
</svg>
