<?xml version="1.0" encoding="UTF-8" standalone="no"?>
<svg
   xmlns:dc="http://purl.org/dc/elements/1.1/"
   xmlns:cc="http://creativecommons.org/ns#"
   xmlns:rdf="http://www.w3.org/1999/02/22-rdf-syntax-ns#"
   xmlns:svg="http://www.w3.org/2000/svg"
   xmlns="http://www.w3.org/2000/svg"
   xmlns:sodipodi="http://sodipodi.sourceforge.net/DTD/sodipodi-0.dtd"
   xmlns:inkscape="http://www.inkscape.org/namespaces/inkscape"
   viewBox="0 0 595.3 189.5"
   version="1.1"
   id="svg15613"
   sodipodi:docname="logic_preorder.svg"
   inkscape:version="0.92.5 (2060ec1f9f, 2020-04-08)">
  <metadata
     id="metadata15619">
    <rdf:RDF>
      <cc:Work
         rdf:about="">
        <dc:format>image/svg+xml</dc:format>
        <dc:type
           rdf:resource="http://purl.org/dc/dcmitype/StillImage" />
        <dc:title></dc:title>
      </cc:Work>
    </rdf:RDF>
  </metadata>
  <defs
     id="defs15617" />
  <sodipodi:namedview
     pagecolor="#ffffff"
     bordercolor="#666666"
     borderopacity="1"
     objecttolerance="10"
     gridtolerance="10"
     guidetolerance="10"
     inkscape:pageopacity="0"
     inkscape:pageshadow="2"
     inkscape:window-width="1920"
     inkscape:window-height="1016"
     id="namedview15615"
     showgrid="false"
     inkscape:zoom="2.8284271"
     inkscape:cx="259.40504"
     inkscape:cy="50.728755"
     inkscape:window-x="0"
     inkscape:window-y="27"
     inkscape:window-maximized="1"
     inkscape:current-layer="svg15613" />
  <g
     id="g42748"
     transform="matrix(1.518149,0,0,1.518149,-130.46665,-46.939753)" />
  <circle
     cx="170.07399"
     cy="68.663078"
     r="18.334303"
     id="circle15603-3-6"
     style="fill:#dedede;fill-opacity:1;stroke:none;stroke-width:2.57022929;stroke-miterlimit:10" />
  <circle
     cx="302.47168"
     cy="40.011787"
     r="18.671675"
     id="circle15601-9-4-6"
     style="fill:#dedede;fill-opacity:1;stroke:none;stroke-width:3.39405203;stroke-miterlimit:10;stroke-dasharray:none;stroke-opacity:1" />
  <circle
     cx="323.96042"
     cy="165.98222"
     r="18.334303"
     id="circle15605-4-4"
     style="fill:#dedede;fill-opacity:1;stroke:none;stroke-width:2.57022929;stroke-miterlimit:10" />
  <circle
     cx="-81.341805"
     cy="409.6218"
     r="16.369385"
     id="circle3379-9"
     style="fill:#dedede;fill-opacity:1;stroke:none;stroke-width:3.99253249;stroke-miterlimit:10"
     transform="rotate(-84.232776)" />
  <circle
     cx="166.94749"
     cy="61.981659"
     r="18.334303"
     id="circle15603-3"
     style="fill:#f58235;stroke:#e76524;stroke-width:2.57022929;stroke-miterlimit:10" />
  <g
     style="display:inline;fill:#dddddd;stroke:#838383;stroke-width:6.38899994;stroke-miterlimit:10"
     id="g1482-7-0-1-0-3"
     transform="matrix(-0.13566577,0.22680277,-0.32622049,-0.17338087,377.03394,57.81821)"
     inkscape:transform-center-x="-12.157065"
     inkscape:transform-center-y="-0.73403693">
    <path
       style="stroke-width:35.52600098"
       inkscape:connector-curvature="0"
       id="path1478-7-9-0-19-0"
       transform="matrix(0.4768,-0.02932,0.03214,0.42867,147.58,197.367)"
       d="m 315.1,101.79 c 10.682,-4.135 21.77,-7.738 33.127,-11.074 -8.518,-8.139 -17.577,-16.01 -27.178,-23.616 -2.04,12.119 -3.103,21.663 -5.949,34.69 z" />
    <path
       style="fill:none;stroke-width:10.64900017;paint-order:markers fill stroke"
       inkscape:connector-curvature="0"
       id="path1480-1-3-1-5-7"
       d="M 127.38575,78.377847 C 176.95734,66.301724 277.68509,72.076365 317.498,86.173"
       sodipodi:nodetypes="cc"
       transform="matrix(0.89574,0,0,0.81736,18.384,154.236)" />
  </g>
  <circle
     cx="297.34515"
     cy="33.330364"
     r="18.671675"
     id="circle15601-9-4"
     style="fill:#e6e7e8;stroke:#bbbcbe;stroke-width:3.39405203;stroke-miterlimit:10;stroke-dasharray:none;stroke-opacity:1" />
  <g
     style="display:inline;fill:#dddddd;stroke:#838383;stroke-width:6.38899994;stroke-miterlimit:10"
     id="g1482-7-0-1-0-3-5-7"
     transform="matrix(-0.21605455,-0.15220095,-0.22774808,0.29088065,307.78505,55.280494)"
     inkscape:transform-center-x="-11.408259"
     inkscape:transform-center-y="-4.5768564">
    <path
       style="stroke-width:35.52600098"
       inkscape:connector-curvature="0"
       id="path1478-7-9-0-19-0-0-2"
       transform="matrix(0.4768,-0.02932,0.03214,0.42867,147.58,197.367)"
       d="m 315.1,101.79 c 10.682,-4.135 21.77,-7.738 33.127,-11.074 -8.518,-8.139 -17.577,-16.01 -27.178,-23.616 -2.04,12.119 -3.103,21.663 -5.949,34.69 z" />
    <path
       style="fill:none;stroke-width:10.64900017;paint-order:markers fill stroke;fill-opacity:1;stroke:#838383;stroke-opacity:1"
       inkscape:connector-curvature="0"
       id="path1480-1-3-1-5-7-4-7"
       d="M 127.38575,78.377847 C 176.95734,66.301724 277.68509,72.076365 317.498,86.173"
       sodipodi:nodetypes="cc"
       transform="matrix(0.89574,0,0,0.81736,18.384,154.236)" />
  </g>
  <circle
     cx="249.39569"
     cy="115.1004"
     r="18.334303"
     id="circle15605-2"
     style="fill:#dedede;fill-opacity:1;stroke:none;stroke-width:2.57022929;stroke-miterlimit:10;stroke-opacity:1" />
  <g
     style="display:inline;fill:#dddddd;stroke:#838383;stroke-width:6.38899994;stroke-miterlimit:10"
     id="g1482-7-0-1-0-3-5"
     transform="matrix(0.22455705,0.13935147,-0.17868507,0.32334562,268.3106,30.291988)"
     inkscape:transform-center-x="0.5354074"
     inkscape:transform-center-y="-12.167418">
    <path
       style="stroke-width:35.52600098"
       inkscape:connector-curvature="0"
       id="path1478-7-9-0-19-0-0"
       transform="matrix(0.4768,-0.02932,0.03214,0.42867,147.58,197.367)"
       d="m 315.1,101.79 c 10.682,-4.135 21.77,-7.738 33.127,-11.074 -8.518,-8.139 -17.577,-16.01 -27.178,-23.616 -2.04,12.119 -3.103,21.663 -5.949,34.69 z" />
    <path
       style="fill:none;stroke-width:10.64900017;paint-order:markers fill stroke"
       inkscape:connector-curvature="0"
       id="path1480-1-3-1-5-7-4"
       d="M 127.38575,78.377847 C 176.95734,66.301724 277.68509,72.076365 317.498,86.173"
       sodipodi:nodetypes="cc"
       transform="matrix(0.89574,0,0,0.81736,18.384,154.236)" />
  </g>
  <circle
     cx="244.2692"
     cy="108.41898"
     r="18.334303"
     id="circle15605"
     style="fill:#ab6510;fill-opacity:1;stroke:#81510b;stroke-width:2.57022929;stroke-miterlimit:10;stroke-opacity:1" />
  <g
     style="display:inline;fill:#dddddd;stroke:#838383;stroke-width:6.38899994;stroke-miterlimit:10"
     id="g1482-7-0-1-0-3-5-7-2"
     transform="matrix(0.21605455,-0.15220095,0.22774808,0.29088065,252.62953,104.30454)"
     inkscape:transform-center-x="11.40825"
     inkscape:transform-center-y="-4.576857">
    <path
       style="stroke-width:35.52600098"
       inkscape:connector-curvature="0"
       id="path1478-7-9-0-19-0-0-2-2"
       transform="matrix(0.4768,-0.02932,0.03214,0.42867,147.58,197.367)"
       d="m 315.1,101.79 c 10.682,-4.135 21.77,-7.738 33.127,-11.074 -8.518,-8.139 -17.577,-16.01 -27.178,-23.616 -2.04,12.119 -3.103,21.663 -5.949,34.69 z" />
    <path
       style="fill:none;stroke-width:10.64900017;paint-order:markers fill stroke"
       inkscape:connector-curvature="0"
       id="path1480-1-3-1-5-7-4-7-6"
       d="M 127.38575,78.377847 C 176.95734,66.301724 277.68509,72.076365 317.498,86.173"
       sodipodi:nodetypes="cc"
       transform="matrix(0.89574,0,0,0.81736,18.384,154.236)" />
  </g>
  <g
     style="display:inline;fill:#dddddd;stroke:#838383;stroke-width:6.38899994;stroke-miterlimit:10"
     id="g1482-7-0-1-0-3-5-7-2-1"
     transform="matrix(-0.21605455,0.15220095,-0.22774808,-0.29088065,459.81171,170.29065)"
     inkscape:transform-center-x="-11.40825"
     inkscape:transform-center-y="4.5768618">
    <path
       style="stroke-width:35.52600098"
       inkscape:connector-curvature="0"
       id="path1478-7-9-0-19-0-0-2-2-0"
       transform="matrix(0.4768,-0.02932,0.03214,0.42867,147.58,197.367)"
       d="m 315.1,101.79 c 10.682,-4.135 21.77,-7.738 33.127,-11.074 -8.518,-8.139 -17.577,-16.01 -27.178,-23.616 -2.04,12.119 -3.103,21.663 -5.949,34.69 z" />
    <path
       style="fill:none;stroke-width:10.64900017;paint-order:markers fill stroke"
       inkscape:connector-curvature="0"
       id="path1480-1-3-1-5-7-4-7-6-6"
       d="M 127.38575,78.377847 C 176.95734,66.301724 277.68509,72.076365 317.498,86.173"
       sodipodi:nodetypes="cc"
       transform="matrix(0.89574,0,0,0.81736,18.384,154.236)" />
  </g>
  <circle
     cx="318.12677"
     cy="161.06859"
     r="18.334303"
     id="circle15605-4"
     style="fill:#39bced;stroke:#008dd2;stroke-width:2.57022929;stroke-miterlimit:10" />
  <circle
     cx="-75.596642"
     cy="403.53363"
     r="16.369385"
     id="circle3379"
     style="fill:#fce600;stroke:#ffdd00;stroke-width:3.99253249;stroke-miterlimit:10"
     transform="rotate(-84.232776)" />
</svg>
