<svg xmlns:i="&amp;ns_ai;" xmlns="http://www.w3.org/2000/svg" viewBox="0 0 595.3 312"><g i:extraneous="self"><circle r="57.8" cy="86.1" cx="299.8" stroke-miterlimit="10" opacity=".14" stroke="#000" stroke-width="6"/><circle r="57.8" cy="84.5" cx="295.5" stroke-miterlimit="10" fill="#cee7cc" stroke="#808285" stroke-width="6"/><circle r="58.7" cy="221.2" cx="160.5" stroke-miterlimit="10" opacity=".14" stroke="#000" stroke-width="6"/><circle r="58.7" cy="217.5" cx="154.7" stroke-miterlimit="10" fill="#caebfc" stroke="#808285" stroke-width="6"/><circle r="60.2" cy="223.2" cx="439.1" stroke-miterlimit="10" opacity=".14" stroke="#000" stroke-width="6"/><circle r="60.2" cy="219.3" cx="433.2" stroke-miterlimit="10" fill="#f8f7cb" stroke="#808285" stroke-width="6"/><circle r="28.2" cy="82.6" cx="266.3" stroke-miterlimit="10" fill="#caebfc" stroke="#808285" stroke-width="6"/><circle r="28.9" cy="84.4" cx="323.4" stroke-miterlimit="10" fill="#f8f7cb" stroke="#808285" stroke-width="6"/><path d="M417.4 163.44s-.49-.853-1.451-2.362a177.438 177.438 0 00-4.163-6.204c-1.771-2.53-3.97-5.318-6.39-8.284-2.519-2.956-5.247-5.99-8.163-8.905a141.988 141.988 0 00-8.887-8.125c-2.964-2.407-5.809-4.625-8.303-6.377-2.494-1.752-4.649-3.137-6.254-4.076-.21-.079-.32-.168-.43-.257-.109-.089-.208-.079-.318-.168l-.22-.178 5.793-10.052c-4.956-.29-9.981-.27-14.834.434-2.377.348-4.733.894-6.98 1.53-2.236.734-4.362 1.558-6.259 2.66a31.592 31.592 0 015.02 3.802c1.458 1.457 2.817 2.925 3.977 4.413 2.34 3.175 4.194 6.501 5.859 9.948l5.793-10.052s.11.089.209.079c.1-.01.11.089.22.178s.318.168.428.257c1.496.85 3.551 2.245 6.045 3.997 2.395 1.762 5.23 3.88 8.094 6.298 2.865 2.417 5.86 5.122 8.667 7.947 2.807 2.826 5.525 5.76 7.933 8.627 2.41 2.867 4.51 5.665 6.27 8.096 1.76 2.431 3.082 4.506 4.043 6.015.96 1.508 1.452 2.362 1.452 2.362zM184.283 164.203s.423-.843.999-2.203c.333-.734.756-1.577 1.17-2.52.513-.952 1.117-2.013 1.711-3.174 2.576-4.66 6.444-10.547 11.055-16.001 4.611-5.454 9.785-10.258 13.995-13.566 1.02-.899 2.07-1.5 2.91-2.18.84-.682 1.59-1.254 2.258-1.618.57-.355.85-.582.85-.582l6.518 9.533a86.193 86.193 0 0112.76-21.384c-8.669-1.397-17.922-1.534-27.551-.33l6.518 9.533-.95.591c-.659.464-1.409 1.036-2.348 1.727-.84.681-1.88 1.381-3 2.29-4.3 3.416-9.763 8.347-14.465 13.91-4.8 5.573-8.848 11.677-11.506 16.547-.693 1.17-1.288 2.33-1.801 3.282-.513.952-.927 1.895-1.26 2.63-.666 1.468-1.09 2.31-1.09 2.31z" fill="#808285"/></g></svg>