<svg xmlns:ns="&amp;#38;ns_ai;" xmlns="http://www.w3.org/2000/svg" width="595.3" height="600"><g ns:extraneous="self"><g transform="translate(4.96 -4.69)"><ellipse cy="84.679" cx="298.952" stroke-miterlimit="10" rx="57.578" ry="56.457" opacity=".14" stroke="#000" stroke-width="5.918"/><ellipse cy="83.116" cx="294.669" stroke-miterlimit="10" rx="57.578" ry="56.457" fill="#cee7cc" stroke="#808285" stroke-width="5.918"/><ellipse cy="216.64" cx="160.187" stroke-miterlimit="10" rx="58.475" ry="57.336" opacity=".14" stroke="#000" stroke-width="5.918"/><ellipse cy="213.026" cx="154.409" stroke-miterlimit="10" rx="58.475" ry="57.336" fill="#caebfc" stroke="#808285" stroke-width="5.918"/><ellipse cy="218.593" cx="437.718" stroke-miterlimit="10" rx="59.969" ry="58.801" opacity=".14" stroke="#000" stroke-width="5.918"/><ellipse cy="214.784" cx="431.841" stroke-miterlimit="10" rx="59.969" ry="58.801" fill="#f8f7cb" stroke="#808285" stroke-width="5.918"/><ellipse cy="81.26" cx="265.581" stroke-miterlimit="10" rx="28.092" ry="27.545" fill="#caebfc" stroke="#808285" stroke-width="5.918"/><ellipse cy="83.018" cx="322.462" stroke-miterlimit="10" rx="28.789" ry="28.228" fill="#f8f7cb" stroke="#808285" stroke-width="5.918"/><path d="M416.102 160.222s-.49-.834-1.447-2.308a173.116 173.116 0 00-4.147-6.059c-1.764-2.472-3.955-5.195-6.365-8.092-2.509-2.887-5.226-5.85-8.132-8.697a140.47 140.47 0 00-8.852-7.937c-2.953-2.351-5.787-4.518-8.271-6.229-2.485-1.71-4.631-3.063-6.23-3.98-.21-.078-.319-.165-.428-.252-.11-.087-.208-.077-.318-.164l-.219-.174 5.771-9.818c-4.937-.283-9.943-.265-14.778.424-2.367.339-4.714.873-6.952 1.493-2.228.718-4.346 1.523-6.235 2.599a31.42 31.42 0 015 3.714c1.453 1.423 2.807 2.856 3.962 4.31 2.332 3.101 4.178 6.35 5.836 9.717l5.771-9.819s.11.087.208.077c.1-.01.11.087.22.175.109.087.317.164.426.25 1.49.831 3.538 2.194 6.022 3.905 2.386 1.721 5.209 3.79 8.063 6.151 2.854 2.361 5.838 5.003 8.634 7.763 2.796 2.76 5.503 5.626 7.903 8.426 2.4 2.8 4.492 5.533 6.245 7.908 1.754 2.375 3.07 4.401 4.028 5.875a66.26 66.26 0 011.446 2.308zM183.879 160.967s.421-.824.994-2.152c.332-.717.754-1.54 1.166-2.461.511-.93 1.113-1.967 1.705-3.1 2.566-4.553 6.419-10.302 11.012-15.63 4.593-5.327 9.748-10.02 13.941-13.25 1.017-.878 2.062-1.465 2.898-2.13.837-.666 1.584-1.225 2.25-1.58.568-.347.847-.569.847-.569l6.493 9.312a83.861 83.861 0 0112.71-20.887c-8.634-1.365-17.852-1.499-27.444-.323l6.493 9.312-.946.577c-.657.453-1.404 1.012-2.34 1.687-.837.665-1.872 1.35-2.988 2.237-4.283 3.336-9.726 8.153-14.409 13.587-4.782 5.443-8.815 11.406-11.462 16.162-.691 1.142-1.283 2.276-1.794 3.206-.512.93-.924 1.85-1.256 2.568-.663 1.434-1.085 2.258-1.085 2.258z" fill="#808285"/><ellipse cy="386.579" cx="292.363" stroke-miterlimit="10" rx="57.578" ry="56.457" opacity=".14" stroke="#000" stroke-width="5.918"/><ellipse cy="385.016" cx="288.08" stroke-miterlimit="10" rx="57.578" ry="56.457" fill="#cee7cc" stroke="#808285" stroke-width="5.918"/><ellipse cy="518.539" cx="153.597" stroke-miterlimit="10" rx="58.475" ry="57.336" opacity=".14" stroke="#000" stroke-width="5.918"/><ellipse cy="514.925" cx="147.82" stroke-miterlimit="10" rx="58.475" ry="57.336" fill="#caebfc" stroke="#808285" stroke-width="5.918"/><ellipse cy="520.493" cx="431.129" stroke-miterlimit="10" rx="59.969" ry="58.801" opacity=".14" stroke="#000" stroke-width="5.918"/><ellipse cy="516.684" cx="425.252" stroke-miterlimit="10" rx="59.969" ry="58.801" fill="#f8f7cb" stroke="#808285" stroke-width="5.918"/><ellipse cy="383.16" cx="258.992" stroke-miterlimit="10" rx="28.092" ry="27.545" fill="#caebfc" stroke="#808285" stroke-width="5.918"/><ellipse cy="384.918" cx="315.873" stroke-miterlimit="10" rx="28.789" ry="28.228" fill="#f8f7cb" stroke="#808285" stroke-width="5.918"/><path d="M230.202 401.719s-.896.39-2.49 1.172a177.991 177.991 0 00-6.575 3.418c-2.69 1.466-5.678 3.321-8.865 5.373-3.188 2.149-6.476 4.493-9.663 7.032a140.583 140.583 0 00-8.966 7.814c-2.69 2.638-5.18 5.177-7.172 7.424-1.992 2.246-3.586 4.2-4.682 5.665-.1.195-.2.293-.299.39-.1.098-.1.196-.2.294l-.198.195-9.364-6.642c-.797 4.786-1.295 9.67-1.096 14.456.1 2.344.398 4.689.797 6.935.498 2.247 1.096 4.396 1.992 6.35a31.111 31.111 0 014.284-4.494c1.593-1.27 3.187-2.442 4.781-3.419 3.387-1.953 6.874-3.418 10.46-4.688l-9.364-6.642s.1-.098.1-.195c0-.098.1-.098.199-.196.1-.097.2-.293.299-.39.996-1.368 2.59-3.224 4.582-5.47 1.992-2.15 4.383-4.689 7.073-7.228 2.69-2.54 5.678-5.177 8.766-7.62 3.088-2.441 6.276-4.785 9.364-6.836 3.088-2.052 6.077-3.81 8.667-5.275 2.59-1.465 4.781-2.54 6.375-3.32 1.594-.782 2.49-1.173 2.49-1.173zM343.765 407.58s.797.488 2.092 1.171c.698.391 1.494.88 2.391 1.368.897.586 1.893 1.27 2.989 1.953 4.383 2.93 9.862 7.228 14.842 12.21 4.981 4.981 9.265 10.451 12.154 14.847.797 1.074 1.295 2.149 1.892 3.028.598.879 1.096 1.66 1.395 2.344.299.586.498.879.498.879l-10.061 5.47a85.808 85.808 0 0120.023 14.358c2.191-8.302 3.187-17.288 2.889-26.763l-10.062 5.47-.498-.977c-.398-.684-.896-1.465-1.494-2.442-.598-.879-1.195-1.953-1.992-3.126-2.989-4.493-7.372-10.256-12.452-15.335-5.08-5.177-10.759-9.67-15.341-12.698-1.096-.781-2.192-1.465-3.088-2.05-.897-.587-1.794-1.075-2.49-1.466a71.998 71.998 0 01-2.192-1.27z" fill="#808285"/></g></g><text style="line-height:1.25" x="236.304" y="228.373" font-weight="400" font-size="57.527" font-family="sans-serif" letter-spacing="0" word-spacing="0" fill="#7e7e7e" stroke-width="1.438"><tspan x="236.304" y="228.373">AND</tspan></text><text style="line-height:1.25" x="243.219" y="538.515" font-weight="400" font-size="60.87" font-family="sans-serif" letter-spacing="0" word-spacing="0" fill="#7e7e7e" stroke-width="1.522"><tspan x="243.219" y="538.515">OR</tspan></text></svg>