<svg xmlns="http://www.w3.org/2000/svg" viewBox="0 0 595.3 317.5"><switch><g><circle opacity=".14" stroke="#000" stroke-width="6" stroke-miterlimit="10" cx="306.9" cy="275.6" r="30.9"/><circle opacity=".14" stroke="#000" stroke-width="6" stroke-miterlimit="10" cx="425.1" cy="70.6" r="30.9"/><circle opacity=".14" stroke="#000" stroke-width="6" stroke-miterlimit="10" cx="299" cy="152.2" r="30.9"/><circle fill="#CEE7CC" stroke="#808285" stroke-width="6" stroke-miterlimit="10" cx="296.7" cy="151.3" r="30.9"/><circle opacity=".14" stroke="#000" stroke-width="6" stroke-miterlimit="10" cx="217.6" cy="220.3" r="31.4"/><circle fill="#CAEBFC" stroke="#808285" stroke-width="6" stroke-miterlimit="10" cx="213.5" cy="218.3" r="31.4"/><circle opacity=".14" stroke="#000" stroke-width="6" stroke-miterlimit="10" cx="381.4" cy="217.3" r="32.1"/><circle fill="#F8F7CB" stroke="#808285" stroke-width="6" stroke-miterlimit="10" cx="378.2" cy="215.3" r="32.1"/><path fill="#E0F3FD" d="M295.5 71.4s-1.5 1.2-4.1 3.3c-1.3 1-2.9 2.3-4.6 3.8-1.7 1.5-3.8 3.2-5.8 5.1-8.5 7.6-19 18.7-28.3 30.7s-17.3 25-22.6 35.1c-1.4 2.5-2.5 4.9-3.5 6.9-1 2.1-1.9 3.9-2.6 5.4-.3.7-.5 1.2-.5 1.2l-10.5-4.8c.2 2.3.4 4.5.6 6.8l.8 6.7.4 3.3.6 3.3 1.2 6.5 5-4.2 2.5-2.1 2.6-2 5.1-3.9c1.7-1.2 3.5-2.4 5.2-3.6l-10.5-4.8s.2-.4.5-1.1c.6-1.5 1.5-3.3 2.5-5.3s2.1-4.4 3.5-6.8c5.2-10 13.1-22.8 22.3-34.7 9.2-11.9 19.6-22.8 28-30.3 2.1-1.9 4.1-3.6 5.8-5.1 1.7-1.5 3.3-2.7 4.6-3.8 2.6-2.1 4-3.2 4-3.2l-2.2-2.4z"/><path fill="#DFEAA8" d="M347.9 74.6s.8 1.2 2.3 3.4c1.4 2.2 3.5 5.3 5.7 9.1 4.5 7.7 10 18.3 13.7 29.5.5 1.4.9 2.8 1.3 4.2.4 1.4.8 2.8 1.1 4.2.4 1.4.5 2.8.8 4.2l.6 4.2c.6 5.5.9 10.7.9 15.1.1 4.5-.1 8.2-.2 10.8 0 .8-.1 1.2-.1 1.2l-11.6-.5c4.1 7.4 7.8 15.4 11.5 23.3 5-7.2 10-14.4 14.8-22.2l-11.6-.5s0-.4.1-1.2c.1-2.6.2-6.4.2-10.9-.1-4.5-.3-9.8-1-15.5-.1-1.4-.4-2.8-.6-4.3-.3-1.5-.5-2.9-.9-4.4-.3-1.5-.7-2.9-1.1-4.4-.4-1.5-.9-2.9-1.3-4.4-3.8-11.5-9.4-22.3-14-30.1-2.3-3.9-4.3-7.1-5.8-9.3-1.5-2.2-2.4-3.4-2.4-3.4l-2.4 1.9z"/><circle opacity=".14" stroke="#000" stroke-width="6" stroke-miterlimit="10" cx="218.7" cy="63.7" r="30.9"/><path fill="#E0F3FD" d="M204.2 90.9s-.1 1.2-.3 3.2c-.2 2-.5 4.9-.7 8.4-.5 7-1 16.3-.9 25.6 0 9.3.5 18.7 1 25.6.3 3.5.6 6.4.8 8.4.1.7.1 1.1.1 1.1l-11.5 1.3c5.3 7.4 10.8 14.4 16.7 21 2.7-8.3 5.9-16.3 9.5-24l-11.5 1.3s0-.4-.1-1.1c-.2-2-.5-4.9-.8-8.3-.6-6.9-1-16.1-1-25.4 0-9.2.4-18.5.9-25.4.3-3.5.5-6.3.7-8.3.2-2 .3-3.2.3-3.2l-3.2-.2z"/><path fill="#DFEAA8" d="M242.8 76s2.2 1 5.9 2.7c3.8 1.8 9.1 4.2 15.5 7.3 12.8 6.2 29.7 14.8 45.1 25.7 7.7 5.4 15 11.4 21.3 17.5 3.2 3 6 6.2 8.6 9.3 2.6 3.1 4.8 6.2 6.8 9.1 4 5.8 6.9 10.9 8.9 14.5l.6 1.2-10.2 5.5c7.2 4.1 14.3 9 21.2 14.4 1.3-8.7 2-17.6 2-26.9l-10.2 5.5-.6-1.2c-2-3.7-5-8.9-9.1-14.8-2-3-4.4-6.1-7-9.3-2.6-3.2-5.6-6.5-8.8-9.5-6.4-6.3-13.9-12.4-21.7-17.8-15.7-11-32.7-19.7-45.6-25.9-6.4-3.1-11.8-5.6-15.6-7.4-3.8-1.7-5.9-2.7-5.9-2.7l-1.2 2.8zM424.5 98.3s-.3 1.1-.7 3.1c-.4 2-1.1 4.8-2 8.1-1.7 6.7-4.2 15.6-7.2 24.4-2.9 8.8-6.3 17.4-9 23.8-1.3 3.2-2.6 5.8-3.4 7.7l-.5 1-10.5-4.9c.9 8.4 1.5 17 1.5 25.8 7.6-4.4 15.1-9.3 22.4-14.7l-10.5-4.9.5-1c.8-1.9 2.1-4.5 3.4-7.7 2.8-6.4 6.1-15.1 9.1-24 3-8.8 5.5-17.8 7.2-24.6.8-3.4 1.5-6.2 2-8.2.5-2 .7-3.1.7-3.1l-3-.8z"/><path fill="#E0F3FD" d="M392.8 73s-3.1.2-8.4.4c-1.3 0-2.8.2-4.4.4-1.6.2-3.4.3-5.2.5-1.9.1-3.8.5-5.9.8-1 .2-2.1.3-3.2.5s-2.2.3-3.3.6c-9.1 1.6-19.5 4.3-30.3 8.3-10.8 4-21.9 9.4-32.2 16.1-10.3 6.7-19.9 14.5-27.9 22.8-4.1 4.1-7.7 8.3-11.1 12.4-3.3 4.2-6.3 8.2-8.8 12-5.1 7.7-8.7 14.5-10.9 19.4-.4.9-.6 1.4-.6 1.4l-10.6-4.7c.3 4.8.8 9.4 1.6 13.9s1.9 9 3.5 13.1c2.8-3.4 5.9-6.3 9-9 3.1-2.7 6.6-5.1 9.9-7.3l-10.5-4.7s.2-.5.6-1.3c2.2-4.8 5.7-11.5 10.7-19 2.5-3.8 5.4-7.7 8.6-11.8 3.3-4 6.8-8.2 10.8-12.2 7.9-8.1 17.3-15.8 27.4-22.3 10.1-6.6 21-11.9 31.6-15.8 10.6-3.9 20.9-6.6 29.8-8.1l3.3-.6c1.1-.2 2.1-.3 3.1-.5 2-.3 4-.6 5.8-.8 1.8-.2 3.5-.4 5.1-.5 1.6-.2 3-.3 4.4-.4 5.3-.3 8.3-.4 8.3-.4l-.2-3.2z"/><path fill="#DFEAA8" d="M424.5 98.2s-.3 1.1-.7 3.1c-.4 2-1.1 4.8-2 8.1-1.7 6.7-4.2 15.6-7.2 24.4-2.9 8.8-6.3 17.4-9 23.8-1.3 3.2-2.6 5.8-3.4 7.7l-.5 1-10.5-4.9c.9 8.4 1.5 17 1.5 25.8 7.6-4.4 15.1-9.3 22.4-14.7l-10.5-4.9.5-1c.8-1.9 2.1-4.5 3.4-7.7 2.8-6.4 6.1-15.1 9.1-24 3-8.8 5.5-17.8 7.2-24.6.8-3.4 1.5-6.2 2-8.2.5-2 .7-3.1.7-3.1l-3-.8z"/><path fill="#E0F3FD" d="M281.9 267l-1-.5c-.6-.3-1.5-.8-2.6-1.3-2.1-1.1-5-2.7-7.7-4.4-2.8-1.7-5.5-3.4-7.5-4.8-1-.7-1.9-1.2-2.4-1.6-.5-.4-.8-.6-.8-.6l6.6-9.5c-4.2-.2-8.4-.5-12.5-1.1-4.2-.5-8.3-1.1-12.5-2.5.9 4.3 2.6 8.6 4.3 12.8 1.8 4.2 3.7 8.3 5.8 12.4l6.6-9.5s.3.2.8.6c.6.4 1.5 1 2.5 1.7 2.1 1.4 4.8 3.1 7.6 4.8 2.8 1.7 5.7 3.3 7.9 4.5 1.1.6 2 1.1 2.7 1.4.7.3 1 .5 1 .5l1.2-2.9z"/><path fill="#DFEAA8" d="M335.5 260.4l2.6-1c.5-.2.9-.3 1.4-.5l1.2-.9.8-.6 7.3 9s.3-.5.6-1.3c.4-.8.8-1.9 1.3-3.2 1-2.6 1.9-5.9 2.7-9.2.8-3.3 1.5-6.6 1.9-9 .4-2.5.6-4.1.6-4.1s-1.5.6-3.8 1.5c-2.3.8-5.4 1.9-8.4 2.8-3 .9-6.1 1.6-8.2 1.9-1.1.2-1.9.2-2.5.3h-.9l7.3 9-.6.5-.9.7c-.4.2-.7.3-1.1.4l-2.4.9 1.1 2.8z"/><path fill="#808285" d="M265.4 159.7c-6.9 3.2-13.2 7.5-18.7 12.7l-.7.6-8-8.3s-.7 1.8-1.5 4.4c-.8 2.6-1.7 6.2-2.3 9.9-.6 3.7-.6 7.4-.1 10.1.2 1.3.5 2.3.8 3 .3.7.4 1.1.4 1.1s.3-.3.7-.9c.5-.5 1.1-1.2 2-2 1.8-1.5 4.3-2.9 7-3.8 2.7-1 5.5-1.7 7.7-2.2 2.1-.5 3.5-.6 3.5-.6l-8-8.3.7-.6c5.3-4.9 11.3-9.1 17.9-12.1l-1.4-3z"/><circle fill="#CAEBFC" stroke="#BCBEC0" stroke-width="6" stroke-miterlimit="10" cx="215.4" cy="61.8" r="30.9"/><ellipse fill="#E8CAE1" stroke="#BCBEC0" stroke-width="6" stroke-miterlimit="10" cx="422.6" cy="69.4" rx="30.1" ry="30.9"/><ellipse fill="#FEDDBF" stroke="#BCBEC0" stroke-width="6" stroke-miterlimit="10" cx="304" cy="272.6" rx="30.1" ry="30.9"/><path fill="#808285" d="M326.2 162.3c5.2 2.9 9.9 6.8 13.8 11.3l.6.7-8.9 7.4s.3.1.9.2c.6.1 1.4.4 2.4.7 2 .6 4.7 1.7 7.3 3.2 2.6 1.4 5.2 3.2 7 4.8 1 .8 1.7 1.4 2.2 1.9l.8.8s.1-.4.3-1.1c.2-.7.4-1.7.6-3 .5-2.5.8-6 .7-9.6 0-3.6-.5-7.3-1-10.1-.3-1.4-.5-2.6-.7-3.4-.2-.8-.3-1.3-.3-1.3l-8.9 7.4-.6-.7c-4.2-4.8-9.1-8.9-14.7-12l-1.5 2.8z"/><circle opacity=".14" stroke="#000" stroke-width="6" stroke-miterlimit="10" cx="326.4" cy="54.5" r="30.9"/><circle fill="#E2F3F0" stroke="#BCBEC0" stroke-width="6" stroke-miterlimit="10" cx="323.1" cy="53.5" r="30.9"/><path fill="#D1D3D4" d="M236.4 89.5l1.2.6c.8.4 1.8 1 3.1 1.7 2.5 1.5 5.8 3.6 8.9 6 3.1 2.4 6.1 4.9 8.2 6.9 1.1 1 1.9 1.9 2.5 2.5.4.5.7.7.7.7l-8.3 8c7.8 1.7 15.6 4.6 23.3 8.9-.1-8.7-1.5-18-4.4-27.2l-8.3 8-.7-.7-2.6-2.6c-2.2-2.1-5.3-4.7-8.5-7.2-3.2-2.4-6.6-4.7-9.2-6.2-1.3-.8-2.4-1.4-3.2-1.8-.8-.4-1.2-.7-1.2-.7l-1.5 3.1zM315.1 85.4c-.4 3.9-.9 7.8-1.7 11.7l-.2.9-11.3-2.4s.6 1.4 1.3 3.5c.8 2.2 1.7 5.1 2.4 8.2 1.5 6.1 2.2 12.7 2.2 12.7s.3-.2.9-.7c.6-.4 1.4-1.1 2.4-1.8 2-1.6 4.5-3.7 7-6.1 5-4.7 9.5-10.3 9.5-10.3l-11.3-2.4.2-.9c.8-4 1.4-8 1.7-12l-3.1-.4zM395.9 86.5s-1 .2-2.7.6c-.9.2-1.9.4-3.1.7-1.2.3-2.5.6-4 1-5.8 1.5-13.4 4-20.7 7.1-7.3 3.1-14.4 6.9-19.5 10.1-2.5 1.6-4.7 2.9-6.1 3.9l-.9.6-6.6-9.5c-4.3 8.3-7.8 16.7-10.3 25.1 8.5-2 17-3.1 25.2-3.4l-6.5-9.5.9-.6c1.4-1 3.5-2.3 6-3.8 5-3.1 11.9-6.8 19.1-9.8 7.2-3.1 14.6-5.5 20.3-7 1.4-.4 2.7-.7 3.9-1 1.2-.3 2.2-.5 3-.7 1.7-.4 2.6-.6 2.6-.6l-.6-3.2zM309.9 238.5s0-1.9.1-4.8c0-2.9.1-6.8 0-10.7-.1-3.9-.3-7.8-.6-10.7-.1-1.5-.3-2.7-.4-3.5-.1-.6-.1-1-.1-1l11.5-1.4c-5.3-7.8-11.4-14.8-17.9-20.6-1.9 8.6-4.6 16.5-8.2 23.8l11.5-1.4s0 .4.1 1c.1.8.2 2 .3 3.4.2 2.9.5 6.7.6 10.5.1 3.8.1 7.7 0 10.6 0 2.9-.1 4.8-.1 4.8h3.2z"/></g></switch></svg>