<svg xmlns="http://www.w3.org/2000/svg" viewBox="0 0 595.3 312"><circle r="57.8" cy="86.1" cx="299.8" stroke-miterlimit="10" opacity=".14" stroke="#000" stroke-width="6"/><circle r="57.8" cy="84.5" cx="295.5" stroke-miterlimit="10" fill="#cee7cc" stroke="#808285" stroke-width="6"/><circle r="58.7" cy="221.2" cx="160.5" stroke-miterlimit="10" opacity=".14" stroke="#000" stroke-width="6"/><circle r="58.7" cy="217.5" cx="154.7" stroke-miterlimit="10" fill="#caebfc" stroke="#808285" stroke-width="6"/><circle r="60.2" cy="223.2" cx="439.1" stroke-miterlimit="10" opacity=".14" stroke="#000" stroke-width="6"/><circle r="60.2" cy="219.3" cx="433.2" stroke-miterlimit="10" fill="#f8f7cb" stroke="#808285" stroke-width="6"/><circle r="28.2" cy="82.6" cx="266.3" stroke-miterlimit="10" fill="#caebfc" stroke="#808285" stroke-width="6"/><circle r="28.9" cy="84.4" cx="323.4" stroke-miterlimit="10" fill="#f8f7cb" stroke="#808285" stroke-width="6"/><path d="M237.4 101.6s-.9.4-2.5 1.2c-1.6.8-3.9 2-6.6 3.5-2.7 1.5-5.7 3.4-8.9 5.5-3.2 2.2-6.5 4.6-9.7 7.2-3.2 2.6-6.2 5.3-9 8-2.7 2.7-5.2 5.3-7.2 7.6s-3.6 4.3-4.7 5.8c-.1.2-.2.3-.3.4-.1.1-.1.2-.2.3l-.2.2-9.4-6.8c-.8 4.9-1.3 9.9-1.1 14.8.1 2.4.4 4.8.8 7.1.5 2.3 1.1 4.5 2 6.5 1.3-1.7 2.8-3.3 4.3-4.6 1.6-1.3 3.2-2.5 4.8-3.5 3.4-2 6.9-3.5 10.5-4.8l-9.4-6.8s.1-.1.1-.2.1-.1.2-.2.2-.3.3-.4c1-1.4 2.6-3.3 4.6-5.6 2-2.2 4.4-4.8 7.1-7.4 2.7-2.6 5.7-5.3 8.8-7.8 3.1-2.5 6.3-4.9 9.4-7 3.1-2.1 6.1-3.9 8.7-5.4 2.6-1.5 4.8-2.6 6.4-3.4 1.6-.8 2.5-1.2 2.5-1.2zM351.4 107.6s.8.5 2.1 1.2c.7.4 1.5.9 2.4 1.4.9.6 1.9 1.3 3 2 4.4 3 9.9 7.4 14.9 12.5s9.3 10.7 12.2 15.2c.8 1.1 1.3 2.2 1.9 3.1.6.9 1.1 1.7 1.4 2.4.3.6.5.9.5.9l-10.1 5.6c7 3.7 13.9 8.6 20.1 14.7 2.2-8.5 3.2-17.7 2.9-27.4l-10.1 5.6-.5-1c-.4-.7-.9-1.5-1.5-2.5-.6-.9-1.2-2-2-3.2-3-4.6-7.4-10.5-12.5-15.7-5.1-5.3-10.8-9.9-15.4-13-1.1-.8-2.2-1.5-3.1-2.1-.9-.6-1.8-1.1-2.5-1.5-1.4-.8-2.2-1.3-2.2-1.3z" fill="#808285"/></svg>