<?xml version="1.0" encoding="UTF-8" standalone="no"?>
<svg
   xmlns:dc="http://purl.org/dc/elements/1.1/"
   xmlns:cc="http://creativecommons.org/ns#"
   xmlns:rdf="http://www.w3.org/1999/02/22-rdf-syntax-ns#"
   xmlns:svg="http://www.w3.org/2000/svg"
   xmlns="http://www.w3.org/2000/svg"
   xmlns:sodipodi="http://sodipodi.sourceforge.net/DTD/sodipodi-0.dtd"
   xmlns:inkscape="http://www.inkscape.org/namespaces/inkscape"
   width="210mm"
   height="51mm"
   viewBox="0 0 210 51"
   version="1.1"
   id="svg953"
   inkscape:version="1.0.1 (0767f8302a, 2020-10-17)"
   sodipodi:docname="logo.svg">
  <defs
     id="defs947" />
  <sodipodi:namedview
     id="base"
     pagecolor="#ffffff"
     bordercolor="#666666"
     borderopacity="1.0"
     inkscape:pageopacity="0.0"
     inkscape:pageshadow="2"
     inkscape:zoom="0.98994949"
     inkscape:cx="293.1671"
     inkscape:cy="216.92485"
     inkscape:document-units="mm"
     inkscape:current-layer="layer1"
     inkscape:document-rotation="0"
     showgrid="false"
     inkscape:window-width="2234"
     inkscape:window-height="1224"
     inkscape:window-x="50"
     inkscape:window-y="77"
     inkscape:window-maximized="0" />
  <metadata
     id="metadata950">
    <rdf:RDF>
      <cc:Work
         rdf:about="">
        <dc:format>image/svg+xml</dc:format>
        <dc:type
           rdf:resource="http://purl.org/dc/dcmitype/StillImage" />
        <dc:title />
      </cc:Work>
    </rdf:RDF>
  </metadata>
  <g
     inkscape:label="Layer 1"
     inkscape:groupmode="layer"
     id="layer1">
    <rect
       style="fill:#39bced;fill-opacity:1;stroke:#c50000;stroke-width:0;stroke-linecap:round;stroke-miterlimit:4;stroke-dasharray:none"
       id="rect3398"
       width="220.71384"
       height="54.673531"
       x="-5.9865079"
       y="-0.19742142" />
    <g
       aria-label="category theory "
       id="text835"
       style="font-style:normal;font-weight:normal;font-size:15.3981px;line-height:1.25;font-family:sans-serif;fill:#ffffff;fill-opacity:1;stroke:none;stroke-width:0.384954"
       transform="matrix(1.0539981,0,0,1.0539981,-6.2039617,-0.01758108)">
      <path
         d="m 11.860139,13.861065 v 2.463696 q 0,0.631322 0.415749,0.970081 0.431147,0.338758 1.108663,0.338758 0.692915,0 1.000877,-0.215574 0.307962,-0.215573 0.508137,-0.631322 0.215573,-0.415748 0.554332,-0.415748 h 3.325989 q 0.138583,0 0.230972,0.107786 0.107786,0.09239 0.107786,0.230972 0,1.432023 -1.355032,2.617677 -0.677517,0.585128 -1.801578,0.954682 -1.124061,0.354156 -2.648473,0.354156 -1.524412,0 -2.787056,-0.461943 Q 9.2732586,19.696945 8.4879555,18.634476 7.7026524,17.556609 7.7026524,16.001401 v -1.816976 q 0,-1.555208 0.7853031,-2.633075 1.4782176,-2.0017526 4.9427905,-2.0017526 1.401227,0 2.525288,0.3695544 1.124061,0.3541562 1.801578,0.9392842 1.355032,1.185654 1.355032,2.617677 0,0.138583 -0.107786,0.246369 -0.09239,0.09239 -0.230972,0.09239 h -3.325989 q -0.338759,0 -0.554332,-0.415749 -0.200175,-0.415748 -0.508137,-0.631322 -0.307962,-0.215573 -1.000877,-0.215573 -0.677516,0 -1.108663,0.338758 -0.415749,0.338758 -0.415749,0.97008 z"
         style="font-style:normal;font-variant:normal;font-weight:normal;font-stretch:normal;font-family:'Rubik Mono One';-inkscape-font-specification:'Rubik Mono One';fill:#ffffff;fill-opacity:1;stroke-width:0.384954"
         id="path5226" />
      <path
         d="m 23.448893,20.482248 h -2.91024 q -0.138583,0 -0.24637,-0.09239 -0.09239,-0.107787 -0.09239,-0.200176 0,-0.09239 0.0154,-0.138582 l 3.356786,-9.839386 q 0.138583,-0.5081376 0.692915,-0.5081376 h 4.280672 q 0.554331,0 0.692914,0.5081376 l 3.356786,9.839386 q 0.0154,0.04619 0.0154,0.138582 0,0.09239 -0.107787,0.200176 -0.09239,0.09239 -0.230971,0.09239 h -2.910241 q -0.492739,0 -0.692915,-0.523535 L 28.283897,18.880846 H 24.52676 l -0.384952,1.077867 q -0.200175,0.523535 -0.692915,0.523535 z m 4.049701,-4.604032 -1.093265,-3.202804 -1.093265,3.202804 z"
         style="font-style:normal;font-variant:normal;font-weight:normal;font-stretch:normal;font-family:'Rubik Mono One';-inkscape-font-specification:'Rubik Mono One';fill:#ffffff;fill-opacity:1;stroke-width:0.384954"
         id="path5228" />
      <path
         d="m 34.12916,9.7035784 h 10.624689 q 0.169379,0 0.292564,0.1231848 0.123184,0.1231848 0.123184,0.2925638 v 2.479094 q 0,0.169379 -0.123184,0.292564 -0.123185,0.123185 -0.292564,0.123185 h -3.310592 v 7.05233 q 0,0.169379 -0.123185,0.292564 -0.123184,0.123184 -0.292564,0.123184 H 37.8555 q -0.169379,0 -0.292564,-0.123184 Q 37.439751,20.235879 37.439751,20.0665 V 13.01417 H 34.12916 q -0.169379,0 -0.292564,-0.123185 -0.123185,-0.123185 -0.123185,-0.292564 v -2.479094 q 0,-0.169379 0.123185,-0.2925638 0.123185,-0.1231848 0.292564,-0.1231848 z"
         style="font-style:normal;font-variant:normal;font-weight:normal;font-stretch:normal;font-family:'Rubik Mono One';-inkscape-font-specification:'Rubik Mono One';fill:#ffffff;fill-opacity:1;stroke-width:0.384954"
         id="path5230" />
      <path
         d="m 51.369016,17.479619 h 6.143841 q 0.169379,0 0.292564,0.123185 0.123185,0.123184 0.123185,0.292564 V 20.0665 q 0,0.169379 -0.123185,0.292564 -0.123185,0.123184 -0.292564,0.123184 h -9.731599 q -0.169379,0 -0.292564,-0.123184 Q 47.36551,20.235879 47.36551,20.0665 v -9.947173 q 0,-0.169379 0.123184,-0.2925638 0.123185,-0.1231848 0.292564,-0.1231848 h 9.577618 q 0.169379,0 0.292564,0.1231848 0.123185,0.1231848 0.123185,0.2925638 v 2.171132 q 0,0.169379 -0.123185,0.292564 -0.123185,0.123185 -0.292564,0.123185 h -5.98986 v 0.97008 h 5.142965 q 0.169379,0 0.292564,0.123185 0.123185,0.123185 0.123185,0.292564 v 2.001753 q 0,0.169379 -0.123185,0.292564 -0.123185,0.123185 -0.292564,0.123185 h -5.142965 z"
         style="font-style:normal;font-variant:normal;font-weight:normal;font-stretch:normal;font-family:'Rubik Mono One';-inkscape-font-specification:'Rubik Mono One';fill:#ffffff;fill-opacity:1;stroke-width:0.384954"
         id="path5232" />
      <path
         d="m 66.684111,13.98425 h 4.465449 q 0.169379,0 0.292564,0.123185 0.123184,0.123185 0.123184,0.292564 v 1.632198 q 0,2.340512 -1.601402,3.479971 -1.586004,1.124061 -4.203681,1.124061 -2.617677,0 -4.21908,-1.124061 -1.586004,-1.139459 -1.586004,-3.510767 v -1.816976 q 0,-1.185653 0.446545,-2.094141 0.461943,-0.908488 1.278042,-1.46282 1.601403,-1.0778666 4.080497,-1.0778666 1.231848,0 2.248122,0.2925639 1.031673,0.2771657 1.632199,0.7083127 0.615924,0.415749 1.047071,0.908488 0.754507,0.862293 0.754507,1.524412 0,0.138583 -0.107787,0.246369 -0.09239,0.09239 -0.230972,0.09239 h -3.47997 q -0.307962,0 -0.446545,-0.169379 -0.477341,-0.600526 -1.308839,-0.600526 -0.816099,0 -1.29344,0.32336 -0.461943,0.32336 -0.461943,0.831497 v 2.617677 q 0,0.615924 0.461943,0.970081 0.461943,0.338758 1.29344,0.338758 0.846896,0 1.293441,-0.32336 0.461943,-0.338758 0.477341,-0.785303 h -0.954682 q -0.169379,0 -0.292564,-0.123185 -0.123185,-0.123185 -0.123185,-0.292564 V 14.4 q 0,-0.169379 0.123185,-0.292564 0.123185,-0.123185 0.292564,-0.123186 z"
         style="font-style:normal;font-variant:normal;font-weight:normal;font-stretch:normal;font-family:'Rubik Mono One';-inkscape-font-specification:'Rubik Mono One';fill:#ffffff;fill-opacity:1;stroke-width:0.384954"
         id="path5234" />
      <path
         d="m 84.416708,14.153629 v 1.878568 q 0,1.586005 -0.769905,2.648474 -0.769905,1.062469 -2.017151,1.509013 -1.247246,0.446545 -2.941037,0.446545 -1.693791,0 -2.941038,-0.446545 -1.247246,-0.446544 -2.017151,-1.509013 -0.769905,-1.062469 -0.769905,-2.67927 v -1.816976 q 0,-2.325113 1.586005,-3.47997 1.601402,-1.1548576 4.142089,-1.1548576 2.540686,0 4.12669,1.1548576 1.601403,1.154857 1.601403,3.449174 z m -7.2987,-0.292564 v 2.463696 q 0,0.631322 0.415749,0.970081 0.431147,0.338758 1.154858,0.338758 0.72371,0 1.139459,-0.338758 0.431147,-0.354157 0.431147,-0.985479 v -2.4329 q 0,-0.631322 -0.431147,-0.97008 -0.415749,-0.354156 -1.139459,-0.354156 -0.723711,0 -1.154858,0.338758 -0.415749,0.338758 -0.415749,0.97008 z"
         style="font-style:normal;font-variant:normal;font-weight:normal;font-stretch:normal;font-family:'Rubik Mono One';-inkscape-font-specification:'Rubik Mono One';fill:#ffffff;fill-opacity:1;stroke-width:0.384954"
         id="path5236" />
      <path
         d="m 97.884027,20.004907 q 0.0308,0.06159 0.0308,0.169379 0,0.107787 -0.107786,0.215574 -0.09239,0.09239 -0.230972,0.09239 H 94.0807 q -0.461943,0 -0.64672,-0.384952 l -1.355033,-3.048824 h -1.29344 V 20.0665 q 0,0.169379 -0.123185,0.292564 -0.123185,0.123184 -0.292564,0.123184 h -3.325989 q -0.169379,0 -0.292564,-0.123184 Q 86.62802,20.235879 86.62802,20.0665 v -9.947173 q 0,-0.169379 0.123185,-0.2925638 0.123185,-0.1231848 0.292564,-0.1231848 h 5.989861 q 2.109539,0 3.341387,1.0008766 1.231848,1.000876 1.231848,2.725464 0,2.094141 -1.6168,3.033425 z m -7.098524,-7.437282 v 1.632199 h 1.924763 q 0.338758,0 0.523535,-0.215574 0.184777,-0.230971 0.184777,-0.56973 0,-0.338758 -0.184777,-0.585127 -0.169379,-0.261768 -0.523535,-0.261768 z"
         style="font-style:normal;font-variant:normal;font-weight:normal;font-stretch:normal;font-family:'Rubik Mono One';-inkscape-font-specification:'Rubik Mono One';fill:#ffffff;fill-opacity:1;stroke-width:0.384954"
         id="path5238" />
      <path
         d="m 107.27086,9.7035784 h 3.2182 q 0.13858,0 0.23097,0.1077867 0.10779,0.092389 0.10779,0.2001749 0,0.107787 -0.0462,0.200176 l -3.88032,6.421007 V 20.0665 q 0,0.169379 -0.12318,0.292564 -0.12319,0.123184 -0.29257,0.123184 h -3.27979 q -0.16938,0 -0.29256,-0.123184 -0.12319,-0.123185 -0.12319,-0.292564 v -3.433777 l -3.864922,-6.421007 q -0.04619,-0.09239 -0.04619,-0.200176 0,-0.1077863 0.09239,-0.2001749 0.107787,-0.1077867 0.246369,-0.1077867 h 3.249003 q 0.43115,0 0.63132,0.3541566 l 1.73999,3.048823 1.78618,-3.018027 q 0.23097,-0.3849526 0.64672,-0.3849526 z"
         style="font-style:normal;font-variant:normal;font-weight:normal;font-stretch:normal;font-family:'Rubik Mono One';-inkscape-font-specification:'Rubik Mono One';fill:#ffffff;fill-opacity:1;stroke-width:0.384954"
         id="path5240" />
      <path
         d="m 125.70575,9.7035784 h 10.62468 q 0.16938,0 0.29257,0.1231848 0.12318,0.1231848 0.12318,0.2925638 v 2.479094 q 0,0.169379 -0.12318,0.292564 -0.12319,0.123185 -0.29257,0.123185 h -3.31059 v 7.05233 q 0,0.169379 -0.12318,0.292564 -0.12319,0.123184 -0.29257,0.123184 h -3.172 q -0.16938,0 -0.29257,-0.123184 -0.12318,-0.123185 -0.12318,-0.292564 v -7.05233 h -3.31059 q -0.16938,0 -0.29257,-0.123185 Q 125.29,12.7678 125.29,12.598421 v -2.479094 q 0,-0.169379 0.12318,-0.2925638 0.12319,-0.1231848 0.29257,-0.1231848 z"
         style="font-style:normal;font-variant:normal;font-weight:normal;font-stretch:normal;font-family:'Rubik Mono One';-inkscape-font-specification:'Rubik Mono One';fill:#ffffff;fill-opacity:1;stroke-width:0.384954"
         id="path5242" />
      <path
         d="m 146.05602,9.7035784 h 3.17201 q 0.16938,0 0.29257,0.1231848 0.12318,0.1231848 0.12318,0.2925638 V 20.0665 q 0,0.169379 -0.12318,0.292564 -0.12319,0.123184 -0.29257,0.123184 h -3.17201 q -0.16938,0 -0.29256,-0.123184 -0.12319,-0.123185 -0.12319,-0.292564 v -3.279796 h -3.07962 V 20.0665 q 0,0.169379 -0.12318,0.292564 -0.12319,0.123184 -0.29256,0.123184 h -3.17201 q -0.16938,0 -0.29257,-0.107786 -0.12318,-0.123185 -0.12318,-0.307962 v -9.947173 q 0,-0.169379 0.12318,-0.2925638 0.12319,-0.1231848 0.29257,-0.1231848 h 3.17201 q 0.16937,0 0.29256,0.1231848 0.12318,0.1231848 0.12318,0.2925638 v 3.156611 h 3.07962 v -3.156611 q 0,-0.169379 0.12319,-0.2925638 0.12318,-0.1231848 0.29256,-0.1231848 z"
         style="font-style:normal;font-variant:normal;font-weight:normal;font-stretch:normal;font-family:'Rubik Mono One';-inkscape-font-specification:'Rubik Mono One';fill:#ffffff;fill-opacity:1;stroke-width:0.384954"
         id="path5244" />
      <path
         d="m 156.02797,17.479619 h 6.14385 q 0.16937,0 0.29256,0.123185 0.12318,0.123184 0.12318,0.292564 V 20.0665 q 0,0.169379 -0.12318,0.292564 -0.12319,0.123184 -0.29256,0.123184 h -9.7316 q -0.16938,0 -0.29257,-0.123184 -0.12318,-0.123185 -0.12318,-0.292564 v -9.947173 q 0,-0.169379 0.12318,-0.2925638 0.12319,-0.1231848 0.29257,-0.1231848 h 9.57761 q 0.16938,0 0.29257,0.1231848 0.12318,0.1231848 0.12318,0.2925638 v 2.171132 q 0,0.169379 -0.12318,0.292564 -0.12319,0.123185 -0.29257,0.123185 h -5.98986 v 0.97008 h 5.14297 q 0.16938,0 0.29256,0.123185 0.12319,0.123185 0.12319,0.292564 v 2.001753 q 0,0.169379 -0.12319,0.292564 -0.12318,0.123185 -0.29256,0.123185 h -5.14297 z"
         style="font-style:normal;font-variant:normal;font-weight:normal;font-stretch:normal;font-family:'Rubik Mono One';-inkscape-font-specification:'Rubik Mono One';fill:#ffffff;fill-opacity:1;stroke-width:0.384954"
         id="path5246" />
      <path
         d="m 175.99329,14.153629 v 1.878568 q 0,1.586005 -0.7699,2.648474 -0.76991,1.062469 -2.01715,1.509013 -1.24725,0.446545 -2.94104,0.446545 -1.69379,0 -2.94104,-0.446545 -1.24724,-0.446544 -2.01715,-1.509013 -0.7699,-1.062469 -0.7699,-2.67927 v -1.816976 q 0,-2.325113 1.586,-3.47997 1.6014,-1.1548576 4.14209,-1.1548576 2.54068,0 4.12669,1.1548576 1.6014,1.154857 1.6014,3.449174 z m -7.2987,-0.292564 v 2.463696 q 0,0.631322 0.41575,0.970081 0.43115,0.338758 1.15486,0.338758 0.72371,0 1.13946,-0.338758 0.43114,-0.354157 0.43114,-0.985479 v -2.4329 q 0,-0.631322 -0.43114,-0.97008 -0.41575,-0.354156 -1.13946,-0.354156 -0.72371,0 -1.15486,0.338758 -0.41575,0.338758 -0.41575,0.97008 z"
         style="font-style:normal;font-variant:normal;font-weight:normal;font-stretch:normal;font-family:'Rubik Mono One';-inkscape-font-specification:'Rubik Mono One';fill:#ffffff;fill-opacity:1;stroke-width:0.384954"
         id="path5248" />
      <path
         d="m 189.46061,20.004907 q 0.0308,0.06159 0.0308,0.169379 0,0.107787 -0.10779,0.215574 -0.0924,0.09239 -0.23097,0.09239 h -3.49537 q -0.46194,0 -0.64672,-0.384952 l -1.35503,-3.048824 h -1.29344 V 20.0665 q 0,0.169379 -0.12319,0.292564 -0.12318,0.123184 -0.29256,0.123184 h -3.32599 q -0.16938,0 -0.29257,-0.123184 -0.12318,-0.123185 -0.12318,-0.292564 v -9.947173 q 0,-0.169379 0.12318,-0.2925638 0.12319,-0.1231848 0.29257,-0.1231848 h 5.98986 q 2.10954,0 3.34139,1.0008766 1.23185,1.000876 1.23185,2.725464 0,2.094141 -1.61681,3.033425 z m -7.09852,-7.437282 v 1.632199 h 1.92476 q 0.33876,0 0.52353,-0.215574 0.18478,-0.230971 0.18478,-0.56973 0,-0.338758 -0.18478,-0.585127 -0.16937,-0.261768 -0.52353,-0.261768 z"
         style="font-style:normal;font-variant:normal;font-weight:normal;font-stretch:normal;font-family:'Rubik Mono One';-inkscape-font-specification:'Rubik Mono One';fill:#ffffff;fill-opacity:1;stroke-width:0.384954"
         id="path5250" />
      <path
         d="m 198.84745,9.7035784 h 3.2182 q 0.13858,0 0.23097,0.1077867 0.10779,0.092389 0.10779,0.2001749 0,0.107787 -0.0462,0.200176 l -3.88033,6.421007 V 20.0665 q 0,0.169379 -0.12318,0.292564 -0.12318,0.123184 -0.29256,0.123184 h -3.2798 q -0.16938,0 -0.29256,-0.123184 -0.12319,-0.123185 -0.12319,-0.292564 v -3.433777 l -3.86492,-6.421007 q -0.0462,-0.09239 -0.0462,-0.200176 0,-0.1077863 0.0924,-0.2001749 0.10779,-0.1077867 0.24637,-0.1077867 h 3.249 q 0.43115,0 0.63132,0.3541566 l 1.73999,3.048823 1.78618,-3.018027 q 0.23097,-0.3849526 0.64672,-0.3849526 z"
         style="font-style:normal;font-variant:normal;font-weight:normal;font-stretch:normal;font-family:'Rubik Mono One';-inkscape-font-specification:'Rubik Mono One';fill:#ffffff;fill-opacity:1;stroke-width:0.384954"
         id="path5252" />
    </g>
    <rect
       style="fill:#ff7f2a;stroke:#ff7f2a;stroke-width:10.9531;stroke-linecap:round;stroke-linejoin:round;stroke-miterlimit:4;stroke-dasharray:none"
       id="rect867"
       width="200.53754"
       height="9.779068"
       x="3.5095429"
       y="29.148985" />
    <g
       aria-label="illustrated"
       id="text847"
       style="font-style:normal;font-weight:normal;font-size:20.9827px;line-height:1.25;font-family:sans-serif;fill:#ffffff;fill-opacity:1;stroke:none;stroke-width:0.52457"
       transform="matrix(1.0539981,0,0,1.0539981,-6.2039617,-0.01758108)">
      <path
         d="m 22.044446,28.956478 h -3.797868 v 6.084983 h 3.797868 q 0.23081,0 0.398672,0.167862 0.167861,0.167861 0.167861,0.398671 v 3.168388 q 0,0.230809 -0.167861,0.398671 -0.167862,0.167862 -0.398672,0.167862 H 8.7414143 q -0.2308097,0 -0.3986713,-0.167862 -0.1678616,-0.167862 -0.1678616,-0.398671 v -3.168388 q 0,-0.23081 0.1678616,-0.398671 0.1678616,-0.167862 0.3986713,-0.167862 H 12.581248 V 28.956478 H 8.7414143 q -0.2308097,0 -0.3986713,-0.167862 -0.1678616,-0.167861 -0.1678616,-0.398671 v -3.168388 q 0,-0.230809 0.1678616,-0.398671 0.1678616,-0.167862 0.3986713,-0.167862 H 22.044446 q 0.23081,0 0.398672,0.167862 0.167861,0.167862 0.167861,0.398671 v 3.168388 q 0,0.23081 -0.167861,0.398671 -0.167862,0.167862 -0.398672,0.167862 z"
         style="font-style:normal;font-variant:normal;font-weight:normal;font-stretch:normal;font-family:'Rubik Mono One';-inkscape-font-specification:'Rubik Mono One';fill:#ffffff;fill-opacity:1;stroke-width:0.52457"
         id="path5203" />
      <path
         d="m 32.905289,35.041461 h 7.1551 q 0.23081,0 0.398672,0.167862 0.167861,0.167861 0.167861,0.398671 v 3.168388 q 0,0.230809 -0.167861,0.398671 -0.167862,0.167862 -0.398672,0.167862 H 27.806492 q -0.230809,0 -0.398671,-0.167862 Q 27.23996,39.007191 27.23996,38.776382 V 25.221557 q 0,-0.230809 0.167861,-0.398671 0.167862,-0.167862 0.398671,-0.167862 h 4.532264 q 0.230809,0 0.398671,0.167862 0.167862,0.167862 0.167862,0.398671 z"
         style="font-style:normal;font-variant:normal;font-weight:normal;font-stretch:normal;font-family:'Rubik Mono One';-inkscape-font-specification:'Rubik Mono One';fill:#ffffff;fill-opacity:1;stroke-width:0.52457"
         id="path5205" />
      <path
         d="m 50.732388,35.041461 h 7.1551 q 0.23081,0 0.398672,0.167862 0.167861,0.167861 0.167861,0.398671 v 3.168388 q 0,0.230809 -0.167861,0.398671 -0.167862,0.167862 -0.398672,0.167862 H 45.633591 q -0.230809,0 -0.398671,-0.167862 -0.167862,-0.167862 -0.167862,-0.398671 V 25.221557 q 0,-0.230809 0.167862,-0.398671 0.167862,-0.167862 0.398671,-0.167862 h 4.532264 q 0.230809,0 0.398671,0.167862 0.167862,0.167862 0.167862,0.398671 z"
         style="font-style:normal;font-variant:normal;font-weight:normal;font-stretch:normal;font-family:'Rubik Mono One';-inkscape-font-specification:'Rubik Mono One';fill:#ffffff;fill-opacity:1;stroke-width:0.52457"
         id="path5207" />
      <path
         d="m 74.455625,38.021004 q -2.056304,1.531738 -5.581398,1.531738 -3.525094,0 -5.602381,-1.531738 -2.056305,-1.531737 -2.056305,-4.784055 v -8.015392 q 0,-0.230809 0.167862,-0.398671 0.167861,-0.167862 0.398671,-0.167862 h 4.385385 q 0.230809,0 0.398671,0.167862 0.167861,0.167862 0.167861,0.398671 v 8.351115 q 0,0.860291 0.566533,1.32191 0.587516,0.46162 1.573703,0.46162 0.986187,0 1.55272,-0.46162 0.587515,-0.461619 0.587515,-1.32191 v -8.351115 q 0,-0.230809 0.167862,-0.398671 0.167861,-0.167862 0.398671,-0.167862 h 4.385385 q 0.230809,0 0.398671,0.167862 0.167861,0.167862 0.167861,0.398671 v 8.015392 q 0,3.252318 -2.077287,4.784055 z"
         style="font-style:normal;font-variant:normal;font-weight:normal;font-stretch:normal;font-family:'Rubik Mono One';-inkscape-font-specification:'Rubik Mono One';fill:#ffffff;fill-opacity:1;stroke-width:0.52457"
         id="path5209" />
      <path
         d="m 87.855374,29.98463 q 3.441163,0.398672 4.888969,1.489772 1.468789,1.070118 1.468789,3.231336 0,2.161218 -2.119252,3.504111 -2.119253,1.342893 -5.623364,1.342893 -3.504111,0 -5.455502,-1.279945 -1.930409,-1.300928 -1.930409,-3.189371 0,-0.461619 0.482603,-0.461619 h 4.301453 q 0.440637,0 0.713412,0.272775 0.587516,0.566533 2.035322,0.566533 1.993356,0 1.993356,-0.608498 0,-0.377689 -0.629481,-0.587516 -0.629481,-0.23081 -2.496941,-0.440637 -5.938104,-0.713411 -5.938104,-4.553246 0,-2.161218 1.909426,-3.483128 1.909425,-1.342893 5.098796,-1.342893 3.210353,0 5.182727,1.405841 1.972374,1.384858 1.972374,2.937578 0,0.209827 -0.146879,0.335724 -0.125896,0.125896 -0.356706,0.125896 h -4.511281 q -0.377688,0 -0.650463,-0.251793 -0.503585,-0.461619 -1.510755,-0.461619 -1.405841,0 -1.405841,0.587516 0,0.31474 0.54555,0.503584 0.545551,0.167862 2.182201,0.356706 z"
         style="font-style:normal;font-variant:normal;font-weight:normal;font-stretch:normal;font-family:'Rubik Mono One';-inkscape-font-specification:'Rubik Mono One';fill:#ffffff;fill-opacity:1;stroke-width:0.52457"
         id="path5211" />
      <path
         d="m 97.289397,24.655024 h 14.478063 q 0.23081,0 0.39867,0.167862 0.16786,0.167862 0.16786,0.398671 v 3.378215 q 0,0.23081 -0.16786,0.398671 -0.16786,0.167862 -0.39867,0.167862 h -4.51128 v 9.610077 q 0,0.230809 -0.16786,0.398671 -0.16786,0.167862 -0.39867,0.167862 h -4.32244 q -0.23081,0 -0.39867,-0.167862 -0.16786,-0.167862 -0.16786,-0.398671 v -9.610077 h -4.511283 q -0.23081,0 -0.398672,-0.167862 -0.167861,-0.167861 -0.167861,-0.398671 v -3.378215 q 0,-0.230809 0.167861,-0.398671 0.167862,-0.167862 0.398672,-0.167862 z"
         style="font-style:normal;font-variant:normal;font-weight:normal;font-stretch:normal;font-family:'Rubik Mono One';-inkscape-font-specification:'Rubik Mono One';fill:#ffffff;fill-opacity:1;stroke-width:0.52457"
         id="path5213" />
      <path
         d="m 130.68566,38.692451 q 0.042,0.08393 0.042,0.23081 0,0.146878 -0.14688,0.293757 -0.12589,0.125897 -0.31474,0.125897 h -4.76307 q -0.62948,0 -0.88127,-0.524568 l -1.84648,-4.154575 h -1.76255 v 4.11261 q 0,0.230809 -0.16786,0.398671 -0.16786,0.167862 -0.39867,0.167862 h -4.53227 q -0.23081,0 -0.39867,-0.167862 -0.16786,-0.167862 -0.16786,-0.398671 V 25.221557 q 0,-0.230809 0.16786,-0.398671 0.16786,-0.167862 0.39867,-0.167862 h 8.16227 q 2.87463,0 4.55325,1.363876 1.67862,1.363875 1.67862,3.713938 0,2.853647 -2.20319,4.133592 z m -9.67303,-10.134644 v 2.224166 h 2.62284 q 0.46162,0 0.71341,-0.293758 0.25179,-0.31474 0.25179,-0.77636 0,-0.461619 -0.25179,-0.797342 -0.23081,-0.356706 -0.71341,-0.356706 z"
         style="font-style:normal;font-variant:normal;font-weight:normal;font-stretch:normal;font-family:'Rubik Mono One';-inkscape-font-specification:'Rubik Mono One';fill:#ffffff;fill-opacity:1;stroke-width:0.52457"
         id="path5215" />
      <path
         d="m 136.21689,39.342915 h -3.96573 q -0.18885,0 -0.33573,-0.125897 -0.12589,-0.146879 -0.12589,-0.272775 0,-0.125896 0.021,-0.188844 l 4.57423,-13.407946 q 0.18884,-0.692429 0.94422,-0.692429 h 5.83319 q 0.75538,0 0.94422,0.692429 l 4.57423,13.407946 q 0.021,0.06295 0.021,0.188844 0,0.125896 -0.14687,0.272775 -0.1259,0.125897 -0.31474,0.125897 h -3.96574 q -0.67144,0 -0.94422,-0.713412 l -0.52456,-1.468789 h -5.11978 l -0.52457,1.468789 q -0.27278,0.713412 -0.94422,0.713412 z m 5.51845,-6.273828 -1.48977,-4.364401 -1.48978,4.364401 z"
         style="font-style:normal;font-variant:normal;font-weight:normal;font-stretch:normal;font-family:'Rubik Mono One';-inkscape-font-specification:'Rubik Mono One';fill:#ffffff;fill-opacity:1;stroke-width:0.52457"
         id="path5217" />
      <path
         d="m 150.77069,24.655024 h 14.47806 q 0.23081,0 0.39867,0.167862 0.16787,0.167862 0.16787,0.398671 v 3.378215 q 0,0.23081 -0.16787,0.398671 -0.16786,0.167862 -0.39867,0.167862 h -4.51128 v 9.610077 q 0,0.230809 -0.16786,0.398671 -0.16786,0.167862 -0.39867,0.167862 h -4.32244 q -0.23081,0 -0.39867,-0.167862 -0.16786,-0.167862 -0.16786,-0.398671 v -9.610077 h -4.51128 q -0.23081,0 -0.39867,-0.167862 -0.16786,-0.167861 -0.16786,-0.398671 v -3.378215 q 0,-0.230809 0.16786,-0.398671 0.16786,-0.167862 0.39867,-0.167862 z"
         style="font-style:normal;font-variant:normal;font-weight:normal;font-stretch:normal;font-family:'Rubik Mono One';-inkscape-font-specification:'Rubik Mono One';fill:#ffffff;fill-opacity:1;stroke-width:0.52457"
         id="path5219" />
      <path
         d="m 174.26312,35.251288 h 8.3721 q 0.23081,0 0.39867,0.167862 0.16786,0.167861 0.16786,0.398671 v 2.958561 q 0,0.230809 -0.16786,0.398671 -0.16786,0.167862 -0.39867,0.167862 h -13.26107 q -0.23081,0 -0.39867,-0.167862 -0.16786,-0.167862 -0.16786,-0.398671 V 25.221557 q 0,-0.230809 0.16786,-0.398671 0.16786,-0.167862 0.39867,-0.167862 h 13.05124 q 0.23081,0 0.39867,0.167862 0.16786,0.167862 0.16786,0.398671 v 2.958561 q 0,0.23081 -0.16786,0.398671 -0.16786,0.167862 -0.39867,0.167862 h -8.16227 v 1.32191 h 7.00822 q 0.23081,0 0.39867,0.167862 0.16787,0.167861 0.16787,0.398671 v 2.727751 q 0,0.23081 -0.16787,0.398671 -0.16786,0.167862 -0.39867,0.167862 h -7.00822 z"
         style="font-style:normal;font-variant:normal;font-weight:normal;font-stretch:normal;font-family:'Rubik Mono One';-inkscape-font-specification:'Rubik Mono One';fill:#ffffff;fill-opacity:1;stroke-width:0.52457"
         id="path5221" />
      <path
         d="m 186.9075,24.655024 h 6.69348 q 2.3081,0 4.00769,0.608499 1.6996,0.608498 2.74874,2.056304 1.04913,1.447807 1.04913,3.609025 v 2.140235 q 0,3.357232 -2.26613,4.888969 -2.07729,1.384859 -5.53943,1.384859 h -6.69348 q -0.23081,0 -0.39867,-0.167862 -0.16787,-0.167862 -0.16787,-0.398671 V 25.221557 q 0,-0.230809 0.16787,-0.398671 0.16786,-0.167862 0.39867,-0.167862 z m 4.88897,4.091627 v 6.504637 h 1.90942 q 0.98619,0 1.55272,-0.461619 0.58752,-0.482603 0.58752,-1.342893 v -2.895613 q 0,-0.860291 -0.58752,-1.32191 -0.56653,-0.482602 -1.55272,-0.482602 z"
         style="font-style:normal;font-variant:normal;font-weight:normal;font-stretch:normal;font-family:'Rubik Mono One';-inkscape-font-specification:'Rubik Mono One';fill:#ffffff;fill-opacity:1;stroke-width:0.52457"
         id="path5223" />
    </g>
  </g>
</svg>
