<?xml version="1.0" encoding="UTF-8" standalone="no"?>
<svg
   xmlns:ns="foo"
   xmlns:dc="http://purl.org/dc/elements/1.1/"
   xmlns:cc="http://creativecommons.org/ns#"
   xmlns:rdf="http://www.w3.org/1999/02/22-rdf-syntax-ns#"
   xmlns:svg="http://www.w3.org/2000/svg"
   xmlns="http://www.w3.org/2000/svg"
   xmlns:sodipodi="http://sodipodi.sourceforge.net/DTD/sodipodi-0.dtd"
   xmlns:inkscape="http://www.inkscape.org/namespaces/inkscape"
   width="595.3"
   height="150"
   version="1.1"
   id="svg1893"
   sodipodi:docname="arrows_one_arrow.svg"
   inkscape:version="1.0.1 (0767f8302a, 2020-10-17)">
  <metadata
     id="metadata1899">
    <rdf:RDF>
      <cc:Work
         rdf:about="">
        <dc:format>image/svg+xml</dc:format>
        <dc:type
           rdf:resource="http://purl.org/dc/dcmitype/StillImage" />
        <dc:title></dc:title>
      </cc:Work>
    </rdf:RDF>
  </metadata>
  <defs
     id="defs1897" />
  <sodipodi:namedview
     pagecolor="#ffffff"
     bordercolor="#666666"
     borderopacity="1"
     objecttolerance="10"
     gridtolerance="10"
     guidetolerance="10"
     inkscape:pageopacity="0"
     inkscape:pageshadow="2"
     inkscape:window-width="2560"
     inkscape:window-height="1376"
     id="namedview1895"
     showgrid="false"
     inkscape:snap-bbox="true"
     inkscape:snap-global="true"
     inkscape:zoom="2.3349572"
     inkscape:cx="234.09975"
     inkscape:cy="50.881862"
     inkscape:window-x="0"
     inkscape:window-y="27"
     inkscape:window-maximized="1"
     inkscape:current-layer="g1889"
     inkscape:document-rotation="0" />
  <switch
     transform="translate(0 -209)"
     id="switch1891">
    <g
       ns:extraneous="self"
       id="g1889"
       transform="translate(10.178158,5.8979328)">
      <circle
         cx="365.00427"
         cy="279.2048"
         r="22.439915"
         id="circle266-9-1"
         style="opacity:0.13;stroke:#000000;stroke-width:5.47315;stroke-miterlimit:10" />
      <circle
         cy="116.39262"
         cx="436.76218"
         stroke-miterlimit="10"
         transform="rotate(22.196)"
         r="23.96932"
         fill="#999491"
         stroke="#858585"
         stroke-width="5.84598"
         id="circle1877-2" />
      <circle
         cx="231.4711"
         cy="280.03275"
         r="22.439915"
         id="circle266-9-3-7"
         style="opacity:0.13;stroke:#000000;stroke-width:5.47315;stroke-miterlimit:10" />
      <path
         d="m 243.66303,271.4892 c 0,0 1.04732,-0.25783 2.85653,-0.64786 0.95218,-0.21643 1.9995,-0.47354 3.28578,-0.73501 1.28555,-0.26147 2.66697,-0.56506 4.28734,-0.87301 6.24182,-1.22672 14.68867,-2.4164 23.15224,-3.01269 8.46356,-0.59629 17.08836,-0.56288 23.51974,-0.17141 3.16812,0.21644 5.9019,0.32248 7.72782,0.52512 l 1.15264,0.0966 1.48891,-10.15438 c 8.22897,4.70859 15.7498,9.82537 22.32498,15.35686 -9.04896,1.9523 -17.64616,4.60837 -25.55846,7.76559 l 1.39376,-10.11371 -1.15263,-0.0966 c -1.82664,-0.20264 -4.46601,-0.35007 -7.58402,-0.48807 -6.28611,-0.35444 -14.67124,-0.3922 -22.99027,0.2404 -8.36841,0.55562 -16.57632,1.74022 -22.72372,2.92554 -1.52522,0.26655 -2.90664,0.56941 -4.19292,0.83161 -1.28555,0.26147 -2.33287,0.51858 -3.19063,0.69361 -1.80921,0.39003 -2.76139,0.60646 -2.76139,0.60646 z"
         fill="#e90909"
         stroke-width="0.21789"
         id="path1881-9"
         style="fill:#1a1a1a" />
      <circle
         cy="168.46315"
         cx="314.76355"
         stroke-miterlimit="10"
         transform="rotate(22.196)"
         r="23.96932"
         fill="#b5b5b1"
         stroke="#878578"
         stroke-width="5.84598"
         id="circle1887-0" />
    </g>
    <circle
       cx="390.29419"
       cy="297.34653"
       r="31.458786"
       id="circle266"
       style="opacity:0.13;stroke:#000000;stroke-width:7.67287;stroke-miterlimit:10"
       transform="translate(13.672047,18.04996)" />
  </switch>
</svg>
