<?xml version="1.0" encoding="UTF-8" standalone="no"?>
<svg
   xmlns:ns="foo"
   xmlns:dc="http://purl.org/dc/elements/1.1/"
   xmlns:cc="http://creativecommons.org/ns#"
   xmlns:rdf="http://www.w3.org/1999/02/22-rdf-syntax-ns#"
   xmlns:svg="http://www.w3.org/2000/svg"
   xmlns="http://www.w3.org/2000/svg"
   xmlns:sodipodi="http://sodipodi.sourceforge.net/DTD/sodipodi-0.dtd"
   xmlns:inkscape="http://www.inkscape.org/namespaces/inkscape"
   width="595.3"
   height="200"
   version="1.1"
   id="svg2850"
   sodipodi:docname="functor_programming_objects.svg"
   inkscape:version="0.92.5 (2060ec1f9f, 2020-04-08)">
  <metadata
     id="metadata2856">
    <rdf:RDF>
      <cc:Work
         rdf:about="">
        <dc:format>image/svg+xml</dc:format>
        <dc:type
           rdf:resource="http://purl.org/dc/dcmitype/StillImage" />
        <dc:title></dc:title>
      </cc:Work>
    </rdf:RDF>
  </metadata>
  <defs
     id="defs2854" />
  <sodipodi:namedview
     pagecolor="#ffffff"
     bordercolor="#666666"
     borderopacity="1"
     objecttolerance="10"
     gridtolerance="10"
     guidetolerance="10"
     inkscape:pageopacity="0"
     inkscape:pageshadow="2"
     inkscape:window-width="1440"
     inkscape:window-height="2496"
     id="namedview2852"
     showgrid="false"
     inkscape:zoom="1.9283913"
     inkscape:cx="215.01887"
     inkscape:cy="100.74849"
     inkscape:window-x="0"
     inkscape:window-y="27"
     inkscape:window-maximized="1"
     inkscape:current-layer="switch2848"
     inkscape:document-rotation="0" />
  <switch
     transform="translate(0 -159)"
     id="switch2848">
    <g
       ns:extraneous="self"
       id="g2846"
       transform="translate(3.5669904,3.3024829)">
      <path
         d="m 233.90488,242.24453 c 0,0 1.41544,-0.39525 3.86203,-0.99497 1.28716,-0.33166 2.70259,-0.7269 4.44092,-1.12928 1.73887,-0.40237 3.60547,-0.86779 5.79605,-1.34088 8.4378,-1.88359 19.85667,-3.71127 31.29803,-4.62676 11.4408,-0.91658 23.10088,-0.8656 31.79414,-0.26368 4.28303,0.33221 7.97841,0.49502 10.44747,0.80585 l 1.55796,0.14911 2.01242,-15.59721 c 11.12395,7.23177 21.29185,15.09177 30.17916,23.58768 -12.23184,2.99916 -23.85409,7.07882 -34.551,11.92814 l 1.88469,-15.53416 -1.55797,-0.14801 c -2.46906,-0.31138 -6.03671,-0.53778 -10.25176,-0.75048 -8.49811,-0.5449 -19.83365,-0.60301 -31.0793,0.36948 -11.31308,0.85299 -22.40852,2.673 -30.71859,4.49354 -2.0623,0.40896 -3.9289,0.87492 -5.66832,1.2773 -1.73832,0.40183 -3.15376,0.79707 -4.31264,1.06514 -2.44658,0.60027 -3.73319,0.93193 -3.73319,0.93193 z"
         fill="#9d539f"
         stroke-width="0.164458"
         id="path2810" />
      <path
         d="m 223.47659,263.94971 c 0,0 1.51192,-0.37167 4.12516,-0.93576 1.37487,-0.31192 2.88679,-0.68305 4.74407,-1.06131 1.85783,-0.37825 3.85161,-0.81626 6.19185,-1.26084 9.0134,-1.77067 21.21126,-3.48871 33.43324,-4.34992 12.22198,-0.86121 24.67694,-0.81351 33.96334,-0.24778 4.57523,0.31247 8.52332,0.46597 11.16068,0.75815 l 1.66431,0.13979 2.14948,-14.66418 c 11.88264,6.7998 22.74455,14.18944 32.23872,22.17663 -13.06675,2.81936 -25.48224,6.65507 -36.90879,11.21385 l 2.01297,-14.60389 -1.66432,-0.13978 c -2.63681,-0.29219 -6.4484,-0.50543 -10.95127,-0.70498 -9.07753,-0.51256 -21.18659,-0.56738 -33.1997,0.347 -12.08494,0.80201 -23.93689,2.51292 -32.81433,4.22439 -2.20319,0.38483 -4.19697,0.82229 -6.05481,1.20054 -1.85727,0.37825 -3.36919,0.74993 -4.60756,1.0021 a 436.03056,436.03056 0 0 0 -3.98811,0.87547 z"
         fill="#e90909"
         stroke-width="0.164458"
         id="path2812" />
      <path
         style="opacity:0.12999998;stroke:#000000;stroke-width:11.14949989;stroke-miterlimit:10"
         d="m 449.84894,270.74164 a 45.712955,45.712955 0 0 1 -45.71295,45.71295 45.712955,45.712955 0 0 1 -45.71296,-45.71295 45.712955,45.712955 0 0 1 45.71296,-45.71296 45.712955,45.712955 0 0 1 45.71295,45.71296 z"
         id="circle268" />
      <path
         d="m 219.16286,302.04918 c 0,0 1.62484,0.4073 4.43379,1.02458 1.47793,0.34097 3.10278,0.74827 5.0993,1.16216 1.99652,0.41334 4.13996,0.89246 6.65507,1.37816 9.68768,1.93622 22.79499,3.80447 35.92533,4.72653 13.13034,0.92206 26.50736,0.83764 36.4801,0.18858 4.91291,-0.35687 9.15264,-0.53668 11.98407,-0.86615 l 1.78711,-0.15898 2.36161,16.21174 c 12.73893,-7.54918 24.37818,-15.74961 34.54717,-24.60678 -14.04472,-3.08523 -27.39324,-7.29535 -39.68265,-12.30859 l 2.21471,16.14595 -1.78711,0.15898 c -2.83198,0.32946 -6.92479,0.57451 -11.75986,0.80694 -9.74852,0.58931 -22.75442,0.6803 -35.66,-0.30041 -12.98342,-0.85628 -25.72015,-2.71904 -35.26092,-4.58948 -2.36765,-0.41991 -4.51108,-0.89903 -6.50705,-1.31237 -1.99707,-0.41389 -3.62192,-0.82065 -4.95294,-1.09639 -2.80894,-0.61726 -4.28687,-0.95824 -4.28687,-0.95824 z"
         fill="#0e2db8"
         stroke-width="0.164458"
         id="path2814" />
      <path
         d="m 233.82814,286.49693 c 0,0 1.41159,0.25874 3.84229,0.61945 1.28058,0.20667 2.69163,0.46542 4.41679,0.69676 1.72517,0.23188 3.5808,0.5153 5.75001,0.77295 8.3627,1.05417 19.59902,1.73777 30.75531,1.48012 11.15574,-0.25765 22.41454,-1.53384 30.74655,-3.0655 4.10048,-0.79214 7.65278,-1.348 10.00289,-1.92745 l 1.48889,-0.3163 3.68934,15.85212 c 9.93766,-8.61542 18.88089,-17.77793 26.51723,-27.46067 -12.15345,-1.80466 -23.83821,-4.78629 -34.71492,-8.65763 l 3.55888,15.80004 -1.4889,0.31686 c -2.35011,0.57944 -5.77193,1.18684 -9.82034,1.84796 -8.1489,1.45326 -19.09414,2.70314 -30.06733,2.88185 -11.02528,0.30918 -21.94858,-0.40072 -30.1808,-1.40337 -2.03819,-0.20502 -3.89382,-0.48899 -5.61899,-0.72033 -1.72462,-0.23189 -3.13567,-0.49009 -4.28578,-0.64467 -2.43069,-0.36127 -3.71127,-0.56739 -3.71127,-0.56739 z"
         fill="#04bd3d"
         stroke-width="0.164458"
         id="path2816" />
      <path
         style="opacity:0.12999998;stroke:#000000;stroke-width:11.14949989;stroke-miterlimit:10"
         d="m 245.75791,270.79187 a 45.712955,45.712955 0 0 1 -45.71296,45.71296 45.712955,45.712955 0 0 1 -45.71295,-45.71296 45.712955,45.712955 0 0 1 45.71295,-45.71296 45.712955,45.712955 0 0 1 45.71296,45.71296 z"
         id="circle268-6" />
      <path
         transform="rotate(22.196)"
         style="fill:#dbdb8b;stroke:#878578;stroke-width:5.78015995;stroke-miterlimit:10"
         d="m 329.7359,173.33594 a 49.132961,49.132961 0 0 1 -49.13296,49.13296 49.132961,49.132961 0 0 1 -49.13297,-49.13296 49.132961,49.132961 0 0 1 49.13297,-49.13296 49.132961,49.132961 0 0 1 49.13296,49.13296 z"
         id="circle2818" />
      <g
         aria-label="isEven"
         transform="rotate(-4.889)"
         style="font-weight:700;font-size:14.61870003px;line-height:1.25;font-family:sans-serif;-inkscape-font-specification:'sans-serif, Bold';font-variant-ligatures:normal;font-variant-caps:normal;font-variant-numeric:normal;font-feature-settings:normal;text-align:start;letter-spacing:0;word-spacing:0;fill:#9d539f;stroke-width:0.54819399"
         id="text2822">
        <path
           d="m 233.23479,249.28354 h 2.55542 v 7.9946 h -2.55542 z m 0,-3.11219 h 2.55542 v 2.08431 h -2.55542 z"
           style="stroke-width:0.54819399"
           id="path137070" />
        <path
           d="m 244.49148,249.53337 v 1.94154 q -0.82088,-0.34262 -1.58465,-0.51394 -0.76377,-0.17131 -1.44188,-0.17131 -0.72808,0 -1.08498,0.18559 -0.34977,0.17845 -0.34977,0.55677 0,0.30693 0.26411,0.47111 0.27125,0.16417 0.96364,0.24269 l 0.44969,0.0642 q 1.96296,0.24983 2.64108,0.82088 0.67811,0.57104 0.67811,1.79164 0,1.27771 -0.94222,1.92014 -0.94222,0.64242 -2.81239,0.64242 -0.79232,0 -1.64175,-0.12848 -0.84229,-0.12135 -1.73454,-0.37118 v -1.94155 q 0.76377,0.37118 1.56323,0.55677 0.8066,0.18559 1.63461,0.18559 0.74949,0 1.12781,-0.20701 0.37832,-0.207 0.37832,-0.61387 0,-0.34262 -0.26411,-0.5068 -0.25697,-0.17131 -1.03502,-0.2641 l -0.44969,-0.0571 q -1.70599,-0.21414 -2.39125,-0.79232 -0.68525,-0.57818 -0.68525,-1.75596 0,-1.27057 0.87084,-1.88444 0.87084,-0.61387 2.66963,-0.61387 0.70667,0 1.48471,0.10707 0.77805,0.10707 1.69172,0.33549 z"
           style="stroke-width:0.54819399"
           id="path137072" />
        <path
           d="m 247.06117,246.62105 h 7.41642 v 2.07717 h -4.66828 v 1.98437 h 4.3899 v 2.07717 h -4.3899 v 2.44121 h 4.82532 v 2.07717 h -7.57346 z"
           style="stroke-width:0.54819399"
           id="path137074" />
        <path
           d="m 255.92661,249.28354 h 2.55542 l 1.99151,5.52484 1.98437,-5.52484 h 2.56256 l -3.14787,7.9946 h -2.80525 z"
           style="stroke-width:0.54819399"
           id="path137076" />
        <path
           d="m 274.44268,253.25942 v 0.72808 h -5.97454 q 0.0928,0.89939 0.64956,1.34909 0.55677,0.4497 1.5561,0.4497 0.80659,0 1.64888,-0.23556 0.84943,-0.24269 1.74168,-0.72808 v 1.9701 q -0.90653,0.34263 -1.81306,0.51394 -0.90653,0.17845 -1.81306,0.17845 -2.16996,0 -3.37629,-1.09926 -1.19919,-1.10639 -1.19919,-3.09791 0,-1.95582 1.17777,-3.07649 1.18492,-1.12067 3.25495,-1.12067 1.88444,0 3.01225,1.13495 1.13495,1.13494 1.13495,3.03366 z m -2.6268,-0.84942 q 0,-0.72808 -0.42828,-1.17064 -0.42114,-0.4497 -1.1064,-0.4497 -0.74235,0 -1.20632,0.42115 -0.46398,0.414 -0.57819,1.19919 z"
           style="stroke-width:0.54819399"
           id="path137078" />
        <path
           d="m 284.41452,252.41 v 4.86814 h -2.5697 v -0.79232 -2.93374 q 0,-1.03501 -0.05,-1.42761 -0.0428,-0.39259 -0.15704,-0.57818 -0.1499,-0.24983 -0.40687,-0.38545 -0.25697,-0.14276 -0.58532,-0.14276 -0.79946,0 -1.25629,0.62101 -0.45683,0.61387 -0.45683,1.70599 v 3.93306 h -2.55542 v -7.9946 h 2.55542 v 1.17063 q 0.57818,-0.69952 1.22774,-1.02787 0.64956,-0.33549 1.43474,-0.33549 1.38478,0 2.09859,0.84943 0.72094,0.84942 0.72094,2.46976 z"
           style="stroke-width:0.54819399"
           id="path137080" />
      </g>
      <g
         aria-label="isOdd"
         transform="rotate(-4.227)"
         style="font-weight:700;font-size:14.61870003px;line-height:1.25;font-family:sans-serif;-inkscape-font-specification:'sans-serif, Bold';font-variant-ligatures:normal;font-variant-caps:normal;font-variant-numeric:normal;font-feature-settings:normal;text-align:start;letter-spacing:0;word-spacing:0;fill:#e90909;stroke-width:0.54819399"
         id="text2826">
        <path
           d="m 233.16953,267.38287 h 2.55542 v 7.9946 h -2.55542 z m 0,-3.11218 h 2.55542 v 2.0843 h -2.55542 z"
           style="stroke-width:0.54819399"
           id="path137083" />
        <path
           d="m 244.42621,267.6327 v 1.94155 q -0.82087,-0.34263 -1.58464,-0.51394 -0.76377,-0.17131 -1.44188,-0.17131 -0.72808,0 -1.08498,0.18559 -0.34977,0.17845 -0.34977,0.55676 0,0.30694 0.26411,0.47111 0.27124,0.16418 0.96363,0.2427 l 0.4497,0.0642 q 1.96296,0.24983 2.64107,0.82087 0.67812,0.57105 0.67812,1.79165 0,1.27771 -0.94222,1.92013 -0.94222,0.64243 -2.81239,0.64243 -0.79232,0 -1.64175,-0.12849 -0.84229,-0.12135 -1.73454,-0.37118 v -1.94154 q 0.76377,0.37117 1.56323,0.55676 0.8066,0.18559 1.63461,0.18559 0.74949,0 1.12781,-0.207 0.37831,-0.207 0.37831,-0.61387 0,-0.34263 -0.2641,-0.5068 -0.25697,-0.17132 -1.03502,-0.26411 l -0.44969,-0.0571 q -1.706,-0.21415 -2.39125,-0.79233 -0.68525,-0.57818 -0.68525,-1.75595 0,-1.27057 0.87084,-1.88445 0.87084,-0.61387 2.66963,-0.61387 0.70666,0 1.48471,0.10707 0.77805,0.10707 1.69171,0.33549 z"
           style="stroke-width:0.54819399"
           id="path137085" />
        <path
           d="m 251.86405,266.51917 q -1.25629,0 -1.94868,0.92794 -0.69239,0.92795 -0.69239,2.61252 0,1.67744 0.69239,2.60539 0.69239,0.92794 1.94868,0.92794 1.26343,0 1.95582,-0.92794 0.69239,-0.92795 0.69239,-2.60539 0,-1.68457 -0.69239,-2.61252 -0.69239,-0.92794 -1.95582,-0.92794 z m 0,-1.99151 q 2.56969,0 4.02585,1.47043 1.45616,1.47044 1.45616,4.06154 0,2.58397 -1.45616,4.05441 -1.45616,1.47044 -4.02585,1.47044 -2.56256,0 -4.02585,-1.47044 -1.45616,-1.47044 -1.45616,-4.05441 0,-2.5911 1.45616,-4.06154 1.46329,-1.47043 4.02585,-1.47043 z"
           style="stroke-width:0.54819399"
           id="path137087" />
        <path
           d="m 264.74821,268.55351 v -4.28282 h 2.56969 v 11.10678 h -2.56969 v -1.15636 q -0.52822,0.70667 -1.1635,1.03502 -0.63529,0.32835 -1.47044,0.32835 -1.47757,0 -2.42693,-1.17064 -0.94936,-1.17778 -0.94936,-3.02653 0,-1.84875 0.94936,-3.01939 0.94936,-1.17778 2.42693,-1.17778 0.82801,0 1.4633,0.33549 0.64242,0.32835 1.17064,1.02788 z m -1.68458,5.17508 q 0.82087,0 1.24916,-0.5996 0.43542,-0.59959 0.43542,-1.74168 0,-1.14209 -0.43542,-1.74168 -0.42829,-0.5996 -1.24916,-0.5996 -0.81374,0 -1.24916,0.5996 -0.42828,0.59959 -0.42828,1.74168 0,1.14209 0.42828,1.74168 0.43542,0.5996 1.24916,0.5996 z"
           style="stroke-width:0.54819399"
           id="path137089" />
        <path
           d="m 275.21257,268.55351 v -4.28282 h 2.56969 v 11.10678 h -2.56969 v -1.15636 q -0.52822,0.70667 -1.1635,1.03502 -0.63529,0.32835 -1.47044,0.32835 -1.47757,0 -2.42693,-1.17064 -0.94936,-1.17778 -0.94936,-3.02653 0,-1.84875 0.94936,-3.01939 0.94936,-1.17778 2.42693,-1.17778 0.82802,0 1.4633,0.33549 0.64242,0.32835 1.17064,1.02788 z m -1.68458,5.17508 q 0.82088,0 1.24916,-0.5996 0.43542,-0.59959 0.43542,-1.74168 0,-1.14209 -0.43542,-1.74168 -0.42828,-0.5996 -1.24916,-0.5996 -0.81373,0 -1.24915,0.5996 -0.42829,0.59959 -0.42829,1.74168 0,1.14209 0.42829,1.74168 0.43542,0.5996 1.24915,0.5996 z"
           style="stroke-width:0.54819399"
           id="path137091" />
      </g>
      <g
         aria-label="isPrime"
         transform="rotate(-2.197)"
         style="font-weight:700;font-size:14.61870003px;line-height:1.25;font-family:sans-serif;-inkscape-font-specification:'sans-serif, Bold';font-variant-ligatures:normal;font-variant-caps:normal;font-variant-numeric:normal;font-feature-settings:normal;text-align:start;letter-spacing:0;word-spacing:0;fill:#04bd3d;stroke-width:0.54819399"
         id="text2830">
        <path
           d="m 241.26742,286.88537 h 2.55541 v 7.9946 h -2.55541 z m 0,-3.11218 h 2.55541 v 2.08431 h -2.55541 z"
           style="stroke-width:0.54819399"
           id="path137094" />
        <path
           d="m 252.5241,287.1352 v 1.94155 q -0.82087,-0.34263 -1.58464,-0.51394 -0.76377,-0.17131 -1.44189,-0.17131 -0.72808,0 -1.08498,0.18559 -0.34976,0.17845 -0.34976,0.55676 0,0.30694 0.2641,0.47111 0.27125,0.16418 0.96364,0.2427 l 0.4497,0.0642 q 1.96296,0.24983 2.64107,0.82087 0.67811,0.57105 0.67811,1.79165 0,1.27771 -0.94222,1.92013 -0.94222,0.64243 -2.81239,0.64243 -0.79232,0 -1.64174,-0.12849 -0.84229,-0.12134 -1.73455,-0.37118 v -1.94154 q 0.76377,0.37118 1.56323,0.55677 0.8066,0.18558 1.63461,0.18558 0.7495,0 1.12781,-0.207 0.37832,-0.207 0.37832,-0.61387 0,-0.34263 -0.26411,-0.5068 -0.25697,-0.17131 -1.03501,-0.26411 l -0.4497,-0.0571 q -1.70599,-0.21414 -2.39124,-0.79232 -0.68525,-0.57819 -0.68525,-1.75596 0,-1.27057 0.87084,-1.88444 0.87084,-0.61387 2.66962,-0.61387 0.70667,0 1.48471,0.10707 0.77805,0.10707 1.69172,0.33548 z"
           style="stroke-width:0.54819399"
           id="path137096" />
        <path
           d="m 255.09379,284.22288 h 4.56121 q 2.03434,0 3.11932,0.90654 1.09212,0.89939 1.09212,2.56969 0,1.67744 -1.09212,2.58397 -1.08498,0.89939 -3.11932,0.89939 h -1.81306 v 3.6975 h -2.74815 z m 2.74815,1.99152 v 2.97656 h 1.5204 q 0.79946,0 1.23488,-0.38546 0.43542,-0.39259 0.43542,-1.10639 0,-0.7138 -0.43542,-1.09926 -0.43542,-0.38545 -1.23488,-0.38545 z"
           style="stroke-width:0.54819399"
           id="path137098" />
        <path
           d="m 271.63263,289.06247 q -0.33549,-0.15703 -0.67098,-0.22841 -0.32835,-0.0785 -0.66384,-0.0785 -0.98505,0 -1.5204,0.63528 -0.52821,0.62815 -0.52821,1.80593 v 3.68322 h -2.55542 v -7.9946 h 2.55542 v 1.3134 q 0.49252,-0.78518 1.12781,-1.14208 0.64242,-0.36404 1.53467,-0.36404 0.12849,0 0.27839,0.0143 0.1499,0.007 0.43542,0.0428 z"
           style="stroke-width:0.54819399"
           id="path137100" />
        <path
           d="m 272.9032,286.88537 h 2.55541 v 7.9946 h -2.55541 z m 0,-3.11218 h 2.55541 v 2.08431 h -2.55541 z"
           style="stroke-width:0.54819399"
           id="path137102" />
        <path
           d="m 285.32338,288.21305 q 0.48539,-0.74236 1.14922,-1.12781 0.67098,-0.39259 1.47044,-0.39259 1.37764,0 2.09858,0.84942 0.72094,0.84943 0.72094,2.46976 v 4.86814 h -2.56969 v -4.16861 q 0.007,-0.0928 0.007,-0.19273 0.007,-0.0999 0.007,-0.28552 0,-0.84942 -0.24983,-1.22774 -0.24984,-0.38545 -0.8066,-0.38545 -0.72808,0 -1.12781,0.59959 -0.39259,0.5996 -0.40687,1.73454 v 3.92592 h -2.56969 v -4.16861 q 0,-1.32767 -0.22842,-1.70599 -0.22842,-0.38545 -0.81374,-0.38545 -0.73521,0 -1.13494,0.60673 -0.39973,0.59959 -0.39973,1.72027 v 3.93305 h -2.5697 v -7.9946 h 2.5697 v 1.17064 q 0.47111,-0.67811 1.07784,-1.02074 0.61387,-0.34262 1.34909,-0.34262 0.82801,0 1.4633,0.39973 0.63528,0.39973 0.96363,1.12067 z"
           style="stroke-width:0.54819399"
           id="path137104" />
        <path
           d="m 301.12699,290.86126 v 0.72808 h -5.97453 q 0.0928,0.89939 0.64956,1.34909 0.55677,0.44969 1.55609,0.44969 0.8066,0 1.64889,-0.23555 0.84942,-0.24269 1.74168,-0.72808 v 1.9701 q -0.90653,0.34262 -1.81306,0.51394 -0.90653,0.17845 -1.81306,0.17845 -2.16997,0 -3.3763,-1.09926 -1.19919,-1.1064 -1.19919,-3.09791 0,-1.95582 1.17778,-3.07649 1.18491,-1.12067 3.25494,-1.12067 1.88445,0 3.01226,1.13494 1.13494,1.13495 1.13494,3.03367 z m -2.62679,-0.84943 q 0,-0.72808 -0.42829,-1.17064 -0.42114,-0.44969 -1.10639,-0.44969 -0.74236,0 -1.20633,0.42114 -0.46397,0.41401 -0.57818,1.19919 z"
           style="stroke-width:0.54819399"
           id="path137106" />
      </g>
      <g
         aria-label="&gt;0"
         transform="rotate(0.662)"
         style="font-weight:700;font-size:14.61870003px;line-height:1.25;font-family:sans-serif;-inkscape-font-specification:'sans-serif, Bold';font-variant-ligatures:normal;font-variant-caps:normal;font-variant-numeric:normal;font-feature-settings:normal;text-align:start;letter-spacing:0;word-spacing:0;fill:#0e2db8;stroke-width:0.54819399"
         id="text2834">
        <path
           d="m 277.50721,295.55655 v -1.78451 l 9.15096,3.30491 v 1.68458 l -9.15096,3.30491 v -1.78451 l 6.8882,-2.35555 z"
           style="stroke-width:0.54819399"
           id="path137109" />
        <path
           d="m 294.93115,297.16261 q 0,-1.99865 -0.37831,-2.81239 -0.37118,-0.82087 -1.2563,-0.82087 -0.88511,0 -1.26343,0.82087 -0.37831,0.81374 -0.37831,2.81239 0,2.02006 0.37831,2.84808 0.37832,0.82801 1.26343,0.82801 0.87798,0 1.2563,-0.82801 0.37831,-0.82802 0.37831,-2.84808 z m 2.74815,0.0214 q 0,2.64822 -1.14209,4.0901 -1.14208,1.43474 -3.24067,1.43474 -2.10572,0 -3.2478,-1.43474 -1.14209,-1.44188 -1.14209,-4.0901 0,-2.65535 1.14209,-4.09009 1.14208,-1.44188 3.2478,-1.44188 2.09859,0 3.24067,1.44188 1.14209,1.43474 1.14209,4.09009 z"
           style="stroke-width:0.54819399"
           id="path137111" />
      </g>
      <g
         aria-label="number"
         transform="rotate(0.221)"
         style="font-weight:700;font-size:16.61470032px;line-height:1.25;font-family:sans-serif;-inkscape-font-specification:'sans-serif, Bold';font-variant-ligatures:normal;font-variant-caps:normal;font-variant-numeric:normal;font-feature-settings:normal;text-align:start;letter-spacing:0;word-spacing:0;fill:#9d539f;stroke-width:0.62329602"
         id="text2840">
        <path
           d="m 169.18357,264.69096 v 5.53283 h -2.92056 v -0.90051 -3.3343 q 0,-1.17633 -0.0568,-1.62253 -0.0487,-0.44619 -0.17847,-0.65712 -0.17037,-0.28394 -0.46242,-0.43808 -0.29206,-0.16226 -0.66524,-0.16226 -0.90862,0 -1.42783,0.7058 -0.51921,0.69769 -0.51921,1.93893 v 4.47007 h -2.90432 v -9.08617 h 2.90432 v 1.33048 q 0.65713,-0.79504 1.39538,-1.16823 0.73825,-0.38129 1.63064,-0.38129 1.57385,0 2.38512,0.9654 0.81938,0.96541 0.81938,2.80698 z"
           style="fill:#797979;stroke-width:0.4138"
           id="path137114" />
        <path
           d="m 171.77961,266.68667 v -5.54905 h 2.92056 v 0.90862 q 0,0.73825 -0.008,1.85779 -0.008,1.11144 -0.008,1.48462 0,1.09521 0.0568,1.58196 0.0568,0.47865 0.1947,0.69769 0.17848,0.28394 0.46242,0.43808 0.29206,0.15414 0.66524,0.15414 0.90862,0 1.42783,-0.69768 0.51921,-0.69769 0.51921,-1.93893 v -4.48629 h 2.90432 v 9.08617 h -2.90432 v -1.31425 q -0.65713,0.79504 -1.39538,1.17633 -0.73014,0.37318 -1.61442,0.37318 -1.57385,0 -2.40134,-0.9654 -0.81938,-0.96541 -0.81938,-2.80698 z"
           style="fill:#797979;stroke-width:0.4138"
           id="path137116" />
        <path
           d="m 192.12613,262.64657 q 0.55166,-0.84371 1.30614,-1.28179 0.76259,-0.4462 1.6712,-0.4462 1.56574,0 2.38512,0.9654 0.81938,0.96541 0.81938,2.80698 v 5.53283 h -2.92056 V 265.486 q 0.008,-0.10546 0.008,-0.21904 0.008,-0.11358 0.008,-0.32451 0,-0.9654 -0.28394,-1.39537 -0.28395,-0.43809 -0.91673,-0.43809 -0.82749,0 -1.2818,0.68147 -0.4462,0.68146 -0.46242,1.97137 v 4.46196 H 189.5382 V 265.486 q 0,-1.50895 -0.25961,-1.93892 -0.2596,-0.43809 -0.92484,-0.43809 -0.8356,0 -1.28991,0.68958 -0.45431,0.68146 -0.45431,1.95515 v 4.47007 h -2.92055 v -9.08617 h 2.92055 v 1.33048 q 0.53544,-0.77071 1.22501,-1.16011 0.69769,-0.38941 1.53329,-0.38941 0.94107,0 1.66309,0.45431 0.72203,0.45431 1.09521,1.27368 z"
           style="fill:#797979;stroke-width:0.4138"
           id="path137118" />
        <path
           d="m 205.85273,268.34976 q 0.93295,0 1.41971,-0.68146 0.49487,-0.68146 0.49487,-1.97948 0,-1.29803 -0.49487,-1.97949 -0.48676,-0.68146 -1.41971,-0.68146 -0.93296,0 -1.43594,0.68957 -0.49487,0.68147 -0.49487,1.97138 0,1.28991 0.49487,1.97948 0.50298,0.68146 1.43594,0.68146 z m -1.93081,-5.88166 q 0.60033,-0.79504 1.33047,-1.16823 0.73014,-0.38129 1.67932,-0.38129 1.67932,0 2.7583,1.33859 1.07898,1.33047 1.07898,3.43165 0,2.10117 -1.07898,3.43976 -1.07898,1.33047 -2.7583,1.33047 -0.94918,0 -1.67932,-0.37318 -0.73014,-0.38129 -1.33047,-1.17633 v 1.31425 h -2.90433 v -12.62328 h 2.90433 z"
           style="fill:#797979;stroke-width:0.4138"
           id="path137120" />
        <path
           d="m 221.98067,265.65637 v 0.82749 h -6.79029 q 0.10547,1.02219 0.73825,1.53329 0.63279,0.51109 1.76856,0.51109 0.91673,0 1.87402,-0.26772 0.96541,-0.27583 1.97949,-0.82749 v 2.2391 q -1.03031,0.3894 -2.06061,0.58411 -1.03031,0.20281 -2.06062,0.20281 -2.46624,0 -3.83728,-1.24935 -1.36292,-1.25746 -1.36292,-3.52088 0,-2.22287 1.33858,-3.49655 1.3467,-1.27369 3.69937,-1.27369 2.14174,0 3.42354,1.28991 1.28991,1.28991 1.28991,3.44788 z m -2.98546,-0.96541 q 0,-0.82749 -0.48675,-1.33047 -0.47865,-0.5111 -1.25746,-0.5111 -0.84372,0 -1.37104,0.47865 -0.52732,0.47053 -0.65713,1.36292 z"
           style="fill:#797979;stroke-width:0.4138"
           id="path137122" />
        <path
           d="m 230.92892,263.61198 q -0.3813,-0.17848 -0.76259,-0.25961 -0.37318,-0.0892 -0.75448,-0.0892 -1.11954,0 -1.72799,0.72203 -0.60034,0.71391 -0.60034,2.0525 v 4.18613 h -2.90432 v -9.08617 h 2.90432 v 1.49273 q 0.55978,-0.89239 1.2818,-1.29803 0.73014,-0.41374 1.74422,-0.41374 0.14603,0 0.31639,0.0162 0.17037,0.008 0.49488,0.0487 z"
           style="fill:#797979;stroke-width:0.4138"
           id="path137124" />
      </g>
      <g
         aria-label="toBit"
         transform="rotate(5.4347187)"
         style="font-weight:700;font-size:14.61870003px;line-height:1.25;font-family:sans-serif;-inkscape-font-specification:'sans-serif, Bold';font-variant-ligatures:normal;font-variant-caps:normal;font-variant-numeric:normal;font-feature-settings:normal;text-align:start;letter-spacing:0;word-spacing:0;fill:#d45500;stroke-width:0.54819399"
         id="text2822-2">
        <path
           d="m 315.72227,147.35361 v 2.26989 h 2.63393 v 1.82734 h -2.63393 v 3.39057 q 0,0.55676 0.22128,0.75663 0.22128,0.19273 0.87797,0.19273 h 1.3134 v 1.82733 h -2.19137 q -1.51327,0 -2.14855,-0.62814 -0.62815,-0.63529 -0.62815,-2.14855 v -3.39057 h -1.27057 v -1.82734 h 1.27057 v -2.26989 z"
           style="fill:#d45500;stroke-width:0.54819399"
           id="path137127" />
        <path
           d="m 323.72401,151.25811 q -0.84943,0 -1.29913,0.61387 -0.44255,0.60674 -0.44255,1.75596 0,1.14922 0.44255,1.7631 0.4497,0.60673 1.29913,0.60673 0.83515,0 1.27771,-0.60673 0.44255,-0.61388 0.44255,-1.7631 0,-1.14922 -0.44255,-1.75596 -0.44256,-0.61387 -1.27771,-0.61387 z m 0,-1.82734 q 2.06289,0 3.21925,1.11354 1.1635,1.11353 1.1635,3.08363 0,1.9701 -1.1635,3.08363 -1.15636,1.11354 -3.21925,1.11354 -2.07003,0 -3.24067,-1.11354 -1.1635,-1.11353 -1.1635,-3.08363 0,-1.9701 1.1635,-3.08363 1.17064,-1.11354 3.24067,-1.11354 z"
           style="fill:#d45500;stroke-width:0.54819399"
           id="path137129" />
        <path
           d="m 334.34541,151.0868 q 0.64956,0 0.98505,-0.28552 0.33548,-0.28552 0.33548,-0.84229 0,-0.54963 -0.33548,-0.83515 -0.33549,-0.29266 -0.98505,-0.29266 H 332.825 v 2.25562 z m 0.0928,4.66114 q 0.82801,0 1.24202,-0.34977 0.42114,-0.34976 0.42114,-1.05643 0,-0.69239 -0.414,-1.03501 -0.41401,-0.34977 -1.24916,-0.34977 h -1.6132 v 2.79098 z m 2.55542,-3.83313 q 0.88511,0.25697 1.3705,0.94936 0.48539,0.69239 0.48539,1.69885 0,1.54182 -1.04216,2.29845 -1.04215,0.75663 -3.16928,0.75663 h -4.56121 v -10.65709 h 4.12579 q 2.21993,0 3.21211,0.67098 0.99933,0.67097 0.99933,2.14855 0,0.77804 -0.36404,1.32767 -0.36404,0.54249 -1.05643,0.8066 z"
           style="fill:#d45500;stroke-width:0.54819399"
           id="path137131" />
        <path
           d="m 341.10513,149.6235 h 2.55541 v 7.9946 h -2.55541 z m 0,-3.11218 h 2.55541 v 2.0843 h -2.55541 z"
           style="fill:#d45500;stroke-width:0.54819399"
           id="path137133" />
        <path
           d="m 348.907,147.35361 v 2.26989 h 2.63394 v 1.82734 H 348.907 v 3.39057 q 0,0.55676 0.22128,0.75663 0.22128,0.19273 0.87798,0.19273 h 1.3134 v 1.82733 h -2.19138 q -1.51326,0 -2.14855,-0.62814 -0.62815,-0.63529 -0.62815,-2.14855 v -3.39057 h -1.27057 v -1.82734 h 1.27057 v -2.26989 z"
           style="fill:#d45500;stroke-width:0.54819399"
           id="path137135" />
      </g>
      <path
         transform="rotate(22.196)"
         style="fill:#d9d98d;stroke:#878578;stroke-width:5.78015995;stroke-miterlimit:10"
         d="M 520.71887,96.078194 A 49.132961,49.132961 0 0 1 471.58591,145.21115 49.132961,49.132961 0 0 1 422.45295,96.078194 49.132961,49.132961 0 0 1 471.58591,46.945232 49.132961,49.132961 0 0 1 520.71887,96.078194 Z"
         id="circle2836" />
      <g
         aria-label="boolean"
         transform="rotate(0.221)"
         style="font-weight:700;font-size:16.61470032px;line-height:1.25;font-family:sans-serif;-inkscape-font-specification:'sans-serif, Bold';font-variant-ligatures:normal;font-variant-caps:normal;font-variant-numeric:normal;font-feature-settings:normal;text-align:start;letter-spacing:0;word-spacing:0;fill:#9d539f;stroke-width:0.62329602"
         id="text2844">
        <path
           d="m 371.10518,268.07782 q 0.93295,0 1.41971,-0.68146 0.49487,-0.68146 0.49487,-1.97949 0,-1.29802 -0.49487,-1.97948 -0.48676,-0.68146 -1.41971,-0.68146 -0.93296,0 -1.43594,0.68957 -0.49487,0.68146 -0.49487,1.97137 0,1.28991 0.49487,1.97949 0.50298,0.68146 1.43594,0.68146 z m -1.93081,-5.88167 q 0.60033,-0.79504 1.33047,-1.16822 0.73014,-0.38129 1.67932,-0.38129 1.67932,0 2.7583,1.33858 1.07898,1.33048 1.07898,3.43165 0,2.10118 -1.07898,3.43977 -1.07898,1.33047 -2.7583,1.33047 -0.94918,0 -1.67932,-0.37318 -0.73014,-0.3813 -1.33047,-1.17634 v 1.31425 h -2.90433 v -12.62327 h 2.90433 z"
           style="fill:#797979;stroke-width:0.4138"
           id="path137139" />
        <path
           d="m 382.48722,262.72348 q -0.9654,0 -1.4765,0.69768 -0.50299,0.68958 -0.50299,1.99571 0,1.30614 0.50299,2.00383 0.5111,0.68957 1.4765,0.68957 0.94918,0 1.45216,-0.68957 0.50299,-0.69769 0.50299,-2.00383 0,-1.30613 -0.50299,-1.99571 -0.50298,-0.69768 -1.45216,-0.69768 z m 0,-2.07684 q 2.34455,0 3.6588,1.26557 1.32237,1.26557 1.32237,3.50466 0,2.23909 -1.32237,3.50467 -1.31425,1.26557 -3.6588,1.26557 -2.35267,0 -3.68314,-1.26557 -1.32236,-1.26558 -1.32236,-3.50467 0,-2.23909 1.32236,-3.50466 1.33047,-1.26557 3.68314,-1.26557 z"
           style="fill:#797979;stroke-width:0.4138"
           id="path137141" />
        <path
           d="m 393.90171,262.72348 q -0.9654,0 -1.4765,0.69768 -0.50298,0.68958 -0.50298,1.99571 0,1.30614 0.50298,2.00383 0.5111,0.68957 1.4765,0.68957 0.94918,0 1.45217,-0.68957 0.50298,-0.69769 0.50298,-2.00383 0,-1.30613 -0.50298,-1.99571 -0.50299,-0.69768 -1.45217,-0.69768 z m 0,-2.07684 q 2.34456,0 3.65881,1.26557 1.32236,1.26557 1.32236,3.50466 0,2.23909 -1.32236,3.50467 -1.31425,1.26557 -3.65881,1.26557 -2.35266,0 -3.68314,-1.26557 -1.32236,-1.26558 -1.32236,-3.50467 0,-2.23909 1.32236,-3.50466 1.33048,-1.26557 3.68314,-1.26557 z"
           style="fill:#797979;stroke-width:0.4138"
           id="path137143" />
        <path
           d="m 400.99217,257.32857 h 2.90432 v 12.62327 h -2.90432 z"
           style="fill:#797979;stroke-width:0.4138"
           id="path137145" />
        <path
           d="m 415.75718,265.38442 v 0.82749 h -6.79028 q 0.10546,1.0222 0.73825,1.53329 0.63279,0.5111 1.76856,0.5111 0.91673,0 1.87402,-0.26772 0.9654,-0.27583 1.97948,-0.82749 v 2.23909 q -1.0303,0.38941 -2.06061,0.58411 -1.0303,0.20282 -2.06061,0.20282 -2.46625,0 -3.83728,-1.24935 -1.36293,-1.25746 -1.36293,-3.52089 0,-2.22286 1.33859,-3.49655 1.3467,-1.27368 3.69937,-1.27368 2.14174,0 3.42353,1.28991 1.28991,1.28991 1.28991,3.44787 z m -2.98545,-0.9654 q 0,-0.82749 -0.48676,-1.33048 -0.47864,-0.51109 -1.25746,-0.51109 -0.84371,0 -1.37104,0.47864 -0.52732,0.47054 -0.65712,1.36293 z"
           style="fill:#797979;stroke-width:0.4138"
           id="path137147" />
        <path
           d="m 422.02826,265.86307 q -0.90862,0 -1.37104,0.30828 -0.45431,0.30828 -0.45431,0.90862 0,0.55166 0.36507,0.86805 0.37318,0.30828 1.03031,0.30828 0.81937,0 1.37915,-0.58411 0.55977,-0.59222 0.55977,-1.4765 v -0.33262 z m 4.43761,-1.09521 v 5.18398 h -2.92866 v -1.3467 q -0.58411,0.82749 -1.31425,1.20879 -0.73014,0.37318 -1.77667,0.37318 -1.4116,0 -2.29588,-0.81938 -0.87616,-0.82749 -0.87616,-2.14174 0,-1.59819 1.0952,-2.34455 1.10332,-0.74636 3.45599,-0.74636 h 1.71177 v -0.22716 q 0,-0.68957 -0.54355,-1.00597 -0.54355,-0.3245 -1.69554,-0.3245 -0.93296,0 -1.73611,0.18659 -0.80315,0.18659 -1.49272,0.55977 v -2.21475 q 0.93295,-0.22716 1.87402,-0.34073 0.94106,-0.12169 1.88213,-0.12169 2.45813,0 3.54523,0.97352 1.0952,0.9654 1.0952,3.1477 z"
           style="fill:#797979;stroke-width:0.4138"
           id="path137149" />
        <path
           d="m 438.30223,264.41902 v 5.53282 h -2.92056 v -0.9005 -3.3343 q 0,-1.17633 -0.0568,-1.62253 -0.0487,-0.44619 -0.17847,-0.65712 -0.17037,-0.28394 -0.46242,-0.43808 -0.29206,-0.16226 -0.66524,-0.16226 -0.90862,0 -1.42783,0.7058 -0.51921,0.69769 -0.51921,1.93892 v 4.47007 h -2.90432 v -9.08616 h 2.90432 v 1.33047 q 0.65713,-0.79504 1.39538,-1.16822 0.73825,-0.38129 1.63064,-0.38129 1.57385,0 2.38512,0.9654 0.81938,0.96541 0.81938,2.80698 z"
           style="fill:#797979;stroke-width:0.4138"
           id="path137151" />
      </g>
      <g
         id="g9775"
         transform="matrix(0.82572983,0,0,0.82572983,58.271082,98.983539)">
        <path
           d="m 218.22815,109.35527 c -7.38305,14.27163 -13.38355,28.63245 -17.65523,42.89629 14.6729,-4.16347 29.35072,-6.82454 43.51498,-8.12144 z"
           fill="#9d539f"
           stroke-width="0.199167"
           id="path2810-6"
           style="fill:#d45500"
           sodipodi:nodetypes="cccc" />
        <path
           style="fill:#000000;fill-opacity:0;stroke:#d45500;stroke-width:4.4;stroke-linecap:butt;stroke-linejoin:miter;stroke-miterlimit:4;stroke-dasharray:none;stroke-opacity:1"
           d="m 227.78876,129.15039 c 47.69223,-35.157956 129.04722,-22.13645 156.55801,19.40978"
           id="path9756"
           sodipodi:nodetypes="cc" />
      </g>
    </g>
  </switch>
</svg>
