<?xml version="1.0" encoding="UTF-8" standalone="no"?>
<svg
   xmlns:dc="http://purl.org/dc/elements/1.1/"
   xmlns:cc="http://creativecommons.org/ns#"
   xmlns:rdf="http://www.w3.org/1999/02/22-rdf-syntax-ns#"
   xmlns:svg="http://www.w3.org/2000/svg"
   xmlns="http://www.w3.org/2000/svg"
   xmlns:sodipodi="http://sodipodi.sourceforge.net/DTD/sodipodi-0.dtd"
   xmlns:inkscape="http://www.inkscape.org/namespaces/inkscape"
   viewBox="0 0 595.3 177"
   version="1.1"
   id="svg3397"
   sodipodi:docname="hasse.svg"
   inkscape:version="1.0.1 (0767f8302a, 2020-10-17)">
  <metadata
     id="metadata3403">
    <rdf:RDF>
      <cc:Work
         rdf:about="">
        <dc:format>image/svg+xml</dc:format>
        <dc:type
           rdf:resource="http://purl.org/dc/dcmitype/StillImage" />
        <dc:title />
      </cc:Work>
    </rdf:RDF>
  </metadata>
  <defs
     id="defs3401">
    <marker
       style="overflow:visible"
       id="Arrow1Mstart"
       refX="0.0"
       refY="0.0"
       orient="auto"
       inkscape:stockid="Arrow1Mstart"
       inkscape:isstock="true">
      <path
         transform="scale(0.4) translate(10,0)"
         style="fill-rule:evenodd;stroke:#000000;stroke-width:1.0pt"
         d="M 0.0,0.0 L 5.0,-5.0 L -12.5,0.0 L 5.0,5.0 L 0.0,0.0 z "
         id="path4219" />
    </marker>
    <marker
       style="overflow:visible"
       id="Arrow1Lstart"
       refX="0.0"
       refY="0.0"
       orient="auto"
       inkscape:stockid="Arrow1Lstart"
       inkscape:isstock="true">
      <path
         transform="scale(0.8) translate(12.5,0)"
         style="fill-rule:evenodd;stroke:#000000;stroke-width:1.0pt"
         d="M 0.0,0.0 L 5.0,-5.0 L -12.5,0.0 L 5.0,5.0 L 0.0,0.0 z "
         id="path4213" />
    </marker>
  </defs>
  <sodipodi:namedview
     pagecolor="#ffffff"
     bordercolor="#666666"
     borderopacity="1"
     objecttolerance="10"
     gridtolerance="10"
     guidetolerance="10"
     inkscape:pageopacity="0"
     inkscape:pageshadow="2"
     inkscape:window-width="1920"
     inkscape:window-height="1016"
     id="namedview3399"
     showgrid="false"
     inkscape:zoom="1.4142136"
     inkscape:cx="226.28301"
     inkscape:cy="74.42429"
     inkscape:window-x="0"
     inkscape:window-y="27"
     inkscape:window-maximized="1"
     inkscape:current-layer="svg3397"
     inkscape:document-rotation="0"
     showguides="true"
     inkscape:guide-bbox="true" />
  <g
     id="g4211"
     style="stroke:#000000;stroke-width:1;stroke-miterlimit:4;stroke-dasharray:1, 4;stroke-dashoffset:0;stroke-opacity:1"
     transform="matrix(0.69968954,0,0,1,100.4443,0)">
    <path
       style="fill:none;stroke:#000000;stroke-width:1;stroke-linecap:butt;stroke-linejoin:miter;stroke-miterlimit:4;stroke-dasharray:1, 4;stroke-dashoffset:0;stroke-opacity:1"
       d="M 58.692359,158.00757 H 537.98355"
       id="path4176" />
    <path
       style="fill:none;stroke:#000000;stroke-width:1;stroke-linecap:butt;stroke-linejoin:miter;stroke-miterlimit:4;stroke-dasharray:1, 4;stroke-dashoffset:0;stroke-opacity:1"
       d="M 60.830103,87.166576 H 540.1213"
       id="path4176-2" />
    <path
       style="fill:none;stroke:#000000;stroke-width:1;stroke-linecap:butt;stroke-linejoin:miter;stroke-miterlimit:4;stroke-dasharray:1, 4;stroke-dashoffset:0;stroke-opacity:1"
       d="M 61.683865,20.678579 H 540.97506"
       id="path4176-2-9" />
  </g>
  <g
     id="g2760-9-8-7"
     transform="matrix(0.501908,0.501908,-0.501908,0.501908,163.62806,-127.61528)"
     style="fill:#ffaaaa">
    <g
       id="g2749-4-6"
       style="fill:#ffaaaa;fill-opacity:1;stroke:#666666"
       transform="rotate(-37.328029,183.17645,-58.627543)">
      <circle
         cx="55.440796"
         cy="90.58149"
         r="24.6"
         id="circle3369-5-5"
         style="opacity:0.13;fill:#ffaaaa;fill-opacity:1;stroke:#666666;stroke-width:6;stroke-miterlimit:10" />
      <circle
         fill="#d71920"
         stroke="#be1e2d"
         cx="51.507595"
         cy="84.367409"
         r="24.6"
         id="circle3383-6-6"
         style="fill:#ffaaaa;fill-opacity:1;stroke:#666666;stroke-width:6;stroke-miterlimit:10" />
    </g>
  </g>
  <g
     id="g2749-7-7"
     style="fill:#f8f7cb;fill-opacity:1;stroke:#666666"
     transform="matrix(0.70959204,0.01739057,-0.01739057,0.70959204,213.22179,32.108129)">
    <circle
       cx="55.440796"
       cy="90.58149"
       r="24.6"
       id="circle3369-7-4"
       style="opacity:0.13;fill:#f8f7cb;fill-opacity:1;stroke:#666666;stroke-width:6;stroke-miterlimit:10" />
    <circle
       fill="#d71920"
       stroke="#be1e2d"
       cx="51.507595"
       cy="84.367409"
       r="24.6"
       id="circle3383-4-5"
       style="fill:#f8f7cb;fill-opacity:1;stroke:#666666;stroke-width:6;stroke-miterlimit:10" />
  </g>
  <g
     id="g2760-0-7"
     transform="matrix(0.501908,0.501908,-0.501908,0.501908,194.0301,23.234669)">
    <g
       id="g2749-6-8"
       style="fill:#caebfc;fill-opacity:1;stroke:#666666"
       transform="rotate(-44.545114,52.727379,84.306425)">
      <circle
         cx="55.440796"
         cy="90.58149"
         r="24.6"
         id="circle3369-33-3-6"
         style="opacity:0.13;fill:#caebfc;fill-opacity:1;stroke:#666666;stroke-width:6;stroke-miterlimit:10" />
      <circle
         fill="#d71920"
         stroke="#be1e2d"
         cx="51.507595"
         cy="84.367409"
         r="24.6"
         id="circle3383-85-2-8"
         style="fill:#caebfc;fill-opacity:1;stroke:#666666;stroke-width:6;stroke-miterlimit:10" />
    </g>
  </g>
  <g
     id="g2760-9-8-7-3"
     transform="matrix(0.501908,0.501908,-0.501908,0.501908,230.81317,-127.57878)"
     style="fill:#cee7cc;fill-opacity:1">
    <g
       id="g2749-4-6-6"
       style="fill:#cee7cc;fill-opacity:1;stroke:#666666"
       transform="rotate(-37.328029,183.17645,-58.627543)">
      <circle
         cx="55.440796"
         cy="90.58149"
         r="24.6"
         id="circle3369-5-5-7"
         style="opacity:0.13;fill:#cee7cc;fill-opacity:1;stroke:#666666;stroke-width:6;stroke-miterlimit:10" />
      <circle
         fill="#d71920"
         stroke="#be1e2d"
         cx="51.507595"
         cy="84.367409"
         r="24.6"
         id="circle3383-6-6-5"
         style="fill:#cee7cc;fill-opacity:1;stroke:#666666;stroke-width:6;stroke-miterlimit:10" />
    </g>
  </g>
  <g
     style="display:inline;fill:#dddddd;stroke:#838383;stroke-width:6.389;stroke-miterlimit:10"
     id="g1482-7-0-25-1-3-3-20"
     transform="matrix(0.01081399,-0.2172856,0.29422209,0.05595566,107.33323,102.29563)"
     inkscape:transform-center-x="-7.8180339"
     inkscape:transform-center-y="-4.1772314">
    <path
       style="stroke-width:35.526"
       inkscape:connector-curvature="0"
       id="path1478-7-9-8-5-1-6-2"
       transform="matrix(0.4768,-0.02932,0.03214,0.42867,147.58,197.367)"
       d="m 315.1,101.79 c 10.682,-4.135 21.77,-7.738 33.127,-11.074 -8.518,-8.139 -17.577,-16.01 -27.178,-23.616 -2.04,12.119 -3.103,21.663 -5.949,34.69 z" />
    <path
       style="stroke-width:10.649;paint-order:markers fill stroke"
       inkscape:connector-curvature="0"
       id="path1480-1-3-9-5-4-7-3"
       transform="matrix(0.89574,0,0,0.81736,18.384,154.236)"
       d="m 197.036,89.49 c 39.237,-9.724 89.303,-9.828 120.462,-3.317" />
  </g>
  <g
     style="display:inline;fill:#dddddd;stroke:#838383;stroke-width:6.389;stroke-miterlimit:10"
     id="g1482-7-0-25-1-3-3-20-7"
     transform="matrix(-0.00954049,-0.21981135,-0.25957329,0.05660609,308.69776,103.04406)"
     inkscape:transform-center-x="6.8973484"
     inkscape:transform-center-y="-4.2257898">
    <path
       style="stroke-width:35.526"
       inkscape:connector-curvature="0"
       id="path1478-7-9-8-5-1-6-2-5"
       transform="matrix(0.4768,-0.02932,0.03214,0.42867,147.58,197.367)"
       d="m 315.1,101.79 c 10.682,-4.135 21.77,-7.738 33.127,-11.074 -8.518,-8.139 -17.577,-16.01 -27.178,-23.616 -2.04,12.119 -3.103,21.663 -5.949,34.69 z" />
    <path
       style="stroke-width:10.649;paint-order:markers fill stroke"
       inkscape:connector-curvature="0"
       id="path1480-1-3-9-5-4-7-3-9"
       transform="matrix(0.89574,0,0,0.81736,18.384,154.236)"
       d="m 197.036,89.49 c 39.237,-9.724 89.303,-9.828 120.462,-3.317" />
  </g>
  <g
     style="display:inline;fill:#dddddd;stroke:#838383;stroke-width:6.389;stroke-miterlimit:10"
     id="g1482-7-0-25-1-3-3-20-6"
     transform="matrix(0.1678335,-0.13842648,0.15691572,0.25509828,138.52537,23.501962)"
     inkscape:transform-center-x="-8.50783"
     inkscape:transform-center-y="2.8895998">
    <path
       style="stroke-width:35.526"
       inkscape:connector-curvature="0"
       id="path1478-7-9-8-5-1-6-2-1"
       transform="matrix(0.4768,-0.02932,0.03214,0.42867,147.58,197.367)"
       d="m 315.1,101.79 c 10.682,-4.135 21.77,-7.738 33.127,-11.074 -8.518,-8.139 -17.577,-16.01 -27.178,-23.616 -2.04,12.119 -3.103,21.663 -5.949,34.69 z" />
    <path
       style="fill:none;stroke-width:10.649;paint-order:markers fill stroke"
       inkscape:connector-curvature="0"
       id="path1480-1-3-9-5-4-7-3-2"
       transform="matrix(0.89574,0,0,0.81736,18.384,154.236)"
       d="M 63.547838,115.12609 C 122.98682,99.535637 248.10644,74.860849 317.498,86.173"
       sodipodi:nodetypes="cc" />
  </g>
  <g
     style="display:inline;fill:#dddddd;stroke:#838383;stroke-width:6.389;stroke-miterlimit:10"
     id="g1482-7-0-25-1-3-3-20-6-9"
     transform="matrix(-0.1678335,-0.13842648,-0.15691572,0.25509828,284.98329,24.473104)"
     inkscape:transform-center-x="8.5078251"
     inkscape:transform-center-y="2.8895998">
    <path
       style="stroke-width:35.526"
       inkscape:connector-curvature="0"
       id="path1478-7-9-8-5-1-6-2-1-3"
       transform="matrix(0.4768,-0.02932,0.03214,0.42867,147.58,197.367)"
       d="m 315.1,101.79 c 10.682,-4.135 21.77,-7.738 33.127,-11.074 -8.518,-8.139 -17.577,-16.01 -27.178,-23.616 -2.04,12.119 -3.103,21.663 -5.949,34.69 z" />
    <path
       style="fill:none;stroke-width:10.649;paint-order:markers fill stroke"
       inkscape:connector-curvature="0"
       id="path1480-1-3-9-5-4-7-3-2-1"
       transform="matrix(0.89574,0,0,0.81736,18.384,154.236)"
       d="M 47.872715,98.401069 C 126.06599,78.448462 241.85906,64.912232 317.498,86.173"
       sodipodi:nodetypes="cc" />
  </g>
  <g
     id="g2760-9-8-7-9"
     transform="matrix(0.501908,0.501908,-0.501908,0.501908,362.42845,-62.910436)"
     style="fill:#ffaaaa;fill-opacity:1">
    <g
       id="g2749-4-6-4"
       style="fill:#ffaaaa;fill-opacity:1;stroke:#666666"
       transform="rotate(-37.328029,183.17645,-58.627543)">
      <circle
         cx="55.440796"
         cy="90.58149"
         r="24.6"
         id="circle3369-5-5-78"
         style="opacity:0.13;fill:#ffaaaa;fill-opacity:1;stroke:#666666;stroke-width:6;stroke-miterlimit:10" />
      <circle
         fill="#d71920"
         stroke="#be1e2d"
         cx="51.507595"
         cy="84.367409"
         r="24.6"
         id="circle3383-6-6-4"
         style="fill:#ffaaaa;fill-opacity:1;stroke:#666666;stroke-width:6;stroke-miterlimit:10" />
    </g>
  </g>
  <g
     id="g2749-7-7-5"
     style="fill:#f8f7cb;fill-opacity:1;stroke:#666666"
     transform="matrix(0.70959204,0.01739057,-0.01739057,0.70959204,412.02218,96.812973)">
    <circle
       cx="55.440796"
       cy="90.58149"
       r="24.6"
       id="circle3369-7-4-0"
       style="opacity:0.13;fill:#f8f7cb;fill-opacity:1;stroke:#666666;stroke-width:6;stroke-miterlimit:10" />
    <circle
       fill="#d71920"
       stroke="#be1e2d"
       cx="51.507595"
       cy="84.367409"
       r="24.6"
       id="circle3383-4-5-3"
       style="fill:#f8f7cb;fill-opacity:1;stroke:#666666;stroke-width:6;stroke-miterlimit:10" />
  </g>
  <g
     id="g2760-0-7-6"
     transform="matrix(0.501908,0.501908,-0.501908,0.501908,392.83049,87.939513)">
    <g
       id="g2749-6-8-1"
       style="fill:#caebfc;fill-opacity:1;stroke:#666666"
       transform="rotate(-44.545114,52.727379,84.306425)">
      <circle
         cx="55.440796"
         cy="90.58149"
         r="24.6"
         id="circle3369-33-3-6-0"
         style="opacity:0.13;fill:#caebfc;fill-opacity:1;stroke:#666666;stroke-width:6;stroke-miterlimit:10" />
      <circle
         fill="#d71920"
         stroke="#be1e2d"
         cx="51.507595"
         cy="84.367409"
         r="24.6"
         id="circle3383-85-2-8-6"
         style="fill:#caebfc;fill-opacity:1;stroke:#666666;stroke-width:6;stroke-miterlimit:10" />
    </g>
  </g>
  <g
     id="g2760-9-8-7-3-3"
     transform="matrix(0.501908,0.501908,-0.501908,0.501908,429.25522,-129.59646)">
    <g
       id="g2749-4-6-6-2"
       style="fill:#cee7cc;fill-opacity:1;stroke:#666666"
       transform="rotate(-37.328029,183.17645,-58.627543)">
      <circle
         cx="55.440796"
         cy="90.58149"
         r="24.6"
         id="circle3369-5-5-7-0"
         style="opacity:0.13;fill:#cee7cc;fill-opacity:1;stroke:#666666;stroke-width:6;stroke-miterlimit:10" />
      <circle
         fill="#d71920"
         stroke="#be1e2d"
         cx="51.507595"
         cy="84.367409"
         r="24.6"
         id="circle3383-6-6-5-6"
         style="fill:#cee7cc;fill-opacity:1;stroke:#666666;stroke-width:6;stroke-miterlimit:10" />
    </g>
  </g>
  <g
     style="display:inline;fill:#dddddd;stroke:#838383;stroke-width:6.389;stroke-miterlimit:10"
     id="g1482-7-0-25-1-3-3-20-1"
     transform="matrix(0.01081399,-0.2172856,0.29422209,0.05595566,306.13361,167.00047)"
     inkscape:transform-center-x="-7.8180339"
     inkscape:transform-center-y="-4.1772314">
    <path
       style="stroke-width:35.526"
       inkscape:connector-curvature="0"
       id="path1478-7-9-8-5-1-6-2-55"
       transform="matrix(0.4768,-0.02932,0.03214,0.42867,147.58,197.367)"
       d="m 315.1,101.79 c 10.682,-4.135 21.77,-7.738 33.127,-11.074 -8.518,-8.139 -17.577,-16.01 -27.178,-23.616 -2.04,12.119 -3.103,21.663 -5.949,34.69 z" />
    <path
       style="stroke-width:10.649;paint-order:markers fill stroke"
       inkscape:connector-curvature="0"
       id="path1480-1-3-9-5-4-7-3-4"
       transform="matrix(0.89574,0,0,0.81736,18.384,154.236)"
       d="m 197.036,89.49 c 39.237,-9.724 89.303,-9.828 120.462,-3.317" />
  </g>
  <g
     style="display:inline;fill:#dddddd;stroke:#838383;stroke-width:6.389;stroke-miterlimit:10"
     id="g1482-7-0-25-1-3-3-20-7-7"
     transform="matrix(-0.00954049,-0.28047876,-0.25957329,0.07222924,511.88902,116.84264)"
     inkscape:transform-center-x="6.8973484"
     inkscape:transform-center-y="-5.3920968">
    <path
       style="stroke-width:35.526"
       inkscape:connector-curvature="0"
       id="path1478-7-9-8-5-1-6-2-5-6"
       transform="matrix(0.4768,-0.02932,0.03214,0.42867,147.58,197.367)"
       d="m 315.1,101.79 c 10.682,-4.135 21.77,-7.738 33.127,-11.074 -8.518,-8.139 -17.577,-16.01 -27.178,-23.616 -2.04,12.119 -3.103,21.663 -5.949,34.69 z" />
    <path
       style="fill:none;stroke-width:10.649;paint-order:markers fill stroke"
       inkscape:connector-curvature="0"
       id="path1480-1-3-9-5-4-7-3-9-5"
       transform="matrix(0.89574,0,0,0.81736,18.384,154.236)"
       d="M -32.0007,101.38187 C 83.402867,68.870199 212.92216,70.325528 317.498,86.173"
       sodipodi:nodetypes="cc" />
  </g>
  <g
     style="display:inline;fill:#dddddd;stroke:#838383;stroke-width:6.389;stroke-miterlimit:10"
     id="g1482-7-0-25-1-3-3-20-6-6"
     transform="matrix(0.12454177,-0.21029416,0.21744958,0.24187047,349.27537,58.195759)"
     inkscape:transform-center-x="-8.9787696"
     inkscape:transform-center-y="0.91069311">
    <path
       style="stroke-width:35.526"
       inkscape:connector-curvature="0"
       id="path1478-7-9-8-5-1-6-2-1-9"
       transform="matrix(0.4768,-0.02932,0.03214,0.42867,147.58,197.367)"
       d="m 315.1,101.79 c 10.682,-4.135 21.77,-7.738 33.127,-11.074 -8.518,-8.139 -17.577,-16.01 -27.178,-23.616 -2.04,12.119 -3.103,21.663 -5.949,34.69 z" />
    <path
       style="fill:none;stroke-width:10.649;paint-order:markers fill stroke"
       inkscape:connector-curvature="0"
       id="path1480-1-3-9-5-4-7-3-2-3"
       transform="matrix(0.89574,0,0,0.81736,18.384,154.236)"
       d="M -144.23784,119.75196 C -10.16754,87.121196 158.85194,74.790721 317.498,86.173"
       sodipodi:nodetypes="cc" />
  </g>
  <g
     style="display:inline;fill:#dddddd;stroke:#838383;stroke-width:6.389;stroke-miterlimit:10"
     id="g1482-7-0-25-1-3-3-20-6-9-7"
     transform="matrix(-0.1678335,-0.13842648,-0.15691572,0.25509828,483.78368,89.177943)"
     inkscape:transform-center-x="8.5078251"
     inkscape:transform-center-y="2.8895998">
    <path
       style="stroke-width:35.526"
       inkscape:connector-curvature="0"
       id="path1478-7-9-8-5-1-6-2-1-3-4"
       transform="matrix(0.4768,-0.02932,0.03214,0.42867,147.58,197.367)"
       d="m 315.1,101.79 c 10.682,-4.135 21.77,-7.738 33.127,-11.074 -8.518,-8.139 -17.577,-16.01 -27.178,-23.616 -2.04,12.119 -3.103,21.663 -5.949,34.69 z" />
    <path
       style="fill:none;stroke-width:10.649;paint-order:markers fill stroke"
       inkscape:connector-curvature="0"
       id="path1480-1-3-9-5-4-7-3-2-1-5"
       transform="matrix(0.89574,0,0,0.81736,18.384,154.236)"
       d="M 47.872715,98.401069 C 126.06599,78.448462 241.85906,64.912232 317.498,86.173"
       sodipodi:nodetypes="cc" />
  </g>
  <g
     style="display:inline;fill:#dddddd;stroke:#838383;stroke-width:6.389;stroke-miterlimit:10"
     id="g1482-7-0-25-1-3-3-20-6-9-7-2"
     transform="matrix(0.16397951,-0.19198139,0.15331244,0.35379157,339.53662,20.665794)"
     inkscape:transform-center-x="-8.3124537"
     inkscape:transform-center-y="4.0075378">
    <path
       style="stroke-width:35.526"
       inkscape:connector-curvature="0"
       id="path1478-7-9-8-5-1-6-2-1-3-4-5"
       transform="matrix(0.4768,-0.02932,0.03214,0.42867,147.58,197.367)"
       d="m 315.1,101.79 c 10.682,-4.135 21.77,-7.738 33.127,-11.074 -8.518,-8.139 -17.577,-16.01 -27.178,-23.616 -2.04,12.119 -3.103,21.663 -5.949,34.69 z" />
    <path
       style="fill:none;stroke-width:10.649;paint-order:markers fill stroke"
       inkscape:connector-curvature="0"
       id="path1480-1-3-9-5-4-7-3-2-1-5-4"
       transform="matrix(0.89574,0,0,0.81736,18.384,154.236)"
       d="M 114.81589,81.074446 C 182.75999,67.180639 241.85906,64.912232 317.498,86.173"
       sodipodi:nodetypes="cc" />
  </g>
  <circle
     id="path4170"
     style="fill:#e6e6e6;stroke:#cccccc"
     cx="-49.175602"
     cy="-38.577908"
     r="0.9801296" />
  <text
     xml:space="preserve"
     style="font-style:normal;font-weight:normal;font-size:19.8696px;line-height:1.25;font-family:sans-serif;fill:#000000;fill-opacity:1;stroke:none;stroke-width:0.496742"
     x="124.50941"
     y="27.610792"
     id="text4499"><tspan
       sodipodi:role="line"
       id="tspan4497"
       x="124.50941"
       y="27.610792"
       style="font-style:normal;font-variant:normal;font-weight:bold;font-stretch:normal;font-family:sans-serif;-inkscape-font-specification:'sans-serif Bold';stroke-width:0.496742">1</tspan></text>
  <text
     xml:space="preserve"
     style="font-style:normal;font-weight:normal;font-size:19.8696px;line-height:1.25;font-family:sans-serif;fill:#000000;fill-opacity:1;stroke:none;stroke-width:0.496742"
     x="124.33109"
     y="93.611427"
     id="text4499-2"><tspan
       sodipodi:role="line"
       id="tspan4497-7"
       x="124.33109"
       y="93.611427"
       style="font-style:normal;font-variant:normal;font-weight:bold;font-stretch:normal;font-family:sans-serif;-inkscape-font-specification:'sans-serif Bold';stroke-width:0.496742">2</tspan></text>
  <text
     xml:space="preserve"
     style="font-style:normal;font-weight:normal;font-size:19.8696px;line-height:1.25;font-family:sans-serif;fill:#000000;fill-opacity:1;stroke:none;stroke-width:0.496742"
     x="124.36346"
     y="163.29214"
     id="text4499-2-0"><tspan
       sodipodi:role="line"
       id="tspan4497-7-9"
       x="124.36346"
       y="163.29214"
       style="font-style:normal;font-variant:normal;font-weight:bold;font-stretch:normal;font-family:sans-serif;-inkscape-font-specification:'sans-serif Bold';stroke-width:0.496742">3</tspan></text>
</svg>
