<?xml version="1.0" encoding="UTF-8" standalone="no"?>
<svg
   width="595.29999"
   height="177"
   version="1.1"
   id="svg8680"
   sodipodi:docname="lattice_meet_join.svg"
   inkscape:version="1.2.2 (b0a8486541, 2022-12-01)"
   xmlns:inkscape="http://www.inkscape.org/namespaces/inkscape"
   xmlns:sodipodi="http://sodipodi.sourceforge.net/DTD/sodipodi-0.dtd"
   xmlns="http://www.w3.org/2000/svg"
   xmlns:svg="http://www.w3.org/2000/svg"
   xmlns:rdf="http://www.w3.org/1999/02/22-rdf-syntax-ns#"
   xmlns:cc="http://creativecommons.org/ns#"
   xmlns:dc="http://purl.org/dc/elements/1.1/">
  <metadata
     id="metadata8686">
    <rdf:RDF>
      <cc:Work
         rdf:about="">
        <dc:format>image/svg+xml</dc:format>
        <dc:type
           rdf:resource="http://purl.org/dc/dcmitype/StillImage" />
        <dc:title />
      </cc:Work>
    </rdf:RDF>
  </metadata>
  <defs
     id="defs8684" />
  <sodipodi:namedview
     pagecolor="#ffffff"
     bordercolor="#666666"
     borderopacity="1"
     objecttolerance="10"
     gridtolerance="10"
     guidetolerance="10"
     inkscape:pageopacity="0"
     inkscape:pageshadow="2"
     inkscape:window-width="1080"
     inkscape:window-height="1853"
     id="namedview8682"
     showgrid="false"
     inkscape:zoom="0.80942287"
     inkscape:cx="190.25902"
     inkscape:cy="340.36597"
     inkscape:window-x="0"
     inkscape:window-y="0"
     inkscape:window-maximized="1"
     inkscape:current-layer="svg8680"
     inkscape:showpageshadow="2"
     inkscape:pagecheckerboard="0"
     inkscape:deskcolor="#d1d1d1" />
  <path
     style="opacity:0.13999999;stroke:#000000;stroke-width:2.98567009;stroke-miterlimit:10"
     d="m 213.0155,49.774296 a 29.048471,28.48292 0 0 1 -29.04847,28.482919 29.048471,28.48292 0 0 1 -29.04848,-28.482919 29.048471,28.48292 0 0 1 29.04848,-28.48292 29.048471,28.48292 0 0 1 29.04847,28.48292 z"
     id="ellipse8632" />
  <path
     style="fill:#cee7cc;stroke:#808285;stroke-width:2.98567009;stroke-miterlimit:10"
     d="m 210.8547,48.985752 a 29.048471,28.48292 0 0 1 -29.04847,28.48292 29.048471,28.48292 0 0 1 -29.04847,-28.48292 29.048471,28.48292 0 0 1 29.04847,-28.48292 29.048471,28.48292 0 0 1 29.04847,28.48292 z"
     id="ellipse8634" />
  <path
     style="opacity:0.13999999;stroke:#000000;stroke-width:2.98567009;stroke-miterlimit:10"
     d="M 143.46023,116.34947 A 29.501013,28.92638 0 0 1 113.95921,145.27585 29.501013,28.92638 0 0 1 84.4582,116.34947 29.501013,28.92638 0 0 1 113.95921,87.423092 29.501013,28.92638 0 0 1 143.46023,116.34947 Z"
     id="ellipse8636" />
  <path
     style="fill:#caebfc;stroke:#808285;stroke-width:2.98567009;stroke-miterlimit:10"
     d="M 140.54518,114.52618 A 29.501013,28.92638 0 0 1 111.04417,143.45256 29.501013,28.92638 0 0 1 81.543154,114.52618 29.501013,28.92638 0 0 1 111.04417,85.599796 29.501013,28.92638 0 0 1 140.54518,114.52618 Z"
     id="ellipse8638" />
  <path
     style="opacity:0.13999999;stroke:#000000;stroke-width:2.98567009;stroke-miterlimit:10"
     d="m 284.2301,117.33477 a 30.254747,29.665482 0 0 1 -30.25474,29.66548 30.254747,29.665482 0 0 1 -30.25475,-29.66548 30.254747,29.665482 0 0 1 30.25475,-29.665481 30.254747,29.665482 0 0 1 30.25474,29.665481 z"
     id="ellipse8640" />
  <path
     style="fill:#f8f7cb;stroke:#808285;stroke-width:2.98567009;stroke-miterlimit:10"
     d="m 281.26514,115.4131 a 30.254747,29.665482 0 0 1 -30.25475,29.66548 30.254747,29.665482 0 0 1 -30.25475,-29.66548 30.254747,29.665482 0 0 1 30.25475,-29.66548 30.254747,29.665482 0 0 1 30.25475,29.66548 z"
     id="ellipse8642" />
  <path
     d="m 243.06997,87.886225 c 0,0 -0.24721,-0.420758 -0.73002,-1.164401 a 87.338135,87.338135 0 0 0 -2.09219,-3.056804 c -0.88995,-1.24714 -1.99533,-2.620911 -3.21119,-4.082466 -1.2658,-1.45651 -2.63655,-2.951363 -4.10264,-4.387693 a 70.868018,70.868018 0 0 0 -4.46589,-4.004267 c -1.48981,-1.186095 -2.91958,-2.27936 -4.17278,-3.142571 -1.25369,-0.862706 -2.33637,-1.545303 -3.14307,-2.007935 -0.10595,-0.03935 -0.16094,-0.08324 -0.21593,-0.127136 -0.0555,-0.04389 -0.10494,-0.03885 -0.16043,-0.08274 l -0.11049,-0.08778 2.91151,-4.953244 c -2.49075,-0.142776 -5.01631,-0.133694 -7.4556,0.21391 -1.19417,0.171028 -2.37824,0.440435 -3.50733,0.753229 -1.12404,0.362235 -2.19258,0.768363 -3.1456,1.311212 a 15.851592,15.851592 0 0 1 2.52254,1.873737 c 0.73304,0.717912 1.41615,1.44087 1.99885,2.174422 1.17651,1.564475 2.10783,3.203616 2.9443,4.902289 l 2.91151,-4.953748 c 0,0 0.0555,0.04389 0.10493,0.03885 0.0505,-0.005 0.0555,0.04389 0.111,0.08829 0.055,0.04389 0.15992,0.08274 0.21492,0.126127 0.75171,0.419245 1.78494,1.106887 3.03813,1.970098 1.20376,0.868255 2.62798,1.912079 4.06784,3.103219 1.43986,1.191139 2.94531,2.524045 4.35591,3.916483 1.4106,1.392438 2.7763,2.838353 3.98711,4.250971 1.21082,1.412618 2.26624,2.791434 3.15064,3.989637 0.88491,1.198203 1.54884,2.220333 2.03216,2.963975 a 33.428596,33.428596 0 0 1 0.72951,1.164401 z m -117.158,0.375857 c 0,0 0.2124,-0.415713 0.50148,-1.085697 0.1675,-0.361732 0.3804,-0.77694 0.58825,-1.241591 0.25781,-0.469191 0.56152,-0.992364 0.86019,-1.56397 1.29456,-2.297017 3.23842,-5.197425 5.55562,-7.885435 2.3172,-2.687506 4.91793,-5.055155 7.03333,-6.68471 0.51308,-0.442957 1.04029,-0.739102 1.46206,-1.074599 0.42227,-0.336001 0.79913,-0.61802 1.13514,-0.79712 0.28655,-0.175064 0.42731,-0.287064 0.42731,-0.287064 l 3.27576,4.697963 a 42.308414,42.308414 0 0 1 6.41228,-10.537625 c -4.35591,-0.688652 -9.00645,-0.756255 -13.84568,-0.162956 l 3.27576,4.697964 -0.47726,0.2911 c -0.33146,0.228542 -0.70833,0.510561 -1.18054,0.851103 -0.42228,0.335496 -0.94444,0.681083 -1.50747,1.12858 -2.1608,1.683034 -4.90683,4.113241 -7.26943,6.854729 -2.41255,2.746029 -4.44723,5.754401 -5.78265,8.153833 -0.34862,0.576147 -0.64729,1.148257 -0.90509,1.617448 -0.25831,0.469191 -0.46616,0.933337 -0.63366,1.295572 -0.33449,0.723463 -0.54739,1.139176 -0.54739,1.139176 z"
     fill="#808285"
     id="path8648"
     style="stroke-width:0.504506" />
  <path
     style="opacity:0.14;stroke:#000000;stroke-width:2.98567;stroke-miterlimit:10"
     d="m 375.55371,111.38565 a 29.048471,28.48292 0 0 1 29.04848,-28.482914 29.048471,28.48292 0 0 1 29.04847,28.482914 29.048471,28.48292 0 0 1 -29.04847,28.48292 29.048471,28.48292 0 0 1 -29.04848,-28.48292 z"
     id="ellipse8650" />
  <path
     style="fill:#cee7cc;stroke:#808285;stroke-width:2.98567;stroke-miterlimit:10"
     d="m 377.71454,112.17421 a 29.048471,28.48292 0 0 1 29.04847,-28.482915 29.048471,28.48292 0 0 1 29.04847,28.482915 29.048471,28.48292 0 0 1 -29.04847,28.48292 29.048471,28.48292 0 0 1 -29.04847,-28.48292 z"
     id="ellipse8652" />
  <path
     style="opacity:0.14;stroke:#000000;stroke-width:2.98567;stroke-miterlimit:10"
     d="M 445.1095,44.810998 A 29.501013,28.92638 0 0 1 474.61052,15.88462 29.501013,28.92638 0 0 1 504.11153,44.810998 29.501013,28.92638 0 0 1 474.61052,73.737382 29.501013,28.92638 0 0 1 445.1095,44.810998 Z"
     id="ellipse8654" />
  <path
     style="fill:#caebfc;stroke:#808285;stroke-width:2.98567;stroke-miterlimit:10"
     d="M 448.02405,46.634298 A 29.501013,28.92638 0 0 1 477.52507,17.70792 29.501013,28.92638 0 0 1 507.02608,46.634298 29.501013,28.92638 0 0 1 477.52507,75.560677 29.501013,28.92638 0 0 1 448.02405,46.634298 Z"
     id="ellipse8656" />
  <path
     style="opacity:0.14;stroke:#000000;stroke-width:2.98567;stroke-miterlimit:10"
     d="M 304.33911,43.825188 A 30.254747,29.665482 0 0 1 334.59385,14.15971 30.254747,29.665482 0 0 1 364.8486,43.825188 30.254747,29.665482 0 0 1 334.59385,73.490666 30.254747,29.665482 0 0 1 304.33911,43.825188 Z"
     id="ellipse8658" />
  <path
     style="fill:#f8f7cb;stroke:#808285;stroke-width:2.98567;stroke-miterlimit:10"
     d="m 307.30407,45.746848 a 30.254747,29.665482 0 0 1 30.25475,-29.665478 30.254747,29.665482 0 0 1 30.25475,29.665478 30.254747,29.665482 0 0 1 -30.25475,29.66548 30.254747,29.665482 0 0 1 -30.25475,-29.66548 z"
     id="ellipse8660" />
  <path
     d="m 435.96282,103.74744 c 0,0 0.45204,-0.19676 1.25622,-0.59129 a 89.797604,89.797604 0 0 0 3.31713,-1.7244 c 1.35712,-0.73961 2.86459,-1.675462 4.47245,-2.710712 1.60837,-1.08419 3.26718,-2.26675 4.87504,-3.54769 a 70.925027,70.925027 0 0 0 4.52341,-3.94221 c 1.35712,-1.33089 2.61334,-2.61183 3.61832,-3.74546 1.00498,-1.13312 1.80916,-2.11893 2.3621,-2.85803 0.0505,-0.0984 0.1009,-0.14782 0.15085,-0.19676 0.0505,-0.0494 0.0505,-0.0989 0.1009,-0.14832 l 0.0999,-0.0984 4.7242,3.35093 c 0.40209,-2.41457 0.65333,-4.87858 0.55294,-7.29314 -0.0505,-1.18257 -0.2008,-2.36563 -0.40209,-3.49876 -0.25125,-1.13362 -0.55294,-2.21781 -1.00498,-3.20361 a 15.6957,15.6957 0 0 1 -2.16131,2.26725 c -0.80368,0.64072 -1.60786,1.23201 -2.41204,1.72491 -1.70877,0.9853 -3.46798,1.7244 -5.27714,2.36512 l 4.7242,3.35094 c 0,0 -0.0504,0.0494 -0.0504,0.0984 0,0.0494 -0.0505,0.0494 -0.1004,0.0989 -0.0505,0.0489 -0.1009,0.14782 -0.15085,0.19676 -0.50248,0.69016 -1.30667,1.62652 -2.31164,2.75965 -1.00498,1.08468 -2.21126,2.36563 -3.56838,3.64657 -1.35712,1.28144 -2.86459,2.61183 -4.4225,3.84434 -1.55792,1.2315 -3.16628,2.41406 -4.7242,3.4488 -1.55792,1.03525 -3.06589,1.92217 -4.37256,2.661272 -1.30667,0.73911 -2.41204,1.28145 -3.21623,1.67497 -0.80418,0.39452 -1.25622,0.59178 -1.25622,0.59178 z m -57.29326,-2.95692 c 0,0 -0.4021,-0.2462 -1.05543,-0.59077 -0.35215,-0.19727 -0.75373,-0.443972 -1.20628,-0.690172 -0.45254,-0.29564 -0.95503,-0.64072 -1.50797,-0.9853 -2.21125,-1.4782 -4.97544,-3.64657 -7.48788,-6.16002 -2.51295,-2.51295 -4.67425,-5.2726 -6.13177,-7.49041 -0.40209,-0.54184 -0.65334,-1.08418 -0.95453,-1.52765 -0.30169,-0.44346 -0.55294,-0.83748 -0.70379,-1.18256 -0.15084,-0.29564 -0.25124,-0.44346 -0.25124,-0.44346 l 5.07584,-2.75965 a 43.290688,43.290688 0 0 1 -10.10173,-7.2437 c -1.10538,4.18841 -1.60786,8.7219 -1.45752,13.5021 l 5.07634,-2.75965 0.25125,0.49291 c 0.20079,0.34508 0.45203,0.7391 0.75373,1.232 0.30169,0.44346 0.60288,0.9853 1.00498,1.57709 1.50797,2.26674 3.71922,5.17421 6.28211,7.7366 2.56289,2.61183 5.42798,4.87858 7.73963,6.40623 0.55294,0.394022 1.10588,0.739102 1.55792,1.034232 0.45254,0.29615 0.90508,0.54235 1.25622,0.73961 a 36.323454,36.323454 0 0 1 1.10588,0.64072 z"
     fill="#808285"
     id="path8666"
     style="stroke-width:0.504506" />
  <g
     aria-label="AND"
     style="font-weight:400;font-size:20.67840004px;line-height:1.25;font-family:sans-serif;letter-spacing:0;word-spacing:0;fill:#7e7e7e;stroke-width:0.51689899"
     id="text8674">
    <path
       d="m 394.33544,161.12455 h -6.07832 l -0.9592,2.74635 h -3.90749 l 5.58357,-15.07464 h 4.63447 l 5.58357,15.07464 h -3.90749 z m -5.10902,-2.79684 h 4.12962 l -2.05976,-5.99754 z"
       style="font-style:normal;font-variant:normal;font-weight:bold;font-stretch:normal;font-family:sans-serif;-inkscape-font-specification:'sans-serif Bold';stroke-width:0.51689899"
       id="path124490" />
    <path
       d="m 401.19122,148.79626 h 4.34166 l 5.4826,10.3392 v -10.3392 h 3.68536 v 15.07464 h -4.34166 l -5.4826,-10.3392 v 10.3392 h -3.68536 z"
       style="font-style:normal;font-variant:normal;font-weight:bold;font-stretch:normal;font-family:sans-serif;-inkscape-font-specification:'sans-serif Bold';stroke-width:0.51689899"
       id="path124492" />
    <path
       d="m 422.38456,151.73445 v 9.19825 h 1.39337 q 2.38286,0 3.63488,-1.18133 1.2621,-1.18133 1.2621,-3.43294 0,-2.2415 -1.25201,-3.41274 -1.25201,-1.17124 -3.64497,-1.17124 z m -3.8873,-2.93819 h 4.09934 q 3.43293,0 5.10901,0.49475 1.68618,0.48465 2.88771,1.65589 1.06017,1.01978 1.57511,2.35257 0.51494,1.33278 0.51494,3.01896 0,1.70637 -0.51494,3.04926 -0.51494,1.33279 -1.57511,2.35257 -1.21162,1.17124 -2.9079,1.66599 -1.69627,0.48465 -5.08882,0.48465 h -4.09934 z"
       style="font-style:normal;font-variant:normal;font-weight:bold;font-stretch:normal;font-family:sans-serif;-inkscape-font-specification:'sans-serif Bold';stroke-width:0.51689899"
       id="path124494" />
  </g>
  <g
     aria-label="OR"
     style="font-weight:400;font-size:21.88019943px;line-height:1.25;font-family:sans-serif;letter-spacing:0;word-spacing:0;fill:#7e7e7e;stroke-width:0.54709399"
     id="text8678">
    <path
       d="m 171.88125,151.35075 q -1.88033,0 -2.91665,1.38888 -1.03631,1.38888 -1.03631,3.91023 0,2.51066 1.03631,3.89954 1.03632,1.38888 2.91665,1.38888 1.89102,0 2.92733,-1.38888 1.03632,-1.38888 1.03632,-3.89954 0,-2.52135 -1.03632,-3.91023 -1.03631,-1.38888 -2.92733,-1.38888 z m 0,-2.98075 q 3.84613,0 6.0256,2.20084 2.17948,2.20084 2.17948,6.07902 0,3.86749 -2.17948,6.06833 -2.17947,2.20084 -6.0256,2.20084 -3.83544,0 -6.0256,-2.20084 -2.17947,-2.20084 -2.17947,-6.06833 0,-3.87818 2.17947,-6.07902 2.19016,-2.20084 6.0256,-2.20084 z"
       style="font-style:normal;font-variant:normal;font-weight:bold;font-stretch:normal;font-family:sans-serif;-inkscape-font-specification:'sans-serif Bold';stroke-width:0.54709399"
       id="path124497" />
    <path
       d="m 189.03926,155.73106 q 1.29273,0 1.84828,-0.48077 0.56623,-0.48076 0.56623,-1.58118 0,-1.08974 -0.56623,-1.55982 -0.55555,-0.47008 -1.84828,-0.47008 h -1.73076 v 4.09185 z m -1.73076,2.84186 v 6.03629 h -4.11322 v -15.95075 h 6.28201 q 3.15169,0 4.61536,1.05768 1.47434,1.05769 1.47434,3.344 0,1.58118 -0.76922,2.59613 -0.75854,1.01495 -2.29699,1.49572 0.84401,0.19231 1.5064,0.87606 0.67307,0.67308 1.35682,2.05127 l 2.2329,4.52989 h -4.38032 l -1.94443,-3.96365 q -0.5876,-1.19658 -1.19657,-1.63461 -0.59829,-0.43803 -1.60256,-0.43803 z"
       style="font-style:normal;font-variant:normal;font-weight:bold;font-stretch:normal;font-family:sans-serif;-inkscape-font-specification:'sans-serif Bold';stroke-width:0.54709399"
       id="path124499" />
  </g>
</svg>
