<?xml version="1.0" encoding="UTF-8" standalone="no"?>
<svg
   viewBox="0 0 595.3 177"
   version="1.1"
   id="svg3397"
   sodipodi:docname="non_join_fix.svg"
   inkscape:version="1.2.2 (b0a8486541, 2022-12-01)"
   xmlns:inkscape="http://www.inkscape.org/namespaces/inkscape"
   xmlns:sodipodi="http://sodipodi.sourceforge.net/DTD/sodipodi-0.dtd"
   xmlns="http://www.w3.org/2000/svg"
   xmlns:svg="http://www.w3.org/2000/svg"
   xmlns:rdf="http://www.w3.org/1999/02/22-rdf-syntax-ns#"
   xmlns:cc="http://creativecommons.org/ns#"
   xmlns:dc="http://purl.org/dc/elements/1.1/">
  <metadata
     id="metadata3403">
    <rdf:RDF>
      <cc:Work
         rdf:about="">
        <dc:format>image/svg+xml</dc:format>
        <dc:type
           rdf:resource="http://purl.org/dc/dcmitype/StillImage" />
        <dc:title />
      </cc:Work>
    </rdf:RDF>
  </metadata>
  <defs
     id="defs3401" />
  <sodipodi:namedview
     pagecolor="#ffffff"
     bordercolor="#666666"
     borderopacity="1"
     objecttolerance="10"
     gridtolerance="10"
     guidetolerance="10"
     inkscape:pageopacity="0"
     inkscape:pageshadow="2"
     inkscape:window-width="1440"
     inkscape:window-height="2483"
     id="namedview3399"
     showgrid="false"
     inkscape:zoom="1.4142136"
     inkscape:cx="260.21529"
     inkscape:cy="88.034792"
     inkscape:window-x="0"
     inkscape:window-y="0"
     inkscape:window-maximized="1"
     inkscape:current-layer="svg3397"
     inkscape:document-rotation="0"
     showguides="true"
     inkscape:guide-bbox="true"
     inkscape:showpageshadow="2"
     inkscape:pagecheckerboard="0"
     inkscape:deskcolor="#d1d1d1" />
  <g
     style="display:inline;fill:#dddddd;stroke:#838383;stroke-width:6.389;stroke-miterlimit:10"
     id="g1482-7-0-25-1-3-3-20-1"
     transform="matrix(0.01081399,-0.2172856,0.29422209,0.05595566,188.93326,154.12589)"
     inkscape:transform-center-x="-7.8180339"
     inkscape:transform-center-y="-4.1772314">
    <path
       style="stroke-width:35.526"
       inkscape:connector-curvature="0"
       id="path1478-7-9-8-5-1-6-2-55"
       transform="matrix(0.4768,-0.02932,0.03214,0.42867,147.58,197.367)"
       d="m 315.1,101.79 c 10.682,-4.135 21.77,-7.738 33.127,-11.074 -8.518,-8.139 -17.577,-16.01 -27.178,-23.616 -2.04,12.119 -3.103,21.663 -5.949,34.69 z" />
    <path
       style="stroke-width:10.649;paint-order:markers fill stroke"
       inkscape:connector-curvature="0"
       id="path1480-1-3-9-5-4-7-3-4"
       transform="matrix(0.89574,0,0,0.81736,18.384,154.236)"
       d="m 197.036,89.49 c 39.237,-9.724 89.303,-9.828 120.462,-3.317" />
  </g>
  <g
     style="display:inline;fill:#dddddd;stroke:#838383;stroke-width:6.389;stroke-miterlimit:10"
     id="g1482-7-0-25-1-3-3-20-7-7"
     transform="matrix(-0.00954049,-0.21981135,-0.25957329,0.05660609,394.68867,108.29601)"
     inkscape:transform-center-x="6.8973484"
     inkscape:transform-center-y="-4.2257898">
    <path
       style="stroke-width:35.526"
       inkscape:connector-curvature="0"
       id="path1478-7-9-8-5-1-6-2-5-6"
       transform="matrix(0.4768,-0.02932,0.03214,0.42867,147.58,197.367)"
       d="m 315.1,101.79 c 10.682,-4.135 21.77,-7.738 33.127,-11.074 -8.518,-8.139 -17.577,-16.01 -27.178,-23.616 -2.04,12.119 -3.103,21.663 -5.949,34.69 z" />
    <path
       style="fill:none;stroke-width:10.649;paint-order:markers fill stroke"
       inkscape:connector-curvature="0"
       id="path1480-1-3-9-5-4-7-3-9-5"
       transform="matrix(0.89574,0,0,0.81736,18.384,154.236)"
       d="M -32.0007,101.38187 C 83.402867,68.870199 212.92216,70.325528 317.498,86.173"
       sodipodi:nodetypes="cc" />
  </g>
  <g
     style="display:inline;fill:#dddddd;stroke:#838383;stroke-width:6.389;stroke-miterlimit:10"
     id="g1482-7-0-25-1-3-3-20-6-6"
     transform="matrix(0.12528657,-0.17785739,0.21875,0.20456322,231.68277,58.275479)"
     inkscape:transform-center-x="-9.0324619"
     inkscape:transform-center-y="0.77022403">
    <path
       style="stroke-width:35.526"
       inkscape:connector-curvature="0"
       id="path1478-7-9-8-5-1-6-2-1-9"
       transform="matrix(0.4768,-0.02932,0.03214,0.42867,147.58,197.367)"
       d="m 315.1,101.79 c 10.682,-4.135 21.77,-7.738 33.127,-11.074 -8.518,-8.139 -17.577,-16.01 -27.178,-23.616 -2.04,12.119 -3.103,21.663 -5.949,34.69 z" />
    <path
       style="fill:none;stroke-width:10.649;paint-order:markers fill stroke"
       inkscape:connector-curvature="0"
       id="path1480-1-3-9-5-4-7-3-2-3"
       transform="matrix(0.89574,0,0,0.81736,18.384,154.236)"
       d="M -144.23784,119.75196 C -10.16754,87.121196 158.85194,74.790721 317.498,86.173"
       sodipodi:nodetypes="cc" />
  </g>
  <g
     style="display:inline;fill:#dddddd;stroke:#838383;stroke-width:6.389;stroke-miterlimit:10"
     id="g1482-7-0-25-1-3-3-20-6-9-7"
     transform="matrix(-0.1678335,-0.13842648,-0.15691572,0.25509828,366.58333,76.303369)"
     inkscape:transform-center-x="8.5078251"
     inkscape:transform-center-y="2.8895998">
    <path
       style="stroke-width:35.526"
       inkscape:connector-curvature="0"
       id="path1478-7-9-8-5-1-6-2-1-3-4"
       transform="matrix(0.4768,-0.02932,0.03214,0.42867,147.58,197.367)"
       d="m 315.1,101.79 c 10.682,-4.135 21.77,-7.738 33.127,-11.074 -8.518,-8.139 -17.577,-16.01 -27.178,-23.616 -2.04,12.119 -3.103,21.663 -5.949,34.69 z" />
    <path
       style="fill:none;stroke-width:10.649;paint-order:markers fill stroke"
       inkscape:connector-curvature="0"
       id="path1480-1-3-9-5-4-7-3-2-1-5"
       transform="matrix(0.89574,0,0,0.81736,18.384,154.236)"
       d="M 47.872715,98.401069 C 126.06599,78.448462 241.85906,64.912232 317.498,86.173"
       sodipodi:nodetypes="cc" />
  </g>
  <g
     style="display:inline;fill:#dddddd;stroke:#838383;stroke-width:6.389;stroke-miterlimit:10"
     id="g1482-7-0-25-1-3-3-20-6-9-7-2"
     transform="matrix(0.1678335,-0.13842648,0.15691572,0.25509828,220.74431,23.014489)"
     inkscape:transform-center-x="-8.5078256"
     inkscape:transform-center-y="2.8895998">
    <path
       style="stroke-width:35.526"
       inkscape:connector-curvature="0"
       id="path1478-7-9-8-5-1-6-2-1-3-4-5"
       transform="matrix(0.4768,-0.02932,0.03214,0.42867,147.58,197.367)"
       d="m 315.1,101.79 c 10.682,-4.135 21.77,-7.738 33.127,-11.074 -8.518,-8.139 -17.577,-16.01 -27.178,-23.616 -2.04,12.119 -3.103,21.663 -5.949,34.69 z" />
    <path
       style="fill:none;stroke-width:10.649;paint-order:markers fill stroke"
       inkscape:connector-curvature="0"
       id="path1480-1-3-9-5-4-7-3-2-1-5-4"
       transform="matrix(0.89574,0,0,0.81736,18.384,154.236)"
       d="M 114.81589,81.074446 C 182.75999,67.180639 241.85906,64.912232 317.498,86.173"
       sodipodi:nodetypes="cc" />
  </g>
  <g
     id="g5761"
     transform="matrix(0.78354715,0,0,0.78354715,72.048396,75.302347)">
    <circle
       cx="250.16379"
       cy="90.603348"
       r="24.6"
       id="circle3365"
       style="opacity:0.13;stroke:#000000;stroke-width:6;stroke-miterlimit:10" />
    <circle
       cx="245.36378"
       cy="84.403351"
       r="24.6"
       id="circle3379"
       style="fill:#fce600;stroke:#ffdd00;stroke-width:6;stroke-miterlimit:10" />
  </g>
  <g
     id="g4359"
     transform="matrix(0.78354715,0,0,0.78354715,124.01746,85.869669)">
    <circle
       cx="271.79999"
       cy="72.099998"
       r="24.6"
       id="circle3367"
       style="opacity:0.13;stroke:#000000;stroke-width:6;stroke-miterlimit:10" />
    <circle
       cx="264.84811"
       cy="65.602043"
       r="24.6"
       id="circle3381"
       style="fill:#39bced;stroke:#008dd2;stroke-width:6;stroke-miterlimit:10" />
  </g>
  <g
     style="fill:#a02c2c;stroke:#501616"
     transform="matrix(0.78354715,0,0,0.78354715,48.436598,-38.683162)"
     id="g5765-7">
    <g
       style="fill:#a02c2c;stroke:#501616"
       transform="translate(18.844028,-5.5675538)"
       id="g2634">
      <circle
         style="opacity:0.13;fill:#a02c2c;stroke:#501616;stroke-width:6;stroke-miterlimit:10"
         id="circle3375-5"
         r="24.6"
         cy="94.997795"
         cx="351.04132" />
      <circle
         style="fill:#a02c2c;stroke:#501616;stroke-width:6;stroke-miterlimit:10"
         id="circle3389-0"
         r="24.6"
         cy="89.982834"
         cx="346.11038" />
    </g>
  </g>
  <g
     id="g5765"
     transform="matrix(0.78354715,0,0,0.78354715,-11.696903,6.7459088)">
    <circle
       cx="351.04132"
       cy="94.997795"
       r="24.6"
       id="circle3375"
       style="opacity:0.13;stroke:#000000;stroke-width:6;stroke-miterlimit:10" />
    <circle
       cx="343.96902"
       cy="86.556648"
       r="24.6"
       id="circle3389"
       style="fill:#54b948;stroke:#00873a;stroke-width:6;stroke-miterlimit:10" />
  </g>
</svg>
