<?xml version="1.0" encoding="UTF-8" standalone="no"?>
<svg
   xmlns:dc="http://purl.org/dc/elements/1.1/"
   xmlns:cc="http://creativecommons.org/ns#"
   xmlns:rdf="http://www.w3.org/1999/02/22-rdf-syntax-ns#"
   xmlns:svg="http://www.w3.org/2000/svg"
   xmlns="http://www.w3.org/2000/svg"
   xmlns:sodipodi="http://sodipodi.sourceforge.net/DTD/sodipodi-0.dtd"
   xmlns:inkscape="http://www.inkscape.org/namespaces/inkscape"
   viewBox="0 0 595.3 250"
   version="1.1"
   id="svg3397"
   sodipodi:docname="semilattice_tree.svg"
   inkscape:version="0.92.5 (2060ec1f9f, 2020-04-08)"
   width="595.29999"
   height="250">
  <metadata
     id="metadata3403">
    <rdf:RDF>
      <cc:Work
         rdf:about="">
        <dc:format>image/svg+xml</dc:format>
        <dc:type
           rdf:resource="http://purl.org/dc/dcmitype/StillImage" />
        <dc:title />
      </cc:Work>
    </rdf:RDF>
  </metadata>
  <defs
     id="defs3401" />
  <sodipodi:namedview
     pagecolor="#ffffff"
     bordercolor="#666666"
     borderopacity="1"
     objecttolerance="10"
     gridtolerance="10"
     guidetolerance="10"
     inkscape:pageopacity="0"
     inkscape:pageshadow="2"
     inkscape:window-width="2560"
     inkscape:window-height="1376"
     id="namedview3399"
     showgrid="false"
     inkscape:zoom="1.9047929"
     inkscape:cx="107.06793"
     inkscape:cy="22.90457"
     inkscape:window-x="0"
     inkscape:window-y="27"
     inkscape:window-maximized="1"
     inkscape:current-layer="svg3397"
     inkscape:document-rotation="0"
     showguides="true"
     inkscape:guide-bbox="true" />
  <g
     id="g2760-9-8-7-3-3"
     transform="matrix(3.3686518,2.730436,-3.3686518,2.730436,306.59404,-715.40012)"
     style="fill:#cccccc;stroke-width:0.990522;stroke-miterlimit:9;stroke-dasharray:none;stroke:#9f9f9f;stroke-opacity:1">
    <g
       id="g2749-4-6-6-2"
       style="fill:#cccccc;fill-opacity:1;stroke:#9f9f9f;stroke-width:0.990522;stroke-miterlimit:9;stroke-dasharray:none;stroke-opacity:1"
       transform="rotate(-37.328029,185.78163,-63.908319)">
      <path
         style="opacity:0.12999998;fill:#cccccc;fill-opacity:1;stroke:#9f9f9f;stroke-width:0.99052203;stroke-miterlimit:9;stroke-dasharray:none;stroke-opacity:1"
         d="m 77.217642,85.453232 a 24.6,24.6 0 0 1 -24.600001,24.599998 24.6,24.6 0 0 1 -24.6,-24.599998 24.6,24.6 0 0 1 24.6,-24.600001 24.6,24.6 0 0 1 24.600001,24.600001 z"
         id="circle3369-5-5-7-0" />
      <path
         style="fill:#cccccc;fill-opacity:1;stroke:#9f9f9f;stroke-width:0.99052203;stroke-miterlimit:9;stroke-dasharray:none;stroke-opacity:1"
         d="m 76.480162,84.494919 a 24.6,24.6 0 0 1 -24.600001,24.600001 24.6,24.6 0 0 1 -24.6,-24.600001 24.6,24.6 0 0 1 24.6,-24.600001 24.6,24.6 0 0 1 24.600001,24.600001 z"
         id="circle3383-6-6-5-6" />
    </g>
  </g>
  <g
     style="display:inline;fill:#dddddd;stroke:#9f9f9f;stroke-width:6.389;stroke-miterlimit:10;stroke-opacity:1"
     id="g1482-7-0-25-1-3-3-20-6-6-5"
     transform="matrix(0.12528657,-0.17785739,0.21875,0.20456322,369.9094,8.4927373)"
     inkscape:transform-center-x="-9.0324619"
     inkscape:transform-center-y="0.77022403" />
  <g
     id="g2760-9-8-7-3-3-3"
     transform="matrix(1.5227412,1.6212572,-1.5227412,1.6212572,313.37465,-383.31223)"
     style="fill:#cccccc;stroke:#9f9f9f;stroke-width:2.44468999;stroke-miterlimit:9;stroke-dasharray:none;stroke-opacity:1">
    <g
       id="g2749-4-6-6-2-1"
       style="fill:#cccccc;fill-opacity:1;stroke:#9f9f9f;stroke-width:2.44468999;stroke-miterlimit:9;stroke-dasharray:none;stroke-opacity:1"
       transform="rotate(-37.328029,185.78163,-63.908319)">
      <path
         style="opacity:0.12999998;fill:#cccccc;fill-opacity:1;stroke:#9f9f9f;stroke-width:2.44468999;stroke-miterlimit:9;stroke-dasharray:none;stroke-opacity:1"
         d="m 77.217642,85.453232 a 24.6,24.6 0 0 1 -24.600001,24.599998 24.6,24.6 0 0 1 -24.6,-24.599998 24.6,24.6 0 0 1 24.6,-24.600001 24.6,24.6 0 0 1 24.600001,24.600001 z"
         id="circle3369-5-5-7-0-3" />
      <path
         style="fill:#cccccc;fill-opacity:1;stroke:#9f9f9f;stroke-width:2.44468999;stroke-miterlimit:9;stroke-dasharray:none;stroke-opacity:1"
         d="m 76.480162,84.494919 a 24.6,24.6 0 0 1 -24.600001,24.600001 24.6,24.6 0 0 1 -24.6,-24.600001 24.6,24.6 0 0 1 24.6,-24.600001 24.6,24.6 0 0 1 24.600001,24.600001 z"
         id="circle3383-6-6-5-6-1" />
    </g>
  </g>
  <g
     id="g2760-0-7-6"
     transform="matrix(0.5982784,0.60455561,-0.5982784,0.60455561,359.72683,27.722784)"
     style="fill:#d6c2c2;stroke:#9f9f9f;stroke-opacity:1;fill-opacity:1">
    <g
       id="g2749-6-8-1"
       style="fill:#d6c2c2;fill-opacity:1;stroke:#9f9f9f;stroke-opacity:1"
       transform="rotate(-44.545114,52.727379,84.306425)">
      <path
         style="opacity:0.12999998;fill:#d6c2c2;fill-opacity:1;stroke:#9f9f9f;stroke-width:6;stroke-miterlimit:10;stroke-opacity:1"
         d="m 80.040796,90.58149 a 24.6,24.6 0 0 1 -24.6,24.6 24.6,24.6 0 0 1 -24.6,-24.6 24.6,24.6 0 0 1 24.6,-24.600001 24.6,24.6 0 0 1 24.6,24.600001 z"
         id="circle3369-33-3-6-0" />
      <path
         style="fill:#d6c2c2;fill-opacity:1;stroke:#9f9f9f;stroke-width:6;stroke-miterlimit:10;stroke-opacity:1"
         d="m 76.107595,84.367409 a 24.6,24.6 0 0 1 -24.6,24.600001 24.6,24.6 0 0 1 -24.6,-24.600001 24.6,24.6 0 0 1 24.6,-24.600001 24.6,24.6 0 0 1 24.6,24.600001 z"
         id="circle3383-85-2-8-6" />
    </g>
  </g>
  <g
     id="g2760-0-7-6-3"
     transform="matrix(0.5982784,0.60455561,-0.5982784,0.60455561,407.91624,28.291495)"
     style="fill:#d6c2c2;stroke:#9f9f9f;stroke-opacity:1;fill-opacity:1">
    <g
       id="g2749-6-8-1-2"
       style="fill:#d6c2c2;fill-opacity:1;stroke:#9f9f9f;stroke-opacity:1"
       transform="rotate(-44.545114,52.727379,84.306425)">
      <path
         style="opacity:0.12999998;fill:#d6c2c2;fill-opacity:1;stroke:#9f9f9f;stroke-width:6;stroke-miterlimit:10;stroke-opacity:1"
         d="m 80.040796,90.58149 a 24.6,24.6 0 0 1 -24.6,24.6 24.6,24.6 0 0 1 -24.6,-24.6 24.6,24.6 0 0 1 24.6,-24.600001 24.6,24.6 0 0 1 24.6,24.600001 z"
         id="circle3369-33-3-6-0-7" />
      <path
         style="fill:#d6c2c2;fill-opacity:1;stroke:#9f9f9f;stroke-width:6;stroke-miterlimit:10;stroke-opacity:1"
         d="m 76.107595,84.367409 a 24.6,24.6 0 0 1 -24.6,24.600001 24.6,24.6 0 0 1 -24.6,-24.600001 24.6,24.6 0 0 1 24.6,-24.600001 24.6,24.6 0 0 1 24.6,24.600001 z"
         id="circle3383-85-2-8-6-2" />
    </g>
  </g>
  <g
     id="g2760-9-8-7-3-3-3-6"
     transform="matrix(1.5227412,1.6212572,-1.5227412,1.6212572,423.72923,-369.92476)"
     style="fill:#cccccc;stroke:#9f9f9f;stroke-width:2.44468999;stroke-miterlimit:9;stroke-dasharray:none;stroke-opacity:1">
    <g
       id="g2749-4-6-6-2-1-2"
       style="fill:#cccccc;fill-opacity:1;stroke:#9f9f9f;stroke-width:2.44468999;stroke-miterlimit:9;stroke-dasharray:none;stroke-opacity:1"
       transform="rotate(-37.328029,185.78163,-63.908319)">
      <path
         style="opacity:0.12999998;fill:#cccccc;fill-opacity:1;stroke:#9f9f9f;stroke-width:2.44468999;stroke-miterlimit:9;stroke-dasharray:none;stroke-opacity:1"
         d="m 77.217642,85.453232 a 24.6,24.6 0 0 1 -24.600001,24.599998 24.6,24.6 0 0 1 -24.6,-24.599998 24.6,24.6 0 0 1 24.6,-24.600001 24.6,24.6 0 0 1 24.600001,24.600001 z"
         id="circle3369-5-5-7-0-3-7" />
      <path
         style="fill:#cccccc;fill-opacity:1;stroke:#9f9f9f;stroke-width:2.44468999;stroke-miterlimit:9;stroke-dasharray:none;stroke-opacity:1"
         d="m 76.480162,84.494919 a 24.6,24.6 0 0 1 -24.600001,24.600001 24.6,24.6 0 0 1 -24.6,-24.600001 24.6,24.6 0 0 1 24.6,-24.600001 24.6,24.6 0 0 1 24.600001,24.600001 z"
         id="circle3383-6-6-5-6-1-3" />
    </g>
  </g>
  <path
     transform="matrix(0.99393043,0.11001042,-0.16178721,0.98682567,0,0)"
     style="opacity:0.12999998;fill:#cccccc;fill-opacity:1;stroke:#9f9f9f;stroke-width:4.19109869;stroke-miterlimit:9;stroke-dasharray:none;stroke-opacity:1"
     d="M 291.8362,101.57922 A 114.41885,94.68914 0 0 1 177.41734,196.26836 114.41885,94.68914 0 0 1 62.998489,101.57922 114.41885,94.68914 0 0 1 177.41734,6.8900833 114.41885,94.68914 0 0 1 291.8362,101.57922 Z"
     id="circle3369-5-5-7-0-6" />
  <path
     transform="matrix(0.99393043,0.11001042,-0.16178721,0.98682567,0,0)"
     style="fill:#cccccc;fill-opacity:1;stroke:#9f9f9f;stroke-width:4.19109869;stroke-miterlimit:9;stroke-dasharray:none;stroke-opacity:1"
     d="M 288.40605,97.890526 A 114.41885,94.68914 0 0 1 173.9872,192.57967 114.41885,94.68914 0 0 1 59.568344,97.890526 114.41885,94.68914 0 0 1 173.9872,3.2013855 114.41885,94.68914 0 0 1 288.40605,97.890526 Z"
     id="circle3383-6-6-5-6-7" />
  <g
     id="g2760-9-8-7-3-3-3-6-4"
     transform="matrix(1.8276804,1.67029,-1.8276804,1.67029,121.70212,-390.99582)"
     style="fill:#cccccc;fill-opacity:1;stroke:#9f9f9f;stroke-width:2.44468999;stroke-miterlimit:9;stroke-dasharray:none;stroke-opacity:1">
    <g
       id="g2749-4-6-6-2-1-2-8"
       style="fill:#cccccc;fill-opacity:1;stroke:#9f9f9f;stroke-width:2.44468999;stroke-miterlimit:9;stroke-dasharray:none;stroke-opacity:1"
       transform="rotate(-37.328029,185.78163,-63.908319)">
      <path
         style="opacity:0.12999998;fill:#cccccc;fill-opacity:1;stroke:#9f9f9f;stroke-width:2.44468999;stroke-miterlimit:9;stroke-dasharray:none;stroke-opacity:1"
         d="m 77.217642,85.453232 a 24.6,24.6 0 0 1 -24.600001,24.599998 24.6,24.6 0 0 1 -24.6,-24.599998 24.6,24.6 0 0 1 24.6,-24.600001 24.6,24.6 0 0 1 24.600001,24.600001 z"
         id="circle3369-5-5-7-0-3-7-8" />
      <path
         style="fill:#cccccc;fill-opacity:1;stroke:#9f9f9f;stroke-width:2.44468999;stroke-miterlimit:9;stroke-dasharray:none;stroke-opacity:1"
         d="m 76.480162,84.494919 a 24.6,24.6 0 0 1 -24.600001,24.600001 24.6,24.6 0 0 1 -24.6,-24.600001 24.6,24.6 0 0 1 24.6,-24.600001 24.6,24.6 0 0 1 24.600001,24.600001 z"
         id="circle3383-6-6-5-6-1-3-0" />
    </g>
  </g>
  <g
     id="g2760-9-8-7-3-3-3-7"
     transform="matrix(1.8276804,1.67029,-1.8276804,1.67029,65.654317,-399.52046)"
     style="fill:none;stroke:#9f9f9f;stroke-width:2.44468999;stroke-miterlimit:9;stroke-dasharray:none;stroke-opacity:1">
    <g
       id="g2749-4-6-6-2-1-7"
       style="fill:none;fill-opacity:1;stroke:#9f9f9f;stroke-width:2.44468999;stroke-miterlimit:9;stroke-dasharray:none;stroke-opacity:1"
       transform="rotate(-37.328029,185.78163,-63.908319)">
      <path
         style="opacity:0.12999998;fill:none;fill-opacity:1;stroke:#9f9f9f;stroke-width:2.44468999;stroke-miterlimit:9;stroke-dasharray:none;stroke-opacity:1"
         d="m 77.217642,85.453232 a 24.6,24.6 0 0 1 -24.600001,24.599998 24.6,24.6 0 0 1 -24.6,-24.599998 24.6,24.6 0 0 1 24.6,-24.600001 24.6,24.6 0 0 1 24.600001,24.600001 z"
         id="circle3369-5-5-7-0-3-6" />
      <path
         style="fill:none;fill-opacity:1;stroke:#9f9f9f;stroke-width:2.44468999;stroke-miterlimit:9;stroke-dasharray:none;stroke-opacity:1"
         d="m 76.480162,84.494919 a 24.6,24.6 0 0 1 -24.600001,24.600001 24.6,24.6 0 0 1 -24.6,-24.600001 24.6,24.6 0 0 1 24.6,-24.600001 24.6,24.6 0 0 1 24.600001,24.600001 z"
         id="circle3383-6-6-5-6-1-35" />
    </g>
  </g>
  <g
     id="g2760-0-7-6-31"
     transform="matrix(0.63168141,0.62421136,-0.63168141,0.62421136,114.57617,21.009865)"
     style="fill:#e1d2b7;fill-opacity:1;stroke:#9f9f9f;stroke-opacity:1">
    <g
       id="g2749-6-8-1-5"
       style="fill:#e1d2b7;fill-opacity:1;stroke:#9f9f9f;stroke-opacity:1"
       transform="rotate(-44.545114,52.727379,84.306425)">
      <path
         style="opacity:0.12999998;fill:#e1d2b7;fill-opacity:1;stroke:#9f9f9f;stroke-width:6;stroke-miterlimit:10;stroke-opacity:1"
         d="m 80.040796,90.58149 a 24.6,24.6 0 0 1 -24.6,24.6 24.6,24.6 0 0 1 -24.6,-24.6 24.6,24.6 0 0 1 24.6,-24.600001 24.6,24.6 0 0 1 24.6,24.600001 z"
         id="circle3369-33-3-6-0-70" />
      <path
         style="fill:#e1d2b7;fill-opacity:1;stroke:#9f9f9f;stroke-width:6;stroke-miterlimit:10;stroke-opacity:1"
         d="m 76.107595,84.367409 a 24.6,24.6 0 0 1 -24.6,24.600001 24.6,24.6 0 0 1 -24.6,-24.600001 24.6,24.6 0 0 1 24.6,-24.600001 24.6,24.6 0 0 1 24.6,24.600001 z"
         id="circle3383-85-2-8-6-3" />
    </g>
  </g>
  <g
     id="g2760-0-7-6-3-4"
     transform="matrix(0.63168141,0.62421136,-0.63168141,0.62421136,175.99277,25.336762)"
     style="fill:#e1d2b7;fill-opacity:1;stroke:#9f9f9f;stroke-opacity:1">
    <g
       id="g2749-6-8-1-2-7"
       style="fill:#e1d2b7;fill-opacity:1;stroke:#9f9f9f;stroke-opacity:1"
       transform="rotate(-44.545114,52.727379,84.306425)">
      <path
         style="opacity:0.12999998;fill:#e1d2b7;fill-opacity:1;stroke:#9f9f9f;stroke-width:6;stroke-miterlimit:10;stroke-opacity:1"
         d="m 80.040796,90.58149 a 24.6,24.6 0 0 1 -24.6,24.6 24.6,24.6 0 0 1 -24.6,-24.6 24.6,24.6 0 0 1 24.6,-24.600001 24.6,24.6 0 0 1 24.6,24.600001 z"
         id="circle3369-33-3-6-0-7-6" />
      <path
         style="fill:#e1d2b7;fill-opacity:1;stroke:#9f9f9f;stroke-width:6;stroke-miterlimit:10;stroke-opacity:1"
         d="m 76.107595,84.367409 a 24.6,24.6 0 0 1 -24.6,24.600001 24.6,24.6 0 0 1 -24.6,-24.600001 24.6,24.6 0 0 1 24.6,-24.600001 24.6,24.6 0 0 1 24.6,24.600001 z"
         id="circle3383-85-2-8-6-2-0" />
    </g>
  </g>
  <g
     aria-label="tree"
     style="font-style:normal;font-weight:normal;font-size:20.39859962px;line-height:1.25;font-family:sans-serif;fill:#666666;fill-opacity:1;stroke:none;stroke-width:0.50996703;stroke-opacity:1"
     id="text19660">
    <path
       d="m 405.01915,220.85669 v 3.16736 h 3.67534 v 2.54983 h -3.67534 v 4.73112 q 0,0.7769 0.30877,1.05578 0.30877,0.26893 1.22511,0.26893 h 1.83269 v 2.54982 h -3.0578 q -2.11157,0 -2.99804,-0.8765 -0.8765,-0.88646 -0.8765,-2.99803 v -4.73112 h -1.77292 v -2.54983 h 1.77292 v -3.16736 z"
       style="font-style:normal;font-variant:normal;font-weight:bold;font-stretch:normal;font-family:sans-serif;-inkscape-font-specification:'sans-serif Bold';fill:#666666;stroke:none;stroke-width:0.50996703;stroke-opacity:1"
       id="path160107" />
    <path
       d="m 419.16271,227.06193 q -0.46813,-0.21913 -0.93626,-0.31873 -0.45817,-0.10956 -0.92631,-0.10956 -1.37451,0 -2.12153,0.88646 -0.73706,0.8765 -0.73706,2.51994 v 5.13949 h -3.56577 v -11.15548 h 3.56577 v 1.83269 q 0.68726,-1.09563 1.57372,-1.59364 0.89643,-0.50798 2.14146,-0.50798 0.17928,0 0.38845,0.0199 0.20916,0.01 0.60757,0.0598 z"
       style="font-style:normal;font-variant:normal;font-weight:bold;font-stretch:normal;font-family:sans-serif;-inkscape-font-specification:'sans-serif Bold';fill:#666666;stroke:none;stroke-width:0.50996703;stroke-opacity:1"
       id="path160109" />
    <path
       d="m 432.0712,229.57191 v 1.01595 h -8.33673 q 0.12948,1.25499 0.90638,1.88249 0.7769,0.62749 2.17134,0.62749 1.12551,0 2.30082,-0.32869 1.18527,-0.33865 2.4303,-1.01594 v 2.74903 q -1.26496,0.47809 -2.52991,0.71714 -1.26495,0.249 -2.5299,0.249 -3.02792,0 -4.7112,-1.53388 -1.67332,-1.54384 -1.67332,-4.32275 0,-2.72911 1.64344,-4.29287 1.6534,-1.56376 4.54187,-1.56376 2.62951,0 4.20323,1.58368 1.58368,1.58368 1.58368,4.23311 z m -3.66537,-1.18527 q 0,-1.01594 -0.59762,-1.63348 -0.58765,-0.6275 -1.54384,-0.6275 -1.03586,0 -1.68328,0.58766 -0.64742,0.57769 -0.80678,1.67332 z"
       style="font-style:normal;font-variant:normal;font-weight:bold;font-stretch:normal;font-family:sans-serif;-inkscape-font-specification:'sans-serif Bold';fill:#666666;stroke:none;stroke-width:0.50996703;stroke-opacity:1"
       id="path160111" />
    <path
       d="m 445.90599,229.57191 v 1.01595 h -8.33673 q 0.12948,1.25499 0.90638,1.88249 0.7769,0.62749 2.17134,0.62749 1.12551,0 2.30082,-0.32869 1.18527,-0.33865 2.4303,-1.01594 v 2.74903 q -1.26495,0.47809 -2.5299,0.71714 -1.26496,0.249 -2.52991,0.249 -3.02792,0 -4.7112,-1.53388 -1.67332,-1.54384 -1.67332,-4.32275 0,-2.72911 1.64344,-4.29287 1.6534,-1.56376 4.54188,-1.56376 2.6295,0 4.20322,1.58368 1.58368,1.58368 1.58368,4.23311 z m -3.66537,-1.18527 q 0,-1.01594 -0.59762,-1.63348 -0.58765,-0.6275 -1.54383,-0.6275 -1.03587,0 -1.68329,0.58766 -0.64741,0.57769 -0.80678,1.67332 z"
       style="font-style:normal;font-variant:normal;font-weight:bold;font-stretch:normal;font-family:sans-serif;-inkscape-font-specification:'sans-serif Bold';fill:#666666;stroke:none;stroke-width:0.50996703;stroke-opacity:1"
       id="path160113" />
  </g>
  <g
     aria-label="semilattice"
     style="font-style:normal;font-weight:normal;font-size:20.39859962px;line-height:1.25;font-family:sans-serif;fill:#666666;fill-opacity:1;stroke:none;stroke-width:0.50996703;stroke-opacity:1"
     id="text19660-3">
    <path
       d="m 111.36541,224.23503 v 2.70918 q -1.14543,-0.47809 -2.21117,-0.71713 -1.06575,-0.23905 -2.01197,-0.23905 -1.01595,0 -1.51396,0.25897 -0.48806,0.249 -0.48806,0.7769 0,0.42829 0.36853,0.65737 0.37849,0.22909 1.34464,0.33865 l 0.62749,0.0896 q 2.73907,0.34861 3.6853,1.14543 0.94622,0.79682 0.94622,2.50003 0,1.78288 -1.31475,2.67931 -1.31476,0.89642 -3.92434,0.89642 -1.10559,0 -2.29086,-0.17929 -1.17531,-0.16932 -2.42034,-0.51793 v -2.70919 q 1.06575,0.51793 2.18129,0.7769 1.12551,0.25897 2.2809,0.25897 1.04583,0 1.57372,-0.28885 0.5279,-0.28885 0.5279,-0.85658 0,-0.47809 -0.36853,-0.70718 -0.35857,-0.23905 -1.44424,-0.36853 l -0.6275,-0.0797 q -2.3805,-0.29881 -3.33668,-1.10559 -0.95619,-0.80678 -0.95619,-2.45022 0,-1.77293 1.21515,-2.62951 1.21516,-0.85658 3.72514,-0.85658 0.98606,0 2.07173,0.1494 1.08567,0.14941 2.36058,0.46814 z"
       style="font-style:normal;font-variant:normal;font-weight:bold;font-stretch:normal;font-family:sans-serif;-inkscape-font-specification:'sans-serif Bold';fill:#666666;stroke:none;stroke-width:0.50996703;stroke-opacity:1"
       id="path160116" />
    <path
       d="m 125.9273,229.43428 v 1.01594 h -8.33673 q 0.12948,1.255 0.90638,1.88249 0.7769,0.6275 2.17134,0.6275 1.12551,0 2.30082,-0.32869 1.18527,-0.33865 2.4303,-1.01595 v 2.74903 q -1.26495,0.4781 -2.5299,0.71714 -1.26496,0.24901 -2.52991,0.24901 -3.02792,0 -4.7112,-1.53388 -1.67332,-1.54384 -1.67332,-4.32275 0,-2.72911 1.64344,-4.29287 1.6534,-1.56376 4.54188,-1.56376 2.6295,0 4.20322,1.58368 1.58368,1.58368 1.58368,4.23311 z m -3.66537,-1.18527 q 0,-1.01595 -0.59762,-1.63348 -0.58765,-0.6275 -1.54383,-0.6275 -1.03587,0 -1.68329,0.58765 -0.64741,0.5777 -0.80678,1.67333 z"
       style="font-style:normal;font-variant:normal;font-weight:bold;font-stretch:normal;font-family:sans-serif;-inkscape-font-specification:'sans-serif Bold';fill:#666666;stroke:none;stroke-width:0.50996703;stroke-opacity:1"
       id="path160118" />
    <path
       d="m 138.96528,225.73902 q 0.67729,-1.03586 1.6036,-1.57372 0.93626,-0.54781 2.05181,-0.54781 1.92233,0 2.92831,1.18527 1.00599,1.18527 1.00599,3.44625 v 6.79289 h -3.58569 v -5.81679 q 0.01,-0.12948 0.01,-0.26892 0.01,-0.13945 0.01,-0.39841 0,-1.18527 -0.34861,-1.71317 -0.34861,-0.53785 -1.12551,-0.53785 -1.01595,0 -1.57372,0.83666 -0.54781,0.83666 -0.56773,2.42034 v 5.47814 h -3.5857 v -5.81679 q 0,-1.8526 -0.31872,-2.3805 -0.31873,-0.53785 -1.13547,-0.53785 -1.02591,0 -1.58368,0.84662 -0.55778,0.83666 -0.55778,2.40042 v 5.4881 h -3.58569 v -11.15548 h 3.58569 v 1.63348 q 0.65738,-0.94623 1.504,-1.42432 0.85658,-0.47809 1.88249,-0.47809 1.15539,0 2.04185,0.55777 0.88646,0.55778 1.34464,1.56376 z"
       style="font-style:normal;font-variant:normal;font-weight:bold;font-stretch:normal;font-family:sans-serif;-inkscape-font-specification:'sans-serif Bold';fill:#666666;stroke:none;stroke-width:0.50996703;stroke-opacity:1"
       id="path160120" />
    <path
       d="m 149.88171,223.88642 h 3.56577 v 11.15548 h -3.56577 z m 0,-4.34267 h 3.56577 v 2.90839 h -3.56577 z"
       style="font-style:normal;font-variant:normal;font-weight:bold;font-stretch:normal;font-family:sans-serif;-inkscape-font-specification:'sans-serif Bold';fill:#666666;stroke:none;stroke-width:0.50996703;stroke-opacity:1"
       id="path160122" />
    <path
       d="m 156.87381,219.54375 h 3.56577 v 15.49815 h -3.56577 z"
       style="font-style:normal;font-variant:normal;font-weight:bold;font-stretch:normal;font-family:sans-serif;-inkscape-font-specification:'sans-serif Bold';fill:#666666;stroke:none;stroke-width:0.50996703;stroke-opacity:1"
       id="path160124" />
    <path
       d="m 168.86596,230.02193 q -1.11555,0 -1.68328,0.37849 -0.55778,0.37849 -0.55778,1.11555 0,0.6773 0.44821,1.06575 0.45818,0.37849 1.26496,0.37849 1.00598,0 1.69324,-0.71714 0.68726,-0.7271 0.68726,-1.81277 v -0.40837 z m 5.44826,-1.34463 v 6.3646 h -3.59565 v -1.6534 q -0.71714,1.01594 -1.61356,1.48408 -0.89643,0.45817 -2.1813,0.45817 -1.73308,0 -2.81875,-1.00599 -1.07571,-1.01594 -1.07571,-2.6295 0,-1.96217 1.34463,-2.87852 1.3546,-0.91634 4.24307,-0.91634 h 2.10162 v -0.27889 q 0,-0.84662 -0.66734,-1.23507 -0.66734,-0.39841 -2.08169,-0.39841 -1.14543,0 -2.1315,0.22909 -0.98606,0.22908 -1.83268,0.68725 v -2.71915 q 1.14542,-0.27888 2.30081,-0.41833 1.15539,-0.1494 2.31078,-0.1494 3.01796,0 4.35263,1.19523 1.34464,1.18527 1.34464,3.86458 z"
       style="font-style:normal;font-variant:normal;font-weight:bold;font-stretch:normal;font-family:sans-serif;-inkscape-font-specification:'sans-serif Bold';fill:#666666;stroke:none;stroke-width:0.50996703;stroke-opacity:1"
       id="path160126" />
    <path
       d="m 181.52544,220.71906 v 3.16736 h 3.67533 v 2.54982 h -3.67533 v 4.73112 q 0,0.7769 0.30877,1.05579 0.30876,0.26893 1.22511,0.26893 h 1.83268 v 2.54982 h -3.05779 q -2.11158,0 -2.99804,-0.8765 -0.8765,-0.88646 -0.8765,-2.99804 v -4.73112 h -1.77293 v -2.54982 h 1.77293 v -3.16736 z"
       style="font-style:normal;font-variant:normal;font-weight:bold;font-stretch:normal;font-family:sans-serif;-inkscape-font-specification:'sans-serif Bold';fill:#666666;stroke:none;stroke-width:0.50996703;stroke-opacity:1"
       id="path160128" />
    <path
       d="m 191.27653,220.71906 v 3.16736 h 3.67533 v 2.54982 h -3.67533 v 4.73112 q 0,0.7769 0.30877,1.05579 0.30877,0.26893 1.22511,0.26893 h 1.83269 v 2.54982 h -3.0578 q -2.11158,0 -2.99804,-0.8765 -0.8765,-0.88646 -0.8765,-2.99804 v -4.73112 h -1.77293 v -2.54982 h 1.77293 v -3.16736 z"
       style="font-style:normal;font-variant:normal;font-weight:bold;font-stretch:normal;font-family:sans-serif;-inkscape-font-specification:'sans-serif Bold';fill:#666666;stroke:none;stroke-width:0.50996703;stroke-opacity:1"
       id="path160130" />
    <path
       d="m 197.13316,223.88642 h 3.56577 v 11.15548 h -3.56577 z m 0,-4.34267 h 3.56577 v 2.90839 h -3.56577 z"
       style="font-style:normal;font-variant:normal;font-weight:bold;font-stretch:normal;font-family:sans-serif;-inkscape-font-specification:'sans-serif Bold';fill:#666666;stroke:none;stroke-width:0.50996703;stroke-opacity:1"
       id="path160132" />
    <path
       d="m 213.13929,224.23503 v 2.90839 q -0.7271,-0.49801 -1.46416,-0.73706 -0.7271,-0.23905 -1.51396,-0.23905 -1.49404,0 -2.3307,0.87651 -0.8267,0.86654 -0.8267,2.4303 0,1.56376 0.8267,2.44026 0.83666,0.86654 2.3307,0.86654 0.83666,0 1.58368,-0.249 0.75698,-0.24901 1.39444,-0.73706 v 2.91835 q -0.83666,0.30877 -1.70321,0.45817 -0.85658,0.15937 -1.72312,0.15937 -3.01796,0 -4.72116,-1.54384 -1.7032,-1.5538 -1.7032,-4.31279 0,-2.75899 1.7032,-4.30283 1.7032,-1.5538 4.72116,-1.5538 0.8765,0 1.72312,0.15936 0.85659,0.14941 1.70321,0.45818 z"
       style="font-style:normal;font-variant:normal;font-weight:bold;font-stretch:normal;font-family:sans-serif;-inkscape-font-specification:'sans-serif Bold';fill:#666666;stroke:none;stroke-width:0.50996703;stroke-opacity:1"
       id="path160134" />
    <path
       d="m 227.35256,229.43428 v 1.01594 h -8.33673 q 0.12949,1.255 0.90639,1.88249 0.7769,0.6275 2.17133,0.6275 1.12551,0 2.30082,-0.32869 1.18527,-0.33865 2.4303,-1.01595 v 2.74903 q -1.26495,0.4781 -2.5299,0.71714 -1.26496,0.24901 -2.52991,0.24901 -3.02791,0 -4.7112,-1.53388 -1.67332,-1.54384 -1.67332,-4.32275 0,-2.72911 1.64344,-4.29287 1.6534,-1.56376 4.54188,-1.56376 2.6295,0 4.20322,1.58368 1.58368,1.58368 1.58368,4.23311 z m -3.66537,-1.18527 q 0,-1.01595 -0.59761,-1.63348 -0.58766,-0.6275 -1.54384,-0.6275 -1.03587,0 -1.68329,0.58765 -0.64741,0.5777 -0.80678,1.67333 z"
       style="font-style:normal;font-variant:normal;font-weight:bold;font-stretch:normal;font-family:sans-serif;-inkscape-font-specification:'sans-serif Bold';fill:#666666;stroke:none;stroke-width:0.50996703;stroke-opacity:1"
       id="path160136" />
  </g>
</svg>
