<?xml version="1.0" encoding="UTF-8" standalone="no"?>
<svg
   xmlns:ns1="&amp;#38;#38;#38;ns_ai;"
   xmlns:dc="http://purl.org/dc/elements/1.1/"
   xmlns:cc="http://creativecommons.org/ns#"
   xmlns:rdf="http://www.w3.org/1999/02/22-rdf-syntax-ns#"
   xmlns:svg="http://www.w3.org/2000/svg"
   xmlns="http://www.w3.org/2000/svg"
   xmlns:sodipodi="http://sodipodi.sourceforge.net/DTD/sodipodi-0.dtd"
   xmlns:inkscape="http://www.inkscape.org/namespaces/inkscape"
   width="595.3"
   height="200"
   version="1.1"
   id="svg2850"
   sodipodi:docname="set_arrows.svg"
   inkscape:version="0.92.5 (2060ec1f9f, 2020-04-08)">
  <metadata
     id="metadata2856">
    <rdf:RDF>
      <cc:Work
         rdf:about="">
        <dc:format>image/svg+xml</dc:format>
        <dc:type
           rdf:resource="http://purl.org/dc/dcmitype/StillImage" />
        <dc:title />
      </cc:Work>
    </rdf:RDF>
  </metadata>
  <defs
     id="defs2854" />
  <sodipodi:namedview
     pagecolor="#ffffff"
     bordercolor="#666666"
     borderopacity="1"
     objecttolerance="10"
     gridtolerance="10"
     guidetolerance="10"
     inkscape:pageopacity="0"
     inkscape:pageshadow="2"
     inkscape:window-width="1871"
     inkscape:window-height="818"
     id="namedview2852"
     showgrid="false"
     inkscape:zoom="1.4547878"
     inkscape:cx="260.87487"
     inkscape:cy="100"
     inkscape:window-x="0"
     inkscape:window-y="27"
     inkscape:window-maximized="0"
     inkscape:current-layer="g2846"
     inkscape:document-rotation="0" />
  <switch
     transform="translate(0 -159)"
     id="switch2848">
    <g
       ns1:extraneous="self"
       id="g2846"
       transform="translate(-1.0910201,3.9272465)">
      <path
         d="m 182.118,208.736 c 0,0 2.582,-0.721 7.045,-1.815 2.348,-0.605 4.93,-1.326 8.101,-2.06 3.172,-0.734 6.577,-1.583 10.573,-2.446 15.392,-3.436 36.222,-6.77 57.093,-8.44 20.87,-1.672 42.14,-1.579 57.998,-0.481 7.813,0.606 14.554,0.903 19.058,1.47 l 2.842,0.272 3.671,-28.452 c 20.292,13.192 38.84,27.53 55.052,43.028 -22.313,5.471 -43.514,12.913 -63.027,21.759 l 3.438,-28.337 -2.842,-0.27 c -4.504,-0.568 -11.012,-0.981 -18.701,-1.369 -15.502,-0.994 -36.18,-1.1 -56.694,0.674 -20.637,1.556 -40.877,4.876 -56.036,8.197 -3.762,0.746 -7.167,1.596 -10.34,2.33 -3.171,0.733 -5.753,1.454 -7.867,1.943 -4.463,1.095 -6.81,1.7 -6.81,1.7 z"
         fill="#9d539f"
         stroke-width="0.3"
         id="path2810" />
      <path
         d="m 163.095,248.33 c 0,0 2.758,-0.678 7.525,-1.707 2.508,-0.569 5.266,-1.246 8.654,-1.936 3.389,-0.69 7.026,-1.489 11.295,-2.3 16.442,-3.23 38.693,-6.364 60.988,-7.935 22.295,-1.571 45.015,-1.484 61.955,-0.452 8.346,0.57 15.548,0.85 20.359,1.383 l 3.036,0.255 3.921,-26.75 c 21.676,12.404 41.49,25.884 58.809,40.454 -23.836,5.143 -46.484,12.14 -67.328,20.456 l 3.672,-26.64 -3.036,-0.255 c -4.81,-0.533 -11.763,-0.922 -19.977,-1.286 -16.559,-0.935 -38.648,-1.035 -60.562,0.633 -22.045,1.463 -43.665,4.584 -59.859,7.706 -4.019,0.702 -7.656,1.5 -11.045,2.19 -3.388,0.69 -6.146,1.368 -8.405,1.828 a 795.395,795.395 0 0 0 -7.275,1.597 z"
         fill="#e90909"
         stroke-width="0.3"
         id="path2812" />
      <path
         style="opacity:0.12999998;stroke:#000000;stroke-width:20.33860016;stroke-miterlimit:10"
         d="m 576.03719,260.71967 a 83.388321,83.388321 0 0 1 -83.38833,83.38832 83.388321,83.388321 0 0 1 -83.38832,-83.38832 83.388321,83.388321 0 0 1 83.38832,-83.38833 83.388321,83.388321 0 0 1 83.38833,83.38833 z"
         id="circle268" />
      <path
         d="m 155.226,317.83 c 0,0 2.964,0.743 8.088,1.869 2.696,0.622 5.66,1.365 9.302,2.12 3.642,0.754 7.552,1.628 12.14,2.514 17.672,3.532 41.582,6.94 65.534,8.622 23.952,1.682 48.354,1.528 66.546,0.344 8.962,-0.651 16.696,-0.979 21.861,-1.58 l 3.26,-0.29 4.308,29.573 c 23.238,-13.771 44.47,-28.73 63.02,-44.887 -25.62,-5.628 -49.97,-13.308 -72.388,-22.453 l 4.04,29.453 -3.26,0.29 c -5.166,0.601 -12.632,1.048 -21.452,1.472 -17.783,1.075 -41.508,1.241 -65.05,-0.548 -23.684,-1.562 -46.918,-4.96 -64.322,-8.372 -4.319,-0.766 -8.229,-1.64 -11.87,-2.394 -3.643,-0.755 -6.607,-1.497 -9.035,-2 -5.124,-1.126 -7.82,-1.748 -7.82,-1.748 z"
         fill="#0e2db8"
         stroke-width="0.3"
         id="path2814" />
      <path
         d="m 181.978,289.46 c 0,0 2.575,0.472 7.009,1.13 2.336,0.377 4.91,0.849 8.057,1.271 3.147,0.423 6.532,0.94 10.489,1.41 15.255,1.923 35.752,3.17 56.103,2.7 20.35,-0.47 40.888,-2.798 56.087,-5.592 7.48,-1.445 13.96,-2.459 18.247,-3.516 l 2.716,-0.577 6.73,28.917 c 18.128,-15.716 34.442,-32.43 48.372,-50.093 -22.17,-3.292 -43.485,-8.731 -63.326,-15.793 l 6.492,28.822 -2.716,0.578 c -4.287,1.057 -10.529,2.165 -17.914,3.371 -14.865,2.651 -34.831,4.931 -54.848,5.257 -20.112,0.564 -40.038,-0.731 -55.055,-2.56 -3.718,-0.374 -7.103,-0.892 -10.25,-1.314 -3.146,-0.423 -5.72,-0.894 -7.818,-1.176 -4.434,-0.659 -6.77,-1.035 -6.77,-1.035 z"
         fill="#04bd3d"
         stroke-width="0.3"
         id="path2816" />
      <path
         style="opacity:0.12999998;stroke:#000000;stroke-width:20.33860016;stroke-miterlimit:10"
         d="m 203.73997,260.81131 a 83.388321,83.388321 0 0 1 -83.38832,83.38832 83.388321,83.388321 0 0 1 -83.388324,-83.38832 83.388321,83.388321 0 0 1 83.388324,-83.38832 83.388321,83.388321 0 0 1 83.38832,83.38832 z"
         id="circle268-6" />
      <path
         transform="rotate(22.196)"
         style="fill:#dbdb8b;stroke:#878578;stroke-width:10.54399967;stroke-miterlimit:10"
         d="m 286.97105,192.70348 a 89.626999,89.626999 0 0 1 -89.62699,89.62699 89.626999,89.626999 0 0 1 -89.627,-89.62699 89.626999,89.626999 0 0 1 89.627,-89.627 89.626999,89.626999 0 0 1 89.62699,89.627 z"
         id="circle2818" />
      <g
         aria-label="isEven"
         transform="rotate(-4.889)"
         style="font-weight:700;font-size:26.66699982px;line-height:1.25;font-family:sans-serif;-inkscape-font-specification:'sans-serif, Bold';font-variant-ligatures:normal;font-variant-caps:normal;font-variant-numeric:normal;font-feature-settings:normal;text-align:start;letter-spacing:0;word-spacing:0;fill:#9d539f"
         id="text2822">
        <path
           d="m 201.65662,201.58148 h 4.66152 v 14.58351 h -4.66152 z m 0,-5.67716 h 4.66152 v 3.80213 h -4.66152 z"
           style=""
           id="path161179" />
        <path
           d="m 222.19073,202.03721 v 3.54171 q -1.49741,-0.625 -2.89066,-0.93751 -1.39325,-0.3125 -2.63024,-0.3125 -1.32814,0 -1.97919,0.33854 -0.63803,0.32553 -0.63803,1.01564 0,0.5599 0.48177,0.85939 0.4948,0.29948 1.75784,0.44271 l 0.82032,0.11719 q 3.58078,0.45573 4.81777,1.49741 1.23699,1.04168 1.23699,3.26827 0,2.33076 -1.71877,3.50265 -1.71877,1.17189 -5.13027,1.17189 -1.44533,0 -2.99483,-0.23438 -1.53648,-0.22135 -3.1641,-0.67709 v -3.54171 q 1.39325,0.67709 2.8516,1.01564 1.47137,0.33855 2.98181,0.33855 1.3672,0 2.05731,-0.37761 0.69012,-0.37761 0.69012,-1.11981 0,-0.62501 -0.48178,-0.92449 -0.46876,-0.3125 -1.88805,-0.48178 l -0.82032,-0.10416 q -3.11202,-0.39063 -4.36203,-1.44534 -1.25002,-1.0547 -1.25002,-3.20316 0,-2.31774 1.58856,-3.43754 1.58857,-1.11981 4.86986,-1.11981 1.28908,0 2.70836,0.19532 1.41929,0.19531 3.08598,0.61198 z"
           style=""
           id="path161181" />
        <path
           d="m 226.87829,196.72465 h 13.52881 v 3.78911 h -8.51573 v 3.61983 h 8.00791 v 3.78911 h -8.00791 v 4.45318 h 8.80219 v 3.78911 h -13.81527 z"
           style=""
           id="path161183" />
        <path
           d="m 243.05036,201.58148 h 4.66152 l 3.63286,10.07825 3.61984,-10.07825 h 4.67453 l -5.74226,14.58351 h -5.11725 z"
           style=""
           id="path161185" />
        <path
           d="m 276.82683,208.83417 v 1.32814 h -10.89858 q 0.16928,1.64065 1.18492,2.46097 1.01563,0.82033 2.83857,0.82033 1.47137,0 3.00785,-0.4297 1.5495,-0.44271 3.17713,-1.32814 v 3.5938 q -1.65367,0.625 -3.30734,0.93751 -1.65366,0.32552 -3.30733,0.32552 -3.95838,0 -6.15893,-2.00523 -2.18753,-2.01826 -2.18753,-5.65111 0,-3.56776 2.14847,-5.61205 2.16148,-2.0443 5.93757,-2.0443 3.43754,0 5.49486,2.07034 2.07034,2.07034 2.07034,5.53392 z m -4.79173,-1.5495 q 0,-1.32814 -0.78126,-2.13544 -0.76824,-0.82032 -2.01825,-0.82032 -1.35419,0 -2.20055,0.76824 -0.84637,0.75521 -1.0547,2.18752 z"
           style=""
           id="path161187" />
        <path
           d="m 295.01716,207.28467 v 8.88032 h -4.68756 v -1.44533 -5.35163 q 0,-1.88804 -0.0912,-2.6042 -0.0781,-0.71615 -0.28646,-1.0547 -0.27344,-0.45573 -0.7422,-0.70313 -0.46875,-0.26042 -1.06772,-0.26042 -1.45835,0 -2.29169,1.13283 -0.83335,1.1198 -0.83335,3.11201 v 7.17457 h -4.66151 v -14.58351 h 4.66151 v 2.13544 q 1.0547,-1.27606 2.23961,-1.87502 1.18492,-0.61199 2.61723,-0.61199 2.52607,0 3.82817,1.5495 1.31512,1.5495 1.31512,4.50526 z"
           style=""
           id="path161189" />
      </g>
      <g
         aria-label="isOdd"
         transform="rotate(-4.227)"
         style="font-weight:700;font-size:26.66699982px;line-height:1.25;font-family:sans-serif;-inkscape-font-specification:'sans-serif, Bold';font-variant-ligatures:normal;font-variant-caps:normal;font-variant-numeric:normal;font-feature-settings:normal;text-align:start;letter-spacing:0;word-spacing:0;fill:#e90909"
         id="text2826">
        <path
           d="m 198.62761,237.20048 h 4.66152 V 251.784 h -4.66152 z m 0,-5.67715 h 4.66152 v 3.80213 h -4.66152 z"
           style=""
           id="path161192" />
        <path
           d="m 219.16172,237.65622 v 3.54171 q -1.49741,-0.62501 -2.89066,-0.93751 -1.39324,-0.31251 -2.63024,-0.31251 -1.32814,0 -1.97919,0.33855 -0.63803,0.32552 -0.63803,1.01563 0,0.55991 0.48178,0.85939 0.49479,0.29948 1.75783,0.44271 l 0.82032,0.11719 q 3.58078,0.45574 4.81777,1.49742 1.237,1.04168 1.237,3.26827 0,2.33076 -1.71877,3.50265 -1.71878,1.17189 -5.13028,1.17189 -1.44533,0 -2.99483,-0.23438 -1.53647,-0.22136 -3.1641,-0.67709 v -3.54172 q 1.39325,0.6771 2.8516,1.01564 1.47137,0.33855 2.98181,0.33855 1.3672,0 2.05732,-0.37761 0.69011,-0.37761 0.69011,-1.11981 0,-0.625 -0.48178,-0.92449 -0.46875,-0.3125 -1.88804,-0.48177 l -0.82033,-0.10417 q -3.11201,-0.39063 -4.36203,-1.44533 -1.25001,-1.0547 -1.25001,-3.20317 0,-2.31773 1.58856,-3.43754 1.58856,-1.11981 4.86985,-1.11981 1.28908,0 2.70837,0.19532 1.41929,0.19531 3.08597,0.61199 z"
           style=""
           id="path161194" />
        <path
           d="m 232.7296,235.62494 q -2.2917,0 -3.55473,1.69273 -1.26304,1.69273 -1.26304,4.76568 0,3.05994 1.26304,4.75267 1.26303,1.69273 3.55473,1.69273 2.30472,0 3.56775,-1.69273 1.26304,-1.69273 1.26304,-4.75267 0,-3.07295 -1.26304,-4.76568 -1.26303,-1.69273 -3.56775,-1.69273 z m 0,-3.63286 q 4.68756,0 7.34384,2.68233 2.65628,2.68232 2.65628,7.40894 0,4.71361 -2.65628,7.39593 -2.65628,2.68233 -7.34384,2.68233 -4.67454,0 -7.34384,-2.68233 -2.65629,-2.68232 -2.65629,-7.39593 0,-4.72662 2.65629,-7.40894 2.6693,-2.68233 7.34384,-2.68233 z"
           style=""
           id="path161196" />
        <path
           d="m 256.2325,239.33592 v -7.81259 h 4.68756 V 251.784 h -4.68756 v -2.1094 q -0.96355,1.28907 -2.12242,1.88804 -1.15887,0.59897 -2.68233,0.59897 -2.69534,0 -4.42714,-2.13545 -1.73179,-2.14846 -1.73179,-5.5209 0,-3.37244 1.73179,-5.50788 1.7318,-2.14847 4.42714,-2.14847 1.51044,0 2.66931,0.61199 1.17189,0.59897 2.13544,1.87502 z m -3.07296,9.44023 q 1.49742,0 2.27868,-1.09377 0.79428,-1.09376 0.79428,-3.17712 0,-2.08336 -0.79428,-3.17712 -0.78126,-1.09377 -2.27868,-1.09377 -1.48439,0 -2.27867,1.09377 -0.78126,1.09376 -0.78126,3.17712 0,2.08336 0.78126,3.17712 0.79428,1.09377 2.27867,1.09377 z"
           style=""
           id="path161198" />
        <path
           d="m 275.32128,239.33592 v -7.81259 h 4.68756 V 251.784 h -4.68756 v -2.1094 q -0.96356,1.28907 -2.12242,1.88804 -1.15887,0.59897 -2.68233,0.59897 -2.69535,0 -4.42714,-2.13545 -1.73179,-2.14846 -1.73179,-5.5209 0,-3.37244 1.73179,-5.50788 1.73179,-2.14847 4.42714,-2.14847 1.51044,0 2.6693,0.61199 1.17189,0.59897 2.13545,1.87502 z m -3.07296,9.44023 q 1.49742,0 2.27868,-1.09377 0.79428,-1.09376 0.79428,-3.17712 0,-2.08336 -0.79428,-3.17712 -0.78126,-1.09377 -2.27868,-1.09377 -1.48439,0 -2.27867,1.09377 -0.78126,1.09376 -0.78126,3.17712 0,2.08336 0.78126,3.17712 0.79428,1.09377 2.27867,1.09377 z"
           style=""
           id="path161200" />
      </g>
      <g
         aria-label="isPrime"
         transform="rotate(-2.197)"
         style="font-weight:700;font-size:26.66699982px;line-height:1.25;font-family:sans-serif;-inkscape-font-specification:'sans-serif, Bold';font-variant-ligatures:normal;font-variant-caps:normal;font-variant-numeric:normal;font-feature-settings:normal;text-align:start;letter-spacing:0;word-spacing:0;fill:#04bd3d"
         id="text2830">
        <path
           d="m 204.66661,280.96449 h 4.66152 V 295.548 h -4.66152 z m 0,-5.67716 h 4.66152 v 3.80214 h -4.66152 z"
           style=""
           id="path161203" />
        <path
           d="m 225.20072,281.42022 v 3.54171 q -1.49741,-0.625 -2.89066,-0.93751 -1.39324,-0.3125 -2.63024,-0.3125 -1.32814,0 -1.97919,0.33854 -0.63803,0.32553 -0.63803,1.01564 0,0.55991 0.48178,0.85939 0.4948,0.29948 1.75783,0.44271 l 0.82033,0.11719 q 3.58077,0.45574 4.81776,1.49742 1.237,1.04168 1.237,3.26827 0,2.33075 -1.71877,3.50264 -1.71877,1.17189 -5.13027,1.17189 -1.44534,0 -2.99483,-0.23437 -1.53648,-0.22136 -3.16411,-0.6771 v -3.54171 q 1.39325,0.67709 2.8516,1.01564 1.47137,0.33855 2.98181,0.33855 1.3672,0 2.05732,-0.37761 0.69011,-0.37761 0.69011,-1.11981 0,-0.62501 -0.48178,-0.92449 -0.46875,-0.3125 -1.88804,-0.48178 l -0.82032,-0.10416 q -3.11202,-0.39063 -4.36204,-1.44533 -1.25001,-1.05471 -1.25001,-3.20317 0,-2.31774 1.58856,-3.43754 1.58856,-1.11981 4.86985,-1.11981 1.28908,0 2.70837,0.19532 1.41929,0.19531 3.08597,0.61198 z"
           style=""
           id="path161205" />
        <path
           d="m 229.88828,276.10766 h 8.32042 q 3.71098,0 5.69017,1.65366 1.99222,1.64065 1.99222,4.68756 0,3.05994 -1.99222,4.7136 -1.97919,1.64065 -5.69017,1.64065 h -3.30733 v 6.74487 h -5.01309 z m 5.01309,3.63286 v 5.42975 h 2.77347 q 1.45835,0 2.25263,-0.70313 0.79428,-0.71616 0.79428,-2.01826 0,-1.3021 -0.79428,-2.00523 -0.79428,-0.70313 -2.25263,-0.70313 z"
           style=""
           id="path161207" />
        <path
           d="m 260.05793,284.93589 q -0.61198,-0.28646 -1.22397,-0.41667 -0.59897,-0.14323 -1.21095,-0.14323 -1.7969,0 -2.77348,1.15887 -0.96355,1.14585 -0.96355,3.29431 v 6.71883 h -4.66152 v -14.58351 h 4.66152 v 2.39586 q 0.89845,-1.43231 2.05732,-2.08336 1.17189,-0.66407 2.79951,-0.66407 0.23438,0 0.50782,0.026 0.27344,0.013 0.79428,0.0781 z"
           style=""
           id="path161209" />
        <path
           d="m 262.37567,280.96449 h 4.66151 V 295.548 h -4.66151 z m 0,-5.67716 h 4.66151 v 3.80214 h -4.66151 z"
           style=""
           id="path161211" />
        <path
           d="m 285.0322,283.38639 q 0.88543,-1.35418 2.09638,-2.05731 1.22397,-0.71616 2.68233,-0.71616 2.51305,0 3.82817,1.5495 1.31512,1.5495 1.31512,4.50526 v 8.88032 h -4.68756 v -7.60426 q 0.013,-0.16927 0.013,-0.35156 0.013,-0.1823 0.013,-0.52084 0,-1.5495 -0.45573,-2.23962 -0.45574,-0.70313 -1.47138,-0.70313 -1.32814,0 -2.05731,1.09376 -0.71616,1.09377 -0.7422,3.16411 v 7.16154 h -4.68756 v -7.60426 q 0,-2.4219 -0.41667,-3.11202 -0.41667,-0.70313 -1.48439,-0.70313 -1.34117,0 -2.07034,1.10679 -0.72918,1.09376 -0.72918,3.13806 v 7.17456 h -4.68756 v -14.58351 h 4.68756 v 2.13544 q 0.85939,-1.23699 1.96617,-1.862 1.11981,-0.62501 2.46097,-0.62501 1.51044,0 2.66931,0.72918 1.15886,0.72917 1.75783,2.04429 z"
           style=""
           id="path161213" />
        <path
           d="m 313.86068,288.21718 v 1.32814 h -10.89857 q 0.16927,1.64065 1.18491,2.46097 1.01564,0.82033 2.83858,0.82033 1.47137,0 3.00785,-0.4297 1.5495,-0.44271 3.17712,-1.32814 v 3.5938 q -1.65367,0.625 -3.30733,0.93751 -1.65367,0.32552 -3.30734,0.32552 -3.95838,0 -6.15893,-2.00523 -2.18752,-2.01825 -2.18752,-5.65111 0,-3.56776 2.14846,-5.61205 2.16149,-2.0443 5.93757,-2.0443 3.43755,0 5.49487,2.07034 2.07033,2.07034 2.07033,5.53392 z m -4.79172,-1.5495 q 0,-1.32814 -0.78126,-2.13544 -0.76824,-0.82032 -2.01826,-0.82032 -1.35418,0 -2.20055,0.76824 -0.84636,0.75522 -1.0547,2.18752 z"
           style=""
           id="path161215" />
      </g>
      <g
         aria-label="&gt;0"
         transform="rotate(0.662)"
         style="font-weight:700;font-size:26.66699982px;line-height:1.25;font-family:sans-serif;-inkscape-font-specification:'sans-serif, Bold';font-variant-ligatures:normal;font-variant-caps:normal;font-variant-numeric:normal;font-feature-settings:normal;text-align:start;letter-spacing:0;word-spacing:0;fill:#0e2db8"
         id="text2834">
        <path
           d="m 258.97857,308.82758 v -3.25525 l 16.69292,6.02872 v 3.07296 l -16.69292,6.02872 v -3.25525 l 12.56526,-4.29693 z"
           style=""
           id="path161218" />
        <path
           d="m 290.76282,311.7573 q 0,-3.64587 -0.69011,-5.13027 -0.67709,-1.49741 -2.2917,-1.49741 -1.6146,0 -2.30471,1.49741 -0.69012,1.4844 -0.69012,5.13027 0,3.68495 0.69012,5.19538 0.69011,1.51044 2.30471,1.51044 1.60159,0 2.2917,-1.51044 0.69011,-1.51043 0.69011,-5.19538 z m 5.01309,0.0391 q 0,4.83079 -2.08336,7.46103 -2.08336,2.61722 -5.91154,2.61722 -3.84119,0 -5.92455,-2.61722 -2.08336,-2.63024 -2.08336,-7.46103 0,-4.84381 2.08336,-7.46103 2.08336,-2.63024 5.92455,-2.63024 3.82818,0 5.91154,2.63024 2.08336,2.61722 2.08336,7.46103 z"
           style=""
           id="path161220" />
      </g>
      <path
         transform="rotate(22.196)"
         style="fill:#d9d98d;stroke:#878578;stroke-width:10.54399967;stroke-miterlimit:10"
         d="m 635.35698,51.771999 a 89.626999,89.626999 0 0 1 -89.627,89.627001 89.626999,89.626999 0 0 1 -89.627,-89.627001 89.626999,89.626999 0 0 1 89.627,-89.626999 89.626999,89.626999 0 0 1 89.627,89.626999 z"
         id="circle2836" />
      <g
         aria-label="number"
         transform="rotate(0.221)"
         style="font-weight:700;font-size:30.30800056px;line-height:1.25;font-family:sans-serif;-inkscape-font-specification:'sans-serif, Bold';font-variant-ligatures:normal;font-variant-caps:normal;font-variant-numeric:normal;font-feature-settings:normal;text-align:start;letter-spacing:0;word-spacing:0;fill:#9d539f;stroke-width:1.13699996"
         id="text2840">
        <path
           d="m 63.15756,250.62726 v 10.0928 h -5.327578 v -1.64267 -6.08232 q 0,-2.14583 -0.103592,-2.95976 -0.08879,-0.81394 -0.325574,-1.19871 -0.310776,-0.51796 -0.843533,-0.79913 -0.532758,-0.29598 -1.213504,-0.29598 -1.657469,0 -2.604594,1.2875 -0.947125,1.2727 -0.947125,3.53692 v 8.15415 h -5.297981 v -16.57469 h 5.297981 v 2.42701 q 1.198705,-1.45028 2.545398,-2.13103 1.346694,-0.69554 2.974565,-0.69554 2.870973,0 4.350855,1.76106 1.494682,1.76106 1.494682,5.12039 z"
           style="fill:#797979"
           id="path161224" />
        <path
           d="m 67.893186,254.26777 v -10.1224 h 5.327578 v 1.65747 q 0,1.3467 -0.0148,3.38893 -0.0148,2.02744 -0.0148,2.70819 0,1.99784 0.103591,2.88577 0.103592,0.87313 0.355172,1.2727 0.325574,0.51796 0.843533,0.79914 0.532758,0.28118 1.213504,0.28118 1.657469,0 2.604594,-1.2727 0.947125,-1.2727 0.947125,-3.53692 v -8.18376 h 5.297981 v 16.57469 h -5.297981 v -2.39741 q -1.198705,1.45029 -2.545398,2.14583 -1.331895,0.68075 -2.944967,0.68075 -2.870973,0 -4.380453,-1.76106 -1.494682,-1.76106 -1.494682,-5.1204 z"
           style="fill:#797979"
           id="path161226" />
        <path
           d="m 105.00865,246.89796 q 1.00632,-1.53908 2.38261,-2.33822 1.39109,-0.81393 3.04856,-0.81393 2.85617,0 4.35085,1.76106 1.49469,1.76106 1.49469,5.12039 v 10.0928 h -5.32758 v -8.64251 q 0.0148,-0.19239 0.0148,-0.39957 0.0148,-0.20719 0.0148,-0.59196 0,-1.76106 -0.51796,-2.54539 -0.51796,-0.79914 -1.67227,-0.79914 -1.50948,0 -2.33822,1.2431 -0.81393,1.2431 -0.84353,3.59612 v 8.13935 h -5.32758 v -8.64251 q 0,-2.75259 -0.47356,-3.53692 -0.473563,-0.79914 -1.687067,-0.79914 -1.524279,0 -2.353014,1.2579 -0.828734,1.2431 -0.828734,3.56652 v 8.15415 h -5.327578 v -16.57469 h 5.327578 v 2.42701 q 0.976723,-1.40589 2.234623,-2.11623 1.272699,-0.71034 2.796979,-0.71034 1.716663,0 3.033763,0.82873 1.31709,0.82873 1.99784,2.32342 z"
           style="fill:#797979"
           id="path161228" />
        <path
           d="m 130.04827,257.30153 q 1.70186,0 2.58979,-1.2431 0.90273,-1.2431 0.90273,-3.61091 0,-2.36782 -0.90273,-3.61092 -0.88793,-1.2431 -2.58979,-1.2431 -1.70187,0 -2.6194,1.2579 -0.90272,1.2431 -0.90272,3.59612 0,2.35301 0.90272,3.61091 0.91753,1.2431 2.6194,1.2431 z m -3.52212,-10.72915 q 1.09511,-1.45028 2.427,-2.13103 1.3319,-0.69554 3.06336,-0.69554 3.06336,0 5.0316,2.4418 1.96825,2.42701 1.96825,6.25991 0,3.83289 -1.96825,6.2747 -1.96824,2.42701 -5.0316,2.42701 -1.73146,0 -3.06336,-0.68075 -1.33189,-0.69554 -2.427,-2.14583 v 2.39741 h -5.29799 v -23.02697 h 5.29799 z"
           style="fill:#797979"
           id="path161230" />
        <path
           d="m 159.46834,252.38832 v 1.50948 h -12.38662 q 0.19238,1.86465 1.34669,2.79698 1.15431,0.93233 3.22615,0.93233 1.67226,0 3.41853,-0.48836 1.76106,-0.50316 3.61091,-1.50948 v 4.08447 q -1.87945,0.71035 -3.7589,1.06552 -1.87945,0.36997 -3.7589,0.36997 -4.49885,0 -6.99985,-2.27902 -2.4862,-2.29382 -2.4862,-6.42269 0,-4.05488 2.4418,-6.3783 2.45661,-2.32341 6.74827,-2.32341 3.90689,0 6.2451,2.35301 2.35302,2.35301 2.35302,6.2895 z m -5.44597,-1.76106 q 0,-1.50948 -0.88793,-2.42701 -0.87313,-0.93232 -2.29382,-0.93232 -1.53908,0 -2.501,0.87313 -0.96192,0.85833 -1.19871,2.4862 z"
           style="fill:#797979"
           id="path161232" />
        <path
           d="m 175.79145,248.65902 q -0.69555,-0.32558 -1.39109,-0.47357 -0.68075,-0.16278 -1.3763,-0.16278 -2.04223,0 -3.15215,1.31709 -1.09511,1.3023 -1.09511,3.74411 v 7.63619 h -5.29798 v -16.57469 h 5.29798 v 2.72299 q 1.02112,-1.62787 2.33822,-2.36781 1.33189,-0.75474 3.18174,-0.75474 0.26638,0 0.57716,0.0296 0.31077,0.0148 0.90273,0.0888 z"
           style="fill:#797979"
           id="path161234" />
      </g>
      <g
         aria-label="boolean"
         transform="rotate(0.221)"
         style="font-weight:700;font-size:30.30800056px;line-height:1.25;font-family:sans-serif;-inkscape-font-specification:'sans-serif, Bold';font-variant-ligatures:normal;font-variant-caps:normal;font-variant-numeric:normal;font-feature-settings:normal;text-align:start;letter-spacing:0;word-spacing:0;fill:#9d539f;stroke-width:1.13699996"
         id="text2844">
        <path
           d="m 431.49749,256.80547 q 1.70186,0 2.58979,-1.2431 0.90273,-1.2431 0.90273,-3.61092 0,-2.36781 -0.90273,-3.61091 -0.88793,-1.2431 -2.58979,-1.2431 -1.70187,0 -2.61939,1.2579 -0.90273,1.2431 -0.90273,3.59611 0,2.35302 0.90273,3.61092 0.91752,1.2431 2.61939,1.2431 z m -3.52212,-10.72915 q 1.09511,-1.45029 2.42701,-2.13103 1.33189,-0.69555 3.06335,-0.69555 3.06336,0 5.0316,2.44181 1.96825,2.42701 1.96825,6.2599 0,3.8329 -1.96825,6.27471 -1.96824,2.42701 -5.0316,2.42701 -1.73146,0 -3.06335,-0.68075 -1.3319,-0.69555 -2.42701,-2.14583 v 2.39741 h -5.29798 v -23.02698 h 5.29798 z"
           style="fill:#797979"
           id="path161237" />
        <path
           d="m 452.26024,247.03824 q -1.76106,0 -2.69338,1.2727 -0.91753,1.2579 -0.91753,3.64051 0,2.38262 0.91753,3.65531 0.93232,1.2579 2.69338,1.2579 1.73147,0 2.64899,-1.2579 0.91753,-1.27269 0.91753,-3.65531 0,-2.38261 -0.91753,-3.64051 -0.91752,-1.2727 -2.64899,-1.2727 z m 0,-3.7885 q 4.27687,0 6.67428,2.30862 2.4122,2.30862 2.4122,6.39309 0,4.08448 -2.4122,6.3931 -2.39741,2.30862 -6.67428,2.30862 -4.29166,0 -6.71866,-2.30862 -2.41221,-2.30862 -2.41221,-6.3931 0,-4.08447 2.41221,-6.39309 2.427,-2.30862 6.71866,-2.30862 z"
           style="fill:#797979"
           id="path161239" />
        <path
           d="m 473.0822,247.03824 q -1.76107,0 -2.69339,1.2727 -0.91753,1.2579 -0.91753,3.64051 0,2.38262 0.91753,3.65531 0.93232,1.2579 2.69339,1.2579 1.73146,0 2.64899,-1.2579 0.91752,-1.27269 0.91752,-3.65531 0,-2.38261 -0.91752,-3.64051 -0.91753,-1.2727 -2.64899,-1.2727 z m 0,-3.7885 q 4.27686,0 6.67427,2.30862 2.41221,2.30862 2.41221,6.39309 0,4.08448 -2.41221,6.3931 -2.39741,2.30862 -6.67427,2.30862 -4.29167,0 -6.71867,-2.30862 -2.41221,-2.30862 -2.41221,-6.3931 0,-4.08447 2.41221,-6.39309 2.427,-2.30862 6.71867,-2.30862 z"
           style="fill:#797979"
           id="path161241" />
        <path
           d="m 486.01637,237.19702 h 5.29798 V 260.224 h -5.29798 z"
           style="fill:#797979"
           id="path161243" />
        <path
           d="m 512.95024,251.89226 v 1.50948 h -12.38662 q 0.19238,1.86465 1.34669,2.79698 1.15431,0.93232 3.22615,0.93232 1.67226,0 3.41853,-0.48836 1.76106,-0.50316 3.61091,-1.50948 v 4.08448 q -1.87945,0.71034 -3.7589,1.06551 -1.87945,0.36998 -3.75891,0.36998 -4.49884,0 -6.99984,-2.27902 -2.4862,-2.29382 -2.4862,-6.4227 0,-4.05488 2.4418,-6.37829 2.45661,-2.32342 6.74827,-2.32342 3.90689,0 6.2451,2.35302 2.35302,2.35301 2.35302,6.2895 z m -5.44597,-1.76106 q 0,-1.50948 -0.88793,-2.42701 -0.87313,-0.93233 -2.29382,-0.93233 -1.53908,0 -2.501,0.87313 -0.96193,0.85834 -1.19871,2.48621 z"
           style="fill:#797979"
           id="path161245" />
        <path
           d="m 524.38973,252.76539 q -1.65747,0 -2.501,0.56235 -0.82873,0.56236 -0.82873,1.65747 0,1.00632 0.66594,1.58348 0.68075,0.56235 1.87945,0.56235 1.49469,0 2.5158,-1.06551 1.02112,-1.08032 1.02112,-2.69339 v -0.60675 z m 8.09496,-1.99784 v 9.45645 h -5.34238 v -2.45661 q -1.06551,1.50948 -2.39741,2.20503 -1.33189,0.68075 -3.24094,0.68075 -2.575,0 -4.18807,-1.49469 -1.59827,-1.50948 -1.59827,-3.90689 0,-2.91537 1.99784,-4.27686 2.01264,-1.36149 6.3043,-1.36149 h 3.12255 v -0.41437 q 0,-1.2579 -0.99152,-1.83505 -0.99152,-0.59196 -3.09295,-0.59196 -1.70187,0 -3.16695,0.34038 -1.46509,0.34037 -2.72299,1.02112 v -4.04008 q 1.70187,-0.41437 3.41853,-0.62155 1.71667,-0.22199 3.43333,-0.22199 4.48405,0 6.46709,1.77586 1.99784,1.76106 1.99784,5.74195 z"
           style="fill:#797979"
           id="path161247" />
        <path
           d="m 554.07618,250.1312 v 10.0928 h -5.32758 v -1.64267 -6.08232 q 0,-2.14583 -0.10359,-2.95977 -0.0888,-0.81393 -0.32557,-1.1987 -0.31078,-0.51796 -0.84354,-0.79914 -0.53275,-0.29597 -1.2135,-0.29597 -1.65747,0 -2.60459,1.28749 -0.94713,1.2727 -0.94713,3.53692 v 8.15416 h -5.29798 v -16.57469 h 5.29798 v 2.42701 q 1.19871,-1.45029 2.5454,-2.13103 1.34669,-0.69555 2.97456,-0.69555 2.87098,0 4.35086,1.76106 1.49468,1.76106 1.49468,5.1204 z"
           style="fill:#797979"
           id="path161249" />
      </g>
    </g>
  </switch>
</svg>
