<?xml version="1.0" encoding="UTF-8" standalone="no"?>
<svg
   xmlns:ns="&amp;#38;#38;ns_ai;"
   xmlns:dc="http://purl.org/dc/elements/1.1/"
   xmlns:cc="http://creativecommons.org/ns#"
   xmlns:rdf="http://www.w3.org/1999/02/22-rdf-syntax-ns#"
   xmlns:svg="http://www.w3.org/2000/svg"
   xmlns="http://www.w3.org/2000/svg"
   xmlns:sodipodi="http://sodipodi.sourceforge.net/DTD/sodipodi-0.dtd"
   xmlns:inkscape="http://www.inkscape.org/namespaces/inkscape"
   width="595.3"
   height="200"
   version="1.1"
   id="svg2850"
   sodipodi:docname="set_arrows.svg"
   inkscape:version="1.0.1 (0767f8302a, 2020-10-17)">
  <metadata
     id="metadata2856">
    <rdf:RDF>
      <cc:Work
         rdf:about="">
        <dc:format>image/svg+xml</dc:format>
        <dc:type
           rdf:resource="http://purl.org/dc/dcmitype/StillImage" />
        <dc:title></dc:title>
      </cc:Work>
    </rdf:RDF>
  </metadata>
  <defs
     id="defs2854" />
  <sodipodi:namedview
     pagecolor="#ffffff"
     bordercolor="#666666"
     borderopacity="1"
     objecttolerance="10"
     gridtolerance="10"
     guidetolerance="10"
     inkscape:pageopacity="0"
     inkscape:pageshadow="2"
     inkscape:window-width="1871"
     inkscape:window-height="818"
     id="namedview2852"
     showgrid="false"
     inkscape:zoom="2.3349572"
     inkscape:cx="297.64999"
     inkscape:cy="100"
     inkscape:window-x="0"
     inkscape:window-y="27"
     inkscape:window-maximized="0"
     inkscape:current-layer="g2846"
     inkscape:document-rotation="0" />
  <switch
     transform="translate(0 -159)"
     id="switch2848">
    <g
       ns:extraneous="self"
       id="g2846"
       transform="translate(-1.0910201,3.9272465)">
      <path
         d="m 182.118,208.736 c 0,0 2.582,-0.721 7.045,-1.815 2.348,-0.605 4.93,-1.326 8.101,-2.06 3.172,-0.734 6.577,-1.583 10.573,-2.446 15.392,-3.436 36.222,-6.77 57.093,-8.44 20.87,-1.672 42.14,-1.579 57.998,-0.481 7.813,0.606 14.554,0.903 19.058,1.47 l 2.842,0.272 3.671,-28.452 c 20.292,13.192 38.84,27.53 55.052,43.028 -22.313,5.471 -43.514,12.913 -63.027,21.759 l 3.438,-28.337 -2.842,-0.27 c -4.504,-0.568 -11.012,-0.981 -18.701,-1.369 -15.502,-0.994 -36.18,-1.1 -56.694,0.674 -20.637,1.556 -40.877,4.876 -56.036,8.197 -3.762,0.746 -7.167,1.596 -10.34,2.33 -3.171,0.733 -5.753,1.454 -7.867,1.943 -4.463,1.095 -6.81,1.7 -6.81,1.7 z"
         fill="#9d539f"
         stroke-width="0.3"
         id="path2810" />
      <path
         d="m 163.095,248.33 c 0,0 2.758,-0.678 7.525,-1.707 2.508,-0.569 5.266,-1.246 8.654,-1.936 3.389,-0.69 7.026,-1.489 11.295,-2.3 16.442,-3.23 38.693,-6.364 60.988,-7.935 22.295,-1.571 45.015,-1.484 61.955,-0.452 8.346,0.57 15.548,0.85 20.359,1.383 l 3.036,0.255 3.921,-26.75 c 21.676,12.404 41.49,25.884 58.809,40.454 -23.836,5.143 -46.484,12.14 -67.328,20.456 l 3.672,-26.64 -3.036,-0.255 c -4.81,-0.533 -11.763,-0.922 -19.977,-1.286 -16.559,-0.935 -38.648,-1.035 -60.562,0.633 -22.045,1.463 -43.665,4.584 -59.859,7.706 -4.019,0.702 -7.656,1.5 -11.045,2.19 -3.388,0.69 -6.146,1.368 -8.405,1.828 a 795.395,795.395 0 0 0 -7.275,1.597 z"
         fill="#e90909"
         stroke-width="0.3"
         id="path2812" />
      <circle
         cx="492.64886"
         cy="260.71967"
         r="83.388321"
         id="circle268"
         style="opacity:0.13;stroke:#000000;stroke-width:20.3386;stroke-miterlimit:10" />
      <path
         d="m 155.226,317.83 c 0,0 2.964,0.743 8.088,1.869 2.696,0.622 5.66,1.365 9.302,2.12 3.642,0.754 7.552,1.628 12.14,2.514 17.672,3.532 41.582,6.94 65.534,8.622 23.952,1.682 48.354,1.528 66.546,0.344 8.962,-0.651 16.696,-0.979 21.861,-1.58 l 3.26,-0.29 4.308,29.573 c 23.238,-13.771 44.47,-28.73 63.02,-44.887 -25.62,-5.628 -49.97,-13.308 -72.388,-22.453 l 4.04,29.453 -3.26,0.29 c -5.166,0.601 -12.632,1.048 -21.452,1.472 -17.783,1.075 -41.508,1.241 -65.05,-0.548 -23.684,-1.562 -46.918,-4.96 -64.322,-8.372 -4.319,-0.766 -8.229,-1.64 -11.87,-2.394 -3.643,-0.755 -6.607,-1.497 -9.035,-2 -5.124,-1.126 -7.82,-1.748 -7.82,-1.748 z"
         fill="#0e2db8"
         stroke-width="0.3"
         id="path2814" />
      <path
         d="m 181.978,289.46 c 0,0 2.575,0.472 7.009,1.13 2.336,0.377 4.91,0.849 8.057,1.271 3.147,0.423 6.532,0.94 10.489,1.41 15.255,1.923 35.752,3.17 56.103,2.7 20.35,-0.47 40.888,-2.798 56.087,-5.592 7.48,-1.445 13.96,-2.459 18.247,-3.516 l 2.716,-0.577 6.73,28.917 c 18.128,-15.716 34.442,-32.43 48.372,-50.093 -22.17,-3.292 -43.485,-8.731 -63.326,-15.793 l 6.492,28.822 -2.716,0.578 c -4.287,1.057 -10.529,2.165 -17.914,3.371 -14.865,2.651 -34.831,4.931 -54.848,5.257 -20.112,0.564 -40.038,-0.731 -55.055,-2.56 -3.718,-0.374 -7.103,-0.892 -10.25,-1.314 -3.146,-0.423 -5.72,-0.894 -7.818,-1.176 -4.434,-0.659 -6.77,-1.035 -6.77,-1.035 z"
         fill="#04bd3d"
         stroke-width="0.3"
         id="path2816" />
      <circle
         cx="120.35165"
         cy="260.81131"
         r="83.388321"
         id="circle268-6"
         style="opacity:0.13;stroke:#000000;stroke-width:20.3386;stroke-miterlimit:10" />
      <circle
         cy="192.70348"
         cx="197.34406"
         stroke-miterlimit="10"
         transform="rotate(22.196)"
         r="89.626999"
         fill="#dbdb8b"
         stroke="#878578"
         stroke-width="10.544"
         id="circle2818" />
      <text
         style="line-height:1.25;-inkscape-font-specification:'sans-serif, Bold';font-variant-ligatures:normal;font-variant-caps:normal;font-variant-numeric:normal;font-feature-settings:normal;text-align:start"
         x="199.41701"
         y="216.16499"
         transform="rotate(-4.889)"
         font-weight="700"
         font-size="26.667px"
         font-family="sans-serif"
         letter-spacing="0"
         word-spacing="0"
         fill="#9d539f"
         id="text2822"><tspan
           x="199.41701"
           y="216.16499"
           id="tspan2820">isEven</tspan></text>
      <text
         style="line-height:1.25;-inkscape-font-specification:'sans-serif, Bold';font-variant-ligatures:normal;font-variant-caps:normal;font-variant-numeric:normal;font-feature-settings:normal;text-align:start"
         x="196.388"
         y="251.784"
         transform="rotate(-4.227)"
         font-weight="700"
         font-size="26.667px"
         font-family="sans-serif"
         letter-spacing="0"
         word-spacing="0"
         fill="#e90909"
         id="text2826"><tspan
           x="196.388"
           y="251.784"
           id="tspan2824">isOdd</tspan></text>
      <text
         style="line-height:1.25;-inkscape-font-specification:'sans-serif, Bold';font-variant-ligatures:normal;font-variant-caps:normal;font-variant-numeric:normal;font-feature-settings:normal;text-align:start"
         x="202.427"
         y="295.548"
         transform="rotate(-2.197)"
         font-weight="700"
         font-size="26.667px"
         font-family="sans-serif"
         letter-spacing="0"
         word-spacing="0"
         fill="#04bd3d"
         id="text2830"><tspan
           x="202.427"
           y="295.548"
           id="tspan2828">isPrime</tspan></text>
      <text
         style="line-height:1.25;-inkscape-font-specification:'sans-serif, Bold';font-variant-ligatures:normal;font-variant-caps:normal;font-variant-numeric:normal;font-feature-settings:normal;text-align:start"
         x="256.15302"
         y="321.49701"
         transform="rotate(0.662)"
         font-weight="700"
         font-size="26.667px"
         font-family="sans-serif"
         letter-spacing="0"
         word-spacing="0"
         fill="#0e2db8"
         id="text2834"><tspan
           x="256.15302"
           y="321.49701"
           id="tspan2832">&gt;0</tspan></text>
      <circle
         cy="51.771999"
         cx="545.72998"
         stroke-miterlimit="10"
         transform="rotate(22.196)"
         r="89.626999"
         fill="#d9d98d"
         stroke="#878578"
         stroke-width="10.544"
         id="circle2836" />
      <text
         style="line-height:1.25;-inkscape-font-specification:'sans-serif, Bold';font-variant-ligatures:normal;font-variant-caps:normal;font-variant-numeric:normal;font-feature-settings:normal;text-align:start"
         x="43.948681"
         y="260.72006"
         transform="rotate(0.221)"
         font-weight="700"
         font-size="30.308px"
         font-family="sans-serif"
         letter-spacing="0"
         word-spacing="0"
         fill="#9d539f"
         stroke-width="1.137"
         id="text2840"><tspan
           x="43.948681"
           y="260.72006"
           fill="#797979"
           id="tspan2838">number</tspan></text>
      <text
         style="line-height:1.25;-inkscape-font-specification:'sans-serif, Bold';font-variant-ligatures:normal;font-variant-caps:normal;font-variant-numeric:normal;font-feature-settings:normal;text-align:start"
         x="420.13199"
         y="260.224"
         transform="rotate(0.221)"
         font-weight="700"
         font-size="30.308px"
         font-family="sans-serif"
         letter-spacing="0"
         word-spacing="0"
         fill="#9d539f"
         stroke-width="1.137"
         id="text2844"><tspan
           x="420.13199"
           y="260.224"
           fill="#797979"
           id="tspan2842">boolean</tspan></text>
    </g>
  </switch>
</svg>
