<?xml version="1.0" encoding="UTF-8" standalone="no"?>
<svg
   xmlns:dc="http://purl.org/dc/elements/1.1/"
   xmlns:cc="http://creativecommons.org/ns#"
   xmlns:rdf="http://www.w3.org/1999/02/22-rdf-syntax-ns#"
   xmlns:svg="http://www.w3.org/2000/svg"
   xmlns="http://www.w3.org/2000/svg"
   xmlns:sodipodi="http://sodipodi.sourceforge.net/DTD/sodipodi-0.dtd"
   xmlns:inkscape="http://www.inkscape.org/namespaces/inkscape"
   viewBox="0 0 595.3 177"
   version="1.1"
   id="svg3397"
   sodipodi:docname="transitivity.svg"
   inkscape:version="1.0.1 (0767f8302a, 2020-10-17)">
  <metadata
     id="metadata3403">
    <rdf:RDF>
      <cc:Work
         rdf:about="">
        <dc:format>image/svg+xml</dc:format>
        <dc:type
           rdf:resource="http://purl.org/dc/dcmitype/StillImage" />
        <dc:title />
      </cc:Work>
    </rdf:RDF>
  </metadata>
  <defs
     id="defs3401" />
  <sodipodi:namedview
     pagecolor="#ffffff"
     bordercolor="#666666"
     borderopacity="1"
     objecttolerance="10"
     gridtolerance="10"
     guidetolerance="10"
     inkscape:pageopacity="0"
     inkscape:pageshadow="2"
     inkscape:window-width="1920"
     inkscape:window-height="1016"
     id="namedview3399"
     showgrid="false"
     inkscape:zoom="1.6510641"
     inkscape:cx="278.22652"
     inkscape:cy="92.993053"
     inkscape:window-x="0"
     inkscape:window-y="27"
     inkscape:window-maximized="1"
     inkscape:current-layer="svg3397"
     inkscape:document-rotation="0" />
  <circle
     cx="93.568672"
     cy="53.998043"
     r="23.414963"
     id="circle3369"
     style="opacity:0.13;stroke:#000000;stroke-width:5.71096;stroke-miterlimit:10" />
  <circle
     cx="185.72101"
     cy="52.110073"
     r="23.414963"
     id="circle3371"
     style="opacity:0.13;stroke:#000000;stroke-width:5.71096;stroke-miterlimit:10" />
  <circle
     fill="#d71920"
     stroke="#be1e2d"
     cx="88.999893"
     cy="46.097881"
     r="23.414963"
     id="circle3383"
     style="stroke-width:5.71096;stroke-miterlimit:10" />
  <circle
     fill="#f58235"
     stroke="#e76524"
     cx="181.15222"
     cy="46.113556"
     r="23.414963"
     id="circle3385"
     style="stroke-width:5.71096;stroke-miterlimit:10" />
  <g
     style="display:inline;fill:#dddddd;stroke:#838383;stroke-width:6.389;stroke-miterlimit:10"
     id="g1482-7-0"
     transform="matrix(0.26691943,-0.00497167,0.02579555,0.37229267,61.062716,-37.771175)">
    <path
       style="stroke-width:35.526"
       inkscape:connector-curvature="0"
       id="path1478-7-9"
       transform="matrix(0.4768,-0.02932,0.03214,0.42867,147.58,197.367)"
       d="m 315.1,101.79 c 10.682,-4.135 21.77,-7.738 33.127,-11.074 -8.518,-8.139 -17.577,-16.01 -27.178,-23.616 -2.04,12.119 -3.103,21.663 -5.949,34.69 z" />
    <path
       style="stroke-width:10.649;paint-order:markers fill stroke"
       inkscape:connector-curvature="0"
       id="path1480-1-3"
       transform="matrix(0.89574,0,0,0.81736,18.384,154.236)"
       d="m 197.036,89.49 c 39.237,-9.724 89.303,-9.828 120.462,-3.317" />
  </g>
  <circle
     cx="555.74371"
     cy="95.41021"
     r="23.414963"
     id="circle3365-3"
     style="opacity:0.13;stroke:#000000;stroke-width:5.71096;stroke-miterlimit:10" />
  <circle
     cx="371.22607"
     cy="97.374847"
     r="23.414963"
     id="circle3369-8"
     style="opacity:0.13;stroke:#000000;stroke-width:5.71096;stroke-miterlimit:10" />
  <circle
     cx="463.37836"
     cy="95.486885"
     r="23.414963"
     id="circle3371-6"
     style="opacity:0.13;stroke:#000000;stroke-width:5.71096;stroke-miterlimit:10" />
  <circle
     fill="#fce600"
     stroke="#ffdd00"
     cx="551.17487"
     cy="89.508896"
     r="23.414963"
     id="circle3379-0"
     style="stroke-width:5.71096;stroke-miterlimit:10" />
  <circle
     fill="#d71920"
     stroke="#be1e2d"
     cx="366.65729"
     cy="89.47467"
     r="23.414963"
     id="circle3383-3"
     style="stroke-width:5.71096;stroke-miterlimit:10" />
  <circle
     fill="#f58235"
     stroke="#e76524"
     cx="458.8096"
     cy="89.490356"
     r="23.414963"
     id="circle3385-3"
     style="stroke-width:5.71096;stroke-miterlimit:10" />
  <g
     style="display:inline;fill:#dddddd;stroke:#838383;stroke-width:6.389;stroke-miterlimit:10"
     id="g1482-7-0-6"
     transform="matrix(0.26691943,-0.00497167,0.02579555,0.37229267,338.72008,5.6056273)">
    <path
       style="stroke-width:35.526"
       inkscape:connector-curvature="0"
       id="path1478-7-9-1"
       transform="matrix(0.4768,-0.02932,0.03214,0.42867,147.58,197.367)"
       d="m 315.1,101.79 c 10.682,-4.135 21.77,-7.738 33.127,-11.074 -8.518,-8.139 -17.577,-16.01 -27.178,-23.616 -2.04,12.119 -3.103,21.663 -5.949,34.69 z" />
    <path
       style="stroke-width:10.649;paint-order:markers fill stroke"
       inkscape:connector-curvature="0"
       id="path1480-1-3-8"
       transform="matrix(0.89574,0,0,0.81736,18.384,154.236)"
       d="m 197.036,89.49 c 39.237,-9.724 89.303,-9.828 120.462,-3.317" />
  </g>
  <g
     style="display:inline;fill:#dddddd;stroke:#838383;stroke-width:6.389;stroke-miterlimit:10"
     id="g1482-7-0-7-7"
     transform="matrix(0.26691943,-0.00497167,0.02579555,0.37229267,431.20415,6.7710813)"
     inkscape:transform-center-x="86.374823"
     inkscape:transform-center-y="14.660294">
    <path
       style="stroke-width:35.526"
       inkscape:connector-curvature="0"
       id="path1478-7-9-4-0"
       transform="matrix(0.4768,-0.02932,0.03214,0.42867,147.58,197.367)"
       d="m 315.1,101.79 c 10.682,-4.135 21.77,-7.738 33.127,-11.074 -8.518,-8.139 -17.577,-16.01 -27.178,-23.616 -2.04,12.119 -3.103,21.663 -5.949,34.69 z" />
    <path
       style="stroke-width:10.649;paint-order:markers fill stroke"
       inkscape:connector-curvature="0"
       id="path1480-1-3-3-5"
       transform="matrix(0.89574,0,0,0.81736,18.384,154.236)"
       d="m 197.036,89.49 c 39.237,-9.724 89.303,-9.828 120.462,-3.317" />
  </g>
  <circle
     cx="184.74231"
     cy="131.37019"
     r="23.414963"
     id="circle3365-3-1"
     style="opacity:0.13;stroke:#000000;stroke-width:5.71096;stroke-miterlimit:10" />
  <circle
     cx="92.376907"
     cy="131.44687"
     r="23.414963"
     id="circle3371-6-0"
     style="opacity:0.13;stroke:#000000;stroke-width:5.71096;stroke-miterlimit:10" />
  <circle
     fill="#fce600"
     stroke="#ffdd00"
     cx="180.17346"
     cy="125.46888"
     r="23.414963"
     id="circle3379-0-3"
     style="stroke-width:5.71096;stroke-miterlimit:10" />
  <circle
     fill="#f58235"
     stroke="#e76524"
     cx="87.808128"
     cy="125.45036"
     r="23.414963"
     id="circle3385-3-0"
     style="stroke-width:5.71096;stroke-miterlimit:10" />
  <g
     style="display:inline;fill:#dddddd;stroke:#838383;stroke-width:6.389;stroke-miterlimit:10"
     id="g1482-7-0-7-7-2"
     transform="matrix(0.26691943,-0.00497167,0.02579555,0.37229267,60.202665,42.731066)"
     inkscape:transform-center-x="86.374831"
     inkscape:transform-center-y="14.660295">
    <path
       style="stroke-width:35.526"
       inkscape:connector-curvature="0"
       id="path1478-7-9-4-0-4"
       transform="matrix(0.4768,-0.02932,0.03214,0.42867,147.58,197.367)"
       d="m 315.1,101.79 c 10.682,-4.135 21.77,-7.738 33.127,-11.074 -8.518,-8.139 -17.577,-16.01 -27.178,-23.616 -2.04,12.119 -3.103,21.663 -5.949,34.69 z" />
    <path
       style="stroke-width:10.649;paint-order:markers fill stroke"
       inkscape:connector-curvature="0"
       id="path1480-1-3-3-5-9"
       transform="matrix(0.89574,0,0,0.81736,18.384,154.236)"
       d="m 197.036,89.49 c 39.237,-9.724 89.303,-9.828 120.462,-3.317" />
  </g>
  <g
     style="display:inline;fill:#ff8080;stroke:#838383;stroke-width:6.389;stroke-miterlimit:10"
     id="g1482-7-0-4"
     transform="matrix(0.32913359,-0.00613048,0.03180803,0.45906746,200.26029,-45.527461)">
    <path
       style="fill:#ff8080;stroke-width:36.8983"
       inkscape:connector-curvature="0"
       id="path1478-7-9-9"
       d="m 300.11147,308.89056 c 11.45734,-5.05862 23.31627,-9.60141 35.44547,-13.89029 -8.57402,-7.71646 -17.73121,-15.11655 -27.47244,-22.20324 -2.74504,12.60642 -4.33418,22.49306 -7.97303,36.09353 z" />
    <path
       style="fill:#ff8080;stroke-width:14.2769;paint-order:markers fill stroke"
       inkscape:connector-curvature="0"
       id="path1480-1-3-7"
       d="m 130.20492,307.63343 c 55.06889,-12.45337 125.33622,-12.58656 169.06769,-4.24803" />
    <path
       style="display:inline;fill:#ff8080;stroke:#838383;stroke-width:14.2769;stroke-miterlimit:10;paint-order:markers fill stroke"
       inkscape:connector-curvature="0"
       id="path1480-1-3-7-9"
       d="M 130.14688,279.92717 C 185.21577,267.47379 255.4831,267.3406 299.21457,275.67914" />
  </g>
</svg>
