<?xml version="1.0" encoding="UTF-8" standalone="no"?>
<svg
   xmlns:dc="http://purl.org/dc/elements/1.1/"
   xmlns:cc="http://creativecommons.org/ns#"
   xmlns:rdf="http://www.w3.org/1999/02/22-rdf-syntax-ns#"
   xmlns:svg="http://www.w3.org/2000/svg"
   xmlns="http://www.w3.org/2000/svg"
   xmlns:sodipodi="http://sodipodi.sourceforge.net/DTD/sodipodi-0.dtd"
   xmlns:inkscape="http://www.inkscape.org/namespaces/inkscape"
   viewBox="0 0 595.3 177"
   version="1.1"
   id="svg3397"
   sodipodi:docname="transitivity_composition.svg"
   inkscape:version="1.0.1 (0767f8302a, 2020-10-17)">
  <metadata
     id="metadata3403">
    <rdf:RDF>
      <cc:Work
         rdf:about="">
        <dc:format>image/svg+xml</dc:format>
        <dc:type
           rdf:resource="http://purl.org/dc/dcmitype/StillImage" />
        <dc:title></dc:title>
      </cc:Work>
    </rdf:RDF>
  </metadata>
  <defs
     id="defs3401" />
  <sodipodi:namedview
     pagecolor="#ffffff"
     bordercolor="#666666"
     borderopacity="1"
     objecttolerance="10"
     gridtolerance="10"
     guidetolerance="10"
     inkscape:pageopacity="0"
     inkscape:pageshadow="2"
     inkscape:window-width="2560"
     inkscape:window-height="1376"
     id="namedview3399"
     showgrid="false"
     inkscape:zoom="1.6510641"
     inkscape:cx="278.22652"
     inkscape:cy="92.993053"
     inkscape:window-x="0"
     inkscape:window-y="27"
     inkscape:window-maximized="1"
     inkscape:current-layer="svg3397"
     inkscape:document-rotation="0" />
  <circle
     cx="253.69379"
     cy="50.630054"
     r="23.414963"
     id="circle3369-8"
     style="opacity:0.13;stroke:#000000;stroke-width:5.71096;stroke-miterlimit:10" />
  <circle
     cx="345.84607"
     cy="48.742092"
     r="23.414963"
     id="circle3371-6"
     style="opacity:0.13;stroke:#000000;stroke-width:5.71096;stroke-miterlimit:10" />
  <g
     id="g6309"
     transform="translate(-53.037607,14.793482)">
    <circle
       cx="398.71777"
       cy="123.619"
       r="23.414963"
       id="circle3365-3"
       style="opacity:0.13;stroke:#000000;stroke-width:5.71096;stroke-miterlimit:10" />
    <circle
       fill="#fce600"
       stroke="#ffdd00"
       cx="394.14893"
       cy="117.71769"
       r="23.414963"
       id="circle3379-0"
       style="stroke-width:5.71096;stroke-miterlimit:10" />
  </g>
  <circle
     fill="#f58235"
     stroke="#e76524"
     cx="341.27731"
     cy="42.745564"
     r="23.414963"
     id="circle3385-3"
     style="stroke-width:5.71096;stroke-miterlimit:10" />
  <g
     style="display:inline;fill:#dddddd;stroke:#838383;stroke-width:6.389;stroke-miterlimit:10"
     id="g1482-7-0-6"
     transform="matrix(0.30683524,-0.00497167,0.02965308,0.37229267,207.68125,-41.139166)">
    <path
       style="stroke-width:35.526"
       inkscape:connector-curvature="0"
       id="path1478-7-9-1"
       transform="matrix(0.4768,-0.02932,0.03214,0.42867,147.58,197.367)"
       d="m 315.1,101.79 c 10.682,-4.135 21.77,-7.738 33.127,-11.074 -8.518,-8.139 -17.577,-16.01 -27.178,-23.616 -2.04,12.119 -3.103,21.663 -5.949,34.69 z" />
    <path
       style="stroke-width:10.649;paint-order:markers fill stroke"
       inkscape:connector-curvature="0"
       id="path1480-1-3-8"
       transform="matrix(0.89574,0,0,0.81736,18.384,154.236)"
       d="m 197.036,89.49 c 39.237,-9.724 89.303,-9.828 120.462,-3.317" />
  </g>
  <g
     style="display:inline;fill:#dddddd;stroke:#838383;stroke-width:6.389;stroke-miterlimit:10"
     id="g1482-7-0-7-7"
     transform="matrix(-0.00614453,0.26689501,-0.3730438,0.01027459,429.32811,15.213978)"
     inkscape:transform-center-x="11.563043"
     inkscape:transform-center-y="-86.95815">
    <path
       style="stroke-width:35.526"
       inkscape:connector-curvature="0"
       id="path1478-7-9-4-0"
       transform="matrix(0.4768,-0.02932,0.03214,0.42867,147.58,197.367)"
       d="m 315.1,101.79 c 10.682,-4.135 21.77,-7.738 33.127,-11.074 -8.518,-8.139 -17.577,-16.01 -27.178,-23.616 -2.04,12.119 -3.103,21.663 -5.949,34.69 z" />
    <path
       style="stroke-width:10.649;paint-order:markers fill stroke"
       inkscape:connector-curvature="0"
       id="path1480-1-3-3-5"
       transform="matrix(0.89574,0,0,0.81736,18.384,154.236)"
       d="m 197.036,89.49 c 39.237,-9.724 89.303,-9.828 120.462,-3.317" />
  </g>
  <g
     style="display:inline;fill:#dddddd;stroke:#838383;stroke-width:6.389;stroke-miterlimit:10"
     id="g1482-7-0-6-6"
     transform="matrix(0.20945509,0.19073034,0.27625318,-0.2843355,185.68394,122.83838)"
     inkscape:transform-center-x="48.254454"
     inkscape:transform-center-y="8.7943644">
    <path
       style="stroke-width:35.526"
       inkscape:connector-curvature="0"
       id="path1478-7-9-1-7"
       transform="matrix(0.4768,-0.02932,0.03214,0.42867,147.58,197.367)"
       d="m 315.1,101.79 c 10.682,-4.135 21.77,-7.738 33.127,-11.074 -8.518,-8.139 -17.577,-16.01 -27.178,-23.616 -2.04,12.119 -3.103,21.663 -5.949,34.69 z" />
    <path
       style="fill:none;stroke-width:10.649;paint-order:markers fill stroke"
       inkscape:connector-curvature="0"
       id="path1480-1-3-8-5"
       transform="matrix(0.89574,0,0,0.81736,18.384,154.236)"
       d="M 27.946343,105.9368 C 85.642899,85.788626 237.50639,72.773685 317.498,86.173"
       sodipodi:nodetypes="cc" />
  </g>
  <circle
     fill="#d71920"
     stroke="#be1e2d"
     cx="249.125"
     cy="42.729877"
     r="23.414963"
     id="circle3383-3"
     style="stroke-width:5.71096;stroke-miterlimit:10" />
</svg>
