<?xml version="1.0" encoding="UTF-8" standalone="no"?>
<svg
   viewBox="0 0 595.3 177"
   version="1.1"
   id="svg3397"
   sodipodi:docname="tree-organization.svg"
   inkscape:version="1.2.2 (1:1.2.2+202212051552+b0a8486541)"
   xmlns:inkscape="http://www.inkscape.org/namespaces/inkscape"
   xmlns:sodipodi="http://sodipodi.sourceforge.net/DTD/sodipodi-0.dtd"
   xmlns="http://www.w3.org/2000/svg"
   xmlns:svg="http://www.w3.org/2000/svg"
   xmlns:rdf="http://www.w3.org/1999/02/22-rdf-syntax-ns#"
   xmlns:cc="http://creativecommons.org/ns#"
   xmlns:dc="http://purl.org/dc/elements/1.1/">
  <metadata
     id="metadata3403">
    <rdf:RDF>
      <cc:Work
         rdf:about="">
        <dc:format>image/svg+xml</dc:format>
        <dc:type
           rdf:resource="http://purl.org/dc/dcmitype/StillImage" />
      </cc:Work>
    </rdf:RDF>
  </metadata>
  <defs
     id="defs3401" />
  <sodipodi:namedview
     pagecolor="#ffffff"
     bordercolor="#666666"
     borderopacity="1"
     objecttolerance="10"
     gridtolerance="10"
     guidetolerance="10"
     inkscape:pageopacity="0"
     inkscape:pageshadow="2"
     inkscape:window-width="1080"
     inkscape:window-height="1174"
     id="namedview3399"
     showgrid="false"
     inkscape:zoom="2.8284272"
     inkscape:cx="273.11999"
     inkscape:cy="111.01576"
     inkscape:window-x="12"
     inkscape:window-y="10"
     inkscape:window-maximized="0"
     inkscape:current-layer="svg3397"
     inkscape:document-rotation="0"
     showguides="true"
     inkscape:guide-bbox="true"
     inkscape:showpageshadow="2"
     inkscape:pagecheckerboard="0"
     inkscape:deskcolor="#d1d1d1"
     inkscape:lockguides="true" />
  <g
     id="g2760-9-8-7-3-3"
     transform="matrix(0.501908,0.501908,-0.501908,0.501908,268.46618,-115.47162)"
     style="fill:#cccccc">
    <g
       id="g2749-4-6-6-2"
       style="fill:#cccccc;fill-opacity:1;stroke:#666666"
       transform="rotate(-37.328029,183.17645,-58.627543)">
      <circle
         cx="55.440796"
         cy="90.58149"
         r="24.6"
         id="circle3369-5-5-7-0"
         style="opacity:0.13;fill:#cccccc;fill-opacity:1;stroke:#666666;stroke-width:6;stroke-miterlimit:10" />
      <circle
         fill="#d71920"
         stroke="#be1e2d"
         cx="51.507595"
         cy="84.367409"
         r="24.6"
         id="circle3383-6-6-5-6"
         style="fill:#cccccc;fill-opacity:1;stroke:#666666;stroke-width:6;stroke-miterlimit:10" />
    </g>
  </g>
  <g
     id="g2760-0-7-6-0-7"
     transform="matrix(0.501908,0.501908,-0.501908,0.501908,340.93197,19.653202)"
     style="fill:#cccccc">
    <g
       id="g2749-6-8-1-3-8"
       style="fill:#cccccc;fill-opacity:1;stroke:#666666"
       transform="rotate(-44.545114,52.727379,84.306425)">
      <circle
         cx="55.440796"
         cy="90.58149"
         r="24.6"
         id="circle3369-33-3-6-0-0-3"
         style="opacity:0.13;fill:#cccccc;fill-opacity:1;stroke:#666666;stroke-width:6;stroke-miterlimit:10" />
      <circle
         fill="#d71920"
         stroke="#be1e2d"
         cx="51.507595"
         cy="84.367409"
         r="24.6"
         id="circle3383-85-2-8-6-1-3"
         style="fill:#cccccc;fill-opacity:1;stroke:#666666;stroke-width:6;stroke-miterlimit:10" />
    </g>
  </g>
  <g
     style="display:inline;fill:#dddddd;stroke:#838383;stroke-width:6.389;stroke-miterlimit:10"
     id="g1482-7-0-25-1-3-3-20-6-6-5"
     transform="matrix(0.12528657,-0.17785739,0.21875,0.20456322,370.62848,16.877872)"
     inkscape:transform-center-x="-9.0324619"
     inkscape:transform-center-y="0.77022403" />
  <g
     style="display:inline;fill:#dddddd;stroke:#838383;stroke-width:6.389;stroke-miterlimit:10"
     id="g1482-7-0-25-1-3-3-20-6-9-7-9"
     transform="matrix(0.11773242,-0.18294549,0.22712045,0.19522801,183.83994,67.565922)"
     inkscape:transform-center-x="-9.0567829"
     inkscape:transform-center-y="0.39149042">
    <path
       style="stroke-width:35.526"
       inkscape:connector-curvature="0"
       id="path1478-7-9-8-5-1-6-2-1-3-4-9"
       transform="matrix(0.4768,-0.02932,0.03214,0.42867,147.58,197.367)"
       d="m 315.1,101.79 c 10.682,-4.135 21.77,-7.738 33.127,-11.074 -8.518,-8.139 -17.577,-16.01 -27.178,-23.616 -2.04,12.119 -3.103,21.663 -5.949,34.69 z" />
    <path
       style="fill:none;stroke-width:10.649;paint-order:markers fill stroke"
       inkscape:connector-curvature="0"
       id="path1480-1-3-9-5-4-7-3-2-1-5-1"
       transform="matrix(0.89574,0,0,0.81736,18.384,154.236)"
       d="M 47.872715,98.401069 C 126.06599,78.448462 241.85906,64.912232 317.498,86.173"
       sodipodi:nodetypes="cc" />
  </g>
  <g
     id="g2760-0-7-6"
     transform="matrix(0.501908,0.501908,-0.501908,0.501908,229.2864,-34.341068)"
     style="fill:#cccccc">
    <g
       id="g2749-6-8-1"
       style="fill:#cccccc;fill-opacity:1;stroke:#666666"
       transform="rotate(-44.545114,52.727379,84.306425)">
      <circle
         cx="55.440796"
         cy="90.58149"
         r="24.6"
         id="circle3369-33-3-6-0"
         style="opacity:0.13;fill:#cccccc;fill-opacity:1;stroke:#666666;stroke-width:6;stroke-miterlimit:10" />
      <circle
         fill="#d71920"
         stroke="#be1e2d"
         cx="51.507595"
         cy="84.367409"
         r="24.6"
         id="circle3383-85-2-8-6"
         style="fill:#cccccc;fill-opacity:1;stroke:#666666;stroke-width:6;stroke-miterlimit:10" />
    </g>
  </g>
  <g
     style="display:inline;fill:#dddddd;stroke:#838383;stroke-width:6.389;stroke-miterlimit:10"
     id="g1482-7-0-25-1-3-3-20-6-9-7-0"
     transform="matrix(0.12754656,-0.17624372,-0.26450229,-0.14048564,335.77902,197.454)"
     inkscape:transform-center-x="3.3023805"
     inkscape:transform-center-y="-8.2931016">
    <path
       style="stroke-width:35.526"
       inkscape:connector-curvature="0"
       id="path1478-7-9-8-5-1-6-2-1-3-4-3"
       transform="matrix(0.4768,-0.02932,0.03214,0.42867,147.58,197.367)"
       d="m 315.1,101.79 c 10.682,-4.135 21.77,-7.738 33.127,-11.074 -8.518,-8.139 -17.577,-16.01 -27.178,-23.616 -2.04,12.119 -3.103,21.663 -5.949,34.69 z" />
    <path
       style="fill:none;stroke-width:10.649;paint-order:markers fill stroke"
       inkscape:connector-curvature="0"
       id="path1480-1-3-9-5-4-7-3-2-1-5-9"
       transform="matrix(0.89574,0,0,0.81736,18.384,154.236)"
       d="M 47.872715,98.401069 C 126.06599,78.448462 241.85906,64.912232 317.498,86.173"
       sodipodi:nodetypes="cc" />
  </g>
  <g
     style="display:inline;fill:#dddddd;stroke:#838383;stroke-width:6.389;stroke-miterlimit:10"
     id="g1482-7-0-25-1-3-3-20-6-9-7-0-5"
     transform="matrix(-0.12754656,-0.17624372,0.26450229,-0.14048564,237.6895,197.09708)"
     inkscape:transform-center-x="-3.3023759"
     inkscape:transform-center-y="-8.2931016">
    <path
       style="stroke-width:35.526"
       inkscape:connector-curvature="0"
       id="path1478-7-9-8-5-1-6-2-1-3-4-3-5"
       transform="matrix(0.4768,-0.02932,0.03214,0.42867,147.58,197.367)"
       d="m 315.1,101.79 c 10.682,-4.135 21.77,-7.738 33.127,-11.074 -8.518,-8.139 -17.577,-16.01 -27.178,-23.616 -2.04,12.119 -3.103,21.663 -5.949,34.69 z" />
    <path
       style="fill:none;stroke-width:10.649;paint-order:markers fill stroke"
       inkscape:connector-curvature="0"
       id="path1480-1-3-9-5-4-7-3-2-1-5-9-8"
       transform="matrix(0.89574,0,0,0.81736,18.384,154.236)"
       d="M 47.872715,98.401069 C 126.06599,78.448462 241.85906,64.912232 317.498,86.173"
       sodipodi:nodetypes="cc" />
  </g>
  <g
     id="g2749-7-7-5"
     style="fill:#cccccc;fill-opacity:1;stroke:#666666"
     transform="matrix(0.70959204,0.01739057,-0.01739057,0.70959204,253.42784,84.133932)">
    <circle
       cx="55.440796"
       cy="90.58149"
       r="24.6"
       id="circle3369-7-4-0"
       style="opacity:0.13;fill:#cccccc;fill-opacity:1;stroke:#666666;stroke-width:6;stroke-miterlimit:10" />
    <circle
       fill="#d71920"
       stroke="#be1e2d"
       cx="51.507595"
       cy="84.367409"
       r="24.6"
       id="circle3383-4-5-3"
       style="fill:#cccccc;fill-opacity:1;stroke:#666666;stroke-width:6;stroke-miterlimit:10" />
  </g>
  <g
     style="display:inline;fill:#dddddd;stroke:#838383;stroke-width:6.389;stroke-miterlimit:10"
     id="g1482-7-0-25-1-3-3-20-6-9-7-0-5-0"
     transform="matrix(-0.12754656,-0.17624372,0.26450229,-0.14048564,201.98061,142.2963)"
     inkscape:transform-center-x="-3.3023759"
     inkscape:transform-center-y="-8.2931016">
    <path
       style="stroke-width:35.526"
       inkscape:connector-curvature="0"
       id="path1478-7-9-8-5-1-6-2-1-3-4-3-5-4"
       transform="matrix(0.4768,-0.02932,0.03214,0.42867,147.58,197.367)"
       d="m 315.1,101.79 c 10.682,-4.135 21.77,-7.738 33.127,-11.074 -8.518,-8.139 -17.577,-16.01 -27.178,-23.616 -2.04,12.119 -3.103,21.663 -5.949,34.69 z" />
    <path
       style="fill:none;stroke-width:10.649;paint-order:markers fill stroke"
       inkscape:connector-curvature="0"
       id="path1480-1-3-9-5-4-7-3-2-1-5-9-8-6"
       transform="matrix(0.89574,0,0,0.81736,18.384,154.236)"
       d="M 47.872715,98.401069 C 126.06599,78.448462 241.85906,64.912232 317.498,86.173"
       sodipodi:nodetypes="cc" />
  </g>
  <g
     id="g2760-9-8-7-9"
     transform="matrix(0.501908,0.501908,-0.501908,0.501908,231.65391,-62.053938)"
     style="fill:#cccccc;fill-opacity:1">
    <g
       id="g2749-4-6-4"
       style="fill:#cccccc;fill-opacity:1;stroke:#666666"
       transform="rotate(-37.328029,183.17645,-58.627543)">
      <circle
         cx="55.440796"
         cy="90.58149"
         r="24.6"
         id="circle3369-5-5-78"
         style="opacity:0.13;fill:#cccccc;fill-opacity:1;stroke:#666666;stroke-width:6;stroke-miterlimit:10" />
      <circle
         fill="#d71920"
         stroke="#be1e2d"
         cx="51.507595"
         cy="84.367409"
         r="24.6"
         id="circle3383-6-6-4"
         style="fill:#cccccc;fill-opacity:1;stroke:#666666;stroke-width:6;stroke-miterlimit:10" />
    </g>
  </g>
  <path
     d="m 283.16558,148.18406 q -0.64399,0.33414 -1.34264,0.50425 -0.69866,0.1701 -1.45807,0.1701 -2.26609,0 -3.5905,-1.26366 -1.32442,-1.26973 -1.32442,-3.43861 0,-2.17496 1.32442,-3.43862 1.32441,-1.26973 3.5905,-1.26973 0.75941,0 1.45807,0.1701 0.69865,0.17011 1.34264,0.50425 v 1.87727 q -0.65006,-0.4435 -1.28189,-0.65006 -0.63183,-0.20656 -1.33049,-0.20656 -1.25151,0 -1.9684,0.80194 -0.71688,0.80194 -0.71688,2.21141 0,1.40339 0.71688,2.20533 0.71689,0.80194 1.9684,0.80194 0.69866,0 1.33049,-0.20656 0.63183,-0.20656 1.28189,-0.65006 z"
     style="font-weight:bold;font-size:12.4422px;line-height:1.25;-inkscape-font-specification:'sans-serif Bold';word-spacing:0px;fill:#333333;stroke-width:0.311055"
     id="path9901" />
  <path
     d="m 285.10359,139.61182 h 6.31223 v 1.76791 h -3.97324 v 1.68893 h 3.73631 v 1.76791 h -3.73631 v 2.07775 h 4.1069 v 1.76791 h -6.44589 z"
     style="font-weight:bold;font-size:12.4422px;line-height:1.25;-inkscape-font-specification:'sans-serif Bold';word-spacing:0px;fill:#333333;stroke-width:0.311055"
     id="path9903" />
  <path
     d="m 297.74628,141.14279 q -1.06925,0 -1.65856,0.78979 -0.5893,0.78979 -0.5893,2.22356 0,1.42769 0.5893,2.21748 0.58931,0.78979 1.65856,0.78979 1.07533,0 1.66463,-0.78979 0.5893,-0.78979 0.5893,-2.21748 0,-1.43377 -0.5893,-2.22356 -0.5893,-0.78979 -1.66463,-0.78979 z m 0,-1.695 q 2.1871,0 3.42646,1.25151 1.23936,1.25151 1.23936,3.45684 0,2.19925 -1.23936,3.45076 -1.23936,1.25151 -3.42646,1.25151 -2.18103,0 -3.42647,-1.25151 -1.23936,-1.25151 -1.23936,-3.45076 0,-2.20533 1.23936,-3.45684 1.24544,-1.25151 3.42647,-1.25151 z"
     style="font-weight:bold;font-size:12.4422px;line-height:1.25;-inkscape-font-specification:'sans-serif Bold';word-spacing:0px;fill:#333333;stroke-width:0.311055"
     id="path9905" />
  <path
     d="m 240.64527,92.114632 q -0.64399,0.33414 -1.34264,0.50425 -0.69866,0.1701 -1.45807,0.1701 -2.26609,0 -3.5905,-1.26366 -1.32442,-1.26973 -1.32442,-3.43861 0,-2.17496 1.32442,-3.43862 1.32441,-1.26974 3.5905,-1.26974 0.75941,0 1.45807,0.17011 0.69865,0.17011 1.34264,0.50425 v 1.87727 q -0.65006,-0.4435 -1.28189,-0.65006 -0.63183,-0.20656 -1.33049,-0.20656 -1.25151,0 -1.9684,0.80194 -0.71688,0.80194 -0.71688,2.21141 0,1.40339 0.71688,2.20533 0.71689,0.80194 1.9684,0.80194 0.69866,0 1.33049,-0.20656 0.63183,-0.20656 1.28189,-0.65006 z"
     style="font-weight:bold;font-size:12.4422px;line-height:1.25;-inkscape-font-specification:'sans-serif Bold';word-spacing:0px;fill:#333333;stroke-width:0.311055"
     id="path9907" />
  <path
     d="m 242.58328,83.542392 h 6.31223 v 1.76791 h -3.97324 v 1.68893 h 3.73631 v 1.76791 h -3.73631 v 3.84566 h -2.33899 z"
     style="font-weight:bold;font-size:12.4422px;line-height:1.25;-inkscape-font-specification:'sans-serif Bold';word-spacing:0px;fill:#333333;stroke-width:0.311055"
     id="path9909" />
  <path
     d="m 255.22597,85.073362 q -1.06925,0 -1.65856,0.78979 -0.5893,0.78979 -0.5893,2.22356 0,1.42769 0.5893,2.21748 0.58931,0.78979 1.65856,0.78979 1.07533,0 1.66463,-0.78979 0.5893,-0.78979 0.5893,-2.21748 0,-1.43377 -0.5893,-2.22356 -0.5893,-0.78979 -1.66463,-0.78979 z m 0,-1.69501 q 2.1871,0 3.42646,1.25152 1.23936,1.25151 1.23936,3.45684 0,2.19925 -1.23936,3.45076 -1.23936,1.25151 -3.42646,1.25151 -2.18103,0 -3.42647,-1.25151 -1.23936,-1.25151 -1.23936,-3.45076 0,-2.20533 1.23936,-3.45684 1.24544,-1.25152 3.42647,-1.25152 z"
     style="font-weight:bold;font-size:12.4422px;line-height:1.25;-inkscape-font-specification:'sans-serif Bold';word-spacing:0px;fill:#333333;stroke-width:0.311055"
     id="path9911" />
  <path
     d="m 320.56076,92.439727 q -0.64399,0.33414 -1.34264,0.50424 -0.69866,0.17011 -1.45807,0.17011 -2.26609,0 -3.5905,-1.26366 -1.32442,-1.26973 -1.32442,-3.43861 0,-2.17496 1.32442,-3.43862 1.32441,-1.26974 3.5905,-1.26974 0.75941,0 1.45807,0.17011 0.69865,0.17011 1.34264,0.50425 v 1.87727 q -0.65006,-0.4435 -1.28189,-0.65006 -0.63183,-0.20656 -1.33049,-0.20656 -1.25151,0 -1.9684,0.80194 -0.71688,0.80194 -0.71688,2.21141 0,1.40339 0.71688,2.20533 0.71689,0.80194 1.9684,0.80194 0.69866,0 1.33049,-0.20656 0.63183,-0.20656 1.28189,-0.65006 z"
     style="font-weight:bold;font-size:12.4422px;line-height:1.25;-inkscape-font-specification:'sans-serif Bold';word-spacing:0px;fill:#333333;stroke-width:0.311055"
     id="path9913" />
  <path
     d="m 322.49877,83.867487 h 2.33899 v 9.07041 h -2.33899 z"
     style="font-weight:bold;font-size:12.4422px;line-height:1.25;-inkscape-font-specification:'sans-serif Bold';word-spacing:0px;fill:#333333;stroke-width:0.311055"
     id="path9915" />
  <path
     d="m 331.2715,85.398457 q -1.06925,0 -1.65856,0.78979 -0.5893,0.78979 -0.5893,2.22356 0,1.42769 0.5893,2.21748 0.58931,0.78979 1.65856,0.78979 1.07532,0 1.66463,-0.78979 0.5893,-0.78979 0.5893,-2.21748 0,-1.43377 -0.5893,-2.22356 -0.58931,-0.78979 -1.66463,-0.78979 z m 0,-1.69501 q 2.1871,0 3.42646,1.25151 1.23936,1.25152 1.23936,3.45685 0,2.19925 -1.23936,3.45076 -1.23936,1.25151 -3.42646,1.25151 -2.18103,0 -3.42647,-1.25151 -1.23936,-1.25151 -1.23936,-3.45076 0,-2.20533 1.23936,-3.45685 1.24544,-1.25151 3.42647,-1.25151 z"
     style="font-weight:bold;font-size:12.4422px;line-height:1.25;-inkscape-font-specification:'sans-serif Bold';word-spacing:0px;fill:#333333;stroke-width:0.311055"
     id="path9917" />
  <path
     d="m 204.20888,27.744542 v -3.64518 h 2.1871 v 9.45316 h -2.1871 v -0.9842 q -0.44957,0.60146 -0.99028,0.88092 -0.5407,0.27946 -1.25151,0.27946 -1.25758,0 -2.0656,-0.99635 -0.80801,-1.00242 -0.80801,-2.57592 0,-1.5735 0.80801,-2.56985 0.80802,-1.00242 2.0656,-1.00242 0.70474,0 1.24544,0.28554 0.54678,0.27946 0.99635,0.87484 z m -1.43377,4.40459 q 0.69866,0 1.06317,-0.51033 0.3706,-0.51032 0.3706,-1.48237 0,-0.97205 -0.3706,-1.48237 -0.36451,-0.51033 -1.06317,-0.51033 -0.69259,0 -1.06318,0.51033 -0.36452,0.51032 -0.36452,1.48237 0,0.97205 0.36452,1.48237 0.37059,0.51033 1.06318,0.51033 z"
     style="font-weight:bold;font-size:12.4422px;line-height:1.25;-inkscape-font-specification:'sans-serif Bold';word-spacing:0px;fill:#333333;stroke-width:0.311055"
     id="path9919" />
  <path
     d="m 215.27806,30.132132 v 0.61968 h -5.08502 q 0.079,0.76549 0.55285,1.14823 0.47388,0.38274 1.32442,0.38274 0.6865,0 1.40339,-0.20048 0.72296,-0.20656 1.48237,-0.61968 v 1.67678 q -0.77156,0.29161 -1.54312,0.43742 -0.77157,0.15188 -1.54313,0.15188 -1.84689,0 -2.87361,-0.93559 -1.02065,-0.94167 -1.02065,-2.63668 0,-1.66463 1.00242,-2.61845 1.0085,-0.95382 2.77034,-0.95382 1.60387,0 2.56377,0.96597 0.96597,0.96597 0.96597,2.582 z m -2.23571,-0.72296 q 0,-0.61968 -0.36451,-0.99635 -0.35845,-0.38274 -0.94167,-0.38274 -0.63183,0 -1.02673,0.35844 -0.39489,0.35237 -0.4921,1.02065 z"
     style="font-weight:bold;font-size:12.4422px;line-height:1.25;-inkscape-font-specification:'sans-serif Bold';word-spacing:0px;fill:#333333;stroke-width:0.311055"
     id="path9921" />
  <path
     d="m 219.09942,32.568322 v 3.57227 h -2.17495 v -9.3924 h 2.17495 v 0.99635 q 0.44957,-0.59538 0.99635,-0.87484 0.54677,-0.28554 1.25758,-0.28554 1.25759,0 2.0656,1.00242 0.80802,0.99635 0.80802,2.56985 0,1.5735 -0.80802,2.57592 -0.80801,0.99635 -2.0656,0.99635 -0.71081,0 -1.25758,-0.27946 -0.54678,-0.28554 -0.99635,-0.88092 z m 1.44592,-4.40459 q -0.69866,0 -1.07533,0.5164 -0.37059,0.51033 -0.37059,1.4763 0,0.96597 0.37059,1.48237 0.37667,0.51033 1.07533,0.51033 0.69866,0 1.06318,-0.51033 0.37059,-0.51032 0.37059,-1.48237 0,-0.97205 -0.37059,-1.48237 -0.36452,-0.51033 -1.06318,-0.51033 z"
     style="font-weight:bold;font-size:12.4422px;line-height:1.25;-inkscape-font-specification:'sans-serif Bold';word-spacing:0px;fill:#333333;stroke-width:0.311055"
     id="path9923" />
  <path
     d="m 209.03861,43.870842 h 2.0656 v -5.86266 l -2.12027,0.43742 v -1.59172 l 2.10812,-0.43742 h 2.22356 v 7.45438 h 2.0656 v 1.61603 h -6.34261 z"
     style="font-weight:bold;font-size:12.4422px;line-height:1.25;-inkscape-font-specification:'sans-serif Bold';word-spacing:0px;fill:#333333;stroke-width:0.311055"
     id="path9925" />
  <path
     d="m 277.18866,28.996878 v -3.64518 h 2.1871 v 9.45316 h -2.1871 v -0.9842 q -0.44957,0.60146 -0.99028,0.88092 -0.5407,0.27946 -1.25151,0.27946 -1.25758,0 -2.0656,-0.99635 -0.80801,-1.00242 -0.80801,-2.57592 0,-1.5735 0.80801,-2.56985 0.80802,-1.00242 2.0656,-1.00242 0.70474,0 1.24544,0.28554 0.54678,0.27946 0.99635,0.87484 z m -1.43377,4.40459 q 0.69866,0 1.06317,-0.51033 0.3706,-0.51032 0.3706,-1.48237 0,-0.97205 -0.3706,-1.48237 -0.36451,-0.51033 -1.06317,-0.51033 -0.69259,0 -1.06318,0.51033 -0.36452,0.51032 -0.36452,1.48237 0,0.97205 0.36452,1.48237 0.37059,0.51033 1.06318,0.51033 z"
     style="font-weight:bold;font-size:12.4422px;line-height:1.25;-inkscape-font-specification:'sans-serif Bold';word-spacing:0px;fill:#333333;stroke-width:0.311055"
     id="path9927" />
  <path
     d="m 288.25784,31.384468 v 0.61968 h -5.08502 q 0.079,0.76549 0.55285,1.14823 0.47388,0.38274 1.32442,0.38274 0.6865,0 1.40339,-0.20048 0.72296,-0.20656 1.48237,-0.61968 v 1.67678 q -0.77156,0.29161 -1.54312,0.43742 -0.77157,0.15188 -1.54313,0.15188 -1.84689,0 -2.87361,-0.93559 -1.02065,-0.94167 -1.02065,-2.63668 0,-1.66463 1.00242,-2.61845 1.0085,-0.95382 2.77034,-0.95382 1.60387,0 2.56377,0.96597 0.96597,0.96597 0.96597,2.582 z m -2.23571,-0.72296 q 0,-0.61968 -0.36451,-0.99635 -0.35845,-0.38274 -0.94167,-0.38274 -0.63183,0 -1.02673,0.35844 -0.39489,0.35237 -0.4921,1.02065 z"
     style="font-weight:bold;font-size:12.4422px;line-height:1.25;-inkscape-font-specification:'sans-serif Bold';word-spacing:0px;fill:#333333;stroke-width:0.311055"
     id="path9929" />
  <path
     d="m 292.0792,33.820658 v 3.57227 h -2.17495 v -9.3924 h 2.17495 v 0.99635 q 0.44957,-0.59538 0.99635,-0.87484 0.54677,-0.28554 1.25758,-0.28554 1.25759,0 2.0656,1.00242 0.80802,0.99635 0.80802,2.56985 0,1.5735 -0.80802,2.57592 -0.80801,0.99635 -2.0656,0.99635 -0.71081,0 -1.25758,-0.27946 -0.54678,-0.28554 -0.99635,-0.88092 z m 1.44592,-4.40459 q -0.69866,0 -1.07533,0.5164 -0.37059,0.51033 -0.37059,1.4763 0,0.96597 0.37059,1.48237 0.37667,0.51033 1.07533,0.51033 0.69866,0 1.06318,-0.51033 0.37059,-0.51032 0.37059,-1.48237 0,-0.97205 -0.37059,-1.48237 -0.36452,-0.51033 -1.06318,-0.51033 z"
     style="font-weight:bold;font-size:12.4422px;line-height:1.25;-inkscape-font-specification:'sans-serif Bold';word-spacing:0px;fill:#333333;stroke-width:0.311055"
     id="path9931" />
  <path
     d="m 283.84369,46.526638 h 3.99146 v 1.71931 h -6.59169 v -1.71931 l 3.31104,-2.92222 q 0.44349,-0.40096 0.65613,-0.78371 0.21263,-0.38274 0.21263,-0.79586 0,-0.63791 -0.43134,-1.02673 -0.42527,-0.38881 -1.13608,-0.38881 -0.54678,0 -1.19684,0.23693 -0.65005,0.23086 -1.39124,0.69258 v -1.99269 q 0.78979,-0.26124 1.56135,-0.3949 0.77156,-0.13973 1.51275,-0.13973 1.62818,0 2.52732,0.71689 0.90522,0.71688 0.90522,1.99877 0,0.74118 -0.38274,1.38517 -0.38275,0.6379 -1.60995,1.71323 z"
     style="font-weight:bold;font-size:12.4422px;line-height:1.25;-inkscape-font-specification:'sans-serif Bold';word-spacing:0px;fill:#333333;stroke-width:0.311055"
     id="path9933" />
</svg>
