<?xml version="1.0" encoding="UTF-8" standalone="no"?>
<svg
   viewBox="0 0 595.3 189.5"
   version="1.1"
   id="svg15613"
   sodipodi:docname="product_category_target_category.svg"
   inkscape:version="1.2.2 (b0a8486541, 2022-12-01)"
   xmlns:inkscape="http://www.inkscape.org/namespaces/inkscape"
   xmlns:sodipodi="http://sodipodi.sourceforge.net/DTD/sodipodi-0.dtd"
   xmlns="http://www.w3.org/2000/svg"
   xmlns:svg="http://www.w3.org/2000/svg"
   xmlns:rdf="http://www.w3.org/1999/02/22-rdf-syntax-ns#"
   xmlns:cc="http://creativecommons.org/ns#"
   xmlns:dc="http://purl.org/dc/elements/1.1/">
  <metadata
     id="metadata15619">
    <rdf:RDF>
      <cc:Work
         rdf:about="">
        <dc:format>image/svg+xml</dc:format>
        <dc:type
           rdf:resource="http://purl.org/dc/dcmitype/StillImage" />
      </cc:Work>
    </rdf:RDF>
  </metadata>
  <defs
     id="defs15617" />
  <sodipodi:namedview
     pagecolor="#ffffff"
     bordercolor="#666666"
     borderopacity="1"
     objecttolerance="10"
     gridtolerance="10"
     guidetolerance="10"
     inkscape:pageopacity="0"
     inkscape:pageshadow="2"
     inkscape:window-width="1080"
     inkscape:window-height="1853"
     id="namedview15615"
     showgrid="false"
     inkscape:zoom="0.65426268"
     inkscape:cx="505.91301"
     inkscape:cy="275.88308"
     inkscape:window-x="0"
     inkscape:window-y="0"
     inkscape:window-maximized="1"
     inkscape:current-layer="svg15613"
     inkscape:showpageshadow="2"
     inkscape:pagecheckerboard="0"
     inkscape:deskcolor="#d1d1d1"
     inkscape:lockguides="true" />
  <ellipse
     style="fill:#e6e7e8;stroke:#bbbcbe;stroke-width:0;stroke-miterlimit:10;stroke-dasharray:none;stroke-opacity:1"
     id="circle15601-9-4-4-6"
     cy="134.20274"
     cx="390.42419"
     transform="matrix(0.99404451,-0.10897482,0.10347127,0.99463244,0,0)"
     rx="84.861298"
     ry="86.678589" />
  <g
     style="display:inline;fill:#dddddd;stroke:#808080;stroke-width:6.389;stroke-miterlimit:10"
     id="g1482-7-0-1-0-3"
     transform="matrix(0.02763126,0.16697055,-0.20025397,0.00364074,436.16039,11.141276)"
     inkscape:transform-center-x="-8.6240547"
     inkscape:transform-center-y="-5.4606473">
    <path
       style="stroke:#808080;stroke-width:19.035"
       inkscape:connector-curvature="0"
       id="path1478-7-9-0-19-0"
       d="m 299.35609,233.03331 c 5.86522,-2.46626 11.97955,-4.67694 18.25569,-6.76162 -5.11164,-3.83015 -10.51811,-7.5057 -16.22007,-11.02813 -0.68956,6.21355 -0.92616,11.08802 -2.03562,17.78975 z" />
    <path
       style="fill:none;stroke:#808080;stroke-width:10.649;paint-order:markers fill stroke"
       inkscape:connector-curvature="0"
       id="path1480-1-3-1-5-7"
       d="M 127.38575,78.377847 C 176.95734,66.301724 277.68509,72.076365 317.498,86.173"
       sodipodi:nodetypes="cc"
       transform="matrix(0.89574,0,0,0.81736,18.384,154.236)" />
  </g>
  <g
     id="g16126"
     transform="matrix(0.15636444,0.81667214,-0.81667214,0.15636444,420.72468,-116.98072)"
     inkscape:transform-center-x="2.3061752"
     inkscape:transform-center-y="0.70407745">
    <ellipse
       ry="11.964526"
       rx="12.399649"
       transform="matrix(0.99721659,-0.07455915,0.0777593,0.99697216,0,0)"
       style="opacity:0.203;fill:#030303;fill-opacity:1;stroke:none;stroke-width:2.21405;stroke-miterlimit:10;stroke-dasharray:none;stroke-opacity:1"
       id="circle15601-9-4-6"
       cy="72.011345"
       cx="174.05568" />
    <ellipse
       ry="11.964526"
       rx="12.399649"
       transform="matrix(0.99721659,-0.07455915,0.0777593,0.99697216,0,0)"
       style="fill:#e6e7e8;stroke:#bbbcbe;stroke-width:2.21405;stroke-miterlimit:10;stroke-dasharray:none;stroke-opacity:1"
       id="circle15601-9-4"
       cy="73.518608"
       cx="172.10857" />
  </g>
  <g
     style="display:inline;fill:#dddddd;stroke:#808080;stroke-width:6.389;stroke-miterlimit:10"
     id="g1482-7-0-1-0-3-8"
     transform="matrix(0.12517669,0.11390104,-0.15488979,0.12698056,409.4644,35.581656)"
     inkscape:transform-center-x="-5.8520488"
     inkscape:transform-center-y="8.9551193">
    <path
       style="stroke:#808080;stroke-width:19.035"
       inkscape:connector-curvature="0"
       id="path1478-7-9-0-19-0-8"
       d="m 299.35609,233.03331 c 5.86522,-2.46626 11.97955,-4.67694 18.25569,-6.76162 -5.11164,-3.83015 -10.51811,-7.5057 -16.22007,-11.02813 -0.68956,6.21355 -0.92616,11.08802 -2.03562,17.78975 z" />
    <path
       style="fill:none;stroke:#808080;stroke-width:10.649;paint-order:markers fill stroke"
       inkscape:connector-curvature="0"
       id="path1480-1-3-1-5-7-5"
       d="M 127.38575,78.377847 C 176.95734,66.301724 277.68509,72.076365 317.498,86.173"
       sodipodi:nodetypes="cc"
       transform="matrix(0.89574,0,0,0.81736,18.384,154.236)" />
  </g>
  <g
     id="g16153-8-8"
     transform="matrix(0.58028873,0.59554026,-0.59554026,0.58028873,368.01751,-60.776484)"
     inkscape:transform-center-x="-26.357785"
     inkscape:transform-center-y="30.717511"
     style="fill:#54b948;fill-opacity:1;stroke:#00873a;stroke-opacity:0.980392">
    <ellipse
       cx="178.03879"
       cy="121.54649"
       id="circle15601-9-4-6-2-4-0"
       style="opacity:0.203;fill:#54b948;fill-opacity:1;stroke:#00873a;stroke-width:2.21405;stroke-miterlimit:10;stroke-dasharray:none;stroke-opacity:0.980392"
       transform="matrix(0.98724272,-0.15922253,0.16239023,0.98672662,0,0)"
       rx="12.399649"
       ry="11.964526" />
    <ellipse
       ry="11.748343"
       rx="12.175604"
       transform="matrix(-0.07418163,-0.99724475,0.99700153,-0.07738188,0,0)"
       style="fill:#54b948;fill-opacity:1;stroke:#00873a;stroke-width:1.67664;stroke-miterlimit:10;stroke-opacity:0.980392"
       id="circle15605-3-9"
       cy="186.48853"
       cx="-106.90229" />
  </g>
  <g
     style="display:inline;fill:#dddddd;stroke:#808080;stroke-width:6.389;stroke-miterlimit:10"
     id="g1482-7-0-1-0-3-8-79"
     transform="matrix(0.13894551,0.0966271,-0.13703176,0.14607261,408.01819,31.394916)"
     inkscape:transform-center-x="-6.9685614"
     inkscape:transform-center-y="8.1166337">
    <path
       style="stroke:#808080;stroke-width:19.035"
       inkscape:connector-curvature="0"
       id="path1478-7-9-0-19-0-8-9"
       d="m 299.35609,233.03331 c 5.86522,-2.46626 11.97955,-4.67694 18.25569,-6.76162 -5.11164,-3.83015 -10.51811,-7.5057 -16.22007,-11.02813 -0.68956,6.21355 -0.92616,11.08802 -2.03562,17.78975 z" />
    <path
       style="fill:none;stroke:#808080;stroke-width:10.649;paint-order:markers fill stroke"
       inkscape:connector-curvature="0"
       id="path1480-1-3-1-5-7-5-32"
       d="M 127.38575,78.377847 C 176.95734,66.301724 277.68509,72.076365 317.498,86.173"
       sodipodi:nodetypes="cc"
       transform="matrix(0.89574,0,0,0.81736,18.384,154.236)" />
  </g>
  <g
     id="g16153"
     transform="matrix(0.08623917,0.82702238,-0.82702238,0.08623917,458.96423,-89.754424)">
    <ellipse
       cx="178.59279"
       cy="120.17319"
       id="circle15601-9-4-6-2"
       style="opacity:0.203;fill:#030303;fill-opacity:1;stroke:none;stroke-width:2.21405;stroke-miterlimit:10;stroke-dasharray:none;stroke-opacity:1"
       transform="matrix(0.98724272,-0.15922253,0.16239023,0.98672662,0,0)"
       rx="12.399649"
       ry="11.964526" />
    <ellipse
       ry="11.748343"
       rx="12.175604"
       transform="matrix(-0.07418163,-0.99724475,0.99700153,-0.07738188,0,0)"
       style="fill:#fce600;fill-opacity:1;stroke:#ffcc00;stroke-width:1.67664;stroke-miterlimit:10;stroke-opacity:1"
       id="circle15605"
       cy="186.48853"
       cx="-106.90229" />
  </g>
  <g
     style="display:inline;fill:#dddddd;stroke:#808080;stroke-width:6.389;stroke-miterlimit:10"
     id="g1482-7-0-1-0-3-8-1"
     transform="matrix(0.11665851,-0.12261094,-0.16362326,-0.11550904,417.04886,185.0006)"
     inkscape:transform-center-x="-5.1984708"
     inkscape:transform-center-y="-9.3528991">
    <path
       style="stroke:#808080;stroke-width:19.035"
       inkscape:connector-curvature="0"
       id="path1478-7-9-0-19-0-8-7"
       d="m 299.35609,233.03331 c 5.86522,-2.46626 11.97955,-4.67694 18.25569,-6.76162 -5.11164,-3.83015 -10.51811,-7.5057 -16.22007,-11.02813 -0.68956,6.21355 -0.92616,11.08802 -2.03562,17.78975 z" />
    <path
       style="fill:none;stroke:#808080;stroke-width:10.649;paint-order:markers fill stroke"
       inkscape:connector-curvature="0"
       id="path1480-1-3-1-5-7-5-4"
       d="M 127.38575,78.377847 C 176.95734,66.301724 277.68509,72.076365 317.498,86.173"
       sodipodi:nodetypes="cc"
       transform="matrix(0.89574,0,0,0.81736,18.384,154.236)" />
  </g>
  <g
     id="g16153-2-1"
     transform="matrix(0.08623917,0.82702238,-0.82702238,0.08623917,459.60831,-27.871174)"
     style="fill:#39bced;fill-opacity:1;stroke:#008dd2;stroke-opacity:1">
    <ellipse
       cx="178.59279"
       cy="120.17319"
       id="circle15601-9-4-6-2-0-7"
       style="opacity:0.203;fill:#39bced;fill-opacity:1;stroke:#008dd2;stroke-width:2.21405;stroke-miterlimit:10;stroke-dasharray:none;stroke-opacity:1"
       transform="matrix(0.98724272,-0.15922253,0.16239023,0.98672662,0,0)"
       rx="12.399649"
       ry="11.964526" />
    <ellipse
       ry="11.748343"
       rx="12.175604"
       transform="matrix(-0.07418163,-0.99724475,0.99700153,-0.07738188,0,0)"
       style="fill:#39bced;fill-opacity:1;stroke:#008dd2;stroke-width:1.67664;stroke-miterlimit:10;stroke-opacity:1"
       id="circle15605-2-5"
       cy="187.49207"
       cx="-105.97223" />
  </g>
  <ellipse
     style="fill:#e6e7e8;stroke:#bbbcbe;stroke-width:0;stroke-miterlimit:10;stroke-dasharray:none;stroke-opacity:1"
     id="circle15601-9-4-4-6-1"
     cy="107.75399"
     cx="150.60966"
     transform="matrix(0.99404451,-0.10897482,0.10347127,0.99463244,0,0)"
     rx="84.861298"
     ry="86.678589" />
  <g
     id="g16126-2-7"
     transform="matrix(0.91075762,-0.10560066,0.10560066,0.91075762,14.81949,56.024317)"
     inkscape:transform-center-x="-0.58686624"
     inkscape:transform-center-y="2.5931836"
     style="fill:#000000;fill-opacity:1">
    <ellipse
       ry="11.964526"
       rx="12.399649"
       transform="matrix(0.99721659,-0.07455915,0.0777593,0.99697216,0,0)"
       style="opacity:0.203;fill:#000000;fill-opacity:1;stroke:none;stroke-width:2.21405;stroke-miterlimit:10;stroke-dasharray:none;stroke-opacity:1"
       id="circle15601-9-4-6-28-8"
       cy="76.348717"
       cx="173.35909" />
    <ellipse
       ry="11.964526"
       rx="12.399649"
       transform="matrix(0.99721659,-0.07455915,0.0777593,0.99697216,0,0)"
       style="fill:#000000;fill-opacity:1;stroke:#4d4d4d;stroke-width:2.21405;stroke-miterlimit:10;stroke-dasharray:none;stroke-opacity:1"
       id="circle15601-9-4-9-4"
       cy="73.522354"
       cx="171.56743" />
  </g>
  <g
     style="display:inline;fill:#dddddd;stroke:#0000ff;stroke-width:6.389;stroke-miterlimit:10"
     id="g1482-7-0-1-0-3-7"
     transform="matrix(0.13121868,-0.00776658,-0.01347054,0.15497689,128.4375,59.710427)"
     inkscape:transform-center-x="3.5882699"
     inkscape:transform-center-y="-6.723415">
    <path
       style="stroke:#0000ff;stroke-width:19.035"
       inkscape:connector-curvature="0"
       id="path1478-7-9-0-19-0-9"
       d="m 299.35609,233.03331 c 5.86522,-2.46626 11.97955,-4.67694 18.25569,-6.76162 -5.11164,-3.83015 -10.51811,-7.5057 -16.22007,-11.02813 -0.68956,6.21355 -0.92616,11.08802 -2.03562,17.78975 z" />
    <path
       style="fill:none;stroke:#0000ff;stroke-width:10.649;paint-order:markers fill stroke"
       inkscape:connector-curvature="0"
       id="path1480-1-3-1-5-7-3"
       d="M 127.38575,78.377847 C 176.95734,66.301724 277.68509,72.076365 317.498,86.173"
       sodipodi:nodetypes="cc"
       transform="matrix(0.89574,0,0,0.81736,18.384,154.236)" />
  </g>
  <g
     id="g16126-2-7-5"
     transform="matrix(0.91075762,-0.10560066,0.10560066,0.91075762,-33.71484,55.313047)"
     inkscape:transform-center-x="-0.58686665"
     inkscape:transform-center-y="2.5931833"
     style="fill:#000000;fill-opacity:1">
    <ellipse
       ry="11.964526"
       rx="12.399649"
       transform="matrix(0.99721659,-0.07455915,0.0777593,0.99697216,0,0)"
       style="opacity:0.203;fill:#000000;fill-opacity:1;stroke:none;stroke-width:2.21405;stroke-miterlimit:10;stroke-dasharray:none;stroke-opacity:1"
       id="circle15601-9-4-6-28-8-0"
       cy="76.348717"
       cx="173.35909" />
    <ellipse
       ry="11.964526"
       rx="12.399649"
       transform="matrix(0.99721659,-0.07455915,0.0777593,0.99697216,0,0)"
       style="fill:#ffffff;fill-opacity:1;stroke:#bbbcbe;stroke-width:2.21405;stroke-miterlimit:10;stroke-dasharray:none;stroke-opacity:1"
       id="circle15601-9-4-9-4-3"
       cy="73.518608"
       cx="172.10857" />
  </g>
</svg>
