<?xml version="1.0" encoding="UTF-8" standalone="no"?>
<!-- Created with Inkscape (http://www.inkscape.org/) -->

<svg
   width="500mm"
   height="500mm"
   viewBox="0 0 499.99999 499.99999"
   version="1.1"
   id="svg259"
   inkscape:version="1.2.2 (b0a8486541, 2022-12-01)"
   sodipodi:docname="a-cat.svg"
   xmlns:inkscape="http://www.inkscape.org/namespaces/inkscape"
   xmlns:sodipodi="http://sodipodi.sourceforge.net/DTD/sodipodi-0.dtd"
   xmlns="http://www.w3.org/2000/svg"
   xmlns:svg="http://www.w3.org/2000/svg">
  <sodipodi:namedview
     id="namedview261"
     pagecolor="#ffffff"
     bordercolor="#666666"
     borderopacity="1.0"
     inkscape:showpageshadow="2"
     inkscape:pageopacity="0.0"
     inkscape:pagecheckerboard="0"
     inkscape:deskcolor="#d1d1d1"
     inkscape:document-units="mm"
     showgrid="false"
     inkscape:zoom="0.5"
     inkscape:cx="780"
     inkscape:cy="1133"
     inkscape:window-width="1080"
     inkscape:window-height="1853"
     inkscape:window-x="0"
     inkscape:window-y="0"
     inkscape:window-maximized="1"
     inkscape:current-layer="layer1" />
  <defs
     id="defs256" />
  <g
     inkscape:groupmode="layer"
     id="layer2"
     inkscape:label="Layer 2"
     style="display:inline" />
  <g
     inkscape:label="Layer 1"
     inkscape:groupmode="layer"
     id="layer1">
    <path
       style="fill:#000000;stroke:#515151;stroke-width:4;stroke-linecap:round;stroke-linejoin:round;stroke-dasharray:none;stroke-opacity:1;paint-order:markers fill stroke;stop-color:#000000"
       d="m 310.58175,314.4301 c 0.72673,8.34181 1.18989,16.1005 -0.21836,24.43408 -1.09512,6.48079 -6.68934,10.59145 -10.89232,14.92296 -18.03203,18.58327 -35.84447,25.13502 -61.23815,26.4785 -3.03985,0.16086 -13.38275,1.46608 -15.81172,-1.02961 -4.451,-4.57328 3.15331,-12.39026 7.73664,-13.02113 18.4539,-2.53997 58.81922,-11.4556 64.82144,-33.11391 1.48664,-5.36442 1.7463,-15.1798 2.60079,-18.41809"
       id="path31971"
       sodipodi:nodetypes="cscsscsc" />
    <path
       style="fill:#000000;stroke:#515151;stroke-width:4;stroke-linecap:round;stroke-linejoin:round;stroke-dasharray:none;stroke-opacity:1;paint-order:markers fill stroke;stop-color:#000000"
       d="m 213.60537,297.11223 c 10.96194,-7.79986 23.14601,-7.92678 35.64148,-9.90065 9.62448,-1.52036 18.92079,-6.28988 28.9081,-3.95904 4.69895,1.09665 4.82981,2.61313 8.71193,4.55341 13.1096,6.55218 23.00474,6.16828 23.7603,24.35675 0.24201,5.82592 0.0822,10.88455 -3.76158,15.64276 -28.72424,35.55727 -116.42619,47.72871 -116.42619,-14.25659 0,-8.77273 2.5858,-15.80255 11.48426,-18.61464 6.39163,-2.01986 12.2189,1.09054 11.87913,-0.59436 -0.6741,-3.34277 -1.62028,1.24382 -0.7918,-4.1585"
       id="path31969" />
    <path
       style="fill:#000000;stroke:#515151;stroke-width:4;stroke-linecap:round;stroke-linejoin:round;stroke-dasharray:none;stroke-opacity:1;paint-order:markers fill stroke;stop-color:#000000"
       d="m 201.62972,241.78944 c -4.04822,6.68754 -7.652,19.77324 -9.3937,25.28463 -7.52166,23.80123 0.94037,35.35877 26.73009,37.42666 9.54198,0.76511 23.49434,1.23249 30.29427,-6.53599 9.32226,-10.65006 6.59453,-29.84091 -1.58361,-40.19695 -3.36915,-4.26638 -7.81056,-13.39693 -11.924,-18.83204 -2.71858,13.40339 -1.97534,22.15429 -7.00416,22.40344 -8.34243,0.41333 -5.72757,-0.9255 -16.16298,0.80012 -10.43541,1.72561 -7.61182,-8.09295 -10.95591,-20.34987 z"
       id="path31963"
       sodipodi:nodetypes="csssscszc" />
    <g
       id="g34369"
       transform="translate(3.4323486,13.345955)">
      <path
         style="font-variation-settings:normal;opacity:1;fill:#fefefe;fill-opacity:1;stroke:#515151;stroke-width:4;stroke-linecap:butt;stroke-linejoin:miter;stroke-miterlimit:4;stroke-dasharray:none;stroke-dashoffset:0;stroke-opacity:1;stop-color:#000000;stop-opacity:1"
         d="m 216.44306,266.64006 c 0,0 1.26648,-11.10667 12.56752,-12.08057 11.30105,-0.97388 27.08385,7.01471 27.08385,7.01471 0,0 -13.24987,12.08057 -24.55091,12.5675 -11.30105,0.48693 -15.10046,-7.50164 -15.10046,-7.50164 z"
         id="path33607" />
      <path
         style="font-variation-settings:normal;opacity:1;vector-effect:none;fill:#ffb380;fill-opacity:1;stroke:#000080;stroke-width:3.37848;stroke-linecap:butt;stroke-linejoin:miter;stroke-miterlimit:4;stroke-dasharray:none;stroke-dashoffset:0;stroke-opacity:1;-inkscape-stroke:none;stop-color:#000000;stop-opacity:1"
         d="m 231.46796,268.76806 c 0,0 -1.99694,-2.62476 -2.15791,-3.76814 -0.16097,-1.14338 1.90022,-4.39613 1.90022,-4.39613 0,0 1.27205,2.80196 1.25599,4.12238 -0.0161,1.32041 -0.9983,4.04189 -0.9983,4.04189 z"
         id="path34299" />
    </g>
    <g
       id="g34373"
       transform="translate(1.1441162,12.583211)">
      <path
         style="font-variation-settings:normal;fill:#fefefe;fill-opacity:1;stroke:#515151;stroke-width:4;stroke-linecap:butt;stroke-linejoin:miter;stroke-miterlimit:4;stroke-dasharray:none;stroke-dashoffset:0;stroke-opacity:1;stop-color:#000000"
         d="m 217.87515,268.17945 c 0,0 -1.26648,-11.10667 -12.56752,-12.08057 -11.30105,-0.97388 -27.08385,7.01471 -27.08385,7.01471 0,0 13.24987,12.08057 24.55091,12.5675 11.30105,0.48693 15.10046,-7.50164 15.10046,-7.50164 z"
         id="path33607-2" />
      <path
         style="font-variation-settings:normal;vector-effect:none;fill:#ffb380;fill-opacity:1;stroke:#000080;stroke-width:3.37848;stroke-linecap:butt;stroke-linejoin:miter;stroke-miterlimit:4;stroke-dasharray:none;stroke-dashoffset:0;stroke-opacity:1;-inkscape-stroke:none;stop-color:#000000"
         d="m 199.99048,269.92608 c 0,0 1.99694,-2.62476 2.15791,-3.76814 0.16097,-1.14338 -1.90022,-4.39613 -1.90022,-4.39613 0,0 -1.27205,2.80196 -1.25599,4.12238 0.0161,1.32041 0.9983,4.04189 0.9983,4.04189 z"
         id="path34299-2" />
    </g>
  </g>
  <g
     inkscape:groupmode="layer"
     id="layer3"
     inkscape:label="Layer 3"
     style="display:inline" />
</svg>
