<?xml version="1.0" encoding="utf-8"?>
<svg width="300px" height="200px" viewBox="0 0 300 221" xmlns="http://www.w3.org/2000/svg" xmlns:xlink="http://www.w3.org/1999/xlink">
  <defs>
    <symbol id="symbol-1" viewBox="0 0 75.9891 137.2121">
      <circle style="fill: rgb(216, 216, 216); stroke-width: 5px; stroke: rgb(102, 102, 102);" cx="243.248" cy="327.315" r="21.703" transform="matrix(0.8386710286140442, -0.544638991355896, 0.544638991355896, 0.8386710286140442, -336.30639595590213, -34.83714732185037)"/>
      <circle style="fill: rgb(216, 216, 216); stroke-width: 5px; stroke: rgb(102, 102, 102);" cx="271.904" cy="253.912" r="21.703" transform="matrix(0.8386710286140442, -0.544638991355896, 0.544638991355896, 0.8386710286140442, -336.30639595590213, -34.83714732185037)"/>
      <line style="stroke-width: 5px; marker-start: url(#marker-0); stroke: rgb(102, 102, 102);" x1="260.613" y1="282.91" x2="251.477" y2="305.225" transform="matrix(0.8386710286140442, -0.544638991355896, 0.544638991355896, 0.8386710286140442, -336.30639595590213, -34.83714732185037)"/>
    </symbol>
    <marker id="marker-0" viewBox="0 0 12.641 9.03" overflow="visible" orient="auto" refX="6.32" refY="4.51">
      <polyline style="fill: none; stroke-miterlimit: 2; stroke-width: 5px; stroke: rgb(105, 105, 105);" points="2 3.775 10.625 0 14.641 9.03" transform="matrix(-0.390731, -0.920505, 0.920505, -0.390731, 7.415497, 13.938211)"/>
    </marker>
    <symbol id="symbol-2" viewBox="0 0 75.9891 137.2121">
      <circle style="stroke-width: 5px; stroke: rgb(102, 102, 102); fill: rgb(255, 255, 255);" cx="243.248" cy="327.315" r="21.703" transform="matrix(0.8386710286140442, -0.544638991355896, 0.544638991355896, 0.8386710286140442, -336.3063959559022, -34.83714732185041)"/>
      <circle style="stroke-width: 5px; stroke: rgb(102, 102, 102); fill: rgb(255, 255, 255);" cx="271.904" cy="253.912" r="21.703" transform="matrix(0.8386710286140442, -0.544638991355896, 0.544638991355896, 0.8386710286140442, -336.3063959559022, -34.83714732185041)"/>
      <line style="stroke-width: 5px; marker-start: url(#marker-0); stroke: rgb(102, 102, 102); fill: rgb(255, 255, 255);" x1="222.038" y1="264.931" x2="212.902" y2="287.246" transform="matrix(0.8386710286140442, -0.544638991355896, 0.544638991355896, 0.8386710286140442, -294.1620401819764, -40.768025007397284)"/>
    </symbol>
  </defs>
  <circle cx="147.504" cy="50.809" r="46.718" style="fill: rgb(250, 250, 250); stroke: rgb(182, 182, 182);"/>
  <use width="75.98909759521484" height="137.21209716796875" transform="matrix(0.219831, 0, 0, 0.219831, 118.930389, 27.342735)" style="stroke-width: 23.94px; stroke: rgb(166, 172, 148);" xlink:href="#symbol-1"/>
  <use width="75.98909759521484" height="137.21209716796875" transform="matrix(0.157513, 0.153347, -0.153347, 0.157513, 134.751266, 9.825493)" style="stroke-width: 23.94px; stroke: rgb(166, 172, 148);" xlink:href="#symbol-1"/>
  <use width="75.98909759521484" height="137.21209716796875" transform="matrix(-0.216426, 0, 0, 0.219831, 163.934402, 63.640358)" style="stroke-width: 23.94px; stroke: rgb(166, 172, 148);" xlink:href="#symbol-1"/>
  <use width="75.98909759521484" height="137.21209716796875" transform="matrix(-0.210659, 0.056446, 0.053174, 0.211602, 161.273315, 44.924484)" style="stroke-width: 23.94px; stroke: rgb(166, 172, 148);" xlink:href="#symbol-1"/>
  <use width="75.98909759521484" height="137.21209716796875" transform="matrix(0.150463, -0.160271, 0.160271, 0.150463, 119.768219, 51.279892)" style="stroke-width: 23.94px; stroke: rgb(166, 172, 148);" xlink:href="#symbol-1"/>
  <use width="75.98909759521484" height="137.21209716796875" transform="matrix(-0.190152, -0.106797, -0.109796, 0.188541, 176.882767, 37.463085)" style="stroke-width: 23.94px; stroke: rgb(166, 172, 148);" xlink:href="#symbol-1"/>
  <use width="75.98909759521484" height="137.21209716796875" transform="matrix(-0.091178, 0.198116, 0.196751, 0.094296, 140.602844, 51.129265)" style="stroke-width: 23.94px; stroke: rgb(166, 172, 148);" xlink:href="#symbol-1"/>
  <use width="75.98909759521484" height="137.21209716796875" transform="matrix(0.21953, 0.011499, -0.011499, 0.21953, 123.014862, 61.826454)" style="stroke-width: 23.94px; stroke: rgb(166, 172, 148);" xlink:href="#symbol-1"/>
  <use width="75.98909759521484" height="137.21209716796875" transform="matrix(-0.043677, 0.215448, -0.215448, -0.043677, 150.469955, 28.690331)" style="stroke-width: 23.94px; stroke: rgb(166, 172, 148);" xlink:href="#symbol-1"/>
  <use width="75.98909759521484" height="137.21209716796875" transform="matrix(0.213156, 0.053754, -0.053754, 0.213156, 110.852325, 35.272491)" xlink:href="#symbol-2"/>
  <use width="75.98909759521484" height="137.21209716796875" transform="matrix(-0.198729, -0.081985, -0.083836, 0.203217, 194.954697, 51.972366)" xlink:href="#symbol-2"/>
  <use width="75.98909759521484" height="137.21209716796875" transform="matrix(0.213156, 0.053754, -0.053754, 0.213156, 111.64959, 17.811684)" xlink:href="#symbol-2"/>
  <use width="75.98909759521484" height="137.21209716796875" transform="matrix(-0.198729, -0.081985, -0.083836, 0.203217, 190.87442, 32.384563)" xlink:href="#symbol-2"/>
  <use width="75.98909759521484" height="137.21209716796875" transform="matrix(0.161898, -0.148711, 0.148711, 0.161898, 108.403572, 75.348831)" style="stroke-width: 23.94px; stroke: rgb(166, 172, 148);" xlink:href="#symbol-1"/>
  <use width="75.98909759521484" height="137.21209716796875" transform="matrix(-0.125455, -0.176356, -0.17913, 0.127427, 178.893341, 81.505005)" style="stroke-width: 23.94px; stroke: rgb(166, 172, 148);" xlink:href="#symbol-1"/>
  <use width="75.98909759521484" height="137.21209716796875" transform="matrix(-0.210659, 0.056446, 0.053174, 0.211602, 173.649765, 54.622818)" style="stroke-width: 23.94px; stroke: rgb(166, 172, 148);" xlink:href="#symbol-1"/>
  <use width="75.98909759521484" height="137.21209716796875" transform="matrix(0.130381, -0.176993, 0.176993, 0.130381, 138.54747, 22.422535)" xlink:href="#symbol-2"/>
  <use width="75.98909759521484" height="137.21209716796875" transform="matrix(0.209861, -0.065449, 0.065449, 0.209861, 147.004318, 8.821932)" xlink:href="#symbol-2"/>
  <circle cx="149.035" cy="147.239" r="46.091" style="fill: rgb(250, 250, 250); stroke: rgb(182, 182, 182);"/>
  <use width="75.98909759521484" height="137.21209716796875" transform="matrix(0.144345, -0.165801, 0.165801, 0.144345, 100.99823, 158.360153)" xlink:href="#symbol-2"/>
  <rect x="113.651" y="198.269" width="69.885" height="17.831" style="fill: rgb(250, 250, 250); stroke: rgb(182, 182, 182);" rx="9.242" ry="9.242"/>
  <line style="marker-start: url(#marker-0); fill: rgb(255, 255, 255); stroke: rgb(139, 139, 139);" x1="149.395" y1="152.864" x2="117.484" y2="198.211" transform="matrix(0.838671, -0.544639, 0.544639, 0.838671, -74.076833, 100.995667)"/>
  <line style="marker-start: url(#marker-0); fill: rgb(255, 255, 255); stroke: rgb(139, 139, 139);" x1="169.884" y1="139.288" x2="129.812" y2="199.077" transform="matrix(0.838671, -0.544639, 0.544639, 0.838671, -67.968481, 108.907123)"/>
  <line style="marker-start: url(#marker-0); fill: rgb(255, 255, 255); stroke: rgb(139, 139, 139);" x1="175.351" y1="159.619" x2="152.024" y2="202.494" transform="matrix(0.838671, -0.544639, 0.544639, 0.838671, -72.20281, 118.360277)"/>
  <line style="marker-start: url(#marker-0); fill: rgb(255, 246, 246); stroke: rgb(176, 173, 173); stroke-width: 1.1px;" x1="144.892" y1="95.592" x2="123.513" y2="134.669" transform="matrix(0.838671, -0.544639, 0.544639, 0.838671, -41.053747, 91.665808)"/>
  <line style="marker-start: url(#marker-0); fill: rgb(255, 246, 246); stroke: rgb(176, 173, 173); stroke-width: 1.1px;" x1="157.453" y1="84.567" x2="138.681" y2="119.595" transform="matrix(0.838671, -0.544639, 0.544639, 0.838671, -31.709731, 97.111687)"/>
  <line style="marker-start: url(#marker-0); fill: rgb(255, 246, 246); stroke: rgb(176, 173, 173); stroke-width: 1.1px;" x1="167.835" y1="96.426" x2="146.19" y2="142.778" transform="matrix(0.838671, -0.544639, 0.544639, 0.838671, -39.809176, 104.810405)"/>
  <line style="marker-start: url(#marker-0); stroke: rgb(102, 102, 102); fill: rgb(255, 255, 255); stroke-width: 1.1px;" x1="142.49" y1="81.105" x2="134.998" y2="81.324" transform="matrix(0.838671, -0.544639, 0.544639, 0.838671, -21.849098, 88.667643)"/>
  <circle cx="148.976" cy="140.381" r="23.382" style="fill: none; stroke: rgb(182, 182, 182);"/>
  <circle style="stroke: rgb(102, 102, 102); fill: rgb(139, 139, 139);" cx="52.336" cy="70.424" r="4.669" transform="matrix(0.838671, -0.544639, 0.544639, 0.838671, 49.439682, 175.024521)"/>
  <circle style="stroke: rgb(102, 102, 102); fill: rgb(139, 139, 139);" cx="52.336" cy="70.424" r="4.669" transform="matrix(0.838671, -0.544639, 0.544639, 0.838671, 67.608353, 174.430801)"/>
  <circle style="stroke: rgb(102, 102, 102); fill: rgb(139, 139, 139);" cx="52.336" cy="70.424" r="4.669" transform="matrix(0.838671, -0.544639, 0.544639, 0.838671, 83.506943, 176.02066)"/>
  <circle style="stroke: rgb(102, 102, 102); fill: rgb(139, 139, 139); stroke-width: 1.1px;" cx="52.336" cy="70.424" r="4.669" transform="matrix(0.838671, -0.544639, 0.544639, 0.838671, 49.570168, 55.173477)"/>
  <circle style="stroke: rgb(102, 102, 102); fill: rgb(139, 139, 139); stroke-width: 1.1px;" cx="52.336" cy="70.424" r="4.669" transform="matrix(0.838671, -0.544639, 0.544639, 0.838671, 65.287636, 44.655617)"/>
  <circle style="stroke: rgb(102, 102, 102); fill: rgb(139, 139, 139); stroke-width: 1.1px;" cx="52.336" cy="70.424" r="4.669" transform="matrix(0.838671, -0.544639, 0.544639, 0.838671, 71.602066, 56.619209)"/>
  <line style="marker-start: url(#marker-0); stroke: rgb(102, 102, 102); fill: rgb(255, 255, 255); stroke-width: 1.1px;" x1="146.047" y1="90.312" x2="137.556" y2="83.787" transform="matrix(0.838671, -0.544639, 0.544639, 0.838671, -24.533801, 91.27423)"/>
  <use width="75.98909759521484" height="137.21209716796875" transform="matrix(0.197043, 0.097463, -0.097463, 0.197043, 178.00676, 143.596924)" xlink:href="#symbol-2"/>
  <use width="75.98909759521484" height="137.21209716796875" transform="matrix(0.132618, 0.175324, -0.175324, 0.132618, 164.790802, 18.970348)" xlink:href="#symbol-2"/>
  <line style="marker-start: url(#marker-0); stroke: rgb(102, 102, 102); fill: rgb(255, 255, 255); stroke-width: 1.1px;" x1="147.339" y1="133.663" x2="137.659" y2="136.077" transform="matrix(0.838671, -0.544639, 0.544639, 0.838671, -50.466171, 99.368962)"/>
  <circle style="stroke: rgb(102, 102, 102); fill: rgb(139, 139, 139); stroke-width: 1.1px;" cx="52.336" cy="70.424" r="4.669" transform="matrix(0.838671, -0.544639, 0.544639, 0.838671, 53.005642, 110.343796)"/>
  <circle style="stroke: rgb(102, 102, 102); fill: rgb(139, 139, 139); stroke-width: 1.1px;" cx="52.336" cy="70.424" r="4.669" transform="matrix(0.838671, -0.544639, 0.544639, 0.838671, 68.723114, 95.996048)"/>
  <circle style="stroke: rgb(102, 102, 102); fill: rgb(139, 139, 139); stroke-width: 1.1px;" cx="52.336" cy="70.424" r="4.669" transform="matrix(0.838671, -0.544639, 0.544639, 0.838671, 78.548271, 119.44928)"/>
  <line style="marker-start: url(#marker-0); stroke: rgb(102, 102, 102); fill: rgb(255, 255, 255); stroke-width: 1.1px;" x1="151.786" y1="150.634" x2="142.517" y2="138.276" transform="matrix(0.838671, -0.544639, 0.544639, 0.838671, -54.935954, 103.449235)"/>
  <use width="75.98909759521484" height="137.21209716796875" transform="matrix(0.197043, 0.097463, -0.097463, 0.197043, 182.300568, 126.506729)" xlink:href="#symbol-2"/>
  <use width="75.98909759521484" height="137.21209716796875" transform="matrix(0.17796, 0.129059, -0.129059, 0.17796, 118.414978, 109.945602)" xlink:href="#symbol-2"/>
  <use width="75.98909759521484" height="137.21209716796875" transform="matrix(0.218136, -0.027257, 0.027257, 0.218136, 112.547417, 144.075348)" xlink:href="#symbol-2"/>
  <use width="75.98909759521484" height="137.21209716796875" transform="matrix(0.209022, -0.06809, 0.06809, 0.209022, 168.29451, 115.943466)" xlink:href="#symbol-2"/>
  <use width="75.98909759521484" height="137.21209716796875" transform="matrix(0.08424, -0.203051, 0.203051, 0.08424, 115.46769, 182.099884)" xlink:href="#symbol-2"/>
</svg>