<?xml version="1.0" encoding="UTF-8" standalone="no"?>
<svg
   width="595.3"
   height="200"
   version="1.1"
   id="svg9949"
   sodipodi:docname="finite_three.svg"
   inkscape:version="1.2.2 (1:1.2.2+202212051552+b0a8486541)"
   xmlns:inkscape="http://www.inkscape.org/namespaces/inkscape"
   xmlns:sodipodi="http://sodipodi.sourceforge.net/DTD/sodipodi-0.dtd"
   xmlns="http://www.w3.org/2000/svg"
   xmlns:svg="http://www.w3.org/2000/svg"
   xmlns:rdf="http://www.w3.org/1999/02/22-rdf-syntax-ns#"
   xmlns:cc="http://creativecommons.org/ns#"
   xmlns:dc="http://purl.org/dc/elements/1.1/">
  <metadata
     id="metadata9955">
    <rdf:RDF>
      <cc:Work
         rdf:about="">
        <dc:format>image/svg+xml</dc:format>
        <dc:type
           rdf:resource="http://purl.org/dc/dcmitype/StillImage" />
        <dc:title />
      </cc:Work>
    </rdf:RDF>
  </metadata>
  <defs
     id="defs9953" />
  <sodipodi:namedview
     pagecolor="#ffffff"
     bordercolor="#666666"
     borderopacity="1"
     objecttolerance="10"
     gridtolerance="10"
     guidetolerance="10"
     inkscape:pageopacity="0"
     inkscape:pageshadow="2"
     inkscape:window-width="1080"
     inkscape:window-height="1864"
     id="namedview9951"
     showgrid="false"
     inkscape:zoom="1.2870213"
     inkscape:cx="278.55017"
     inkscape:cy="64.489997"
     inkscape:window-x="0"
     inkscape:window-y="0"
     inkscape:window-maximized="1"
     inkscape:current-layer="svg9949"
     inkscape:document-rotation="0"
     inkscape:showpageshadow="2"
     inkscape:pagecheckerboard="0"
     inkscape:deskcolor="#d1d1d1" />
  <g
     inkscape:transform-center-y="-5.4971127"
     inkscape:transform-center-x="-2.9511082"
     transform="matrix(0.20437468,0.19046662,0.24704149,-0.30205089,200.0916,150.72094)"
     id="g1482-7-0-7-0-1-17"
     style="display:inline;fill:none;stroke:#838383;stroke-width:6.389;stroke-miterlimit:10">
    <path
       d="m 315.1,101.79 c 10.682,-4.135 21.77,-7.738 33.127,-11.074 -8.518,-8.139 -17.577,-16.01 -27.178,-23.616 -2.04,12.119 -3.103,21.663 -5.949,34.69 z"
       transform="matrix(0.4768,-0.02932,0.03214,0.42867,147.58,197.367)"
       id="path1478-7-9-4-2-0-5"
       inkscape:connector-curvature="0"
       style="fill:none;stroke-width:35.526" />
    <path
       d="M 4.1253325,105.31435 C 88.747531,78.834382 249.12601,66.47288 317.498,86.173"
       transform="matrix(0.89574,0,0,0.81736,18.384,154.236)"
       id="path1480-1-3-3-4-6-9"
       inkscape:connector-curvature="0"
       style="fill:none;stroke-width:10.649;paint-order:markers fill stroke"
       sodipodi:nodetypes="cc" />
  </g>
  <g
     inkscape:transform-center-y="2.7618581"
     inkscape:transform-center-x="-0.18303836"
     transform="matrix(-0.00431811,0.27933474,-0.38895949,-0.03122117,435.48454,44.850101)"
     id="g1482-7-0-7-0-3-1"
     style="display:inline;fill:#dddddd;stroke:#838383;stroke-width:6.389;stroke-miterlimit:10">
    <path
       d="m 315.1,101.79 c 10.682,-4.135 21.77,-7.738 33.127,-11.074 -8.518,-8.139 -17.577,-16.01 -27.178,-23.616 -2.04,12.119 -3.103,21.663 -5.949,34.69 z"
       transform="matrix(0.4768,-0.02932,0.03214,0.42867,147.58,197.367)"
       id="path1478-7-9-4-2-6-8"
       inkscape:connector-curvature="0"
       style="stroke-width:35.526" />
    <path
       d="m 197.036,89.49 c 39.237,-9.724 89.303,-9.828 120.462,-3.317"
       transform="matrix(0.89574,0,0,0.81736,18.384,154.236)"
       id="path1480-1-3-3-4-7-5"
       inkscape:connector-curvature="0"
       style="stroke-width:10.649;paint-order:markers fill stroke" />
  </g>
  <g
     transform="matrix(0.65761991,0.67098577,-0.66634288,0.65260232,370.27798,67.03756)"
     style="fill:#cccccc;stroke:#666666"
     id="g2749-7-7-9">
    <circle
       style="opacity:0.12999998;fill:#cccccc;stroke:#666666;stroke-width:6;stroke-miterlimit:10"
       id="circle3369-7-4-7"
       r="24.6"
       cy="90.58149"
       cx="55.440796" />
    <circle
       style="fill:#cccccc;stroke:#666666;stroke-width:6;stroke-miterlimit:10"
       id="circle3383-4-5-5"
       r="24.6"
       cy="84.367409"
       cx="51.507595" />
  </g>
  <g
     inkscape:transform-center-y="-6.3154327"
     inkscape:transform-center-x="5.5610775"
     transform="matrix(0.28647709,0.01890244,-0.0772692,0.38670459,241.2113,-26.594609)"
     id="g1482-7-0-25-1-3-3-3"
     style="display:inline;fill:#dddddd;stroke:#838383;stroke-width:6.389;stroke-miterlimit:10">
    <path
       d="m 315.1,101.79 c 10.682,-4.135 21.77,-7.738 33.127,-11.074 -8.518,-8.139 -17.577,-16.01 -27.178,-23.616 -2.04,12.119 -3.103,21.663 -5.949,34.69 z"
       transform="matrix(0.4768,-0.02932,0.03214,0.42867,147.58,197.367)"
       id="path1478-7-9-8-5-1-6-8"
       inkscape:connector-curvature="0"
       style="stroke-width:35.526" />
    <path
       d="M 176.24968,93.604679 C 215.48668,83.880679 286.339,79.662 317.498,86.173"
       transform="matrix(0.89574,0,0,0.81736,18.384,154.236)"
       id="path1480-1-3-9-5-4-7-8"
       inkscape:connector-curvature="0"
       style="stroke-width:10.649;paint-order:markers fill stroke"
       sodipodi:nodetypes="cc" />
  </g>
  <g
     transform="matrix(0.01677078,0.93595564,-0.93605315,0.00993522,333.37574,17.249242)"
     id="g2760-0-7-9-8">
    <g
       transform="rotate(-44.545114,52.727379,84.306425)"
       style="fill:#cccccc;stroke:#666666"
       id="g2749-6-8-8-5">
      <circle
         style="opacity:0.12999998;fill:#cccccc;stroke:#666666;stroke-width:6;stroke-miterlimit:10"
         id="circle3369-33-3-6-4-7"
         r="24.6"
         cy="90.58149"
         cx="55.440796" />
      <circle
         style="fill:#cccccc;stroke:#666666;stroke-width:6;stroke-miterlimit:10"
         id="circle3383-85-2-8-8-4"
         r="24.6"
         cy="84.367409"
         cx="51.507595" />
    </g>
  </g>
  <g
     transform="matrix(0.01677078,0.93595564,-0.93605315,0.00993522,467.42837,-85.534001)"
     id="g2760-9-8-7-6">
    <g
       transform="rotate(-37.328029,183.17645,-58.627543)"
       style="fill:#cccccc;stroke:#666666"
       id="g2749-4-6-2">
      <circle
         style="opacity:0.13;fill:#cccccc;stroke:#666666;stroke-width:6;stroke-miterlimit:10"
         id="circle3369-5-5-1"
         r="24.6"
         cy="90.58149"
         cx="55.440796" />
      <circle
         style="fill:#cccccc;stroke:#666666;stroke-width:6;stroke-miterlimit:10"
         id="circle3383-6-6-7"
         r="24.6"
         cy="84.367409"
         cx="51.507595" />
    </g>
  </g>
</svg>
