<?xml version="1.0" encoding="UTF-8" standalone="no"?>
<svg
   xmlns:dc="http://purl.org/dc/elements/1.1/"
   xmlns:cc="http://creativecommons.org/ns#"
   xmlns:rdf="http://www.w3.org/1999/02/22-rdf-syntax-ns#"
   xmlns:svg="http://www.w3.org/2000/svg"
   xmlns="http://www.w3.org/2000/svg"
   xmlns:sodipodi="http://sodipodi.sourceforge.net/DTD/sodipodi-0.dtd"
   xmlns:inkscape="http://www.inkscape.org/namespaces/inkscape"
   viewBox="0 0 595.3 269.9"
   version="1.1"
   id="svg18807"
   sodipodi:docname="functions_compose_general.svg"
   inkscape:version="0.92.5 (2060ec1f9f, 2020-04-08)">
  <metadata
     id="metadata18813">
    <rdf:RDF>
      <cc:Work
         rdf:about="">
        <dc:format>image/svg+xml</dc:format>
        <dc:type
           rdf:resource="http://purl.org/dc/dcmitype/StillImage" />
      </cc:Work>
    </rdf:RDF>
  </metadata>
  <defs
     id="defs18811" />
  <sodipodi:namedview
     pagecolor="#ffffff"
     bordercolor="#666666"
     borderopacity="1"
     objecttolerance="10"
     gridtolerance="10"
     guidetolerance="10"
     inkscape:pageopacity="0"
     inkscape:pageshadow="2"
     inkscape:window-width="2560"
     inkscape:window-height="1376"
     id="namedview18809"
     showgrid="false"
     inkscape:zoom="4.0611686"
     inkscape:cx="297.64999"
     inkscape:cy="134.95"
     inkscape:window-x="0"
     inkscape:window-y="27"
     inkscape:window-maximized="1"
     inkscape:current-layer="switch18805" />
  <switch
     id="switch18805">
    <g
       id="g18803">
      <circle
         opacity=".14"
         stroke="#000"
         stroke-width="6"
         stroke-miterlimit="10"
         cx="210"
         cy="68.4"
         r="39.1"
         id="circle18785" />
      <circle
         fill="#FFF"
         stroke="#808285"
         stroke-width="6"
         stroke-miterlimit="10"
         cx="206.1"
         cy="65.9"
         r="39.1"
         id="circle18787" />
      <circle
         opacity=".14"
         stroke="#000"
         stroke-width="6"
         stroke-miterlimit="10"
         cx="368.8"
         cy="70.6"
         r="38.8"
         id="circle18789" />
      <circle
         fill="#FFF"
         stroke="#808285"
         stroke-width="6"
         stroke-miterlimit="10"
         cx="365"
         cy="68.2"
         r="38.8"
         id="circle18791" />
      <circle
         opacity=".14"
         stroke="#000"
         stroke-width="6"
         stroke-miterlimit="10"
         cx="368.9"
         cy="217.7"
         r="37"
         id="circle18793" />
      <circle
         fill="#FFF"
         stroke="#808285"
         stroke-width="6"
         stroke-miterlimit="10"
         cx="359.3"
         cy="217.4"
         r="37"
         id="circle18795" />
      <path
         fill="#808082"
         d="M246.4 64.4s.9-.1 2.4-.4c1.5-.2 3.7-.5 6.3-.8 5.2-.6 12.2-1.1 19.2-1.2 7-.1 14 .2 19.2.7 2.6.2 4.8.5 6.3.7.7.1 1.1.1 1.1.1L299.4 75c7.6-3.5 15.6-6.4 24-8.9-6.3-6.1-13.2-11.9-20.7-17.2l-1.5 11.5s-.4-.1-1.1-.1c-1.5-.2-3.8-.4-6.4-.7-5.3-.5-12.4-.8-19.5-.7-7.1.1-14.2.6-19.5 1.2-2.7.3-4.9.6-6.4.8-1.5.2-2.4.4-2.4.4l.5 3.1zM357.9 107.5s.2.7.6 2c.2.7.4 1.4.7 2.4.2.9.5 2 .8 3.1 1.2 4.5 2.4 10.7 3.2 16.9.7 6.2.9 12.5.8 17.1 0 2.3-.2 4.3-.2 5.7 0 .7-.1 1-.1 1l-11.5-.8c3.9 7.1 7.1 14.9 9.4 23.4 6.1-6.3 11.8-13.5 16.8-21.5l-11.5-.8s0-.4.1-1.1c.1-1.4.2-3.4.2-5.8.1-4.8-.1-11.2-.9-17.6-.7-6.4-2-12.6-3.2-17.3-.3-1.2-.6-2.2-.9-3.2-.3-.9-.5-1.7-.7-2.4-.4-1.3-.7-2.1-.7-2.1l-2.9 1zM219 102.4s1.3 1.5 3.7 4c1.2 1.2 2.6 2.7 4.2 4.4 1.5 1.8 3.3 3.8 5.2 6 7.6 8.8 17.8 20.5 28.8 31.4 5.5 5.5 11.2 10.8 16.8 15.5 2.8 2.4 5.6 4.6 8.2 6.6 2.7 2 5.2 3.9 7.6 5.6 4.8 3.3 8.9 6 11.7 7.8.7.4 1.1.7 1.1.7l-6.2 9.8c8.9.5 17.7.7 26.5.9-4.2-7.7-8.5-15.4-12.3-23l-6.2 9.8s-.4-.2-1.1-.7c-2.8-1.8-6.9-4.5-11.6-7.8-2.4-1.7-4.9-3.5-7.5-5.5-2.6-2-5.3-4.2-8.1-6.5-5.5-4.6-11.2-9.9-16.6-15.3-10.9-10.9-21.1-22.5-28.7-31.3-1.9-2.2-3.7-4.2-5.2-6-1.6-1.8-3-3.3-4.2-4.5-2.3-2.4-3.5-3.9-3.5-3.9l-2.6 2z"
         id="path18797" />
      <path
         style="opacity:0.63999999"
         inkscape:connector-curvature="0"
         d="m 377.35616,129.96808 h -2.4 v -3.9 l 2.4,-0.2 v -1 c 0,-3.8 1.8,-6.8 6.6,-6.8 1.5,0 2.8,0.4 3.6,0.6 l -1,3.9 c -0.6,-0.2 -1.3,-0.4 -1.8,-0.4 -1.3,0 -2,0.7 -2,2.5 v 1.1 h 3.2 v 4.1 h -3.2 v 13.7 h -5.3 v -13.6 z M 265.19445,49.038404 c 0,-1.5 0.9,-2.7 2.5,-3.6 v -0.1 c -0.9,-0.6 -1.6,-1.5 -1.6,-3 0,-1.3 0.9,-2.5 2,-3.3 v -0.1 c -1.3,-0.9 -2.4,-2.5 -2.4,-4.6 0,-4.3 3.5,-6.4 7.4,-6.4 1,0 2,0.1 2.8,0.4 h 6.5 v 3.8 h -2.8 c 0.3,0.5 0.6,1.4 0.6,2.3 0,4.1 -3.1,6 -7,6 -0.6,0 -1.4,-0.1 -2.2,-0.4 -0.5,0.4 -0.6,0.7 -0.6,1.3 0,0.9 0.7,1.3 2.7,1.3 h 2.9 c 4.4,0 6.8,1.3 6.8,4.5 0,3.7 -3.8,6.4 -9.9,6.4 -4.4,0 -7.7,-1.3 -7.7,-4.5 z m 12.4,-0.9 c 0,-1.1 -1,-1.4 -2.7,-1.4 h -1.8 c -1.2,0 -1.9,-0.1 -2.5,-0.2 -0.6,0.6 -1,1.1 -1,1.8 0,1.3 1.6,2 3.9,2 2.4,-0.1 4.1,-1 4.1,-2.2 z m -2.1,-13.9 c 0,-1.9 -1,-2.9 -2.4,-2.9 -1.4,0 -2.4,1 -2.4,2.9 0,2 1,3 2.4,3 1.4,0 2.4,-1.1 2.4,-3 z M 245.2,147.6 h 5.3 v 6.2 l -0.3,3.2 c 1.3,-1.2 3.1,-2.4 5.5,-2.4 3.9,0 5.5,2.7 5.5,7.2 v 11 h -5.3 v -10.4 c 0,-2.6 -0.7,-3.4 -2.2,-3.4 -1.3,0 -2.2,0.6 -3.3,1.7 v 12 h -5.3 v -25.1 z"
         id="path18799"
         sodipodi:nodetypes="ccccssccssccccccccsccsccssccccsscssssssssscscssssssccccssccssccccc" />
    </g>
  </switch>
</svg>
