<svg xmlns="http://www.w3.org/2000/svg" viewBox="0 0 595.3 359"><switch><g><circle opacity=".14" stroke="#000" stroke-width="6" stroke-miterlimit="10" cx="303" cy="183.9" r="150"/><circle fill="#E6E7E8" stroke="#808285" stroke-width="6" stroke-miterlimit="10" cx="295.2" cy="172.6" r="150"/><circle fill="#FFF" stroke="#939598" stroke-width="6" stroke-miterlimit="10" cx="339" cy="143.7" r="24.6"/><text transform="translate(327.5 153.802)" fill="#808285" font-family="'OpenSans-Extrabold'" font-size="32.669">A</text><circle fill="#FFF" stroke="#939598" stroke-width="6" stroke-miterlimit="10" cx="278.4" cy="159.3" r="24.6"/><path fill="#808285" d="M280.5 151.9c-1.5 0-2.7.6-3.5 1.8-.8 1.2-1.3 2.9-1.3 5.1 0 4.5 1.7 6.7 5.1 6.7 1 0 2-.1 3-.4s1.9-.6 2.9-1v5.3c-1.9.9-4.1 1.3-6.6 1.3-3.5 0-6.2-1-8.1-3.1s-2.8-5-2.8-8.9c0-2.4.5-4.5 1.4-6.4.9-1.8 2.2-3.2 3.9-4.2 1.7-1 3.7-1.5 6-1.5 2.5 0 4.9.5 7.2 1.6l-1.9 5c-.9-.4-1.7-.7-2.6-1-.8-.2-1.8-.3-2.7-.3z"/><circle fill="#FFF" stroke="#939598" stroke-width="6" stroke-miterlimit="10" cx="284.8" cy="75" r="24.6"/><path fill="#808285" d="M276.5 62.7h8.1c3.2 0 5.5.5 7.1 1.4 1.5.9 2.3 2.4 2.3 4.4 0 1.3-.3 2.4-1 3.3s-1.6 1.5-2.6 1.8v.2c1.4.4 2.5 1 3.1 1.9s1 2.1 1 3.5c0 2.1-.8 3.8-2.4 5-1.6 1.2-3.8 1.8-6.5 1.8h-9.1V62.7zm6.3 9h1.9c.9 0 1.6-.2 2.1-.6.5-.4.7-.9.7-1.7 0-1.3-1-2-3-2h-1.8v4.3zm0 4.6v4.9h2.2c2 0 3-.8 3-2.5 0-.8-.3-1.4-.8-1.8-.5-.4-1.3-.6-2.3-.6h-2.1z"/><circle fill="#FFF" stroke="#939598" stroke-width="6" stroke-miterlimit="10" cx="239" cy="218.3" r="24.6"/><path fill="#808285" d="M251.5 216.2c0 3.9-1.1 6.9-3.2 9-2.1 2.1-5.2 3.2-9 3.2h-7.5v-23.3h8.1c3.7 0 6.6 1 8.7 2.9 1.9 1.9 2.9 4.6 2.9 8.2zm-6.5.3c0-2.1-.4-3.7-1.3-4.8-.8-1-2.1-1.5-3.9-1.5H238v13.1h1.4c1.9 0 3.3-.6 4.2-1.7.9-1.2 1.4-2.9 1.4-5.1z"/><circle fill="#FFF" stroke="#939598" stroke-width="6" stroke-miterlimit="10" cx="393.7" cy="110.7" r="24.6"/><path fill="#808285" d="M400.2 120.8h-13.8V97.5h13.8v5.1h-7.5v3.7h7v5.1h-7v4.4h7.5v5z"/><circle fill="#FFF" stroke="#939598" stroke-width="6" stroke-miterlimit="10" cx="263.6" cy="112.2" r="24.6"/><path fill="#808285" d="M262.6 122.2h-6.2V98.9h13.8v5.1h-7.6v4.5h7v5.1h-7v8.6z"/><circle fill="#FFF" stroke="#939598" stroke-width="6" stroke-miterlimit="10" cx="319.9" cy="110" r="24.6"/><path fill="#808285" d="M319.9 106.4H330V119c-2.7.9-5.7 1.4-9 1.4-3.6 0-6.4-1-8.3-3.1-2-2.1-2.9-5.1-2.9-8.9 0-3.8 1.1-6.7 3.2-8.8 2.1-2.1 5.2-3.1 9-3.1 1.5 0 2.9.1 4.2.4s2.4.6 3.4 1.1l-2 4.9c-1.7-.8-3.5-1.2-5.5-1.2-1.8 0-3.3.6-4.3 1.8-1 1.2-1.5 2.9-1.5 5.1 0 2.2.5 3.8 1.4 5 .9 1.1 2.2 1.7 3.9 1.7.9 0 1.8-.1 2.6-.3v-3.7H320v-4.9z"/><circle fill="#FFF" stroke="#939598" stroke-width="6" stroke-miterlimit="10" cx="355.7" cy="110" r="24.6"/><path fill="#808285" d="M345.5 101.5h6.6l3.1 10.4c.2.5.3 1.2.3 2h.1c.1-.7.2-1.4.4-1.9l3.1-10.4h6.4l-7.1 19.2c-.9 2.4-2 4.2-3.4 5.2-1.3 1-3.1 1.5-5.2 1.5-.8 0-1.7-.1-2.6-.3v-4.9c.6.1 1.2.2 1.9.2.6 0 1-.1 1.5-.3.4-.2.8-.5 1.1-.9.3-.4.6-1 1-1.9l-7.2-17.9z"/><circle fill="#FFF" stroke="#939598" stroke-width="6" stroke-miterlimit="10" cx="314.3" cy="168.3" r="24.6"/><path fill="#808285" d="M310.2 168.7l-5.5-8.9h7.1l2.7 5.1 2.8-5.1h7.1l-5.7 8.9 5.9 9.2h-7.1l-3-5.5-3 5.5h-7.1l5.8-9.2z"/><circle fill="#FFF" stroke="#939598" stroke-width="6" stroke-miterlimit="10" cx="274" cy="197.2" r="24.6"/><path fill="#808285" d="M272.1 206.8h-6.6l4.6-6.9c-.9-.5-1.7-1.2-2.2-2.2-.5-.9-.8-2-.8-3.3 0-1.9.7-3.3 2.1-4.3 1.4-1 3.3-1.5 5.8-1.5h8.6v18.1h-6.2v-6.3h-1.8l-3.5 6.4zm1.2-12.1c0 .6.2 1 .6 1.3s1 .5 1.7.5h1.8v-3.6h-1.8c-.7 0-1.3.2-1.7.5-.4.2-.6.7-.6 1.3z"/><circle fill="#FFF" stroke="#939598" stroke-width="6" stroke-miterlimit="10" cx="229.2" cy="170.3" r="24.6"/><path fill="#808285" d="M227.1 185.8c-1.1 0-2.2-.1-3.3-.3v-4.9c.3.1.7.1 1.1.2.4.1.8.1 1.2.1 1 0 1.8-.3 2.2-.9s.7-1.7.7-3.2v-21.6h6.3v21c0 3.2-.7 5.5-2.1 7.2-1.3 1.5-3.3 2.4-6.1 2.4z"/><circle fill="#FFF" stroke="#939598" stroke-width="6" stroke-miterlimit="10" cx="226.4" cy="129.2" r="24.6"/><path fill="#808285" d="M236 140.3h-7.1l-4.6-8.9-1.9 1.1v7.8h-6.3V117h6.3v10.1c.3-.6 1-1.6 1.9-3l4.9-7.1h6.9l-7.4 10.4 7.3 12.9z"/><circle fill="#FFF" stroke="#939598" stroke-width="6" stroke-miterlimit="10" cx="345.5" cy="258.7" r="24.6"/><path fill="#808285" d="M350 269.8l-1.2-2.4h-.1c-.8 1-1.7 1.8-2.6 2.1s-2 .6-3.4.6c-1.7 0-3-.5-4-1.5s-1.5-2.5-1.5-4.3c0-1.9.7-3.4 2-4.3 1.3-.9 3.3-1.5 5.8-1.6l3-.1v-.3c0-1.5-.7-2.2-2.2-2.2-1.3 0-3 .4-5 1.3L339 253c2.1-1.1 4.8-1.6 8-1.6 2.3 0 4.1.6 5.4 1.7s1.9 2.8 1.9 4.8v11.9H350zm-4.6-4.1c.8 0 1.4-.2 1.9-.7s.8-1.1.8-1.9v-1.4l-1.4.1c-2.1.1-3.1.8-3.1 2.3 0 1 .6 1.6 1.8 1.6z"/><circle fill="#FFF" stroke="#939598" stroke-width="6" stroke-miterlimit="10" cx="317.3" cy="238" r="24.6"/><path fill="#808285" d="M325.4 237.4c0 4.1-.7 7.1-2.1 9.1-1.4 1.9-3.5 2.9-6.3 2.9s-4.9-1-6.3-3c-1.4-2-2.1-5-2.1-8.9 0-4.1.7-7.2 2.1-9.1 1.4-1.9 3.5-2.9 6.3-2.9s4.9 1 6.3 3c1.4 1.9 2.1 4.9 2.1 8.9zm-10.5 0c0 2.6.2 4.5.5 5.4.3 1 .9 1.5 1.7 1.5.8 0 1.3-.5 1.7-1.5.3-1 .5-2.8.5-5.4 0-2.6-.2-4.4-.5-5.4s-.9-1.6-1.7-1.6-1.3.5-1.7 1.5c-.4 1-.5 2.9-.5 5.5z"/><circle fill="#FFF" stroke="#939598" stroke-width="6" stroke-miterlimit="10" cx="280" cy="255" r="24.6"/><path fill="#808285" d="M287 264.1h-15v-3.6l7.5-9.7h-7V246h14.2v3.9l-7.2 9.4h7.5v4.8z"/><circle fill="#FFF" stroke="#939598" stroke-width="6" stroke-miterlimit="10" cx="189" cy="214.6" r="24.6"/><path fill="#808285" d="M195.2 205.2c.5 0 1.1 0 1.5.1l.4.1-.6 5.9c-.5-.1-1.2-.2-2.1-.2-1.4 0-2.3.3-3 .9-.6.6-.9 1.5-.9 2.7v8.9h-6.2v-18.1h4.6l1 2.9h.3c.5-1 1.2-1.7 2.2-2.3.9-.6 1.9-.9 2.8-.9z"/><circle fill="#FFF" stroke="#939598" stroke-width="6" stroke-miterlimit="10" cx="345.3" cy="147.7" r="24.6"/><path fill="#808285" d="M352.9 157.3h-15v-3.6l7.5-9.7h-7v-4.8h14.2v3.9l-7.2 9.4h7.5v4.8z"/><circle fill="#FFF" stroke="#939598" stroke-width="6" stroke-miterlimit="10" cx="392.2" cy="238" r="24.6"/><path fill="#808285" d="M400.7 247h-16.9v-4.1l5.7-5.8c1.6-1.7 2.7-2.9 3.2-3.5s.8-1.2 1-1.6c.2-.4.3-.9.3-1.4 0-.6-.2-1.1-.6-1.4-.4-.4-.9-.5-1.7-.5-.7 0-1.5.2-2.2.6s-1.6 1-2.5 1.9l-3.5-4.1c1.2-1.1 2.2-1.8 3-2.3.8-.5 1.7-.8 2.7-1.1s2-.4 3.2-.4c1.5 0 2.9.3 4 .8s2.1 1.3 2.8 2.3c.7 1 1 2.1 1 3.3 0 .9-.1 1.8-.3 2.5-.2.8-.6 1.5-1.1 2.3-.5.8-1.1 1.5-1.9 2.4-.8.8-2.5 2.4-5.1 4.7v.2h8.8v5.2z"/><circle fill="#FFF" stroke="#939598" stroke-width="6" stroke-miterlimit="10" cx="388.6" cy="188.4" r="24.6"/><path fill="#808285" d="M395.4 186.6l-.5 2.7h3.9v4.1h-4.6l-1.2 6.2h-4.3l1.2-6.2h-2.7l-1.1 6.2h-4.3l1.1-6.2h-3.6v-4.1h4.4l.5-2.7h-3.8v-4.1h4.6l1.1-6.2h4.3l-1.2 6.2h2.6l1.1-6.2h4.3l-1.2 6.2h3.7v4.1h-4.3zm-7.4 2.6h2.6l.5-2.7h-2.6l-.5 2.7z"/><circle fill="#FFF" stroke="#939598" stroke-width="6" stroke-miterlimit="10" cx="351.3" cy="205.5" r="24.6"/><path fill="#808285" d="M364.9 205.5c0 2.6-.9 4.7-2.6 6.3s-4.1 2.5-7.3 2.7v7.8h-5.8v-7.8c-3.1-.3-5.5-1.3-7.3-2.9s-2.6-3.6-2.6-6.1c0-2.7.8-4.9 2.5-6.4s4.1-2.4 7.3-2.6v-6.7h5.9v6.7c3.1.3 5.5 1.2 7.2 2.8s2.7 3.7 2.7 6.2zm-19.4 0c0 1.2.3 2.3 1 3.1.7.8 1.6 1.2 2.6 1.3v-8.8c-1 0-1.9.5-2.6 1.4-.6.8-1 1.9-1 3zm13.2 0c0-1.2-.3-2.2-1-3.1-.7-.8-1.5-1.3-2.6-1.3v8.8c1 0 1.9-.4 2.6-1.3s1-1.8 1-3.1z"/><circle fill="#FFF" stroke="#939598" stroke-width="6" stroke-miterlimit="10" cx="341.9" cy="60.8" r="24.6"/><path fill="#808285" d="M348.9 70.3l-1.6-1.6c-1 .6-1.7 1-2.4 1.3-.6.2-1.3.4-2.1.5-.8.1-1.6.2-2.6.2-1.7 0-3.2-.3-4.5-.9-1.3-.6-2.3-1.4-3-2.4-.7-1-1-2.2-1-3.5 0-2.8 1.4-4.9 4.3-6.4-.7-.7-1.2-1.5-1.5-2.4-.4-.8-.6-1.8-.6-2.8 0-1.7.7-3.1 2-4.1 1.3-1 3.1-1.5 5.4-1.5 2.2 0 4 .5 5.2 1.5 1.2 1 1.9 2.3 1.9 4.1 0 1.2-.3 2.3-1 3.3s-1.7 1.9-3.2 2.8l3.2 3c.8-1.2 1.4-2.6 1.7-4.1h6.5c-.3 1.5-.8 2.9-1.5 4.4-.7 1.5-1.5 2.7-2.3 3.8l5.1 4.9h-8zm-10.6-6.9c0 .7.2 1.2.7 1.6s1.1.6 1.9.6c.6 0 1.1-.1 1.6-.2.5-.2.8-.3 1.1-.5l-4-4c-.8.6-1.3 1.5-1.3 2.5zm4.7-11.2c0-.5-.2-.9-.5-1.1-.3-.2-.7-.3-1.1-.3-.4 0-.8.1-1.2.4-.3.3-.5.7-.5 1.3 0 .8.5 1.6 1.4 2.5.6-.3 1.1-.7 1.4-1.2.4-.6.5-1.1.5-1.6z"/><circle fill="#FFF" stroke="#939598" stroke-width="6" stroke-miterlimit="10" cx="308" cy="288.7" r="24.6"/><path fill="#808285" d="M306.5 282.9c0 2.3-.5 4.1-1.6 5.4-1.1 1.3-2.6 1.9-4.5 1.9-1.8 0-3.3-.7-4.3-2-1.1-1.3-1.6-3.1-1.6-5.4 0-2.3.5-4.1 1.6-5.4 1-1.3 2.5-1.9 4.4-1.9 1.9 0 3.3.7 4.4 2 1.1 1.4 1.6 3.1 1.6 5.4zm-7.2 0c0 1.2.1 2.1.3 2.6.2.5.5.8.9.8s.7-.3.9-.8c.2-.5.3-1.4.3-2.7 0-1.2-.1-2.1-.3-2.6-.2-.5-.5-.8-.9-.8s-.7.3-.9.8c-.2.7-.3 1.5-.3 2.7zm18.9-7l-12.9 23.3h-4.7l12.9-23.3h4.7zm6.1 16.3c0 2.3-.5 4.1-1.6 5.4-1.1 1.3-2.6 1.9-4.5 1.9-1.8 0-3.3-.7-4.3-2-1.1-1.3-1.6-3.1-1.6-5.4 0-2.3.5-4.1 1.6-5.4 1-1.3 2.5-1.9 4.4-1.9 1.9 0 3.3.7 4.4 2 1 1.3 1.6 3.1 1.6 5.4zm-7.3 0c0 1.2.1 2.1.3 2.6.2.5.5.8.9.8.5 0 .8-.3.9-.9s.3-1.5.3-2.5-.1-1.9-.3-2.5-.5-.9-.9-.9-.7.3-.9.8c-.2.5-.3 1.4-.3 2.6z"/></g></switch></svg>