<svg xmlns="http://www.w3.org/2000/svg" viewBox="0 0 595.3 359"><switch><g><circle opacity=".14" stroke="#000" stroke-width="6" stroke-miterlimit="10" cx="467.5" cy="187.3" r="114.9"/><circle fill="#E6E7E8" stroke="#808285" stroke-width="6" stroke-miterlimit="10" cx="456.8" cy="174.4" r="114.9"/><circle fill="#FFF" stroke="#939598" stroke-width="6" stroke-miterlimit="10" cx="427.6" cy="228.6" r="41.3"/><g fill="#808285"><path d="M402.5 233.8c.8 0 1.8-.2 2.9-.6v4.4c-.8.3-1.6.6-2.3.7-.7.1-1.6.2-2.6.2-2 0-3.5-.5-4.3-1.5-.9-1-1.3-2.5-1.3-4.5v-7.1h-2.1V223l2.7-1.9 1.5-3.6h3.9v3.5h4.2v4.5h-4.2v6.7c0 1.1.5 1.6 1.6 1.6zM418.8 220.6c.5 0 1 0 1.5.1l.3.1-.5 5.6c-.5-.1-1.2-.2-2-.2-1.3 0-2.3.3-2.8.9-.6.6-.9 1.5-.9 2.6v8.5h-6v-17.3h4.4l.9 2.8h.3c.5-.9 1.2-1.7 2.1-2.2.9-.6 1.8-.9 2.7-.9zM435.4 238.2l-.7-2.2h-.4c-.5.8-1.2 1.4-2.1 1.8-.9.4-1.9.6-3.1.6-1.9 0-3.4-.6-4.4-1.7-1.1-1.1-1.6-2.7-1.6-4.7v-11.3h6v9.5c0 1.1.2 2 .5 2.6.3.6.8.9 1.6.9 1 0 1.8-.4 2.2-1.2.4-.8.7-2.2.7-4.1v-7.6h6v17.3h-4.7zM452.4 238.5c-2.9 0-5.1-.8-6.7-2.3-1.6-1.5-2.4-3.7-2.4-6.5 0-2.9.7-5.2 2.2-6.7 1.5-1.6 3.6-2.3 6.3-2.3 2.6 0 4.6.7 6 2 1.4 1.4 2.1 3.3 2.1 5.9v2.7h-10.7c0 1 .4 1.7 1.1 2.3s1.6.8 2.7.8c1 0 2-.1 2.9-.3.9-.2 1.8-.5 2.9-1v4.3c-.9.5-1.9.8-2.9 1-1 0-2.1.1-3.5.1zm-.4-13.8c-.7 0-1.3.2-1.8.7-.5.4-.8 1.1-.8 2.1h5.1c0-.8-.3-1.5-.7-2-.4-.6-1-.8-1.8-.8z"/></g><circle fill="#FFF" stroke="#939598" stroke-width="6" stroke-miterlimit="10" cx="480.6" cy="135.8" r="41.3"/><g fill="#808285"><path d="M456.2 132.7h-3.3v11.4h-5.3v-11.4h-2v-2.6l2.2-1.3v-.3c0-2 .4-3.5 1.2-4.4.8-.9 2.2-1.3 4-1.3.7 0 1.4.1 2 .2.6.1 1.4.3 2.2.6L456 127c-.7-.2-1.3-.3-1.9-.3-.4 0-.7.1-.9.4s-.3.7-.3 1.2v.4h3.3v4zM468.3 144.2l-1-2h-.1c-.7.9-1.4 1.5-2.2 1.8-.7.3-1.7.5-2.9.5-1.5 0-2.6-.4-3.4-1.3s-1.3-2.1-1.3-3.7.6-2.9 1.7-3.7c1.1-.8 2.8-1.3 5-1.4l2.6-.1v-.2c0-1.3-.6-1.9-1.9-1.9-1.1 0-2.6.4-4.3 1.1l-1.5-3.5c1.8-.9 4.1-1.4 6.8-1.4 2 0 3.5.5 4.6 1.5 1.1 1 1.6 2.4 1.6 4.1v10.1h-3.7zm-3.9-3.5c.6 0 1.2-.2 1.7-.6s.7-.9.7-1.6v-1.2l-1.2.1c-1.8.1-2.6.7-2.6 1.9-.1.9.4 1.4 1.4 1.4zM481 144.2h-5.3V123h5.3v21.2zM496.6 139.4c0 1.7-.6 2.9-1.7 3.7-1.1.8-2.7 1.3-4.9 1.3-1.1 0-2.1-.1-3-.2-.8-.1-1.7-.3-2.6-.7v-4.3c.8.4 1.7.7 2.7.9 1 .2 1.9.4 2.6.4 1.2 0 1.7-.3 1.7-.8 0-.3-.2-.5-.5-.7s-1.3-.6-2.8-1.2c-1.4-.6-2.4-1.2-3-2-.6-.7-.8-1.7-.8-2.8 0-1.4.6-2.6 1.7-3.4 1.1-.8 2.7-1.2 4.7-1.2 1 0 2 .1 2.9.3.9.2 1.8.5 2.8 1l-1.4 3.4c-.7-.3-1.5-.6-2.2-.8s-1.4-.3-1.9-.3c-.9 0-1.3.2-1.3.6 0 .3.2.5.5.7s1.2.6 2.6 1.1c1.1.4 1.9.9 2.4 1.3s.9.9 1.2 1.5c.2.7.3 1.4.3 2.2zM507 144.4c-2.6 0-4.6-.7-6-2.1-1.4-1.4-2.1-3.3-2.1-5.8 0-2.6.7-4.6 2-6 1.3-1.4 3.2-2.1 5.6-2.1 2.3 0 4.1.6 5.4 1.8 1.3 1.2 1.9 3 1.9 5.2v2.4h-9.5c0 .9.4 1.5.9 2 .6.5 1.4.7 2.4.7.9 0 1.8-.1 2.6-.3.8-.2 1.6-.5 2.6-.9v3.8c-.8.4-1.7.7-2.6.9s-2 .4-3.2.4zm-.3-12.3c-.6 0-1.2.2-1.6.6-.4.4-.7 1-.7 1.9h4.6c0-.7-.2-1.3-.6-1.8-.5-.5-1-.7-1.7-.7z"/></g><circle opacity=".14" stroke="#000" stroke-width="6" stroke-miterlimit="10" cx="174.2" cy="182.8" r="150"/><circle fill="#E6E7E8" stroke="#808285" stroke-width="6" stroke-miterlimit="10" cx="166.5" cy="171.6" r="150"/><circle fill="#FFF" stroke="#939598" stroke-width="6" stroke-miterlimit="10" cx="210.2" cy="142.7" r="24.6"/><text transform="translate(198.761 152.752)" fill="#808285" font-family="'OpenSans-Extrabold'" font-size="32.669">A</text><circle fill="#FFF" stroke="#939598" stroke-width="6" stroke-miterlimit="10" cx="149.6" cy="158.2" r="24.6"/><path fill="#808285" d="M151.7 150.8c-1.5 0-2.7.6-3.5 1.8-.8 1.2-1.3 2.9-1.3 5.1 0 4.5 1.7 6.7 5.1 6.7 1 0 2-.1 3-.4s1.9-.6 2.9-1v5.3c-1.9.9-4.1 1.3-6.6 1.3-3.5 0-6.2-1-8.1-3.1s-2.8-5-2.8-8.9c0-2.4.5-4.5 1.4-6.4.9-1.8 2.2-3.2 3.9-4.2 1.7-1 3.7-1.5 6-1.5 2.5 0 4.9.5 7.2 1.6l-1.9 5c-.9-.4-1.7-.7-2.6-1-.8-.2-1.7-.3-2.7-.3z"/><circle fill="#FFF" stroke="#939598" stroke-width="6" stroke-miterlimit="10" cx="156.1" cy="73.9" r="24.6"/><path fill="#808285" d="M147.8 61.7h8.1c3.2 0 5.5.5 7.1 1.4 1.5.9 2.3 2.4 2.3 4.4 0 1.3-.3 2.4-1 3.3s-1.6 1.5-2.6 1.8v.2c1.4.4 2.5 1 3.1 1.9s1 2.1 1 3.5c0 2.1-.8 3.8-2.4 5-1.6 1.2-3.8 1.8-6.5 1.8h-9.1V61.7zm6.3 8.9h1.9c.9 0 1.6-.2 2.1-.6.5-.4.7-.9.7-1.7 0-1.3-1-2-3-2H154v4.3zm0 4.7v4.9h2.2c2 0 3-.8 3-2.5 0-.8-.3-1.4-.8-1.8-.5-.4-1.3-.6-2.3-.6h-2.1z"/><circle fill="#FFF" stroke="#939598" stroke-width="6" stroke-miterlimit="10" cx="110.3" cy="217.3" r="24.6"/><path fill="#808285" d="M122.8 215.2c0 3.9-1.1 6.9-3.2 9-2.1 2.1-5.2 3.2-9 3.2H103V204h8.1c3.7 0 6.6 1 8.7 2.9 2 1.9 3 4.7 3 8.3zm-6.5.2c0-2.1-.4-3.7-1.3-4.8-.8-1-2.1-1.5-3.9-1.5h-1.8v13.1h1.4c1.9 0 3.3-.6 4.2-1.7.9-1.1 1.4-2.8 1.4-5.1z"/><circle fill="#FFF" stroke="#939598" stroke-width="6" stroke-miterlimit="10" cx="265" cy="109.6" r="24.6"/><path fill="#808285" d="M271.5 119.7h-13.8V96.4h13.8v5.1H264v3.7h7v5.1h-7v4.4h7.5v5z"/><circle fill="#FFF" stroke="#939598" stroke-width="6" stroke-miterlimit="10" cx="134.9" cy="111.1" r="24.6"/><path fill="#808285" d="M133.8 121.2h-6.2V97.9h13.8v5.1h-7.6v4.5h7v5.1h-7v8.6z"/><circle fill="#FFF" stroke="#939598" stroke-width="6" stroke-miterlimit="10" cx="191.1" cy="109" r="24.6"/><path fill="#808285" d="M191.2 105.4h10.1V118c-2.7.9-5.7 1.4-9 1.4-3.6 0-6.4-1-8.3-3.1-2-2.1-2.9-5.1-2.9-8.9 0-3.8 1.1-6.7 3.2-8.8 2.1-2.1 5.2-3.1 9-3.1 1.5 0 2.9.1 4.2.4s2.4.6 3.4 1.1l-2 4.9c-1.7-.8-3.5-1.2-5.5-1.2-1.8 0-3.3.6-4.3 1.8-1 1.2-1.5 2.9-1.5 5.1 0 2.2.5 3.8 1.4 5 .9 1.1 2.2 1.7 3.9 1.7.9 0 1.8-.1 2.6-.3v-3.7h-4.2v-4.9z"/><circle fill="#FFF" stroke="#939598" stroke-width="6" stroke-miterlimit="10" cx="227" cy="109" r="24.6"/><path fill="#808285" d="M216.8 100.4h6.6l3.1 10.4c.2.5.3 1.2.3 2h.1c.1-.7.2-1.4.4-1.9l3.1-10.4h6.4l-7.1 19.2c-.9 2.4-2 4.2-3.4 5.2-1.3 1-3.1 1.5-5.2 1.5-.8 0-1.7-.1-2.6-.3v-4.9c.6.1 1.2.2 1.9.2.6 0 1-.1 1.5-.3.4-.2.8-.5 1.1-.9.3-.4.6-1 1-1.9l-7.2-17.9z"/><circle fill="#FFF" stroke="#939598" stroke-width="6" stroke-miterlimit="10" cx="185.6" cy="167.3" r="24.6"/><path fill="#808285" d="M181.5 167.6l-5.5-8.9h7.1l2.7 5.1 2.8-5.1h7.1l-5.7 8.9 5.9 9.2h-7.1l-3-5.5-3 5.5h-7.1l5.8-9.2z"/><circle fill="#FFF" stroke="#939598" stroke-width="6" stroke-miterlimit="10" cx="145.3" cy="196.2" r="24.6"/><path fill="#808285" d="M143.3 205.7h-6.6l4.6-6.9c-.9-.5-1.7-1.2-2.2-2.2-.5-.9-.8-2-.8-3.3 0-1.9.7-3.3 2.1-4.3 1.4-1 3.3-1.5 5.8-1.5h8.6v18.1h-6.2v-6.3h-1.8l-3.5 6.4zm1.3-12.1c0 .6.2 1 .6 1.3s1 .5 1.7.5h1.8v-3.6h-1.8c-.7 0-1.3.2-1.7.5-.4.3-.6.7-.6 1.3z"/><circle fill="#FFF" stroke="#939598" stroke-width="6" stroke-miterlimit="10" cx="100.5" cy="169.3" r="24.6"/><path fill="#808285" d="M98.4 184.7c-1.1 0-2.2-.1-3.3-.3v-4.9c.3.1.7.1 1.1.2.4.1.8.1 1.2.1 1 0 1.8-.3 2.2-.9s.7-1.7.7-3.2v-21.6h6.3v21c0 3.2-.7 5.5-2.1 7.2-1.3 1.6-3.4 2.4-6.1 2.4z"/><circle fill="#FFF" stroke="#939598" stroke-width="6" stroke-miterlimit="10" cx="97.7" cy="128.1" r="24.6"/><path fill="#808285" d="M107.3 139.2h-7.1l-4.6-8.9-1.9 1.1v7.8h-6.3v-23.3h6.3V126c.3-.6 1-1.6 1.9-3l4.9-7.1h6.9l-7.4 10.4 7.3 12.9z"/><circle fill="#FFF" stroke="#939598" stroke-width="6" stroke-miterlimit="10" cx="216.8" cy="257.6" r="24.6"/><path fill="#808285" d="M221.3 268.7l-1.2-2.4h-.1c-.8 1-1.7 1.8-2.6 2.1s-2 .6-3.4.6c-1.7 0-3-.5-4-1.5s-1.5-2.5-1.5-4.3c0-1.9.7-3.4 2-4.3 1.3-.9 3.3-1.5 5.8-1.6l3-.1v-.3c0-1.5-.7-2.2-2.2-2.2-1.3 0-3 .4-5 1.3l-1.8-4.1c2.1-1.1 4.8-1.6 8-1.6 2.3 0 4.1.6 5.4 1.7s1.9 2.8 1.9 4.8v11.9h-4.3zm-4.6-4.1c.8 0 1.4-.2 1.9-.7s.8-1.1.8-1.9v-1.4l-1.4.1c-2.1.1-3.1.8-3.1 2.3 0 1.1.6 1.6 1.8 1.6z"/><circle fill="#FFF" stroke="#939598" stroke-width="6" stroke-miterlimit="10" cx="188.5" cy="236.9" r="24.6"/><path fill="#808285" d="M196.7 236.4c0 4.1-.7 7.1-2.1 9.1-1.4 1.9-3.5 2.9-6.3 2.9s-4.9-1-6.3-3c-1.4-2-2.1-5-2.1-8.9 0-4.1.7-7.2 2.1-9.1 1.4-1.9 3.5-2.9 6.3-2.9s4.9 1 6.3 3c1.4 1.9 2.1 4.9 2.1 8.9zm-10.6 0c0 2.6.2 4.5.5 5.4.3 1 .9 1.5 1.7 1.5.8 0 1.3-.5 1.7-1.5.3-1 .5-2.8.5-5.4 0-2.6-.2-4.4-.5-5.4s-.9-1.6-1.7-1.6-1.3.5-1.7 1.5c-.3 1-.5 2.8-.5 5.5z"/><circle fill="#FFF" stroke="#939598" stroke-width="6" stroke-miterlimit="10" cx="151.3" cy="253.9" r="24.6"/><path fill="#808285" d="M158.2 263h-15v-3.6l7.5-9.7h-7v-4.8h14.2v3.9l-7.2 9.4h7.5v4.8z"/><circle fill="#FFF" stroke="#939598" stroke-width="6" stroke-miterlimit="10" cx="60.2" cy="213.5" r="24.6"/><path fill="#808285" d="M66.5 204.2c.5 0 1.1 0 1.5.1l.4.1-.6 5.9c-.5-.1-1.2-.2-2.1-.2-1.4 0-2.3.3-3 .9-.6.6-.9 1.5-.9 2.7v8.9h-6.2v-18.1h4.6l1 2.9h.3c.5-1 1.2-1.7 2.2-2.3.9-.6 1.8-.9 2.8-.9z"/><circle fill="#FFF" stroke="#939598" stroke-width="6" stroke-miterlimit="10" cx="216.6" cy="146.7" r="24.6"/><path fill="#808285" d="M224.2 156.2h-15v-3.6l7.5-9.7h-7v-4.8h14.2v3.9l-7.2 9.4h7.5v4.8z"/><circle fill="#FFF" stroke="#939598" stroke-width="6" stroke-miterlimit="10" cx="263.5" cy="236.9" r="24.6"/><path fill="#808285" d="M271.9 246H255v-4.1l5.7-5.8c1.6-1.7 2.7-2.9 3.2-3.5s.8-1.2 1-1.6c.2-.4.3-.9.3-1.4 0-.6-.2-1.1-.6-1.4-.4-.4-.9-.5-1.7-.5-.7 0-1.5.2-2.2.6s-1.6 1-2.5 1.9l-3.5-4.1c1.2-1.1 2.2-1.8 3-2.3.8-.5 1.7-.8 2.7-1.1s2-.4 3.2-.4c1.5 0 2.9.3 4 .8s2.1 1.3 2.8 2.3c.7 1 1 2.1 1 3.3 0 .9-.1 1.8-.3 2.5-.2.8-.6 1.5-1.1 2.3-.5.8-1.1 1.5-1.9 2.4-.8.8-2.5 2.4-5.1 4.7v.2h8.8v5.2z"/><circle fill="#FFF" stroke="#939598" stroke-width="6" stroke-miterlimit="10" cx="259.8" cy="187.4" r="24.6"/><path fill="#808285" d="M266.6 185.5l-.5 2.7h3.9v4.1h-4.6l-1.2 6.2H260l1.2-6.2h-2.7l-1.1 6.2h-4.3l1.1-6.2h-3.6v-4.1h4.4l.5-2.7h-3.8v-4.1h4.6l1.1-6.2h4.3l-1.2 6.2h2.6l1.1-6.2h4.3l-1.2 6.2h3.7v4.1h-4.4zm-7.4 2.7h2.6l.5-2.7h-2.6l-.5 2.7z"/><circle fill="#FFF" stroke="#939598" stroke-width="6" stroke-miterlimit="10" cx="222.6" cy="204.4" r="24.6"/><path fill="#808285" d="M236.2 204.5c0 2.6-.9 4.7-2.6 6.3s-4.1 2.5-7.3 2.7v7.8h-5.8v-7.8c-3.1-.3-5.5-1.3-7.3-2.9s-2.6-3.6-2.6-6.1c0-2.7.8-4.9 2.5-6.4s4.1-2.4 7.3-2.6v-6.7h5.9v6.7c3.1.3 5.5 1.2 7.2 2.8s2.7 3.6 2.7 6.2zm-19.4 0c0 1.2.3 2.3 1 3.1.7.8 1.6 1.2 2.6 1.3v-8.8c-1 0-1.9.5-2.6 1.4-.7.8-1 1.8-1 3zm13.1 0c0-1.2-.3-2.2-1-3.1-.7-.8-1.5-1.3-2.6-1.3v8.8c1 0 1.9-.4 2.6-1.3s1-1.8 1-3.1z"/><circle fill="#FFF" stroke="#939598" stroke-width="6" stroke-miterlimit="10" cx="213.1" cy="59.7" r="24.6"/><path fill="#808285" d="M220.2 69.3l-1.6-1.6c-1 .6-1.7 1-2.4 1.3-.6.2-1.3.4-2.1.5-.8.1-1.6.2-2.6.2-1.7 0-3.2-.3-4.5-.9-1.3-.6-2.3-1.4-3-2.4-.7-1-1-2.2-1-3.5 0-2.8 1.4-4.9 4.3-6.4-.7-.7-1.2-1.5-1.5-2.4-.4-.8-.6-1.8-.6-2.8 0-1.7.7-3.1 2-4.1 1.3-1 3.1-1.5 5.4-1.5 2.2 0 4 .5 5.2 1.5 1.2 1 1.9 2.3 1.9 4.1 0 1.2-.3 2.3-1 3.3s-1.7 1.9-3.2 2.8l3.2 3c.8-1.2 1.4-2.6 1.7-4.1h6.5c-.3 1.5-.8 2.9-1.5 4.4-.7 1.5-1.5 2.7-2.3 3.8l5.1 4.9h-8zm-10.6-7c0 .7.2 1.2.7 1.6s1.1.6 1.9.6c.6 0 1.1-.1 1.6-.2.5-.2.8-.3 1.1-.5l-4-4c-.9.7-1.3 1.5-1.3 2.5zm4.7-11.1c0-.5-.2-.9-.5-1.1-.3-.2-.7-.3-1.1-.3-.4 0-.8.1-1.2.4-.3.3-.5.7-.5 1.3 0 .8.5 1.6 1.4 2.5.6-.3 1.1-.7 1.4-1.2.3-.6.5-1.1.5-1.6z"/><circle fill="#FFF" stroke="#939598" stroke-width="6" stroke-miterlimit="10" cx="179.3" cy="287.6" r="24.6"/><g><path fill="#808285" d="M177.8 281.8c0 2.3-.5 4.1-1.6 5.4-1.1 1.3-2.6 1.9-4.5 1.9-1.8 0-3.3-.7-4.3-2-1.1-1.3-1.6-3.1-1.6-5.4 0-2.3.5-4.1 1.6-5.4 1-1.3 2.5-1.9 4.4-1.9 1.9 0 3.3.7 4.4 2 1 1.4 1.6 3.2 1.6 5.4zm-7.2.1c0 1.2.1 2.1.3 2.6.2.5.5.8.9.8s.7-.3.9-.8c.2-.5.3-1.4.3-2.7 0-1.2-.1-2.1-.3-2.6-.2-.5-.5-.8-.9-.8s-.7.3-.9.8c-.2.6-.3 1.5-.3 2.7zm18.8-7l-12.9 23.3h-4.7l12.9-23.3h4.7zm6.1 16.2c0 2.3-.5 4.1-1.6 5.4-1.1 1.3-2.6 1.9-4.5 1.9-1.8 0-3.3-.7-4.3-2-1.1-1.3-1.6-3.1-1.6-5.4 0-2.3.5-4.1 1.6-5.4 1-1.3 2.5-1.9 4.4-1.9 1.9 0 3.3.7 4.4 2 1.1 1.4 1.6 3.2 1.6 5.4zm-7.2.1c0 1.2.1 2.1.3 2.6.2.5.5.8.9.8.5 0 .8-.3.9-.9s.3-1.5.3-2.5-.1-1.9-.3-2.5-.5-.9-.9-.9-.7.3-.9.8c-.2.5-.3 1.4-.3 2.6z"/></g><g><path fill="#6D6E71" d="M237.3 49.2s3.2 0 8.8-.1h4.7c1.7 0 3.5.1 5.5.2 3.9.1 8.3.2 13.2.6 19.2 1.2 44.9 4.5 69.8 11.2l4.7 1.2c1.6.4 3.1.8 4.6 1.3 3.1.9 6.1 1.9 9.2 2.8l2.2.6c.7.3 1.5.5 2.2.8 1.5.5 3 1 4.4 1.5 1.5.5 2.9 1 4.4 1.5.7.3 1.4.5 2.2.8.7.3 1.4.5 2.1.8 5.6 2.2 11.1 4.2 16.1 6.5 2.5 1.1 5 2.2 7.4 3.2 2.3 1.1 4.6 2.2 6.8 3.2 2.2 1.1 4.3 2 6.2 3 1.9 1 3.8 2 5.5 2.9 3.5 1.8 6.5 3.4 8.9 4.8.8.5 1.3.7 1.3.7l-5.7 10.1 6.4-.1h3.2c1.1 0 2.1 0 3.2.1 4.3.1 8.7.3 13.1.4-2-3.9-4.1-7.7-6.2-11.7-.5-1-1.1-2-1.6-2.9l-1.7-2.9-3.5-5.8-5.5 10.1s-.5-.3-1.3-.8c-2.4-1.5-5.5-3-9-4.9-1.8-.9-3.6-1.9-5.6-2.9-2-1-4.1-2-6.3-3s-4.5-2.1-6.9-3.3c-2.4-1-4.9-2.1-7.5-3.2-5.1-2.3-10.6-4.3-16.3-6.5-.7-.3-1.4-.5-2.1-.8-.7-.3-1.5-.5-2.2-.8-1.5-.5-2.9-1-4.4-1.5l-4.5-1.5c-.7-.3-1.5-.5-2.3-.8l-2.3-.7c-3.1-.9-6.1-1.9-9.2-2.8-1.5-.5-3.1-.9-4.7-1.3l-4.7-1.2c-25.1-6.8-51-10.1-70.4-11.3-4.9-.4-9.3-.4-13.3-.6-2-.1-3.8-.1-5.5-.2H246c-5.7 0-8.9.1-8.9.1l.2 3.2zM291 112.7s1.8.5 5.1 1.3c1.6.4 3.6.9 5.8 1.6 1.1.4 2.3.7 3.5 1.1 1.2.4 2.5.8 3.9 1.3 5.3 2 11.5 4.5 17.8 7.8 1.6.8 3.2 1.7 4.8 2.5 1.6.9 3.2 1.9 4.8 2.9.8.5 1.6 1 2.4 1.4.8.5 1.6 1 2.4 1.6 1.6 1.1 3.2 2.1 4.7 3.2 12.4 8.8 23.3 19.6 30.6 28.4 1.9 2.1 3.4 4.3 4.8 6.1.7.9 1.4 1.8 2 2.6.6.8 1.1 1.6 1.5 2.3.4.7.7 1 .7 1l-9.6 6.5c1.9.8 3.8 1.7 5.7 2.6 1.8 1 3.7 1.9 5.5 3 .9.5 1.9 1 2.8 1.6l2.7 1.7c1.8 1.1 3.7 2.3 5.5 3.6l.3-6.6.1-3.4v-3.4c0-2.3-.1-4.5-.2-6.9-.1-2.3-.4-4.6-.6-6.9l-9.6 6.5s-.3-.4-.7-1.1c-.5-.7-1-1.5-1.6-2.3-.6-.8-1.3-1.7-2-2.6-1.4-1.9-3-4.1-4.9-6.3-7.4-9-18.5-20-31.2-29-1.6-1.1-3.2-2.2-4.8-3.2-.8-.5-1.6-1.1-2.4-1.6-.8-.5-1.6-1-2.5-1.5-1.6-1-3.3-1.9-4.9-2.9-1.7-.9-3.3-1.7-4.9-2.6-6.4-3.4-12.7-6-18.2-8-1.3-.6-2.7-.9-4-1.4-1.3-.4-2.5-.8-3.6-1.2-2.2-.8-4.3-1.2-5.9-1.7-3.3-.8-5.2-1.3-5.2-1.3l-.6 3.3z"/><path fill="#6D6E71" d="M243.9 148.7s2.7-.7 7.4-2c1.2-.3 2.5-.7 3.9-1.1 1.4-.4 3-.7 4.6-1.1 3.3-.8 7-1.7 11.1-2.5 16.3-3.4 38.4-6.9 60.6-7.9 2.8-.1 5.6-.3 8.3-.4 2.8 0 5.5-.1 8.3-.1h4.1c1.4 0 2.7 0 4 .1 2.7 0 5.3.1 7.9.1 10.4.4 20.1 1.1 28.4 2 8.3.8 15.2 1.9 20 2.6.9.2 1.4.2 1.4.2L412 150c4-1.5 8-3.1 12.1-4.5s8.2-2.8 12.4-4.1c-3.2-2.9-6.5-5.8-9.9-8.8-3.4-2.9-6.8-5.7-10.3-8.5l-1.9 11.4s-.5-.1-1.4-.2c-4.9-.7-11.8-1.8-20.2-2.6-8.4-.9-18.2-1.6-28.7-2-2.6 0-5.3-.1-8-.1-1.4 0-2.7 0-4.1-.1h-4.1c-2.8 0-5.5.1-8.3.1-2.8.1-5.6.3-8.4.4-22.4 1-44.7 4.5-61.1 7.9-4.1.8-7.9 1.8-11.2 2.5-1.7.4-3.2.7-4.7 1.1-1.4.4-2.7.7-3.9 1.1-4.7 1.3-7.4 2-7.4 2l1 3.1zM286.7 189.6s1.3 0 3.6.1c2.3 0 5.6.3 9.5.5 7.9.6 18.3 2 28.6 4.3s20.3 5.4 27.7 8.2c3.7 1.4 6.7 2.6 8.8 3.5.7.3 1.1.5 1.1.5l-4.6 10.6c8.3-1.2 16.8-1.9 25.6-1.9-4.4-7.6-9.5-15-15.2-22.2l-4.6 10.6s-.4-.2-1.1-.5c-2.1-1-5.2-2.2-9-3.6-7.5-2.8-17.7-6-28.1-8.3-10.4-2.3-21-3.8-29-4.4-4-.3-7.3-.5-9.7-.5-2.3-.1-3.7-.1-3.7-.1l.1 3.2z"/><path fill="#6D6E71" d="M289.3 221.7s1.7-1.7 4.6-4.8c.7-.8 1.5-1.6 2.4-2.5.9-.9 1.9-1.8 3-2.8 1.1-1 2.2-2 3.4-3.1.6-.6 1.2-1.1 1.9-1.7.6-.6 1.3-1.1 2-1.7 11-9.3 27.2-20 44.7-28l6.6-3 6.6-2.7c1.1-.4 2.2-.9 3.3-1.3l3.3-1.2c2.2-.8 4.3-1.6 6.5-2.4 2.1-.8 4.3-1.4 6.3-2.1 2.1-.7 4.1-1.4 6.1-2 4-1.2 7.7-2.4 11.2-3.3 3.5-.9 6.7-1.9 9.5-2.6 2.9-.7 5.3-1.4 7.4-1.9.8-.2 1.3-.3 1.3-.3l2.8 11.2c3.1-3 6.3-6 9.4-9l9.6-8.9-12.6-3.9c-4.2-1.2-8.5-2.5-12.7-3.7l2.8 11.2s-.5.1-1.3.3c-2.1.5-4.6 1.2-7.4 1.9-2.9.7-6.1 1.7-9.6 2.6-3.5.9-7.3 2.2-11.3 3.3-2 .6-4 1.3-6.1 2-2.1.7-4.2 1.4-6.4 2.1-2.1.8-4.3 1.6-6.5 2.4l-3.3 1.2c-1.1.4-2.2.9-3.3 1.3-2.2.9-4.5 1.8-6.7 2.7-2.2 1-4.4 2-6.7 3-17.8 8.1-34.2 19-45.4 28.4-.7.6-1.4 1.1-2.1 1.7-.6.6-1.3 1.2-1.9 1.7-1.2 1.1-2.4 2.2-3.5 3.2s-2.2 1.9-3 2.9c-.9.9-1.7 1.8-2.5 2.6-3 3.1-4.7 4.8-4.7 4.8l2.3 2.4zM238.6 270.8s2.2.5 5.9 1.4c.9.2 2 .5 3.1.7 1.1.3 2.4.5 3.7.7 1.3.2 2.7.5 4.2.8.7.1 1.5.3 2.3.4l2.4.3c13.2 2 31 2.9 48.6 1.3 4.4-.5 8.8-.9 13.1-1.6 2.2-.4 4.3-.6 6.4-1 2.1-.4 4.2-.9 6.2-1.3l3-.6c1-.3 2-.5 2.9-.8l5.7-1.5c3.7-1 7.1-2.1 10.3-3.1 3.1-1.1 6-2.2 8.5-3.1 1.3-.4 2.4-1 3.5-1.4 1.1-.4 2.1-.9 3-1.2.8-.3 1.2-.5 1.2-.5l4.6 10.6 2.1-2.7 2-2.8 3.9-5.5 1-1.4.9-1.4 1.8-2.8 3.5-5.6-6.6-.2-3.2-.1-1.6-.1-1.6-.1-6.4-.6-3.1-.3-3.1-.5 4.6 10.6s-.4.2-1.2.5c-.9.4-1.9.8-2.9 1.2-1.1.4-2.2 1-3.5 1.4-2.5.9-5.3 1.9-8.4 3-3.1.9-6.5 2.1-10.1 3.1-1.8.5-3.7.9-5.6 1.4-1 .2-1.9.5-2.9.7l-3 .6c-2 .4-4 .8-6.1 1.3-2.1.4-4.2.7-6.3 1-4.2.8-8.6 1.1-12.9 1.6-17.4 1.6-35 .6-47.9-1.3l-2.4-.3c-.8-.1-1.5-.3-2.3-.4-1.5-.3-2.9-.5-4.2-.8-1.3-.3-2.5-.4-3.7-.7-1.1-.3-2.2-.5-3.1-.7-3.7-.9-5.8-1.4-5.8-1.4l-.5 3.2z"/><path fill="#6D6E71" d="M65.1 232.1V234.9l.2.8.1.1 1.6 2.6c17.2 28.2 41.3 52.1 69.3 69.7s60.1 28.7 93 31.6c32.9 2.9 66.5-2 97.3-14 15.4-6 30.1-13.8 43.7-23.2 1.7-1.2 3.4-2.3 5.1-3.5l4.9-3.8c1.6-1.3 3.3-2.5 4.9-3.8 1.6-1.3 3.2-2.7 4.7-4 1.5-1.4 3.1-2.8 4.6-4.2l1.9-1.8.5-.5 8.1 8.3c2.7-8.8 4.8-17.6 6.1-26.3-8.2 3.2-16.3 5.7-24.5 7.5l8.1 8.3-.5.5-1.9 1.8c-1.5 1.4-3 2.8-4.5 4.1-1.5 1.3-3.1 2.7-4.6 4-1.5 1.3-3.2 2.5-4.8 3.8l-4.8 3.7c-1.6 1.2-3.3 2.3-5 3.5-13.4 9.2-27.9 16.9-43.1 22.8-30.3 11.9-63.4 16.7-95.8 13.8-32.4-2.8-64.1-13.8-91.6-31.1-27.6-17.3-51.3-40.9-68.2-68.7l-1.6-2.5v-.1c0-.2.4 1.4.2.8v-2.8l-3.4-.2zM246.1 208.1s1.8.8 4.8 2.3c1.5.7 3.4 1.7 5.6 2.6 1.1.5 2.2 1 3.5 1.5 1.2.5 2.5 1.1 3.9 1.6 10.8 4.3 25.7 8.9 41 11.8 15.3 2.8 30.9 3.8 42.5 3.6 2.9 0 5.6-.2 7.9-.2 1.2-.1 2.3-.1 3.3-.1 1-.1 2-.2 2.8-.2.8-.1 1.3-.1 1.3-.1l.9 11.5c7.7-4.9 14.9-10.5 21.5-16.1-8.3-3-16.2-6.2-23.6-10.1l.9 11.5s-.5 0-1.3.1-1.8.1-2.8.2c-1 0-2.1.1-3.3.1-2.3.1-5 .3-7.8.2-11.5.2-26.8-.8-41.9-3.6-15.1-2.8-29.8-7.3-40.4-11.6-1.4-.5-2.6-1.1-3.8-1.6-1.2-.5-2.3-1-3.4-1.5-2.2-.9-4-1.8-5.5-2.5-3-1.4-4.7-2.3-4.7-2.3l-1.4 2.9z"/><path fill="#6D6E71" d="M202.1 181.7s2.5 1.1 6.9 3.2c1.1.5 2.3 1.1 3.6 1.7 1.3.6 2.8 1.1 4.4 1.8 1.6.6 3.2 1.3 5 2 .9.3 1.8.7 2.7 1.1.9.3 1.9.7 2.9 1 3.9 1.4 8.1 3 12.7 4.3 2.3.7 4.6 1.4 7 2.2 2.4.6 4.9 1.3 7.4 2 1.3.3 2.5.7 3.8 1l3.9.9c2.6.6 5.2 1.2 7.9 1.7l8.1 1.5c1.4.2 2.7.5 4.1.7 1.4.2 2.7.4 4.1.6 2.7.4 5.5.7 8.2 1.1 2.7.3 5.5.5 8.2.8 1.4.1 2.7.3 4 .4 1.3.1 2.7.1 4 .2 2.7.1 5.3.3 7.9.4 2.6 0 5.1.1 7.6.1s4.9.1 7.3 0c4.7-.2 9.2-.2 13.4-.6 8.3-.5 15.1-1.4 19.9-1.9.9-.1 1.4-.2 1.4-.2l1.6 11.5c3.6-2.8 7.2-5.5 10.6-8.4 3.4-2.9 6.7-5.8 10-8.7-4.2-1.4-8.3-2.8-12.3-4.2-4-1.5-8-3.2-11.9-4.8l1.6 11.5s-.5.1-1.4.2c-4.8.5-11.5 1.5-19.7 1.9-4.1.4-8.5.4-13.2.6-2.3.1-4.8.1-7.2 0-2.5 0-5-.1-7.5-.1-2.6-.1-5.2-.3-7.8-.4-1.3-.1-2.6-.1-4-.2-1.3-.1-2.7-.2-4-.4-2.7-.3-5.4-.5-8.1-.8-2.7-.4-5.4-.7-8.1-1.1-1.4-.2-2.7-.4-4.1-.6-1.3-.2-2.7-.5-4-.7-2.7-.5-5.4-.9-8-1.4-2.6-.6-5.2-1.2-7.8-1.7-1.3-.3-2.6-.5-3.8-.9-1.3-.3-2.5-.7-3.7-1-2.5-.7-4.9-1.3-7.3-1.9-2.4-.7-4.7-1.4-6.9-2.1-4.5-1.3-8.7-2.9-12.5-4.3-1-.3-1.9-.7-2.8-1-.9-.3-1.8-.7-2.7-1.1-1.7-.7-3.4-1.4-4.9-2-1.5-.6-3-1.2-4.3-1.8-1.3-.6-2.5-1.1-3.6-1.6-4.3-2-6.8-3.1-6.8-3.1l-1.8 2.6z"/></g></g></switch></svg>