<svg xmlns="http://www.w3.org/2000/svg" viewBox="0 0 595.3 432.9"><switch><g><circle opacity=".14" stroke="#000" stroke-width="6" stroke-miterlimit="10" cx="150.4" cy="114.7" r="66.6"/><circle fill="#F8F6C1" stroke="#808285" stroke-width="6" stroke-miterlimit="10" cx="143.8" cy="110.5" r="66.6"/><circle opacity=".14" stroke="#000" stroke-width="6" stroke-miterlimit="10" cx="403.4" cy="121.5" r="62.7"/><circle fill="#D6D5EB" stroke="#808285" stroke-width="6" stroke-miterlimit="10" cx="397.3" cy="117.6" r="62.7"/><path fill="#6D6E71" d="M178.5 83.6s.1-.1.4-.3c.3-.2.7-.6 1.3-.9 1.2-.8 3.1-1.8 5.5-2.9 5-2.2 12.5-4.4 21.8-6.2s20.3-3.1 32.1-3.8c11.8-.7 24.5-.9 37.1-.5 12.6.4 25.2 1.4 37 2.8 11.7 1.5 22.6 3.6 31.7 6.1 9.1 2.5 16.5 5.3 21.3 7.9.7.4 1.1.6 1.1.6l-4 7.4c2.8-.3 5.7-.4 8.6-.2 2.9.2 5.8.8 8.8 2-.4-3.2-1.5-6.5-2.9-9.6s-3.4-6.2-5.4-9.1l-4 7.4s-.4-.2-1.1-.6c-5-2.6-12.5-5.5-21.7-8s-20.2-4.6-32-6.1-24.5-2.5-37.3-2.9c-25.4-.8-50.9.8-69.7 4.4-9.4 1.8-17.1 4-22.3 6.3-2.6 1.2-4.6 2.3-5.8 3.1-.7.4-1.1.8-1.5 1-.3.2-.5.4-.5.4l1.5 1.7z"/><path fill="#6D6E71" d="M127.3 69s13.3-8.9 13.7-9.2c.4-.3.9-.8 1.7-1.2 1.5-1.1 3.9-2.5 7.1-3.9 6.4-2.8 16.2-5.6 28.2-7.6 24-4 56.7-5.2 89.2-2.9 16.3 1.1 32.4 3.1 47.4 5.8 15 2.8 28.7 6.3 40.2 10.6 11.4 4.2 20.3 9 25.9 13.3.2.1.4.3.6.4l.1.1c.1 0 .1.1.1.1l.1.1.1.1-5.3 6.6 2.1.1c.7.1 1.4.1 2.1.3 1.5.2 2.8.5 4.2.9 2.8.8 5.5 1.9 8.3 3.6.1-3.2-.2-6.6-1.1-10-.4-1.7-.9-3.4-1.6-5-.3-.8-.7-1.7-1-2.5l-1.1-2.5-5.3 6.6-.1-.1-.1-.1-.1-.1-.1-.1c-.2-.1-.4-.3-.7-.4-5.8-4.4-14.9-9.4-26.5-13.6-11.5-4.2-25.5-7.9-40.6-10.6-15.1-2.8-31.4-4.7-47.6-5.9-32.6-2.3-65.4-1.1-89.7 2.9-12.1 2-22.1 4.8-28.7 7.8-3.4 1.5-5.8 2.9-7.4 4.1-.8.5-1.4 1.1-1.8 1.4-.4.3-13.7 9.3-13.7 9.3l1.4 1.6zM126.4 148.5s.8.8 2.3 2.4c.8.7 1.8 1.6 3 2.6 1.2.9 2.6 2.1 4.3 3.2 3.3 2.3 7.5 4.7 12.5 7.1 5 2.3 10.9 4.5 17.4 6.5 13.1 3.9 28.7 6.8 45.5 8.4 16.8 1.7 34.9 2.2 53 1.8 18.1-.4 36.1-1.8 52.9-3.9 16.8-2.1 32.4-4.9 45.6-8.1 13.2-3.2 23.9-6.9 31.2-10.2.5-.2.9-.4 1.2-.6l.1-.1 3.6 7.6c2.1-2.8 4.1-5.7 5.8-8.8 1.7-3.1 3.1-6.3 3.4-9.6-.8.3-1.5.6-2.2.8-.8.1-1.5.4-2.2.4-.7.1-1.5.2-2.2.3s-1.5.1-2.2.1c-2.9 0-5.8-.2-8.7-.6l3.6 7.6s-.1 0-.1.1c-.3.1-.7.3-1.2.5-7.1 3.3-17.7 6.9-30.8 10.1-13.1 3.2-28.6 6-45.3 8-16.7 2-34.6 3.4-52.7 3.9-17.9.4-36-.1-52.7-1.8-16.8-1.6-32.2-4.4-45.1-8.3-6.4-1.9-12.2-4.1-17.1-6.3-5-2.3-9-4.7-12.2-6.9-1.6-1.1-2.9-2.2-4.2-3.1-1.2-.9-2.1-1.8-2.8-2.6-1.5-1.5-2.2-2.3-2.2-2.3l-1.5 1.8z"/><circle opacity=".14" stroke="#000" stroke-width="6" stroke-miterlimit="10" cx="406.4" cy="359.4" r="59.8"/><circle fill="#D9ECD5" stroke="#808285" stroke-width="6" stroke-miterlimit="10" cx="400.5" cy="355.6" r="59.8"/><circle fill="#D71920" stroke="#BE1E2D" stroke-width="6" stroke-miterlimit="10" cx="371.2" cy="376.3" r="9.6"/><circle fill="#F58235" stroke="#E76524" stroke-width="6" stroke-miterlimit="10" cx="436.6" cy="381.9" r="9.6"/><circle fill="#8967AC" stroke="#651C5F" stroke-width="6" stroke-miterlimit="10" cx="393.3" cy="355.4" r="9.6"/><circle fill="#54B948" stroke="#00873A" stroke-width="6" stroke-miterlimit="10" cx="423.9" cy="326" r="9.6"/><path fill="#6D6E71" d="M119.9 124.9s.9.7 2.8 1.8c1.8 1.1 4.5 2.7 8.1 4.4 7.1 3.4 17.7 7.4 30.8 10.9 13.1 3.5 28.4 6.6 45.1 9.1s34.5 4.3 52.4 5.4c35.8 2.3 71.8 1.5 98.6-1.9 13.3-1.7 24.4-4.2 31.9-6.7.5-.2.9-.3 1.2-.4l.1-.1 2.8 7.9c2.4-2.6 4.7-5.3 6.6-8.2s3.6-6.1 4.2-9.2c-.8.2-1.5.4-2.3.6-.8.1-1.5.2-2.3.3-.7 0-1.5.1-2.2.1-.7 0-1.5-.1-2.2-.1-2.9-.2-5.8-.8-8.5-1.5l2.8 7.9s-.1 0-.1.1c-.3.1-.7.2-1.2.4-7.3 2.6-18.2 5-31.5 6.6-26.5 3.4-62.4 4.2-98.2 1.9-17.9-1.1-35.7-2.9-52.2-5.3s-31.9-5.5-44.9-9c-12.9-3.4-23.3-7.4-30.3-10.8-3.5-1.7-6.1-3.2-7.9-4.2-1.8-1.1-2.6-1.8-2.6-1.8l-1 1.8zM423.2 149.1s.3.7.9 2c.3.7.7 1.4 1.1 2.3.4.9.8 2 1.3 3.3 2 4.9 4.3 12.1 5.8 21.1.2 1.1.4 2.3.6 3.4s.3 2.3.4 3.6c.1 1.2.4 2.5.4 3.7.1 1.2.2 2.6.3 3.9.1 1.3.2 2.6.2 3.9.1 1.3.1 2.7.2 4.1 0 1.4.1 2.8.1 4.2 0 1.4.1 2.8 0 4.2 0 1.4-.1 2.8-.1 4.3-.1 1.5-.1 2.9-.2 4.4-.1 2.9-.4 5.9-.6 8.9-.6 6-1.2 12-2.2 18-3.6 24.1-10.3 47.6-16.4 64.7-3.1 8.6-6 15.6-8.1 20.5-.1.3-.2.5-.3.7-.1.1-.1.1-.1.2l-.1.1-7.7-3.4c.7 6.2 1.3 12.5 1.5 18.9 5.4-3.4 10.7-7.1 16-11.1l-7.7-3.4s0-.1.1-.1c0-.1.1-.1.1-.2.1-.2.2-.4.3-.7 2.1-4.9 5.1-12 8.2-20.6 6.2-17.3 12.9-40.9 16.6-65.1.9-6.1 1.6-12.2 2.2-18.2.2-3 .5-6 .6-9 .1-1.5.1-2.9.2-4.4 0-1.5.1-2.9.1-4.4.1-1.5 0-2.8 0-4.3 0-1.4-.1-2.8-.1-4.2-.1-1.4-.1-2.8-.2-4.1-.1-1.4-.1-2.7-.3-4s-.2-2.6-.4-3.9c-.1-1.3-.3-2.6-.4-3.8s-.3-2.5-.5-3.6c-.2-1.2-.4-2.3-.6-3.5-1.6-9.1-3.9-16.5-6-21.5-.5-1.2-.9-2.4-1.4-3.4-.4-.9-.8-1.8-1.2-2.4-.7-1.3-.9-2-.9-2l-1.7.9z"/><path fill="#6D6E71" d="M404.9 105s.9.4 2.6 1.3c1.7.9 4.1 2.2 7.2 3.9 3.1 1.8 6.8 3.8 10.9 6.4 2.1 1.3 4.2 2.8 6.5 4.3 1.1.8 2.3 1.6 3.4 2.5 1.2.9 2.3 1.8 3.5 2.7 4.7 3.7 9.6 8.2 14.1 13.3 4.5 5.2 8.8 11.1 12.5 17.6 7.4 13.1 12.9 28.4 15.4 44.3 2.6 15.8 2 32.2-.9 46.9-3 14.7-8.4 27.9-14.4 38.4-3 5.3-6 9.8-8.9 13.8-1.4 2-2.9 3.7-4.2 5.4-.7.9-1.3 1.6-2 2.3-.7.7-1.2 1.5-1.8 2.1-.2.2-.4.4-.6.7 0 .1-.1.1-.1.1l-.1.1-.1.1-6.2-5.7c-1.1 6-2.8 12-4.9 18 6.3-1.2 12.7-2.8 19-5l-6.2-5.7.1-.1.1-.1.1-.1c.1-.2.4-.4.6-.7l1.8-2.1c.7-.7 1.3-1.5 2-2.3 1.3-1.7 2.8-3.5 4.3-5.5 3-3.9 6.1-8.7 9-14 6.1-10.6 11.5-24 14.6-39 3.1-15 3.6-31.6 1-47.7-2.5-16.1-8.1-31.7-15.6-45.1-3.8-6.6-8.1-12.7-12.8-18-4.7-5.3-9.6-9.8-14.4-13.6-1.2-.9-2.4-1.9-3.6-2.8-1.2-.9-2.3-1.7-3.5-2.5-2.3-1.5-4.5-3.1-6.6-4.4-4.2-2.6-7.9-4.7-11.1-6.5-3.1-1.7-5.5-3.1-7.3-3.9-1.7-.9-2.6-1.4-2.6-1.4l-.8 2z"/><path fill="#6D6E71" d="M175.8 89.6s2.8 4.4 7.9 12.1c5 7.7 12.2 18.7 20.9 31.7 8.8 13.1 19.3 28.2 31 43.9 5.9 7.9 12.1 15.9 18.6 23.9 6.6 8 13.3 16 20.4 23.8 14.1 15.5 29.2 30.2 44.4 42.7.9.8 1.9 1.6 2.8 2.3.9.8 1.9 1.5 2.8 2.3 1.9 1.5 3.8 3 5.6 4.4 1.9 1.4 3.8 2.8 5.6 4.2.9.7 1.8 1.4 2.8 2 .9.7 1.9 1.3 2.8 2 1.8 1.3 3.6 2.6 5.5 3.8l5.4 3.6c1.8 1.2 3.5 2.3 5.3 3.4 1.8 1.1 3.5 2.1 5.2 3.1 13.6 8.1 25.5 13.7 33.9 17.4.9.4 1.5.7 1.5.7l-3.3 7.8 4.9-.6 2.4-.3 2.4-.4c3.2-.5 6.4-1 9.5-1.5-2-2.5-4.1-5-6.1-7.4l-1.5-1.8c-.5-.6-.9-1.2-1.5-1.9l-2.8-3.8-3.3 7.8s-.5-.2-1.5-.7c-8.4-3.6-20.2-9.2-33.6-17.2-1.7-1-3.4-2-5.1-3.1-1.8-1-3.4-2.3-5.3-3.4-1.8-1.2-3.6-2.3-5.4-3.5s-3.6-2.5-5.5-3.8c-.9-.7-1.8-1.3-2.8-2-.9-.7-1.8-1.4-2.8-2-1.8-1.4-3.7-2.8-5.6-4.2-1.8-1.5-3.7-2.9-5.6-4.4-.9-.7-1.9-1.5-2.8-2.3-.9-.8-1.9-1.5-2.8-2.3-15.1-12.5-30.1-27.1-44.2-42.5-7.1-7.7-13.8-15.7-20.3-23.7-6.5-7.9-12.7-16-18.6-23.8-11.7-15.8-22.1-30.9-30.9-43.8-8.8-13.1-15.9-24-20.9-31.7s-7.9-12.1-7.9-12.1l-1.5 1.3z" opacity=".56"/><path fill="#6D6E71" d="M131.7 76.7s3 5.3 8.2 14.7c5.3 9.3 12.6 22.7 21.8 38.5 9.2 15.8 20.2 34.2 33 53.2 6.5 9.5 13.4 19 20.9 28.5 7.5 9.4 15.5 18.7 24.1 27.5 8.6 8.8 17.6 17.1 26.9 24.7 2.3 1.9 4.7 3.7 7.1 5.6 1.2.9 2.3 1.8 3.5 2.8 1.2.9 2.4 1.8 3.6 2.6 2.4 1.8 4.7 3.5 7.1 5.1l7.2 4.8c2.3 1.6 4.8 3.1 7.2 4.5 1.2.7 2.4 1.5 3.6 2.2.6.4 1.2.7 1.8 1.1.6.4 1.2.7 1.8 1 4.8 2.7 9.5 5.4 14.3 7.7 2.3 1.2 4.7 2.4 7 3.4s4.6 2.1 6.9 3.1c1.1.5 2.3 1 3.4 1.5 1.1.4 2.3.9 3.4 1.3 2.2.9 4.4 1.8 6.6 2.6.5.2 1.1.4 1.6.7.5.2 1.1.4 1.6.6 1.1.4 2.1.7 3.1 1.1 2.1.7 4.1 1.4 6.1 2.1.9.4 2 .6 3 .9.9.3 2 .6 2.9.8 1.9.6 3.8 1.1 5.5 1.6 7.2 1.8 13.6 3.4 18.9 4.2 1.1.2 1.8.3 1.8.3l-1.5 8.3 4.6-1.6c1.5-.6 3.1-1.2 4.6-1.8 3-1.2 6-2.5 8.9-3.7-2.6-1.9-5.1-3.9-7.6-5.8-1.2-.9-2.5-1.9-3.6-2.9l-3.6-3.1-1.5 8.3s-.7-.1-1.8-.3c-5.3-.8-11.5-2.3-18.7-4.2-1.8-.5-3.6-1-5.5-1.6-.9-.3-1.9-.6-2.8-.8-.9-.3-2-.5-2.9-.9-2-.7-4-1.4-6.1-2-1-.4-2-.7-3.1-1.1-.5-.2-1.1-.4-1.6-.6-.5-.2-1-.4-1.6-.7-2.1-.8-4.3-1.7-6.5-2.6-1.1-.4-2.2-.9-3.4-1.3-1.1-.5-2.2-1-3.4-1.5-2.3-1-4.5-2-6.9-3.1-2.3-1.1-4.6-2.3-6.9-3.4-4.7-2.3-9.3-5-14.1-7.6-.6-.4-1.2-.7-1.8-1-.6-.4-1.2-.7-1.8-1.1-1.2-.7-2.4-1.5-3.6-2.2-2.4-1.5-4.8-2.9-7.1-4.5s-4.7-3.2-7.1-4.8c-2.4-1.6-4.7-3.4-7.1-5.1-1.2-.9-2.4-1.8-3.6-2.6-1.2-.9-2.3-1.8-3.5-2.7-2.3-1.8-4.7-3.6-7-5.5-9.3-7.6-18.2-15.9-26.7-24.6-8.5-8.8-16.4-17.9-23.8-27.3-7.4-9.4-14.4-19-20.8-28.4-12.8-18.9-23.8-37.2-33-53-9.1-15.8-16.6-29.2-21.8-38.5-5.3-9.3-8.2-14.7-8.2-14.7l-2 1.3z" opacity=".56"/><path fill="#6D6E71" d="M129.9 160.3s.4 1.2 1.2 3.5c.4 1.2.8 2.6 1.5 4.2.3.8.7 1.7.9 2.6.4.9.7 1.9 1.2 3 .9 2 1.8 4.4 2.9 6.9.6 1.2 1.2 2.5 1.8 3.9.7 1.3 1.3 2.6 2 4.1 2.8 5.5 6.2 11.7 10.2 18.2 8.2 13 19.1 27.2 32.6 40.8 13.5 13.6 29.8 26 47 37 8.5 5.5 17.4 10.7 26.1 15.6 4.4 2.5 8.8 4.7 13.1 7.1 4.4 2.3 8.7 4.4 13 6.5 2.1 1 4.3 2.1 6.4 3.1 2.1 1 4.2 2 6.3 2.9 4.2 1.9 8.3 3.7 12.3 5.4 8 3.4 15.8 6.4 22.9 9.2 14.3 5.3 26.4 9.2 34.9 11.8.9.3 1.5.4 1.5.4l-2.4 8.1c3.1-.7 6.3-1.5 9.4-2.3l9.3-2.4-6.7-6.9-6.6-6.9-2.4 8.1s-.6-.1-1.5-.4c-8.5-2.6-20.6-6.4-34.8-11.7-7.1-2.7-14.8-5.7-22.8-9.1-4-1.7-8.1-3.5-12.3-5.4-2-.9-4.2-2-6.3-2.9-2.1-.9-4.2-2-6.3-3.1-4.3-2-8.6-4.2-12.9-6.5-4.3-2.3-8.7-4.6-13.1-7.1-8.7-4.9-17.4-10-26-15.5-17.1-10.9-33.2-23.3-46.6-36.8-13.4-13.4-24.2-27.6-32.3-40.4-4-6.4-7.4-12.5-10.1-18-.7-1.4-1.3-2.7-2-4-.6-1.3-1.2-2.6-1.7-3.8-1.1-2.4-2-4.7-2.8-6.7-.4-1-.8-2-1.1-2.9-.4-.9-.7-1.8-.9-2.6-.6-1.6-1-3-1.5-4.1-.7-2.3-1.2-3.4-1.2-3.4l-2.2.5z" opacity=".56"/><path fill="#6D6E71" d="M110.4 128.1s-.3 1.6-.8 4.6c-.3 1.5-.5 3.4-.8 5.5-.1 1.1-.3 2.3-.4 3.5-.1 1.2-.2 2.6-.4 4-.4 5.6-.7 12.5-.1 20.3.4 7.9 1.5 16.7 3.4 26.2s4.7 19.6 8.7 30c.9 2.6 2 5.2 3.1 7.8.5 1.3 1.2 2.6 1.8 3.9l1.8 3.9c.3.7.7 1.3.9 2 .4.7.7 1.3 1 2l2.1 3.9c1.4 2.6 3 5.2 4.6 7.7 6.4 10.2 14.1 20.1 22.9 29.3 8.8 9.2 18.5 17.7 28.9 25.4 10.4 7.7 21.4 14.4 32.7 20.1 11.3 5.8 22.8 10.6 34.4 14.3 11.5 3.6 22.9 6.3 33.8 8.1s21.3 2.9 30.9 3.7c19.3 1.5 35.3 1.8 46.5 2 1.2 0 1.8.1 1.8.1l-.2 8.5 16.8-9.3-16.4-9.9-.2 8.5s-.7 0-1.8-.1c-11.2-.3-27.2-.6-46.4-2-9.6-.8-19.9-1.9-30.7-3.7-10.8-1.8-22.1-4.4-33.5-8-11.4-3.6-22.8-8.5-34-14.1-11.2-5.8-22.1-12.4-32.4-20-10.3-7.6-19.9-16-28.5-25.1-8.6-9.1-16.3-18.9-22.6-29-1.5-2.6-3.2-5-4.5-7.7l-2.1-3.9c-.4-.7-.7-1.2-1-1.9-.3-.7-.6-1.3-.9-2l-1.8-3.9-1.8-3.9c-1.1-2.6-2.2-5.1-3.1-7.7-3.9-10.2-6.7-20.2-8.6-29.6-1.9-9.3-2.9-18.1-3.4-25.8-.5-7.7-.2-14.5.1-20.1.1-1.4.2-2.7.3-3.9.1-1.2.3-2.4.4-3.4.3-2.1.5-3.9.8-5.4.5-2.9.8-4.5.8-4.5l-2.1-.4z" opacity=".56"/><circle fill="#FCE600" stroke="#FD0" stroke-width="6" stroke-miterlimit="10" cx="127.6" cy="149.9" r="10.6"/><circle fill="#39BCED" stroke="#008DD2" stroke-width="6" stroke-miterlimit="10" cx="131.2" cy="71" r="10.6"/><circle fill="#54B948" stroke="#00873A" stroke-width="6" stroke-miterlimit="10" cx="172.5" cy="83.4" r="10.6"/><circle fill="#D71920" stroke="#BE1E2D" stroke-width="6" stroke-miterlimit="10" cx="114.5" cy="118.1" r="10.6"/><circle fill="#8967AC" stroke="#651C5F" stroke-width="6" stroke-miterlimit="10" cx="394" cy="98.5" r="10.6"/><circle fill="#F58235" stroke="#E76524" stroke-width="6" stroke-miterlimit="10" cx="418" cy="137.9" r="10.6"/></g></switch></svg>