<svg xmlns="http://www.w3.org/2000/svg" viewBox="0 0 595.3 359"><switch><g><g stroke-width="6" stroke-miterlimit="10"><circle opacity=".14" stroke="#000" cx="163" cy="163.6" r="134.8"/><circle fill="#E6E7E8" stroke="#808285" cx="149.7" cy="155.1" r="134.8"/><circle opacity=".14" stroke="#000" cx="435" cy="170" r="88.1"/><circle fill="#E6E7E8" stroke="#808285" cx="426.3" cy="164.4" r="88.1"/></g><circle fill="#8967AC" stroke="#651C5F" stroke-width="6" stroke-miterlimit="10" cx="425.1" cy="123.6" r="21.5"/><path fill="#6D6E71" d="M219.5 100s.6-.5 1.7-1.3c.6-.4 1.3-1 2.1-1.6.8-.6 1.8-1.4 2.9-2.1 4.3-3.1 10.6-7.3 18.6-11.7 8-4.3 17.8-8.6 28.7-11.7 5.4-1.6 11.2-2.8 17.1-3.7 5.9-.9 11.9-1.2 18-1.3 6.1 0 12.1.6 18 1.5 2.9.6 5.8 1.1 8.6 1.8 1.4.4 2.8.7 4.2 1.1 1.4.4 2.7.9 4.1 1.3 10.7 3.6 20.1 8.8 27.5 13.9 1.9 1.2 3.6 2.6 5.2 3.8.8.6 1.6 1.2 2.4 1.9.7.6 1.5 1.3 2.2 1.9 2.9 2.3 5.1 4.6 7 6.5.4.4.7.6.9.8l.2.2-8.2 8.1c7.9 1.8 16 4.6 24 8.2-1-8.7-2.6-17.6-5.3-26.7l-8.2 8.1-.2-.2-.9-.9c-2-1.9-4.3-4.2-7.2-6.6-.7-.6-1.5-1.3-2.2-1.9-.8-.6-1.6-1.2-2.4-1.9-1.7-1.3-3.4-2.7-5.4-4-7.7-5.3-17.3-10.6-28.3-14.3-1.4-.4-2.8-.9-4.2-1.3-1.4-.5-2.9-.8-4.3-1.2-2.9-.8-5.9-1.3-8.9-1.9-6-.9-12.2-1.5-18.5-1.6-6.2 0-12.4.4-18.5 1.3-6 .9-11.9 2.1-17.5 3.8-11.2 3.1-21.2 7.6-29.3 12-8.2 4.4-14.6 8.7-19 11.9-1.1.8-2.1 1.5-2.9 2.1-.8.6-1.5 1.2-2.1 1.6-1.1.9-1.8 1.4-1.8 1.4l1.9 2.7z"/><path fill="#6D6E71" d="M142.5 59.4s.9-.8 2.6-2.2c1.7-1.4 4.3-3.5 7.7-5.9 6.8-4.8 17.2-10.9 30.7-16.1 6.7-2.6 14.2-5 22.2-7s16.6-3.6 25.5-4.8c17.9-2.2 37.2-2.5 56.4-.2 19.1 2.2 37.9 6.8 54.6 13.5 16.7 6.6 31.3 15.3 42.5 24.3 11.3 9 19.2 18 24.2 24.7.7.9 1.1 1.4 1.1 1.4l-9.3 6.9c7.6 2.9 15.2 6.8 22.5 11.6.5-8.7.1-17.9-1.3-27.2l-9.3 6.9s-.4-.5-1.1-1.5c-5.1-6.8-13.3-16.1-24.8-25.3-11.4-9.2-26.3-18-43.3-24.7-17-6.8-36.1-11.5-55.5-13.7-19.4-2.2-39-2-57.1.2-9.1 1.2-17.8 2.8-25.9 4.8-8.1 2-15.7 4.5-22.5 7.1-13.7 5.3-24.4 11.5-31.4 16.5-3.5 2.5-6.1 4.6-7.9 6.1-1.7 1.5-2.7 2.3-2.7 2.3l2.1 2.3z"/><circle fill="#F58235" stroke="#E76524" stroke-width="6" stroke-miterlimit="10" cx="435" cy="203.4" r="21.5"/><path fill="#6D6E71" d="M228.5 201s2.2 2 5.9 5.6c1.9 1.7 4.3 3.8 7.1 6.2 2.9 2.2 6 4.9 9.7 7.4 7.3 5.2 16.2 10.7 26.5 15.3 10.2 4.6 21.9 7.9 33.8 9.5 6 .7 12 .9 17.9.8 5.9-.3 11.7-.9 17.2-1.9 11-2.1 21-5.5 29.2-9.1 8.2-3.7 14.7-7.4 19.1-10.2.4-.3.8-.5 1-.6.1-.1.2-.1.2-.1l6.2 9.7c4.6-8.1 8.3-16.4 11.2-24.6-8.6 1.6-17.2 2.4-25.4 2.5l6.2 9.7s-.1 0-.2.1c-.2.1-.6.4-1 .6-4.3 2.7-10.7 6.4-18.7 10-8 3.6-17.7 6.9-28.5 8.9-5.4 1-11 1.6-16.7 1.9-5.7.2-11.6-.1-17.4-.8-11.6-1.5-22.9-4.7-32.9-9.2-10-4.4-18.8-9.8-25.9-15-3.6-2.5-6.7-5.1-9.5-7.3-2.7-2.3-5.1-4.4-7-6.1-3.7-3.5-5.9-5.5-5.9-5.5l-2.1 2.2z"/><path fill="#6D6E71" d="M115.2 242.3s.9 1 2.6 2.8c1.7 1.8 4.3 4.4 7.6 7.6 6.8 6.4 16.9 15 30.6 23.2 13.6 8.2 30.9 15.7 50.3 20.3 19.4 4.6 40.8 6.2 61.9 4.8 21.2-1.4 42.1-5.8 60.9-11.9 18.9-6.2 35.8-14.1 49.5-22.2 13.7-8.1 24.2-16.3 31.1-22.6.4-.3.7-.6 1-.9l.2-.2.2-.2 7.9 8.5c1.5-4.4 2.8-8.9 3.9-13.3 1-4.5 1.8-8.9 2.2-13.3-4 1.8-8 3.3-12 4.5-4 1.2-8.1 2.1-12.1 2.9l7.9 8.5-.2.2-.2.2c-.3.3-.6.5-1 .9-6.7 6.2-17 14.2-30.6 22.2-13.5 8-30.2 15.8-48.8 21.9-18.6 6.1-39.3 10.4-60.2 11.8-20.9 1.4-41.9-.2-61-4.8-19.1-4.5-36-11.9-49.4-19.9-13.4-8-23.4-16.6-30.1-22.8-3.3-3.2-5.8-5.7-7.5-7.5-1.7-1.8-2.6-2.7-2.6-2.7l-2.1 2z"/><circle fill="#D71920" stroke="#BE1E2D" stroke-width="6" stroke-miterlimit="10" cx="223.3" cy="185.4" r="21.5"/><g stroke-width="6" stroke-miterlimit="10"><circle fill="#FCE600" stroke="#FD0" cx="116.9" cy="234.9" r="21.5"/><circle fill="#39BCED" stroke="#008DD2" cx="124.1" cy="75.2" r="21.5"/><circle fill="#54B948" stroke="#00873A" cx="208" cy="100.2" r="21.5"/></g></g></switch></svg>