<svg xmlns="http://www.w3.org/2000/svg" viewBox="0 0 595.3 201"><switch><g><circle opacity=".14" stroke="#000" stroke-width="6" stroke-miterlimit="10" cx="378.6" cy="97.1" r="59"/><circle fill="#D6D5EB" stroke="#808285" stroke-width="6" stroke-miterlimit="10" cx="372.7" cy="93.3" r="59"/><circle opacity=".14" stroke="#000" stroke-width="6" stroke-miterlimit="10" cx="83.7" cy="86.7" r="62.6"/><circle fill="#F8F6C1" stroke="#808285" stroke-width="6" stroke-miterlimit="10" cx="77.5" cy="82.7" r="62.6"/><circle opacity=".14" stroke="#000" stroke-width="6" stroke-miterlimit="10" cx="224.2" cy="89.8" r="59"/><circle fill="#D6D5EB" stroke="#808285" stroke-width="6" stroke-miterlimit="10" cx="218.3" cy="86.1" r="59"/><circle fill="#8967AC" stroke="#651C5F" stroke-width="6" stroke-miterlimit="10" cx="215.3" cy="68.1" r="10"/><path fill="#6D6E71" d="M110.4 57.8s.3-.2.8-.6c.5-.4 1.2-1 2.2-1.6 1.9-1.3 4.7-3.2 8.3-5 7.1-3.7 17.5-7.1 28.2-7.9 5.3-.4 10.7-.2 15.7.5s9.5 2 13.2 3.4c3.8 1.4 6.7 3 8.7 4.1.6.4 1 .6 1 .6l-6 9.9c3.6-.3 7.5-.3 11.4.4 3.9.7 8 1.9 12 3.7-.5-4.3-1.5-8.8-3.1-13.3s-3.9-9-6.7-13.3l-6 9.9s-.4-.2-1-.6c-2.1-1.2-5.2-2.9-9.2-4.4-3.9-1.5-8.7-2.8-13.9-3.6-5.2-.8-10.8-.9-16.4-.5-11.2.8-22 4.4-29.4 8.2-3.7 1.9-6.7 3.8-8.7 5.2-1 .7-1.8 1.3-2.3 1.7-.5.4-.8.6-.8.6l2 2.6z"/><path fill="#6D6E71" d="M74.7 38.9s.4-.3 1.2-1c.4-.3.9-.7 1.4-1.2.5-.5 1.3-.9 2-1.4 3-2.1 7.7-4.8 13.8-7.1 6-2.3 13.4-4.2 21.4-5.4 8-1.2 16.7-1.5 25.4-1.1 8.7.4 17.2 1.8 25.1 3.9 7.8 2.1 14.9 4.9 20.6 7.9 5.7 3 10 6.2 12.9 8.6.6.5 1 .9 1 .9l-7.6 8.7c7.4.7 15.3 3 22.6 7.9.5-8.7-1.3-18.4-5.3-27.7l-7.6 8.7s-.4-.3-1-.9c-3-2.5-7.5-5.8-13.5-9-5.9-3.1-13.2-6-21.2-8.2-8-2.1-16.8-3.6-25.7-4-8.9-.5-17.8-.1-26 1.1-8.2 1.2-15.8 3.2-22.1 5.6-6.3 2.4-11.2 5.2-14.4 7.4-.8.6-1.6 1-2.1 1.5-.6.5-1.1.9-1.5 1.2-.8.7-1.3 1-1.3 1l1.9 2.6z"/><circle fill="#F58235" stroke="#E76524" stroke-width="6" stroke-miterlimit="10" cx="237.8" cy="105.2" r="10"/><path fill="#6D6E71" d="M60.8 123.8s.5.5 1.3 1.4l1.6 1.6c.7.6 1.3 1.4 2.2 2.1 3.5 3.1 8.7 7.2 15.7 10.9s15.8 6.9 25.5 8.8c4.8 1 9.9 1.6 15.1 2.1 1.3.1 2.6.1 3.9.2 1.3 0 2.6.2 3.9.1 2.6 0 5.2.1 7.9-.1 10.5-.4 20.9-1.9 30.5-4.1 9.6-2.2 18.3-5 25.6-8 7.3-2.9 13.1-6 17.1-8.3.8-.5 1.2-.7 1.2-.7l6 9.9c.6-1 1.3-2 1.9-3.1l1.7-3.2.8-1.6.8-1.6 1.5-3.2c1.8-4.4 3.2-8.9 3.7-13.3-4 1.8-8.1 2.6-12.1 3.1l-3 .3-1.5.1h-4.5c-1 0-2-.1-3-.1l6 9.9s-.4.3-1.2.7c-3.9 2.3-9.5 5.2-16.7 8.1-7.1 2.9-15.7 5.7-25.1 7.8-9.4 2.2-19.6 3.6-29.9 4-2.6.2-5.1.1-7.7.1-1.3 0-2.6-.1-3.8-.1-1.3-.1-2.5-.1-3.8-.2-5-.4-10-1-14.7-2-9.4-1.9-17.9-5-24.6-8.5-6.8-3.6-11.8-7.5-15.1-10.5-.9-.7-1.5-1.5-2.1-2.1-.6-.6-1.1-1.1-1.5-1.6l-1.3-1.3-2.3 2.4z"/><circle fill="#FCE600" stroke="#FD0" stroke-width="6" stroke-miterlimit="10" cx="62.3" cy="119.8" r="10"/><circle fill="#39BCED" stroke="#008DD2" stroke-width="6" stroke-miterlimit="10" cx="65.6" cy="45.6" r="10"/><circle fill="#54B948" stroke="#00873A" stroke-width="6" stroke-miterlimit="10" cx="104.5" cy="57.3" r="10"/><circle opacity=".14" stroke="#000" stroke-width="6" stroke-miterlimit="10" cx="517.9" cy="91.3" r="56.2"/><circle fill="#D9ECD5" stroke="#808285" stroke-width="6" stroke-miterlimit="10" cx="512.3" cy="87.7" r="56.2"/><circle fill="#D71920" stroke="#BE1E2D" stroke-width="6" stroke-miterlimit="10" cx="476.7" cy="73.3" r="9"/><circle fill="#8967AC" stroke="#651C5F" stroke-width="6" stroke-miterlimit="10" cx="508.3" cy="84" r="9"/><circle fill="#54B948" stroke="#00873A" stroke-width="6" stroke-miterlimit="10" cx="534.2" cy="59.9" r="9"/><path fill="#6D6E71" d="M407.5 115.5s.3.2.8.6c.5.4 1.2 1 2.3 1.6.5.3 1.1.7 1.7 1 .6.3 1.4.6 2.1 1 .8.3 1.6.6 2.5.9.9.3 1.8.5 2.8.8 3.9.9 8.6 1.3 13.5 1.1 4.9-.2 10.1-1 15.2-2.1 10.2-2.3 19.9-6.3 26.8-9.8 3.5-1.8 6.3-3.4 8.2-4.6.6-.4 1-.6 1-.6l6.1 9.8c2.5-4.1 4.6-8.3 6.5-12.6 1.8-4.3 3.3-8.6 4.1-12.9-4.2 1.4-8.3 2.2-12.4 2.7s-8.1.6-12.1.5l6.1 9.8s-.4.2-1 .6c-1.9 1.2-4.6 2.7-8 4.5-6.8 3.4-16.2 7.3-26.1 9.5-4.9 1.1-9.9 1.8-14.6 2-4.7.2-9.1-.2-12.7-1-3.6-.8-6.4-2.1-8.2-3.2-.9-.5-1.5-1-2-1.4-.4-.3-.7-.5-.7-.5l-1.9 2.3zM377.4 63.1l1.1-1.1c.4-.4.8-.8 1.3-1.4.3-.3.5-.6.9-.9.3-.3.7-.6 1-.9 2.8-2.7 7.1-6.2 12.7-9.9 1.4-1 2.9-1.8 4.4-2.7 1.5-.9 3.2-1.7 4.9-2.7 3.4-1.7 7.1-3.4 11-4.8 3.9-1.5 8-2.7 12.3-3.8 2.1-.5 4.3-1 6.5-1.4 2.2-.4 4.4-.7 6.6-1 8.8-1.1 17.8-1.1 26.1-.2 8.3.9 16 2.5 22.4 4.5.8.2 1.6.5 2.3.7.8.3 1.5.5 2.2.8 1.4.5 2.8.9 4.1 1.5 1.3.5 2.4 1 3.5 1.4 1.1.5 2.1.9 2.9 1.3.8.3 1.2.5 1.2.5L500 53.5c8-1.1 16.5-1.3 25.2-.4-3.6-8-8.3-15.9-14.1-23.4l-4.9 10.5-1.2-.6c-.9-.4-1.9-.9-3-1.4-1.1-.4-2.3-.9-3.6-1.4-1.3-.5-2.7-1-4.2-1.5-.7-.3-1.5-.5-2.3-.8-.8-.2-1.6-.5-2.4-.7-6.6-2-14.4-3.7-22.9-4.6-8.5-.9-17.7-.8-26.8.2-2.3.3-4.5.6-6.8 1s-4.5.9-6.7 1.4c-4.4 1.1-8.6 2.3-12.6 3.9-4 1.4-7.8 3.2-11.4 4.9-1.7.9-3.4 1.8-5 2.8-1.6 1-3.2 1.8-4.6 2.8-5.7 3.8-10.2 7.5-13.1 10.2-.4.3-.7.7-1.1 1l-.9.9c-.5.6-1 1-1.4 1.4l-1.2 1.2 2.4 2.2z"/><circle fill="#8967AC" stroke="#651C5F" stroke-width="6" stroke-miterlimit="10" cx="370.5" cy="71.6" r="11.3"/><circle fill="#F58235" stroke="#E76524" stroke-width="6" stroke-miterlimit="10" cx="398.2" cy="105.2" r="11.3"/><path fill="#6D6E71" d="M48.6 97.1l.4.4c.2.2.6.6 1.1 1 .9.9 2.4 2 4.4 3.2 3.9 2.5 9.9 5.1 17.2 7.4 14.7 4.7 34.8 8.4 55 10.7 20.2 2.3 40.6 3.1 55.9 2.6 7.7-.2 14-.7 18.5-1.2.9-.1 1.4-.2 1.4-.2l1.4 11.5c3.8-2.7 7.6-5.5 11.1-8.6 1.8-1.5 3.5-3.1 5.1-4.8 1.6-1.7 3-3.5 4.1-5.4-2.2 0-4.3-.4-6.3-.8-2-.5-4-1.1-5.9-1.7-3.9-1.4-7.6-3-11.3-4.7l1.4 11.5s-.5.1-1.4.2c-4.4.5-10.6 1-18.2 1.2-15.1.4-35.4-.3-55.5-2.6-20.1-2.2-40.1-5.9-54.4-10.5-7.2-2.3-12.9-4.8-16.5-7.1-1.8-1.1-3.1-2.1-3.9-2.9l-.9-.9c-.2-.3-.3-.4-.3-.4l-2.4 2.1z"/><circle fill="#D71920" stroke="#BE1E2D" stroke-width="6" stroke-miterlimit="10" cx="42.3" cy="89.5" r="10"/></g></switch></svg>