<svg xmlns="http://www.w3.org/2000/svg" viewBox="0 0 595.3 177"><ellipse cy="33.95" cx="86.696" transform="matrix(.92801 .37255 -.38306 .92372 0 0)" rx="23.611" ry="23.339" fill="#d7d7d5"/><ellipse cy="29.177" cx="78.051" stroke-miterlimit="10" transform="matrix(.92016 .39155 -.36433 .93127 0 0)" rx="21.465" ry="22.119" fill="#b5b5b1" stroke="#878578" stroke-width="5.315"/><ellipse cy="57.637" cx="232.391" transform="matrix(.92801 .37255 -.38306 .92372 0 0)" rx="23.611" ry="23.339" fill="#d7d7d5"/><ellipse cy="49.876" cx="223.325" stroke-miterlimit="10" transform="matrix(.92016 .39155 -.36433 .93127 0 0)" rx="21.465" ry="22.119" fill="#b5b5b1" stroke="#878578" stroke-width="5.315"/><ellipse cy="-51.206" cx="328.276" transform="matrix(.92801 .37255 -.38306 .92372 0 0)" rx="23.611" ry="23.339" fill="#d7d7d5"/><ellipse cy="-60.982" cx="321.446" stroke-miterlimit="10" transform="matrix(.92016 .39155 -.36433 .93127 0 0)" rx="21.465" ry="22.119" fill="#b5b5b1" stroke="#878578" stroke-width="5.315"/><ellipse cy="-51.805" cx="499.573" transform="matrix(.92801 .37255 -.38306 .92372 0 0)" rx="23.611" ry="23.339" fill="#d7d7d5"/><ellipse cy="-65.105" cx="492.823" stroke-miterlimit="10" transform="matrix(.92016 .39155 -.36433 .93127 0 0)" rx="21.465" ry="22.119" fill="#b5b5b1" stroke="#878578" stroke-width="5.315"/></svg>